<?xml version="1.0" standalone="no"?>
<!DOCTYPE svg PUBLIC "-//W3C//DTD SVG 1.1//EN" "http://www.w3.org/Graphics/SVG/1.1/DTD/svg11.dtd" >
<svg xmlns="http://www.w3.org/2000/svg" xmlns:xlink="http://www.w3.org/1999/xlink" version="1.1">
<metadata>
Created by FontForge 20170731 at Mon Feb 13 22:30:08 2017
 By Aleksey,,,
Copyright (c) 2015 by Jakob Runge, under exclusive license to type me! fonts. All rights reserved.
</metadata>
<defs>
<font id="CeraGR-LightItalic" horiz-adv-x="560" >
  <font-face 
    font-family="Cera"
    font-weight="400"
    font-style="italic"
    font-stretch="normal"
    units-per-em="1000"
    panose-1="0 0 4 0 0 0 0 0 0 0"
    ascent="800"
    descent="-200"
    x-height="474"
    cap-height="660"
    bbox="-130 -246 1295 901"
    underline-thickness="50"
    underline-position="-175"
    slope="-10"
    unicode-range="U+0020-F8FF"
  />
<missing-glyph horiz-adv-x="704" 
d="M172 660h509l-116 -660h-509zM529 38l102 583h-425z" />
    <glyph glyph-name=".notdef" horiz-adv-x="704" 
d="M172 660h509l-116 -660h-509zM529 38l102 583h-425z" />
    <glyph glyph-name=".null" horiz-adv-x="0" 
 />
    <glyph glyph-name="nonmarkingreturn" horiz-adv-x="333" 
 />
    <glyph glyph-name="space" unicode=" " horiz-adv-x="280" 
 />
    <glyph glyph-name="exclam" unicode="!" horiz-adv-x="285" 
d="M248 660l-92 -466h-44l72 466h64zM107 88q19 0 35 -14q15 -14 15 -36q0 -21 -15 -34q-14 -14 -35 -14t-34 14q-15 13 -15 34q0 22 15 36q14 14 34 14z" />
    <glyph glyph-name="quotedbl" unicode="&#x22;" horiz-adv-x="431" 
d="M252 660l-79 -247h-42l59 247h62zM411 660l-79 -247h-43l60 247h62z" />
    <glyph glyph-name="numbersign" unicode="#" horiz-adv-x="547" 
d="M553 411h-99l-28 -161h99l-8 -45h-99l-36 -205h-45l36 205h-211l-36 -205h-45l36 205h-98l8 45h97l29 161h-97l8 44h97l36 205h44l-35 -205h211l36 205h45l-36 -205h99zM170 250h211l28 161h-211z" />
    <glyph glyph-name="dollar" unicode="$" horiz-adv-x="535" 
d="M453 503q-37 60 -96 77l-40 -231l17 -11q113 -65 113 -153q0 -64 -48 -113q-50 -50 -138 -50h-2l-20 -114h-51l21 119q-108 22 -167 136l42 24q52 -93 133 -112l44 249l-20 11q-52 31 -79 63q-30 33 -30 83q0 60 47 107q46 46 131 46h6l20 117h51l-21 -123
q81 -19 128 -99zM185 483q0 -35 23 -60q25 -26 62 -47l38 210q-60 0 -91 -30q-32 -30 -32 -73zM394 182q0 36 -21 62q-24 28 -66 52l-39 -226q59 2 93 34q33 32 33 78z" />
    <glyph glyph-name="percent" unicode="%" horiz-adv-x="801" 
d="M269 670q65 0 109 -44q43 -44 43 -110q0 -68 -48 -116t-117 -48q-66 0 -108 45q-43 44 -43 109q0 69 48 117q49 47 116 47zM702 660l-518 -660h-48l517 660h49zM269 630q-50 0 -85 -35q-34 -34 -34 -88q0 -50 31 -82q30 -33 78 -33q50 0 83 36q33 34 33 88q0 48 -29 82
q-29 32 -77 32zM577 308q65 0 109 -44q43 -44 43 -110q0 -68 -48 -116t-117 -48q-66 0 -109 45q-42 45 -42 109q0 69 48 117q49 47 116 47zM578 268q-51 0 -86 -35q-33 -35 -33 -88q0 -49 30 -81q31 -33 79 -33q50 0 83 35t33 88q0 48 -29 82q-29 32 -77 32z" />
    <glyph glyph-name="ampersand" unicode="&#x26;" horiz-adv-x="605" 
d="M587 263q-87 -103 -128 -146l77 -117h-59l-53 82q-101 -92 -198 -92q-78 0 -134 45q-54 45 -54 118q0 65 47 115q44 47 147 107q-52 82 -52 142t41 107q40 46 108 46q61 0 96 -36q35 -37 35 -89q0 -56 -41 -99q-40 -41 -119 -87l131 -200q51 56 118 137zM328 623
q-46 0 -71 -30q-25 -29 -25 -76q0 -54 44 -121q63 36 100 73q33 35 33 76q0 33 -21 56q-21 22 -60 22zM226 38q82 0 170 85l-139 213q-91 -54 -127 -90q-38 -38 -38 -90q0 -54 39 -86q40 -32 95 -32z" />
    <glyph glyph-name="quotesingle" unicode="'" horiz-adv-x="272" 
d="M252 660l-79 -247h-42l59 247h62z" />
    <glyph glyph-name="parenleft" unicode="(" horiz-adv-x="326" 
d="M365 731l15 -37q-61 -28 -112 -88q-47 -56 -77 -131q-31 -79 -43 -148q-14 -78 -14 -147q0 -190 107 -279l-26 -32q-131 95 -131 313q0 78 17 163q17 84 49 160q33 75 89 138q55 61 126 88z" />
    <glyph glyph-name="parenright" unicode=")" horiz-adv-x="325" 
d="M132 731q130 -96 130 -314q0 -81 -16 -161q-16 -81 -50 -161q-33 -78 -88 -139t-127 -87l-15 36q61 28 112 88q50 59 78 132q29 74 42 148q14 78 14 147q0 193 -106 278z" />
    <glyph glyph-name="asterisk" unicode="*" horiz-adv-x="384" 
d="M405 632l-107 -45l84 -78l-22 -26l-91 69l-25 -112l-34 6l14 115l-110 -34l-12 32l106 44l-84 79l22 26l92 -70l26 112l33 -5l-14 -114l109 33z" />
    <glyph glyph-name="plus" unicode="+" 
d="M358 532l-35 -198h191l-8 -45h-191l-35 -199h-50l35 199h-194l8 45h194l35 198h50z" />
    <glyph glyph-name="comma" unicode="," horiz-adv-x="270" 
d="M143 75l-79 -255h-44l61 255h62z" />
    <glyph glyph-name="hyphen" unicode="-" horiz-adv-x="340" 
d="M300 333l-8 -44h-226l8 44h226z" />
    <glyph glyph-name="period" unicode="." horiz-adv-x="270" 
d="M99 88q19 0 35 -14q15 -14 15 -36q0 -21 -15 -34q-14 -14 -35 -14t-34 14q-15 13 -15 34q0 22 15 36q14 14 34 14z" />
    <glyph glyph-name="slash" unicode="/" horiz-adv-x="593" 
d="M679 780l-677 -901h-57l677 901h57z" />
    <glyph glyph-name="zero" unicode="0" horiz-adv-x="665" 
d="M352 542q110 0 187 -75q76 -76 76 -187q0 -119 -88 -204q-89 -86 -208 -86q-111 0 -185 75q-75 75 -75 185q0 122 88 207q86 85 205 85zM352 495q-100 0 -170 -72q-71 -73 -71 -173q0 -90 59 -152t150 -62q100 0 171 72q72 72 72 173q0 91 -60 152q-62 62 -151 62z" />
    <glyph glyph-name="one" unicode="1" horiz-adv-x="481" 
d="M341 531l-85 -485h147l-8 -46h-355l8 46h156l78 439h-146l8 46h197z" />
    <glyph glyph-name="two" unicode="2" horiz-adv-x="541" 
d="M266 126l-129 -80h315l-9 -46h-438l3 16l226 143q16 10 61 39q27 18 51 37q31 24 43 42q15 19 25 44q11 27 11 52q0 53 -34 87q-33 35 -94 35q-74 0 -110 -49q-36 -48 -36 -101q0 -3 0.5 -8t1 -14t0.5 -16h-50q-4 19 -4 41q0 77 56 136q57 58 145 58q79 0 129 -47
q49 -48 49 -119q0 -40 -15 -74q-17 -34 -49 -67q-38 -35 -65 -54q-39 -28 -83 -55z" />
    <glyph glyph-name="three" unicode="3" horiz-adv-x="510" 
d="M481 531l-3 -16l-227 -231q72 -9 122 -60q50 -53 50 -130q0 -91 -64 -159q-65 -68 -175 -68q-154 0 -215 148l42 23q55 -124 174 -124q87 0 137 53q49 53 49 125q0 70 -48 110q-49 40 -129 40h-34l3 16l222 227h-296l9 46h383z" />
    <glyph glyph-name="four" unicode="4" horiz-adv-x="528" 
d="M475 46l-8 -46h-101l-21 -121h-51l21 121h-333l3 17l309 514h55l-292 -485h266l42 239h52l-43 -239h101z" />
    <glyph glyph-name="five" unicode="5" horiz-adv-x="536" 
d="M462 486h-272l-35 -206q36 4 78 4q101 0 159 -51t58 -138q0 -94 -64 -161t-173 -67q-156 0 -220 148l43 23q28 -62 69 -93q40 -31 107 -31q88 0 138 53q48 52 48 125q0 66 -44 107q-44 40 -129 40h-129l51 292h323z" />
    <glyph glyph-name="six" unicode="6" horiz-adv-x="546" 
d="M283 416q87 0 145 -58q57 -58 57 -144q0 -94 -67 -158q-68 -65 -161 -65q-89 0 -148 59q-60 58 -60 146q0 10 2 28q1 11 5 26q1 10 8 25q4 12 9 22q7 14 13 23q4 6 13 21q5 8 16 22q12 17 15 20q4 5 18 21q14 18 16 20l193 236h66l-217 -261q36 17 77 17zM257 37
q73 0 124 51q51 49 51 125q0 70 -43 114q-44 44 -112 44q-74 0 -125 -51t-51 -125q0 -69 44 -113q43 -45 112 -45z" />
    <glyph glyph-name="seven" unicode="7" horiz-adv-x="490" 
d="M84 531h431l-3 -16l-454 -636h-60l436 607h-358z" />
    <glyph glyph-name="eight" unicode="8" horiz-adv-x="572" 
d="M360 342q138 -66 138 -168q0 -30 -12 -61q-13 -32 -37 -59q-25 -28 -71 -46t-106 -18q-101 0 -163 46q-63 47 -63 124q0 72 57 122t147 69q-111 61 -111 149q0 67 53 118t146 51q81 0 136 -40q54 -41 54 -113q0 -126 -168 -174zM192 501q0 -42 29 -71q29 -28 87 -60
q78 20 124 53q44 32 44 88q0 53 -39 81q-39 30 -99 30q-67 0 -107 -35q-39 -35 -39 -86zM270 36q91 0 134 43q42 43 42 97q0 49 -36 79t-111 67q-200 -45 -200 -157q0 -57 46 -93q45 -36 125 -36z" />
    <glyph glyph-name="nine" unicode="9" horiz-adv-x="546" 
d="M299 542q90 0 148 -58q60 -58 60 -147q0 -12 -2 -30q-2 -17 -7 -30q-2 -6 -4.5 -14.5t-3.5 -11.5q-1 -8 -13 -27q-3 -4 -6 -9.5t-5 -8.5t-3 -4q-1 -4 -17 -25q-13 -17 -17 -21q0 -1 -1 -2t-3 -3.5l-4 -5t-5.5 -6.5t-6.5 -8l-18 -22l-187 -230h-66l212 254
q-37 -17 -78 -17q-86 0 -144 58q-57 58 -57 144q0 95 67 159q68 65 161 65zM279 161q74 0 125 51t51 125q0 68 -44 114q-44 44 -113 44q-73 0 -125 -50q-50 -50 -50 -126q0 -70 43 -113q44 -45 113 -45z" />
    <glyph glyph-name="colon" unicode=":" horiz-adv-x="270" 
d="M169 486q19 0 35 -14q15 -14 15 -36t-15 -35q-16 -14 -35 -14q-20 0 -34 14q-15 14 -15 35q0 22 15 36q14 14 34 14zM99 88q19 0 35 -14q15 -14 15 -36q0 -21 -15 -34q-14 -14 -35 -14t-34 14q-15 13 -15 34q0 22 15 36q14 14 34 14z" />
    <glyph glyph-name="semicolon" unicode=";" horiz-adv-x="270" 
d="M169 486q19 0 35 -14q15 -14 15 -36t-15 -35q-16 -14 -35 -14q-20 0 -34 14q-15 14 -15 35q0 22 15 36q14 14 34 14zM143 75l-79 -255h-44l61 255h62z" />
    <glyph glyph-name="less" unicode="&#x3c;" 
d="M530 501l-8 -51l-360 -140l310 -140l-8 -46l-395 180l3 17z" />
    <glyph glyph-name="equal" unicode="=" 
d="M522 436l-9 -46h-415l8 46h416zM486 232l-8 -45h-416l8 45h416z" />
    <glyph glyph-name="greater" unicode="&#x3e;" 
d="M122 500l395 -179l-3 -17l-457 -180l9 52l358 139l-310 141z" />
    <glyph glyph-name="question" unicode="?" horiz-adv-x="442" 
d="M288 670q66 0 109 -39t43 -104q0 -18 -4 -33q-8 -28 -8 -29q-4 -13 -15 -28q-10 -14 -17 -23q-7 -10 -21 -23q-6 -5 -13 -11.5t-9 -7.5l-24 -20q-20 -17 -22 -18q-44 -38 -63 -68t-26 -72h-47q4 47 26 87q22 39 74 82q54 47 66 59q17 16 35 45q15 27 15 56q0 47 -29 74
q-28 27 -74 27q-85 0 -133 -94l-40 23q28 55 74 86t103 31zM180 88q19 0 35 -14q15 -14 15 -35q0 -22 -15 -35q-16 -14 -35 -14q-20 0 -34 14q-15 14 -15 35q0 23 15 36q13 13 34 13z" />
    <glyph glyph-name="at" unicode="@" horiz-adv-x="914" 
d="M492 651q169 0 272 -100q103 -99 103 -244q0 -116 -67 -193q-68 -78 -199 -78h-34l12 67q-54 -70 -153 -70q-82 0 -133 56q-51 57 -51 137q0 89 61 156q61 69 161 69q60 0 101 -27q41 -26 59 -67l15 85h47l-64 -362q98 2 147 65q50 65 50 161q0 130 -87 215
q-88 85 -239 85q-93 0 -169 -36q-76 -34 -123 -92q-44 -53 -71 -122q-25 -65 -25 -133q0 -139 99 -234q101 -95 252 -95q64 0 120 18l8 -40q-61 -23 -134 -23q-170 0 -283 108q-111 109 -111 264q0 75 29 151q28 73 82 138q54 63 139 102q86 39 186 39zM439 78q77 0 124 59
q45 60 45 130q0 63 -41 101q-40 37 -101 37q-73 0 -122 -52q-49 -50 -49 -123q0 -64 39 -108q38 -44 105 -44z" />
    <glyph glyph-name="A" unicode="A" horiz-adv-x="664" 
d="M535 0l-38 158h-344l-93 -158h-59l401 670h20l165 -670h-52zM485 204l-88 370l-217 -370h305z" />
    <glyph glyph-name="B" unicode="B" horiz-adv-x="612" 
d="M444 357q55 -20 82 -62q28 -43 28 -100q0 -83 -63 -139q-64 -56 -168 -56h-267l116 660h204q80 0 124 -41q43 -40 43 -108q0 -51 -26 -92t-73 -62zM366 614h-151l-41 -236h175q67 0 104 37q36 37 36 93q0 50 -31 78t-92 28zM321 46q83 0 131 42t48 108q0 57 -38 97
q-38 38 -107 38h-189l-50 -285h205z" />
    <glyph glyph-name="C" unicode="C" horiz-adv-x="711" 
d="M437 670q87 0 154 -39q67 -40 107 -110l-42 -27q-75 128 -222 128q-128 0 -219 -93q-90 -93 -90 -223q0 -115 73 -191q74 -77 188 -77q137 0 233 106l36 -31q-51 -58 -122 -90q-71 -33 -151 -33q-136 0 -223 90q-88 89 -88 224q0 151 109 259q109 107 257 107z" />
    <glyph glyph-name="D" unicode="D" horiz-adv-x="700" 
d="M328 660q156 0 245 -86q88 -87 88 -217q0 -49 -12 -95t-41 -95q-28 -48 -72 -84q-44 -37 -114 -60q-72 -23 -157 -23h-209l116 660h156zM268 46q91 0 157 28q70 30 106 74q38 47 57 98t19 106q0 111 -74 187q-75 75 -209 75h-109l-99 -568h152z" />
    <glyph glyph-name="E" unicode="E" horiz-adv-x="564" 
d="M585 660l-8 -46h-362l-42 -234h282l-8 -47h-281l-50 -287h373l-8 -46h-425l116 660h413z" />
    <glyph glyph-name="F" unicode="F" horiz-adv-x="518" 
d="M575 660l-8 -46h-352l-45 -256h293l-8 -47h-293l-54 -311h-52l116 660h403z" />
    <glyph glyph-name="G" unicode="G" horiz-adv-x="749" 
d="M408 324h296l-34 -189q-48 -66 -124 -106q-76 -39 -165 -39q-135 0 -222 90q-88 89 -88 224q0 152 109 258q108 108 257 108q85 0 152 -39q67 -37 108 -105l-41 -30q-75 126 -223 126q-127 0 -217 -93q-91 -92 -91 -223q0 -115 73 -191q72 -77 188 -77q140 0 234 111
l23 129h-243z" />
    <glyph glyph-name="H" unicode="H" horiz-adv-x="706" 
d="M682 660l-116 -660h-52l58 333h-406l-58 -333h-52l116 660h52l-49 -280h406l49 280h52z" />
    <glyph glyph-name="I" unicode="I" horiz-adv-x="247" 
d="M224 660l-116 -660h-52l116 660h52z" />
    <glyph glyph-name="J" unicode="J" horiz-adv-x="366" 
d="M344 660l-93 -525q-25 -145 -164 -145q-52 0 -101 16l8 44q55 -12 88 -12q101 0 119 104l91 518h52z" />
    <glyph glyph-name="K" unicode="K" horiz-adv-x="612" 
d="M172 660h52l-116 -660h-52zM628 660l-376 -308l284 -352h-62l-289 357l368 303h75z" />
    <glyph glyph-name="L" unicode="L" horiz-adv-x="499" 
d="M224 660l-108 -614h325l-8 -46h-377l116 660h52z" />
    <glyph glyph-name="M" unicode="M" horiz-adv-x="785" 
d="M743 670h20l-118 -670h-52l94 533l-287 -327h-20l-177 337l-95 -543h-52l118 670h20l205 -394l343 393z" />
    <glyph glyph-name="N" unicode="N" horiz-adv-x="706" 
d="M630 660h52l-118 -670h-21l-338 567l-97 -557h-52l118 670h20l339 -569z" />
    <glyph glyph-name="O" unicode="O" horiz-adv-x="783" 
d="M435 670q134 0 223 -90q87 -90 87 -224q0 -152 -108 -258q-108 -108 -257 -108q-135 0 -222 90t-87 224q0 151 108 259q107 107 256 107zM432 622q-127 0 -217 -93t-90 -223q0 -114 72 -191t185 -77q127 0 218 94q90 93 90 223q0 115 -72 191t-186 76z" />
    <glyph glyph-name="P" unicode="P" horiz-adv-x="568" 
d="M375 660q94 0 143 -46t49 -122q0 -85 -61 -140q-62 -56 -167 -56h-179l-52 -296h-52l116 660h203zM342 342q84 0 127 42t43 107q0 58 -35 90q-36 33 -107 33h-155l-47 -272h174z" />
    <glyph glyph-name="Q" unicode="Q" horiz-adv-x="784" 
d="M881 -149q26 0 68 2l-7 -41q-38 -8 -86 -8q-250 0 -370 202q-48 -16 -106 -16q-135 0 -222 90t-87 224q0 151 108 259q107 107 256 107q134 0 223 -90q87 -90 87 -224q0 -107 -59 -198q-59 -90 -154 -134q33 -53 78 -92q45 -37 91 -53q45 -15 89 -22q40 -6 91 -6z
M125 306q0 -114 72 -191t185 -77q127 0 218 94q90 93 90 223q0 115 -72 191t-186 76q-127 0 -217 -93t-90 -223z" />
    <glyph glyph-name="R" unicode="R" horiz-adv-x="614" 
d="M567 493q0 -77 -51 -130q-52 -55 -139 -65l175 -298h-58l-174 296h-160l-52 -296h-52l116 660h203q94 0 143 -46t49 -121zM215 614l-47 -272h174q84 0 127 42t43 107q0 58 -35 91q-37 32 -107 32h-155z" />
    <glyph glyph-name="S" unicode="S" horiz-adv-x="556" 
d="M326 670q134 0 202 -116l-41 -25q-59 93 -162 93q-68 0 -105 -35q-36 -35 -36 -83q0 -43 25 -69q25 -27 72 -54l70 -41q125 -74 125 -170q0 -70 -53 -126q-54 -54 -152 -54q-159 0 -243 156l43 25q73 -133 202 -133q71 0 109 37q39 37 39 91q0 41 -24 71q-26 31 -76 60
l-72 43q-119 69 -119 161q0 67 51 118t145 51z" />
    <glyph glyph-name="T" unicode="T" horiz-adv-x="584" 
d="M634 660l-8 -46h-241l-109 -614h-52l109 614h-242l8 46h535z" />
    <glyph glyph-name="U" unicode="U" horiz-adv-x="682" 
d="M668 660l-76 -437q-20 -109 -93 -171q-72 -62 -174 -62t-170 62q-66 62 -66 161q0 22 5 60l67 387h52l-68 -390q-4 -21 -4 -52q0 -81 53 -131q53 -49 133 -49q79 0 140 50q59 50 74 139l75 433h52z" />
    <glyph glyph-name="V" unicode="V" horiz-adv-x="664" 
d="M635 660h60l-401 -670h-20l-165 670h53l138 -569z" />
    <glyph glyph-name="W" unicode="W" horiz-adv-x="1068" 
d="M1027 660h58l-362 -670h-21l-118 572l-322 -572h-20l-128 670h53l103 -561l320 571h21l117 -569z" />
    <glyph glyph-name="X" unicode="X" horiz-adv-x="584" 
d="M608 660l-267 -327l167 -333h-56l-147 296l-249 -296h-64l288 343l-156 317h56l136 -281l228 281h64z" />
    <glyph glyph-name="Y" unicode="Y" horiz-adv-x="613" 
d="M630 660l-297 -381l-48 -279h-52l49 281l-163 379h53l141 -331l257 331h60z" />
    <glyph glyph-name="Z" unicode="Z" horiz-adv-x="590" 
d="M625 660l-3 -17l-536 -597h432l-8 -46h-515l3 17l535 597h-385l7 46h470z" />
    <glyph glyph-name="bracketleft" unicode="[" horiz-adv-x="341" 
d="M370 729l-8 -45h-126l-135 -769h126l-8 -46h-176l151 860h176z" />
    <glyph glyph-name="backslash" unicode="\" horiz-adv-x="597" 
d="M154 780l369 -901h-50l-369 901h50z" />
    <glyph glyph-name="bracketright" unicode="]" horiz-adv-x="341" 
d="M319 729l-151 -860h-176l8 45h127l135 769h-127l8 46h176z" />
    <glyph glyph-name="asciicircum" unicode="^" horiz-adv-x="501" 
d="M336 670l108 -381h-48l-83 293l-186 -293h-54l242 381h21z" />
    <glyph glyph-name="underscore" unicode="_" horiz-adv-x="500" 
d="M397 -80l-8 -44h-406l8 44h406z" />
    <glyph glyph-name="a" unicode="a" horiz-adv-x="630" 
d="M528 474h51l-84 -474h-48l14 80q-32 -45 -83 -67q-52 -23 -106 -23q-96 0 -157 66q-62 67 -62 162q0 103 71 185q70 81 189 81q72 0 124 -32q50 -32 73 -83zM285 36q96 0 151 73t55 158q0 79 -51 125q-52 46 -125 46q-89 0 -149 -65t-60 -152q0 -78 49 -131
q48 -54 130 -54z" />
    <glyph glyph-name="b" unicode="b" horiz-adv-x="632" 
d="M359 484q95 0 157 -66q61 -67 61 -162q0 -105 -70 -185q-70 -81 -187 -81q-75 0 -125 34q-51 33 -74 83l-19 -107h-50l131 750h50l-62 -356q34 45 84 67q51 23 104 23zM317 36q88 0 148 65t60 151q0 79 -49 132q-50 54 -130 54q-65 0 -115 -38q-48 -37 -70 -89
q-22 -50 -22 -103q0 -79 52 -125q53 -47 126 -47z" />
    <glyph glyph-name="c" unicode="c" horiz-adv-x="557" 
d="M319 484q64 0 116 -28q51 -28 83 -78l-39 -26q-57 86 -160 86q-88 0 -149 -61q-63 -61 -63 -152q0 -82 52 -135q53 -54 133 -54q97 0 160 73l33 -30q-77 -89 -193 -89q-102 0 -169 66q-69 66 -69 166q0 110 79 186q77 76 186 76z" />
    <glyph glyph-name="d" unicode="d" horiz-adv-x="630" 
d="M577 750h50l-132 -750h-48l14 80q-31 -43 -82 -66q-51 -24 -107 -24q-96 0 -158 66q-61 64 -61 161q0 103 71 186q70 81 190 81q72 0 124 -32q49 -31 72 -82zM284 36q65 0 115 38q48 37 71 88q21 51 21 104q0 80 -51 126q-52 46 -125 46q-89 0 -149 -65q-60 -66 -60 -153
q0 -78 48 -130q48 -54 130 -54z" />
    <glyph glyph-name="e" unicode="e" horiz-adv-x="565" 
d="M508 224h-402q0 -82 51 -135q53 -53 136 -53q91 0 162 68l27 -33q-78 -81 -193 -81q-101 0 -169 66q-66 66 -66 165q0 108 76 185q77 77 182 77q88 0 146 -54q59 -54 59 -141q0 -28 -9 -64zM310 437q-74 0 -130 -47q-56 -46 -69 -120h353q1 4 1 20q0 67 -44 108
q-43 39 -111 39z" />
    <glyph glyph-name="f" unicode="f" horiz-adv-x="284" 
d="M320 760q36 0 72 -12l-8 -41q-29 7 -58 7q-92 0 -109 -101l-25 -139h127l-8 -46h-127l-85 -485q-24 -133 -151 -133q-38 0 -72 12l8 41q34 -8 58 -8q92 0 109 102l83 471h-70l9 46h69l27 152q24 134 151 134z" />
    <glyph glyph-name="g" unicode="g" horiz-adv-x="631" 
d="M529 474h50l-79 -450q-18 -104 -87 -159q-70 -55 -166 -55q-73 0 -131 30q-61 33 -94 82l36 30q66 -96 190 -96q77 0 133 44q54 43 69 127l9 53q-33 -40 -83 -63q-50 -22 -104 -22q-94 0 -156 65t-62 158q0 103 74 185q74 81 191 81q72 0 122 -32q47 -31 70 -81zM285 41
q66 0 115 37q48 37 71 88q21 50 21 103q0 77 -50 124q-50 45 -123 45q-89 0 -151 -65t-62 -151q0 -76 49 -128q48 -53 130 -53z" />
    <glyph glyph-name="h" unicode="h" horiz-adv-x="558" 
d="M322 484q75 0 118 -43q45 -43 45 -112q0 -13 -6 -54l-48 -275h-51l49 278q5 32 5 43q0 55 -33 86q-31 31 -88 31q-59 0 -103 -36q-43 -36 -55 -99l-53 -303h-50l131 750h50l-57 -329q58 63 146 63z" />
    <glyph glyph-name="i" unicode="i" horiz-adv-x="236" 
d="M194 713q19 0 32 -13t13 -31t-13 -31t-32 -13q-18 0 -31 13t-13 31t13 31t31 13zM185 474l-84 -474h-50l83 474h51z" />
    <glyph glyph-name="j" unicode="j" horiz-adv-x="238" 
d="M195 713q19 0 32 -13q12 -14 12 -31t-12 -31q-13 -13 -32 -13t-31 13q-13 13 -13 31t13 31q12 13 31 13zM186 474l-94 -532q-12 -69 -51 -100q-41 -32 -99 -32q-40 0 -70 12l7 42q29 -8 59 -8q88 0 105 92l92 526h51z" />
    <glyph glyph-name="k" unicode="k" horiz-adv-x="481" 
d="M183 750h50l-132 -750h-50zM484 474l-258 -212l196 -262h-61l-198 267l250 207h71z" />
    <glyph glyph-name="l" unicode="l" horiz-adv-x="236" 
d="M233 750l-132 -750h-50l132 750h50z" />
    <glyph glyph-name="m" unicode="m" horiz-adv-x="867" 
d="M634 484q74 0 117 -43t43 -112q0 -13 -6 -54l-48 -275h-51l49 278q5 32 5 43q0 55 -31 86t-85 31q-55 0 -98 -35q-43 -36 -55 -100l-53 -303h-50l49 278q5 32 5 43q0 54 -31 85q-32 32 -85 32q-55 0 -99 -35q-43 -36 -55 -100l-53 -303h-50l82 474h49l-10 -57
q57 67 145 67q54 0 92 -25t54 -69q58 94 170 94z" />
    <glyph glyph-name="n" unicode="n" horiz-adv-x="558" 
d="M322 484q75 0 119 -43q44 -44 44 -112q0 -13 -6 -54l-48 -275h-51l49 278q5 32 5 43q0 54 -32 86q-32 31 -89 31q-59 0 -102 -36q-44 -36 -56 -99l-53 -303h-50l82 474h49l-10 -57q57 67 149 67z" />
    <glyph glyph-name="o" unicode="o" horiz-adv-x="612" 
d="M320 484q102 0 169 -67q68 -68 68 -167q0 -107 -80 -184q-79 -76 -188 -76q-100 0 -168 67q-67 67 -67 166q0 109 79 185t187 76zM318 438q-88 0 -149 -63q-62 -64 -62 -152q0 -82 52 -134q51 -53 132 -53q87 0 151 62q62 64 62 151q1 78 -52 135q-53 54 -134 54z" />
    <glyph glyph-name="p" unicode="p" horiz-adv-x="631" 
d="M357 484q97 0 158 -66q62 -67 62 -162q0 -105 -71 -185q-70 -81 -187 -81q-76 0 -126 34q-52 34 -73 85l-51 -289h-50l115 654h49l-15 -81q32 45 82 68q52 23 107 23zM316 36q89 0 149 65q59 65 59 151q0 76 -48 132q-50 54 -131 54q-65 0 -114 -38t-70 -90
q-22 -50 -22 -103q0 -78 52 -124q52 -47 125 -47z" />
    <glyph glyph-name="q" unicode="q" horiz-adv-x="630" 
d="M528 474h51l-116 -654h-50l46 256q-32 -41 -83 -64q-48 -22 -103 -22q-97 0 -158 66q-62 68 -62 163q0 104 72 185q71 80 188 80q73 0 125 -32q49 -33 72 -83zM285 36q96 0 151 73t55 158q0 79 -51 125q-52 46 -126 46q-90 0 -148 -64q-60 -64 -60 -153q0 -78 49 -131
q48 -54 130 -54z" />
    <glyph glyph-name="r" unicode="r" horiz-adv-x="350" 
d="M326 481q25 0 47 -7l-8 -43q-20 4 -41 4q-60 0 -109 -37t-63 -107l-51 -291h-50l83 474h49l-11 -62q59 69 154 69z" />
    <glyph glyph-name="s" unicode="s" horiz-adv-x="455" 
d="M252 484q100 0 155 -82l-37 -30q-48 66 -122 66q-41 0 -70 -20t-29 -55q0 -26 18 -44q16 -18 60 -41l42 -23q54 -27 85 -58q28 -29 28 -74q0 -63 -49 -99q-50 -35 -117 -35q-122 0 -184 110l39 29q60 -92 147 -92q51 0 82 25q30 25 30 60q0 17 -6 30q-7 13 -22 25
q-6 5 -15.5 11.5t-11.5 7.5q-4 2 -35 19l-42 22q-51 26 -76 54q-26 29 -26 70q0 57 46 91q45 33 110 33z" />
    <glyph glyph-name="t" unicode="t" horiz-adv-x="363" 
d="M196 428l-50 -283q-3 -17 -3 -29q0 -80 111 -80q3 0 9 0.5t17 1t21 0.5l-8 -43q-23 -5 -52 -5q-149 0 -149 120q0 21 4 36l49 282h-83l7 46h85l25 146h51l-26 -146h156l-7 -46h-157z" />
    <glyph glyph-name="u" unicode="u" horiz-adv-x="551" 
d="M506 474l-54 -310q-15 -81 -70 -127q-56 -47 -131 -47q-76 0 -126 47t-50 121q0 24 4 39l48 277h50l-50 -283q-2 -26 -2 -31q0 -56 37 -90q35 -34 93 -34q55 0 95 34t52 96l54 308h50z" />
    <glyph glyph-name="v" unicode="v" horiz-adv-x="527" 
d="M472 474h58l-307 -484h-20l-137 484h51l109 -397z" />
    <glyph glyph-name="w" unicode="w" horiz-adv-x="844" 
d="M791 474h57l-280 -484h-20l-105 398l-246 -398h-21l-110 484h52l84 -392l244 402h21l105 -402z" />
    <glyph glyph-name="x" unicode="x" horiz-adv-x="479" 
d="M481 474l-209 -227l140 -247h-58l-118 211l-189 -211h-64l228 251l-128 223h58l106 -189l170 189h64z" />
    <glyph glyph-name="y" unicode="y" horiz-adv-x="568" 
d="M467 474h50l-84 -479q-17 -90 -73 -137q-57 -48 -136 -48q-61 0 -113 29q-51 30 -82 82l36 31q59 -96 159 -96q59 0 103 36q43 36 55 105l11 61q-59 -63 -145 -63q-74 0 -118 44q-45 43 -45 111q0 16 6 54l48 270h50l-48 -273q-5 -30 -5 -43q0 -54 33 -85q32 -32 88 -32
q59 0 103 36q44 38 54 100z" />
    <glyph glyph-name="z" unicode="z" horiz-adv-x="450" 
d="M454 474l-3 -17l-371 -411h303l-7 -46h-385l3 17l370 411h-275l8 46h357z" />
    <glyph glyph-name="braceleft" unicode="{" horiz-adv-x="394" 
d="M373 729h51l-8 -45h-47q-64 0 -88 -40t-24 -113v-108q0 -56 -17 -87q-18 -32 -63 -39q48 -11 48 -60q0 -34 -34 -124q-35 -93 -35 -130q0 -69 80 -69h45l-8 -45h-49q-52 0 -85 27q-33 26 -33 79q0 44 35 137q34 90 34 119q0 45 -56 45h-57l7 45h56q45 0 64 24
q18 23 18 78v111q0 195 166 195z" />
    <glyph glyph-name="bar" unicode="|" horiz-adv-x="332" 
d="M205 780v-901h-46v901h46z" />
    <glyph glyph-name="braceright" unicode="}" horiz-adv-x="395" 
d="M297 322h57l-8 -46h-56q-45 0 -63 -23q-19 -23 -19 -78v-111q0 -195 -165 -195h-52l8 45h47q65 0 89 40t24 113v108q0 57 18 88q17 30 61 38q-48 11 -48 60q0 32 35 125q34 90 34 129q0 69 -80 69h-45l8 45h49q51 0 85 -26q33 -27 33 -80q0 -46 -34 -136
q-35 -93 -35 -120q0 -45 57 -45z" />
    <glyph glyph-name="asciitilde" unicode="~" 
d="M170 394q34 0 90 -36l85 -57q43 -28 64 -28q40 0 49 63h44q-5 -50 -26 -80q-23 -32 -64 -32q-34 0 -90 37l-85 56q-44 29 -64 29q-40 0 -49 -63h-44q3 48 26 80q22 31 64 31z" />
    <glyph glyph-name="cent" unicode="&#xa2;" horiz-adv-x="555" 
d="M291 124q97 0 163 75l33 -31q-77 -90 -198 -90h-14l-30 -170h-51l32 177q-77 19 -126 82q-49 61 -49 147q0 108 77 185t184 80l30 172h51l-30 -175q104 -16 157 -105l-40 -26q-46 71 -126 84l-71 -405h8zM104 316q0 -66 36 -116q35 -50 94 -68l70 400q-81 -4 -141 -67
q-59 -62 -59 -149z" />
    <glyph glyph-name="sterling" unicode="&#xa3;" horiz-adv-x="509" 
d="M336 623q-68 0 -103 -45q-35 -46 -35 -103q0 -32 20 -95q15 -47 23 -82h160l-8 -45h-146v-12q0 -58 -26 -110q-26 -51 -77 -85h284l-8 -46h-399l2 16q172 81 172 221v8q-1 3 -1 8h-119l7 45h105q0 2 -2.5 10.5t-8.5 28.5t-11 37q-21 68 -21 105q0 77 51 134t140 57
q28 0 58 -8q26 -7 54 -26q26 -17 46 -53q19 -35 25 -85l-50 -11q-8 65 -42 101q-35 35 -90 35z" />
    <glyph glyph-name="currency" unicode="&#xa4;" horiz-adv-x="667" 
d="M596 341q0 -104 -74 -181l103 -115l-33 -30l-104 115q-69 -51 -154 -51q-96 0 -165 63l-130 -127l-31 33l132 127q-47 64 -47 145q0 107 76 184l-96 109l32 30l97 -111q65 49 151 49q99 0 169 -66l136 128l31 -33l-138 -128q45 -63 45 -141zM334 127q86 0 148 62
q61 61 61 151q0 82 -54 138q-55 55 -136 55q-86 0 -146 -61q-61 -61 -61 -151q0 -83 54 -138q54 -56 134 -56z" />
    <glyph glyph-name="yen" unicode="&#xa5;" horiz-adv-x="532" 
d="M596 660l-276 -312h194l-8 -45h-203l-19 -109h203l-8 -45h-203l-26 -149h-52l26 149h-200l8 45h200l19 109h-200l8 45h193l-167 312h53l151 -280l245 280h62z" />
    <glyph glyph-name="brokenbar" unicode="&#xa6;" horiz-adv-x="332" 
d="M205 780v-300h-46v300h46zM205 179v-300h-46v300h46z" />
    <glyph glyph-name="section" unicode="&#xa7;" horiz-adv-x="555" 
d="M412 341q91 -82 91 -153q0 -51 -37 -91t-109 -48q3 -12 3 -25q0 -57 -42 -98q-43 -40 -110 -40q-52 0 -92 26q-39 27 -60 67l37 28q44 -74 116 -74q42 0 70 25t28 65q0 49 -63 109l-89 84q-90 82 -90 153q0 51 38 92q37 40 107 47q-2 24 -2 26q0 57 43 97q41 40 109 40
q102 0 152 -93l-38 -27q-44 74 -115 74q-42 0 -70 -25q-29 -26 -29 -66q0 -48 64 -109zM343 88q47 4 78 31q29 26 29 66q0 49 -69 116l-95 91q-44 41 -62 77q-46 -4 -76 -31q-30 -26 -30 -66q0 -50 69 -116l94 -90q42 -39 62 -78z" />
    <glyph glyph-name="dieresis" unicode="&#xa8;" horiz-adv-x="358" 
d="M150 711q18 0 31 -12q12 -12 12 -30t-12 -30q-13 -12 -31 -12t-31 12t-13 30t13 30q14 12 31 12zM360 711q18 0 31 -12q12 -12 12 -30t-12 -30q-13 -12 -31 -12t-30 12q-13 12 -13 30t13 30q12 12 30 12z" />
    <glyph glyph-name="copyright" unicode="&#xa9;" horiz-adv-x="792" 
d="M428 670q135 0 230 -95q94 -94 94 -231q0 -145 -106 -250q-107 -104 -250 -104q-134 0 -229 96q-94 94 -94 230q0 145 107 250q107 104 248 104zM427 631q-127 0 -219 -92q-92 -94 -92 -223q0 -121 82 -203q81 -84 200 -84q128 0 219 94q91 92 91 222q0 119 -81 203
q-83 83 -200 83zM427 526q99 0 153 -84l-37 -27q-43 67 -119 67q-65 0 -110 -46t-45 -115q0 -61 39 -101q39 -42 99 -42q67 0 119 55l31 -29q-61 -70 -152 -70q-81 0 -133 54q-53 55 -53 132q0 87 62 147q62 59 146 59z" />
    <glyph glyph-name="guillemotleft" unicode="&#xab;" horiz-adv-x="459" 
d="M278 424l-172 -157l116 -157l-37 -28l-139 179l3 17l198 179zM448 424l-171 -157l116 -157l-38 -28l-138 179l2 17l198 179z" />
    <glyph glyph-name="logicalnot" unicode="&#xac;" 
d="M484 334l-43 -242h-51l36 197h-355l8 45h405z" />
    <glyph glyph-name="uni00AD" unicode="&#xad;" horiz-adv-x="340" 
d="M300 333l-8 -44h-226l8 44h226z" />
    <glyph glyph-name="registered" unicode="&#xae;" horiz-adv-x="576" 
d="M333 670q97 0 164 -66q66 -68 66 -162q0 -102 -75 -175q-76 -74 -177 -74q-97 0 -163 67q-67 66 -67 162q0 102 75 175q74 73 177 73zM311 231q88 0 151 63q62 64 62 149q0 80 -55 135t-136 55q-86 0 -150 -62q-63 -61 -63 -149q0 -81 55 -136t136 -55zM428 487
q0 -58 -59 -76l60 -101h-49l-57 95h-50l-17 -95h-42l43 251h95q34 0 55 -22q21 -23 21 -52zM293 523l-15 -81h52q55 0 55 43q0 17 -11 28q-10 10 -30 10h-51z" />
    <glyph glyph-name="degree" unicode="&#xb0;" horiz-adv-x="360" 
d="M235 670q60 0 100 -40q41 -41 41 -99q0 -60 -44 -104q-46 -44 -107 -44q-58 0 -99 41t-41 99q0 60 44 104q43 43 106 43zM235 628q-43 0 -73 -30q-31 -31 -31 -75q0 -41 27 -69t69 -28q43 0 73 31q29 31 29 74q0 40 -26 69q-27 28 -68 28z" />
    <glyph glyph-name="plusminus" unicode="&#xb1;" 
d="M357 531l-31 -175h182l-8 -46h-183l-30 -176h-51l31 176h-183l8 46h183l31 175h51zM454 46l-8 -46h-416l8 46h416z" />
    <glyph glyph-name="uni00B2" unicode="&#xb2;" horiz-adv-x="363" 
d="M262 494l-108 -88h197l-8 -42h-285l2 12l177 149q94 78 94 141q0 34 -21 57q-23 21 -59 21q-43 0 -66 -30q-23 -32 -23 -72v-17h-46v19q0 56 36 99q34 43 101 43q57 0 91 -33t34 -84q0 -43 -27 -84q-29 -41 -89 -91z" />
    <glyph glyph-name="uni00B3" unicode="&#xb3;" horiz-adv-x="351" 
d="M390 780l-2 -14l-136 -144q43 -9 72 -41q28 -31 28 -79q0 -58 -40 -101t-112 -43q-103 0 -139 96l37 20q33 -75 102 -75q50 0 78 30q27 31 27 71t-27 63q-26 22 -75 22h-28l3 14l129 139h-171l8 42h246z" />
    <glyph glyph-name="uni00B5" unicode="&#xb5;" horiz-adv-x="584" 
d="M498 36q22 0 27 1l-8 -42q-15 -4 -33 -4q-72 0 -86 68q-56 -69 -148 -69q-101 0 -138 76l-43 -246h-50l115 654h51l-49 -277q-5 -30 -5 -42q0 -53 34 -86q33 -33 89 -33q58 0 101 36t54 99l54 303h50l-61 -345q-5 -35 -5 -44q0 -49 51 -49z" />
    <glyph glyph-name="paragraph" unicode="&#xb6;" horiz-adv-x="612" 
d="M354 660v-416h-61q-102 0 -167 58q-66 58 -66 152t66 150q65 56 167 56h61zM462 660v-695q0 -155 -150 -155q-38 0 -74 10v45q40 -8 66 -8q52 0 80 24t28 86v693h50z" />
    <glyph glyph-name="periodcentered" unicode="&#xb7;" horiz-adv-x="271" 
d="M147 361q22 0 36 -13q14 -14 14 -37q0 -21 -14 -35q-16 -14 -36 -14t-34 14t-14 35q0 22 14 36t34 14z" />
    <glyph glyph-name="uni00B9" unicode="&#xb9;" horiz-adv-x="346" 
d="M298 780l-65 -374h96l-7 -42h-250l7 42h108l58 332h-106l7 42h152z" />
    <glyph glyph-name="guillemotright" unicode="&#xbb;" horiz-adv-x="460" 
d="M254 278l-3 -17l-198 -179l-31 33l172 158l-116 157l37 27zM285 457l139 -179l-3 -17l-198 -179l-31 33l172 158l-117 157z" />
    <glyph glyph-name="onequarter" unicode="&#xbc;" horiz-adv-x="885" 
d="M308 286l-7 -42h-250l7 42h108l58 332h-106l7 42h152l-65 -374h96zM710 660h49l-495 -660h-48zM844 119l-7 -41h-60l-14 -78h-44l14 78h-209l2 14l188 324h51l-173 -297h148l24 140h44l-24 -140h60z" />
    <glyph glyph-name="onehalf" unicode="&#xbd;" horiz-adv-x="924" 
d="M308 286l-7 -42h-250l7 42h108l58 332h-106l7 42h152l-65 -374h96zM710 660h49l-495 -660h-48zM759 130l-108 -88h197l-8 -42h-285l2 12l177 149q94 78 94 141q0 34 -21 57q-23 21 -59 21q-44 0 -66 -30q-23 -32 -23 -72v-17h-46v19q0 56 36 99q34 43 101 43q56 0 91 -33
q34 -33 34 -84q0 -43 -27 -84q-29 -41 -89 -91z" />
    <glyph glyph-name="threequarters" unicode="&#xbe;" horiz-adv-x="856" 
d="M331 382q0 -57 -40 -100q-41 -44 -112 -44q-103 0 -139 96l37 20q33 -75 102 -75q50 0 78 31q27 30 27 70t-27 63q-26 22 -75 22h-27h-1l3 14l130 139h-172l8 42h246l-2 -14l-136 -144q43 -9 72 -41q28 -31 28 -79zM680 660h49l-495 -660h-48zM815 119l-7 -41h-60
l-14 -78h-44l14 78h-209l2 14l188 324h51l-173 -297h148l24 140h44l-24 -140h60z" />
    <glyph glyph-name="multiply" unicode="&#xd7;" 
d="M159 510l137 -167l183 152l28 -34l-184 -152l138 -168l-35 -29l-137 168l-184 -153l-28 34l184 153l-138 167z" />
    <glyph glyph-name="divide" unicode="&#xf7;" 
d="M325 527q17 0 31 -12q12 -13 12 -31q0 -17 -12 -29q-13 -13 -31 -13t-30 13q-13 12 -13 29q0 18 13 31q12 12 30 12zM514 334l-7 -45h-435l7 45h435zM264 179q18 0 31 -12q12 -12 12 -30t-12 -30q-13 -13 -31 -13t-31 13q-13 12 -13 30t13 30t31 12z" />
    <glyph glyph-name="florin" unicode="&#x192;" horiz-adv-x="439" 
d="M439 670q32 0 65 -9l-7 -41q-37 5 -54 5q-86 0 -113 -91l-43 -140h112l-9 -46h-117l-106 -350q-41 -131 -158 -131q-32 0 -65 9l7 41q37 -5 56 -5q85 0 112 92l104 344h-80l9 46h85l44 146q40 130 158 130z" />
    <glyph glyph-name="uni030C" unicode="&#x30c;" horiz-adv-x="0" 
d="M60 750l-73 -209h-39l54 209h58z" />
    <glyph glyph-name="dieresistonos" unicode="&#x385;" horiz-adv-x="436" 
d="M348 780l-1 -9l-57 -207h-40l38 216h60zM160 711q18 0 31 -12q12 -12 12 -30t-12 -30q-13 -12 -31 -12t-30 12q-13 12 -13 30t13 30q12 12 30 12zM429 711q17 0 31 -12q12 -12 12 -30t-12 -30q-14 -12 -31 -12q-18 0 -30 12q-13 12 -13 30t13 30q12 12 30 12z" />
    <glyph glyph-name="Alphatonos" unicode="&#x386;" horiz-adv-x="664" 
d="M197 720l-73 -209h-39l54 209h58zM535 0l-38 158h-344l-93 -158h-59l401 670h20l165 -670h-52zM485 204l-88 370l-217 -370h305z" />
    <glyph glyph-name="Epsilontonos" unicode="&#x388;" horiz-adv-x="564" 
d="M85 720l-73 -209h-39l54 209h58zM585 660l-8 -46h-362l-42 -234h282l-8 -47h-281l-50 -287h373l-8 -46h-425l116 660h413z" />
    <glyph glyph-name="Etatonos" unicode="&#x389;" horiz-adv-x="706" 
d="M85 720l-73 -209h-39l54 209h58zM682 660l-116 -660h-52l58 333h-406l-58 -333h-52l116 660h52l-49 -280h406l49 280h52z" />
    <glyph glyph-name="Iotatonos" unicode="&#x38a;" horiz-adv-x="247" 
d="M85 720l-73 -209h-39l54 209h58zM224 660l-116 -660h-52l116 660h52z" />
    <glyph glyph-name="Omicrontonos" unicode="&#x38c;" horiz-adv-x="783" 
d="M124 720l-73 -209h-39l54 209h58zM435 670q134 0 223 -90q87 -90 87 -224q0 -152 -108 -258q-108 -108 -257 -108q-135 0 -222 90t-87 224q0 151 108 259q107 107 256 107zM432 622q-127 0 -217 -93t-90 -223q0 -114 72 -191t185 -77q127 0 218 94q90 93 90 223
q0 115 -72 191t-186 76z" />
    <glyph glyph-name="Upsilontonos" unicode="&#x38e;" horiz-adv-x="613" 
d="M-71 511l54 209h58l-73 -209h-39zM630 660l-297 -381l-48 -279h-52l49 281l-163 379h53l141 -331l257 331h60z" />
    <glyph glyph-name="Omegatonos" unicode="&#x38f;" horiz-adv-x="793" 
d="M126 720l-73 -209h-39l54 209h58zM753 362q0 -204 -216 -316h154l-8 -46h-252l8 48q138 54 199 136t61 178q0 114 -75 187q-74 73 -197 73q-77 0 -135 -30q-59 -29 -94 -77q-36 -48 -52 -100q-18 -53 -18 -103q0 -165 177 -264l-9 -48h-269l8 46h193q-72 48 -113 116
t-41 150q0 58 21 118q20 59 62 115q41 55 111 90q72 35 158 35q144 0 235 -85q92 -86 92 -223z" />
    <glyph glyph-name="iotadieresistonos" unicode="&#x390;" horiz-adv-x="271" 
d="M247 780l-1 -9l-57 -207h-40l38 216h60zM59 711q17 0 31 -12q12 -12 12 -30t-12 -30q-14 -12 -31 -12q-18 0 -30 12q-13 12 -13 30t13 30q12 12 30 12zM328 711q18 0 31 -12q12 -12 12 -30t-12 -30q-13 -12 -31 -12t-30 12q-13 12 -13 30t13 30q12 12 30 12zM181 474
l-60 -343q-5 -35 -5 -39q0 -57 67 -57q14 0 30 2l-8 -43q-20 -4 -39 -4q-42 0 -71 23q-30 23 -30 72q0 14 5 46l61 343h50z" />
    <glyph glyph-name="Alpha" unicode="&#x391;" horiz-adv-x="664" 
d="M535 0l-38 158h-344l-93 -158h-59l401 670h20l165 -670h-52zM485 204l-88 370l-217 -370h305z" />
    <glyph glyph-name="Beta" unicode="&#x392;" horiz-adv-x="612" 
d="M444 357q55 -20 82 -62q28 -43 28 -100q0 -83 -63 -139q-64 -56 -168 -56h-267l116 660h204q80 0 124 -41q43 -40 43 -108q0 -51 -26 -92t-73 -62zM366 614h-151l-41 -236h175q67 0 104 37q36 37 36 93q0 50 -31 78t-92 28zM321 46q83 0 131 42t48 108q0 57 -38 97
q-38 38 -107 38h-189l-50 -285h205z" />
    <glyph glyph-name="Gamma" unicode="&#x393;" horiz-adv-x="499" 
d="M549 660l-8 -46h-326l-107 -614h-52l116 660h377z" />
    <glyph glyph-name="Delta" unicode="&#x394;" horiz-adv-x="664" 
d="M422 670l165 -670h-586l400 670h21zM524 46l-127 527l-311 -527h438z" />
    <glyph glyph-name="Epsilon" unicode="&#x395;" horiz-adv-x="564" 
d="M585 660l-8 -46h-362l-42 -234h282l-8 -47h-281l-50 -287h373l-8 -46h-425l116 660h413z" />
    <glyph glyph-name="Zeta" unicode="&#x396;" horiz-adv-x="590" 
d="M625 660l-3 -17l-536 -597h432l-8 -46h-515l3 17l535 597h-385l7 46h470z" />
    <glyph glyph-name="Eta" unicode="&#x397;" horiz-adv-x="706" 
d="M682 660l-116 -660h-52l58 333h-406l-58 -333h-52l116 660h52l-49 -280h406l49 280h52z" />
    <glyph glyph-name="Theta" unicode="&#x398;" horiz-adv-x="783" 
d="M435 670q134 0 223 -90q87 -90 87 -224q0 -152 -108 -258q-108 -108 -257 -108q-135 0 -222 90t-87 224q0 151 108 259q107 107 256 107zM432 622q-127 0 -217 -93t-90 -223q0 -114 72 -191t185 -77q127 0 218 94q90 93 90 224q0 114 -72 190t-186 76zM557 362l-8 -46
h-290l8 46h290z" />
    <glyph glyph-name="Iota" unicode="&#x399;" horiz-adv-x="247" 
d="M224 660l-116 -660h-52l116 660h52z" />
    <glyph glyph-name="Kappa" unicode="&#x39a;" horiz-adv-x="612" 
d="M172 660h52l-116 -660h-52zM628 660l-376 -308l284 -352h-62l-289 357l368 303h75z" />
    <glyph glyph-name="Lambda" unicode="&#x39b;" horiz-adv-x="664" 
d="M587 0h-52l-139 573l-337 -573h-58l400 670h21z" />
    <glyph glyph-name="Mu" unicode="&#x39c;" horiz-adv-x="785" 
d="M743 670h20l-118 -670h-52l94 533l-287 -327h-20l-177 337l-95 -543h-52l118 670h20l205 -394l343 393z" />
    <glyph glyph-name="Nu" unicode="&#x39d;" horiz-adv-x="706" 
d="M630 660h52l-118 -670h-21l-338 567l-97 -557h-52l118 670h20l339 -569z" />
    <glyph glyph-name="Xi" unicode="&#x39e;" horiz-adv-x="536" 
d="M570 660l-8 -46h-456l8 46h456zM509 379l-8 -45h-433l8 45h433zM462 46l-8 -46h-456l8 46h456z" />
    <glyph glyph-name="Omicron" unicode="&#x39f;" horiz-adv-x="783" 
d="M435 670q134 0 223 -90q87 -90 87 -224q0 -152 -108 -258q-108 -108 -257 -108q-135 0 -222 90t-87 224q0 151 108 259q107 107 256 107zM432 622q-127 0 -217 -93t-90 -223q0 -114 72 -191t185 -77q127 0 218 94q90 93 90 223q0 115 -72 191t-186 76z" />
    <glyph glyph-name="Pi" unicode="&#x3a0;" horiz-adv-x="677" 
d="M653 660l-116 -660h-52l108 614h-378l-107 -614h-52l116 660h481z" />
    <glyph glyph-name="Rho" unicode="&#x3a1;" horiz-adv-x="568" 
d="M375 660q94 0 143 -46t49 -122q0 -85 -61 -140q-62 -56 -167 -56h-179l-52 -296h-52l116 660h203zM342 342q84 0 127 42t43 107q0 58 -35 90q-36 33 -107 33h-155l-47 -272h174z" />
    <glyph glyph-name="Sigma" unicode="&#x3a3;" horiz-adv-x="547" 
d="M568 660l-8 -46h-362l172 -267l-3 -16l-262 -285h367l-8 -46h-456l2 15l302 330l-191 300l3 15h444z" />
    <glyph glyph-name="Tau" unicode="&#x3a4;" horiz-adv-x="585" 
d="M634 660l-8 -46h-241l-109 -614h-52l109 614h-242l8 46h535z" />
    <glyph glyph-name="Upsilon" unicode="&#x3a5;" horiz-adv-x="613" 
d="M630 660l-297 -381l-48 -279h-52l49 281l-163 379h53l141 -331l257 331h60z" />
    <glyph glyph-name="Phi" unicode="&#x3a6;" horiz-adv-x="783" 
d="M482 600q114 -6 188 -73q75 -67 75 -177q0 -125 -97 -204q-98 -80 -249 -80h-11l-17 -96h-52l17 97q-113 4 -189 73q-76 67 -76 177q0 124 98 204q97 79 248 79h13l16 90h52zM126 320q0 -93 62 -147q62 -55 157 -59l77 439h-11q-123 0 -204 -63q-81 -64 -81 -170z
M405 114q124 0 205 63q81 65 81 170q0 91 -61 145q-62 56 -156 60l-78 -438h9z" />
    <glyph glyph-name="Chi" unicode="&#x3a7;" horiz-adv-x="584" 
d="M608 660l-267 -327l167 -333h-56l-147 296l-249 -296h-64l288 343l-156 317h56l136 -281l228 281h64z" />
    <glyph glyph-name="Psi" unicode="&#x3a8;" horiz-adv-x="796" 
d="M790 660l-47 -267q-42 -237 -333 -237l-28 -156h-52l28 156q-114 0 -181 58q-69 58 -69 159q0 24 6 57l40 230h52l-40 -230q-5 -28 -5 -53q0 -84 55 -129q55 -46 150 -46l84 478h52l-84 -478q238 0 273 197l47 261h52z" />
    <glyph glyph-name="Omega" unicode="&#x3a9;" horiz-adv-x="793" 
d="M753 362q0 -204 -216 -316h154l-8 -46h-252l8 48q138 54 199 136t61 178q0 114 -75 187q-74 73 -197 73q-77 0 -135 -30q-59 -29 -94 -77q-36 -48 -52 -100q-18 -53 -18 -103q0 -165 177 -264l-9 -48h-269l8 46h193q-72 48 -113 116t-41 150q0 58 21 118q20 59 62 115
q41 55 111 90q72 35 158 35q144 0 235 -85q92 -86 92 -223z" />
    <glyph glyph-name="Iotadieresis" unicode="&#x3aa;" horiz-adv-x="247" 
d="M110 850q18 0 31 -12q12 -12 12 -30t-12 -30q-13 -13 -31 -13t-31 13q-13 12 -13 30t13 30t31 12zM336 850q18 0 31 -12q12 -14 12 -31t-12 -30q-13 -12 -31 -12t-31 12q-13 13 -13 30q0 18 13 31q13 12 31 12zM224 660l-116 -660h-52l116 660h52z" />
    <glyph glyph-name="Upsilondieresis" unicode="&#x3ab;" horiz-adv-x="613" 
d="M262 765q-18 0 -31 13q-13 12 -13 30t13 30t31 12t31 -12q12 -12 12 -30t-12 -30q-13 -13 -31 -13zM488 765q-18 0 -31 13q-13 12 -13 29q0 18 13 31q13 12 31 12t31 -12q12 -14 12 -31t-12 -29q-13 -13 -31 -13zM630 660l-297 -381l-48 -279h-52l49 281l-163 379h53
l141 -331l257 331h60z" />
    <glyph glyph-name="alphatonos" unicode="&#x3ac;" horiz-adv-x="649" 
d="M439 771l-56 -207h-42l38 216h62zM564 36q22 0 27 1l-8 -42q-15 -4 -33 -4q-40 0 -62 22q-24 21 -25 64q-32 -41 -83 -64q-47 -23 -105 -23q-99 0 -160 66q-62 67 -62 162q0 103 71 185q70 81 189 81q75 0 128 -35q51 -35 72 -87q25 110 26 113h49q-33 -132 -49 -225
l-21 -119q-5 -42 -5 -46q0 -49 51 -49zM285 36q96 0 151 73t55 158q0 79 -51 125q-50 46 -125 46q-89 0 -149 -65t-60 -151q0 -78 49 -131q48 -55 130 -55z" />
    <glyph glyph-name="epsilontonos" unicode="&#x3ad;" horiz-adv-x="492" 
d="M371 771l-56 -207h-42l38 216h62zM281 438q-57 0 -85 -22q-30 -22 -30 -59q0 -33 24 -56q22 -24 68 -24h91l-7 -45h-89q-69 0 -110 -26q-40 -27 -40 -73q0 -45 37 -70q38 -27 97 -27q50 0 86 17q31 15 65 49l29 -34q-73 -78 -181 -78q-82 0 -134 38q-51 38 -51 100
q0 48 32 83t86 47q-55 34 -55 101q0 57 46 91q44 34 123 34q126 0 174 -83l-36 -28q-41 65 -140 65z" />
    <glyph glyph-name="etatonos" unicode="&#x3ae;" horiz-adv-x="576" 
d="M421 771l-56 -207h-42l38 216h62zM339 484q76 0 119 -43q44 -44 44 -112q0 -24 -6 -54l-79 -455h-50l80 456q5 32 5 46q0 53 -32 85q-32 31 -89 31q-59 0 -103 -36q-44 -38 -54 -99l-54 -303h-50l60 343q5 42 5 44q0 51 -51 51q-5 0 -27 -2l8 43q15 4 33 4q32 0 57 -17
q23 -19 29 -52q58 70 155 70z" />
    <glyph glyph-name="iotatonos" unicode="&#x3af;" horiz-adv-x="271" 
d="M246 780l-2 -9l-56 -207h-42l38 216h62zM181 474l-60 -343q-5 -35 -5 -39q0 -57 67 -57q14 0 30 2l-8 -43q-20 -4 -39 -4q-42 0 -71 23q-30 23 -30 72q0 14 5 46l61 343h50z" />
    <glyph glyph-name="upsilondieresistonos" unicode="&#x3b0;" horiz-adv-x="542" 
d="M389 780l-1 -9l-57 -207h-40l38 216h60zM201 711q17 0 31 -12q12 -12 12 -30t-12 -30q-14 -12 -31 -12q-18 0 -30 12q-13 12 -13 30t13 30q12 12 30 12zM470 711q18 0 31 -12q12 -12 12 -30t-12 -30q-13 -12 -31 -12t-30 12q-13 12 -13 30t13 30q12 12 30 12zM462 474
q16 -68 16 -153q0 -62 -11 -120q-12 -57 -37 -105q-26 -50 -70 -78q-46 -28 -107 -28q-80 0 -129 46t-49 120q0 24 4 41l48 277h50l-50 -283q-3 -17 -3 -32q0 -55 37 -89t93 -34q48 0 83 26q34 25 54 70q18 43 27 92q8 50 8 101q0 70 -14 149h50z" />
    <glyph glyph-name="alpha" unicode="&#x3b1;" horiz-adv-x="649" 
d="M564 36q22 0 27 1l-8 -42q-15 -4 -33 -4q-40 0 -62 22q-24 21 -25 64q-32 -41 -83 -64q-47 -23 -105 -23q-99 0 -160 66q-62 67 -62 162q0 103 71 185q70 81 189 81q75 0 128 -35q51 -35 72 -87q25 110 26 113h49q-33 -132 -49 -225l-21 -119q-5 -42 -5 -46q0 -49 51 -49
zM285 36q96 0 151 73t55 158q0 79 -51 125q-50 46 -125 46q-89 0 -149 -65t-60 -151q0 -78 49 -131q48 -55 130 -55z" />
    <glyph glyph-name="beta" unicode="&#x3b2;" horiz-adv-x="593" 
d="M406 419q129 -66 129 -187q0 -40 -14 -82q-16 -43 -43 -77q-29 -38 -77 -60q-51 -23 -111 -23q-88 0 -146 45q-59 44 -59 135q0 19 5 54l61 343q18 96 73 145q54 48 131 48q73 0 119 -42q45 -44 45 -114q0 -105 -113 -185zM350 714q-54 0 -95 -36q-40 -37 -53 -113
l-38 -210q155 54 229 113t74 134q0 53 -32 83q-34 29 -85 29zM290 36q52 0 90 19q39 19 61 49q22 31 32 62q10 30 10 64q0 103 -119 162q-77 -43 -209 -88l-14 -81q-5 -33 -5 -48q0 -70 43 -104q44 -35 111 -35z" />
    <glyph glyph-name="gamma" unicode="&#x3b3;" horiz-adv-x="526" 
d="M529 474l-287 -453l-35 -201h-50l36 203l-127 451h51l110 -398l245 398h57z" />
    <glyph glyph-name="delta" unicode="&#x3b4;" horiz-adv-x="611" 
d="M624 750l-8 -45h-367l229 -269q78 -93 78 -183q0 -108 -77 -185q-77 -78 -188 -78q-101 0 -169 68q-67 67 -67 166q0 108 78 184q77 76 183 76q31 0 63 -8l-220 257l3 17h462zM504 248q0 79 -53 135q-54 55 -135 55q-88 0 -148 -63q-61 -64 -61 -151q0 -81 53 -134
q52 -54 132 -54q88 0 150 63q62 64 62 149z" />
    <glyph glyph-name="epsilon" unicode="&#x3b5;" horiz-adv-x="492" 
d="M281 438q-57 0 -85 -22q-30 -22 -30 -59q0 -33 24 -56q22 -24 68 -24h91l-7 -45h-89q-69 0 -110 -26q-40 -27 -40 -73q0 -45 37 -70q38 -27 97 -27q50 0 86 17q31 15 65 49l29 -34q-73 -78 -181 -78q-82 0 -134 38q-51 38 -51 100q0 48 32 83t86 47q-55 34 -55 101
q0 57 46 91q44 34 123 34q126 0 174 -83l-36 -28q-41 65 -140 65z" />
    <glyph glyph-name="zeta" unicode="&#x3b6;" horiz-adv-x="495" 
d="M553 733l-341 -340q-63 -65 -86 -106q-25 -43 -25 -86q0 -96 127 -139l74 -25q59 -21 87 -49t28 -70q0 -46 -34 -98h-51q33 56 33 89q0 29 -20 49q-22 20 -66 35l-76 27q-155 56 -155 175q0 53 30 107q33 55 100 122l281 281h-283l8 45h372z" />
    <glyph glyph-name="eta" unicode="&#x3b7;" horiz-adv-x="576" 
d="M339 484q76 0 119 -43q44 -44 44 -112q0 -24 -6 -54l-79 -455h-50l80 456q5 32 5 46q0 53 -32 85q-32 31 -89 31q-59 0 -103 -36q-44 -38 -54 -99l-54 -303h-50l60 343q5 42 5 44q0 51 -51 51q-5 0 -27 -2l8 43q15 4 33 4q32 0 57 -17q23 -19 29 -52q58 70 155 70z" />
    <glyph glyph-name="theta" unicode="&#x3b8;" horiz-adv-x="606" 
d="M375 760q89 0 140 -63q50 -62 50 -195q0 -51 -8 -120q-9 -64 -30 -135q-25 -77 -53 -127q-32 -56 -84 -93t-115 -37q-34 0 -64 10q-29 10 -60 35t-49 76t-18 123q0 54 13 133h51q-12 -83 -12 -127q0 -100 37 -152t102 -52q80 0 133 74q54 75 79 188q-147 59 -224 126
q-77 68 -77 153q0 73 49 128t140 55zM239 582q0 -74 66 -128q65 -53 193 -107q15 87 15 157q0 210 -140 210q-62 0 -98 -39q-36 -37 -36 -93z" />
    <glyph glyph-name="iota" unicode="&#x3b9;" horiz-adv-x="271" 
d="M181 474l-60 -343q-5 -35 -5 -39q0 -57 67 -57q14 0 30 2l-8 -43q-20 -4 -39 -4q-42 0 -71 23q-30 23 -30 72q0 14 5 46l61 343h50z" />
    <glyph glyph-name="kappa" unicode="&#x3ba;" horiz-adv-x="481" 
d="M134 474h51l-84 -474h-50zM484 474l-259 -219l197 -255h-61l-199 260l251 214h71z" />
    <glyph glyph-name="lambda" unicode="&#x3bb;" horiz-adv-x="537" 
d="M472 37h12l-8 -42q-18 -3 -25 -3q-62 0 -76 80l-59 348l-273 -420h-57l317 485l-22 128q-18 101 -105 101h-32l8 44q26 2 35 2q117 0 141 -130l95 -542q5 -28 16 -40q11 -11 33 -11z" />
    <glyph glyph-name="mu" unicode="&#x3bc;" horiz-adv-x="584" 
d="M498 36q22 0 27 1l-8 -42q-15 -4 -33 -4q-72 0 -86 68q-56 -69 -148 -69q-101 0 -138 76l-43 -246h-50l115 654h51l-49 -277q-5 -30 -5 -42q0 -53 34 -86q33 -33 89 -33q58 0 101 36t54 99l54 303h50l-61 -345q-5 -35 -5 -44q0 -49 51 -49z" />
    <glyph glyph-name="nu" unicode="&#x3bd;" horiz-adv-x="527" 
d="M472 474h58l-307 -484h-20l-137 484h51l109 -397z" />
    <glyph glyph-name="xi" unicode="&#x3be;" horiz-adv-x="511" 
d="M377 760q124 0 180 -104l-40 -25q-44 83 -139 83q-66 0 -112 -42q-46 -40 -46 -105q0 -58 37 -95q38 -38 105 -38h80l-8 -45h-103q-107 0 -161 -54q-53 -55 -53 -127q0 -22 6 -41t13 -32q6 -12 24 -26q22 -17 28 -20q10 -7 36 -18q29 -12 36 -14q2 -1 6.5 -2.5t8.5 -3
t11.5 -4l13.5 -4.5l44 -16q16 -7 36 -18q19 -10 30 -23q8 -8 17 -29q8 -18 8 -39q0 -46 -34 -98h-51q32 56 32 90q0 37 -24 53q-26 18 -83 37q-60 22 -61 22q-23 9 -55 26q-34 20 -49 37q-17 18 -31 51t-14 68q0 74 47 138q47 62 140 80q-38 22 -61 62q-23 38 -23 83
q0 74 55 133q55 60 154 60z" />
    <glyph glyph-name="omicron" unicode="&#x3bf;" horiz-adv-x="612" 
d="M320 484q102 0 169 -67q68 -68 68 -167q0 -107 -80 -184q-79 -76 -188 -76q-101 0 -168 67t-67 166q0 109 79 185t187 76zM318 438q-88 0 -149 -63q-62 -64 -62 -152q0 -82 52 -134q51 -53 132 -53q87 0 151 62q62 64 62 151q1 78 -52 135q-53 54 -134 54z" />
    <glyph glyph-name="pi" unicode="&#x3c0;" horiz-adv-x="586" 
d="M487 -9q-38 0 -63 22q-26 23 -26 62q0 15 6 56l53 297h-280l-75 -428h-51l83 474h381l-60 -345q-5 -28 -5 -43q0 -50 51 -50q22 0 27 1l-8 -42q-15 -4 -33 -4z" />
    <glyph glyph-name="rho" unicode="&#x3c1;" horiz-adv-x="621" 
d="M338 484q100 0 165 -66q64 -67 64 -163q0 -103 -71 -185q-72 -80 -186 -80q-75 0 -124 34q-50 34 -73 87l-51 -291h-51l77 436q18 106 87 168q67 60 163 60zM310 36q87 0 146 65q58 64 58 152q0 77 -48 131t-130 54q-96 0 -149 -71t-53 -155q0 -79 51 -127
q50 -49 125 -49z" />
    <glyph glyph-name="uni03C2" unicode="&#x3c2;" horiz-adv-x="523" 
d="M323 -180q32 59 32 88q0 21 -7 34q-8 16 -25 26q-5 3 -16 9t-15 8l-42 15q-33 11 -67 28q-26 12 -60 40q-34 27 -50 65q-17 42 -17 93q0 114 75 186t183 72q68 0 120 -28t84 -78l-40 -26q-59 86 -164 86q-88 0 -146 -58q-60 -58 -60 -151q0 -44 13 -74q14 -33 40 -53
q24 -21 51 -34q22 -11 61 -25q21 -7 53 -19q12 -5 41 -23q20 -14 31 -36q10 -19 10 -47q0 -46 -34 -98h-51z" />
    <glyph glyph-name="sigma" unicode="&#x3c3;" horiz-adv-x="618" 
d="M648 474l-8 -45h-195q103 -55 103 -180q0 -108 -79 -184q-79 -75 -187 -75q-98 0 -165 65q-64 65 -64 163q0 107 79 182q80 74 199 74h317zM496 250q0 79 -50 129q-49 49 -130 49q-87 0 -149 -59q-61 -58 -61 -148q0 -79 50 -132t129 -53q89 0 150 63q61 61 61 151z" />
    <glyph glyph-name="tau" unicode="&#x3c4;" horiz-adv-x="432" 
d="M238 428l-48 -271q-3 -18 -3 -31q0 -90 120 -90q27 0 63 3l-8 -43q-32 -6 -66 -6q-72 0 -116 33q-44 32 -44 97q0 22 4 39l47 269h-134l8 46h375l-8 -46h-190z" />
    <glyph glyph-name="upsilon" unicode="&#x3c5;" horiz-adv-x="542" 
d="M462 474q16 -68 16 -153q0 -62 -11 -120q-12 -57 -37 -105q-26 -50 -70 -78q-46 -28 -107 -28q-80 0 -129 46t-49 120q0 24 4 41l48 277h50l-50 -283q-3 -17 -3 -32q0 -55 37 -89t93 -34q48 0 83 26q34 25 54 70q18 43 27 92q8 50 8 101q0 70 -14 149h50z" />
    <glyph glyph-name="phi" unicode="&#x3c6;" horiz-adv-x="706" 
d="M658 304q0 -54 -17 -108q-19 -54 -54 -100q-39 -48 -102 -76q-66 -29 -151 -30l-30 -170h-51l30 170q-97 1 -164 61q-66 59 -66 160q0 93 57 169q57 75 173 102l10 -45q-95 -26 -141 -85q-47 -61 -47 -136q0 -84 54 -131q55 -47 132 -50l52 291q15 84 59 122
q44 36 103 36q73 0 113 -48q40 -47 40 -132zM342 35q73 2 123 26q54 24 83 65q30 42 44 85q14 45 14 91q0 63 -26 100q-26 35 -77 35q-91 0 -111 -116z" />
    <glyph glyph-name="chi" unicode="&#x3c7;" horiz-adv-x="486" 
d="M331 -86q11 -33 24 -43t39 -10h13l-8 -43q-16 -2 -25 -2q-64 0 -86 73l-68 223l-216 -292h-60l256 342l-68 227q-14 42 -54 42q-17 0 -23 -1l8 45q22 2 28 2q65 0 84 -64l62 -209l199 270h60l-240 -320z" />
    <glyph glyph-name="psi" unicode="&#x3c8;" horiz-adv-x="746" 
d="M476 660l-110 -624q57 0 105 17q46 16 76 45q31 30 50 67q20 41 29 81q8 43 8 87q0 62 -14 141h50q16 -76 16 -147q0 -67 -18 -125q-21 -62 -56 -107q-36 -47 -103 -77q-63 -28 -151 -28l-30 -170h-49l29 170q-96 0 -161 54q-65 53 -65 145q0 32 4 53l41 232h50l-42 -231
q-4 -20 -4 -48q0 -75 55 -117q54 -42 130 -42l110 624h50z" />
    <glyph glyph-name="omega" unicode="&#x3c9;" horiz-adv-x="831" 
d="M626 479q151 -63 151 -213q0 -65 -25 -125q-25 -63 -78 -106q-54 -45 -125 -45q-56 0 -96 25q-42 27 -58 71q-25 -46 -68 -71q-41 -25 -96 -25q-79 0 -131 51q-51 53 -51 148q0 99 60 182q60 81 183 108l8 -44q-98 -25 -149 -91q-49 -65 -49 -149q0 -77 38 -118t95 -41
q55 0 94 39q40 37 52 104l33 190h51l-30 -167q-6 -36 -6 -50q0 -52 32 -84t84 -32q54 0 97 38q44 38 63 88q20 52 20 103q0 118 -121 172z" />
    <glyph glyph-name="iotadieresis" unicode="&#x3ca;" horiz-adv-x="271" 
d="M103 712q17 0 31 -12q12 -14 12 -31t-12 -30q-14 -12 -31 -12t-31 12q-13 13 -13 30q0 18 13 31q14 12 31 12zM274 712q18 0 31 -12q13 -13 13 -31q0 -17 -13 -30q-13 -12 -31 -12q-16 0 -30 12q-13 13 -13 30q0 18 13 31q14 12 30 12zM181 474l-60 -343q-5 -35 -5 -39
q0 -57 67 -57q14 0 30 2l-8 -43q-20 -4 -39 -4q-42 0 -71 23q-30 23 -30 72q0 14 5 46l61 343h50z" />
    <glyph glyph-name="upsilondieresis" unicode="&#x3cb;" horiz-adv-x="542" 
d="M234 711q18 0 31 -12q12 -12 12 -30t-12 -30q-13 -12 -31 -12t-31 12t-13 30t13 30q14 12 31 12zM444 711q17 0 31 -12q12 -12 12 -30t-12 -30q-14 -12 -31 -12q-18 0 -30 12q-13 12 -13 30t13 30q12 12 30 12zM462 474q16 -68 16 -153q0 -62 -11 -120q-12 -57 -37 -105
q-26 -50 -70 -78q-46 -28 -107 -28q-80 0 -129 46t-49 120q0 24 4 41l48 277h50l-50 -283q-3 -17 -3 -32q0 -55 37 -89t93 -34q48 0 83 26q34 25 54 70q18 43 27 92q8 50 8 101q0 70 -14 149h50z" />
    <glyph glyph-name="omicrontonos" unicode="&#x3cc;" horiz-adv-x="612" 
d="M431 780l-2 -9l-56 -207h-42l38 216h62zM320 484q102 0 169 -67q68 -68 68 -167q0 -107 -80 -184q-79 -76 -188 -76q-101 0 -168 67t-67 166q0 109 79 185t187 76zM318 438q-88 0 -149 -63q-62 -64 -62 -152q0 -82 52 -134q51 -53 132 -53q87 0 151 62q62 64 62 151
q1 78 -52 135q-53 54 -134 54z" />
    <glyph glyph-name="upsilontonos" unicode="&#x3cd;" horiz-adv-x="542" 
d="M388 780l-2 -9l-56 -207h-42l38 216h62zM462 474q16 -68 16 -153q0 -62 -11 -120q-12 -57 -37 -105q-26 -50 -70 -78q-46 -28 -107 -28q-80 0 -129 46t-49 120q0 24 4 41l48 277h50l-50 -283q-3 -17 -3 -32q0 -55 37 -89t93 -34q48 0 83 26q34 25 54 70q18 43 27 92
q8 50 8 101q0 70 -14 149h50z" />
    <glyph glyph-name="omegatonos" unicode="&#x3ce;" horiz-adv-x="831" 
d="M544 771l-56 -207h-42l38 216h62zM626 479q151 -63 151 -213q0 -65 -25 -125q-25 -63 -78 -106q-54 -45 -125 -45q-56 0 -96 25q-42 27 -58 71q-25 -46 -68 -71q-41 -25 -96 -25q-79 0 -131 51q-51 53 -51 148q0 99 60 182q60 81 183 108l8 -44q-98 -25 -149 -91
q-49 -65 -49 -149q0 -77 38 -118t95 -41q55 0 94 39q40 37 52 104l33 190h51l-30 -167q-6 -36 -6 -50q0 -52 32 -84t84 -32q54 0 97 38q44 38 63 88q20 52 20 103q0 118 -121 172z" />
    <glyph glyph-name="uni2009" unicode="&#x2009;" horiz-adv-x="146" 
 />
    <glyph glyph-name="endash" unicode="&#x2013;" horiz-adv-x="500" 
d="M470 333l-8 -44h-406l8 44h406z" />
    <glyph glyph-name="emdash" unicode="&#x2014;" horiz-adv-x="1000" 
d="M967 333l-8 -44h-900l8 44h900z" />
    <glyph glyph-name="uni2015" unicode="&#x2015;" horiz-adv-x="1000" 
d="M967 333l-8 -44h-900l8 44h900z" />
    <glyph glyph-name="quoteleft" unicode="&#x2018;" horiz-adv-x="272" 
d="M246 660l-59 -247h-63l80 247h42z" />
    <glyph glyph-name="quoteright" unicode="&#x2019;" horiz-adv-x="272" 
d="M252 660l-79 -247h-42l59 247h62z" />
    <glyph glyph-name="quotesinglbase" unicode="&#x201a;" horiz-adv-x="272" 
d="M150 75l-81 -248h-42l60 248h63z" />
    <glyph glyph-name="quotedblleft" unicode="&#x201c;" horiz-adv-x="431" 
d="M246 660l-59 -247h-63l80 247h42zM405 660l-59 -247h-62l79 247h42z" />
    <glyph glyph-name="quotedblright" unicode="&#x201d;" horiz-adv-x="431" 
d="M252 660l-79 -247h-42l59 247h62zM412 660l-80 -247h-42l60 247h62z" />
    <glyph glyph-name="quotedblbase" unicode="&#x201e;" horiz-adv-x="431" 
d="M150 75l-81 -248h-42l60 248h63zM308 75l-80 -248h-43l61 248h62z" />
    <glyph glyph-name="dagger" unicode="&#x2020;" horiz-adv-x="438" 
d="M334 750l-23 -129h124l-8 -45h-123l-39 -217h-50l38 217h-124l8 45h124l22 129h51z" />
    <glyph glyph-name="daggerdbl" unicode="&#x2021;" horiz-adv-x="437" 
d="M333 750l-17 -99h124l-8 -45h-124l-25 -143h124l-8 -45h-124l-18 -99h-50l18 99h-124l8 45h124l25 143h-124l8 45h124l17 99h50z" />
    <glyph glyph-name="bullet" unicode="&#x2022;" horiz-adv-x="354" 
d="M182 382q48 0 82 -33q35 -33 35 -84t-35 -83q-34 -33 -82 -33q-47 0 -82 33q-36 32 -36 83t36 84q35 33 82 33z" />
    <glyph glyph-name="ellipsis" unicode="&#x2026;" horiz-adv-x="757" 
d="M99 88q19 0 35 -14q15 -14 15 -36q0 -21 -15 -34q-14 -14 -35 -14t-34 14q-15 13 -15 34q0 22 15 36q14 14 34 14zM343 88q19 0 35 -14q15 -14 15 -36q0 -21 -15 -34q-14 -14 -35 -14t-34 14q-15 14 -15 34q0 22 15 36q14 14 34 14zM586 88q19 0 35 -14q15 -14 15 -36
q0 -21 -15 -34q-14 -14 -35 -14t-34 14q-15 14 -15 34q0 22 15 36q14 14 34 14z" />
    <glyph glyph-name="perthousand" unicode="&#x2030;" horiz-adv-x="1192" 
d="M269 670q65 0 109 -44q43 -44 43 -110q0 -68 -48 -116t-117 -48q-66 0 -108 45q-43 44 -43 109q0 69 48 117q49 47 116 47zM702 660l-518 -660h-48l517 660h49zM269 630q-50 0 -85 -35q-34 -34 -34 -88q0 -50 31 -82q30 -33 78 -33q50 0 83 36q33 34 33 88q0 48 -29 82
q-29 32 -77 32zM968 310q66 0 109 -45q43 -44 43 -109q0 -70 -48 -116q-48 -48 -117 -48q-66 0 -108 45q-43 43 -43 109q0 68 48 116t116 48zM577 308q65 0 109 -44q43 -44 43 -110q0 -68 -48 -116t-117 -48q-66 0 -109 45q-42 45 -42 109q0 69 48 117q49 47 116 47z
M968 269q-50 0 -85 -35q-33 -34 -33 -88q0 -50 30 -81q32 -33 79 -33q50 0 83 35q33 34 33 88q0 49 -30 82q-29 32 -77 32zM578 268q-51 0 -86 -35q-33 -35 -33 -88q0 -49 30 -81q31 -33 79 -33q50 0 83 35t33 88q0 48 -29 82q-29 32 -77 32z" />
    <glyph glyph-name="minute" unicode="&#x2032;" horiz-adv-x="228" 
d="M250 660l-111 -266h-42l89 266h64z" />
    <glyph glyph-name="second" unicode="&#x2033;" horiz-adv-x="386" 
d="M250 660l-111 -266h-42l89 266h64zM408 660l-110 -266h-42l88 266h64z" />
    <glyph glyph-name="guilsinglleft" unicode="&#x2039;" horiz-adv-x="289" 
d="M278 424l-172 -157l116 -157l-37 -28l-139 179l3 17l198 179z" />
    <glyph glyph-name="guilsinglright" unicode="&#x203a;" horiz-adv-x="290" 
d="M115 457l139 -179l-3 -17l-198 -179l-31 33l172 158l-116 157z" />
    <glyph glyph-name="fraction" unicode="&#x2044;" horiz-adv-x="250" 
d="M413 660l-495 -660h-48l494 660h49z" />
    <glyph glyph-name="uni2070" unicode="&#x2070;" horiz-adv-x="407" 
d="M292 786q62 0 94 -41q31 -40 31 -115q0 -40 -9 -83q-10 -47 -28 -88q-19 -42 -58 -72q-40 -29 -89 -29q-63 0 -94 42q-33 42 -33 115q0 39 9 83q9 41 29 87q20 44 59 73q37 28 89 28zM286 744q-38 0 -64 -25q-27 -24 -41 -63q-14 -40 -20 -74q-7 -34 -7 -68
q0 -114 85 -114q38 0 64 25q28 26 41 64q11 30 20 74q6 36 6 67q0 61 -24 88q-24 26 -60 26z" />
    <glyph glyph-name="uni2074" unicode="&#x2074;" horiz-adv-x="349" 
d="M372 483l-7 -41h-60l-14 -78h-44l14 78h-209l2 14l188 324h51l-173 -297h148l24 140h44l-24 -140h60z" />
    <glyph glyph-name="uni2075" unicode="&#x2075;" horiz-adv-x="364" 
d="M373 738h-166l-20 -117q40 2 42 2q62 0 100 -32q36 -31 36 -87q0 -59 -41 -103q-40 -43 -111 -43q-105 0 -142 96l38 20q32 -74 104 -74q49 0 78 30q27 30 27 70q0 39 -25 61q-26 23 -74 23h-84l34 196h212z" />
    <glyph glyph-name="uni2076" unicode="&#x2076;" horiz-adv-x="373" 
d="M247 632q53 0 89 -37t36 -92q0 -61 -43 -103t-105 -42q-56 0 -94 38q-39 38 -39 95q0 8 2 24q2 11 6 23q4 11 9 19q3 7 12 21q10 15 13 18q1 1 2.5 3l3 4t4 5.5t5.5 7.5q12 15 15 18l121 146h58l-127 -153q17 5 32 5zM227 400q41 0 70 29q28 28 28 72q0 39 -24 65
q-24 25 -63 25q-42 0 -71 -29t-29 -72q0 -40 25 -65t64 -25z" />
    <glyph glyph-name="uni2077" unicode="&#x2077;" horiz-adv-x="320" 
d="M121 780h275l-3 -14l-278 -402h-53l260 374h-209z" />
    <glyph glyph-name="uni2078" unicode="&#x2078;" horiz-adv-x="380" 
d="M296 578q79 -40 79 -101q0 -43 -36 -81q-36 -37 -108 -37q-61 0 -102 29q-42 28 -42 80q0 44 33 75q32 30 87 44q-62 36 -62 90q0 43 34 76q33 33 92 33q53 0 88 -25q35 -26 35 -73q0 -78 -98 -110zM271 749q-37 0 -60 -21t-23 -50q0 -24 16 -40q18 -18 50 -36
q97 27 97 81q0 28 -23 48q-22 18 -57 18zM229 397q52 0 76 25q24 26 24 55q0 28 -20 46q-19 17 -62 39q-114 -28 -114 -91q0 -33 26 -53q26 -21 70 -21z" />
    <glyph glyph-name="uni2079" unicode="&#x2079;" horiz-adv-x="372" 
d="M266 786q57 0 95 -37q38 -38 38 -96q0 -27 -12 -55q-14 -29 -22 -40q-27 -34 -38 -48l-120 -146h-59l126 152q-16 -4 -31 -4q-52 0 -88 37t-36 92q0 61 44 103q43 42 103 42zM252 553q42 0 71 29t29 71q0 41 -25 66t-63 25q-40 0 -69 -29t-29 -72q0 -39 24 -64
q24 -26 62 -26z" />
    <glyph glyph-name="uni207A" unicode="&#x207a;" horiz-adv-x="427" 
d="M318 742l-26 -149h145l-8 -41h-145l-26 -148h-45l27 148h-145l7 41h145l26 149h45z" />
    <glyph glyph-name="uni207B" unicode="&#x207b;" horiz-adv-x="427" 
d="M443 591l-7 -38h-334l7 38h334z" />
    <glyph glyph-name="uni207C" unicode="&#x207c;" horiz-adv-x="427" 
d="M449 671l-7 -41h-320l8 41h319zM421 515l-7 -40h-319l7 40h319z" />
    <glyph glyph-name="uni207D" unicode="&#x207d;" horiz-adv-x="250" 
d="M329 900l13 -30q-88 -45 -138 -155q-49 -108 -49 -232q0 -145 81 -212l-22 -27q-101 74 -101 239q0 133 57 254t159 163z" />
    <glyph glyph-name="uni207E" unicode="&#x207e;" horiz-adv-x="250" 
d="M153 901q101 -74 101 -239q0 -82 -23 -166q-21 -79 -73 -152q-49 -70 -119 -99l-14 30q88 45 138 155q49 108 49 232q0 144 -81 212z" />
    <glyph glyph-name="uni2080" unicode="&#x2080;" horiz-adv-x="407" 
d="M207 302q62 0 94 -41q31 -40 31 -115q0 -40 -9 -83q-10 -47 -28 -88q-19 -42 -58 -72q-40 -29 -89 -29q-62 0 -94 42q-33 42 -33 115q0 39 9 83q9 41 29 87q20 44 59 73q37 28 89 28zM201 260q-37 0 -65 -25q-28 -26 -41 -63q-11 -30 -20 -74q-6 -36 -6 -68
q0 -114 85 -114q38 0 64 25q28 26 41 63q11 32 20 75q6 36 6 67q0 61 -24 88q-24 26 -60 26z" />
    <glyph glyph-name="uni2081" unicode="&#x2081;" horiz-adv-x="346" 
d="M213 296l-65 -374h96l-7 -42h-251l8 42h108l58 332h-106l7 42h152z" />
    <glyph glyph-name="uni2082" unicode="&#x2082;" horiz-adv-x="363" 
d="M177 10l-108 -88h197l-8 -42h-285l2 11l177 150q94 78 94 141q0 35 -21 56q-22 22 -59 22q-44 0 -66 -31q-23 -31 -23 -71v-17h-46v19q0 56 36 99q34 43 101 43q56 0 91 -33q34 -33 34 -84q0 -43 -27 -84q-29 -41 -89 -91z" />
    <glyph glyph-name="uni2083" unicode="&#x2083;" horiz-adv-x="351" 
d="M305 296l-2 -14l-136 -144q43 -9 72 -41q28 -31 28 -79q0 -58 -40 -101t-112 -43q-103 0 -139 96l37 20q33 -75 102 -75q49 0 78 30q27 32 27 71q0 40 -27 63q-26 22 -75 22h-28l3 14l129 139h-171l8 42h246z" />
    <glyph glyph-name="uni2084" unicode="&#x2084;" horiz-adv-x="349" 
d="M287 -1l-7 -41h-60l-14 -78h-44l14 78h-209l2 14l188 324h51l-173 -297h148l24 140h44l-24 -140h60z" />
    <glyph glyph-name="uni2085" unicode="&#x2085;" horiz-adv-x="364" 
d="M288 254h-166l-20 -117q40 2 42 2q64 0 100 -32q36 -31 36 -87q0 -59 -41 -103q-40 -43 -111 -43q-105 0 -142 96l38 20q32 -74 104 -74q50 0 78 30q27 30 27 70q0 39 -25 61q-26 23 -74 23h-84l34 196h212z" />
    <glyph glyph-name="uni2086" unicode="&#x2086;" horiz-adv-x="373" 
d="M161 148q53 0 89 -37t36 -92q0 -61 -43 -103t-105 -42q-57 0 -94 37q-39 37 -39 96q0 9 2 23q1 12 6 24q4 11 9 19q3 7 12 21q10 15 13 18q1 1 2.5 3l3 4t4 5.5t5.5 7.5q12 15 15 18l121 146h58l-127 -153q17 5 32 5zM141 -84q41 0 70 29q28 28 28 72q0 39 -24 65
q-24 25 -63 25q-42 0 -71 -29t-29 -72q0 -40 25 -65t64 -25z" />
    <glyph glyph-name="uni2087" unicode="&#x2087;" horiz-adv-x="320" 
d="M36 296h275l-3 -14l-278 -402h-53l260 374h-209z" />
    <glyph glyph-name="uni2088" unicode="&#x2088;" horiz-adv-x="380" 
d="M211 94q79 -40 79 -102q0 -44 -36 -80q-36 -37 -108 -37q-60 0 -103 29q-41 29 -41 80q0 44 33 75q32 30 87 44q-62 36 -62 90q0 43 33 76q35 33 93 33q53 0 88 -25q35 -26 35 -73q0 -78 -98 -110zM186 265q-37 0 -61 -21q-22 -21 -22 -50q0 -24 16 -40q18 -18 50 -36
q97 27 97 81q0 28 -23 48q-23 18 -57 18zM144 -87q52 0 76 25t24 55q0 28 -20 46q-19 17 -62 39q-114 -28 -114 -91q0 -33 26 -54q26 -20 70 -20z" />
    <glyph glyph-name="uni2089" unicode="&#x2089;" horiz-adv-x="372" 
d="M180 302q57 0 95 -37q38 -40 38 -96q0 -27 -12 -55q-13 -28 -22 -41q-3 -4 -15.5 -19.5t-22.5 -27.5l-120 -146h-59l126 152q-16 -4 -31 -4q-52 0 -88 37q-36 38 -36 92q0 61 44 103t103 42zM166 69q42 0 71 29t29 71q0 41 -25 66t-63 25q-40 0 -69 -29t-29 -72
q0 -39 24 -64q24 -26 62 -26z" />
    <glyph glyph-name="uni208A" unicode="&#x208a;" horiz-adv-x="428" 
d="M233 257l-26 -149h145l-8 -41h-145l-26 -149h-45l27 149h-145l7 41h145l26 149h45z" />
    <glyph glyph-name="uni208B" unicode="&#x208b;" horiz-adv-x="426" 
d="M357 106l-7 -38h-334l8 38h333z" />
    <glyph glyph-name="uni208C" unicode="&#x208c;" horiz-adv-x="428" 
d="M364 186l-7 -41h-320l8 41h319zM336 30l-7 -41h-319l7 41h319z" />
    <glyph glyph-name="uni208D" unicode="&#x208d;" horiz-adv-x="250" 
d="M243 415l13 -30q-88 -45 -138 -155q-49 -108 -49 -232q0 -145 82 -212l-22 -27q-101 74 -101 239q0 132 57 254q55 121 158 163z" />
    <glyph glyph-name="uni208E" unicode="&#x208e;" horiz-adv-x="249" 
d="M67 416q101 -74 101 -239q0 -82 -23 -166q-21 -79 -73 -152q-49 -70 -119 -99l-14 30q88 45 138 155q49 108 49 232q0 145 -81 212z" />
    <glyph glyph-name="Euro" unicode="&#x20ac;" horiz-adv-x="682" 
d="M454 670q149 0 223 -110l-38 -28q-62 90 -184 90q-100 0 -162 -55q-64 -55 -94 -141h325l-20 -45h-318q-10 -44 -10 -92v-14h279l-20 -46h-254q17 -85 75 -138q59 -53 151 -53q104 0 168 73l34 -31q-78 -90 -207 -90q-113 0 -186 67q-74 68 -90 172h-120l8 46h107v11
q0 46 11 95h-97l8 45h101q33 104 111 175q77 69 199 69z" />
    <glyph glyph-name="uni2105" unicode="&#x2105;" horiz-adv-x="801" 
d="M274 670q87 0 128 -71l-35 -24q-35 53 -94 53q-51 0 -86 -35q-36 -36 -36 -89q0 -48 30 -79q28 -31 76 -31q56 0 95 46l29 -28q-49 -60 -125 -60q-65 0 -108 43q-44 44 -44 107q0 69 50 119q49 49 120 49zM684 660l-493 -660h-50l492 660h51zM579 308q65 0 108 -43
q43 -45 42 -108q0 -69 -50 -119q-51 -48 -120 -48q-64 0 -107 43t-43 107q0 69 51 119q49 49 119 49zM578 266q-51 0 -85 -37q-36 -36 -36 -89q0 -46 29 -78q28 -30 74 -30q51 0 87 36q35 38 35 89q0 46 -29 78q-30 31 -75 31z" />
    <glyph glyph-name="uni2113" unicode="&#x2113;" horiz-adv-x="389" 
d="M136 127q0 -92 110 -92q29 0 67 5l-7 -43q-31 -7 -69 -7q-70 0 -111 32q-40 31 -40 98q0 28 6 58l4 20l-68 -49l-22 39q62 44 101 76l57 322q16 91 55 133q38 41 98 41q107 0 107 -115q0 -177 -270 -401l-12 -68q-6 -32 -6 -49zM214 585l-48 -271q209 185 209 329
q0 72 -60 72q-37 0 -63 -29q-24 -27 -38 -101z" />
    <glyph glyph-name="uni2116" unicode="&#x2116;" horiz-adv-x="1126" 
d="M533 102l97 558h52l-118 -670h-21v1l-338 566l-97 -557h-52l118 670h20zM949 556q65 0 108 -43t43 -108q0 -69 -51 -119q-51 -48 -120 -48q-65 0 -107 43q-43 43 -43 108q0 69 51 118q49 49 119 49zM930 278q52 0 88 36q37 37 37 90q0 49 -31 80q-30 32 -76 32
q-51 0 -87 -37q-35 -37 -36 -90q0 -49 30 -80q28 -31 75 -31zM738 113l7 41h305l-7 -41h-305z" />
    <glyph glyph-name="uni2117" unicode="&#x2117;" horiz-adv-x="792" 
d="M428 670q135 0 230 -95q94 -94 94 -231q0 -145 -106 -250q-107 -104 -250 -104q-134 0 -229 96q-94 94 -94 230q0 145 107 250q107 104 248 104zM427 631q-127 0 -219 -92q-92 -94 -92 -223q0 -121 82 -203q81 -84 200 -84q128 0 219 94q91 92 91 222q0 119 -81 203
q-83 83 -200 83zM457 507q58 0 87 -28q30 -29 30 -75q0 -52 -38 -87q-40 -35 -103 -35h-94l-23 -130h-46l62 355h125zM452 467h-80l-26 -145h91q46 0 68 22q23 23 23 57q0 66 -76 66z" />
    <glyph glyph-name="trademark" unicode="&#x2122;" horiz-adv-x="948" 
d="M931 667h17l-80 -456h-47l58 335l-181 -204h-18l-114 211l-60 -342h-47l80 456h17l141 -263l233 263v-1zM81 618l7 42h367l-7 -42h-160l-72 -407h-47l72 407h-160z" />
    <glyph glyph-name="uni2126" unicode="&#x2126;" horiz-adv-x="793" 
d="M753 362q0 -204 -216 -316h154l-8 -46h-252l8 48q138 54 199 136t61 178q0 114 -75 187q-74 73 -197 73q-77 0 -135 -30q-59 -29 -94 -77q-36 -48 -52 -100q-18 -53 -18 -103q0 -165 177 -264l-9 -48h-269l8 46h193q-72 48 -113 116t-41 150q0 58 21 118q20 59 62 115
q41 55 111 90q72 35 158 35q144 0 235 -85q92 -86 92 -223z" />
    <glyph glyph-name="estimated" unicode="&#x212e;" horiz-adv-x="795" 
d="M751 327h-544v-204q77 -104 220 -104q79 0 146 33t111 87l23 -20q-49 -60 -122 -94q-75 -35 -158 -35q-148 0 -248 98q-99 97 -99 238q0 144 102 244q100 100 241 100q82 0 156 -34t126 -103q50 -68 50 -152zM427 640q-140 0 -220 -104v-180h421v195q-75 89 -201 89z" />
    <glyph glyph-name="uni2150" unicode="&#x2150;" horiz-adv-x="916" 
d="M308 286l-7 -42h-250l7 42h108l58 332h-106l7 42h152l-65 -374h96zM710 660h49l-495 -660h-48zM653 416h275l-3 -14l-278 -402h-53l260 374h-209z" />
    <glyph glyph-name="uni2151" unicode="&#x2151;" horiz-adv-x="939" 
d="M308 286l-7 -42h-250l7 42h108l58 332h-106l7 42h152l-65 -374h96zM710 660h49l-495 -660h-48zM767 422q55 0 95 -38q38 -38 38 -95q0 -27 -12 -55q-13 -28 -22 -41q-3 -4 -15.5 -19.5t-22.5 -27.5l-120 -146h-59l126 152q-16 -4 -31 -4q-52 0 -88 37q-36 38 -36 92
q0 61 44 103t103 42zM753 189q42 0 71 29t29 71q0 40 -25 65q-26 26 -63 26q-40 0 -69 -29t-29 -72q0 -39 24 -65q24 -25 62 -25z" />
    <glyph glyph-name="uni2152" unicode="&#x2152;" horiz-adv-x="1348" 
d="M277 660l-65 -374h96l-7 -42h-250l7 42h108l58 332h-106l7 42h152zM759 660l-495 -660h-48l494 660h49zM1170 422q61 0 93 -41t32 -115q0 -40 -9 -84q-9 -41 -29 -87t-58 -73q-37 -28 -88 -28q-62 0 -95 42q-32 43 -32 115q0 39 9 83q9 41 29 87q20 44 59 73q37 28 89 28
zM830 416l-65 -374h96l-7 -42h-250l7 42h108l58 332h-106l7 42h152zM1164 380q-37 0 -65 -25q-28 -26 -41 -63q-11 -30 -20 -74q-6 -36 -6 -68q0 -114 85 -114q38 0 64 25t40 63q14 42 20 75q7 34 7 67q0 62 -24 87q-24 27 -60 27z" />
    <glyph glyph-name="uni2153" unicode="&#x2153;" horiz-adv-x="948" 
d="M308 286l-7 -42h-250l7 42h108l58 332h-106l7 42h152l-65 -374h96zM710 660h49l-495 -660h-48zM922 416l-2 -14l-136 -144q42 -9 71 -41t29 -79q0 -56 -41 -100t-111 -44q-103 0 -139 96l37 20q33 -75 102 -75q50 0 78 31q27 30 27 70t-27 63q-26 22 -75 22h-28l3 14
l129 139h-171l8 42h246z" />
    <glyph glyph-name="uni2154" unicode="&#x2154;" horiz-adv-x="965" 
d="M330 286l-8 -42h-285l2 12l177 149q94 78 94 141q0 34 -21 57q-23 21 -59 21q-44 0 -66 -30q-23 -32 -23 -72v-17h-46v19q0 56 36 99q34 43 101 43q56 0 91 -33q34 -33 34 -84q0 -43 -27 -84q-29 -41 -89 -91l-108 -88h197zM727 660h49l-495 -660h-48zM939 416l-2 -14
l-136 -144q42 -9 71 -41t29 -79q0 -56 -41 -100t-111 -44q-103 0 -139 96l37 20q33 -75 102 -75q50 0 78 31q27 30 27 70t-27 63q-26 22 -75 22h-28l3 14l129 139h-171l8 42h246z" />
    <glyph glyph-name="uni2155" unicode="&#x2155;" horiz-adv-x="952" 
d="M308 286l-7 -42h-250l7 42h108l58 332h-106l7 42h152l-65 -374h96zM710 660h49l-495 -660h-48zM897 374h-166l-20 -117q40 2 42 2q63 0 100 -31q36 -32 36 -88q0 -59 -41 -103q-40 -43 -111 -43q-105 0 -142 96l38 20q32 -74 104 -74q50 0 77 30q28 29 28 70q0 39 -25 61
q-26 23 -74 23h-84l34 196h212z" />
    <glyph glyph-name="uni2156" unicode="&#x2156;" horiz-adv-x="969" 
d="M330 286l-8 -42h-285l2 12l177 149q94 78 94 141q0 34 -21 57q-23 21 -59 21q-44 0 -66 -30q-23 -32 -23 -72v-17h-46v19q0 56 36 99q34 43 101 43q56 0 91 -33q34 -33 34 -84q0 -43 -27 -84q-29 -41 -89 -91l-108 -88h197zM727 660h49l-495 -660h-48zM914 374h-166
l-20 -117q40 2 42 2q63 0 100 -31q36 -32 36 -88q0 -59 -41 -103q-40 -43 -111 -43q-104 0 -142 96l38 20q32 -74 104 -74q50 0 77 30q28 29 28 70q0 39 -25 61q-26 23 -74 23h-84l34 196h212z" />
    <glyph glyph-name="uni2157" unicode="&#x2157;" horiz-adv-x="923" 
d="M331 382q0 -57 -40 -100q-41 -44 -112 -44q-103 0 -139 96l37 20q33 -75 102 -75q50 0 78 31q27 30 27 70t-27 63q-26 22 -75 22h-27h-1l3 14l130 139h-172l8 42h246l-2 -14l-136 -144q43 -9 72 -41q28 -31 28 -79zM680 660h49l-495 -660h-48zM868 374h-166l-20 -117
q40 2 42 2q63 0 100 -31q36 -32 36 -88q0 -59 -41 -103q-40 -43 -111 -43q-104 0 -142 96l38 20q32 -74 104 -74q50 0 77 30q28 29 28 70q0 39 -25 61q-26 23 -74 23h-84l34 196h212z" />
    <glyph glyph-name="uni2158" unicode="&#x2158;" horiz-adv-x="965" 
d="M270 244h-44l13 78h-208l2 14l188 324h51l-174 -297h148l25 140h44l-24 -140h60l-7 -41h-60zM723 660h49l-495 -660h-48zM910 374h-166l-20 -117q40 2 42 2q63 0 100 -31q36 -32 36 -88q0 -59 -41 -103q-40 -43 -111 -43q-104 0 -142 96l38 20q32 -74 104 -74q50 0 77 30
q28 29 28 70q0 39 -25 61q-26 23 -74 23h-84l34 196h212z" />
    <glyph glyph-name="uni2159" unicode="&#x2159;" horiz-adv-x="889" 
d="M308 286l-7 -42h-250l7 42h108l58 332h-106l7 42h152l-65 -374h96zM710 660h49l-495 -660h-48zM698 268q53 0 89 -37t36 -92q0 -61 -44 -103q-43 -42 -104 -42q-57 0 -95 37q-38 38 -38 96q0 16 1 24q1 7 7 23q4 11 9 19q3 7 12 21q10 15 13 18q1 1 2.5 3l3 4t4 5.5
t5.5 7.5q12 15 15 18l121 146h58l-127 -153q17 5 32 5zM678 36q40 0 69 29t29 72q0 39 -24 65q-24 25 -63 25q-42 0 -71 -29t-29 -72q0 -39 25 -64q26 -26 64 -26z" />
    <glyph glyph-name="uni215A" unicode="&#x215a;" horiz-adv-x="872" 
d="M344 384q0 -59 -41 -103q-40 -43 -111 -43q-104 0 -142 96l38 20q32 -74 104 -74q50 0 78 30q27 30 27 70q0 39 -25 61q-26 23 -74 23h-84l34 196h212l-8 -42h-166l-20 -117q40 2 42 2q63 0 100 -31q36 -31 36 -88zM693 660h49l-495 -660h-48zM681 268q53 0 89 -37
t36 -92q0 -61 -44 -103t-104 -42q-57 0 -95 37q-38 38 -38 96q0 16 1 24q1 7 7 23q4 11 9 19q3 7 12 21q10 15 13 18q1 1 2.5 3l3 4t4 5.5t5.5 7.5q12 15 15 18l121 146h58l-127 -153q17 5 32 5zM661 36q40 0 69 29t29 72q0 39 -24 65q-24 25 -63 25q-42 0 -71 -29t-29 -72
q0 -39 25 -64q26 -26 64 -26z" />
    <glyph glyph-name="oneeighth" unicode="&#x215b;" horiz-adv-x="931" 
d="M308 286l-7 -42h-250l7 42h108l58 332h-106l7 42h152l-65 -374h96zM710 660h49l-495 -660h-48zM783 214q79 -40 79 -101q0 -43 -36 -81q-36 -37 -108 -37q-62 0 -102 28q-42 29 -42 81q0 44 33 75q32 30 87 44q-62 36 -62 90q0 43 34 76q33 33 92 33q53 0 88 -25
q35 -26 35 -73q0 -78 -98 -110zM758 385q-38 0 -60 -21q-23 -21 -23 -50q0 -24 16 -40q18 -18 50 -36q97 27 97 81q0 28 -23 48q-23 18 -57 18zM716 33q52 0 76 25q24 26 24 55q0 28 -20 46q-19 17 -62 39q-114 -28 -114 -91q0 -33 26 -53q26 -21 70 -21z" />
    <glyph glyph-name="threeeighths" unicode="&#x215c;" horiz-adv-x="901" 
d="M331 382q0 -57 -40 -100q-41 -44 -112 -44q-103 0 -139 96l37 20q33 -75 102 -75q50 0 78 31q27 30 27 70t-27 63q-26 22 -75 22h-27h-1l3 14l130 139h-172l8 42h246l-2 -14l-136 -144q43 -9 72 -41q28 -31 28 -79zM680 660h49l-495 -660h-48zM754 214q79 -40 79 -101
q0 -43 -36 -81q-36 -37 -108 -37q-62 0 -102 28q-42 29 -42 81q0 44 33 75q32 30 87 44q-62 36 -62 90q0 43 34 76q33 33 92 33q53 0 88 -25q35 -26 35 -73q0 -78 -98 -110zM729 385q-37 0 -60 -21t-23 -50q0 -24 16 -40q18 -18 50 -36q97 27 97 81q0 28 -23 48
q-22 18 -57 18zM687 33q52 0 76 25q24 26 24 55q0 28 -20 46q-19 17 -62 39q-114 -28 -114 -91q0 -33 26 -53q25 -21 70 -21z" />
    <glyph glyph-name="fiveeighths" unicode="&#x215d;" horiz-adv-x="914" 
d="M344 384q0 -59 -41 -103q-40 -43 -111 -43q-104 0 -142 96l38 20q32 -74 104 -74q50 0 78 30q27 30 27 70q0 39 -25 61q-26 23 -74 23h-84l34 196h212l-8 -42h-166l-20 -117q40 2 42 2q63 0 100 -31q36 -31 36 -88zM693 660h49l-495 -660h-48zM766 214q79 -40 79 -101
q0 -43 -36 -81q-36 -37 -108 -37q-62 0 -102 28q-42 29 -42 81q0 44 33 75q32 30 87 44q-62 36 -62 90q0 43 34 76q33 33 92 33q53 0 88 -25q35 -26 35 -73q0 -78 -98 -110zM741 385q-37 0 -60 -21t-23 -50q0 -24 16 -40q18 -18 50 -36q97 27 97 81q0 28 -23 48
q-22 18 -57 18zM699 33q52 0 76 25q24 26 24 55q0 28 -20 46q-19 17 -62 39q-114 -28 -114 -91q0 -33 26 -53q25 -21 70 -21z" />
    <glyph glyph-name="seveneighths" unicode="&#x215e;" horiz-adv-x="807" 
d="M94 244h-53l261 374h-210l8 42h275l-3 -14zM586 660h49l-495 -660h-48zM659 214q79 -40 79 -101q0 -43 -36 -81q-36 -37 -108 -37q-62 0 -102 28q-42 29 -42 81q0 44 33 75q32 30 87 44q-62 36 -62 90q0 43 34 76q33 33 92 33q53 0 88 -25q35 -26 35 -73q0 -78 -98 -110z
M634 385q-38 0 -60 -21q-23 -21 -23 -50q0 -24 16 -40q18 -18 50 -36q97 27 97 81q0 28 -23 48q-23 18 -57 18zM592 33q52 0 76 25q24 26 24 55q0 28 -20 46q-19 17 -62 39q-114 -28 -114 -91q0 -33 26 -53q26 -21 70 -21z" />
    <glyph glyph-name="arrowleft" unicode="&#x2190;" horiz-adv-x="650" 
d="M599 289h-448l203 -203l-31 -30l-249 249v14l249 249l31 -30l-203 -204h448v-45z" />
    <glyph glyph-name="arrowup" unicode="&#x2191;" horiz-adv-x="650" 
d="M597 310l-30 -31l-199 199v-421h-48v422l-200 -200l-31 31l247 247h14z" />
    <glyph glyph-name="arrowright" unicode="&#x2192;" horiz-adv-x="650" 
d="M351 568l250 -249v-14l-250 -249l-30 30l203 203h-448v45h448l-203 204z" />
    <glyph glyph-name="arrowdown" unicode="&#x2193;" horiz-adv-x="650" 
d="M556 345l30 -30l-246 -247h-15l-247 247l31 30l200 -200v423h48v-421z" />
    <glyph glyph-name="arrowboth" unicode="&#x2194;" horiz-adv-x="932" 
d="M633 568l249 -249v-14l-249 -249l-30 30l202 203h-219h-216h-219l203 -203l-31 -30l-249 249v14l249 249l31 -30l-203 -204h655l-203 204z" />
    <glyph glyph-name="arrowupdn" unicode="&#x2195;" horiz-adv-x="650" 
d="M366 25l194 194l31 -31l-243 -243h-14l-243 243l31 31l196 -196v614l-196 -196l-31 31l243 243h14l243 -243l-31 -31l-194 194v-610z" />
    <glyph glyph-name="uni2196" unicode="&#x2196;" horiz-adv-x="650" 
d="M547 114l-33 -33l-332 332v-295h-47v366l10 10h364v-45h-297z" />
    <glyph glyph-name="uni2197" unicode="&#x2197;" horiz-adv-x="650" 
d="M507 494l10 -10v-366h-46v295l-332 -332l-33 33l280 281l55 54h-297v45h363z" />
    <glyph glyph-name="uni2198" unicode="&#x2198;" horiz-adv-x="650" 
d="M477 486h47v-365l-11 -10h-363v45h297l-55 54l-280 281l33 33l332 -332v294z" />
    <glyph glyph-name="uni2199" unicode="&#x2199;" horiz-adv-x="650" 
d="M218 156h297v-45h-364l-10 10v365h46v-294l333 332l33 -33z" />
    <glyph glyph-name="partialdiff" unicode="&#x2202;" horiz-adv-x="562" 
d="M330 670q92 0 147 -60q55 -61 55 -175q0 -60 -17 -136q-19 -76 -52 -144q-35 -72 -96 -118q-62 -47 -139 -47q-80 0 -136 48q-55 49 -55 130q0 27 8 59q9 33 26 61q18 31 46 55q26 23 73 40q45 15 101 15q77 0 185 -32q5 47 5 70q0 96 -43 142t-114 46q-84 0 -152 -71
l-30 31q74 86 188 86zM228 36q51 0 92 25q43 26 71 69q26 40 47 91q19 46 30 101q-102 30 -177 30q-100 0 -151 -52t-51 -125q0 -63 39 -101q38 -38 100 -38z" />
    <glyph glyph-name="uni2206" unicode="&#x2206;" horiz-adv-x="664" 
d="M422 670l165 -670h-586l400 670h21zM524 46l-127 527l-311 -527h438z" />
    <glyph glyph-name="product" unicode="&#x220f;" horiz-adv-x="687" 
d="M663 660l-138 -781h-52l130 735h-388l-129 -735h-52l138 781h491z" />
    <glyph glyph-name="summation" unicode="&#x2211;" horiz-adv-x="547" 
d="M568 660l-8 -46h-367l168 -325l-3 -16l-282 -348h375l-9 -46h-456l2 15l317 394l-184 357l3 15h444z" />
    <glyph glyph-name="minus" unicode="&#x2212;" 
d="M514 334l-8 -45h-435l8 45h435z" />
    <glyph glyph-name="uni2219" unicode="&#x2219;" horiz-adv-x="271" 
d="M147 361q22 0 36 -13q14 -14 14 -37q0 -21 -14 -35q-16 -14 -36 -14t-34 14t-14 35q0 22 14 36t34 14z" />
    <glyph glyph-name="radical" unicode="&#x221a;" horiz-adv-x="646" 
d="M674 750h54l-513 -883h-21v355h-155v45h205v-257z" />
    <glyph glyph-name="infinity" unicode="&#x221e;" horiz-adv-x="796" 
d="M618 465q65 0 108 -40t43 -101q0 -68 -50 -118t-128 -50q-62 0 -102 31q-41 31 -81 87q-51 -54 -100 -87q-46 -31 -105 -31q-64 0 -108 41q-43 40 -43 101q0 67 50 117t129 50q63 0 103 -31q38 -30 80 -87q51 54 100 87q46 31 104 31zM208 203q47 0 85 28q39 28 89 81
q-34 50 -69 80q-34 27 -82 27q-54 0 -90 -33q-37 -34 -37 -86q0 -48 31 -72q31 -25 73 -25zM592 203q54 0 89 34q36 33 36 84q0 47 -30 73q-31 25 -73 25q-47 0 -85 -28q-39 -28 -88 -82q36 -52 70 -79q33 -27 81 -27z" />
    <glyph glyph-name="integral" unicode="&#x222b;" horiz-adv-x="313" 
d="M327 786q35 0 74 -12l-8 -41q-33 6 -61 6q-74 0 -104 -48q-30 -49 -30 -161v-409q0 -128 -39 -188t-140 -60q-36 0 -75 12l8 41q29 -7 61 -7q76 0 104 47q29 47 29 155v409q0 129 40 193q40 63 141 63z" />
    <glyph glyph-name="approxequal" unicode="&#x2248;" 
d="M190 496q34 0 90 -37l84 -56q43 -28 64 -28q40 0 49 62h44q-3 -48 -26 -80q-22 -31 -64 -31q-35 0 -90 36l-85 57q-40 28 -64 28q-38 0 -49 -63h-44q5 50 27 81t64 31zM153 290q35 0 90 -36l85 -57q43 -28 64 -28q40 0 49 62h44q-3 -48 -25 -79q-23 -32 -65 -32
q-35 0 -90 36l-85 57q-40 28 -64 28q-40 0 -49 -62h-44q5 49 27 80t63 31z" />
    <glyph glyph-name="notequal" unicode="&#x2260;" 
d="M514 390h-133l-121 -158h226l-8 -45h-253l-89 -116h-54l89 116h-108l8 45h135l121 158h-229l8 46h256l88 114h54l-88 -114h106z" />
    <glyph glyph-name="lessequal" unicode="&#x2264;" 
d="M532 512l-8 -49l-357 -128l311 -129l-8 -46l-397 168l3 16zM26 0l8 43h416l-8 -43h-416z" />
    <glyph glyph-name="greaterequal" unicode="&#x2265;" 
d="M125 512l396 -168l-3 -16l-455 -168l8 51l352 127l-306 129zM35 0l7 43h416l-7 -43h-416z" />
    <glyph glyph-name="uni24EA" unicode="&#x24ea;" horiz-adv-x="984" 
d="M507 760q178 0 304 -126t126 -304t-126 -304t-304 -126q-179 0 -304 126q-126 126 -126 304t126 304q125 126 304 126zM507 718q-161 0 -274 -113t-113 -275t113 -275t274 -113t274 114q113 113 113 274q0 160 -113 275q-113 113 -274 113zM507 561q80 0 121 -62t41 -166
t-40 -169q-41 -66 -122 -66t-121 66q-40 65 -40 169q0 105 40 166q41 62 121 62zM507 519q-114 0 -114 -186q0 -87 27 -140q29 -53 87 -53t87 53q28 52 28 140q0 186 -115 186z" />
    <glyph glyph-name="uni24FF" unicode="&#x24ff;" horiz-adv-x="984" 
d="M507 760q178 0 304 -126t126 -304t-126 -304t-304 -126q-179 0 -304 126q-126 126 -126 304t126 304q125 126 304 126zM507 561q-81 0 -122 -62q-40 -61 -40 -166q0 -104 40 -169q41 -66 122 -66q83 0 123 66q40 65 40 169t-41 166t-122 62zM507 517q113 0 113 -184
q0 -88 -27 -139q-28 -52 -86 -52t-85 52q-27 53 -27 139q0 184 112 184z" />
    <glyph glyph-name="filledbox" unicode="&#x25a0;" horiz-adv-x="730" 
d="M656 605v-550h-550v550h550z" />
    <glyph glyph-name="uni25A1" unicode="&#x25a1;" horiz-adv-x="730" 
d="M656 605v-550h-550v550h550zM605 558h-448v-456h448v456z" />
    <glyph glyph-name="uni25AA" unicode="&#x25aa;" horiz-adv-x="541" 
d="M461 432v-380h-381v380h381z" />
    <glyph glyph-name="uni25AB" unicode="&#x25ab;" horiz-adv-x="541" 
d="M461 432v-380h-381v380h381zM412 386h-282v-289h282v289z" />
    <glyph glyph-name="triagup" unicode="&#x25b2;" horiz-adv-x="730" 
d="M347 660l339 -594l-6 -11h-678l-6 11l339 594h12z" />
    <glyph glyph-name="uni25B3" unicode="&#x25b3;" horiz-adv-x="730" 
d="M347 660l339 -594l-6 -11h-678l-6 11l339 594h12zM607 105l-266 466l-266 -466h532z" />
    <glyph glyph-name="uni25B4" unicode="&#x25b4;" horiz-adv-x="528" 
d="M260 471l233 -408l-5 -11h-468l-5 11l233 408h12z" />
    <glyph glyph-name="uni25B5" unicode="&#x25b5;" horiz-adv-x="528" 
d="M260 471l233 -408l-5 -11h-468l-5 11l233 408h12zM420 96l-166 290l-166 -290h332z" />
    <glyph glyph-name="uni25B6" unicode="&#x25b6;" horiz-adv-x="645" 
d="M117 670l521 -334v-12l-521 -334l-11 5v670z" />
    <glyph glyph-name="uni25B7" unicode="&#x25b7;" horiz-adv-x="645" 
d="M117 670l521 -334v-12l-521 -334l-11 5v670zM556 330l-399 256v-511z" />
    <glyph glyph-name="uni25B8" unicode="&#x25b8;" horiz-adv-x="480" 
d="M91 478l358 -229v-13l-358 -229l-11 5v460z" />
    <glyph glyph-name="uni25B9" unicode="&#x25b9;" horiz-adv-x="483" 
d="M95 478l357 -229v-13l-357 -229l-12 5v460zM376 242l-245 157v-314z" />
    <glyph glyph-name="triagrt" unicode="&#x25ba;" horiz-adv-x="970" 
d="M128 670l830 -334v-12l-830 -334l-11 5v670z" />
    <glyph glyph-name="uni25BB" unicode="&#x25bb;" horiz-adv-x="970" 
d="M128 670l830 -334v-12l-830 -334l-11 5v670zM841 330l-673 271v-542z" />
    <glyph glyph-name="triagdn" unicode="&#x25bc;" horiz-adv-x="730" 
d="M427 0h-12l-339 594l6 11h678l6 -11z" />
    <glyph glyph-name="uni25BD" unicode="&#x25bd;" horiz-adv-x="730" 
d="M760 605l6 -11l-339 -594h-12l-339 594l6 11h678zM687 555h-532l266 -466z" />
    <glyph glyph-name="uni25BE" unicode="&#x25be;" horiz-adv-x="528" 
d="M508 432l5 -12l-232 -407h-12l-234 407l6 12h467z" />
    <glyph glyph-name="uni25BF" unicode="&#x25bf;" horiz-adv-x="528" 
d="M508 432l5 -12l-232 -407h-12l-234 407l6 12h467zM440 387h-332l166 -290z" />
    <glyph glyph-name="uni25C0" unicode="&#x25c0;" horiz-adv-x="645" 
d="M559 670l12 -5v-670l-12 -5l-520 334v12z" />
    <glyph glyph-name="uni25C1" unicode="&#x25c1;" horiz-adv-x="645" 
d="M559 670l12 -5v-670l-12 -5l-520 334v12zM519 75v510l-398 -256z" />
    <glyph glyph-name="uni25C2" unicode="&#x25c2;" horiz-adv-x="480" 
d="M389 478l11 -6v-460l-11 -5l-358 229v13z" />
    <glyph glyph-name="uni25C3" unicode="&#x25c3;" horiz-adv-x="480" 
d="M389 478l11 -6v-460l-11 -5l-358 229v13zM353 399l-245 -157l245 -157v314z" />
    <glyph glyph-name="triaglf" unicode="&#x25c4;" horiz-adv-x="970" 
d="M873 670l12 -5v-670l-12 -5l-829 334v12z" />
    <glyph glyph-name="uni25C5" unicode="&#x25c5;" horiz-adv-x="970" 
d="M873 670l12 -5v-670l-12 -5l-829 334v12zM833 59v542l-672 -271z" />
    <glyph glyph-name="lozenge" unicode="&#x25ca;" horiz-adv-x="665" 
d="M348 670l213 -340l-213 -340h-21l-213 341l213 339h21zM338 65l166 265l-167 266l-166 -265z" />
    <glyph glyph-name="circle" unicode="&#x25cb;" horiz-adv-x="775" 
d="M403 658q136 0 232 -96q96 -97 96 -233q0 -137 -96 -231q-96 -96 -232 -96t-232 96q-96 94 -96 231q0 136 96 233q96 96 232 96zM403 610q-115 0 -196 -82t-81 -199q0 -116 81 -197t196 -81t196 81t81 197q0 117 -81 199t-196 82z" />
    <glyph glyph-name="uni25CF" unicode="&#x25cf;" horiz-adv-x="775" 
d="M403 658q136 0 232 -96q96 -97 96 -233q0 -137 -96 -231q-96 -96 -232 -96t-232 96q-96 94 -96 231q0 136 96 233q96 96 232 96z" />
    <glyph glyph-name="uni261C" unicode="&#x261c;" horiz-adv-x="1210" 
d="M1170 275v-17l-85 -72l46 -170l-16 -11l-223 139q-85 -46 -188 -75q-104 -29 -168 -29q-96 0 -96 63q0 23 15 38q-21 6 -34 22q-13 14 -13 36q0 28 24 43q-36 16 -36 54q0 23 18 38l-192 11q-87 4 -127 22q-37 16 -37 56q0 41 41 58q41 15 141 15q89 0 192 -10v2
q0 39 21 60q19 21 51 21q26 0 54 -16l235 -137q50 -14 95 -30l227 142l16 -11l-46 -170zM474 484v-3q84 -9 199 -34l-129 73q-16 10 -33 10q-37 0 -37 -46zM479 109q0 -33 58 -33q57 0 161 30q100 28 183 76v168q-132 49 -311 79q-178 30 -339 30q-76 0 -105 -8
q-28 -7 -28 -28q0 -20 26 -28q27 -10 96 -14l155 -10q21 -1 183 -10v-35l-88 4q-13 1 -25 -7q-10 -9 -10 -22t9 -22q8 -9 22 -9h102v-35h-90q-12 0 -22 -8q-9 -9 -9 -23q0 -12 9 -21q7 -9 22 -9h102v-35q-9 -1 -48 -1h-24q-10 0 -20 -8q-9 -8 -9 -21zM921 362v-192l153 -94
l-34 124l80 66l-80 66l35 125z" />
    <glyph glyph-name="uni261E" unicode="&#x261e;" horiz-adv-x="1211" 
d="M1007 496q101 0 142 -15q41 -17 41 -58q0 -40 -37 -56q-40 -18 -127 -22l-193 -11q19 -16 19 -38q0 -38 -36 -54q24 -15 24 -43q0 -22 -13 -36q-13 -16 -35 -22q16 -13 16 -38q0 -63 -96 -63q-64 0 -168 29q-103 29 -188 75l-222 -139l-16 11l45 170l-85 72v17l85 71
l-45 171l16 11l227 -142q46 17 94 30l235 137q28 16 54 16q31 0 52 -21q20 -22 20 -60v-2q103 10 191 10zM704 520l-129 -73q113 25 199 34v3q0 46 -37 46q-17 0 -33 -10zM1028 381q67 4 97 13q25 9 25 29q0 21 -27 28q-29 8 -102 8q-164 0 -341 -30q-171 -28 -313 -79v-168
q81 -47 183 -77q104 -29 163 -29q56 0 56 33q0 13 -9 21q-10 8 -20 8h-24q-39 0 -48 1v35h102q14 0 23 9q8 10 8 21q0 14 -9 22q-10 9 -22 9h-90v35h102q14 0 23 9q8 10 8 22q0 14 -10 21q-11 9 -25 8l-88 -4v35q159 9 182 10zM327 170v192l-154 95l35 -125l-80 -66l80 -66
l-34 -124z" />
    <glyph glyph-name="uni2661" unicode="&#x2661;" horiz-adv-x="860" 
d="M647 670q81 0 137 -54q56 -56 56 -142q0 -50 -24 -95q-25 -44 -84 -109l-262 -280h-13l-262 280q-60 67 -83 109q-25 44 -25 95q0 86 56 142q55 54 137 54q63 0 113 -35q47 -35 70 -93q23 58 71 93q50 35 113 35zM690 301q50 55 73 94q22 40 22 82q0 64 -40 104t-101 40
q-113 0 -169 -158h-23q-56 158 -169 158q-60 0 -100 -40q-41 -41 -41 -104q0 -44 22 -82q20 -39 72 -94l227 -245z" />
    <glyph glyph-name="heart" unicode="&#x2665;" horiz-adv-x="860" 
d="M647 670q81 0 137 -54q56 -56 56 -142q0 -50 -24 -94q-26 -46 -84 -110l-262 -280h-13l-262 280q-60 67 -83 109q-25 44 -25 95q0 86 56 142q55 54 137 54q63 0 113 -35q47 -35 70 -93q23 58 71 93q50 35 113 35z" />
    <glyph glyph-name="uni275B" unicode="&#x275b;" horiz-adv-x="665" 
d="M408 423q87 0 148 -59q59 -61 59 -146q0 -92 -66 -159q-66 -69 -175 -69q-129 0 -219 93q-89 94 -89 219q0 56 20 119q21 62 61 118q39 55 112 94q71 37 163 37q125 0 217 -77l-27 -35q-80 69 -189 69q-63 0 -116 -21q-55 -23 -88 -56q-36 -36 -59 -78q-24 -40 -35 -86
t-11 -83q0 -120 86 -201q-23 44 -23 94q0 93 69 161q69 66 162 66z" />
    <glyph glyph-name="uni275C" unicode="&#x275c;" horiz-adv-x="665" 
d="M323 670q130 0 218 -93q90 -93 90 -219q0 -47 -13 -93q-12 -49 -40 -98q-30 -53 -68 -89q-40 -39 -101 -64q-61 -24 -134 -24q-126 0 -217 77l27 35q79 -69 189 -69q77 0 141 32q63 34 97 84q35 50 53 104t18 104q0 120 -86 201q23 -44 23 -94q0 -94 -69 -160
q-68 -67 -162 -67q-89 0 -147 60q-60 59 -60 145q0 91 66 160q66 68 175 68z" />
    <glyph glyph-name="uni275D" unicode="&#x275d;" horiz-adv-x="1284" 
d="M114 303q0 -120 86 -201q-23 44 -23 94q0 93 69 161q69 66 162 66q87 0 148 -59q59 -61 59 -146q0 -92 -66 -159q-66 -69 -175 -69q-129 0 -219 93q-89 94 -89 219q0 56 20 119q21 62 61 118q39 55 112 94q71 37 163 37q125 0 217 -77l-27 -35q-80 69 -189 69
q-63 0 -116 -21q-55 -23 -88 -56q-36 -36 -59 -78q-24 -40 -35 -86t-11 -83zM1026 423q87 0 148 -59q59 -61 59 -146q0 -91 -65 -159q-66 -69 -175 -69q-129 0 -219 93t-90 219q0 46 13 94q13 50 40 98q29 51 68 88q40 39 101 64q62 24 134 24q126 0 218 -77l-27 -35
q-79 69 -189 69q-64 0 -116 -21q-55 -23 -88 -56q-36 -36 -59 -78q-24 -40 -35 -86t-11 -83q0 -119 85 -201q-23 44 -23 94q0 93 69 161q69 66 162 66z" />
    <glyph glyph-name="uni275E" unicode="&#x275e;" horiz-adv-x="1294" 
d="M323 670q130 0 218 -93q90 -93 90 -219q0 -47 -13 -93q-12 -49 -40 -98q-30 -53 -68 -89q-40 -39 -101 -64q-61 -24 -134 -24q-126 0 -217 77l27 35q79 -69 189 -69q77 0 141 32q63 34 97 84q35 50 53 104t18 104q0 120 -86 201q23 -44 23 -94q0 -94 -69 -160
q-68 -67 -162 -67q-89 0 -147 60q-60 59 -60 145q0 91 66 160q66 68 175 68zM952 670q128 0 218 -93t90 -219q0 -44 -12 -94q-15 -52 -41 -98q-29 -51 -68 -88q-40 -39 -101 -64q-62 -24 -134 -24q-126 0 -217 77l27 35q78 -69 189 -69q78 0 140 32t97 83q35 52 53 105
t18 104q0 119 -85 201q23 -44 23 -94q0 -94 -69 -160q-68 -67 -162 -67q-88 0 -148 60q-59 59 -59 145q0 90 65 160q66 68 176 68z" />
    <glyph glyph-name="uni2776" unicode="&#x2776;" horiz-adv-x="984" 
d="M507 760q178 0 304 -126t126 -304t-126 -304t-304 -126q-179 0 -304 126q-126 126 -126 304t126 304q125 126 304 126zM535 554h-145v-42h97v-365h-104v-42h250v42h-98v407z" />
    <glyph glyph-name="uni2777" unicode="&#x2777;" horiz-adv-x="984" 
d="M507 760q178 0 304 -126t126 -304t-126 -304t-304 -126q-179 0 -304 126q-126 126 -126 304t126 304q125 126 304 126zM502 561q-65 0 -106 -41t-41 -96q0 -25 6 -46h44q-5 25 -5 42q0 40 27 69q28 28 74 28q44 0 69 -25q24 -26 24 -65q0 -36 -20 -68q-19 -30 -59 -72
l-162 -169v-13h311v42h-226l114 117q47 48 69 83q23 37 23 81q0 58 -39 96q-40 37 -103 37z" />
    <glyph glyph-name="uni2778" unicode="&#x2778;" horiz-adv-x="984" 
d="M507 760q178 0 304 -126t126 -304t-126 -304t-304 -126q-179 0 -304 126q-126 126 -126 304t126 304q125 126 304 126zM640 554h-268v-43h193l-123 -155v-14h42q56 0 87 -25t31 -71t-30 -75q-32 -29 -78 -29q-69 0 -117 72l-35 -25q54 -91 151 -91q65 0 112 41t47 107
q0 64 -40 98q-41 35 -97 38l125 157v15z" />
    <glyph glyph-name="uni2779" unicode="&#x2779;" horiz-adv-x="984" 
d="M507 760q178 0 304 -126t126 -304t-126 -304t-304 -126q-179 0 -304 126q-126 126 -126 304t126 304q125 126 304 126zM524 554h-51l-146 -350v-15h226v-84h48v84h67v43h-67v151h-48v-151h-166z" />
    <glyph glyph-name="uni277A" unicode="&#x277a;" horiz-adv-x="984" 
d="M507 760q178 0 304 -126t126 -304t-126 -304t-304 -126q-179 0 -304 126q-126 126 -126 304t126 304q125 126 304 126zM623 554h-229v-212h101q56 0 87 -25q30 -25 30 -71t-30 -75q-32 -30 -77 -30q-69 0 -120 73l-34 -25q53 -92 154 -92q64 0 111 41q46 40 46 109
q0 67 -44 103q-46 35 -110 35q-28 0 -67 -4v130h182v43z" />
    <glyph glyph-name="uni277B" unicode="&#x277b;" horiz-adv-x="984" 
d="M507 760q178 0 304 -126t126 -304t-126 -304t-304 -126q-179 0 -304 126q-126 126 -126 304t126 304q125 126 304 126zM577 554h-57l-112 -163q-18 -26 -34 -51q-10 -16 -19 -41t-9 -52q0 -62 44 -106q43 -43 107 -43t108 43q44 44 44 106q0 58 -38 99q-40 41 -96 44
q-33 3 -59 -11zM497 352q43 0 73 -30q30 -32 30 -75q0 -44 -30 -74q-30 -31 -73 -31q-45 0 -73 30q-29 31 -29 75q0 43 30 75q29 30 72 30z" />
    <glyph glyph-name="uni277C" unicode="&#x277c;" horiz-adv-x="984" 
d="M507 760q178 0 304 -126t126 -304t-126 -304t-304 -126q-179 0 -304 126q-126 126 -126 304t126 304q125 126 304 126zM668 555h-298v-44h234l-219 -405h53l230 435v14z" />
    <glyph glyph-name="uni277D" unicode="&#x277d;" horiz-adv-x="984" 
d="M507 760q178 0 304 -126t126 -304t-126 -304t-304 -126q-179 0 -304 126q-126 126 -126 304t126 304q125 126 304 126zM508 561q-58 0 -96 -29q-39 -28 -39 -81q0 -74 88 -111q-110 -38 -110 -120q0 -54 43 -88t114 -34q70 0 113 34q43 33 43 87q0 80 -108 122
q86 38 86 109q0 52 -38 82q-38 29 -96 29zM508 521q37 0 63 -20q24 -19 24 -53q0 -31 -22 -50q-23 -20 -66 -36q-41 16 -64 36q-22 19 -22 50q0 34 25 53q25 20 62 20zM507 320q53 -18 81 -39q27 -21 27 -60q0 -37 -28 -59q-29 -23 -79 -23t-79 23t-29 59q0 39 27 60t80 39z
" />
    <glyph glyph-name="uni277E" unicode="&#x277e;" horiz-adv-x="984" 
d="M507 760q179 0 305 -126q125 -127 125 -304t-125 -304q-126 -126 -305 -126q-178 0 -304 126t-126 304t126 304t304 126zM517 562q-64 0 -107 -43q-45 -43 -45 -106q0 -59 39 -99q40 -41 96 -44q32 -3 58 11l-121 -175h58l112 163q46 66 55 96q7 22 7 48q0 62 -44 106
q-44 43 -108 43zM517 518q44 0 74 -30q29 -31 29 -75q0 -43 -29 -74q-30 -31 -74 -31q-43 0 -73 31q-30 30 -30 74q0 43 30 75q30 30 73 30z" />
    <glyph glyph-name="uni2780" unicode="&#x2780;" horiz-adv-x="984" 
d="M507 760q178 0 304 -126t126 -304t-126 -304t-304 -126q-179 0 -304 126q-126 126 -126 304t126 304q125 126 304 126zM507 715q-160 0 -272 -112t-112 -273t112 -273t272 -112q161 0 273 113q112 112 112 272q0 161 -112 273t-273 112zM535 554v-407h98v-42h-250v42h104
v365h-97v42h145z" />
    <glyph glyph-name="uni2781" unicode="&#x2781;" horiz-adv-x="984" 
d="M507 760q178 0 304 -126t126 -304t-126 -304t-304 -126q-179 0 -304 126q-126 126 -126 304t126 304q125 126 304 126zM507 715q-160 0 -272 -112t-112 -273t112 -273t272 -112q161 0 273 113q112 112 112 272q0 161 -112 273t-273 112zM502 561q62 0 103 -38
q39 -37 39 -95q0 -44 -23 -82q-23 -34 -69 -82l-114 -117h226v-42h-311v13l162 169q42 44 59 71q20 32 20 69q0 39 -24 64q-26 26 -69 26q-46 0 -74 -28q-27 -29 -27 -69q0 -17 5 -42h-44q-6 21 -6 46q0 55 41 96t106 41z" />
    <glyph glyph-name="uni2782" unicode="&#x2782;" horiz-adv-x="984" 
d="M507 760q178 0 304 -126t126 -304t-126 -304t-304 -126q-179 0 -304 126q-126 126 -126 304t126 304q125 126 304 126zM507 715q-160 0 -272 -112t-112 -273t112 -273t272 -112q161 0 273 113q112 112 112 272q0 161 -112 273t-273 112zM640 554v-15l-125 -157
q56 -3 97 -38q40 -34 40 -98q0 -67 -47 -108q-46 -40 -112 -40q-97 0 -151 91l35 25q48 -72 117 -72q46 0 78 29q30 29 30 75q0 45 -31 70q-32 26 -87 26h-42v14l123 155h-193v43h268z" />
    <glyph glyph-name="uni2783" unicode="&#x2783;" horiz-adv-x="984" 
d="M507 760q178 0 304 -126t126 -304t-126 -304t-304 -126q-179 0 -304 126q-126 126 -126 304t126 304q125 126 304 126zM507 715q-160 0 -272 -112t-112 -273t112 -273t272 -112q161 0 273 113q112 112 112 272q0 161 -112 273t-273 112zM524 554l-137 -322h166v151h48
v-151h67v-43h-67v-84h-48v84h-226v15l146 350h51z" />
    <glyph glyph-name="uni2784" unicode="&#x2784;" horiz-adv-x="984" 
d="M507 760q178 0 304 -126t126 -304t-126 -304t-304 -126q-179 0 -304 126q-126 126 -126 304t126 304q125 126 304 126zM507 715q-160 0 -272 -112t-112 -273t112 -273t272 -112q161 0 273 113q112 112 112 272q0 161 -112 273t-273 112zM623 554v-43h-182v-130q39 4 67 4
q65 0 110 -36q45 -35 45 -102q0 -69 -46 -109q-47 -41 -112 -41q-98 0 -154 92l35 25q49 -73 119 -73q45 0 77 29q31 30 31 76t-31 71t-87 25h-101v212h229z" />
    <glyph glyph-name="uni2785" unicode="&#x2785;" horiz-adv-x="984" 
d="M507 760q178 0 304 -126t126 -304t-126 -304t-304 -126q-179 0 -304 126q-126 126 -126 304t126 304q125 126 304 126zM507 715q-160 0 -272 -112t-112 -273t112 -273t272 -112q161 0 273 113q112 112 112 272q0 161 -112 273t-273 112zM577 554l-121 -175q26 14 59 11
q56 -3 96 -44q38 -41 38 -99q0 -62 -44 -106q-44 -43 -108 -43t-107 43q-44 44 -44 106q0 25 9 51q10 27 19 42q16 25 34 51l112 163h57zM497 352q-43 0 -73 -31q-29 -31 -29 -74q0 -44 29 -75q28 -30 73 -30q43 0 73 30q30 32 30 75q0 44 -30 74q-30 31 -73 31z" />
    <glyph glyph-name="uni2786" unicode="&#x2786;" horiz-adv-x="984" 
d="M507 760q178 0 304 -126t126 -304t-126 -304t-304 -126q-179 0 -304 126q-126 126 -126 304t126 304q125 126 304 126zM507 715q-160 0 -272 -112t-112 -273t112 -273t272 -112q161 0 273 113q112 112 112 272q0 161 -112 273t-273 112zM668 555v-14l-230 -435h-53
l218 405h-234v44h299z" />
    <glyph glyph-name="uni2787" unicode="&#x2787;" horiz-adv-x="984" 
d="M507 760q178 0 304 -126t126 -304t-126 -304t-304 -126q-179 0 -304 126q-126 126 -126 304t126 304q125 126 304 126zM507 715q-160 0 -272 -112t-112 -273t112 -273t272 -112q161 0 273 113q112 112 112 272q0 161 -112 273t-273 112zM508 561q58 0 96 -30
q38 -29 38 -81q0 -71 -86 -109q108 -42 108 -122q0 -54 -43 -88q-43 -33 -113 -33q-71 0 -114 34t-43 88q0 82 110 120q-88 37 -88 111q0 52 38 81q40 29 97 29zM508 521q-37 0 -63 -20q-24 -19 -24 -53q0 -32 22 -51q21 -18 64 -35q44 17 65 35q23 20 23 51q0 34 -25 53
q-25 20 -62 20zM507 320q-53 -18 -80 -39t-27 -60q0 -38 28 -60t80 -22q51 0 79 22t28 60q0 39 -28 60q-27 21 -80 39z" />
    <glyph glyph-name="uni2788" unicode="&#x2788;" horiz-adv-x="984" 
d="M507 760q179 0 305 -126q125 -127 125 -304t-125 -304q-126 -126 -305 -126q-178 0 -304 126t-126 304t126 304t304 126zM507 715q-160 0 -272 -112t-112 -273q0 -160 112 -272q113 -113 272 -113q161 0 273 112t112 273t-112 273t-273 112zM517 562q64 0 108 -43
q44 -44 44 -106q0 -36 -13 -63q-12 -25 -42 -71q-2 -2 -2 -3l-1 -1q-1 -1 -1 -2t-1 -2l-2 -2l-112 -163h-58l121 175q-26 -14 -58 -11q-56 3 -96 44q-39 40 -39 99q0 63 45 106q43 43 107 43zM517 518q-43 0 -73 -30q-30 -32 -30 -75q0 -44 30 -74q30 -31 73 -31q44 0 74 31
q29 31 29 74q0 44 -29 75q-30 30 -74 30z" />
    <glyph glyph-name="uni27F5" unicode="&#x27f5;" horiz-adv-x="1219" 
d="M1168 289h-1017l203 -203l-31 -30l-249 249v14l249 249l31 -30l-203 -204h1017v-45z" />
    <glyph glyph-name="uni27F6" unicode="&#x27f6;" horiz-adv-x="1219" 
d="M920 568l249 -249v-14l-249 -249l-30 30l202 203h-1016v45h1017l-203 204z" />
    <glyph glyph-name="uniF8FF" unicode="&#xf8ff;" horiz-adv-x="722" 
d="M99 0v660h524v-660h-524zM458 123q36 0 58 22t22 54q0 26 -17 55q-17 30 -45 46l-24 -25q45 -44 45 -76q0 -18 -10 -28q-11 -11 -27 -11q-24 0 -43 27q-20 28 -54 103q83 46 111 78q28 29 28 62q0 38 -27 61q-29 21 -75 21q-3 0 -33 -2l26 55l-41 7l-33 -71
q-46 -9 -103 -36q-23 -66 -23 -161q0 -78 20 -158l42 -8q21 107 43 187q17 63 52 147q17 4 41 4q70 0 70 -50q0 -24 -26 -48q-29 -25 -114 -74l-1 -6q40 -101 67 -137q29 -38 71 -38zM231 202q-2 46 -2 81q0 86 23 157q20 12 51 20q-52 -132 -65 -258h-7z" />
    <glyph glyph-name="Alpha.ordn" horiz-adv-x="437" 
d="M361 244l-21 89h-205l-51 -89h-53l254 422h17l106 -422h-47zM331 371l-50 210l-123 -210h173z" />
    <glyph glyph-name="Eta.ordn" horiz-adv-x="475" 
d="M476 660l-73 -416h-47l35 202h-235l-35 -202h-47l73 416h47l-30 -172h234l31 172h47z" />
    <glyph glyph-name="Nu.ordn" horiz-adv-x="475" 
d="M429 660h47l-74 -422h-18l-207 325l-56 -319h-47l74 422h18l206 -326z" />
    <glyph glyph-name="Omicron.ordn" horiz-adv-x="508" 
d="M309 666q85 0 141 -56q56 -58 56 -141q0 -95 -69 -163q-68 -68 -163 -68q-86 0 -141 57q-55 55 -55 141q0 95 68 163q68 67 163 67zM306 623q-74 0 -128 -54q-53 -56 -53 -131q0 -68 43 -112q44 -45 110 -45q75 0 127 55q53 55 53 130q0 69 -43 113q-44 44 -109 44z" />
    <glyph glyph-name="Rho.ordn" horiz-adv-x="378" 
d="M275 660q61 0 94 -30q32 -32 32 -81q0 -57 -40 -93q-41 -36 -111 -36h-99l-30 -176h-47l73 416h128zM269 619h-82l-28 -158h92q51 0 77 24q25 22 25 62q0 72 -84 72z" />
    <glyph glyph-name="Sigma.ordn" horiz-adv-x="363" 
d="M402 660l-8 -43h-213l97 -158l-2 -12l-147 -161h215l-8 -42h-293l2 12l181 201l-112 191l2 12h286z" />
    <glyph glyph-name="Upsilon.ordn" horiz-adv-x="403" 
d="M442 660l-185 -244l-30 -172h-47l30 172l-101 244h49l81 -196l150 196h53z" />
    <glyph glyph-name="alpha.ordn" horiz-adv-x="434" 
d="M403 280q5 0 9 1h7l-7 -39q-9 -3 -23 -3q-56 0 -62 55q-41 -56 -116 -56q-62 0 -99 43q-38 43 -38 103q0 67 44 120t119 53q85 0 119 -67l11 61h45l-37 -213q-3 -14 -3 -27q0 -31 31 -31zM222 279q56 0 88 42q32 41 32 92q1 46 -28 75q-29 28 -74 28q-51 0 -86 -38
t-35 -90q0 -46 28 -77q29 -32 75 -32z" />
    <glyph glyph-name="eta.ordn" horiz-adv-x="389" 
d="M257 556q47 0 74 -28q27 -29 27 -73q0 -16 -3 -35l-50 -289h-46l51 286q3 16 3 28q0 32 -18 50q-18 19 -50 19q-35 0 -60 -22q-24 -21 -30 -56l-33 -192h-46l38 211q1 3 1 10q1 3 1 7q0 1 1 3t1 3v6q0 29 -32 29h-16l7 38q9 3 23 3q52 0 61 -44q36 46 96 46z" />
    <glyph glyph-name="nu.ordn" horiz-adv-x="349" 
d="M328 551h52l-197 -313h-17l-87 313h48l60 -231z" />
    <glyph glyph-name="omicron.ordn" horiz-adv-x="414" 
d="M244 557q65 0 108 -43t43 -108q0 -70 -51 -119q-50 -49 -120 -49q-64 0 -107 43t-43 107q0 70 51 120q49 49 119 49zM243 514q-53 0 -87 -36q-35 -37 -35 -89q0 -46 29 -78q30 -31 76 -31q52 0 88 37q35 37 35 88q0 47 -30 78t-76 31z" />
    <glyph glyph-name="rho.ordn" horiz-adv-x="421" 
d="M254 557q68 0 108 -42q40 -43 40 -105q0 -67 -43 -119q-44 -53 -117 -53q-82 0 -120 66l-31 -173h-46l49 276q14 73 56 111q42 39 104 39zM239 279q49 0 84 39q33 37 33 89q0 45 -27 77q-28 31 -75 31q-54 0 -86 -41q-32 -43 -32 -91q0 -47 30 -75q31 -29 73 -29z" />
    <glyph glyph-name="uni03C2.ordn" horiz-adv-x="349" 
d="M243 557q87 0 128 -72l-36 -24q-33 54 -93 54q-49 0 -86 -35q-35 -35 -35 -85q0 -43 25 -67t74 -46q19 -8 35 -17q4 -2 24 -16q16 -11 20 -23q5 -13 5 -29q0 -27 -23 -67h-46q21 40 21 59q0 13 -8 24q-10 12 -18 16q-3 1 -7.5 3.5t-11.5 5.5t-13 6q-22 9 -42 20
q-19 12 -38 27q-22 19 -32 43q-11 27 -11 58q0 70 50 117q50 48 118 48z" />
    <glyph glyph-name="sigma.ordn" horiz-adv-x="407" 
d="M456 551l-7 -41h-110q52 -34 52 -105q0 -69 -50 -119q-49 -48 -119 -48q-65 0 -106 42q-42 42 -42 106q0 70 51 117q51 48 128 48h203zM223 280q51 0 87 36q35 38 35 89q0 47 -28 75t-75 28q-51 0 -86 -34q-36 -33 -36 -86q0 -46 29 -78q29 -30 74 -30z" />
    <glyph glyph-name="upsilon.ordn" horiz-adv-x="371" 
d="M343 551q9 -53 9 -94q0 -92 -35 -156q-36 -63 -112 -63q-54 0 -85 31q-33 30 -33 79q0 6 2 30l30 173h46l-31 -174q-3 -13 -3 -26q0 -33 22 -52q20 -19 52 -19q52 0 76 53t24 132q0 43 -7 86h45z" />
    <glyph glyph-name="zero.lf" horiz-adv-x="607" 
d="M364 670q96 0 146 -66q50 -67 50 -183q0 -45 -8 -101q-7 -49 -28 -114q-22 -63 -52 -107q-32 -47 -82 -78t-115 -31q-96 0 -147 66t-51 182q0 44 8 102q7 51 29 113t52 108q32 48 83 78q50 31 115 31zM358 623q-64 0 -110 -42q-49 -44 -72 -107q-25 -67 -35 -125
q-11 -64 -11 -114q0 -105 44 -151q43 -46 106 -46q51 0 92 29q40 29 66 72q26 47 41 98q16 51 22 101q6 46 6 87q0 106 -43 152t-106 46z" />
    <glyph glyph-name="one.lf" horiz-adv-x="372" 
d="M309 660h20l-116 -660h-52l106 604l-160 -36l-6 46z" />
    <glyph glyph-name="two.lf" horiz-adv-x="550" 
d="M324 214l-208 -168h345l-8 -46h-447l3 16l284 233q81 66 119 122q37 55 37 115q0 62 -36 99t-100 37q-79 0 -118 -54q-40 -52 -40 -123q0 -23 1 -30h-54q-1 5 -1 33q0 86 56 154t158 68q85 0 138 -50q51 -51 51 -131q0 -70 -43 -134q-45 -68 -137 -141z" />
    <glyph glyph-name="three.lf" horiz-adv-x="532" 
d="M526 660l-3 -17l-228 -236q74 -9 123 -61t49 -129q0 -91 -64 -158q-65 -69 -174 -69q-153 0 -216 148l43 22q55 -124 174 -124q88 0 136 54t48 125q0 69 -48 110q-47 40 -128 40h-34l3 16l223 233h-294l8 46h382z" />
    <glyph glyph-name="four.lf" horiz-adv-x="534" 
d="M497 175l-8 -46h-101l-22 -129h-52l22 129h-332l3 17l310 514h55l-293 -485h265l42 238h52l-42 -238h101z" />
    <glyph glyph-name="five.lf" horiz-adv-x="550" 
d="M498 614h-271l-37 -212q42 5 80 5q100 0 158 -51t58 -138q0 -93 -64 -160q-65 -68 -173 -68q-158 0 -219 148l42 22q29 -61 70 -92q41 -32 106 -32q89 0 137 54q48 52 48 125q0 66 -44 107q-43 40 -129 40h-128l52 298h322z" />
    <glyph glyph-name="six.lf" horiz-adv-x="546" 
d="M283 416q87 0 145 -58q57 -58 57 -144q0 -94 -67 -158q-68 -65 -161 -65q-89 0 -148 59q-60 58 -60 146q0 10 2 28q1 11 5 26q1 10 8 25q4 12 9 22q7 14 13 23q4 6 13 21q5 8 16 22q12 17 15 20q4 5 18 21q14 18 16 20l193 236h66l-217 -261q36 17 77 17zM257 37
q73 0 124 51q51 49 51 125q0 70 -43 114q-44 44 -112 44q-74 0 -125 -51t-51 -125q0 -69 44 -113q43 -45 112 -45z" />
    <glyph glyph-name="seven.lf" horiz-adv-x="490" 
d="M107 660h431l-3 -17l-462 -643h-57l443 614h-360z" />
    <glyph glyph-name="eight.lf" horiz-adv-x="572" 
d="M360 342q138 -66 138 -168q0 -30 -12 -61q-13 -32 -37 -59q-25 -28 -71 -46t-106 -18q-101 0 -163 46q-63 47 -63 124q0 72 57 122t147 69q-111 61 -111 149q0 67 53 118t146 51q81 0 136 -40q54 -41 54 -113q0 -126 -168 -174zM192 501q0 -42 29 -71q29 -28 87 -60
q78 20 124 53q44 32 44 88q0 53 -39 81q-39 30 -99 30q-67 0 -107 -35q-39 -35 -39 -86zM270 36q91 0 134 43q42 43 42 97q0 49 -36 79t-111 67q-200 -45 -200 -157q0 -57 46 -93q45 -36 125 -36z" />
    <glyph glyph-name="nine.lf" horiz-adv-x="546" 
d="M322 670q90 0 149 -58q59 -59 59 -147q0 -43 -16 -82t-36 -67q-28 -37 -52 -65q-10 -12 -12 -14l-194 -237h-66l218 261q-31 -16 -77 -16q-87 0 -144 57q-58 58 -58 144q0 94 68 159t161 65zM302 289q74 0 125 51q50 52 50 126q0 70 -43 113q-44 44 -113 44
q-74 0 -124 -50q-51 -49 -51 -126q0 -67 44 -113q44 -45 112 -45z" />
    <glyph glyph-name="zero.slash.lf" horiz-adv-x="607" 
d="M364 670q96 0 146 -66q50 -67 50 -183q0 -45 -8 -101q-7 -49 -28 -114q-22 -63 -52 -107q-32 -47 -82 -78t-115 -31q-96 0 -147 66t-51 182q0 44 8 102q7 51 29 113t52 108q32 48 83 78q50 31 115 31zM358 623q-64 0 -110 -42q-49 -44 -72 -107q-25 -67 -35 -125
q-11 -64 -11 -114q0 -6 2 -38l366 312q-30 114 -140 114zM280 38q51 0 92 29q40 29 66 72q26 47 41 98q16 51 22 101q6 46 6 87q0 27 -1 34l-365 -311q30 -110 139 -110z" />
    <glyph glyph-name="zero.slash" horiz-adv-x="665" 
d="M352 542q110 0 187 -75q76 -76 76 -187q0 -119 -88 -204q-89 -86 -208 -86q-111 0 -185 75q-75 75 -75 185q0 122 88 207q86 85 205 85zM352 497q-100 0 -170 -72q-72 -73 -72 -175q0 -62 28 -112l373 288q-62 71 -159 71zM320 35q102 0 172 72q72 72 72 174
q0 60 -28 109l-373 -287q62 -68 157 -68z" />
    <glyph glyph-name="zero.tf" 
d="M340 670q93 0 140 -65q46 -64 46 -184q0 -34 -5 -82q-5 -40 -17 -94q-12 -52 -33 -94q-20 -42 -50 -81q-28 -37 -72 -58q-43 -22 -96 -22q-93 0 -140 66q-47 65 -47 183q0 35 5 83q5 37 17 93q12 52 33 94q23 43 51 81q27 36 72 59q44 21 96 21zM335 622q-62 0 -106 -43
q-45 -42 -68 -108q-20 -60 -32 -126q-10 -57 -10 -113q0 -105 39 -150q39 -44 99 -44q61 0 106 42q46 44 68 109q20 58 32 125q10 57 10 113q0 195 -138 195z" />
    <glyph glyph-name="one.tf" 
d="M295 46h184l-8 -46h-439l8 46h203l98 556l-198 -51l-6 47l246 64h21z" />
    <glyph glyph-name="two.tf" 
d="M338 214l-210 -168h348l-8 -46h-447l3 15l284 233q82 68 119 123q38 56 38 115q0 63 -37 100q-36 37 -100 37q-79 0 -119 -54q-40 -53 -40 -124q0 -23 1 -30h-53q-1 5 -1 33q0 87 55 154q56 68 158 68q86 0 139 -50q51 -51 51 -131q0 -70 -43 -134q-44 -66 -138 -141z
" />
    <glyph glyph-name="three.tf" 
d="M530 660l-3 -17l-229 -236q74 -9 123 -60q49 -52 49 -130q0 -91 -63 -158q-65 -69 -174 -69q-155 0 -216 148l42 22q55 -124 175 -124q86 0 136 54q48 54 48 125q0 69 -48 110q-47 40 -129 40h-33l3 16l224 233h-295l8 46h382z" />
    <glyph glyph-name="four.tf" 
d="M500 175l-8 -46h-97l-23 -129h-52l23 129h-331l2 17l311 514h56l-294 -485h264l40 227h52l-40 -227h97z" />
    <glyph glyph-name="five.tf" 
d="M502 614h-271l-37 -211q36 4 78 4q100 0 159 -51q58 -51 58 -138q0 -93 -64 -160q-65 -68 -173 -68q-158 0 -219 148l42 22q58 -124 177 -124q89 0 137 54q48 52 48 125q0 66 -44 107q-44 40 -129 40h-129l52 298h323z" />
    <glyph glyph-name="six.tf" 
d="M293 416q87 0 144 -57q58 -58 58 -144q0 -95 -67 -159q-68 -65 -161 -65q-88 0 -149 59q-59 59 -59 146q0 17 3 35q1 4 7 31q3 13 13 31q8 14 13 26q9 15 19 29q14 17 19 24t22 27q6 7 10.5 13t6.5 9l3 3l192 236h65l-215 -261q36 17 76 17zM268 37q73 0 124 51
q52 49 52 125q0 68 -44 114q-44 45 -112 45q-74 0 -126 -51q-51 -53 -51 -126q0 -69 44 -113q43 -45 113 -45z" />
    <glyph glyph-name="seven.tf" 
d="M144 660h430l-3 -17l-459 -643h-59l441 614h-358z" />
    <glyph glyph-name="eight.tf" 
d="M353 341q139 -67 139 -167q0 -30 -12 -61q-13 -32 -37 -59q-25 -28 -70 -46q-47 -18 -106 -18q-99 0 -160 46q-63 47 -63 124q0 74 57 122q57 49 146 69q-110 65 -110 149q0 67 53 117t144 50q80 0 134 -39t54 -112q0 -126 -169 -175zM187 501q0 -41 29 -72
q31 -29 88 -60q74 19 123 52q45 33 45 89q0 52 -39 84q-41 30 -100 30q-65 0 -106 -36q-40 -37 -40 -87zM265 33q47 0 84 14q35 13 54 36q19 21 28 45t9 48q0 48 -36 80q-39 34 -108 67q-200 -47 -200 -159q0 -58 46 -95q45 -36 123 -36z" />
    <glyph glyph-name="nine.tf" 
d="M328 669q90 0 148 -58q60 -59 60 -147q0 -14 -2 -38q-3 -17 -12 -37q-4 -8 -8.5 -19t-4.5 -12q-4 -11 -21 -34q-6 -9 -12.5 -18t-7.5 -10q-5 -7 -25 -31q-22 -26 -23 -29l-193 -236h-65l216 261q-36 -17 -77 -17q-87 0 -145 58q-57 58 -57 144q0 95 67 159t162 64z
M308 289q74 0 124 51q51 51 51 125q0 68 -44 114q-44 44 -112 44q-72 0 -124 -50q-51 -51 -51 -126q0 -70 43 -113q44 -45 113 -45z" />
    <glyph glyph-name="zero.slash.tf" 
d="M340 670q93 0 140 -65q46 -64 46 -184q0 -34 -5 -82q-5 -40 -17 -94q-12 -52 -33 -94q-20 -42 -50 -81q-28 -37 -72 -58q-43 -22 -96 -22q-93 0 -140 66q-47 65 -47 183q0 35 5 83q5 37 17 93q12 52 33 94q23 43 51 81q27 36 72 59q44 21 96 21zM335 622q-62 0 -106 -43
q-45 -42 -68 -108q-20 -60 -32 -126q-10 -59 -10 -114q0 -8 1 -13v-12l346 296q-23 120 -131 120zM257 38q49 0 89 29q39 29 63 72q24 46 38 99q15 55 21 103q5 52 5 88v10q-1 5 -1 11l-346 -295q24 -117 131 -117z" />
    <glyph glyph-name="zero.tosf" 
d="M298 541q106 0 171 -71q64 -71 64 -178q0 -53 -16 -104q-16 -52 -48 -97q-31 -44 -84 -73q-52 -28 -116 -28q-105 0 -170 71q-64 70 -64 177q0 53 16 104t48 98q32 45 83 73q52 28 116 28zM296 494q-54 0 -98 -26q-43 -26 -65 -66q-24 -43 -34 -83q-11 -44 -11 -81
q0 -86 51 -144q49 -58 134 -58q55 0 99 27q42 26 65 68q22 40 33 83q11 44 11 81q0 84 -50 142q-51 57 -135 57z" />
    <glyph glyph-name="one.tosf" 
d="M372 531l-85 -486h185l-8 -45h-440l8 45h203l78 441h-185l9 45h235z" />
    <glyph glyph-name="two.tosf" 
d="M263 127l-131 -83h317l-8 -44h-438l3 15l226 143q63 40 76 50q28 20 57 46q30 27 44 57t14 62q0 53 -34 87q-33 35 -95 35q-73 0 -109 -48q-36 -49 -36 -102q0 -20 2 -38h-50q-4 19 -4 42q0 77 56 136q57 57 145 57q78 0 128 -47q49 -48 49 -119q0 -40 -15 -74
q-17 -35 -49 -66q-32 -30 -65 -54q-39 -28 -83 -55z" />
    <glyph glyph-name="three.tosf" 
d="M507 531l-3 -16l-227 -231q73 -9 123 -60q50 -53 50 -130q0 -91 -64 -158q-64 -69 -175 -69q-155 0 -216 148l42 23q56 -125 175 -125q86 0 136 54q48 54 48 125q0 69 -47 110q-47 40 -128 40h-34l3 16l222 228h-296l8 45h383z" />
    <glyph glyph-name="four.tosf" 
d="M470 44l-8 -44h-98l-21 -121h-52l21 121h-331l3 17l310 514h55l-294 -487h265l42 239h52l-42 -239h98z" />
    <glyph glyph-name="five.tosf" 
d="M480 486h-271l-36 -207q53 5 79 5q100 0 159 -51q57 -51 57 -138q0 -94 -64 -161t-173 -67q-155 0 -219 148l42 23q29 -62 70 -93q41 -32 106 -32q89 0 137 53q48 54 48 126q0 66 -44 107q-43 40 -128 40h-129l51 292h323z" />
    <glyph glyph-name="six.tosf" 
d="M293 416q87 0 145 -57q57 -59 57 -144q0 -95 -67 -159q-68 -65 -162 -65q-89 0 -148 59t-59 146q0 10 2 28q1 11 5 26q1 10 8 25q4 12 9 22q7 14 13 23q4 6 13 21q2 4 15 22l16 20q4 5 18 21q14 18 16 20l193 236h64l-214 -260q33 16 76 16zM268 37q72 0 125 51
q51 49 51 125q0 68 -44 114q-44 45 -113 45q-74 0 -125 -51q-52 -52 -52 -126q0 -68 45 -113q43 -45 113 -45z" />
    <glyph glyph-name="seven.tosf" 
d="M121 531h431l-3 -16l-455 -636h-58l436 607h-359z" />
    <glyph glyph-name="eight.tosf" 
d="M353 341q139 -67 139 -167q0 -30 -12 -61q-13 -32 -37 -59q-25 -28 -70 -46q-47 -18 -106 -18q-99 0 -160 46q-63 47 -63 124q0 74 57 122q57 49 146 69q-110 65 -110 149q0 67 53 117t144 50q80 0 134 -39t54 -112q0 -126 -169 -175zM187 501q0 -41 29 -72
q31 -29 88 -60q74 19 123 52q45 33 45 89q0 52 -39 84q-41 30 -100 30q-65 0 -106 -36q-40 -37 -40 -87zM265 33q47 0 84 14q35 13 54 36q19 21 28 45t9 48q0 48 -36 80q-39 34 -108 67q-200 -47 -200 -159q0 -58 46 -95q45 -36 123 -36z" />
    <glyph glyph-name="nine.tosf" 
d="M309 542q90 0 148 -58q59 -59 59 -147q0 -44 -16 -83t-35 -66q-28 -37 -53 -66q-3 -3 -6.5 -7.5t-4.5 -5.5l-188 -230h-64l210 254q-37 -17 -76 -17q-87 0 -145 58t-58 144q0 94 68 159t161 65zM288 160q74 0 126 52q52 51 52 126q0 67 -44 113q-45 45 -114 45
q-72 0 -124 -50q-52 -51 -52 -126q0 -68 44 -114q43 -46 112 -46z" />
    <glyph glyph-name="zero.slash.tosf" 
d="M300 541q106 0 171 -71q65 -73 65 -178q0 -53 -16 -104q-16 -52 -48 -97q-31 -44 -84 -73q-52 -28 -116 -28q-105 0 -170 71q-64 70 -64 177q0 53 16 104q15 49 47 98q32 45 83 73q52 28 116 28zM299 496q-55 0 -99 -26q-43 -27 -66 -68q-24 -43 -34 -83q-12 -42 -12 -82
q0 -51 19 -93l340 279q-52 73 -148 73zM276 34q56 0 99 27t66 69t33 84q11 44 11 81q0 47 -17 90l-340 -279q54 -72 148 -72z" />
    <glyph glyph-name="zero.dnom" horiz-adv-x="407" 
d="M228 422q62 0 94 -41q31 -40 31 -115q0 -40 -9 -84q-9 -46 -28 -87q-20 -44 -58 -73q-38 -28 -89 -28q-63 0 -94 42q-33 42 -33 115q0 39 9 83q9 41 29 87q20 44 59 73q37 28 89 28zM222 380q-37 0 -65 -25q-28 -26 -41 -63q-11 -30 -20 -74q-6 -36 -6 -68
q0 -114 85 -114q38 0 64 25q28 26 41 63q11 32 20 75q6 36 6 67q0 62 -24 87q-24 27 -60 27z" />
    <glyph glyph-name="one.dnom" horiz-adv-x="346" 
d="M234 416l-65 -374h96l-7 -42h-250l7 42h108l58 332h-106l7 42h152z" />
    <glyph glyph-name="two.dnom" horiz-adv-x="363" 
d="M198 130l-108 -88h197l-8 -42h-285l2 12l177 149q94 78 94 141q0 34 -21 57q-22 21 -59 21q-43 0 -66 -30q-23 -32 -23 -72v-17h-46v19q0 56 36 99q34 43 101 43q57 0 91 -33t34 -84q0 -43 -27 -84q-29 -41 -89 -91z" />
    <glyph glyph-name="three.dnom" horiz-adv-x="351" 
d="M326 416l-2 -14l-136 -144q43 -9 72 -41q28 -31 28 -79q0 -57 -40 -100q-41 -44 -112 -44q-103 0 -139 96l37 20q33 -75 102 -75q50 0 78 31q27 30 27 70t-27 63q-26 22 -75 22h-28l3 14l129 139h-171l8 42h246z" />
    <glyph glyph-name="four.dnom" horiz-adv-x="349" 
d="M308 119l-7 -41h-60l-14 -78h-44l14 78h-209l2 14l188 324h51l-173 -297h148l24 140h44l-24 -140h60z" />
    <glyph glyph-name="five.dnom" horiz-adv-x="364" 
d="M309 374h-166l-20 -117q40 2 42 2q63 0 100 -31q36 -32 36 -88q0 -59 -41 -103q-40 -43 -111 -43q-105 0 -142 96l38 20q32 -74 104 -74q49 0 78 30q27 30 27 70q0 39 -25 61q-26 23 -74 23h-84l34 196h212z" />
    <glyph glyph-name="six.dnom" horiz-adv-x="373" 
d="M182 268q53 0 89 -37t36 -92q0 -61 -43 -103q-44 -42 -105 -42q-57 0 -94 37q-39 37 -39 96q0 8 2 24q2 11 6 23q4 11 9 19q3 7 12 21q10 15 13 18q1 1 2.5 3l3 4t4 5.5t5.5 7.5q12 15 15 18l121 146h58l-127 -153q17 5 32 5zM162 36q41 0 70 29q28 28 28 72q0 39 -24 65
q-24 25 -63 25q-42 0 -71 -29t-29 -72q0 -39 25 -64q26 -26 64 -26z" />
    <glyph glyph-name="seven.dnom" horiz-adv-x="320" 
d="M57 416h275l-3 -14l-278 -402h-53l260 374h-209z" />
    <glyph glyph-name="eight.dnom" horiz-adv-x="380" 
d="M232 214q79 -40 79 -101q0 -43 -36 -81q-36 -37 -108 -37q-62 0 -103 28q-41 29 -41 81q0 44 33 75q32 30 87 44q-62 36 -62 90q0 43 33 76q34 33 93 33q53 0 88 -25q35 -26 35 -73q0 -78 -98 -110zM207 385q-39 0 -61 -21t-22 -50q0 -24 16 -40q18 -18 50 -36
q97 27 97 81q0 28 -23 48q-22 18 -57 18zM165 33q52 0 76 25q24 26 24 55q0 28 -20 46q-19 17 -62 39q-114 -28 -114 -91q0 -34 25 -53q26 -21 71 -21z" />
    <glyph glyph-name="nine.dnom" horiz-adv-x="372" 
d="M201 422q55 0 95 -38q38 -38 38 -95q0 -27 -12 -55q-13 -28 -22 -41q-3 -4 -15.5 -19.5t-22.5 -27.5l-120 -146h-59l126 152q-16 -4 -31 -4q-52 0 -88 37q-36 38 -36 92q0 61 44 103t103 42zM187 189q42 0 71 29t29 71q0 40 -25 65q-26 26 -63 26q-40 0 -69 -29t-29 -72
q0 -39 24 -65q24 -25 62 -25z" />
    <glyph glyph-name="zero.numr" horiz-adv-x="407" 
d="M271 666q61 0 93 -41t32 -115q0 -40 -9 -84q-9 -41 -29 -87t-58 -73q-37 -28 -88 -28q-62 0 -95 42q-32 43 -32 115q0 40 9 83q9 41 29 87q20 44 59 73q37 28 89 28zM265 624q-37 0 -65 -25q-28 -26 -41 -63q-11 -30 -20 -74q-6 -36 -6 -68q0 -114 85 -114q38 0 64 25
q27 25 40 64q14 40 20 74q7 34 7 67q0 61 -24 88q-24 26 -60 26z" />
    <glyph glyph-name="one.numr" horiz-adv-x="346" 
d="M277 660l-65 -374h96l-7 -42h-250l7 42h108l58 332h-106l7 42h152z" />
    <glyph glyph-name="two.numr" horiz-adv-x="363" 
d="M241 374l-108 -88h197l-8 -42h-285l2 12l177 149q94 78 94 141q0 34 -21 57q-23 21 -59 21q-44 0 -66 -30q-23 -32 -23 -72v-17h-46v19q0 56 36 99q34 43 101 43q56 0 91 -33q34 -33 34 -84q0 -43 -27 -84q-29 -41 -89 -91z" />
    <glyph glyph-name="three.numr" horiz-adv-x="351" 
d="M369 660l-2 -14l-136 -144q43 -9 72 -41q28 -31 28 -79q0 -57 -40 -100q-41 -44 -112 -44q-103 0 -139 96l37 20q33 -75 102 -75q50 0 78 31q27 30 27 70t-27 63q-26 22 -75 22h-27h-1l3 14l130 139h-172l8 42h246z" />
    <glyph glyph-name="four.numr" horiz-adv-x="349" 
d="M351 363l-7 -41h-60l-14 -78h-44l13 78h-208l2 14l188 324h51l-174 -297h148l25 140h44l-24 -140h60z" />
    <glyph glyph-name="five.numr" horiz-adv-x="364" 
d="M352 618h-166l-20 -117q40 2 42 2q63 0 100 -31q36 -31 36 -88q0 -59 -41 -103q-40 -43 -111 -43q-104 0 -142 96l38 20q32 -74 104 -74q50 0 78 30q27 30 27 70q0 39 -25 61q-26 23 -74 23h-84l34 196h212z" />
    <glyph glyph-name="six.numr" horiz-adv-x="373" 
d="M226 512q53 0 89 -37t36 -92q0 -61 -43 -103q-44 -42 -105 -42q-55 0 -95 38q-38 38 -38 95q0 16 1 24q1 7 7 23q4 11 9 19q3 7 12 21q10 15 13 18q1 1 2.5 3l3 4t4 5.5t5.5 7.5q12 15 15 18l121 146h58l-127 -153q18 5 32 5zM206 280q41 0 70 29q28 28 28 72
q0 39 -24 65q-24 25 -63 25q-42 0 -71 -29t-29 -72q0 -39 25 -64q26 -26 64 -26z" />
    <glyph glyph-name="seven.numr" horiz-adv-x="320" 
d="M100 660h275l-3 -14l-278 -402h-53l261 374h-210z" />
    <glyph glyph-name="eight.numr" horiz-adv-x="380" 
d="M275 457q79 -39 79 -100q0 -43 -36 -81q-36 -37 -108 -37q-62 0 -102 28q-42 29 -42 81q0 44 33 75q31 31 87 43q-62 38 -62 91q0 43 34 76q33 33 92 33q53 0 88 -25q35 -26 35 -73q0 -78 -98 -111zM167 558q0 -24 16 -40q18 -18 50 -36q97 27 97 81q0 28 -23 48
q-23 18 -57 18q-38 0 -60 -21q-23 -21 -23 -50zM208 277q52 0 76 25q24 26 24 55q0 28 -20 46q-18 17 -61 39q-115 -28 -115 -91q0 -33 25 -54q26 -20 71 -20z" />
    <glyph glyph-name="nine.numr" horiz-adv-x="372" 
d="M244 666q57 0 95 -37q38 -38 38 -96q0 -27 -12 -55q-14 -29 -22 -40q-27 -34 -38 -48l-120 -146h-59l127 153q-18 -5 -32 -5q-52 0 -88 37t-36 92q0 61 44 103t103 42zM230 433q42 0 71 29t29 71q0 41 -25 66t-63 25q-40 0 -69 -29t-29 -72q0 -39 24 -64q24 -26 62 -26z
" />
    <glyph glyph-name="backslash.case" horiz-adv-x="572" 
d="M151 760l351 -860h-49l-352 860h50z" />
    <glyph glyph-name="periodcentered.case" horiz-adv-x="271" 
d="M155 407q22 0 36 -13q14 -14 14 -37q0 -21 -14 -35q-16 -14 -36 -14t-34 14t-14 35q0 22 14 36t34 14z" />
    <glyph glyph-name="bullet.case" horiz-adv-x="355" 
d="M190 427q47 0 82 -32q35 -33 35 -84t-35 -83q-35 -33 -82 -33q-48 0 -82 33q-35 32 -35 83t35 84q35 32 82 32z" />
    <glyph glyph-name="slash.case" horiz-adv-x="568" 
d="M651 760l-646 -860h-57l646 860h57z" />
    <glyph glyph-name="comma.subs" horiz-adv-x="211" 
d="M88 -48l-63 -198h-39l46 198h56z" />
    <glyph glyph-name="period.subs" horiz-adv-x="211" 
d="M48 -46q16 0 29 -11q12 -12 12 -31q0 -17 -12 -28q-13 -12 -29 -12t-29 11q-12 11 -12 29q0 20 12 30q12 12 29 12z" />
    <glyph glyph-name="comma.sups" horiz-adv-x="212" 
d="M173 436l-63 -198h-38l46 198h55z" />
    <glyph glyph-name="period.sups" horiz-adv-x="210" 
d="M133 438q15 0 29 -11q12 -12 12 -30q0 -19 -12 -29q-14 -12 -29 -12q-17 0 -29 12q-12 10 -12 29q0 18 12 30q13 11 29 11z" />
    <glyph glyph-name="braceleft.case" horiz-adv-x="395" 
d="M378 760h51l-8 -45h-46q-65 0 -89 -40q-24 -41 -24 -113v-108q0 -55 -17 -87q-16 -31 -61 -39q47 -11 47 -60q0 -34 -34 -124q-35 -93 -35 -130q0 -69 80 -69h45l-8 -45h-50q-50 0 -84 26q-33 27 -33 80q0 44 35 137q34 90 34 119q0 45 -57 45h-57l8 45h55q44 0 64 24
q19 22 19 78v111q0 195 165 195z" />
    <glyph glyph-name="braceright.case" horiz-adv-x="395" 
d="M303 353h57l-8 -46h-56q-45 0 -63 -23q-19 -23 -19 -78v-111q0 -195 -165 -195h-52l8 45h47q65 0 89 40q24 42 24 113v108q0 55 17 87q16 31 61 39q-47 11 -47 60q0 32 35 125q34 90 34 129q0 69 -80 69h-45l8 45h49q51 0 85 -26q33 -27 33 -80q0 -46 -34 -136
q-35 -93 -35 -120q0 -45 57 -45z" />
    <glyph glyph-name="bracketleft.case" horiz-adv-x="342" 
d="M376 760l-8 -45h-126l-135 -769h126l-8 -46h-176l151 860h176z" />
    <glyph glyph-name="bracketright.case" horiz-adv-x="342" 
d="M325 760l-151 -860h-176l8 45h127l135 769h-127l8 46h176z" />
    <glyph glyph-name="parenleft.case" horiz-adv-x="325" 
d="M370 761l15 -37q-122 -56 -183 -206q-63 -152 -63 -308q0 -192 107 -278l-26 -33q-131 95 -131 313q0 78 17 163q17 84 49 160q33 75 89 138q55 61 126 88z" />
    <glyph glyph-name="parenright.case" horiz-adv-x="325" 
d="M137 761q131 -95 131 -314q0 -110 -28 -216q-29 -110 -94 -203q-66 -94 -159 -129l-16 37q64 29 113 87q50 59 78 132q29 74 42 148q14 78 14 147q0 192 -107 278z" />
    <glyph glyph-name="emdash.case" horiz-adv-x="1001" 
d="M975 379l-8 -44h-900l8 44h900z" />
    <glyph glyph-name="endash.case" horiz-adv-x="500" 
d="M478 380l-8 -44h-406l8 44h406z" />
    <glyph glyph-name="uni2015.case" horiz-adv-x="1001" 
d="M975 379l-8 -44h-900l8 44h900z" />
    <glyph glyph-name="hyphen.case" horiz-adv-x="341" 
d="M308 379l-8 -44h-226l8 44h226z" />
    <glyph glyph-name="uni00AD.case" horiz-adv-x="341" 
d="M308 379l-8 -44h-226l8 44h226z" />
    <glyph glyph-name="guillemotleft.case" horiz-adv-x="460" 
d="M456 470l-172 -158l116 -157l-37 -27l-139 179l3 17l198 179zM286 470l-171 -158l116 -157l-38 -27l-139 179l3 17l198 179z" />
    <glyph glyph-name="guillemotright.case" horiz-adv-x="459" 
d="M293 503l138 -179l-3 -17l-198 -179l-31 33l172 158l-116 156zM261 324l-2 -17l-198 -179l-31 33l171 158l-116 156l38 28z" />
    <glyph glyph-name="guilsinglleft.case" horiz-adv-x="290" 
d="M286 470l-171 -158l116 -157l-38 -27l-139 179l3 17l198 179z" />
    <glyph glyph-name="guilsinglright.case" horiz-adv-x="290" 
d="M123 503l138 -179l-2 -17l-198 -179l-31 33l171 158l-116 156z" />
    <glyph glyph-name="cent.tf" 
d="M306 124q97 0 163 75l33 -31q-76 -90 -198 -90h-14l-30 -170h-51l31 178q-77 19 -126 82q-48 62 -48 146q0 108 77 185q75 75 184 80l30 172h51l-31 -175q104 -17 158 -105l-40 -26q-46 70 -126 85l-70 -406h7zM119 316q0 -66 36 -116q35 -50 94 -68l70 400
q-81 -4 -141 -67q-59 -62 -59 -149z" />
    <glyph glyph-name="currency.tf" 
d="M508 341q0 -92 -64 -157l89 -98l-32 -30l-91 99q-55 -40 -126 -40q-84 0 -142 54l-112 -109l-31 33l114 110q-36 52 -36 119q0 92 65 157l-82 94l32 30l84 -96q56 38 124 38q85 0 144 -56l116 109l32 -33l-119 -110q35 -52 35 -114zM128 324q0 -69 44 -116
q45 -47 112 -47q71 0 122 52q51 53 51 125q0 68 -45 114t-112 46q-72 0 -122 -50t-50 -124z" />
    <glyph glyph-name="dollar.tf" 
d="M471 503q-37 61 -95 78l-41 -232l18 -11q112 -64 112 -153q0 -64 -48 -113q-50 -50 -137 -50h-2l-20 -114h-51l21 119q-109 22 -168 136l42 24q49 -91 133 -112l44 248l-19 12q-51 31 -80 63q-30 33 -30 83q0 60 47 107q46 46 132 46h5l21 117h51l-22 -123
q81 -19 128 -99zM203 483q0 -37 22 -59q23 -23 64 -48l37 211q-60 0 -91 -30q-32 -32 -32 -74zM412 182q0 36 -21 62q-22 27 -65 52l-40 -226q58 2 93 33q33 33 33 79z" />
    <glyph glyph-name="Euro.tf" 
d="M440 623q-92 0 -156 -55q-65 -56 -96 -142h322l-20 -45h-316q-12 -51 -12 -101v-5h279l-21 -46h-254q12 -87 69 -140q57 -51 150 -51q57 0 107 21l6 -46q-57 -23 -118 -23q-113 0 -185 66q-70 66 -84 173h-104l8 46h93v2q0 50 12 104h-84l8 45h89q34 104 113 175
q80 69 192 69q92 0 163 -47l-19 -41q-67 41 -142 41z" />
    <glyph glyph-name="florin.tf" 
d="M490 670q36 0 74 -9l-7 -41q-42 5 -63 5q-97 0 -124 -91l-43 -140h135l-8 -46h-140l-107 -350q-41 -131 -169 -131q-34 0 -74 9l8 41q42 -5 64 -5q96 0 123 92l105 344h-109l8 46h114l45 146q39 130 168 130z" />
    <glyph glyph-name="sterling.tf" 
d="M358 670q32 0 62 -8q27 -7 57 -26q28 -18 48 -53q19 -33 25 -84l-50 -12q-9 65 -45 101q-37 35 -95 35q-72 0 -109 -45q-38 -46 -38 -103q0 -31 20 -94q15 -47 23 -82h162l-8 -46h-148v-12q0 -59 -26 -111q-27 -50 -77 -84h293l-8 -46h-412l3 15q175 82 175 223v7
q-1 3 -1 8h-122l8 46h107q-2 8 -16 57q-10 30 -19 66q-7 27 -7 57q0 76 53 134q53 57 145 57z" />
    <glyph glyph-name="yen.tf" 
d="M604 660l-272 -312h192l-8 -46h-199l-19 -108h200l-9 -46h-199l-26 -148h-52l26 148h-198l8 46h198l19 108h-198l8 46h192l-163 312h54l145 -280l241 280h60z" />
    <glyph glyph-name="section.case" horiz-adv-x="555" 
d="M421 391q91 -82 91 -153q0 -51 -37 -91q-37 -41 -108 -48q2 -22 2 -25q0 -56 -42 -98q-43 -40 -110 -40q-52 0 -92 26q-39 27 -60 67l37 27q43 -73 116 -73q43 0 70 26q28 25 28 64q0 47 -63 109l-89 84q-90 83 -90 152q0 51 38 92t107 48q-2 22 -2 25q0 58 43 98
q41 40 109 40q101 0 152 -93l-38 -28q-44 74 -115 74q-42 0 -70 -25q-29 -26 -29 -65q0 -48 64 -109zM352 138q47 4 78 31q29 26 29 66q0 49 -69 116l-95 90q-42 39 -62 78q-46 -4 -76 -31q-30 -26 -30 -66q0 -50 69 -116l94 -91q44 -41 62 -77z" />
    <glyph glyph-name="dieresis.case" horiz-adv-x="377" 
d="M174 850q17 0 31 -12q12 -12 12 -30t-12 -30q-13 -13 -31 -13t-31 13q-13 12 -13 30t13 30t31 12zM400 850q18 0 31 -12q12 -14 12 -31t-12 -30q-13 -12 -31 -12t-31 12q-13 13 -13 30q0 18 13 31q13 12 31 12z" />
    <glyph glyph-name="dieresis.i" horiz-adv-x="322" 
d="M150 712q18 0 31 -12q12 -14 12 -31t-12 -30q-13 -12 -31 -12t-31 12q-13 13 -13 30q0 18 13 31q14 12 31 12zM321 712q17 0 31 -12q13 -13 13 -31q0 -17 -13 -30q-14 -12 -31 -12t-30 12q-13 13 -13 30q0 18 13 31q13 12 30 12z" />
    <glyph glyph-name="otatonos" horiz-adv-x="122" 
d="M187 780l-2 -9l-56 -207h-42l38 216h62z" />
    </font>
</defs>
</svg>
