<?xml version="1.0" standalone="no"?>
<!DOCTYPE svg PUBLIC "-//W3C//DTD SVG 1.1//EN" "http://www.w3.org/Graphics/SVG/1.1/DTD/svg11.dtd" >
<svg xmlns="http://www.w3.org/2000/svg" xmlns:xlink="http://www.w3.org/1999/xlink" version="1.1">
<metadata>
Created by FontForge 20170731 at Mon Feb 13 22:24:03 2017
 By Aleksey,,,
Copyright (c) 2015 by Jakob Runge, under exclusive license to type me! fonts. All rights reserved.
</metadata>
<defs>
<font id="CeraGR-Regular" horiz-adv-x="560" >
  <font-face 
    font-family="Cera"
    font-weight="400"
    font-stretch="normal"
    units-per-em="1000"
    panose-1="0 0 5 0 0 0 0 0 0 0"
    ascent="799"
    descent="-201"
    x-height="487"
    cap-height="660"
    bbox="-138 -242 1303 901"
    underline-thickness="50"
    underline-position="-175"
    unicode-range="U+0020-F8FF"
  />
<missing-glyph horiz-adv-x="707" 
d="M91 660h525v-660h-525v660zM558 51v556h-411z" />
    <glyph glyph-name=".notdef" horiz-adv-x="707" 
d="M91 660h525v-660h-525v660zM558 51v556h-411z" />
    <glyph glyph-name=".null" horiz-adv-x="0" 
 />
    <glyph glyph-name="nonmarkingreturn" horiz-adv-x="333" 
 />
    <glyph glyph-name="space" unicode=" " horiz-adv-x="280" 
 />
    <glyph glyph-name="exclam" unicode="!" horiz-adv-x="305" 
d="M198 660l-14 -451h-64l-15 451h93zM152 115q27 0 45 -18t18 -45t-18 -45t-45 -18q-26 0 -44 18q-19 18 -19 45t19 45q18 18 44 18z" />
    <glyph glyph-name="quotedbl" unicode="&#x22;" horiz-adv-x="463" 
d="M198 660l-43 -257h-61l14 257h90zM381 660l-43 -257h-60l13 257h90z" />
    <glyph glyph-name="numbersign" unicode="#" horiz-adv-x="597" 
d="M568 401h-99l-19 -142h97v-66h-106l-26 -193h-65l26 193h-192l-26 -193h-65l26 193h-90v66h99l19 142h-96v66h104l26 193h67l-27 -193h191l26 193h67l-27 -193h90v-66zM193 259h192l19 142h-192z" />
    <glyph glyph-name="dollar" unicode="$" horiz-adv-x="536" 
d="M473 186q0 -67 -46 -110q-47 -44 -121 -53v-117h-77v118q-122 20 -189 137l56 40q54 -88 133 -106v223l-6 2q-64 27 -101 64q-38 38 -38 97t41 100q40 39 104 50v119h77v-117q99 -14 154 -107l-53 -41q-44 66 -101 76v-199l22 -9q70 -28 108 -68q37 -40 37 -99zM162 482
q0 -31 17 -51q15 -17 50 -35v163q-67 -16 -67 -77zM306 93q40 7 65 31q24 24 24 61q0 35 -22 56q-21 21 -67 43v-191z" />
    <glyph glyph-name="percent" unicode="%" horiz-adv-x="810" 
d="M214 671q69 0 116 -46q47 -47 47 -115q0 -67 -47 -114q-49 -47 -116 -47q-69 0 -116 47q-48 46 -48 114t48 115q46 46 116 46zM629 660l-378 -660h-69l378 660h69zM214 614q-42 0 -71 -29q-28 -29 -28 -75t28 -74q28 -30 71 -30q42 0 71 30q28 29 28 74t-28 74
q-29 30 -71 30zM596 312q69 0 116 -46q48 -47 48 -115q0 -67 -48 -114q-49 -47 -116 -47t-116 47q-47 47 -47 114q0 68 47 115q47 46 116 46zM597 255q-42 0 -71 -29q-28 -29 -28 -75q0 -45 28 -73q28 -30 71 -30q41 0 70 30q28 28 28 73q0 46 -28 75q-29 29 -70 29z" />
    <glyph glyph-name="ampersand" unicode="&#x26;" horiz-adv-x="625" 
d="M602 292q-93 -139 -111 -161l109 -131h-94l-63 75q-86 -86 -191 -86q-86 0 -144 48q-58 46 -58 124q0 60 38 107q38 45 111 99q-71 91 -71 159q0 64 40 104q39 41 107 41q65 0 105 -39t40 -97q0 -89 -118 -177l140 -168q28 38 96 144zM275 600q-71 0 -71 -74
q0 -49 56 -117q84 65 84 123q0 29 -17 49q-18 19 -52 19zM254 61q75 0 141 71l-151 182q-38 -28 -61 -48q-16 -13 -35 -43q-16 -26 -16 -55q0 -47 35 -77t87 -30z" />
    <glyph glyph-name="quotesingle" unicode="'" horiz-adv-x="280" 
d="M198 660l-43 -257h-61l14 257h90z" />
    <glyph glyph-name="parenleft" unicode="(" horiz-adv-x="333" 
d="M272 734l33 -53q-151 -97 -151 -380q0 -285 151 -379l-33 -53q-83 40 -139 146q-55 103 -55 286q0 184 55 288q56 105 139 145z" />
    <glyph glyph-name="parenright" unicode=")" horiz-adv-x="333" 
d="M62 734q39 -20 72 -51q32 -33 61 -82q27 -48 44 -127q16 -74 16 -173q0 -184 -55 -287q-56 -105 -138 -145l-34 53q152 95 152 379q0 281 -152 380z" />
    <glyph glyph-name="asterisk" unicode="*" horiz-adv-x="410" 
d="M364 644l-95 -64l95 -64l-25 -41l-102 50l-8 -114h-48l-9 114l-102 -50l-24 41l94 64l-94 64l24 42l102 -49l9 113h48l8 -113l102 49z" />
    <glyph glyph-name="plus" unicode="+" 
d="M503 281h-183v-193h-76v193h-188v68h188v190h76v-190h183v-68z" />
    <glyph glyph-name="comma" unicode="," horiz-adv-x="270" 
d="M189 90l-41 -269h-63l13 269h91z" />
    <glyph glyph-name="hyphen" unicode="-" horiz-adv-x="346" 
d="M292 347v-65h-239v65h239z" />
    <glyph glyph-name="period" unicode="." horiz-adv-x="270" 
d="M135 115q26 0 44 -18q19 -18 19 -45t-19 -45q-18 -18 -44 -18q-25 0 -45 18q-18 18 -18 45t18 45q20 18 45 18z" />
    <glyph glyph-name="slash" unicode="/" horiz-adv-x="628" 
d="M621 780l-523 -901h-91l523 901h91z" />
    <glyph glyph-name="zero" unicode="0" horiz-adv-x="663" 
d="M331 544q118 0 200 -81t82 -197t-82 -197q-83 -81 -201 -81q-117 0 -198 81q-82 81 -82 197t82 197q81 81 199 81zM331 473q-87 0 -144 -59q-57 -60 -57 -148t57 -148q57 -59 144 -59q86 0 145 59q57 60 57 148t-57 148q-59 59 -145 59z" />
    <glyph glyph-name="one" unicode="1" horiz-adv-x="492" 
d="M308 533v-465h141v-68h-371v68h152v394h-142v71h220z" />
    <glyph glyph-name="two" unicode="2" horiz-adv-x="553" 
d="M228 68h272v-68h-455v20l196 144q88 67 109 90q43 47 43 101q0 49 -32 84t-87 35q-56 0 -91 -36q-33 -34 -33 -83q0 -17 6 -52h-76q-8 30 -8 57q0 73 56 129q56 55 148 55q86 0 142 -51q55 -52 55 -133q0 -70 -42 -123q-43 -53 -123 -111z" />
    <glyph glyph-name="three" unicode="3" horiz-adv-x="518" 
d="M275 289q75 -7 133 -61q57 -53 57 -142q0 -98 -69 -159q-69 -60 -165 -60q-76 0 -134 38q-57 37 -90 98l55 40q69 -105 168 -105q68 0 112 41q43 40 43 107q0 63 -44 101q-45 36 -125 36h-60v23l168 216h-273v71h397v-23z" />
    <glyph glyph-name="four" unicode="4" horiz-adv-x="543" 
d="M527 68v-68h-97v-121h-77v121h-331v23l213 510h81l-196 -465h233v222h77v-222h97z" />
    <glyph glyph-name="five" unicode="5" horiz-adv-x="542" 
d="M263 291q95 0 160 -53t65 -151t-68 -160q-69 -60 -165 -60q-78 0 -137 38q-57 37 -91 98l54 40q67 -105 173 -105q68 0 111 42q43 40 43 107q0 65 -44 101q-44 35 -124 35h-150v310h342v-71h-265v-179q51 8 96 8z" />
    <glyph glyph-name="six" unicode="6" horiz-adv-x="551" 
d="M285 427q88 0 152 -62q63 -63 63 -154q0 -93 -65 -158q-65 -64 -160 -64t-159 64q-66 65 -66 159q0 8 2 24q1 8 3 22q1 10 6 22q1 4 3.5 10.5t3.5 9.5q2 8 9 21q5 9 10 19q2 3 13 21q4 5 8 11.5t4 7.5q4 4 15 21q3 5 6 9.5t5.5 7.5t2.5 4l164 238h93l-168 -242q24 9 55 9
zM275 60q62 0 106 44q42 43 42 107q0 63 -42 107q-43 43 -106 43t-105 -43q-43 -43 -43 -107t43 -107q42 -44 105 -44z" />
    <glyph glyph-name="seven" unicode="7" horiz-adv-x="501" 
d="M35 533h441v-23l-332 -631h-84l309 583h-334v71z" />
    <glyph glyph-name="eight" unicode="8" horiz-adv-x="578" 
d="M364 345q156 -57 156 -177q0 -80 -63 -129q-65 -50 -168 -50q-104 0 -169 50q-64 49 -64 130q0 119 156 176q-125 59 -125 162q0 78 58 121q56 43 144 43q85 0 143 -43q57 -44 57 -121q0 -106 -125 -162zM164 504q0 -44 31 -69q29 -26 93 -52q63 26 94 52q30 27 30 69
q0 47 -34 74q-35 26 -89 26q-55 0 -90 -26q-35 -27 -35 -74zM289 56q72 0 113 32q39 32 39 83q0 52 -38 82q-42 31 -115 55q-72 -25 -114 -55q-39 -30 -39 -82q0 -51 41 -83t113 -32z" />
    <glyph glyph-name="nine" unicode="9" horiz-adv-x="551" 
d="M276 544q94 0 159 -63q65 -65 65 -159q0 -36 -14 -75q-15 -41 -28 -61q-8 -14 -49 -74l-161 -233h-91l165 237q-26 -9 -57 -9q-87 0 -152 63q-63 61 -63 152q0 94 66 159q64 63 160 63zM275 172q63 0 105 44q43 43 43 107q0 65 -42 108t-106 43q-62 0 -105 -43t-43 -108
q0 -64 43 -107q44 -44 105 -44z" />
    <glyph glyph-name="colon" unicode=":" horiz-adv-x="270" 
d="M135 492q26 0 44 -18q19 -18 19 -45q0 -29 -19 -45q-18 -18 -44 -18q-25 0 -45 18q-18 16 -18 45q0 27 18 45q20 18 45 18zM135 115q26 0 44 -18q19 -18 19 -45t-19 -45q-18 -18 -44 -18q-25 0 -45 18q-18 18 -18 45t18 45q20 18 45 18z" />
    <glyph glyph-name="semicolon" unicode=";" horiz-adv-x="270" 
d="M135 492q26 0 44 -18q19 -18 19 -45q0 -29 -19 -45q-18 -18 -44 -18q-25 0 -45 18q-18 16 -18 45q0 27 18 45q20 18 45 18zM189 90l-41 -269h-63l13 269h91z" />
    <glyph glyph-name="less" unicode="&#x3c;" 
d="M490 514v-72l-302 -127l302 -126v-73l-438 187v24z" />
    <glyph glyph-name="equal" unicode="=" 
d="M494 453v-69h-428v69h428zM494 245v-68h-428v68h428z" />
    <glyph glyph-name="greater" unicode="&#x3e;" 
d="M70 514l439 -187v-24l-439 -187v73l302 126l-302 127v72z" />
    <glyph glyph-name="question" unicode="?" horiz-adv-x="445" 
d="M224 671q73 0 125 -47q51 -48 51 -120q0 -45 -23 -82q-22 -35 -72 -80q-36 -34 -39 -37q-10 -10 -22 -29q-10 -17 -10 -35q0 -7 5 -32h-67q-10 19 -10 44t13 47q11 20 26 37q12 13 41 39q45 42 61 65q17 25 17 58q0 45 -28 73t-70 28q-82 0 -112 -96l-65 27q19 65 67 104
q47 36 112 36zM210 115q26 0 46 -18q18 -18 18 -45t-18 -45q-20 -18 -46 -18q-25 0 -44 18t-19 45t19 45t44 18z" />
    <glyph glyph-name="at" unicode="@" horiz-adv-x="922" 
d="M473 657q171 0 286 -108t115 -263q0 -116 -71 -184q-71 -66 -185 -66h-24v65q-23 -37 -63 -56q-42 -20 -89 -20q-87 0 -142 61q-57 62 -57 152t57 152q56 60 143 60q95 0 145 -66v58h72v-339q66 6 105 53t39 130q0 131 -92 218t-237 87q-154 0 -254 -97
q-101 -98 -101 -247t101 -247t248 -98q70 0 130 22l14 -60q-69 -27 -151 -27q-174 0 -294 117q-120 118 -120 292q0 176 123 294q123 117 302 117zM455 96q53 0 91 37q38 36 38 106q0 68 -38 106q-38 36 -91 36q-58 0 -95 -40q-38 -41 -38 -103q0 -61 38 -102q37 -40 95 -40
z" />
    <glyph glyph-name="A" unicode="A" horiz-adv-x="663" 
d="M549 0l-57 134h-322l-57 -134h-82l286 671h29l286 -671h-83zM463 204l-132 324l-132 -324h264z" />
    <glyph glyph-name="B" unicode="B" horiz-adv-x="616" 
d="M442 363q62 -18 96 -64t34 -109q0 -84 -56 -137q-58 -53 -153 -53h-272v660h227q85 0 137 -47q51 -47 51 -120q0 -84 -64 -130zM310 590h-141v-205h141q57 0 86 28q30 29 30 75t-30 75q-30 27 -86 27zM355 70q65 0 101 33q36 35 36 89t-36 89q-36 33 -101 33h-186v-244
h186z" />
    <glyph glyph-name="C" unicode="C" horiz-adv-x="715" 
d="M391 671q87 0 160 -38q71 -39 114 -104l-58 -46q-80 116 -215 116q-112 0 -187 -77q-76 -76 -76 -192t76 -192q75 -77 187 -77q135 0 215 116l58 -46q-41 -66 -113 -103q-74 -39 -161 -39q-144 0 -243 99q-100 97 -100 242q0 144 100 243q100 98 243 98z" />
    <glyph glyph-name="D" unicode="D" horiz-adv-x="694" 
d="M287 660q165 0 262 -91t97 -238q0 -145 -97 -238t-262 -93h-196v660h196zM286 590h-117v-520h117q128 0 204 74q75 74 75 187q0 116 -74 188q-76 71 -205 71z" />
    <glyph glyph-name="E" unicode="E" horiz-adv-x="566" 
d="M514 660v-70h-345v-202h264v-70h-264v-248h357v-70h-435v660h423z" />
    <glyph glyph-name="F" unicode="F" horiz-adv-x="524" 
d="M504 660v-70h-335v-227h278v-71h-278v-292h-78v660h413z" />
    <glyph glyph-name="G" unicode="G" horiz-adv-x="746" 
d="M391 671q84 0 153 -36q69 -34 116 -99l-59 -46q-79 109 -210 109q-115 0 -188 -76q-74 -77 -74 -192q0 -117 76 -194q75 -78 190 -78q71 0 129 32q56 31 91 86v89h-225v70h303v-176q-43 -76 -124 -124q-82 -47 -178 -47q-145 0 -244 99q-99 98 -99 242t100 243
q100 98 243 98z" />
    <glyph glyph-name="H" unicode="H" horiz-adv-x="708" 
d="M617 660v-660h-78v318h-370v-318h-78v660h78v-272h370v272h78z" />
    <glyph glyph-name="I" unicode="I" horiz-adv-x="259" 
d="M169 660v-660h-78v660h78z" />
    <glyph glyph-name="J" unicode="J" horiz-adv-x="373" 
d="M283 660v-507q0 -83 -46 -123q-47 -41 -126 -41q-37 0 -87 11v67q40 -6 72 -6q53 0 81 22q28 21 28 77v500h78z" />
    <glyph glyph-name="K" unicode="K" horiz-adv-x="633" 
d="M91 0v660h78v-660h-78zM279 354l323 -354h-99l-325 354l297 306h100z" />
    <glyph glyph-name="L" unicode="L" horiz-adv-x="506" 
d="M169 660v-590h313v-70h-391v660h78z" />
    <glyph glyph-name="M" unicode="M" horiz-adv-x="789" 
d="M671 671h27v-671h-78v474l-211 -287h-28l-212 288v-475h-78v671h28l275 -382z" />
    <glyph glyph-name="N" unicode="N" horiz-adv-x="708" 
d="M539 660h78v-671h-28l-420 507v-496h-78v671h28l420 -508v497z" />
    <glyph glyph-name="O" unicode="O" horiz-adv-x="781" 
d="M390 671q142 0 243 -98q100 -99 100 -243q0 -145 -100 -242q-101 -99 -243 -99q-144 0 -243 99q-99 98 -99 242t100 243q100 98 242 98zM391 599q-113 0 -188 -76q-74 -77 -74 -192q0 -116 74 -193q75 -77 188 -77q112 0 186 77q75 76 75 193q0 115 -75 191
q-74 77 -186 77z" />
    <glyph glyph-name="P" unicode="P" horiz-adv-x="573" 
d="M323 660q95 0 154 -53q57 -54 57 -138q0 -85 -57 -139q-59 -54 -154 -54h-154v-276h-78v660h232zM321 590h-152v-244h152q64 0 98 34q34 33 34 88q0 54 -34 88t-98 34z" />
    <glyph glyph-name="Q" unicode="Q" horiz-adv-x="781" 
d="M944 -136q34 0 96 5v-62q-53 -10 -106 -10q-260 0 -414 217q-60 -25 -130 -25q-143 0 -243 98q-99 99 -99 243q0 145 100 242q99 99 242 99q142 0 243 -99q100 -97 100 -242q0 -89 -40 -162q-41 -74 -109 -120q139 -184 360 -184zM129 331q0 -117 75 -193q75 -77 187 -77
t187 77q74 77 74 192t-74 192q-75 77 -188 77q-112 0 -186 -77q-75 -76 -75 -191z" />
    <glyph glyph-name="R" unicode="R" horiz-adv-x="622" 
d="M606 0h-91l-205 277h-141v-277h-78v660h232q95 0 154 -53q57 -54 57 -138q0 -68 -37 -115q-37 -49 -101 -68zM169 590v-243h151q64 0 99 33q34 33 34 88q0 53 -35 88q-34 34 -98 34h-151z" />
    <glyph glyph-name="S" unicode="S" horiz-adv-x="558" 
d="M282 671q66 0 121 -31q55 -32 86 -81l-57 -43q-56 83 -151 83q-49 0 -83 -25t-34 -71q0 -23 7 -38q8 -17 25 -30q14 -12 31 -21q20 -11 43 -22l73 -35q80 -38 116 -79q38 -43 38 -105q0 -82 -60 -133t-153 -51q-76 0 -140 38q-63 37 -103 104l58 43q74 -113 184 -113
q59 0 96 30t37 80q0 43 -25 65q-24 21 -85 51l-74 35q-70 35 -110 74q-39 40 -39 103q0 77 58 125q59 47 141 47z" />
    <glyph glyph-name="T" unicode="T" horiz-adv-x="581" 
d="M562 660v-70h-233v-590h-78v590h-232v70h543z" />
    <glyph glyph-name="U" unicode="U" horiz-adv-x="689" 
d="M606 660v-398q0 -128 -73 -200q-73 -73 -188 -73q-117 0 -190 72t-73 201v398h78v-403q0 -97 52 -146q52 -50 133 -50q80 0 132 50q51 50 51 146v403h78z" />
    <glyph glyph-name="V" unicode="V" horiz-adv-x="663" 
d="M546 660h86l-286 -671h-29l-286 671h86l215 -516z" />
    <glyph glyph-name="W" unicode="W" horiz-adv-x="1066" 
d="M935 660h85l-250 -671h-28l-209 524l-209 -524h-28l-251 671h86l182 -503l206 514h28l206 -514z" />
    <glyph glyph-name="X" unicode="X" horiz-adv-x="599" 
d="M569 0h-91l-178 272l-179 -272h-91l227 338l-211 322h90l165 -257l162 257h90l-208 -323z" />
    <glyph glyph-name="Y" unicode="Y" horiz-adv-x="616" 
d="M576 660l-229 -386v-274h-78v274l-229 386h88l180 -310l181 310h87z" />
    <glyph glyph-name="Z" unicode="Z" horiz-adv-x="589" 
d="M154 70h401v-70h-523v23l399 567h-356v70h479v-23z" />
    <glyph glyph-name="bracketleft" unicode="[" horiz-adv-x="343" 
d="M292 729v-68h-116v-722h116v-70h-191v860h191z" />
    <glyph glyph-name="backslash" unicode="\" horiz-adv-x="628" 
d="M7 780h91l523 -901h-91z" />
    <glyph glyph-name="bracketright" unicode="]" horiz-adv-x="343" 
d="M241 729v-860h-191v70h117v722h-117v68h191z" />
    <glyph glyph-name="asciicircum" unicode="^" horiz-adv-x="512" 
d="M452 284h-80l-116 247l-116 -247h-80l182 386h28z" />
    <glyph glyph-name="underscore" unicode="_" horiz-adv-x="506" 
d="M462 -75v-65h-419v65h419z" />
    <glyph glyph-name="a" unicode="a" horiz-adv-x="528" 
d="M260 498q86 0 138 -51t52 -147v-300h-72v63q-56 -74 -164 -74q-76 0 -122 37q-48 38 -48 100t48 99q47 37 127 37h154v42q0 61 -31 92t-87 31q-82 0 -142 -78l-51 42q68 107 198 107zM224 53q62 0 105 39q44 39 44 95v12h-145q-105 0 -105 -69q0 -37 29 -57t72 -20z" />
    <glyph glyph-name="b" unicode="b" horiz-adv-x="632" 
d="M341 498q104 0 173 -73q68 -74 68 -182q0 -107 -68 -181q-67 -73 -172 -73q-58 0 -107 24q-49 22 -78 65v-78h-72v750h77v-335q28 38 77 61q45 22 102 22zM330 60q75 0 124 52t49 132q0 79 -49 131t-124 52q-69 0 -119 -47t-50 -137q0 -89 50 -136t119 -47z" />
    <glyph glyph-name="c" unicode="c" horiz-adv-x="551" 
d="M305 498q131 0 201 -106l-55 -44q-58 79 -145 79q-76 0 -127 -53q-50 -53 -50 -130q0 -78 50 -131q51 -53 127 -53q86 0 144 78l55 -43q-70 -106 -200 -106q-107 0 -181 74t-74 181q0 106 74 180t181 74z" />
    <glyph glyph-name="d" unicode="d" horiz-adv-x="632" 
d="M471 750h77v-750h-73v78q-29 -43 -77 -65q-50 -24 -107 -24q-105 0 -172 73q-69 74 -69 181q0 109 69 182q67 73 172 73q56 0 103 -22q49 -23 77 -61v335zM302 60q70 0 120 47t50 136q0 90 -50 137t-120 47q-74 0 -123 -52q-50 -53 -50 -131q0 -80 49 -132t124 -52z" />
    <glyph glyph-name="e" unicode="e" horiz-adv-x="571" 
d="M521 278q0 -31 -6 -58h-384q8 -73 57 -116q50 -44 121 -44q83 0 149 66l45 -52q-79 -85 -195 -85q-111 0 -184 73q-74 74 -74 181t72 181t177 74q94 0 159 -62q63 -62 63 -158zM297 428q-60 0 -106 -38q-45 -39 -57 -102h308q-2 66 -42 103q-41 37 -103 37z" />
    <glyph glyph-name="f" unicode="f" horiz-adv-x="303" 
d="M276 691q-50 0 -75 -21q-27 -20 -27 -72v-111h122v-69h-122v-418h-77v418h-70v69h70v116q0 80 44 119q43 39 117 39q31 0 61 -8v-65q-24 3 -43 3z" />
    <glyph glyph-name="g" unicode="g" horiz-adv-x="637" 
d="M480 487h73v-440q0 -111 -64 -175q-65 -63 -173 -63q-135 0 -229 94l45 54q89 -77 182 -77q76 0 119 42t43 121v43q-30 -38 -78 -60q-48 -21 -103 -21q-104 0 -171 70q-68 71 -68 176q0 106 68 177q67 70 171 70q59 0 108 -24q48 -23 77 -66v79zM307 76q70 0 120 44
q50 45 50 131t-50 130t-120 44q-75 0 -124 -49t-49 -126t49 -126q50 -48 124 -48z" />
    <glyph glyph-name="h" unicode="h" horiz-adv-x="566" 
d="M308 498q84 0 132 -53q48 -52 48 -139v-306h-77v296q0 58 -32 95q-33 36 -89 36t-92 -37q-36 -38 -36 -94v-296h-77v750h77v-318q52 66 146 66z" />
    <glyph glyph-name="i" unicode="i" horiz-adv-x="246" 
d="M124 729q24 0 40 -16q17 -17 17 -40q0 -24 -16 -40t-41 -16t-41 16q-17 17 -17 40t17 40q16 16 41 16zM162 487v-487h-77v487h77z" />
    <glyph glyph-name="j" unicode="j" horiz-adv-x="246" 
d="M124 729q24 0 40 -16q17 -17 17 -40q0 -24 -16 -40t-41 -16t-41 16q-17 17 -17 40t17 40q16 16 41 16zM162 487v-520q0 -80 -43 -119t-117 -39q-32 0 -62 8v65q26 -3 45 -3q100 0 100 93v515h77z" />
    <glyph glyph-name="k" unicode="k" horiz-adv-x="506" 
d="M85 0v750h77v-750h-77zM263 273l230 -273h-99l-224 274l203 213h101z" />
    <glyph glyph-name="l" unicode="l" horiz-adv-x="246" 
d="M162 750v-750h-77v750h77z" />
    <glyph glyph-name="m" unicode="m" horiz-adv-x="874" 
d="M619 498q85 0 131 -52t46 -140v-306h-77v296q0 59 -30 95q-31 36 -85 36q-56 0 -90 -36q-35 -37 -35 -88v-303h-77v296q0 60 -31 95q-31 36 -85 36t-89 -36q-35 -38 -35 -95v-296h-77v487h72v-51q54 62 145 62q106 0 150 -84q58 84 167 84z" />
    <glyph glyph-name="n" unicode="n" horiz-adv-x="566" 
d="M307 498q85 0 133 -53q48 -52 48 -139v-306h-77v297q0 57 -32 94q-33 36 -89 36t-92 -36q-36 -37 -36 -94v-297h-77v487h72v-53q54 64 150 64z" />
    <glyph glyph-name="o" unicode="o" horiz-adv-x="610" 
d="M305 498q107 0 180 -73q75 -73 75 -181q0 -106 -74 -180q-76 -74 -182 -74q-108 2 -180 74q-74 74 -74 180q0 107 74 181q73 73 181 73zM305 427q-76 0 -127 -53q-50 -54 -49 -131q0 -77 50 -130q49 -52 125 -52q75 0 126 53q51 52 51 129q0 79 -51 132q-49 52 -125 52z
" />
    <glyph glyph-name="p" unicode="p" horiz-adv-x="632" 
d="M341 498q104 0 173 -73q68 -74 68 -181q0 -108 -68 -182q-69 -73 -173 -73q-55 0 -102 22q-49 21 -77 60v-251h-77v667h72v-78q29 43 77 66q51 23 107 23zM330 60q75 0 124 52t49 131q0 80 -49 132t-124 52q-70 0 -119 -46q-50 -47 -50 -137t50 -137t119 -47z" />
    <glyph glyph-name="q" unicode="q" horiz-adv-x="632" 
d="M475 487h73v-667h-77v251q-29 -38 -78 -61q-48 -21 -102 -21q-105 0 -172 73q-69 74 -69 182t69 181q67 73 172 73q57 0 107 -24q48 -24 77 -65v78zM302 60q70 0 120 47t50 137t-50 137q-49 46 -120 46q-75 0 -124 -52t-49 -132q0 -78 50 -131q49 -52 123 -52z" />
    <glyph glyph-name="r" unicode="r" horiz-adv-x="362" 
d="M308 491q19 0 36 -4v-68h-29q-62 0 -108 -38q-45 -37 -45 -105v-276h-77v487h72v-70q56 74 151 74z" />
    <glyph glyph-name="s" unicode="s" horiz-adv-x="454" 
d="M232 498q101 0 163 -77l-47 -48q-52 54 -120 54q-37 0 -59 -16t-22 -45q0 -24 18 -38q18 -15 61 -33l45 -19q67 -28 98 -61q31 -32 31 -83q0 -67 -50 -105t-121 -38q-119 0 -190 95l49 51q70 -75 140 -75q41 0 67 19q26 18 26 50q0 28 -20 45q-19 15 -65 33l-47 20
q-60 25 -91 56q-30 30 -30 79q0 64 47 100t117 36z" />
    <glyph glyph-name="t" unicode="t" horiz-adv-x="381" 
d="M286 59q28 0 65 6v-65q-49 -11 -81 -11q-76 0 -120 39t-44 119v271h-82v69h82v133h77v-133h152v-69h-152v-266q0 -52 27 -72q26 -21 76 -21z" />
    <glyph glyph-name="u" unicode="u" 
d="M482 487v-293q0 -92 -57 -148q-59 -57 -144 -57q-87 0 -144 57q-58 55 -58 148v293h76v-298q0 -59 36 -94q37 -35 90 -35q52 0 89 35q35 37 35 94v298h77z" />
    <glyph glyph-name="v" unicode="v" horiz-adv-x="539" 
d="M431 487h82l-229 -498h-28l-230 498h82l162 -367z" />
    <glyph glyph-name="w" unicode="w" horiz-adv-x="851" 
d="M742 487h82l-205 -498h-28l-166 368l-165 -368h-27l-207 498h82l140 -360l163 371h29l164 -369z" />
    <glyph glyph-name="x" unicode="x" horiz-adv-x="497" 
d="M476 0h-89l-139 197l-138 -197h-90l184 254l-169 233h89l124 -177l125 177h89l-171 -233z" />
    <glyph glyph-name="y" unicode="y" horiz-adv-x="539" 
d="M431 487h82l-240 -555q-54 -123 -165 -123q-39 0 -75 10v65q42 -5 59 -5q38 0 64 17q26 16 46 61l26 59l-202 471h83l161 -388z" />
    <glyph glyph-name="z" unicode="z" horiz-adv-x="454" 
d="M145 68h282v-68h-400v23l278 395h-255v69h374v-23z" />
    <glyph glyph-name="braceleft" unicode="{" horiz-adv-x="397" 
d="M297 661q-78 0 -78 -84q0 -29 13 -97q12 -70 12 -96q0 -61 -53 -85q53 -24 53 -85q0 -26 -12 -95q-13 -68 -13 -98q0 -84 78 -84h49v-68h-63q-138 0 -138 133q0 39 13 111t13 94q0 58 -61 58h-57v68h57q61 0 61 58q0 22 -13 94t-13 111q0 133 138 133h63v-68h-49z" />
    <glyph glyph-name="bar" unicode="|" horiz-adv-x="332" 
d="M199 780v-901h-66v901h66z" />
    <glyph glyph-name="braceright" unicode="}" horiz-adv-x="397" 
d="M287 333h57v-68h-57q-61 0 -61 -58q0 -22 13 -94q12 -75 12 -111q0 -133 -137 -133h-64v68h50q78 0 78 84q0 28 -12 97q-13 68 -13 96q0 61 53 85q-53 24 -53 85q0 28 13 96q12 70 12 97q0 84 -78 84h-50v68h64q137 0 137 -133q0 -36 -12 -111q-13 -72 -13 -94
q0 -58 61 -58z" />
    <glyph glyph-name="asciitilde" unicode="~" 
d="M156 403q40 0 84 -27l94 -57q44 -25 62 -25t28 13q10 11 10 31v19h63q2 -10 2 -27q0 -44 -26 -75q-27 -31 -71 -31q-39 0 -83 26l-94 57q-43 26 -61 26t-28 -12q-11 -14 -11 -33v-19h-63v11q-1 7 -1 16q0 44 26 76q25 31 69 31z" />
    <glyph glyph-name="cent" unicode="&#xa2;" horiz-adv-x="554" 
d="M317 146q71 11 120 77l53 -44q-28 -43 -74 -72q-46 -28 -99 -32v-169h-77v172q-89 17 -146 87q-58 70 -58 163q0 94 58 162q57 70 146 87v173h77v-169q113 -12 174 -105l-53 -43q-49 65 -121 76v-363zM115 328q0 -62 35 -111t90 -65v351q-55 -16 -90 -65
q-35 -47 -35 -110z" />
    <glyph glyph-name="sterling" unicode="&#xa3;" horiz-adv-x="529" 
d="M268 212q0 -86 -60 -144h276v-68h-427v20q133 82 133 191l-3 33h-120v68h96q-11 22 -21 41q-8 15 -22 46q-7 16 -15 44q-8 29 -8 53q0 78 54 127q54 48 137 48q76 0 129 -42q53 -44 75 -121l-69 -26q-37 117 -131 117q-54 0 -84 -33q-31 -32 -31 -82q0 -29 10 -55
q11 -29 30 -63q19 -36 27 -54h160v-68h-139q3 -16 3 -32z" />
    <glyph glyph-name="currency" unicode="&#xa4;" horiz-adv-x="643" 
d="M554 330q0 -76 -48 -138l110 -110l-46 -46l-112 111q-61 -43 -138 -43q-74 0 -135 43l-111 -111l-47 46l110 111q-47 59 -47 137t47 139l-110 110l47 46l111 -111q59 42 136 42q75 0 136 -42l112 111l47 -46l-110 -110q48 -62 48 -139zM320 175q65 0 111 44q44 46 44 110
q0 66 -44 112q-45 45 -110 45t-109 -45q-43 -44 -43 -112q0 -67 43 -110q44 -44 108 -44z" />
    <glyph glyph-name="yen" unicode="&#xa5;" horiz-adv-x="552" 
d="M544 660l-211 -300h178v-68h-195v-92h195v-69h-195v-131h-78v131h-194v69h194v92h-194v68h176l-211 300h88l180 -259l180 259h87z" />
    <glyph glyph-name="brokenbar" unicode="&#xa6;" horiz-adv-x="332" 
d="M199 780v-300h-66v300h66zM199 179v-300h-66v300h66z" />
    <glyph glyph-name="section" unicode="&#xa7;" horiz-adv-x="579" 
d="M543 164q0 -48 -33 -83q-32 -33 -91 -44v-13q0 -62 -43 -102q-44 -41 -118 -41q-103 0 -170 88l57 47q54 -63 117 -63q35 0 57 17q21 18 21 51q0 12 -1 17q-1 7 -5 16q-1 2 -2.5 4.5t-2.5 5.5t-2 4q-4 8 -10 14q-7 7 -11 13q-1 1 -3 3.5t-5 5t-6 5.5q-7 5 -14 12
q-4 3 -17 14q-11 10 -16 13l-106 87q-51 41 -79 79q-25 34 -25 78q0 48 33 83q32 32 92 43v7q-1 3 -1 7q0 60 44 101t118 41q103 0 170 -88l-57 -46q-56 63 -117 63q-36 0 -57 -18q-22 -18 -22 -50q0 -7 2 -19q2 -7 6 -17q1 -5 10 -16q10 -14 11 -15q3 -4 15 -16
q4 -4 9.5 -8.5t6.5 -5.5q4 -4 18 -15t18 -15l105 -88q53 -43 79 -78q25 -34 25 -78zM399 98q34 10 49 25q17 15 17 42q0 23 -15 42q-14 17 -62 57l-106 88q-78 63 -102 105q-66 -17 -66 -67q0 -23 15 -41q13 -17 62 -58l105 -87q79 -64 103 -106z" />
    <glyph glyph-name="dieresis" unicode="&#xa8;" horiz-adv-x="381" 
d="M85 727q23 0 39 -15q16 -16 16 -39q0 -22 -16 -37q-16 -16 -39 -16q-22 0 -38 16q-17 17 -17 37q0 21 17 38q16 16 38 16zM297 727q23 0 39 -15q16 -16 16 -39q0 -22 -16 -37q-16 -16 -39 -16q-22 0 -38 16q-17 17 -17 37q0 21 17 38q16 16 38 16z" />
    <glyph glyph-name="copyright" unicode="&#xa9;" horiz-adv-x="781" 
d="M390 671q141 0 242 -98q101 -99 101 -243t-101 -242q-100 -99 -242 -99q-140 0 -241 99q-101 98 -101 242t101 243q101 98 241 98zM390 616q-118 0 -200 -81t-82 -205t82 -205t200 -81t200 82q83 81 83 204t-82 205q-83 81 -201 81zM401 522q93 0 151 -78l-49 -42
q-42 55 -101 55q-52 0 -86 -36q-35 -38 -35 -91q0 -52 35 -89q34 -37 85 -37q61 0 102 54l49 -42q-59 -77 -152 -77q-81 0 -136 55t-55 136q0 82 55 137t137 55z" />
    <glyph glyph-name="guillemotleft" unicode="&#xab;" horiz-adv-x="504" 
d="M414 471l50 -45l-141 -155l141 -157l-50 -43l-178 188v23zM216 471l50 -45l-141 -155l141 -157l-50 -43l-178 188v23z" />
    <glyph glyph-name="logicalnot" unicode="&#xac;" 
d="M473 349v-253h-77v185h-341v68h418z" />
    <glyph glyph-name="uni00AD" unicode="&#xad;" horiz-adv-x="346" 
d="M292 347v-65h-239v65h239z" />
    <glyph glyph-name="registered" unicode="&#xae;" horiz-adv-x="570" 
d="M286 683q100 0 171 -72q70 -73 70 -176q0 -102 -70 -175q-71 -72 -171 -72t-172 72q-71 74 -71 175q0 102 71 176q72 72 172 72zM286 238q80 0 135 57q56 58 56 141q0 82 -56 140q-55 57 -135 57t-135 -57q-56 -58 -56 -140t56 -140q55 -58 135 -58zM382 477
q0 -47 -41 -70l70 -97h-65l-64 84h-35v-84h-58v251h101q40 0 66 -23t26 -61zM247 444h42q15 0 25 9q9 9 9 23t-9 25q-10 9 -25 9h-42v-66z" />
    <glyph glyph-name="degree" unicode="&#xb0;" horiz-adv-x="360" 
d="M180 671q63 0 106 -43t43 -104t-43 -104t-106 -43q-62 0 -105 43q-44 44 -44 104t44 104q43 43 105 43zM180 610q-35 0 -59 -25q-25 -25 -25 -61t25 -61q24 -25 59 -25q36 0 61 25q24 25 24 61t-24 61q-25 25 -61 25z" />
    <glyph glyph-name="plusminus" unicode="&#xb1;" 
d="M319 536v-158h175v-68h-175v-160h-77v160h-176v68h176v158h77zM494 68v-68h-428v68h428z" />
    <glyph glyph-name="uni00B2" unicode="&#xb2;" horiz-adv-x="369" 
d="M154 424h175v-60h-294v15l148 159q30 33 49 62q15 26 15 53q0 32 -19 52q-19 21 -50 21q-32 0 -51 -21q-20 -22 -20 -55l2 -32h-65q-4 15 -4 36q0 52 38 93q37 40 100 40q59 0 98 -36q38 -38 38 -93q0 -43 -22 -77q-26 -39 -67 -82z" />
    <glyph glyph-name="uni00B3" unicode="&#xb3;" horiz-adv-x="354" 
d="M205 626q43 -9 77 -41q32 -34 32 -87q0 -63 -43 -102t-107 -39q-98 0 -145 90l46 33q38 -62 97 -62q38 0 61 22q23 23 23 58q0 34 -24 54q-25 19 -71 19h-41v18l97 131h-159v60h257v-19z" />
    <glyph glyph-name="uni00B5" unicode="&#xb5;" horiz-adv-x="592" 
d="M542 62q10 0 29 3v-65q-28 -7 -52 -7q-70 0 -94 59q-48 -63 -134 -63q-83 0 -129 58v-227h-77v667h77v-291q0 -60 35 -98t89 -38t90 38q35 38 35 98v291h77v-351q0 -74 54 -74z" />
    <glyph glyph-name="paragraph" unicode="&#xb6;" horiz-adv-x="564" 
d="M337 660v-424h-60q-102 0 -170 59t-68 154q0 96 67 154q68 57 171 57h60zM474 660v-685q0 -85 -44 -126q-43 -40 -122 -40q-34 0 -80 11v66q50 -6 65 -6q51 0 77 22q27 22 27 79v679h77z" />
    <glyph glyph-name="periodcentered" unicode="&#xb7;" horiz-adv-x="270" 
d="M135 377q26 0 44 -18q19 -18 19 -45q0 -29 -19 -45q-18 -18 -44 -18q-25 0 -45 18q-18 17 -18 45q0 27 18 45q20 18 45 18z" />
    <glyph glyph-name="uni00B9" unicode="&#xb9;" horiz-adv-x="353" 
d="M219 780v-356h90v-60h-262v60h105v296h-100v60h167z" />
    <glyph glyph-name="guillemotright" unicode="&#xbb;" horiz-adv-x="504" 
d="M288 471l177 -189v-23l-177 -188l-51 43l141 157l-141 155zM90 471l177 -189v-23l-177 -188l-51 43l142 157l-142 155z" />
    <glyph glyph-name="onequarter" unicode="&#xbc;" horiz-adv-x="886" 
d="M309 304v-60h-262v60h105v296h-100v60h167v-356h90zM626 660h69l-378 -660h-68zM870 128v-55h-56v-73h-61v73h-207v18l130 325h67l-116 -288h126v130h61v-130h56z" />
    <glyph glyph-name="onehalf" unicode="&#xbd;" horiz-adv-x="924" 
d="M309 304v-60h-262v60h105v296h-100v60h167v-356h90zM626 660h69l-378 -660h-68zM709 60h175v-60h-294v15l148 159q32 35 48 62q16 25 16 53q0 32 -19 52q-20 21 -50 21q-33 0 -52 -21q-19 -20 -19 -55l2 -32h-65q-4 15 -4 36q0 52 38 93q37 40 100 40q60 0 98 -37
q38 -36 38 -92q0 -43 -22 -77q-26 -39 -67 -82z" />
    <glyph glyph-name="threequarters" unicode="&#xbe;" horiz-adv-x="853" 
d="M314 378q0 -63 -43 -102t-107 -39q-98 0 -145 90l46 33q38 -62 97 -62q38 0 61 22q23 23 23 58q0 34 -24 54q-25 19 -71 19h-41v18l97 131h-159v60h257v-19l-100 -136q43 -7 77 -40q32 -34 32 -87zM592 660h69l-378 -660h-68zM836 128v-55h-56v-73h-61v73h-207v18
l130 325h67l-116 -288h126v130h61v-130h56z" />
    <glyph glyph-name="multiply" unicode="&#xd7;" 
d="M436 519l47 -47l-156 -156l156 -158l-46 -46l-157 156l-156 -156l-47 46l156 158l-156 156l47 47l156 -156z" />
    <glyph glyph-name="divide" unicode="&#xf7;" 
d="M278 545q22 0 39 -15q16 -16 16 -39q0 -22 -16 -38q-17 -15 -39 -15t-39 15q-16 16 -16 38q0 23 16 39q17 15 39 15zM503 349v-68h-447v68h447zM278 188q22 0 39 -15q16 -15 16 -38q0 -22 -16 -37q-16 -16 -39 -16t-39 16q-16 15 -16 37q0 23 16 38q17 15 39 15z" />
    <glyph glyph-name="florin" unicode="&#x192;" horiz-adv-x="443" 
d="M379 671q31 0 58 -8v-64q-9 0 -19.5 0.5t-16 1t-8.5 0.5q-48 0 -72 -21q-24 -20 -32 -72l-13 -109h104v-69h-113l-37 -306q-19 -157 -166 -157q-31 0 -59 7v65q25 -3 44 -3q47 0 73 21q24 22 32 73l37 300h-78v69h86l14 114q20 158 166 158z" />
    <glyph glyph-name="uni030C" unicode="&#x30c;" horiz-adv-x="0" 
d="M-30 750l-38 -211h-58l13 211h83z" />
    <glyph glyph-name="dieresistonos" unicode="&#x385;" horiz-adv-x="493" 
d="M299 780v-14l-34 -200h-58v214h92zM96 727q22 0 39 -15q16 -16 16 -39q0 -22 -16 -37q-16 -16 -39 -16q-22 0 -38 16q-17 17 -17 37q0 21 17 38q16 16 38 16zM398 727q24 0 40 -16t16 -38t-16 -37q-16 -16 -40 -16q-22 0 -38 16q-17 15 -17 37q0 21 17 38q16 16 38 16z
" />
    <glyph glyph-name="Alphatonos" unicode="&#x386;" horiz-adv-x="663" 
d="M136 720l-38 -211h-58l13 211h83zM549 0l-57 134h-322l-57 -134h-82l286 671h29l286 -671h-83zM463 204l-132 324l-132 -324h264z" />
    <glyph glyph-name="Epsilontonos" unicode="&#x388;" horiz-adv-x="566" 
d="M8 720l-38 -211h-58l13 211h83zM514 660v-70h-345v-202h264v-70h-264v-248h357v-70h-435v660h423z" />
    <glyph glyph-name="Etatonos" unicode="&#x389;" horiz-adv-x="708" 
d="M8 720l-38 -211h-58l13 211h83zM617 660v-660h-78v318h-370v-318h-78v660h78v-272h370v272h78z" />
    <glyph glyph-name="Iotatonos" unicode="&#x38a;" horiz-adv-x="259" 
d="M8 720l-38 -211h-58l13 211h83zM169 660v-660h-78v660h78z" />
    <glyph glyph-name="Omicrontonos" unicode="&#x38c;" horiz-adv-x="781" 
d="M45 720l-38 -211h-58l13 211h83zM390 671q142 0 243 -98q100 -99 100 -243q0 -145 -100 -242q-101 -99 -243 -99q-144 0 -243 99q-99 98 -99 242t100 243q100 98 242 98zM391 599q-113 0 -188 -76q-74 -77 -74 -192q0 -116 74 -193q75 -77 188 -77q112 0 186 77
q75 76 75 193q0 115 -75 191q-74 77 -186 77z" />
    <glyph glyph-name="Upsilontonos" unicode="&#x38e;" horiz-adv-x="616" 
d="M-138 509l13 211h83l-38 -211h-58zM576 660l-229 -386v-274h-78v274l-229 386h88l180 -310l181 310h87z" />
    <glyph glyph-name="Omegatonos" unicode="&#x38f;" horiz-adv-x="792" 
d="M-51 509l13 211h83l-38 -211h-58zM738 343q0 -162 -162 -273h152v-70h-269v70q198 94 198 270q0 112 -74 186q-74 73 -188 73t-187 -73q-74 -72 -74 -185q0 -177 198 -271v-70h-269v70h149q-159 106 -159 273q0 141 99 234q98 94 243 94q143 0 243 -94t100 -234z" />
    <glyph glyph-name="iotadieresistonos" unicode="&#x390;" horiz-adv-x="285" 
d="M182 780v-14l-34 -200h-58v214h92zM-21 727q23 0 39 -15q16 -16 16 -39q0 -22 -16 -37q-16 -16 -39 -16t-39 16q-16 15 -16 37t16 38t39 16zM281 727q24 0 40 -16t16 -38t-16 -37q-16 -16 -40 -16q-22 0 -38 16q-17 15 -17 37q0 21 17 38q16 16 38 16zM159 487v-341
q0 -47 17 -67t52 -20q2 0 6.5 0.5t12.5 1t16 0.5v-65q-24 -7 -55 -7q-126 0 -126 148v350h77z" />
    <glyph glyph-name="Alpha" unicode="&#x391;" horiz-adv-x="663" 
d="M549 0l-57 134h-322l-57 -134h-82l286 671h29l286 -671h-83zM463 204l-132 324l-132 -324h264z" />
    <glyph glyph-name="Beta" unicode="&#x392;" horiz-adv-x="616" 
d="M442 363q62 -18 96 -64t34 -109q0 -84 -56 -137q-58 -53 -153 -53h-272v660h227q85 0 137 -47q51 -47 51 -120q0 -84 -64 -130zM310 590h-141v-205h141q57 0 86 28q30 29 30 75t-30 75q-30 27 -86 27zM355 70q65 0 101 33q36 35 36 89t-36 89q-36 33 -101 33h-186v-244
h186z" />
    <glyph glyph-name="Gamma" unicode="&#x393;" horiz-adv-x="506" 
d="M169 0h-78v660h391v-70h-313v-590z" />
    <glyph glyph-name="Delta" unicode="&#x394;" horiz-adv-x="663" 
d="M346 671l286 -671h-601l286 671h29zM331 518l-188 -448h377z" />
    <glyph glyph-name="Epsilon" unicode="&#x395;" horiz-adv-x="566" 
d="M514 660v-70h-345v-202h264v-70h-264v-248h357v-70h-435v660h423z" />
    <glyph glyph-name="Zeta" unicode="&#x396;" horiz-adv-x="589" 
d="M154 70h401v-70h-523v23l399 567h-356v70h479v-23z" />
    <glyph glyph-name="Eta" unicode="&#x397;" horiz-adv-x="708" 
d="M617 660v-660h-78v318h-370v-318h-78v660h78v-272h370v272h78z" />
    <glyph glyph-name="Theta" unicode="&#x398;" horiz-adv-x="781" 
d="M390 671q142 0 243 -98q100 -99 100 -243q0 -145 -100 -242q-101 -99 -243 -99q-144 0 -243 99q-99 98 -99 242t100 243q100 98 242 98zM390 602q-114 0 -189 -77q-75 -78 -75 -195q0 -118 75 -194q75 -78 189 -78t190 78q76 77 76 194t-76 194q-76 78 -190 78zM529 372
v-68h-276v68h276z" />
    <glyph glyph-name="Iota" unicode="&#x399;" horiz-adv-x="259" 
d="M169 660v-660h-78v660h78z" />
    <glyph glyph-name="Kappa" unicode="&#x39a;" horiz-adv-x="633" 
d="M91 0v660h78v-660h-78zM279 354l323 -354h-99l-325 354l297 306h100z" />
    <glyph glyph-name="Lambda" unicode="&#x39b;" horiz-adv-x="663" 
d="M632 0h-83l-218 519l-218 -519h-82l286 671h29z" />
    <glyph glyph-name="Mu" unicode="&#x39c;" horiz-adv-x="789" 
d="M671 671h27v-671h-78v474l-211 -287h-28l-212 288v-475h-78v671h28l275 -382z" />
    <glyph glyph-name="Nu" unicode="&#x39d;" horiz-adv-x="708" 
d="M539 660h78v-671h-28l-420 507v-496h-78v671h28l420 -508v497z" />
    <glyph glyph-name="Xi" unicode="&#x39e;" horiz-adv-x="545" 
d="M505 660v-70h-465v70h465zM494 388v-70h-442v70h442zM505 70v-70h-465v70h465z" />
    <glyph glyph-name="Omicron" unicode="&#x39f;" horiz-adv-x="781" 
d="M390 671q142 0 243 -98q100 -99 100 -243q0 -145 -100 -242q-101 -99 -243 -99q-144 0 -243 99q-99 98 -99 242t100 243q100 98 242 98zM391 599q-113 0 -188 -76q-74 -77 -74 -192q0 -116 74 -193q75 -77 188 -77q112 0 186 77q75 76 75 193q0 115 -75 191
q-74 77 -186 77z" />
    <glyph glyph-name="Pi" unicode="&#x3a0;" horiz-adv-x="682" 
d="M591 660v-660h-78v590h-344v-590h-78v660h500z" />
    <glyph glyph-name="Rho" unicode="&#x3a1;" horiz-adv-x="573" 
d="M323 660q95 0 154 -53q57 -54 57 -138q0 -85 -57 -139q-59 -54 -154 -54h-154v-276h-78v660h232zM321 590h-152v-244h152q64 0 98 34q34 33 34 88q0 54 -34 88t-98 34z" />
    <glyph glyph-name="Sigma" unicode="&#x3a3;" horiz-adv-x="574" 
d="M194 70h340v-70h-469v20l230 318l-230 302v20h457v-70h-325l184 -241v-20z" />
    <glyph glyph-name="Tau" unicode="&#x3a4;" horiz-adv-x="581" 
d="M562 660v-70h-233v-590h-78v590h-232v70h543z" />
    <glyph glyph-name="Upsilon" unicode="&#x3a5;" horiz-adv-x="616" 
d="M576 660l-229 -386v-274h-78v274l-229 386h88l180 -310l181 310h87z" />
    <glyph glyph-name="Phi" unicode="&#x3a6;" horiz-adv-x="798" 
d="M749 335q0 -125 -87 -198t-225 -75v-93h-78v93q-137 2 -224 75t-87 198q0 123 87 197q85 71 224 73v86h78v-86q139 -2 225 -73q87 -73 87 -197zM129 333q0 -95 63 -147q62 -53 167 -53v401q-105 0 -167 -53q-63 -53 -63 -148zM437 133q104 0 168 53q63 52 63 147t-63 148
q-64 53 -168 53v-401z" />
    <glyph glyph-name="Chi" unicode="&#x3a7;" horiz-adv-x="599" 
d="M569 0h-91l-178 272l-179 -272h-91l227 338l-211 322h90l165 -257l162 257h90l-208 -323z" />
    <glyph glyph-name="Psi" unicode="&#x3a8;" horiz-adv-x="820" 
d="M449 681v-459q105 0 163 48q59 47 59 144v246h78v-252q0 -126 -80 -191t-220 -65v-152h-78v152q-140 0 -220 65t-80 191v252h78v-246q0 -97 59 -144q58 -48 163 -48v459h78z" />
    <glyph glyph-name="Omega" unicode="&#x3a9;" horiz-adv-x="792" 
d="M738 343q0 -162 -162 -273h152v-70h-269v70q198 94 198 270q0 112 -74 186q-74 73 -188 73t-187 -73q-74 -72 -74 -185q0 -177 198 -271v-70h-269v70h149q-159 106 -159 273q0 141 99 234q98 94 243 94q143 0 243 -94t100 -234z" />
    <glyph glyph-name="Iotadieresis" unicode="&#x3aa;" horiz-adv-x="259" 
d="M13 863q23 0 39 -15q16 -16 16 -38t-16 -37q-16 -16 -39 -16t-39 16q-16 15 -16 37t16 38q16 15 39 15zM246 863q23 0 39 -16t16 -38t-16 -37q-16 -16 -39 -16q-22 0 -38 16q-17 15 -17 37q0 21 17 38q16 16 38 16zM169 660v-660h-78v660h78z" />
    <glyph glyph-name="Upsilondieresis" unicode="&#x3ab;" horiz-adv-x="616" 
d="M167 757q-22 0 -38 16q-17 15 -17 37q0 21 17 38q16 15 38 15q23 0 39 -15q16 -16 16 -38t-16 -37q-16 -16 -39 -16zM400 756q-22 0 -38 16q-17 15 -17 37q0 21 17 38q16 16 38 16q23 0 39 -16t16 -38t-16 -37q-16 -16 -39 -16zM576 660l-229 -386v-274h-78v274l-229 386
h88l180 -310l181 310h87z" />
    <glyph glyph-name="alphatonos" unicode="&#x3ac;" horiz-adv-x="644" 
d="M370 766l-33 -200h-60v214h93v-14zM593 62q9 0 30 3v-65q-28 -7 -53 -7q-86 0 -102 85q-29 -43 -77 -66q-49 -23 -104 -23q-103 0 -170 73t-67 182q0 108 67 181t170 73q60 0 109 -25q48 -25 76 -70q0 4 1 15.5t2 30.5l2 38h73q-10 -144 -10 -232v-122q0 -71 53 -71z
M297 60q68 0 118 47q49 48 49 136t-49 136q-48 48 -118 48q-73 0 -121 -52q-47 -53 -47 -131q0 -79 47 -132q48 -52 121 -52z" />
    <glyph glyph-name="epsilontonos" unicode="&#x3ad;" horiz-adv-x="498" 
d="M312 766l-33 -200h-60v214h93v-14zM400 129l52 -46q-69 -94 -196 -94q-84 0 -140 41q-54 40 -54 106q0 40 21 71q23 32 60 50q-59 36 -59 108q0 62 48 98q47 35 125 35q126 0 187 -85l-52 -46q-50 60 -132 60q-97 0 -97 -68q0 -31 22 -49q21 -18 63 -18h91v-68h-89
q-53 0 -81 -22t-28 -57q0 -39 30 -62q31 -23 86 -23q90 0 143 69z" />
    <glyph glyph-name="etatonos" unicode="&#x3ae;" horiz-adv-x="586" 
d="M348 766l-33 -200h-60v214h93v-14zM326 498q83 0 133 -53q49 -52 49 -139v-486h-77v476q0 58 -33 95q-33 36 -88 36q-57 0 -93 -37q-36 -38 -36 -94v-296h-76v354q0 69 -55 69q-18 0 -29 -1v65q27 7 54 7q72 0 95 -65q56 69 156 69z" />
    <glyph glyph-name="iotatonos" unicode="&#x3af;" horiz-adv-x="285" 
d="M179 780v-14l-33 -200h-60v214h93zM159 487v-341q0 -47 17 -67t52 -20q2 0 6.5 0.5t12.5 1t16 0.5v-65q-24 -7 -55 -7q-126 0 -126 148v350h77z" />
    <glyph glyph-name="upsilondieresistonos" unicode="&#x3b0;" horiz-adv-x="552" 
d="M326 780v-14l-34 -200h-58v214h92zM123 727q23 0 39 -15q16 -16 16 -39q0 -22 -16 -37q-16 -16 -39 -16q-22 0 -38 16q-17 17 -17 37q0 21 17 38q16 16 38 16zM425 727q24 0 40 -16t16 -38t-16 -37q-16 -16 -40 -16q-22 0 -38 16q-17 15 -17 37q0 21 17 38q16 16 38 16z
M441 487q49 -126 49 -254q0 -123 -57 -183q-58 -61 -149 -61q-90 0 -148 56q-57 55 -57 155v287h77v-291q0 -62 36 -100q36 -37 93 -37q56 0 91 41t35 130q0 59 -13 130q-12 67 -34 127h77z" />
    <glyph glyph-name="alpha" unicode="&#x3b1;" horiz-adv-x="644" 
d="M593 62q9 0 30 3v-65q-28 -7 -53 -7q-86 0 -102 85q-29 -43 -77 -66q-49 -23 -104 -23q-103 0 -170 73t-67 182q0 108 67 181t170 73q60 0 109 -25q48 -25 76 -70q0 4 1 15.5t2 30.5l2 38h73q-10 -144 -10 -232v-122q0 -71 53 -71zM297 60q68 0 118 47q49 48 49 136
t-49 136q-48 48 -118 48q-73 0 -121 -52q-47 -53 -47 -131q0 -79 47 -132q48 -52 121 -52z" />
    <glyph glyph-name="beta" unicode="&#x3b2;" horiz-adv-x="610" 
d="M397 425q73 -19 118 -73q45 -56 45 -137q0 -103 -68 -164q-68 -62 -165 -62q-95 0 -165 60v-229h-77v735q0 96 58 151t149 55q89 0 140 -52q50 -53 50 -131q0 -104 -85 -153zM319 60q71 0 117 42q45 44 45 115q0 73 -46 115q-46 43 -121 43h-61v68h26q58 0 91 35
q33 34 33 94q0 58 -32 88q-33 30 -83 30q-56 0 -91 -36q-35 -38 -35 -104v-419q62 -71 157 -71z" />
    <glyph glyph-name="gamma" unicode="&#x3b3;" horiz-adv-x="539" 
d="M513 487l-205 -447v-220h-76v222l-206 445h82l162 -367l161 367h82z" />
    <glyph glyph-name="delta" unicode="&#x3b4;" horiz-adv-x="610" 
d="M464 446q96 -94 96 -199q0 -110 -74 -184q-76 -74 -182 -74t-180 74t-74 181t74 179q74 71 179 71h6l-236 233v23h460v-68h-305zM305 60q75 0 126 53q50 53 50 130q0 76 -50 129q-51 52 -126 52q-77 0 -126 -52q-50 -53 -50 -130t50 -130q49 -52 126 -52z" />
    <glyph glyph-name="epsilon" unicode="&#x3b5;" horiz-adv-x="498" 
d="M400 129l52 -46q-69 -94 -196 -94q-84 0 -140 41q-54 40 -54 106q0 40 21 71q23 32 60 50q-59 36 -59 108q0 62 48 98q47 35 125 35q126 0 187 -85l-52 -46q-50 60 -132 60q-97 0 -97 -68q0 -31 22 -49q21 -18 63 -18h91v-68h-89q-53 0 -81 -22t-28 -57q0 -39 30 -62
q31 -23 86 -23q90 0 143 69z" />
    <glyph glyph-name="zeta" unicode="&#x3b6;" horiz-adv-x="503" 
d="M345 62q144 -38 144 -151q0 -42 -23 -91h-76q20 49 20 82q0 68 -93 92l-70 17q-96 23 -146 76q-51 53 -51 130q0 91 91 204l213 261h-268v68h395v-23l-280 -346q-36 -45 -54 -82q-18 -36 -18 -74q0 -53 35 -88q36 -35 106 -55z" />
    <glyph glyph-name="eta" unicode="&#x3b7;" horiz-adv-x="586" 
d="M326 498q83 0 133 -53q49 -52 49 -139v-486h-77v476q0 58 -33 95q-33 36 -88 36q-57 0 -93 -37q-36 -38 -36 -94v-296h-76v354q0 69 -55 69q-18 0 -29 -1v65q27 7 54 7q72 0 95 -65q56 69 156 69z" />
    <glyph glyph-name="theta" unicode="&#x3b8;" horiz-adv-x="617" 
d="M309 761q238 0 238 -385q0 -387 -238 -387t-238 387q0 385 238 385zM309 690q-147 0 -159 -268h317q-12 268 -158 268zM309 59q154 0 158 295h-317q4 -295 159 -295z" />
    <glyph glyph-name="iota" unicode="&#x3b9;" horiz-adv-x="285" 
d="M159 487v-341q0 -47 17 -67t52 -20q2 0 6.5 0.5t12.5 1t16 0.5v-65q-24 -7 -55 -7q-126 0 -126 148v350h77z" />
    <glyph glyph-name="kappa" unicode="&#x3ba;" horiz-adv-x="508" 
d="M85 0v487h77v-487h-77zM268 265l227 -265h-97l-226 264l210 223h99z" />
    <glyph glyph-name="lambda" unicode="&#x3bb;" horiz-adv-x="548" 
d="M513 64h22v-64q-21 -6 -39 -6q-40 0 -62 21q-22 20 -37 65l-112 328l-176 -408h-82l222 500l-37 105q-16 49 -40 68q-22 18 -64 18q-18 0 -48 -3v65q29 8 62 8q56 0 94 -27q38 -29 63 -101l183 -519q17 -50 51 -50z" />
    <glyph glyph-name="mu" unicode="&#x3bc;" horiz-adv-x="592" 
d="M542 62q10 0 29 3v-65q-28 -7 -52 -7q-70 0 -94 59q-48 -63 -134 -63q-83 0 -129 58v-227h-77v667h77v-291q0 -60 35 -98t89 -38t90 38q35 38 35 98v291h77v-351q0 -74 54 -74z" />
    <glyph glyph-name="nu" unicode="&#x3bd;" horiz-adv-x="539" 
d="M431 487h82l-229 -498h-28l-230 498h82l162 -367z" />
    <glyph glyph-name="xi" unicode="&#x3be;" horiz-adv-x="517" 
d="M356 62q70 -13 109 -52q38 -40 38 -100q0 -46 -23 -90h-76q20 49 20 82q0 74 -90 90l-63 11q-103 18 -156 76q-54 57 -54 139q0 67 34 119q35 51 94 75q-92 54 -92 159q0 82 59 136q58 54 146 54q124 0 192 -108l-54 -44q-56 81 -133 81q-55 0 -93 -35t-38 -88
q0 -54 39 -90q37 -36 97 -36h99v-69h-110q-69 0 -115 -41q-46 -42 -46 -108q0 -59 39 -96q40 -39 110 -52z" />
    <glyph glyph-name="omicron" unicode="&#x3bf;" horiz-adv-x="610" 
d="M305 498q106 0 180 -74q75 -73 75 -181q0 -107 -75 -180q-76 -74 -181 -74q-106 0 -180 74t-74 180q0 108 74 182q73 73 181 73zM305 427q-75 0 -126 -53q-50 -53 -50 -131q0 -77 50 -130t125 -53q76 0 126 53q51 53 51 130q0 79 -51 131q-50 53 -125 53z" />
    <glyph glyph-name="pi" unicode="&#x3c0;" horiz-adv-x="581" 
d="M508 -7q-50 0 -79 32q-29 34 -29 96v297h-238v-418h-77v487h392v-361q0 -64 53 -64q10 0 30 3v-65q-28 -7 -52 -7z" />
    <glyph glyph-name="rho" unicode="&#x3c1;" horiz-adv-x="621" 
d="M321 498q111 0 181 -72q69 -74 69 -182q0 -107 -68 -181t-170 -74q-56 0 -101 22q-49 21 -77 60v-251h-76v421q0 116 67 186q66 71 175 71zM321 60q74 0 123 52q48 52 48 131t-48 132q-49 52 -124 52q-71 0 -118 -46q-48 -47 -48 -136q0 -92 49 -138q50 -47 118 -47z" />
    <glyph glyph-name="uni03C2" unicode="&#x3c2;" horiz-adv-x="527" 
d="M371 -180q23 49 23 85q0 43 -24 60q-25 17 -81 32q-41 12 -61 19q-21 7 -61 29q-38 21 -60 46q-25 28 -40 67q-17 43 -17 95q0 114 69 180q71 65 175 65q134 0 207 -109l-54 -44q-61 82 -153 82q-72 0 -118 -45q-46 -46 -46 -126q0 -39 12 -69q14 -33 29 -49
q17 -19 44 -33q27 -16 46 -22q14 -5 47 -15q32 -9 51 -15q16 -5 43 -18q23 -11 38 -26q12 -13 23 -39q10 -23 10 -54q0 -52 -26 -96h-76z" />
    <glyph glyph-name="sigma" unicode="&#x3c3;" horiz-adv-x="634" 
d="M620 487v-69h-152q85 -67 85 -181q0 -102 -71 -175q-72 -73 -181 -73t-180 74t-71 179q0 106 73 176q72 69 182 69h315zM301 60q74 0 124 53q49 52 49 130q0 77 -48 126q-50 48 -124 48q-76 0 -124 -48q-49 -49 -49 -127q0 -77 49 -129q48 -53 123 -53z" />
    <glyph glyph-name="tau" unicode="&#x3c4;" horiz-adv-x="448" 
d="M333 59q34 0 85 6v-65q-52 -11 -101 -11q-170 0 -170 158v271h-132v69h393v-69h-185v-266q0 -53 28 -72q27 -21 82 -21z" />
    <glyph glyph-name="upsilon" unicode="&#x3c5;" horiz-adv-x="552" 
d="M441 487q49 -126 49 -254q0 -123 -57 -184q-59 -60 -149 -60t-148 56q-57 55 -57 155v287h77v-291q0 -62 36 -100q36 -37 93 -37q56 0 91 41t35 130q0 59 -13 130q-12 67 -34 127h77z" />
    <glyph glyph-name="phi" unicode="&#x3c6;" horiz-adv-x="747" 
d="M697 243q0 -114 -79 -183q-78 -69 -207 -71v-169h-77v169q-128 2 -205 70q-79 70 -79 184t79 183q77 68 205 70v224h77v-224q128 -2 207 -70q79 -69 79 -183zM127 242q0 -86 55 -135q56 -50 153 -50h1v370h-1q-97 0 -153 -50q-55 -49 -55 -135zM410 57q98 0 154 50
q57 49 57 135t-57 135q-56 50 -154 50h-1v-370h1z" />
    <glyph glyph-name="chi" unicode="&#x3c7;" horiz-adv-x="504" 
d="M470 -117q18 0 24 1v-64q-17 -6 -41 -6q-65 0 -99 69l-105 213l-151 -276h-85l198 348l-108 214q-21 41 -59 41q-18 0 -24 -1v65q16 6 40 6q69 0 105 -78l87 -180l139 252h85l-185 -323l121 -240q20 -41 58 -41z" />
    <glyph glyph-name="psi" unicode="&#x3c8;" horiz-adv-x="773" 
d="M428 660v-601q93 0 149 53q55 52 55 151q0 92 -47 224h77q49 -126 49 -227q0 -127 -77 -199q-78 -72 -206 -72v-169h-77v169q-119 0 -195 66q-77 68 -77 190v242h76v-236q0 -93 57 -142q58 -50 139 -50v601h77z" />
    <glyph glyph-name="omega" unicode="&#x3c9;" horiz-adv-x="835" 
d="M583 494q201 -59 201 -260q0 -116 -61 -180q-59 -65 -150 -65q-110 0 -156 88q-46 -88 -155 -88q-90 0 -152 65q-60 64 -60 179q0 201 202 261l22 -68q-70 -24 -107 -69q-38 -46 -38 -124q0 -83 39 -128q40 -45 96 -45q51 0 82 37q33 38 33 100v183h77v-183
q0 -62 32 -100q31 -37 82 -37q57 0 96 45t39 128q0 79 -38 125q-38 44 -108 68z" />
    <glyph glyph-name="iotadieresis" unicode="&#x3ca;" horiz-adv-x="285" 
d="M32 727q22 0 39 -15q16 -16 16 -39q0 -22 -16 -37q-16 -16 -39 -16q-22 0 -39 16q-16 15 -16 37t16 38q17 16 39 16zM214 727q22 0 39 -15q16 -16 16 -39q0 -22 -16 -37q-16 -16 -39 -16q-22 0 -38 16q-17 17 -17 37q0 21 17 38q16 16 38 16zM159 487v-341q0 -47 17 -67
t52 -20q2 0 6.5 0.5t12.5 1t16 0.5v-65q-24 -7 -55 -7q-126 0 -126 148v350h77z" />
    <glyph glyph-name="upsilondieresis" unicode="&#x3cb;" horiz-adv-x="552" 
d="M161 727q23 0 39 -15q16 -16 16 -39q0 -22 -16 -37q-16 -16 -39 -16q-22 0 -38 16q-17 17 -17 37q0 21 17 38q16 16 38 16zM373 727q23 0 39 -15q16 -16 16 -39q0 -22 -16 -37q-16 -16 -39 -16q-22 0 -38 16q-17 17 -17 37q0 21 17 38q16 16 38 16zM441 487
q49 -126 49 -254q0 -123 -57 -183q-58 -61 -149 -61q-90 0 -148 56q-57 55 -57 155v287h77v-291q0 -62 36 -100q36 -37 93 -37q56 0 91 41t35 130q0 59 -13 130q-12 67 -34 127h77z" />
    <glyph glyph-name="omicrontonos" unicode="&#x3cc;" horiz-adv-x="610" 
d="M361 780v-14l-33 -200h-60v214h93zM305 498q106 0 180 -74q75 -73 75 -181q0 -107 -75 -180q-76 -74 -181 -74q-106 0 -180 74t-74 180q0 108 74 182q73 73 181 73zM305 427q-75 0 -126 -53q-50 -53 -50 -131q0 -77 50 -130t125 -53q76 0 126 53q51 53 51 130
q0 79 -51 131q-50 53 -125 53z" />
    <glyph glyph-name="upsilontonos" unicode="&#x3cd;" horiz-adv-x="552" 
d="M323 780v-14l-33 -200h-60v214h93zM441 487q49 -126 49 -254q0 -123 -57 -184q-59 -60 -149 -60t-148 56q-57 55 -57 155v287h77v-291q0 -62 36 -100q36 -37 93 -37q56 0 91 41t35 130q0 59 -13 130q-12 67 -34 127h77z" />
    <glyph glyph-name="omegatonos" unicode="&#x3ce;" horiz-adv-x="835" 
d="M474 766l-33 -200h-60v214h93v-14zM583 494q201 -59 201 -260q0 -116 -61 -180q-59 -65 -150 -65q-110 0 -156 88q-46 -88 -155 -88q-90 0 -152 65q-60 64 -60 179q0 201 202 261l22 -68q-70 -24 -107 -69q-38 -46 -38 -124q0 -83 39 -128q40 -45 96 -45q51 0 82 37
q33 38 33 100v183h77v-183q0 -62 32 -100q31 -37 82 -37q57 0 96 45t39 128q0 79 -38 125q-38 44 -108 68z" />
    <glyph glyph-name="uni2009" unicode="&#x2009;" horiz-adv-x="147" 
 />
    <glyph glyph-name="endash" unicode="&#x2013;" horiz-adv-x="506" 
d="M462 347v-65h-419v65h419z" />
    <glyph glyph-name="emdash" unicode="&#x2014;" horiz-adv-x="1000" 
d="M950 347v-65h-900v65h900z" />
    <glyph glyph-name="uni2015" unicode="&#x2015;" horiz-adv-x="1000" 
d="M950 347v-65h-900v65h900z" />
    <glyph glyph-name="quoteleft" unicode="&#x2018;" horiz-adv-x="280" 
d="M186 660l-13 -257h-90l42 257h61z" />
    <glyph glyph-name="quoteright" unicode="&#x2019;" horiz-adv-x="280" 
d="M198 660l-43 -257h-61l14 257h90z" />
    <glyph glyph-name="quotesinglbase" unicode="&#x201a;" horiz-adv-x="280" 
d="M198 90l-43 -257h-61l14 257h90z" />
    <glyph glyph-name="quotedblleft" unicode="&#x201c;" horiz-adv-x="463" 
d="M186 660l-13 -257h-90l42 257h61zM369 660l-13 -257h-90l43 257h60z" />
    <glyph glyph-name="quotedblright" unicode="&#x201d;" horiz-adv-x="463" 
d="M198 660l-43 -257h-61l14 257h90zM381 660l-43 -257h-61l14 257h90z" />
    <glyph glyph-name="quotedblbase" unicode="&#x201e;" horiz-adv-x="463" 
d="M381 90l-43 -257h-60l13 257h90zM198 90l-43 -257h-61l14 257h90z" />
    <glyph glyph-name="dagger" unicode="&#x2020;" horiz-adv-x="451" 
d="M263 750v-133h125v-68h-125v-224h-76v224h-124v68h124v133h76z" />
    <glyph glyph-name="daggerdbl" unicode="&#x2021;" horiz-adv-x="451" 
d="M263 750v-103h125v-68h-125v-135h125v-69h-125v-104h-76v104h-124v69h124v135h-124v68h124v103h76z" />
    <glyph glyph-name="bullet" unicode="&#x2022;" horiz-adv-x="377" 
d="M189 397q54 0 92 -37q39 -38 39 -93q0 -56 -39 -92q-38 -37 -92 -37t-92 37q-40 36 -40 92t40 93q38 37 92 37z" />
    <glyph glyph-name="ellipsis" unicode="&#x2026;" horiz-adv-x="769" 
d="M385 115q25 0 45 -18q18 -18 18 -45t-18 -45q-20 -18 -45 -18q-27 0 -45 18t-18 45t18 45t45 18zM634 115q27 0 45 -18t18 -45t-18 -45t-45 -18q-26 0 -45 18q-18 18 -18 45t18 45q19 18 45 18zM135 115q26 0 44 -18q19 -18 19 -45t-19 -45q-18 -18 -44 -18q-25 0 -45 18
q-18 18 -18 45t18 45q20 18 45 18z" />
    <glyph glyph-name="perthousand" unicode="&#x2030;" horiz-adv-x="1192" 
d="M214 671q69 0 116 -46q47 -47 47 -115q0 -67 -47 -114q-49 -47 -116 -47q-69 0 -116 47q-48 46 -48 114t48 115q46 46 116 46zM629 660l-378 -660h-69l378 660h69zM214 614q-42 0 -71 -29q-28 -29 -28 -75t28 -74q28 -30 71 -30q42 0 71 30q28 29 28 74t-28 74
q-29 30 -71 30zM979 313q70 0 117 -46q47 -47 47 -115q0 -67 -47 -114q-49 -47 -117 -47t-115 47t-47 114q0 68 47 115q46 46 115 46zM596 312q69 0 116 -46q48 -47 48 -115q0 -67 -48 -114q-49 -47 -116 -47t-116 47q-47 47 -47 114q0 68 47 115q47 46 116 46zM980 256
q-42 0 -71 -29q-28 -29 -28 -75q0 -45 28 -73q29 -30 71 -30t71 30q28 28 28 73q0 46 -28 75q-29 29 -71 29zM597 255q-42 0 -71 -29q-28 -29 -28 -75q0 -45 28 -73q28 -30 71 -30q41 0 70 30q28 28 28 73q0 46 -28 75q-29 29 -70 29z" />
    <glyph glyph-name="minute" unicode="&#x2032;" horiz-adv-x="248" 
d="M201 660l-71 -272h-62l41 272h92z" />
    <glyph glyph-name="second" unicode="&#x2033;" horiz-adv-x="431" 
d="M201 660l-71 -272h-62l41 272h92zM384 660l-71 -272h-62l41 272h92z" />
    <glyph glyph-name="guilsinglleft" unicode="&#x2039;" horiz-adv-x="306" 
d="M216 471l50 -45l-141 -155l141 -157l-50 -43l-178 188v23z" />
    <glyph glyph-name="guilsinglright" unicode="&#x203a;" horiz-adv-x="306" 
d="M90 471l177 -189v-23l-177 -188l-51 43l142 157l-142 155z" />
    <glyph glyph-name="fraction" unicode="&#x2044;" horiz-adv-x="238" 
d="M342 660l-378 -660h-69l378 660h69z" />
    <glyph glyph-name="uni2070" unicode="&#x2070;" horiz-adv-x="410" 
d="M205 787q78 0 117 -58q38 -59 38 -153q0 -96 -38 -158q-39 -61 -117 -61q-77 0 -116 62q-40 61 -40 157q0 95 40 153q39 58 116 58zM205 726q-88 0 -88 -151q0 -74 22 -115q21 -43 66 -43q89 0 89 158q0 151 -89 151z" />
    <glyph glyph-name="uni2074" unicode="&#x2074;" horiz-adv-x="356" 
d="M340 492v-55h-56v-73h-61v73h-207v18l130 325h67l-116 -288h126v130h61v-130h56z" />
    <glyph glyph-name="uni2075" unicode="&#x2075;" horiz-adv-x="366" 
d="M182 628q62 0 104 -33q41 -35 41 -95q0 -64 -44 -103q-44 -40 -109 -40q-51 0 -88 25q-38 26 -58 65l46 33q38 -62 99 -62q39 0 62 22q24 21 24 57q0 74 -96 74h-94v209h226v-60h-162v-97q32 5 49 5z" />
    <glyph glyph-name="uni2076" unicode="&#x2076;" horiz-adv-x="373" 
d="M198 639q54 0 94 -40q41 -41 41 -99q0 -62 -43 -102q-44 -41 -104 -41q-59 0 -102 41q-43 40 -43 104q0 35 13 61q14 28 43 70l103 147h78l-99 -143q16 2 19 2zM186 418q35 0 58 23q22 22 22 59q0 34 -23 60q-23 24 -57 24t-56 -24q-23 -26 -23 -60q0 -36 23 -59t56 -23z
" />
    <glyph glyph-name="uni2077" unicode="&#x2077;" horiz-adv-x="327" 
d="M28 780h280v-19l-198 -397h-71l181 356h-192v60z" />
    <glyph glyph-name="uni2078" unicode="&#x2078;" horiz-adv-x="382" 
d="M251 580q89 -35 89 -108q0 -51 -41 -83q-43 -32 -109 -32t-107 32t-41 84q0 72 89 107q-70 36 -70 101q0 50 37 78q35 28 92 28t94 -28t37 -79q0 -64 -70 -100zM190 734q-29 0 -48 -16q-20 -15 -20 -41q0 -24 17 -39q16 -14 52 -30q36 16 52 30q17 17 17 39q0 25 -20 42
q-19 15 -50 15zM190 411q40 0 63 17q22 18 22 47q0 30 -21 46q-24 18 -64 32q-40 -15 -62 -32q-21 -16 -21 -46q0 -29 22 -47q23 -17 61 -17z" />
    <glyph glyph-name="uni2079" unicode="&#x2079;" horiz-adv-x="373" 
d="M187 787q59 0 103 -41q42 -40 42 -104q0 -35 -13 -61q-14 -28 -43 -70l-103 -147h-78l99 143q-16 -2 -19 -2q-53 0 -94 41t-41 98q0 62 43 102q44 41 104 41zM187 560q35 0 57 25q22 23 22 59q0 37 -22 59q-23 23 -57 23t-57 -23t-23 -59q0 -34 23 -59q22 -25 57 -25z
" />
    <glyph glyph-name="uni207A" unicode="&#x207a;" horiz-adv-x="427" 
d="M245 745v-144h140v-57h-140v-144h-63v144h-140v57h140v144h63z" />
    <glyph glyph-name="uni207B" unicode="&#x207b;" horiz-adv-x="427" 
d="M385 599v-52h-343v52h343z" />
    <glyph glyph-name="uni207C" unicode="&#x207c;" horiz-adv-x="427" 
d="M49 623v57h329v-57h-329zM49 465v57h329v-57h-329z" />
    <glyph glyph-name="uni207D" unicode="&#x207d;" horiz-adv-x="255" 
d="M208 901l25 -40q-117 -75 -117 -289t117 -288l-25 -41q-69 46 -109 121q-41 76 -41 208q0 140 43 219q41 78 107 110z" />
    <glyph glyph-name="uni207E" unicode="&#x207e;" horiz-adv-x="255" 
d="M46 901q66 -32 107 -110q43 -79 43 -219q0 -139 -43 -218q-42 -79 -107 -111l-25 41q117 74 117 288t-117 289z" />
    <glyph glyph-name="uni2080" unicode="&#x2080;" horiz-adv-x="410" 
d="M205 303q78 0 117 -58q38 -59 38 -153q0 -96 -38 -158q-39 -61 -117 -61q-77 0 -116 61q-40 61 -40 158q0 95 40 153q39 58 116 58zM205 242q-88 0 -88 -151q0 -158 88 -158q89 0 89 158q0 151 -89 151z" />
    <glyph glyph-name="uni2081" unicode="&#x2081;" horiz-adv-x="353" 
d="M219 296v-356h90v-60h-262v60h105v296h-100v60h167z" />
    <glyph glyph-name="uni2082" unicode="&#x2082;" horiz-adv-x="369" 
d="M155 -60h174v-60h-294v15l148 159q30 33 49 62q15 26 15 53q0 32 -19 52q-19 21 -50 21q-32 0 -51 -21q-20 -22 -20 -55l2 -32h-65q-4 15 -4 36q0 52 38 93q37 40 100 40q59 0 98 -36q38 -38 38 -93q0 -43 -22 -77q-25 -38 -67 -83z" />
    <glyph glyph-name="uni2083" unicode="&#x2083;" horiz-adv-x="354" 
d="M205 142q43 -9 77 -41q32 -34 32 -87q0 -63 -43 -102t-107 -39q-98 0 -145 90l46 33q38 -62 97 -62q38 0 61 22q23 23 23 58q0 34 -24 54q-25 19 -71 19h-41v18l97 131h-159v60h257v-19z" />
    <glyph glyph-name="uni2084" unicode="&#x2084;" horiz-adv-x="356" 
d="M340 8v-55h-56v-73h-61v73h-207v18l130 325h67l-116 -288h126v130h61v-130h56z" />
    <glyph glyph-name="uni2085" unicode="&#x2085;" horiz-adv-x="366" 
d="M182 144q62 0 104 -33q41 -35 41 -95q0 -64 -44 -103q-44 -40 -109 -40q-51 0 -88 25q-38 26 -58 65l46 33q38 -62 99 -62q39 0 62 22q24 21 24 57q0 74 -96 74h-94v209h226v-60h-162v-97q32 5 49 5z" />
    <glyph glyph-name="uni2086" unicode="&#x2086;" horiz-adv-x="373" 
d="M198 155q54 0 94 -40q41 -41 41 -99q0 -62 -43 -102q-44 -41 -104 -41q-59 0 -102 41q-43 40 -43 104q0 35 13 61q14 28 43 70l103 147h78l-99 -143q16 2 19 2zM186 -66q35 0 58 23q22 22 22 59q0 34 -23 60q-23 24 -57 24t-56 -24q-23 -26 -23 -60q0 -36 23 -59t56 -23z
" />
    <glyph glyph-name="uni2087" unicode="&#x2087;" horiz-adv-x="327" 
d="M28 296h280v-19l-198 -397h-71l181 356h-192v60z" />
    <glyph glyph-name="uni2088" unicode="&#x2088;" horiz-adv-x="382" 
d="M251 96q89 -35 89 -108q0 -52 -41 -84q-41 -31 -109 -31q-67 0 -107 31q-41 32 -41 85q0 72 89 107q-70 36 -70 101q0 50 37 78q35 28 92 28t94 -28t37 -79q0 -64 -70 -100zM190 250q-28 0 -48 -15q-20 -17 -20 -42q0 -24 17 -39q16 -14 52 -30q37 16 52 31q17 15 17 38
q0 25 -20 42q-19 15 -50 15zM190 -73q40 0 63 18q22 16 22 46t-21 46q-25 19 -64 31q-39 -13 -62 -31q-21 -16 -21 -46t22 -46q23 -18 61 -18z" />
    <glyph glyph-name="uni2089" unicode="&#x2089;" horiz-adv-x="373" 
d="M187 303q59 0 103 -41q42 -40 42 -104q0 -35 -13 -61q-14 -28 -43 -70l-103 -147h-78l99 143q-16 -2 -19 -2q-53 0 -94 41t-41 98q0 62 43 102q44 41 104 41zM187 76q35 0 57 25q22 23 22 59q0 37 -22 59q-23 23 -57 23t-57 -23t-23 -59q0 -34 23 -59q22 -25 57 -25z" />
    <glyph glyph-name="uni208A" unicode="&#x208a;" horiz-adv-x="427" 
d="M245 260v-144h140v-57h-140v-144h-63v144h-140v57h140v144h63z" />
    <glyph glyph-name="uni208B" unicode="&#x208b;" horiz-adv-x="427" 
d="M385 114v-52h-343v52h343z" />
    <glyph glyph-name="uni208C" unicode="&#x208c;" horiz-adv-x="427" 
d="M49 138v57h329v-57h-329zM49 -20v57h329v-57h-329z" />
    <glyph glyph-name="uni208D" unicode="&#x208d;" horiz-adv-x="255" 
d="M208 416l25 -40q-117 -75 -117 -289q0 -215 117 -288l-25 -41q-69 46 -109 121q-41 76 -41 208q0 140 43 219q41 78 107 110z" />
    <glyph glyph-name="uni208E" unicode="&#x208e;" horiz-adv-x="255" 
d="M46 416q66 -32 107 -110q43 -79 43 -219q0 -139 -43 -218q-42 -79 -107 -111l-25 41q117 73 117 288q0 214 -117 289z" />
    <glyph glyph-name="Euro" unicode="&#x20ac;" horiz-adv-x="681" 
d="M410 61q106 0 166 81l56 -45q-35 -52 -93 -80q-57 -28 -132 -28q-108 0 -187 62q-79 64 -107 166h-108v68h95q-2 20 -2 45q0 32 1 41h-92v68h105q29 106 107 168q77 64 188 64q72 0 132 -29q59 -29 93 -79l-56 -45q-60 81 -166 81q-79 0 -134 -43q-56 -44 -81 -117h292
l-16 -68h-290q-2 -18 -2 -41q0 -25 2 -45h264l-17 -68h-231q26 -73 80 -114q56 -42 133 -42z" />
    <glyph glyph-name="uni2105" unicode="&#x2105;" horiz-adv-x="811" 
d="M213 671q87 0 131 -72l-46 -38q-34 48 -85 48q-42 0 -67 -28q-27 -29 -27 -71t27 -71q26 -29 67 -29q51 0 85 49l46 -38q-43 -73 -131 -73q-68 0 -115 47q-48 47 -48 115t48 115q46 46 115 46zM627 660l-378 -660h-68l377 660h69zM597 312q67 0 116 -47q48 -47 48 -115
t-48 -114q-49 -47 -116 -47q-68 0 -117 47q-47 47 -47 114q0 69 47 116q47 46 117 46zM597 250q-43 0 -68 -28q-27 -28 -27 -72q0 -42 27 -70q25 -28 68 -28q41 0 69 28q27 28 27 70q0 44 -27 72q-28 28 -69 28z" />
    <glyph glyph-name="uni2113" unicode="&#x2113;" horiz-adv-x="422" 
d="M180 173q0 -114 105 -114q29 0 88 10v-65q-49 -15 -100 -15q-81 0 -125 45q-44 47 -44 133v5l-54 -44l-41 58q67 55 95 80v304q0 98 41 145q40 46 109 46q63 0 99 -36q36 -37 36 -112q0 -176 -209 -373v-67zM257 695q-77 0 -77 -121v-236q140 143 140 270q0 87 -63 87z
" />
    <glyph glyph-name="uni2116" unicode="&#x2116;" horiz-adv-x="1126" 
d="M539 163v497h78v-671h-28l-420 507v-496h-78v671h28zM912 237q-68 0 -115 47q-48 46 -48 114t48 115q46 46 115 46t116 -46q48 -47 48 -115t-48 -114q-49 -47 -116 -47zM912 502q-42 0 -71 -29q-28 -29 -28 -75q0 -45 28 -73q28 -30 71 -30q44 0 72 30q28 28 28 73
q0 46 -28 75q-29 29 -72 29zM754 105v56h318v-56h-318z" />
    <glyph glyph-name="uni2117" unicode="&#x2117;" horiz-adv-x="781" 
d="M390 671q141 0 242 -98q101 -99 101 -243t-101 -242q-100 -99 -242 -99q-140 0 -241 99q-101 98 -101 242t101 243q101 98 241 98zM390 616q-118 0 -200 -81t-82 -205t82 -205t200 -81t200 82q83 81 83 204t-82 205q-83 81 -201 81zM418 503q58 0 95 -32q36 -33 36 -85
t-36 -84q-38 -32 -95 -32h-75v-120h-66v353h141zM418 446h-74v-120h74q31 0 48 17t17 43q0 27 -17 44q-16 16 -48 16z" />
    <glyph glyph-name="trademark" unicode="&#x2122;" horiz-adv-x="959" 
d="M886 667v-456h-67v294l-133 -179h-23l-132 179v-294h-68v456h24l188 -254l188 254h23zM387 660v-61h-154v-388h-66v388h-154v61h374z" />
    <glyph glyph-name="uni2126" unicode="&#x2126;" horiz-adv-x="792" 
d="M738 343q0 -162 -162 -273h152v-70h-269v70q198 94 198 270q0 112 -74 186q-74 73 -188 73t-187 -73q-74 -72 -74 -185q0 -177 198 -271v-70h-269v70h149q-159 106 -159 273q0 141 99 234q98 94 243 94q143 0 243 -94t100 -234z" />
    <glyph glyph-name="estimated" unicode="&#x212e;" horiz-adv-x="795" 
d="M731 327h-544v-202q77 -104 220 -104q78 0 145 33q67 31 111 86l24 -21q-49 -60 -122 -94q-75 -35 -158 -35q-148 0 -248 98q-99 98 -99 238q0 143 101 244q101 100 242 100q80 0 156 -35q77 -35 126 -102q50 -68 50 -152zM407 638q-142 0 -220 -104v-176h421v192
q-75 88 -201 88z" />
    <glyph glyph-name="uni2150" unicode="&#x2150;" horiz-adv-x="917" 
d="M309 304v-60h-262v60h105v296h-100v60h167v-356h90zM626 660h69l-378 -660h-68zM618 416h280v-19l-198 -397h-71l181 356h-192v60z" />
    <glyph glyph-name="uni2151" unicode="&#x2151;" horiz-adv-x="933" 
d="M309 304v-60h-262v60h105v296h-100v60h167v-356h90zM626 660h69l-378 -660h-68zM747 423q59 0 103 -41q42 -40 42 -104q0 -35 -13 -61q-14 -28 -43 -70l-103 -147h-78l99 143q-16 -2 -19 -2q-53 0 -94 41t-41 98q0 62 43 102q44 41 104 41zM747 196q35 0 57 25
q22 23 22 59q0 37 -22 59q-23 23 -57 23t-57 -23t-23 -59q0 -34 23 -59q22 -25 57 -25z" />
    <glyph glyph-name="uni2152" unicode="&#x2152;" horiz-adv-x="1352" 
d="M219 660v-356h90v-60h-262v60h105v296h-100v60h167zM695 660l-378 -660h-68l377 660h69zM1148 423q78 0 117 -58q38 -59 38 -153q0 -96 -38 -158q-39 -61 -117 -61q-77 0 -116 62q-40 61 -40 157q0 95 40 153q39 58 116 58zM809 416v-356h90v-60h-262v60h105v296h-100v60
h167zM1148 362q-88 0 -88 -151q0 -74 22 -115q21 -43 66 -43q89 0 89 158q0 151 -89 151z" />
    <glyph glyph-name="uni2153" unicode="&#x2153;" horiz-adv-x="944" 
d="M309 304v-60h-262v60h105v296h-100v60h167v-356h90zM626 660h69l-378 -660h-68zM795 262q43 -9 77 -41q32 -34 32 -87q0 -63 -43 -102t-107 -39q-98 0 -145 90l46 33q38 -62 97 -62q38 0 61 22q23 23 23 58q0 34 -24 54q-25 19 -71 19h-41v18l97 131h-159v60h257v-19z
" />
    <glyph glyph-name="uni2154" unicode="&#x2154;" horiz-adv-x="960" 
d="M329 304v-60h-294v15l148 159q30 33 49 62q15 26 15 53q0 32 -19 52q-19 21 -50 21q-32 0 -51 -21q-20 -22 -20 -55l2 -32h-65q-4 15 -4 36q0 52 38 93q37 40 100 40q59 0 98 -36q38 -38 38 -93q0 -43 -22 -77q-26 -39 -67 -82l-71 -75h175zM642 660h69l-378 -660h-68z
M811 262q43 -9 77 -41q32 -34 32 -87q0 -63 -43 -102t-107 -39q-98 0 -145 90l46 33q38 -62 97 -62q38 0 61 22q23 23 23 58q0 34 -24 54q-25 19 -71 19h-41v18l97 131h-159v60h257v-19z" />
    <glyph glyph-name="uni2155" unicode="&#x2155;" horiz-adv-x="948" 
d="M309 304v-60h-262v60h105v296h-100v60h167v-356h90zM626 660h69l-378 -660h-68zM764 264q63 0 103 -33q42 -34 42 -95q0 -64 -45 -103q-43 -40 -108 -40q-50 0 -87 25q-39 27 -59 65l46 33q38 -62 99 -62q39 0 62 22q24 21 24 57q0 74 -96 74h-94v209h226v-60h-162v-97
q32 5 49 5z" />
    <glyph glyph-name="uni2156" unicode="&#x2156;" horiz-adv-x="964" 
d="M329 304v-60h-294v15l148 159q30 33 49 62q15 26 15 53q0 32 -19 52q-19 21 -50 21q-32 0 -51 -21q-20 -22 -20 -55l2 -32h-65q-4 15 -4 36q0 52 38 93q37 40 100 40q59 0 98 -36q38 -38 38 -93q0 -43 -22 -77q-26 -39 -67 -82l-71 -75h175zM642 660h69l-378 -660h-68z
M780 264q62 0 103 -33q42 -34 42 -95q0 -64 -45 -103q-43 -40 -108 -40q-50 0 -87 25q-39 27 -59 65l46 33q38 -62 99 -62q39 0 62 22q24 21 24 57q0 74 -96 74h-94v209h226v-60h-162v-97q32 5 49 5z" />
    <glyph glyph-name="uni2157" unicode="&#x2157;" horiz-adv-x="914" 
d="M314 378q0 -63 -43 -102t-107 -39q-98 0 -145 90l46 33q38 -62 97 -62q38 0 61 22q23 23 23 58q0 34 -24 54q-25 19 -71 19h-41v18l97 131h-159v60h257v-19l-100 -136q43 -7 77 -40q32 -34 32 -87zM592 660h69l-378 -660h-68zM730 264q62 0 103 -33q42 -34 42 -95
q0 -64 -45 -103q-43 -40 -108 -40q-50 0 -87 25q-39 27 -59 65l46 33q38 -62 99 -62q39 0 62 22q24 21 24 57q0 74 -96 74h-94v209h226v-60h-162v-97q32 5 49 5z" />
    <glyph glyph-name="uni2158" unicode="&#x2158;" horiz-adv-x="962" 
d="M284 244h-61v73h-207v18l130 325h67l-116 -288h126v130h61v-130h56v-55h-56v-73zM639 660h69l-378 -660h-68zM778 264q62 0 103 -33q42 -34 42 -95q0 -64 -45 -103q-43 -40 -108 -40q-50 0 -87 25q-39 27 -59 65l46 33q38 -62 99 -62q39 0 62 22q24 21 24 57q0 74 -96 74
h-94v209h226v-60h-162v-97q32 5 49 5z" />
    <glyph glyph-name="uni2159" unicode="&#x2159;" horiz-adv-x="883" 
d="M309 304v-60h-262v60h105v296h-100v60h167v-356h90zM626 660h69l-378 -660h-68zM708 275q54 0 94 -40q41 -41 41 -99q0 -62 -43 -102q-44 -41 -104 -41q-59 0 -102 41q-43 40 -43 104q0 35 13 61q14 28 43 70l103 147h78l-99 -143q16 2 19 2zM696 54q34 0 57 23t23 59
q0 34 -23 59q-22 25 -57 25t-57 -25q-22 -23 -22 -59q0 -37 22 -59q23 -23 57 -23z" />
    <glyph glyph-name="uni215A" unicode="&#x215a;" horiz-adv-x="861" 
d="M327 380q0 -64 -44 -103q-44 -40 -109 -40q-51 0 -88 25q-38 26 -58 65l46 33q38 -62 99 -62q39 0 62 22q24 21 24 57q0 74 -96 74h-94v209h226v-60h-162v-98q26 6 49 6q62 0 104 -33q41 -35 41 -95zM604 660h69l-378 -660h-68zM686 275q54 0 94 -40q41 -41 41 -99
q0 -62 -43 -102q-44 -41 -104 -41q-59 0 -102 41q-43 40 -43 104q0 35 13 61q14 28 43 70l103 147h78l-99 -143q16 2 19 2zM674 54q34 0 57 23t23 59q0 34 -23 59q-22 25 -57 25t-57 -25q-22 -23 -22 -59q0 -37 22 -59q23 -23 57 -23z" />
    <glyph glyph-name="oneeighth" unicode="&#x215b;" horiz-adv-x="927" 
d="M309 304v-60h-262v60h105v296h-100v60h167v-356h90zM626 660h69l-378 -660h-68zM796 216q89 -35 89 -108q0 -52 -42 -84q-40 -31 -108 -31q-67 0 -107 31q-41 32 -41 85q0 72 89 107q-70 36 -70 101q0 49 36 78q37 28 93 28q57 0 94 -28t37 -79q0 -64 -70 -100zM735 370
q-29 0 -49 -15q-19 -16 -19 -42q0 -24 17 -39q16 -14 52 -30q37 16 52 31q17 15 17 38q0 25 -20 42q-19 15 -50 15zM735 47q39 0 62 17q23 18 23 47q0 30 -22 46q-22 17 -63 32q-40 -15 -62 -32q-21 -17 -21 -46q0 -30 22 -46q22 -18 61 -18z" />
    <glyph glyph-name="threeeighths" unicode="&#x215c;" horiz-adv-x="893" 
d="M314 378q0 -63 -43 -102t-107 -39q-98 0 -145 90l46 33q38 -62 97 -62q38 0 61 22q23 23 23 58q0 34 -24 54q-25 19 -71 19h-41v18l97 131h-159v60h257v-19l-100 -136q43 -7 77 -40q32 -34 32 -87zM592 660h69l-378 -660h-68zM762 216q89 -35 89 -108q0 -52 -42 -84
q-40 -31 -108 -31q-67 0 -107 31q-41 32 -41 85q0 72 89 107q-70 36 -70 101q0 49 36 78q37 28 93 28q57 0 94 -28t37 -79q0 -64 -70 -100zM701 370q-29 0 -49 -15q-19 -16 -19 -42q0 -24 17 -39q16 -14 52 -30q37 16 52 31q17 15 17 38q0 25 -20 42q-19 15 -50 15zM701 47
q39 0 62 17q23 18 23 47q0 30 -22 46q-22 17 -63 32q-40 -15 -62 -32q-21 -17 -21 -46q0 -30 22 -46q22 -18 61 -18z" />
    <glyph glyph-name="fiveeighths" unicode="&#x215d;" horiz-adv-x="905" 
d="M327 380q0 -64 -44 -103q-44 -40 -109 -40q-51 0 -88 25q-38 26 -58 65l46 33q38 -62 99 -62q39 0 62 22q24 21 24 57q0 74 -96 74h-94v209h226v-60h-162v-98q26 6 49 6q62 0 104 -33q41 -35 41 -95zM604 660h69l-378 -660h-68zM774 216q89 -35 89 -108q0 -52 -42 -84
q-40 -31 -108 -31q-67 0 -107 31q-41 32 -41 85q0 72 89 107q-70 36 -70 101q0 49 36 78q37 28 93 28q57 0 94 -28t37 -79q0 -64 -70 -100zM713 370q-30 0 -49 -15q-19 -16 -19 -42q0 -24 17 -39q16 -14 52 -30q37 16 52 31q17 15 17 38q0 25 -20 42q-20 15 -50 15zM713 47
q39 0 62 17q23 18 23 47q0 30 -22 46q-22 17 -63 32q-40 -15 -62 -32q-21 -17 -21 -46q0 -30 22 -46q22 -18 61 -18z" />
    <glyph glyph-name="seveneighths" unicode="&#x215e;" horiz-adv-x="804" 
d="M308 660v-19l-198 -397h-71l181 356h-192v60h280zM502 660h69l-378 -660h-68zM673 216q89 -35 89 -108q0 -52 -42 -84q-40 -31 -108 -31q-67 0 -107 31q-41 32 -41 85q0 72 89 107q-70 36 -70 101q0 49 36 78q37 28 93 28q57 0 94 -28t37 -79q0 -64 -70 -100zM612 370
q-30 0 -49 -15q-19 -16 -19 -42q0 -24 17 -39q16 -14 52 -30q37 16 52 31q17 15 17 38q0 25 -20 42q-20 15 -50 15zM612 47q39 0 62 17q23 18 23 47q0 30 -22 46q-22 17 -63 32q-40 -15 -62 -32q-21 -17 -21 -46q0 -30 22 -46q23 -18 61 -18z" />
    <glyph glyph-name="arrowleft" unicode="&#x2190;" horiz-adv-x="650" 
d="M597 281l-435 1l194 -195l-45 -46l-265 265v18l265 264l45 -45l-193 -194h434v-68z" />
    <glyph glyph-name="arrowup" unicode="&#x2191;" horiz-adv-x="650" 
d="M598 317l-46 -46l-191 189v-415h-71v417l-192 -191l-46 46l264 263h18z" />
    <glyph glyph-name="arrowright" unicode="&#x2192;" horiz-adv-x="650" 
d="M339 588l265 -264v-18l-265 -265l-45 46l194 195l-435 -1v68h434l-193 194z" />
    <glyph glyph-name="arrowdown" unicode="&#x2193;" horiz-adv-x="650" 
d="M552 359l46 -46l-264 -264h-18l-264 264l46 46l192 -191v417h71v-416z" />
    <glyph glyph-name="arrowboth" unicode="&#x2194;" horiz-adv-x="926" 
d="M615 588l265 -264v-18l-265 -265l-46 46l195 195l-196 -1h-210l-196 1l194 -195l-45 -46l-265 265v18l265 264l45 -45l-193 -194h600l-194 194z" />
    <glyph glyph-name="arrowupdn" unicode="&#x2195;" horiz-adv-x="631" 
d="M352 56l181 181l45 -46l-254 -254h-17l-255 254l46 46l182 -182v550l-182 -182l-46 46l255 254h17l254 -254l-45 -46l-181 181v-548z" />
    <glyph glyph-name="uni2196" unicode="&#x2196;" horiz-adv-x="650" 
d="M280 397l277 -277l-49 -48l-321 321v-280h-70v386l13 13h382v-67h-281z" />
    <glyph glyph-name="uni2197" unicode="&#x2197;" horiz-adv-x="650" 
d="M520 512l13 -13v-386h-70v280l-321 -321l-49 48l277 277l49 48h-281v67h382z" />
    <glyph glyph-name="uni2198" unicode="&#x2198;" horiz-adv-x="650" 
d="M463 497h70v-385l-13 -13h-382v66h281l-326 326l49 48l321 -321v279z" />
    <glyph glyph-name="uni2199" unicode="&#x2199;" horiz-adv-x="650" 
d="M231 165h281v-66h-382l-13 13v385h70v-279l321 321l49 -48z" />
    <glyph glyph-name="partialdiff" unicode="&#x2202;" horiz-adv-x="578" 
d="M293 672q107 0 171 -78q63 -78 63 -227q0 -166 -76 -272q-76 -107 -200 -107q-86 0 -145 53q-60 53 -60 146q0 95 66 155q65 59 180 59q64 0 156 -21q-4 222 -157 222q-83 0 -143 -78l-52 42q28 50 81 78q50 28 116 28zM256 56q78 0 129 71q51 70 61 188q-89 19 -150 19
q-86 0 -129 -41q-42 -42 -42 -103q0 -60 37 -97t94 -37z" />
    <glyph glyph-name="uni2206" unicode="&#x2206;" horiz-adv-x="663" 
d="M346 671l286 -671h-601l286 671h29zM331 518l-188 -448h377z" />
    <glyph glyph-name="product" unicode="&#x220f;" horiz-adv-x="692" 
d="M601 660v-781h-78v711h-354v-711h-78v781h510z" />
    <glyph glyph-name="summation" unicode="&#x2211;" horiz-adv-x="574" 
d="M185 -51h349v-70h-469v21l236 379l-236 360v21h457v-70h-334l196 -299v-21z" />
    <glyph glyph-name="minus" unicode="&#x2212;" 
d="M503 349v-68h-447v68h447z" />
    <glyph glyph-name="uni2219" unicode="&#x2219;" horiz-adv-x="270" 
d="M135 377q26 0 44 -18q19 -18 19 -45q0 -29 -19 -45q-18 -18 -44 -18q-25 0 -45 18q-18 17 -18 45q0 27 18 45q20 18 45 18z" />
    <glyph glyph-name="radical" unicode="&#x221a;" horiz-adv-x="733" 
d="M641 750h85l-513 -883h-29v337h-157v69h232v-180z" />
    <glyph glyph-name="infinity" unicode="&#x221e;" horiz-adv-x="822" 
d="M611 482q80 0 129 -49q50 -50 50 -120q0 -71 -49 -119q-49 -49 -128 -49q-63 0 -109 31q-49 31 -94 84q-49 -55 -94 -84q-46 -31 -108 -31q-77 0 -126 49q-49 48 -49 119t49 120t128 49q61 0 108 -29q45 -29 93 -83q45 53 92 83q47 29 108 29zM216 216q40 0 74 25
q36 28 74 73q-40 47 -73 72q-34 25 -75 25q-46 0 -75 -26q-30 -27 -30 -71q0 -46 30 -71q29 -27 75 -27zM606 216q46 0 76 27q29 26 29 71q0 44 -30 71q-31 26 -76 26q-40 0 -73 -24q-34 -25 -75 -72q42 -48 76 -74q32 -25 73 -25z" />
    <glyph glyph-name="integral" unicode="&#x222b;" horiz-adv-x="327" 
d="M258 787q37 0 65 -7v-64q-11 0 -22.5 0.5t-17.5 1t-9 0.5q-106 0 -105 -123q0 -55 34 -266t34 -278q0 -90 -45 -135q-46 -44 -122 -44q-37 0 -65 7v64q11 0 22.5 -0.5t17.5 -1t9 -0.5q105 0 105 122q0 53 -35 269q-35 218 -35 276q0 89 46 134q45 45 123 45z" />
    <glyph glyph-name="approxequal" unicode="&#x2248;" 
d="M153 509q41 0 84 -28l94 -57q44 -25 62 -25t28 13q10 11 10 32v19h63q2 -10 2 -27q0 -45 -26 -76q-27 -31 -71 -31q-39 0 -83 26l-94 58q-40 25 -61 25q-17 0 -28 -12q-11 -14 -11 -33v-18h-63v11q-1 7 -1 16q0 44 26 76q25 31 69 31zM153 296q41 0 84 -27l94 -57
q44 -25 62 -25q17 0 28 12q10 13 10 32v19h63q2 -10 2 -26q0 -45 -26 -77q-27 -30 -71 -30q-39 0 -83 26l-94 57q-43 26 -61 26t-28 -13q-11 -13 -11 -32v-18h-63v11q-1 7 -1 15q0 44 26 76q25 31 69 31z" />
    <glyph glyph-name="notequal" unicode="&#x2260;" 
d="M494 384h-133l-88 -139h221v-68h-263l-70 -111h-72l69 111h-92v68h135l88 139h-223v69h266l68 107h71l-67 -107h90v-69z" />
    <glyph glyph-name="lessequal" unicode="&#x2264;" 
d="M490 527v-73l-293 -110l293 -110v-73l-438 172v22zM62 0v68h428v-68h-428z" />
    <glyph glyph-name="greaterequal" unicode="&#x2265;" 
d="M70 527l439 -172v-22l-439 -172v73l293 110l-293 110v73zM70 0v68h428v-68h-428z" />
    <glyph glyph-name="uni24EA" unicode="&#x24ea;" horiz-adv-x="975" 
d="M487 761q179 0 305 -126q126 -128 126 -305q0 -178 -126 -304q-126 -127 -305 -127q-178 0 -304 126t-126 305t126 305t304 126zM487 699q-154 0 -260 -106q-107 -107 -107 -263q0 -155 107 -262t260 -107t262 107q107 107 107 262t-107 262q-109 107 -262 107zM487 561
q83 0 127 -63q43 -61 43 -165t-43 -169q-44 -66 -127 -66q-85 0 -125 66q-42 66 -42 169t42 165q42 63 125 63zM487 501q-100 0 -100 -168q0 -175 100 -175q102 0 102 175q0 168 -102 168z" />
    <glyph glyph-name="uni24FF" unicode="&#x24ff;" horiz-adv-x="975" 
d="M487 761q179 0 305 -126q126 -128 126 -305q0 -178 -126 -304q-126 -127 -305 -127q-178 0 -304 126t-126 305t126 305t304 126zM487 561q-84 0 -126 -62q-43 -62 -43 -166q0 -103 42 -169t127 -66t128 66q43 65 43 169t-43 166q-44 62 -128 62zM487 497q98 0 98 -164
q0 -171 -98 -171q-96 0 -96 171q0 164 96 164z" />
    <glyph glyph-name="filledbox" unicode="&#x25a0;" horiz-adv-x="730" 
d="M640 605v-550h-550v550h550z" />
    <glyph glyph-name="uni25A1" unicode="&#x25a1;" horiz-adv-x="730" 
d="M640 605v-550h-550v550h550zM562 534h-394v-408h394v408z" />
    <glyph glyph-name="uni25AA" unicode="&#x25aa;" horiz-adv-x="541" 
d="M461 434v-380h-381v380h381z" />
    <glyph glyph-name="uni25AB" unicode="&#x25ab;" horiz-adv-x="541" 
d="M461 434v-380h-381v380h381zM387 366h-233v-244h233v244z" />
    <glyph glyph-name="triagup" unicode="&#x25b2;" horiz-adv-x="730" 
d="M373 660l336 -592l-7 -13h-674l-7 13l337 592h15z" />
    <glyph glyph-name="uni25B3" unicode="&#x25b3;" horiz-adv-x="730" 
d="M373 660l336 -592l-7 -13h-674l-7 13l337 592h15zM586 133l-221 388l-221 -388h442z" />
    <glyph glyph-name="uni25B4" unicode="&#x25b4;" horiz-adv-x="528" 
d="M272 473l231 -406l-7 -13h-464l-7 13l232 406h15z" />
    <glyph glyph-name="uni25B5" unicode="&#x25b5;" horiz-adv-x="528" 
d="M272 473l231 -406l-7 -13h-464l-7 13l232 406h15zM393 119l-129 226l-128 -226h257z" />
    <glyph glyph-name="uni25B6" unicode="&#x25b6;" horiz-adv-x="645" 
d="M103 671l519 -334v-15l-519 -333l-13 7v668z" />
    <glyph glyph-name="uni25B7" unicode="&#x25b7;" horiz-adv-x="645" 
d="M103 671l519 -334v-15l-519 -333l-13 7v668zM494 330l-326 209v-418z" />
    <glyph glyph-name="uni25B8" unicode="&#x25b8;" horiz-adv-x="480" 
d="M93 480l356 -228v-15l-356 -228l-13 7v457z" />
    <glyph glyph-name="uni25B9" unicode="&#x25b9;" horiz-adv-x="480" 
d="M93 480l356 -228v-15l-356 -228l-13 7v457zM332 244l-181 116v-231z" />
    <glyph glyph-name="triagrt" unicode="&#x25ba;" horiz-adv-x="961" 
d="M103 671l828 -334v-15l-828 -333l-13 7v668z" />
    <glyph glyph-name="uni25BB" unicode="&#x25bb;" horiz-adv-x="961" 
d="M103 671l828 -334v-15l-828 -333l-13 7v668zM749 330l-581 233v-467z" />
    <glyph glyph-name="triagdn" unicode="&#x25bc;" horiz-adv-x="730" 
d="M373 0h-15l-337 592l7 13h674l7 -13z" />
    <glyph glyph-name="uni25BD" unicode="&#x25bd;" horiz-adv-x="730" 
d="M702 605l7 -13l-336 -592h-15l-337 592l7 13h674zM586 527h-442l221 -388z" />
    <glyph glyph-name="uni25BE" unicode="&#x25be;" horiz-adv-x="528" 
d="M496 434l7 -13l-231 -406h-15l-232 406l7 13h464z" />
    <glyph glyph-name="uni25BF" unicode="&#x25bf;" horiz-adv-x="528" 
d="M496 434l7 -13l-231 -406h-15l-232 406l7 13h464zM393 368h-257l128 -225z" />
    <glyph glyph-name="uni25C0" unicode="&#x25c0;" horiz-adv-x="645" 
d="M542 671l13 -7v-668l-13 -7l-519 333v15z" />
    <glyph glyph-name="uni25C1" unicode="&#x25c1;" horiz-adv-x="682" 
d="M579 671l13 -7v-668l-13 -7l-519 333v15zM514 539l-326 -210l326 -208v418z" />
    <glyph glyph-name="uni25C2" unicode="&#x25c2;" horiz-adv-x="480" 
d="M387 480l13 -7v-457l-13 -7l-356 228v15z" />
    <glyph glyph-name="uni25C3" unicode="&#x25c3;" horiz-adv-x="480" 
d="M387 480l13 -7v-457l-13 -7l-356 228v15zM329 360l-181 -116l181 -115v231z" />
    <glyph glyph-name="triaglf" unicode="&#x25c4;" horiz-adv-x="961" 
d="M858 671l13 -7v-668l-13 -7l-828 333v15z" />
    <glyph glyph-name="uni25C5" unicode="&#x25c5;" horiz-adv-x="961" 
d="M858 671l13 -7v-668l-13 -7l-828 333v15zM793 96v467l-581 -233z" />
    <glyph glyph-name="lozenge" unicode="&#x25ca;" horiz-adv-x="665" 
d="M347 671l213 -341l-213 -341h-29l-213 342l213 340h29zM334 103l142 227l-144 229l-142 -228z" />
    <glyph glyph-name="circle" unicode="&#x25cb;" horiz-adv-x="776" 
d="M388 659q136 0 232 -96q96 -97 96 -234q0 -136 -96 -232t-232 -96q-137 0 -233 96t-96 232q0 137 97 234q96 96 232 96zM388 587q-106 0 -180 -75q-73 -74 -73 -183t73 -182q74 -74 180 -74t179 75q73 73 73 181q0 109 -73 183q-74 75 -179 75z" />
    <glyph glyph-name="uni25CF" unicode="&#x25cf;" horiz-adv-x="776" 
d="M388 659q136 0 232 -96q96 -97 96 -234q0 -136 -96 -232t-232 -96q-137 0 -233 96t-96 232q0 137 97 234q96 96 232 96z" />
    <glyph glyph-name="uni261C" unicode="&#x261c;" horiz-adv-x="1216" 
d="M1178 275v-27l-85 -73l47 -174l-25 -18l-223 143q-94 -49 -187 -77q-98 -29 -164 -29q-105 0 -105 69q0 22 14 39q-46 15 -46 58q0 26 24 46q-35 17 -35 53q0 19 14 36l-194 6q-88 3 -125 24q-38 21 -38 67q0 50 42 68q45 17 146 17q96 0 185 -10q2 45 25 68q25 23 59 23
q39 0 77 -23l238 -144q29 -8 67 -22l226 144l25 -16l-47 -175zM522 524q-30 0 -32 -38q73 -10 146 -24l-83 51q-24 11 -31 11zM537 77q53 0 155 29q102 31 180 76v158q-121 48 -302 77q-184 30 -346 30q-62 0 -85 -6t-23 -24q0 -17 19 -24q18 -8 70 -9l135 -6q50 -3 130 -6
l102 -4v-52l-97 2q-9 0 -17 -6q-7 -6 -7 -15q0 -10 6 -16q6 -7 16 -7h110v-51h-99q-9 0 -15 -6q-6 -7 -6 -17q0 -22 21 -22h109v-52q-25 -3 -67 -3h-8q-24 0 -24 -22q0 -24 43 -24zM933 353v-184l125 -78l-31 108l77 63l-77 61l32 109z" />
    <glyph glyph-name="uni261E" unicode="&#x261e;" horiz-adv-x="1216" 
d="M990 503q101 0 146 -17q42 -18 42 -68q0 -46 -38 -67q-37 -21 -125 -24l-194 -6q15 -17 15 -36q0 -37 -36 -53q24 -20 24 -46q0 -43 -46 -58q14 -17 14 -39q0 -69 -105 -69q-66 0 -164 29q-93 28 -187 77l-223 -143l-25 18l47 174l-85 73v27l85 73l-47 175l25 16
l226 -144q38 14 67 22l238 144q38 23 77 23q34 0 59 -23q23 -23 25 -68q89 10 185 10zM675 513l-83 -51q73 14 146 24q-2 38 -32 38q-7 0 -31 -11zM1023 384q51 1 71 9q18 7 18 24q0 18 -22 24t-86 6q-161 0 -346 -30q-181 -29 -302 -77v-158q80 -46 180 -75
q100 -30 155 -30q43 0 43 24q0 22 -24 22h-8q-42 0 -67 3v52h109q21 0 21 22q0 10 -6 17q-6 6 -15 6h-99v51h110q10 0 16 7q6 6 6 16q0 21 -24 21l-97 -2v52q8 0 21.5 0.5t38 1.5t43.5 2q77 3 129 6zM295 169v184l-126 79l32 -109l-77 -61l77 -63l-31 -108z" />
    <glyph glyph-name="uni2661" unicode="&#x2661;" horiz-adv-x="860" 
d="M613 671q82 0 137 -55q56 -56 56 -141q0 -50 -24 -95q-23 -44 -84 -109l-261 -282h-15l-261 282q-61 65 -84 109q-24 45 -24 95q0 85 56 141q55 55 137 55q63 0 113 -35q47 -35 70 -93q23 58 71 93q50 35 113 35zM637 317q49 55 68 88q20 37 20 75q0 52 -33 86
q-33 33 -84 33q-58 0 -99 -47q-39 -45 -61 -121h-37q-22 76 -61 121q-41 47 -100 47q-50 0 -83 -33q-33 -34 -33 -86q0 -38 21 -76q22 -39 67 -87l207 -227z" />
    <glyph glyph-name="heart" unicode="&#x2665;" horiz-adv-x="860" 
d="M613 671q82 0 137 -55q56 -56 56 -141q0 -50 -24 -95q-23 -44 -84 -109l-261 -282h-15l-261 282q-61 65 -84 109q-24 45 -24 95q0 85 56 141q55 55 137 55q63 0 113 -35q47 -35 70 -93q23 58 71 93q50 35 113 35z" />
    <glyph glyph-name="uni275B" unicode="&#x275b;" horiz-adv-x="655" 
d="M388 426q90 0 154 -63q64 -64 64 -155q0 -88 -63 -153t-170 -65q-134 0 -230 99q-95 98 -95 240q0 143 96 243q98 99 244 99q117 0 205 -70l-32 -51q-73 57 -169 57q-118 0 -196 -80q-78 -79 -78 -198q0 -103 62 -182q-10 30 -10 61q0 90 64 154t154 64z" />
    <glyph glyph-name="uni275C" unicode="&#x275c;" horiz-adv-x="655" 
d="M281 670q134 0 229 -98q96 -99 96 -241q0 -143 -96 -242q-97 -100 -244 -100q-117 0 -205 70l33 51q74 -57 169 -57q116 0 196 80q78 79 78 198q0 103 -62 182q9 -29 9 -61q0 -90 -64 -154t-154 -64t-154 64q-64 63 -64 154q0 90 63 154t170 64z" />
    <glyph glyph-name="uni275D" unicode="&#x275d;" horiz-adv-x="1275" 
d="M1008 426q90 0 154 -63q64 -64 64 -155q0 -88 -63 -153t-170 -65q-134 0 -230 99q-95 98 -95 240q0 143 96 243q98 99 244 99q117 0 205 -70l-32 -51q-73 57 -169 57q-118 0 -196 -80q-78 -79 -78 -198q0 -103 61 -182q-9 30 -9 61q0 90 64 154t154 64zM388 426
q90 0 154 -63q64 -64 64 -155q0 -88 -63 -153t-170 -65q-134 0 -230 99q-95 98 -95 240q0 143 96 243q98 99 244 99q117 0 205 -70l-32 -51q-73 57 -169 57q-118 0 -196 -80q-78 -79 -78 -198q0 -103 62 -182q-10 30 -10 61q0 90 64 154t154 64z" />
    <glyph glyph-name="uni275E" unicode="&#x275e;" horiz-adv-x="1275" 
d="M281 670q134 0 229 -98q96 -99 96 -241q0 -143 -96 -242q-97 -100 -244 -100q-117 0 -205 70l33 51q74 -57 169 -57q116 0 196 80q78 79 78 198q0 103 -62 182q9 -29 9 -61q0 -90 -64 -154t-154 -64t-154 64q-64 63 -64 154q0 90 63 154t170 64zM902 670q134 0 230 -98
q95 -100 95 -241q0 -143 -96 -242q-97 -100 -244 -100q-117 0 -205 70l32 51q74 -57 169 -57q118 0 196 80q78 79 78 198q0 105 -61 182q9 -30 9 -61q0 -90 -64 -154t-154 -64t-154 64q-64 63 -64 154q0 90 63 154t170 64z" />
    <glyph glyph-name="uni2776" unicode="&#x2776;" horiz-adv-x="975" 
d="M487 761q179 0 305 -126q126 -128 126 -305q0 -178 -126 -304q-126 -127 -305 -127q-178 0 -304 126t-126 305t126 305t304 126zM527 554h-164v-61h93v-327h-100v-61h265v61h-94v388z" />
    <glyph glyph-name="uni2777" unicode="&#x2777;" horiz-adv-x="975" 
d="M487 761q179 0 305 -126q126 -128 126 -305q0 -178 -126 -304q-126 -127 -305 -127q-178 0 -304 126t-126 305t126 305t304 126zM483 561q-67 0 -111 -42q-43 -43 -43 -101q0 -18 5 -43h65q-4 21 -4 38q0 34 23 60q22 24 62 24q37 0 58 -22q21 -23 21 -56q0 -31 -17 -59
q-17 -27 -54 -67l-160 -172v-16h323v61h-198l92 97q45 47 65 80q22 35 22 80q0 60 -41 99q-42 39 -108 39z" />
    <glyph glyph-name="uni2778" unicode="&#x2778;" horiz-adv-x="975" 
d="M487 761q179 0 305 -126q126 -128 126 -305q0 -178 -126 -304q-126 -127 -305 -127q-178 0 -304 126t-126 305t126 305t304 126zM628 554h-280v-63h172l-109 -143v-20h49q50 0 78 -20q26 -21 26 -59q0 -39 -26 -63t-65 -24q-60 0 -107 68l-49 -36q23 -44 63 -69
q40 -27 94 -27q68 0 117 42q48 42 48 109q0 58 -36 94q-36 35 -88 42l113 149v20z" />
    <glyph glyph-name="uni2779" unicode="&#x2779;" horiz-adv-x="975" 
d="M487 761q179 0 305 -126q126 -128 126 -305q0 -178 -126 -304q-126 -127 -305 -127q-178 0 -304 126t-126 305t126 305t304 126zM512 554h-75l-138 -351v-20h226v-78h70v78h61v63h-61v133h-70v-133h-139z" />
    <glyph glyph-name="uni277A" unicode="&#x277a;" horiz-adv-x="975" 
d="M487 761q179 0 305 -126q126 -128 126 -305q0 -178 -126 -304q-126 -127 -305 -127q-178 0 -304 126t-126 305t126 305t304 126zM613 554h-245v-226h102q104 0 104 -79q0 -39 -26 -63q-25 -25 -67 -25q-61 0 -108 69l-50 -36q22 -42 64 -70q41 -27 97 -27q69 0 116 43
q48 42 48 110q0 66 -45 104q-45 36 -107 36q-37 0 -60 -4v105h177v63z" />
    <glyph glyph-name="uni277B" unicode="&#x277b;" horiz-adv-x="975" 
d="M487 761q179 0 305 -126q126 -128 126 -305q0 -178 -126 -304q-126 -127 -305 -127q-178 0 -304 126t-126 305t126 305t304 126zM577 554h-84l-112 -158q-18 -26 -34 -51q-10 -16 -19 -41q-9 -26 -9 -51q0 -68 46 -111q47 -44 112 -44q66 0 113 44t47 110q0 54 -35 95
q-34 40 -86 48q-29 4 -55 -5zM477 342q38 0 63 -25t25 -64t-25 -64q-26 -27 -63 -27t-62 27q-25 25 -25 64q0 38 25 63q26 26 62 26z" />
    <glyph glyph-name="uni277C" unicode="&#x277c;" horiz-adv-x="975" 
d="M487 761q179 0 305 -126q126 -128 126 -305q0 -178 -126 -304q-126 -127 -305 -127q-178 0 -304 126t-126 305t126 305t304 126zM652 555h-307v-65h212l-200 -384h78l217 429v20z" />
    <glyph glyph-name="uni277D" unicode="&#x277d;" horiz-adv-x="975" 
d="M487 761q179 0 305 -126q126 -128 126 -305q0 -178 -126 -304q-126 -127 -305 -127q-178 0 -304 126t-126 305t126 305t304 126zM488 561q-62 0 -102 -30q-40 -31 -40 -85q0 -70 79 -107q-100 -37 -100 -116q0 -57 45 -91q44 -34 118 -34q72 0 118 34q45 34 45 90
q0 79 -99 118q78 38 78 106q0 54 -40 85q-40 30 -102 30zM488 504q33 0 53 -16q20 -17 20 -46q0 -26 -18 -43q-20 -17 -56 -30q-72 27 -72 73q0 30 21 46q19 16 52 16zM487 313q45 -16 69 -35q23 -20 23 -52t-24 -51q-25 -20 -67 -20q-43 0 -68 20q-24 19 -24 52q0 31 23 51
q23 19 68 35z" />
    <glyph glyph-name="uni277E" unicode="&#x277e;" horiz-adv-x="975" 
d="M488 761q178 0 304 -126t126 -305t-126 -305t-304 -126q-179 0 -305 126q-126 127 -126 305q0 177 126 305q126 126 305 126zM498 562q-65 0 -112 -44t-47 -110q0 -54 35 -95t86 -48q30 -5 54 5l-115 -164h84l112 158q46 68 55 96q7 21 7 47q0 67 -46 110q-47 45 -113 45
zM498 498q36 0 62 -27q25 -25 25 -64q0 -38 -25 -63q-26 -26 -62 -26q-37 0 -62 25q-26 26 -26 64t26 64q26 27 62 27z" />
    <glyph glyph-name="uni2780" unicode="&#x2780;" horiz-adv-x="975" 
d="M487 761q179 0 305 -126q126 -128 126 -305q0 -178 -126 -304q-126 -127 -305 -127q-178 0 -304 126t-126 305t126 305t304 126zM487 694q-151 0 -256 -105q-106 -105 -106 -259t106 -259q105 -105 256 -105q152 0 258 106q105 105 105 258q0 152 -105 259
q-107 105 -258 105zM527 554v-388h94v-61h-265v61h100v327h-93v61h164z" />
    <glyph glyph-name="uni2781" unicode="&#x2781;" horiz-adv-x="975" 
d="M487 761q179 0 305 -126q126 -128 126 -305q0 -178 -126 -304q-126 -127 -305 -127q-178 0 -304 126t-126 305t126 305t304 126zM487 694q-151 0 -256 -105q-106 -105 -106 -259t106 -259q105 -105 256 -105q152 0 258 106q105 105 105 258q0 152 -105 259
q-107 105 -258 105zM483 561q66 0 108 -39q41 -39 41 -99q0 -45 -22 -80q-20 -33 -65 -80l-93 -97h199v-61h-323v16l160 172q37 40 54 67q17 28 17 59q0 33 -21 56q-21 22 -58 22q-40 0 -62 -24q-23 -26 -23 -60q0 -17 4 -38h-65q-5 25 -5 43q0 58 43 101q44 42 111 42z" />
    <glyph glyph-name="uni2782" unicode="&#x2782;" horiz-adv-x="975" 
d="M487 761q179 0 305 -126q126 -128 126 -305q0 -178 -126 -304q-126 -127 -305 -127q-178 0 -304 126t-126 305t126 305t304 126zM487 694q-151 0 -256 -105q-106 -105 -106 -259t106 -259q105 -105 256 -105q152 0 258 106q105 105 105 258q0 152 -105 259
q-107 105 -258 105zM628 554v-20l-113 -149q52 -7 88 -42q36 -36 36 -94q0 -67 -48 -109q-49 -42 -117 -42q-54 0 -94 27q-40 25 -63 69l49 36q47 -68 107 -68q39 0 65 24t26 63q0 38 -26 59q-28 20 -78 20h-49v20l109 143h-172v63h280z" />
    <glyph glyph-name="uni2783" unicode="&#x2783;" horiz-adv-x="975" 
d="M487 761q179 0 305 -126q126 -128 126 -305q0 -178 -126 -304q-126 -127 -305 -127q-178 0 -304 126t-126 305t126 305t304 126zM487 694q-151 0 -256 -105q-106 -105 -106 -259t106 -259q105 -105 256 -105q152 0 258 106q105 105 105 258q0 152 -105 259
q-107 105 -258 105zM512 554l-126 -308h139v133h70v-133h61v-63h-61v-78h-70v78h-226v20l138 351h75z" />
    <glyph glyph-name="uni2784" unicode="&#x2784;" horiz-adv-x="975" 
d="M487 761q179 0 305 -126q126 -128 126 -305q0 -178 -126 -304q-126 -127 -305 -127q-178 0 -304 126t-126 305t126 305t304 126zM487 694q-151 0 -256 -105q-106 -105 -106 -259t106 -259q105 -105 256 -105q152 0 258 106q105 105 105 258q0 152 -105 259
q-107 105 -258 105zM614 554v-63h-177v-105q23 4 59 4q63 0 109 -37q45 -38 45 -103q0 -68 -48 -110q-49 -43 -118 -43q-109 0 -161 97l51 36q45 -69 107 -69q42 0 68 25q26 24 26 63q0 38 -27 59q-28 20 -77 20h-103v226h246z" />
    <glyph glyph-name="uni2785" unicode="&#x2785;" horiz-adv-x="975" 
d="M487 761q179 0 305 -126q126 -128 126 -305q0 -178 -126 -304q-126 -127 -305 -127q-178 0 -304 126t-126 305t126 305t304 126zM487 694q-151 0 -256 -105q-106 -105 -106 -259t106 -259q105 -105 256 -105q152 0 258 106q105 105 105 258q0 152 -105 259
q-107 105 -258 105zM577 554l-116 -164q26 9 55 5q52 -8 86 -48q35 -41 35 -95q0 -66 -47 -110t-113 -44q-65 0 -112 44q-46 43 -46 111q0 25 9 51q9 25 19 41q16 25 34 51l112 158h84zM477 342q-36 0 -62 -26q-25 -25 -25 -63q0 -39 25 -64q26 -27 62 -27q37 0 63 27
q25 25 25 64t-25 64t-63 25z" />
    <glyph glyph-name="uni2786" unicode="&#x2786;" horiz-adv-x="975" 
d="M487 761q179 0 305 -126q126 -128 126 -305q0 -178 -126 -304q-126 -127 -305 -127q-178 0 -304 126t-126 305t126 305t304 126zM487 694q-151 0 -256 -105q-106 -105 -106 -259t106 -259q105 -105 256 -105q152 0 258 106q105 105 105 258q0 152 -105 259
q-107 105 -258 105zM651 555v-20l-217 -429h-78l200 384h-212v65h307z" />
    <glyph glyph-name="uni2787" unicode="&#x2787;" horiz-adv-x="975" 
d="M487 761q179 0 305 -126q126 -128 126 -305q0 -178 -126 -304q-126 -127 -305 -127q-178 0 -304 126t-126 305t126 305t304 126zM487 694q-151 0 -256 -105q-106 -105 -106 -259t106 -259q105 -105 256 -105q152 0 258 106q105 105 105 258q0 152 -105 259
q-107 105 -258 105zM488 561q62 0 102 -30q40 -31 40 -85q0 -68 -78 -106q99 -39 99 -118q0 -56 -45 -90q-46 -34 -118 -34q-74 0 -118 34q-45 34 -45 91q0 79 100 116q-79 37 -79 107q0 54 40 85q40 30 102 30zM488 504q-33 0 -53 -16q-20 -17 -20 -46q0 -46 72 -73
q36 13 56 30q18 17 18 43q0 29 -20 46q-20 16 -53 16zM487 313q-45 -16 -68 -35q-23 -20 -23 -51q0 -33 24 -52q25 -20 68 -20q42 0 67 20q24 19 24 51t-23 52q-24 19 -69 35z" />
    <glyph glyph-name="uni2788" unicode="&#x2788;" horiz-adv-x="975" 
d="M488 761q178 0 304 -126t126 -305t-126 -305t-304 -126q-179 0 -305 126q-126 127 -126 305q0 177 126 305q126 126 305 126zM488 694q-152 0 -258 -106q-105 -105 -105 -258q0 -152 105 -259q106 -105 258 -105q150 0 257 105q105 105 105 259t-105 259
q-107 105 -257 105zM498 562q66 0 113 -45q46 -43 46 -110q0 -26 -10 -52q-11 -25 -18 -39q-2 -4 -6.5 -10.5t-13 -19t-14.5 -22.5l-112 -158h-84l115 164q-24 -10 -54 -5q-52 7 -87 48q-34 40 -34 95q0 67 46 110q47 44 113 44zM498 498q-38 0 -63 -27q-25 -25 -25 -64
t25 -64t63 -25q36 0 62 26q25 25 25 63q0 39 -25 64q-26 27 -62 27z" />
    <glyph glyph-name="uni27F5" unicode="&#x27f5;" horiz-adv-x="1216" 
d="M1164 281l-982 1l195 -195l-46 -46l-265 265v18l265 264l46 -45l-194 -194h981v-68z" />
    <glyph glyph-name="uni27F6" unicode="&#x27f6;" horiz-adv-x="1216" 
d="M885 588l265 -264v-18l-265 -265l-45 46l194 195l-982 -1v68h981l-193 194z" />
    <glyph glyph-name="uniF8FF" unicode="&#xf8ff;" horiz-adv-x="722" 
d="M99 0v660h524v-660h-524zM458 123q36 0 58 22t22 54q0 26 -17 55q-17 30 -45 46l-24 -25q45 -44 45 -76q0 -18 -10 -28q-11 -11 -27 -11q-24 0 -43 27q-20 28 -54 103q83 46 111 78q28 29 28 62q0 38 -27 61q-29 21 -75 21q-3 0 -33 -2l26 55l-41 7l-33 -71
q-46 -9 -103 -36q-23 -66 -23 -161q0 -78 20 -158l42 -8q21 107 43 187q17 63 52 147q17 4 41 4q70 0 70 -50q0 -24 -26 -48q-29 -25 -114 -74l-1 -6q40 -101 67 -137q29 -38 71 -38zM231 202q-2 46 -2 81q0 86 23 157q20 12 51 20q-52 -132 -65 -258h-7z" />
    <glyph glyph-name="Alpha.ordn" horiz-adv-x="434" 
d="M338 244l-28 71h-186l-27 -71h-73l182 423h23l182 -423h-73zM289 369l-72 176l-73 -176h145z" />
    <glyph glyph-name="Eta.ordn" horiz-adv-x="476" 
d="M409 660v-416h-69v190h-205v-190h-68v416h68v-164h205v164h69z" />
    <glyph glyph-name="Nu.ordn" horiz-adv-x="476" 
d="M340 660h69v-423h-25l-249 279v-272h-68v423h25l248 -278v271z" />
    <glyph glyph-name="Omicron.ordn" horiz-adv-x="507" 
d="M253 667q90 0 155 -62q63 -61 63 -153t-63 -153q-65 -62 -155 -62t-154 62q-63 61 -63 153t63 153q64 62 154 62zM254 604q-66 0 -106 -42q-42 -44 -42 -110q0 -67 42 -109q40 -43 106 -43q63 0 106 43q42 43 42 109t-42 109q-43 43 -106 43z" />
    <glyph glyph-name="Rho.ordn" horiz-adv-x="385" 
d="M218 660q64 0 101 -34q38 -35 38 -91t-38 -91q-39 -36 -101 -36h-88v-164h-63v416h151zM217 605h-87v-142h87q38 0 57 19q20 20 20 52q0 31 -20 51q-22 20 -57 20z" />
    <glyph glyph-name="Sigma.ordn" horiz-adv-x="375" 
d="M153 305h194v-61h-301v15l134 198l-134 187v16h294v-62h-184l99 -133v-15z" />
    <glyph glyph-name="Upsilon.ordn" horiz-adv-x="402" 
d="M374 660l-139 -248v-168h-67v166l-140 250h74l99 -179l100 179h73z" />
    <glyph glyph-name="alpha.ordn" horiz-adv-x="430" 
d="M391 300h18v-56q-20 -5 -38 -5q-54 0 -72 48q-35 -50 -107 -50q-65 0 -109 47q-43 46 -43 115t43 115t109 46q72 0 107 -50v44h62v-218q0 -21 7 -28q8 -8 23 -8zM203 298q36 0 64 26q27 26 27 74q0 50 -27 75q-28 26 -65 26q-40 0 -68 -28t-28 -72t28 -72q29 -29 69 -29z
" />
    <glyph glyph-name="eta.ordn" horiz-adv-x="394" 
d="M220 560q53 0 84 -34t31 -89v-306h-66v297q0 32 -18 51q-18 20 -47 20q-28 0 -48 -20t-20 -51v-184h-67v213q0 41 -29 41q-12 0 -19 -1v57q20 5 40 5q47 0 64 -38q37 39 95 39z" />
    <glyph glyph-name="nu.ordn" horiz-adv-x="353" 
d="M263 554h70l-145 -317h-23l-146 317h71l86 -200z" />
    <glyph glyph-name="omicron.ordn" horiz-adv-x="407" 
d="M203 559q69 0 116 -46q48 -47 48 -115t-48 -114q-49 -47 -116 -47q-68 0 -115 47q-48 46 -48 114t48 115q46 46 115 46zM203 500q-43 0 -70 -28t-27 -74q0 -44 27 -73t70 -29q42 0 71 29q27 29 27 73q0 46 -27 74q-28 28 -71 28z" />
    <glyph glyph-name="rho.ordn" horiz-adv-x="419" 
d="M218 560q71 0 116 -46t45 -116q0 -69 -43 -115t-108 -46q-63 0 -103 43v-149h-67v266q0 73 45 118q43 45 115 45zM215 298q42 0 70 28t28 72q0 45 -28 73t-70 28q-38 0 -64 -25q-27 -26 -27 -75t28 -74q27 -27 63 -27z" />
    <glyph glyph-name="uni03C2.ordn" horiz-adv-x="353" 
d="M202 560q88 0 132 -72l-46 -38q-34 49 -88 49q-41 0 -67 -25q-27 -26 -27 -66q0 -43 30 -67q28 -25 80 -42q27 -9 36 -13q16 -7 31 -18q17 -13 26 -30q8 -18 8 -41q0 -37 -17 -66h-65q15 36 15 55q0 38 -59 56q-36 12 -52 20q-22 11 -46 28q-26 18 -39 46q-14 28 -14 64
q0 70 47 115t115 45z" />
    <glyph glyph-name="sigma.ordn" horiz-adv-x="411" 
d="M405 554v-58h-78q39 -42 39 -102q0 -64 -48 -111q-49 -46 -116 -46q-68 0 -114 46q-48 47 -48 115q0 67 47 111q47 45 121 45h197zM202 298q41 0 70 29q28 28 28 71q0 42 -28 69q-28 28 -70 28q-41 0 -68 -28q-28 -27 -28 -69q0 -43 28 -71q27 -29 68 -29z" />
    <glyph glyph-name="upsilon.ordn" horiz-adv-x="376" 
d="M301 554q27 -87 27 -159q0 -80 -37 -118q-37 -40 -97 -40q-61 0 -98 37q-38 38 -38 102v178h67v-183q0 -35 18 -54t48 -19q32 0 52 23t20 72q0 65 -27 161h65z" />
    <glyph glyph-name="zero.lf" horiz-adv-x="615" 
d="M308 671q119 0 181 -92q60 -91 60 -243q0 -98 -24 -174q-23 -74 -80 -125q-55 -48 -137 -48q-121 0 -182 97q-60 98 -60 250t61 243q62 92 181 92zM308 599q-161 0 -161 -264q0 -127 39 -200q39 -74 122 -74t122 74q38 74 38 200q0 264 -160 264z" />
    <glyph glyph-name="one.lf" horiz-adv-x="379" 
d="M242 660h29v-660h-78v568l-144 -45l-19 67z" />
    <glyph glyph-name="two.lf" 
d="M195 70h311v-70h-459v20l235 250q59 62 89 106q27 43 27 91q0 56 -34 93q-34 39 -93 39q-60 0 -96 -40q-36 -41 -36 -96q0 -28 6 -55h-80q-7 25 -7 58q0 81 59 143t154 62q91 0 150 -57q58 -57 58 -143q0 -45 -21 -90q-20 -45 -45 -76t-72 -81z" />
    <glyph glyph-name="three.lf" horiz-adv-x="538" 
d="M291 412q79 -7 136 -60q57 -52 57 -143q0 -99 -69 -159q-68 -61 -165 -61q-76 0 -133 39q-57 37 -91 98l55 39q69 -104 168 -104q67 0 111 41q43 40 43 106q0 64 -43 100q-44 36 -124 36h-65v23l173 221h-273v72h396v-23z" />
    <glyph glyph-name="four.lf" horiz-adv-x="548" 
d="M526 191v-68h-96v-123h-78v123h-331v22l217 515h80l-198 -469h232v220h78v-220h96z" />
    <glyph glyph-name="five.lf" horiz-adv-x="555" 
d="M275 413q96 0 161 -52q65 -53 65 -152t-69 -160q-69 -60 -165 -60q-78 0 -136 38q-56 36 -92 98l54 40q68 -104 173 -104q67 0 111 41q43 40 43 106q0 65 -43 101t-125 36h-149v315h341v-70h-263v-185q50 8 94 8z" />
    <glyph glyph-name="six.lf" horiz-adv-x="551" 
d="M285 427q88 0 152 -62q63 -63 63 -154q0 -93 -65 -158q-65 -64 -160 -64t-159 64q-66 65 -66 159q0 8 2 24q1 8 3 22q1 10 6 22q1 4 3.5 10.5t3.5 9.5q2 8 9 21q5 9 10 19q2 3 13 21q4 5 8 11.5t4 7.5q4 4 15 21q3 5 6 9.5t5.5 7.5t2.5 4l164 238h93l-168 -242q24 9 55 9
zM275 60q62 0 106 44q42 43 42 107q0 63 -42 107q-43 43 -106 43t-105 -43q-43 -43 -43 -107t43 -107q42 -44 105 -44z" />
    <glyph glyph-name="seven.lf" horiz-adv-x="501" 
d="M35 660h441v-23l-334 -637h-85l314 590h-336v70z" />
    <glyph glyph-name="eight.lf" horiz-adv-x="578" 
d="M364 345q156 -57 156 -177q0 -80 -63 -129q-65 -50 -168 -50q-104 0 -169 50q-64 49 -64 130q0 119 156 176q-125 59 -125 162q0 78 58 121q56 43 144 43q85 0 143 -43q57 -44 57 -121q0 -106 -125 -162zM164 504q0 -44 31 -69q29 -26 93 -52q63 26 94 52q30 27 30 69
q0 47 -34 74q-35 26 -89 26q-55 0 -90 -26q-35 -27 -35 -74zM289 56q72 0 113 32q39 32 39 83q0 52 -38 82q-42 31 -115 55q-72 -25 -114 -55q-39 -30 -39 -82q0 -51 41 -83t113 -32z" />
    <glyph glyph-name="nine.lf" horiz-adv-x="551" 
d="M276 671q95 0 159 -64q65 -65 65 -159q0 -38 -15 -78q-16 -42 -28 -60q-13 -20 -48 -72l-164 -238h-92l168 242q-24 -9 -56 -9q-88 0 -151 63q-64 61 -64 153q0 93 66 158q65 64 160 64zM276 299q63 0 105 44q42 43 42 107t-42 107t-105 43t-106 -43t-43 -107t43 -107
q44 -44 106 -44z" />
    <glyph glyph-name="zero.slash.lf" horiz-adv-x="615" 
d="M308 671q119 0 181 -92q60 -91 60 -243q0 -98 -24 -174q-23 -74 -80 -125q-55 -48 -137 -48q-121 0 -182 97q-60 98 -60 250t61 243q62 92 181 92zM308 599q-161 0 -161 -264q0 -66 10 -113l284 284q-37 93 -133 93zM308 61q83 0 122 74q38 74 38 200q0 59 -8 102
l-283 -283q41 -93 131 -93z" />
    <glyph glyph-name="zero.slash" horiz-adv-x="663" 
d="M331 544q118 0 200 -81t82 -197t-82 -197q-83 -81 -201 -81q-117 0 -198 81q-82 81 -82 197t82 197q81 81 199 81zM130 266q0 -68 36 -121l287 288q-52 40 -122 40q-87 0 -144 -59q-57 -60 -57 -148zM331 59q86 0 145 59q57 60 57 148q0 68 -36 121l-288 -288
q52 -40 122 -40z" />
    <glyph glyph-name="zero.tf" 
d="M280 671q115 0 173 -91t58 -244q0 -155 -58 -250q-57 -97 -173 -97t-174 97q-57 96 -57 250q0 153 58 244t173 91zM280 599q-150 0 -150 -264q0 -127 36 -200q38 -74 114 -74q77 0 113 74q37 73 37 200q0 264 -150 264z" />
    <glyph glyph-name="one.tf" 
d="M344 70h175v-70h-449v70h196v502l-181 -49l-18 67l249 70h28v-590z" />
    <glyph glyph-name="two.tf" 
d="M204 70h311v-70h-459v20l235 250q59 62 88 106q27 43 27 91q0 56 -34 93q-34 39 -93 39q-61 0 -95 -40q-36 -41 -36 -96q0 -28 6 -55h-80q-7 25 -7 58q0 83 58 144t154 61q91 0 150 -57q58 -57 58 -143q0 -45 -21 -90q-20 -45 -45 -76t-72 -81z" />
    <glyph glyph-name="three.tf" 
d="M294 412q76 -8 135 -60q57 -52 57 -144q0 -98 -68 -158q-67 -61 -165 -61q-76 0 -133 39q-57 37 -91 98l55 39q68 -104 168 -104q67 0 111 41q43 40 43 106q0 63 -44 101q-44 36 -124 36h-64v22l173 223h-274v70h397v-23z" />
    <glyph glyph-name="four.tf" 
d="M520 191v-68h-88v-123h-78v123h-329v22l203 515h81l-185 -469h230v220h78v-220h88z" />
    <glyph glyph-name="five.tf" 
d="M279 413q96 0 160 -52q65 -53 65 -152q0 -98 -68 -160q-69 -60 -165 -60q-78 0 -136 38q-56 36 -92 98l54 40q66 -104 173 -104q67 0 111 41q43 40 43 106q0 65 -44 101q-44 35 -125 35h-148v316h341v-70h-264v-185q62 8 95 8z" />
    <glyph glyph-name="six.tf" 
d="M291 427q87 0 151 -62q63 -63 63 -154q0 -93 -65 -158q-65 -64 -160 -64t-159 64q-66 65 -66 159q0 39 15 78q14 35 29 61q18 27 48 71l164 238h91l-167 -242q24 9 56 9zM280 60q63 0 105 43t42 108q0 63 -42 107q-42 43 -105 43t-105 -43q-42 -44 -42 -107
q0 -65 42 -108t105 -43z" />
    <glyph glyph-name="seven.tf" 
d="M67 660h441v-23l-335 -637h-84l314 590h-336v70z" />
    <glyph glyph-name="eight.tf" 
d="M355 345q156 -57 156 -177q0 -80 -63 -129q-65 -50 -168 -50q-104 0 -168 50q-63 49 -63 130q0 120 155 176q-124 58 -124 162q0 77 57 121q55 43 143 43t144 -43q56 -44 56 -121q0 -106 -125 -162zM157 504q0 -42 30 -69q32 -27 93 -52q61 25 93 52q30 25 30 69
q0 46 -34 73t-89 27q-53 0 -88 -26q-35 -27 -35 -74zM280 56q74 0 114 31q39 31 39 84q0 51 -38 80q-37 29 -115 57q-75 -25 -113 -56q-39 -28 -39 -81t39 -84q38 -31 113 -31z" />
    <glyph glyph-name="nine.tf" 
d="M280 671q95 0 159 -64q66 -65 66 -159q0 -39 -15 -78q-14 -37 -29 -60q-13 -22 -48 -72l-164 -238h-91l167 242q-24 -9 -55 -9q-89 0 -152 63q-63 62 -63 153q0 93 65 158q65 64 160 64zM280 299q63 0 105 44q42 43 42 107t-42 107t-105 43t-105 -43t-42 -107t42 -107
q42 -44 105 -44z" />
    <glyph glyph-name="zero.slash.tf" 
d="M280 671q115 0 173 -91t58 -244q0 -155 -58 -250q-57 -97 -173 -97t-174 97q-57 96 -57 250q0 153 58 244t173 91zM280 603q-154 0 -154 -268q0 -63 8 -109l276 277q-37 100 -130 100zM280 57q78 0 116 75q38 76 38 203q0 53 -6 97l-276 -276q39 -99 128 -99z" />
    <glyph glyph-name="zero.tosf" 
d="M280 544q109 0 180 -80t71 -198q0 -120 -72 -199t-180 -79q-109 0 -179 79q-71 80 -71 199q0 120 72 199q70 79 179 79zM280 473q-78 0 -124 -57q-47 -59 -47 -150q0 -90 47 -149q46 -58 123 -58q79 0 125 58q47 59 47 149t-47 149q-46 58 -124 58z" />
    <glyph glyph-name="one.tosf" 
d="M336 533v-465h178v-68h-451v68h195v394h-178v71h256z" />
    <glyph glyph-name="two.tosf" 
d="M219 68h276v-68h-455v20l196 145q45 34 60 46q14 11 46 43q26 27 36 52q11 27 11 55q0 48 -32 80t-87 32q-59 0 -92 -35q-32 -35 -32 -84q0 -19 5 -51h-76q-8 30 -8 57q0 73 56 129q56 55 148 55q87 0 142 -51q55 -52 55 -131q0 -48 -25 -91q-27 -46 -57 -73
q-30 -28 -89 -72z" />
    <glyph glyph-name="three.tosf" 
d="M297 289q78 -8 133 -61q56 -53 56 -142q0 -99 -68 -159q-69 -60 -165 -60q-76 0 -134 38q-57 37 -90 98l55 40q68 -105 168 -105q68 0 112 41q43 40 43 107q0 63 -44 101q-45 36 -125 36h-60v23l169 216h-274v71h397v-23z" />
    <glyph glyph-name="four.tosf" 
d="M514 68v-68h-88v-121h-78v121h-329v23l200 510h81l-182 -465h230v222h78v-222h88z" />
    <glyph glyph-name="five.tosf" 
d="M279 291q97 0 160 -53q65 -53 65 -151t-68 -160q-68 -60 -164 -60q-78 0 -137 38q-57 37 -91 98l53 40q69 -105 174 -105q67 0 111 42q44 41 44 107q0 65 -44 101q-45 36 -126 36h-148v309h341v-71h-264v-179q50 8 94 8z" />
    <glyph glyph-name="six.tosf" 
d="M291 427q87 0 151 -62q63 -63 63 -154q0 -93 -65 -158q-65 -64 -160 -64t-159 64q-66 65 -66 159q0 39 15 78q14 35 29 61q18 27 48 71l164 238h91l-167 -242q24 9 56 9zM280 60q63 0 105 43t42 108q0 63 -42 107q-42 43 -105 43t-105 -43q-42 -44 -42 -107
q0 -65 42 -108t105 -43z" />
    <glyph glyph-name="seven.tosf" 
d="M67 533h441v-23l-332 -631h-83l310 583h-336v71z" />
    <glyph glyph-name="eight.tosf" 
d="M355 345q156 -57 156 -177q0 -80 -63 -129q-65 -50 -168 -50q-104 0 -168 50q-63 49 -63 130q0 120 155 176q-124 58 -124 162q0 77 57 121q55 43 143 43t144 -43q56 -44 56 -121q0 -106 -125 -162zM157 504q0 -42 30 -69q32 -27 93 -52q61 25 93 52q30 25 30 69
q0 46 -34 73t-89 27q-53 0 -88 -26q-35 -27 -35 -74zM280 56q74 0 114 31q39 31 39 84q0 51 -38 80q-37 29 -115 57q-75 -25 -113 -56q-39 -28 -39 -81t39 -84q38 -31 113 -31z" />
    <glyph glyph-name="nine.tosf" 
d="M280 544q95 0 159 -64q66 -65 66 -158q0 -29 -6 -53q-5 -25 -21 -54q-21 -38 -26 -46q-10 -17 -39 -57l-160 -233h-92l165 237q-26 -9 -56 -9q-88 0 -152 62q-63 61 -63 153q0 93 65 158q65 64 160 64zM280 172q63 0 105 44t42 107q0 65 -42 108t-105 43t-105 -43
t-42 -108q0 -63 42 -107t105 -44z" />
    <glyph glyph-name="zero.slash.tosf" 
d="M280 544q109 0 180 -80t71 -198q0 -120 -72 -199t-180 -79q-109 0 -179 79q-71 80 -71 199q0 120 72 199q70 79 179 79zM280 477q-80 0 -128 -59q-48 -58 -48 -152q0 -60 23 -111l272 273q-46 49 -119 49zM280 54q80 0 128 60t48 152q0 60 -23 111l-272 -273
q48 -50 119 -50z" />
    <glyph glyph-name="zero.dnom" horiz-adv-x="410" 
d="M205 423q78 0 117 -58q38 -59 38 -153q0 -96 -38 -158q-39 -61 -117 -61q-77 0 -116 62q-40 61 -40 157q0 95 40 153q39 58 116 58zM205 362q-88 0 -88 -151q0 -74 22 -115q21 -43 66 -43q89 0 89 158q0 151 -89 151z" />
    <glyph glyph-name="one.dnom" horiz-adv-x="353" 
d="M219 416v-356h90v-60h-262v60h105v296h-100v60h167z" />
    <glyph glyph-name="two.dnom" horiz-adv-x="369" 
d="M154 60h175v-60h-294v15l148 159q30 33 49 62q15 26 15 53q0 32 -19 52q-19 21 -50 21q-32 0 -51 -21q-20 -22 -20 -55l2 -32h-65q-4 15 -4 36q0 52 38 93q37 40 100 40q60 0 98 -37q38 -36 38 -92q0 -43 -22 -77q-26 -39 -67 -82z" />
    <glyph glyph-name="three.dnom" horiz-adv-x="354" 
d="M205 262q43 -9 77 -41q32 -34 32 -87q0 -63 -43 -102t-107 -39q-98 0 -145 90l46 33q38 -62 97 -62q38 0 61 22q23 23 23 58q0 34 -24 54q-25 19 -71 19h-41v18l97 131h-159v60h257v-19z" />
    <glyph glyph-name="four.dnom" horiz-adv-x="356" 
d="M340 128v-55h-56v-73h-61v73h-207v18l130 325h67l-116 -288h126v130h61v-130h56z" />
    <glyph glyph-name="five.dnom" horiz-adv-x="366" 
d="M182 264q62 0 104 -33q41 -35 41 -95q0 -64 -44 -103q-44 -40 -109 -40q-51 0 -88 25q-38 26 -58 65l46 33q38 -62 99 -62q39 0 62 22q24 21 24 57q0 74 -96 74h-94v209h226v-60h-162v-97q32 5 49 5z" />
    <glyph glyph-name="six.dnom" horiz-adv-x="373" 
d="M198 275q54 0 94 -40q41 -41 41 -99q0 -62 -43 -102q-44 -41 -104 -41q-59 0 -102 41q-43 40 -43 104q0 35 13 61q14 28 43 70l103 147h78l-99 -143q16 2 19 2zM186 54q35 0 58 23q22 22 22 59q0 34 -23 59q-22 25 -57 25q-34 0 -56 -25q-23 -25 -23 -59q0 -36 23 -59
t56 -23z" />
    <glyph glyph-name="seven.dnom" horiz-adv-x="327" 
d="M28 416h280v-19l-198 -397h-71l181 356h-192v60z" />
    <glyph glyph-name="eight.dnom" horiz-adv-x="382" 
d="M251 216q89 -35 89 -108q0 -52 -41 -84q-41 -31 -109 -31q-67 0 -107 31q-41 32 -41 85q0 72 89 107q-70 36 -70 101q0 50 37 78q35 28 92 28t94 -28t37 -79q0 -64 -70 -100zM190 370q-28 0 -48 -15q-20 -17 -20 -42q0 -24 17 -39q16 -14 52 -30q37 16 52 31q17 15 17 38
q0 25 -20 42q-19 15 -50 15zM190 47q40 0 63 17q22 18 22 47t-21 46q-24 18 -64 32q-40 -15 -62 -32q-21 -17 -21 -46q0 -30 22 -46q22 -18 61 -18z" />
    <glyph glyph-name="nine.dnom" horiz-adv-x="373" 
d="M187 423q59 0 103 -41q42 -40 42 -104q0 -35 -13 -61q-14 -28 -43 -70l-103 -147h-78l99 143q-16 -2 -19 -2q-53 0 -94 41t-41 98q0 62 43 102q44 41 104 41zM187 196q35 0 57 25q22 23 22 59q0 37 -22 59q-23 23 -57 23t-57 -23t-23 -59q0 -34 23 -59q22 -25 57 -25z
" />
    <glyph glyph-name="zero.numr" horiz-adv-x="410" 
d="M205 667q78 0 117 -58q38 -59 38 -153q0 -96 -38 -158q-39 -61 -117 -61q-77 0 -116 62q-40 61 -40 157q0 95 40 153q39 58 116 58zM205 606q-88 0 -88 -151q0 -73 22 -116q21 -42 66 -42q89 0 89 158q0 151 -89 151z" />
    <glyph glyph-name="one.numr" horiz-adv-x="353" 
d="M219 660v-356h90v-60h-262v60h105v296h-100v60h167z" />
    <glyph glyph-name="two.numr" horiz-adv-x="369" 
d="M154 304h175v-60h-294v15l148 159q30 33 49 62q15 26 15 53q0 32 -19 52q-19 21 -50 21q-32 0 -51 -21q-20 -22 -20 -55l2 -32h-65q-4 15 -4 36q0 52 38 93q37 40 100 40q59 0 98 -36q38 -38 38 -93q0 -43 -22 -77q-26 -39 -67 -82z" />
    <glyph glyph-name="three.numr" horiz-adv-x="354" 
d="M205 505q43 -7 77 -40q32 -34 32 -87q0 -63 -43 -102t-107 -39q-98 0 -145 90l46 33q38 -62 97 -62q38 0 61 22q23 23 23 58q0 34 -24 54q-25 19 -71 19h-41v18l97 131h-159v60h257v-19z" />
    <glyph glyph-name="four.numr" horiz-adv-x="356" 
d="M340 372v-55h-56v-73h-61v73h-207v18l130 325h67l-116 -288h126v130h61v-130h56z" />
    <glyph glyph-name="five.numr" horiz-adv-x="366" 
d="M182 508q62 0 104 -33q41 -35 41 -95q0 -64 -44 -103q-44 -40 -109 -40q-51 0 -88 25q-38 26 -58 65l46 33q38 -62 99 -62q39 0 62 22q24 21 24 57q0 74 -96 74h-94v209h226v-60h-162v-98q26 6 49 6z" />
    <glyph glyph-name="six.numr" horiz-adv-x="373" 
d="M198 519q54 0 94 -40q41 -41 41 -99q0 -62 -43 -102q-44 -41 -104 -41q-59 0 -102 41q-43 40 -43 104q0 35 13 61q14 28 43 70l103 147h78l-99 -142q4 1 19 1zM186 298q35 0 58 23q22 22 22 59q0 34 -23 60q-23 24 -57 24t-56 -24q-23 -26 -23 -60q0 -36 23 -59t56 -23z
" />
    <glyph glyph-name="seven.numr" horiz-adv-x="327" 
d="M28 660h280v-19l-198 -397h-71l181 356h-192v60z" />
    <glyph glyph-name="eight.numr" horiz-adv-x="382" 
d="M250 460q90 -34 90 -108q0 -51 -41 -83q-43 -32 -109 -32t-107 32t-41 84q0 72 89 108q-70 34 -70 100q0 50 37 78q35 28 92 28t94 -28t37 -79q0 -64 -71 -100zM190 614q-28 0 -48 -15q-20 -17 -20 -42q0 -24 17 -39q16 -14 52 -30q34 13 52 30q17 17 17 39q0 25 -20 42
q-19 15 -50 15zM190 291q40 0 63 18q22 16 22 46q0 29 -21 46q-24 18 -64 32q-40 -15 -62 -32q-21 -17 -21 -46q0 -30 22 -46q22 -18 61 -18z" />
    <glyph glyph-name="nine.numr" horiz-adv-x="373" 
d="M187 667q59 0 103 -41q42 -40 42 -104q0 -35 -13 -61q-14 -28 -43 -70l-103 -147h-78l99 142q-4 -1 -19 -1q-53 0 -94 41t-41 98q0 62 43 102q44 41 104 41zM187 440q35 0 57 25q22 23 22 59q0 37 -22 59q-23 23 -57 23t-57 -23t-23 -59q0 -34 23 -59q22 -25 57 -25z" />
    <glyph glyph-name="backslash.case" horiz-adv-x="604" 
d="M7 760h91l499 -860h-91z" />
    <glyph glyph-name="periodcentered.case" horiz-adv-x="270" 
d="M135 417q26 0 44 -18q19 -18 19 -45q0 -29 -19 -45q-18 -18 -44 -18q-25 0 -45 18q-18 17 -18 45q0 27 18 45q20 18 45 18z" />
    <glyph glyph-name="bullet.case" horiz-adv-x="377" 
d="M189 437q53 0 92 -36q39 -38 39 -94t-39 -92q-38 -37 -92 -37t-92 37q-40 36 -40 92q0 57 39 94q39 36 93 36z" />
    <glyph glyph-name="slash.case" horiz-adv-x="603" 
d="M597 760l-499 -860h-91l499 860h91z" />
    <glyph glyph-name="comma.subs" horiz-adv-x="210" 
d="M147 -23l-31 -209h-53l7 209h77z" />
    <glyph glyph-name="period.subs" horiz-adv-x="210" 
d="M105 -27q21 0 36 -15q14 -14 14 -36t-14 -36q-16 -14 -36 -14t-36 14q-15 15 -15 36q0 22 15 36q15 15 36 15z" />
    <glyph glyph-name="comma.sups" horiz-adv-x="210" 
d="M147 462l-31 -209h-53l7 209h77z" />
    <glyph glyph-name="period.sups" horiz-adv-x="210" 
d="M105 458q21 0 36 -15q14 -16 14 -37q0 -22 -14 -36q-16 -14 -36 -14q-21 0 -36 15q-15 13 -15 35t15 37t36 15z" />
    <glyph glyph-name="braceleft.case" horiz-adv-x="397" 
d="M297 692q-78 0 -78 -84q0 -29 13 -97q12 -71 12 -96q0 -61 -53 -85q53 -24 53 -85q0 -26 -12 -95q-13 -68 -13 -98q0 -84 78 -84h49v-68h-63q-138 0 -138 133q0 39 13 111t13 94q0 58 -61 58h-57v68h57q61 0 61 58q0 22 -13 94t-13 111q0 133 138 133h63v-68h-49z" />
    <glyph glyph-name="braceright.case" horiz-adv-x="397" 
d="M287 364h57v-68h-57q-61 0 -61 -58q0 -22 13 -94q12 -75 12 -111q0 -133 -137 -133h-64v68h50q78 0 78 84q0 28 -12 97q-13 68 -13 96q0 61 53 85q-53 24 -53 85q0 28 13 96q12 71 12 97q0 84 -78 84h-50v68h64q137 0 137 -133q0 -36 -12 -111q-13 -72 -13 -94
q0 -58 61 -58z" />
    <glyph glyph-name="bracketleft.case" horiz-adv-x="343" 
d="M292 760v-68h-116v-722h116v-70h-191v860h191z" />
    <glyph glyph-name="bracketright.case" horiz-adv-x="343" 
d="M241 760v-860h-191v70h117v722h-117v68h191z" />
    <glyph glyph-name="parenleft.case" horiz-adv-x="333" 
d="M272 765l33 -53q-151 -97 -151 -380q0 -285 151 -379l-33 -53q-83 40 -139 146q-55 103 -55 286q0 184 55 288q56 105 139 145z" />
    <glyph glyph-name="parenright.case" horiz-adv-x="333" 
d="M62 765q39 -19 72 -51q32 -32 61 -82q27 -48 44 -127q16 -74 16 -173q0 -184 -55 -287q-56 -105 -138 -145l-34 53q152 95 152 379q0 281 -152 380z" />
    <glyph glyph-name="emdash.case" horiz-adv-x="1000" 
d="M950 387v-65h-900v65h900z" />
    <glyph glyph-name="endash.case" horiz-adv-x="506" 
d="M462 387v-65h-419v65h419z" />
    <glyph glyph-name="uni2015.case" horiz-adv-x="1000" 
d="M950 387v-65h-900v65h900z" />
    <glyph glyph-name="hyphen.case" horiz-adv-x="346" 
d="M292 387v-65h-239v65h239z" />
    <glyph glyph-name="uni00AD.case" horiz-adv-x="346" 
d="M292 387v-65h-239v65h239z" />
    <glyph glyph-name="guillemotleft.case" horiz-adv-x="504" 
d="M216 511l50 -45l-141 -155l141 -157l-50 -43l-178 189v22zM414 511l50 -45l-141 -155l141 -157l-50 -43l-178 188v23z" />
    <glyph glyph-name="guillemotright.case" horiz-adv-x="504" 
d="M90 511l177 -189v-22l-177 -189l-51 43l142 157l-142 155zM288 511l177 -189v-23l-177 -188l-51 43l141 157l-141 155z" />
    <glyph glyph-name="guilsinglleft.case" horiz-adv-x="306" 
d="M216 511l50 -45l-141 -155l141 -157l-50 -43l-178 189v22z" />
    <glyph glyph-name="guilsinglright.case" horiz-adv-x="306" 
d="M90 511l177 -189v-22l-177 -189l-51 43l142 157l-142 155z" />
    <glyph glyph-name="cent.tf" 
d="M333 146q70 11 120 77l54 -44q-65 -93 -174 -105v-168h-77v172q-89 17 -146 87q-58 70 -58 163q0 94 58 162q57 70 146 87v173h77v-169q112 -12 175 -105l-54 -43q-49 65 -121 76v-363zM131 328q0 -62 35 -112q35 -49 90 -65v353q-55 -16 -90 -65t-35 -111z" />
    <glyph glyph-name="currency.tf" 
d="M472 333q0 -61 -37 -108l79 -80l-45 -45l-82 81q-47 -30 -106 -30t-105 30l-83 -81l-46 46l80 81q-35 47 -35 105t36 107l-81 80l47 46l82 -82q47 30 106 30q56 0 105 -29l81 81l46 -46l-79 -79q37 -46 37 -107zM171 332q0 -48 31 -79t80 -31t80 31t31 79t-31 79t-80 31
q-48 0 -79 -31q-32 -32 -32 -79z" />
    <glyph glyph-name="dollar.tf" 
d="M481 186q0 -68 -46 -111t-121 -52v-117h-77v118q-122 20 -189 137l56 40q52 -88 133 -106v222l-6 3q-64 27 -101 64q-38 38 -38 97q0 60 41 99q41 41 104 51v119h77v-117q99 -14 155 -107l-54 -41q-41 63 -101 77v-200l22 -9q70 -28 108 -68q37 -40 37 -99zM170 482
q0 -31 17 -51q15 -17 50 -35v164q-67 -19 -67 -78zM314 93q40 7 65 31q24 24 24 61q0 34 -22 56q-23 23 -67 44v-192z" />
    <glyph glyph-name="Euro.tf" 
d="M522 84l20 -65q-62 -30 -136 -30q-109 0 -188 62q-78 61 -109 166h-97v68h85q-3 23 -3 45q0 3 2 41h-82v68h94q29 106 107 168q79 64 190 64q71 0 135 -29l-19 -66q-60 23 -112 23q-82 0 -137 -43q-56 -44 -81 -117h293l-17 -68h-291q-2 -34 -2 -41q0 -22 3 -45h265
l-18 -68h-232q26 -73 81 -114q55 -42 136 -42q53 0 113 23z" />
    <glyph glyph-name="florin.tf" 
d="M442 601q-54 0 -81 -21q-27 -19 -35 -72l-13 -109h134v-69h-143l-37 -306q-22 -157 -177 -157q-36 0 -68 7v65q32 -3 53 -3q53 0 81 21q27 20 35 73l37 300h-108v69h116l14 114q20 158 177 158q36 0 68 -8v-64q-11 0 -23.5 0.5t-19.5 1t-10 0.5z" />
    <glyph glyph-name="sterling.tf" 
d="M277 213q0 -88 -60 -145h289v-68h-440v20q134 83 134 192q0 18 -3 34h-121v68h95q-9 14 -21 38q-16 31 -22 44q-7 15 -14 40t-7 52q0 79 56 132q57 51 145 51q76 0 129 -42t75 -121l-69 -26q-37 117 -132 117q-57 0 -90 -36q-34 -35 -34 -87q0 -27 9 -51q6 -22 29 -62
q23 -42 27 -49h175v-68h-153q3 -16 3 -33z" />
    <glyph glyph-name="yen.tf" 
d="M535 660l-202 -301h175v-68h-189v-92h189v-69h-189v-130h-78v130h-188v69h188v92h-188v68h174l-202 301h86l169 -260l170 260h85z" />
    <glyph glyph-name="section.case" horiz-adv-x="579" 
d="M543 216q0 -49 -33 -83q-34 -33 -92 -43q1 -3 1 -13q0 -62 -43 -102q-44 -41 -118 -41q-103 0 -170 88l57 47q55 -64 117 -64q36 0 57 18t21 51q0 10 -1 15q-1 3 -2.5 8t-1.5 6q-1 5 -6 13l-8 13q-4 6 -10 12t-10 12q-7 7 -13 12q-7 6 -13 12q-5 1 -15 12q-12 9 -15 12
l-106 87q-53 44 -78 79q-26 35 -26 78q0 49 34 82q33 33 91 43q-1 3 -1 14q0 61 44 102t118 41q103 0 170 -88l-57 -47q-55 64 -117 64q-36 0 -57 -18q-22 -18 -22 -51q0 -11 1 -16q2 -9 6 -16q1 -2 2.5 -4.5t2.5 -5.5t2 -4q1 -5 10 -14q10 -12 11 -13l14 -14q11 -9 15 -12
l16 -14q3 -2 5.5 -4.5t4.5 -4t3.5 -3l2.5 -2.5l105 -87q55 -46 79 -78q25 -35 25 -79zM398 151q34 9 50 24q17 15 17 43q0 23 -15 41q-13 17 -62 58l-106 87q-80 67 -102 106q-66 -18 -66 -67q0 -23 15 -42q14 -17 62 -57l105 -87q80 -67 102 -106z" />
    <glyph glyph-name="dieresis.case" horiz-adv-x="402" 
d="M85 863q23 0 39 -15q16 -16 16 -38t-16 -37q-16 -16 -39 -16q-22 0 -38 16q-17 15 -17 37q0 21 17 38q17 15 38 15zM318 863q23 0 39 -16t16 -38t-16 -37q-16 -16 -39 -16q-22 0 -38 16q-17 15 -17 37q0 21 17 38q16 16 38 16z" />
    <glyph glyph-name="dieresis.i" horiz-adv-x="351" 
d="M85 727q23 0 39 -15q16 -16 16 -39q0 -22 -16 -37q-16 -16 -39 -16q-22 0 -38 16q-17 15 -17 37q0 21 17 38q16 16 38 16zM267 727q23 0 39 -15q16 -16 16 -39q0 -22 -16 -37q-16 -16 -39 -16q-22 0 -38 16q-17 17 -17 37q0 21 17 38q16 16 38 16z" />
    <glyph glyph-name="otatonos" horiz-adv-x="153" 
d="M123 780v-14l-33 -200h-60v214h93z" />
    </font>
</defs>
</svg>
