<?xml version="1.0" standalone="no"?>
<!DOCTYPE svg PUBLIC "-//W3C//DTD SVG 1.1//EN" "http://www.w3.org/Graphics/SVG/1.1/DTD/svg11.dtd" >
<svg xmlns="http://www.w3.org/2000/svg" xmlns:xlink="http://www.w3.org/1999/xlink" version="1.1">
<metadata>
Created by FontForge 20170731 at Mon Feb 13 22:28:09 2017
 By Aleksey,,,
Copyright (c) 2015 by Jakob Runge, under exclusive license to type me! fonts. All rights reserved.
</metadata>
<defs>
<font id="CeraGR-Medium" horiz-adv-x="560" >
  <font-face 
    font-family="Cera"
    font-weight="400"
    font-stretch="normal"
    units-per-em="1000"
    panose-1="0 0 6 0 0 0 0 0 0 0"
    ascent="799"
    descent="-201"
    x-height="491"
    cap-height="660"
    bbox="-157 -243 1337 902"
    underline-thickness="50"
    underline-position="-175"
    unicode-range="U+0020-F8FF"
  />
<missing-glyph horiz-adv-x="710" 
d="M83 660h544v-660h-544v660zM552 64v528h-396z" />
    <glyph glyph-name=".notdef" horiz-adv-x="710" 
d="M83 660h544v-660h-544v660zM552 64v528h-396z" />
    <glyph glyph-name=".null" horiz-adv-x="0" 
 />
    <glyph glyph-name="nonmarkingreturn" horiz-adv-x="333" 
 />
    <glyph glyph-name="space" unicode=" " horiz-adv-x="280" 
 />
    <glyph glyph-name="exclam" unicode="!" horiz-adv-x="326" 
d="M225 660l-19 -435h-87l-20 435h126zM163 144q33 0 55 -22t22 -56q0 -33 -22 -55t-55 -22t-55 22q-23 23 -23 55q0 33 23 56q22 22 55 22z" />
    <glyph glyph-name="quotedbl" unicode="&#x22;" horiz-adv-x="500" 
d="M219 660l-49 -268h-81l9 268h121zM429 660l-49 -268h-81l9 268h121z" />
    <glyph glyph-name="numbersign" unicode="#" horiz-adv-x="614" 
d="M586 391h-98l-17 -122h94v-89h-106l-24 -180h-87l24 180h-171l-24 -180h-87l24 180h-86v89h98l17 122h-93v89h105l23 180h89l-25 -180h170l24 180h88l-24 -180h86v-89zM213 266h171l17 128h-171z" />
    <glyph glyph-name="dollar" unicode="$" horiz-adv-x="537" 
d="M483 193q0 -70 -46 -113q-47 -45 -121 -56v-119h-97v120q-120 23 -183 136l73 54q45 -72 110 -93v185q-144 55 -144 166q0 62 40 103q41 41 104 54v119h97v-117q100 -18 152 -111l-72 -54q-34 52 -80 67v-163l18 -7q149 -59 149 -171zM180 474q0 -38 39 -61v118
q-39 -18 -39 -57zM316 120q62 17 62 71q0 45 -62 75v-146z" />
    <glyph glyph-name="percent" unicode="%" horiz-adv-x="821" 
d="M213 671q69 0 118 -46t49 -116q0 -69 -48 -116q-50 -47 -119 -47t-118 47q-49 46 -49 116t49 116q47 46 118 46zM644 660l-379 -660h-88l378 660h89zM213 597q-37 0 -59 -25q-24 -26 -24 -63t23 -63q22 -25 60 -25q36 0 60 25q23 26 23 63t-23 63q-24 25 -60 25zM607 315
q69 0 119 -47q49 -46 49 -116q0 -69 -49 -115q-50 -47 -119 -47q-68 0 -117 47q-49 46 -49 115q0 70 49 116q49 47 117 47zM608 240q-38 0 -60 -25q-23 -26 -23 -63t23 -62q22 -25 60 -25q35 0 59 25q23 26 23 62q0 37 -23 63q-24 25 -59 25z" />
    <glyph glyph-name="ampersand" unicode="&#x26;" horiz-adv-x="649" 
d="M622 293q-102 -148 -112 -160l109 -133h-125l-51 62q-83 -73 -186 -73q-91 0 -149 49q-60 50 -60 128q0 59 35 105q34 43 106 98q-64 82 -64 151q0 66 43 109q42 42 113 42q69 0 112 -40q42 -40 42 -100q0 -87 -111 -174l120 -145q35 48 94 139zM281 579q-28 0 -43 -16
q-15 -17 -15 -43q0 -40 46 -96q68 53 68 99q0 56 -56 56zM262 84q62 0 118 53l-133 161q-25 -19 -48 -40q-15 -12 -29 -36q-14 -23 -14 -46q0 -40 30 -66q31 -26 76 -26z" />
    <glyph glyph-name="quotesingle" unicode="'" horiz-adv-x="291" 
d="M219 660l-49 -268h-81l9 268h121z" />
    <glyph glyph-name="parenleft" unicode="(" horiz-adv-x="349" 
d="M279 736l43 -66q-152 -101 -152 -368q0 -268 152 -367l-43 -66q-59 28 -101 76q-44 50 -75 142q-30 91 -30 215q0 180 58 286t148 148z" />
    <glyph glyph-name="parenright" unicode=")" horiz-adv-x="349" 
d="M71 736q90 -42 146 -148q58 -106 58 -286q0 -179 -58 -285q-56 -106 -146 -148l-44 66q152 99 152 367q0 267 -152 368z" />
    <glyph glyph-name="asterisk" unicode="*" horiz-adv-x="438" 
d="M395 630l-92 -66l92 -66l-31 -53l-103 47l-11 -113h-62l-11 113l-103 -47l-31 53l92 66l-92 66l31 54l103 -47l11 113h62l11 -113l103 47z" />
    <glyph glyph-name="plus" unicode="+" 
d="M509 272h-176v-185h-102v185h-180v91h180v183h102v-183h176v-91z" />
    <glyph glyph-name="comma" unicode="," horiz-adv-x="270" 
d="M205 106l-46 -284h-85l9 284h122z" />
    <glyph glyph-name="hyphen" unicode="-" horiz-adv-x="344" 
d="M295 362v-89h-246v89h246z" />
    <glyph glyph-name="period" unicode="." horiz-adv-x="270" 
d="M136 144q33 0 55 -22t22 -56q0 -33 -22 -55t-55 -22q-34 0 -56 22q-23 23 -23 55q0 33 23 56q22 22 56 22z" />
    <glyph glyph-name="slash" unicode="/" horiz-adv-x="650" 
d="M645 780l-523 -901h-117l523 901h117z" />
    <glyph glyph-name="zero" unicode="0" horiz-adv-x="661" 
d="M330 546q118 0 202 -81q83 -81 83 -198t-83 -198q-84 -81 -203 -81q-117 0 -200 81t-83 198t83 198t201 81zM330 449q-76 0 -126 -51q-49 -52 -49 -131q0 -78 49 -130t126 -52t126 52q50 53 50 130t-50 130q-49 52 -126 52z" />
    <glyph glyph-name="one" unicode="1" horiz-adv-x="504" 
d="M327 535v-444h136v-91h-389v91h147v348h-137v96h243z" />
    <glyph glyph-name="two" unicode="2" horiz-adv-x="567" 
d="M284 91h230v-91h-471v24l201 150q32 22 57 43q17 13 40 37q23 23 32 45q9 21 9 47q0 45 -28 74q-29 30 -76 30q-50 0 -78 -30q-29 -32 -29 -74q0 -15 5 -47h-104q-7 25 -7 56q0 77 60 134t156 57q92 0 151 -53q59 -54 59 -137q0 -66 -39 -119q-40 -51 -117 -109z" />
    <glyph glyph-name="three" unicode="3" horiz-adv-x="527" 
d="M305 294q71 -14 122 -66q51 -54 51 -138q0 -99 -71 -161t-170 -62q-80 0 -140 39q-60 41 -92 103l74 53q65 -98 155 -98q58 0 98 35q38 35 38 90q0 56 -40 87t-113 31h-70v29l152 203h-247v96h411v-29z" />
    <glyph glyph-name="four" unicode="4" horiz-adv-x="559" 
d="M545 91v-91h-91v-121h-105v121h-330v29l206 506h110l-183 -444h197v204h105v-204h91z" />
    <glyph glyph-name="five" unicode="5" horiz-adv-x="547" 
d="M274 299q91 0 158 -55q66 -56 66 -153q0 -101 -70 -162q-71 -62 -172 -62q-83 0 -142 40q-60 38 -95 102l74 53q65 -98 160 -98q58 0 98 35q38 35 38 91t-39 87q-40 30 -113 30h-152v328h362v-96h-259v-149q50 9 86 9z" />
    <glyph glyph-name="six" unicode="6" horiz-adv-x="556" 
d="M295 438q89 0 153 -63q64 -64 64 -158q0 -97 -68 -162q-69 -66 -166 -66q-98 0 -165 66q-68 65 -68 163q0 37 14 76q15 41 28 62q18 28 48 71l165 233h125l-159 -225q13 3 29 3zM278 86q54 0 92 38q37 37 37 93q0 57 -37 94t-92 37t-92 -37t-37 -94q0 -56 37 -93
q38 -38 92 -38z" />
    <glyph glyph-name="seven" unicode="7" horiz-adv-x="513" 
d="M36 535h453v-29l-318 -627h-114l288 560h-309v96z" />
    <glyph glyph-name="eight" unicode="8" horiz-adv-x="583" 
d="M388 343q143 -56 143 -171q0 -84 -67 -133q-67 -50 -172 -50q-106 0 -174 50q-67 49 -67 133q0 115 143 171q-112 58 -112 159q0 80 59 125q61 44 151 44t149 -44q59 -45 59 -125q0 -102 -112 -159zM292 584q-47 0 -79 -23q-30 -23 -30 -63q0 -36 26 -59q24 -22 82 -48
q54 24 81 47q27 24 27 60q0 40 -30 63q-31 23 -77 23zM292 77q63 0 98 27q34 27 34 72q0 46 -34 71q-34 26 -99 50q-64 -22 -100 -50q-33 -27 -33 -71q0 -45 35 -72t99 -27z" />
    <glyph glyph-name="nine" unicode="9" horiz-adv-x="556" 
d="M279 546q96 0 164 -65q69 -66 69 -164q0 -54 -21 -96q-17 -36 -70 -112l-162 -230h-125l157 222q-13 -3 -30 -3q-88 0 -152 64q-64 63 -64 156q0 98 68 163q70 65 166 65zM278 187q54 0 92 38q37 37 37 93q0 57 -37 94q-38 38 -92 38q-55 0 -92 -37t-37 -95q0 -56 37 -93
q38 -38 92 -38z" />
    <glyph glyph-name="colon" unicode=":" horiz-adv-x="270" 
d="M136 498q33 0 55 -22t22 -56q0 -33 -22 -55t-55 -22q-34 0 -56 22q-23 23 -23 55q0 33 23 56q22 22 56 22zM136 144q33 0 55 -22t22 -56q0 -33 -22 -55t-55 -22q-34 0 -56 22q-23 23 -23 55q0 33 23 56q22 22 56 22z" />
    <glyph glyph-name="semicolon" unicode=";" horiz-adv-x="270" 
d="M136 498q33 0 55 -22t22 -56q0 -33 -22 -55t-55 -22q-34 0 -56 22q-23 23 -23 55q0 33 23 56q22 22 56 22zM205 106l-46 -284h-85l9 284h122z" />
    <glyph glyph-name="less" unicode="&#x3c;" 
d="M495 529v-95l-275 -116l275 -116v-95l-451 196v30z" />
    <glyph glyph-name="equal" unicode="=" 
d="M500 469v-91h-439v91h439zM500 257v-91h-439v91h439z" />
    <glyph glyph-name="greater" unicode="&#x3e;" 
d="M65 529l451 -196v-30l-451 -196v95l275 116l-275 116v95z" />
    <glyph glyph-name="question" unicode="?" horiz-adv-x="448" 
d="M223 671q78 0 132 -48t54 -122q0 -46 -22 -80q-23 -36 -67 -75q-29 -26 -38 -35q-13 -13 -22 -27q-11 -17 -11 -32q0 -12 4 -27h-90q-11 25 -11 46q0 24 13 46q13 23 27 36t39 36q29 25 40 37q11 13 20 29t9 37q0 37 -23 60q-23 22 -58 22q-68 0 -97 -86l-88 38
q21 70 71 108q49 37 118 37zM212 144q34 0 56 -22t22 -56q0 -33 -22 -55t-56 -22q-33 0 -55 22q-23 23 -23 55t23 55t55 23z" />
    <glyph glyph-name="at" unicode="@" horiz-adv-x="937" 
d="M481 661q176 0 295 -110q118 -109 118 -267q0 -122 -75 -186q-74 -65 -196 -65h-37v57q-47 -68 -142 -68q-87 0 -144 61q-56 62 -56 154q0 93 57 154t144 61q91 0 137 -61v52h92v-324q62 5 97 47q34 40 34 118q0 128 -89 211q-88 82 -233 82q-152 0 -251 -93
q-99 -94 -99 -240q0 -147 99 -241q98 -93 242 -93q62 0 125 19l17 -76q-69 -27 -152 -27q-176 0 -298 119q-123 119 -123 297q0 182 127 300q128 119 311 119zM463 113q45 0 79 32q34 31 34 93t-33 93q-31 31 -79 31q-50 0 -84 -34t-34 -91q0 -55 33 -89q35 -35 84 -35z" />
    <glyph glyph-name="A" unicode="A" horiz-adv-x="662" 
d="M526 0l-47 110h-297l-47 -110h-113l291 671h36l291 -671h-114zM440 201l-109 274l-110 -274h219z" />
    <glyph glyph-name="B" unicode="B" horiz-adv-x="618" 
d="M456 360q59 -20 92 -63q32 -44 32 -105q0 -84 -59 -138t-155 -54h-283v660h231q89 0 144 -49q54 -49 54 -127q0 -77 -56 -124zM304 567h-117v-178h117q50 0 76 25q26 24 26 65t-26 65q-28 23 -76 23zM357 93q55 0 86 28q30 27 30 74t-30 75q-31 28 -86 28h-170v-205h170z
" />
    <glyph glyph-name="C" unicode="C" horiz-adv-x="717" 
d="M390 671q90 0 166 -41q74 -40 117 -111l-80 -59q-73 114 -202 114q-103 0 -170 -70q-68 -70 -68 -174t68 -175q67 -69 170 -69q129 0 202 114l80 -59q-42 -70 -116 -111q-76 -41 -167 -41q-145 0 -246 98t-101 243q0 144 101 243q101 98 246 98z" />
    <glyph glyph-name="D" unicode="D" horiz-adv-x="692" 
d="M290 660q164 0 261 -91q98 -92 98 -238t-98 -238q-99 -93 -261 -93h-207v660h207zM289 564h-100v-469h100q115 0 183 66t68 170q0 106 -67 170q-67 63 -184 63z" />
    <glyph glyph-name="E" unicode="E" horiz-adv-x="569" 
d="M517 660v-95h-328v-169h247v-92h-247v-209h340v-95h-446v660h434z" />
    <glyph glyph-name="F" unicode="F" horiz-adv-x="529" 
d="M507 660v-95h-318v-197h262v-96h-262v-272h-106v660h424z" />
    <glyph glyph-name="G" unicode="G" horiz-adv-x="746" 
d="M391 671q175 0 273 -138l-77 -63q-74 104 -197 104q-105 0 -171 -69t-66 -174q0 -106 68 -177q67 -70 175 -70q130 0 197 100v71h-203v94h309v-186q-43 -79 -126 -127q-83 -47 -182 -47q-146 0 -247 98t-101 243q0 144 101 243q101 98 247 98z" />
    <glyph glyph-name="H" unicode="H" horiz-adv-x="711" 
d="M627 660v-660h-106v302h-332v-302h-106v660h106v-263h332v263h106z" />
    <glyph glyph-name="I" unicode="I" horiz-adv-x="272" 
d="M189 660v-660h-106v660h106z" />
    <glyph glyph-name="J" unicode="J" horiz-adv-x="381" 
d="M298 660v-496q0 -88 -49 -131q-50 -44 -137 -44q-41 0 -91 11v91q50 -5 68 -5q52 0 78 20q25 19 25 69v485h106z" />
    <glyph glyph-name="K" unicode="K" horiz-adv-x="651" 
d="M83 0v660h106v-660h-106zM325 351l304 -351h-131l-306 351l277 309h130z" />
    <glyph glyph-name="L" unicode="L" horiz-adv-x="515" 
d="M189 660v-565h302v-95h-408v660h106z" />
    <glyph glyph-name="M" unicode="M" horiz-adv-x="793" 
d="M674 671h36v-671h-106v414l-189 -248h-36l-190 248v-414h-106v671h37l277 -369z" />
    <glyph glyph-name="N" unicode="N" horiz-adv-x="711" 
d="M521 660h106v-671h-36l-402 457v-446h-106v671h37l401 -456v445z" />
    <glyph glyph-name="O" unicode="O" horiz-adv-x="780" 
d="M389 671q143 0 246 -98q101 -99 101 -243t-101 -242q-102 -99 -246 -99q-145 0 -245 99q-101 98 -101 242t101 243q101 98 245 98zM390 574q-102 0 -170 -69q-67 -68 -67 -174q0 -107 67 -175q67 -70 170 -70t170 70q67 68 67 175q0 103 -68 174q-67 69 -169 69z" />
    <glyph glyph-name="P" unicode="P" horiz-adv-x="583" 
d="M324 660q100 0 162 -56t62 -146t-62 -146q-62 -57 -162 -57h-135v-255h-106v660h241zM322 566h-133v-217h133q56 0 87 30q30 29 30 78t-30 79q-31 30 -87 30z" />
    <glyph glyph-name="Q" unicode="Q" horiz-adv-x="780" 
d="M954 -121q34 0 94 4v-84q-61 -11 -111 -11q-271 0 -427 221q-60 -20 -121 -20q-145 0 -245 99q-101 98 -101 242t101 243q101 98 245 98q143 0 246 -98q101 -99 101 -243q0 -86 -37 -156q-38 -72 -102 -118q68 -90 155 -134q85 -43 202 -43zM153 331q0 -107 67 -175
q67 -70 170 -70q102 0 169 70q68 70 68 174t-68 175q-67 69 -170 69q-101 0 -169 -69q-67 -68 -67 -174z" />
    <glyph glyph-name="R" unicode="R" horiz-adv-x="631" 
d="M619 0h-121l-188 255h-121v-255h-106v660h241q100 0 162 -56t62 -146q0 -64 -33 -114q-35 -50 -94 -72zM189 566v-217h133q54 0 86 30q31 30 31 78q0 49 -31 79q-32 30 -86 30h-133z" />
    <glyph glyph-name="S" unicode="S" horiz-adv-x="559" 
d="M282 671q70 0 126 -32q55 -33 87 -86l-74 -57q-53 80 -139 80q-42 0 -71 -20q-29 -21 -29 -60q0 -34 21 -52q20 -17 71 -42l74 -34q82 -39 119 -80q39 -44 39 -108q0 -85 -62 -138q-64 -53 -159 -53q-81 0 -146 38q-66 38 -103 105l75 57q73 -105 173 -105q52 0 83 25
t31 67q0 36 -22 55q-24 21 -75 44l-73 34q-73 33 -113 76q-41 44 -41 107q0 80 60 130q59 49 148 49z" />
    <glyph glyph-name="T" unicode="T" horiz-adv-x="583" 
d="M567 660v-95h-223v-565h-106v565h-222v95h551z" />
    <glyph glyph-name="U" unicode="U" horiz-adv-x="694" 
d="M618 660v-393q0 -129 -75 -204q-77 -74 -195 -74q-120 0 -196 74q-76 75 -76 204v393h106v-400q0 -84 47 -129t119 -45t118 45t46 129v400h106z" />
    <glyph glyph-name="V" unicode="V" horiz-adv-x="662" 
d="M521 660h119l-291 -671h-36l-291 671h119l190 -459z" />
    <glyph glyph-name="W" unicode="W" horiz-adv-x="1051" 
d="M899 660h116l-257 -671h-35l-197 468l-197 -468h-36l-257 671h117l164 -446l190 457h37l190 -457z" />
    <glyph glyph-name="X" unicode="X" horiz-adv-x="607" 
d="M584 0h-121l-160 246l-159 -246h-122l223 337l-209 323h122l146 -234l144 234h121l-205 -324z" />
    <glyph glyph-name="Y" unicode="Y" horiz-adv-x="620" 
d="M591 660l-228 -393v-267h-106v266l-228 394h118l163 -287l164 287h117z" />
    <glyph glyph-name="Z" unicode="Z" horiz-adv-x="588" 
d="M190 95h368v-95h-532v29l365 536h-322v95h488v-29z" />
    <glyph glyph-name="bracketleft" unicode="[" horiz-adv-x="350" 
d="M305 729v-88h-115v-682h115v-90h-209v860h209z" />
    <glyph glyph-name="backslash" unicode="\" horiz-adv-x="650" 
d="M5 780h117l523 -901h-117z" />
    <glyph glyph-name="bracketright" unicode="]" horiz-adv-x="350" 
d="M254 729v-860h-210v90h116v682h-116v88h210z" />
    <glyph glyph-name="asciicircum" unicode="^" horiz-adv-x="524" 
d="M469 280h-104l-103 216l-103 -216h-104l189 390h36z" />
    <glyph glyph-name="underscore" unicode="_" horiz-adv-x="504" 
d="M465 -70v-85h-426v85h426z" />
    <glyph glyph-name="a" unicode="a" horiz-adv-x="536" 
d="M265 502q90 0 146 -53q55 -52 55 -152v-297h-98v55q-56 -66 -157 -66q-77 0 -124 39t-47 103q0 65 49 102q50 38 132 38h139v32q0 51 -27 78q-29 27 -78 27q-75 0 -136 -73l-61 62q74 105 207 105zM233 70q53 0 90 33t37 83v9h-126q-87 0 -87 -60q0 -31 24 -48
q25 -17 62 -17z" />
    <glyph glyph-name="b" unicode="b" horiz-adv-x="631" 
d="M345 502q104 0 173 -73q68 -74 68 -184q0 -109 -68 -183q-67 -73 -172 -73q-54 0 -100 21q-44 21 -72 59v-69h-98v750h105v-319q59 71 164 71zM328 85q64 0 107 45q43 44 43 116q0 71 -43 115q-43 45 -107 45q-60 0 -104 -41q-44 -42 -44 -120t44 -119t104 -41z" />
    <glyph glyph-name="c" unicode="c" horiz-adv-x="552" 
d="M305 502q68 0 122 -30q54 -32 85 -84l-74 -58q-52 75 -132 75q-67 0 -110 -46q-44 -47 -44 -113q0 -68 44 -114q43 -46 110 -46q78 0 132 74l74 -57q-70 -114 -207 -114q-109 0 -184 75q-76 73 -76 182t76 182q76 74 184 74z" />
    <glyph glyph-name="d" unicode="d" horiz-adv-x="631" 
d="M449 750h106v-750h-98v70q-57 -81 -172 -81q-105 0 -172 73q-68 74 -68 183q0 110 68 184q67 73 172 73t164 -71v319zM303 85q61 0 105 41q43 40 43 119q0 78 -44 120q-44 41 -104 41q-65 0 -108 -45q-43 -44 -43 -115q0 -72 43 -116q43 -45 108 -45z" />
    <glyph glyph-name="e" unicode="e" horiz-adv-x="570" 
d="M526 277q0 -29 -8 -66h-366q10 -61 53 -95t107 -34q78 0 143 58l50 -72q-83 -79 -196 -79t-189 74q-75 73 -75 182q0 107 74 183q74 74 180 74q99 0 163 -64t64 -161zM295 413q-52 0 -90 -32q-39 -33 -51 -88h267q-1 55 -37 88q-37 32 -89 32z" />
    <glyph glyph-name="f" unicode="f" horiz-adv-x="322" 
d="M295 666q-49 0 -72 -19q-24 -19 -24 -66v-90h116v-91h-116v-400h-105v400h-70v91h70v99q0 85 47 129q47 42 128 42q39 0 68 -9v-89q-24 3 -42 3z" />
    <glyph glyph-name="g" unicode="g" horiz-adv-x="634" 
d="M461 491h97v-440q0 -116 -67 -179t-179 -63q-137 0 -236 93l58 73q85 -70 172 -70q66 0 107 35q40 36 40 105v34q-60 -69 -166 -69q-103 0 -171 69q-68 70 -68 177t68 177q68 69 171 69q115 0 174 -81v70zM306 102q62 0 105 40t43 115q0 76 -43 113q-44 38 -105 38
q-64 0 -107 -42t-43 -110q0 -69 43 -111q43 -43 107 -43z" />
    <glyph glyph-name="h" unicode="h" horiz-adv-x="575" 
d="M323 502q83 0 133 -54q49 -53 49 -141v-307h-105v292q0 51 -29 83q-28 31 -78 31q-48 0 -80 -32t-32 -82v-292h-105v750h105v-307q53 59 142 59z" />
    <glyph glyph-name="i" unicode="i" horiz-adv-x="257" 
d="M129 744q28 0 50 -20q21 -21 21 -50q0 -30 -21 -49q-22 -20 -50 -20q-29 0 -51 20q-21 19 -21 49q0 29 21 50q22 20 51 20zM181 491v-491h-105v491h105z" />
    <glyph glyph-name="j" unicode="j" horiz-adv-x="257" 
d="M129 744q28 0 50 -20q21 -21 21 -50q0 -30 -21 -49q-22 -20 -50 -20q-29 0 -51 20q-21 19 -21 49q0 29 21 50q22 20 51 20zM181 491v-511q0 -86 -46 -129q-47 -42 -128 -42q-41 0 -68 9v89q24 -3 43 -3q48 0 71 19q23 20 23 66v502h105z" />
    <glyph glyph-name="k" unicode="k" horiz-adv-x="533" 
d="M76 0v750h105v-750h-105zM308 275l215 -275h-126l-213 276l192 215h130z" />
    <glyph glyph-name="l" unicode="l" horiz-adv-x="257" 
d="M181 750v-750h-105v750h105z" />
    <glyph glyph-name="m" unicode="m" horiz-adv-x="883" 
d="M631 502q84 0 134 -53q48 -54 48 -142v-307h-106v292q0 52 -27 83q-28 31 -75 31q-48 0 -78 -31t-30 -78v-297h-105v292q0 52 -28 83t-75 31q-48 0 -78 -31t-30 -83v-292h-105v491h98v-47q52 58 142 58q102 0 149 -77q60 77 166 77z" />
    <glyph glyph-name="n" unicode="n" horiz-adv-x="575" 
d="M321 502q85 0 135 -53q49 -53 49 -142v-307h-105v293q0 51 -29 83q-30 31 -78 31t-80 -32t-32 -82v-293h-105v491h98v-49q56 60 147 60z" />
    <glyph glyph-name="o" unicode="o" horiz-adv-x="609" 
d="M304 502q108 0 185 -74q76 -73 76 -182t-76 -182q-77 -75 -185 -75q-109 1 -184 75q-75 73 -75 182q0 108 75 182q76 74 184 74zM305 406q-66 -1 -109 -46q-44 -47 -44 -115q0 -69 43 -113q43 -46 109 -46t109 46q44 46 44 113q0 69 -43 115q-43 44 -109 46z" />
    <glyph glyph-name="p" unicode="p" horiz-adv-x="631" 
d="M345 502q106 0 173 -73q68 -74 68 -183q0 -110 -68 -184q-67 -73 -173 -73t-164 70v-239h-105v671h98v-70q27 37 72 60q45 21 99 21zM328 85q64 0 107 45q43 44 43 115q0 72 -43 116q-43 45 -107 45q-61 0 -104 -40q-44 -41 -44 -120q0 -78 44 -119q44 -42 104 -42z" />
    <glyph glyph-name="q" unicode="q" horiz-adv-x="631" 
d="M457 491h98v-671h-106v239q-58 -70 -164 -70q-105 0 -172 73q-68 74 -68 184q0 109 68 183q67 73 172 73q115 0 172 -81v70zM303 85q61 0 104 42q44 41 44 119q0 80 -43 120t-105 40q-65 0 -108 -45q-43 -46 -43 -116q0 -71 43 -115q43 -45 108 -45z" />
    <glyph glyph-name="r" unicode="r" horiz-adv-x="375" 
d="M317 496q20 0 40 -5v-93h-32q-62 0 -103 -35q-41 -36 -41 -101v-262h-105v491h98v-64q53 69 143 69z" />
    <glyph glyph-name="s" unicode="s" horiz-adv-x="455" 
d="M233 502q106 0 170 -76l-57 -65q-48 50 -115 50t-67 -47q0 -19 15 -31q13 -13 50 -27l47 -19q70 -28 102 -62q32 -35 32 -86q0 -71 -52 -110q-52 -40 -130 -40q-124 0 -198 95l60 66q67 -70 138 -70q34 0 57 14q22 13 22 41q0 22 -16 34t-53 27l-50 21q-65 27 -97 59
q-31 31 -31 84q0 67 49 104q50 38 124 38z" />
    <glyph glyph-name="t" unicode="t" horiz-adv-x="398" 
d="M303 84q17 0 65 5v-89q-52 -11 -87 -11q-86 0 -133 43q-48 42 -48 128v240h-80v91h80v129h106v-129h146v-91h-146v-231q0 -47 25 -66q23 -19 72 -19z" />
    <glyph glyph-name="u" unicode="u" horiz-adv-x="570" 
d="M499 491v-285q0 -98 -60 -157q-61 -60 -153 -60t-154 60q-61 58 -61 157v285h104v-293q0 -50 32 -82q31 -30 79 -30q46 0 77 30q31 31 31 82v293h105z" />
    <glyph glyph-name="v" unicode="v" horiz-adv-x="549" 
d="M418 491h112l-237 -502h-36l-238 502h112l143 -325z" />
    <glyph glyph-name="w" unicode="w" horiz-adv-x="854" 
d="M723 491h112l-218 -502h-36l-154 327l-154 -327h-36l-218 502h112l129 -321l149 332h36l151 -328z" />
    <glyph glyph-name="x" unicode="x" horiz-adv-x="514" 
d="M499 0h-120l-122 178l-123 -178h-120l183 255l-170 236h120l110 -160l109 160h120l-171 -236z" />
    <glyph glyph-name="y" unicode="y" horiz-adv-x="549" 
d="M418 491h112l-239 -547q-32 -71 -74 -103q-44 -32 -106 -32q-42 0 -81 10v89q41 -4 58 -4q38 0 63 15q26 17 44 57l20 46l-196 469h113l141 -358z" />
    <glyph glyph-name="z" unicode="z" horiz-adv-x="461" 
d="M179 91h260v-91h-417v29l257 371h-234v91h392v-30z" />
    <glyph glyph-name="braceleft" unicode="{" horiz-adv-x="404" 
d="M307 641q-71 0 -71 -74q0 -24 12 -90t12 -92q0 -65 -63 -86q32 -10 48 -31q15 -20 15 -54q0 -26 -12 -92t-12 -90q0 -75 71 -75h53v-88h-72q-146 0 -146 137q0 34 12 105q12 70 12 88q0 55 -57 55h-60v91h60q57 0 57 54q0 19 -12 89t-12 105q0 136 146 136h72v-88h-53z
" />
    <glyph glyph-name="bar" unicode="|" horiz-adv-x="332" 
d="M210 780v-901h-88v901h88z" />
    <glyph glyph-name="braceright" unicode="}" horiz-adv-x="404" 
d="M296 345h59v-91h-59q-58 0 -58 -55q0 -17 12 -88t12 -105q0 -137 -146 -137h-72v88h54q70 0 70 75q0 24 -12 90t-12 92q0 64 63 85q-63 21 -63 86q0 26 12 92t12 90q0 74 -70 74h-54v88h72q146 0 146 -136q0 -35 -12 -105t-12 -89q0 -54 58 -54z" />
    <glyph glyph-name="asciitilde" unicode="~" 
d="M157 417q37 0 84 -26l91 -56q44 -24 59 -24q17 0 26 12t9 30v17h83q2 -16 2 -30q0 -54 -30 -89q-32 -35 -79 -35q-39 0 -83 26l-91 55q-40 25 -59 25q-17 0 -26 -11q-10 -11 -10 -31v-17h-82q-2 16 -2 30q0 53 30 89q32 35 78 35z" />
    <glyph glyph-name="cent" unicode="&#xa2;" horiz-adv-x="555" 
d="M328 170q58 12 100 72l73 -58q-60 -97 -173 -112v-167h-98v173q-86 20 -140 89q-55 68 -55 160q0 91 55 159q54 69 140 90v173h98v-168q114 -13 174 -111l-73 -58q-44 61 -101 71v-313zM142 327q0 -49 24 -88t64 -58v291q-40 -18 -64 -57t-24 -88z" />
    <glyph glyph-name="sterling" unicode="&#xa3;" horiz-adv-x="548" 
d="M288 215q0 -73 -45 -124h261v-91h-455v24q133 90 133 190v11q-1 5 -1 10h-122v91h89q0 1 -1 3t-2.5 4t-3 5.5t-3.5 7.5q-2 3 -4 7t-3.5 6.5t-2.5 5t-2 3.5t-4 8t-6 13q-7 13 -9 23q-1 3 -3 10.5t-4 12.5q-3 9 -5 26q-2 18 -2 27q0 82 58 133q58 50 146 50q79 0 137 -44
q57 -44 79 -128l-91 -33q-33 108 -119 108q-48 0 -75 -29t-27 -74q0 -19 6 -40t12 -33q2 -4 9 -16.5t11 -20.5q9 -17 18 -35h160v-91h-130q0 -5 1 -9v-11z" />
    <glyph glyph-name="currency" unicode="&#xa4;" horiz-adv-x="649" 
d="M562 330q0 -72 -43 -133l108 -109l-63 -63l-111 112q-59 -37 -130 -37q-71 2 -129 36l-108 -111l-64 63l106 109q-43 58 -43 133q0 74 43 132l-106 108l64 63l108 -110q59 37 129 37t131 -37l109 110l64 -63l-108 -108q43 -58 43 -132zM323 197q56 0 94 38q37 37 37 94
q0 59 -37 96q-38 38 -94 38q-57 0 -93 -38q-37 -37 -37 -96q0 -57 37 -94q36 -38 93 -38z" />
    <glyph glyph-name="yen" unicode="&#xa5;" horiz-adv-x="575" 
d="M569 660l-204 -292h164v-89h-188v-77h188v-88h-188v-114h-106v114h-187v88h187v77h-187v89h163l-204 292h118l163 -236l163 236h118z" />
    <glyph glyph-name="brokenbar" unicode="&#xa6;" horiz-adv-x="332" 
d="M210 780v-300h-88v300h88zM210 179v-300h-88v300h88z" />
    <glyph glyph-name="section" unicode="&#xa7;" horiz-adv-x="590" 
d="M558 179q0 -52 -32 -87q-31 -34 -88 -48q0 -5 1 -9v-9q0 -65 -47 -109q-47 -43 -127 -43q-117 0 -184 97l71 58q52 -63 115 -63q69 0 69 58q0 21 -13 40q-14 21 -26 31q-4 3 -19.5 15t-27.5 21l-99 76q-62 44 -91 82q-28 37 -28 83q0 50 32 87q33 35 88 48v9q-1 4 -1 9
q0 65 48 109q47 43 127 43q116 0 183 -97l-71 -59q-51 63 -115 63q-69 0 -69 -57q0 -21 13 -40q16 -23 26 -31q3 -2 10.5 -8.5t17 -13.5t19.5 -15l99 -75q64 -45 91 -81q28 -37 28 -84zM408 117q48 19 48 61q0 21 -15 39q-17 19 -62 52l-102 78q-64 46 -95 86
q-47 -18 -47 -60q0 -21 15 -39q17 -20 61 -53l99 -75q72 -53 98 -89z" />
    <glyph glyph-name="dieresis" unicode="&#xa8;" horiz-adv-x="420" 
d="M98 740q29 0 48 -19t19 -47q0 -26 -19 -45q-20 -20 -48 -20q-27 0 -47 20q-21 19 -21 45q0 28 21 47q19 19 47 19zM322 740q30 0 49 -19t19 -47q0 -25 -20 -45t-48 -20q-26 0 -46 20q-21 19 -21 45q0 28 21 47q19 19 46 19z" />
    <glyph glyph-name="copyright" unicode="&#xa9;" horiz-adv-x="780" 
d="M389 671q141 0 245 -99q102 -99 102 -242q0 -144 -102 -242q-102 -99 -245 -99t-244 99q-102 98 -102 242t102 243q103 98 244 98zM389 604q-112 0 -192 -77t-80 -197q0 -121 79 -197q80 -77 193 -77q111 0 193 77q81 77 81 197t-81 197q-80 77 -193 77zM398 519
q93 0 152 -78l-60 -52q-38 50 -90 50q-47 0 -75 -31q-29 -32 -29 -78q0 -45 29 -77q28 -31 74 -31q55 0 91 49l60 -52q-59 -77 -153 -77q-79 0 -135 54q-54 54 -54 134q0 81 54 135q56 54 136 54z" />
    <glyph glyph-name="guillemotleft" unicode="&#xab;" horiz-adv-x="550" 
d="M220 485l68 -60l-138 -153l138 -155l-68 -59l-186 199v29zM447 485l68 -60l-138 -153l138 -155l-68 -59l-186 199v29z" />
    <glyph glyph-name="logicalnot" unicode="&#xac;" 
d="M478 363v-264h-101v173h-328v91h429z" />
    <glyph glyph-name="uni00AD" unicode="&#xad;" horiz-adv-x="344" 
d="M295 362v-89h-246v89h246z" />
    <glyph glyph-name="registered" unicode="&#xae;" horiz-adv-x="572" 
d="M287 688q101 0 175 -74q72 -75 72 -179q0 -105 -72 -178q-74 -74 -175 -74q-102 0 -176 74q-73 73 -73 178t73 179q74 74 176 74zM287 240q78 0 134 56q55 56 55 140t-55 139q-56 56 -134 56q-80 0 -134 -56q-55 -55 -55 -139t55 -139q54 -57 134 -57zM387 475
q0 -46 -40 -71l68 -94h-71l-61 79h-31v-79h-64v251h103q41 0 69 -24q27 -23 27 -62zM252 505v-60h38q13 0 23 8q8 8 8 21q0 14 -8 22q-9 9 -23 9h-38z" />
    <glyph glyph-name="degree" unicode="&#xb0;" horiz-adv-x="361" 
d="M180 671q63 0 109 -44q44 -44 44 -106t-44 -106q-46 -44 -109 -44q-64 0 -108 44t-44 106t44 106t108 44zM180 598q-31 0 -53 -22t-22 -55q0 -32 22 -54q23 -23 53 -23q33 0 54 22q22 22 22 55t-22 55q-21 22 -54 22z" />
    <glyph glyph-name="plusminus" unicode="&#xb1;" 
d="M332 546v-145h168v-88h-168v-151h-103v151h-168v88h168v145h103zM500 88v-88h-439v88h439z" />
    <glyph glyph-name="uni00B2" unicode="&#xb2;" horiz-adv-x="376" 
d="M184 439h153v-75h-303v18l148 160q58 64 58 106q0 28 -16 45q-16 18 -42 18t-43 -18q-17 -17 -17 -47q0 -2 0.5 -6t1 -11.5t0.5 -13.5h-82q-4 15 -4 36q0 55 40 95q41 41 104 41q62 0 103 -38q40 -37 40 -94q0 -43 -22 -78q-24 -36 -67 -84z" />
    <glyph glyph-name="uni00B3" unicode="&#xb3;" horiz-adv-x="357" 
d="M220 627q42 -11 71 -43q29 -34 29 -84q0 -62 -45 -103q-44 -40 -110 -40q-52 0 -90 25q-39 25 -60 68l58 41q34 -58 89 -58q32 0 53 18q20 18 20 49q0 61 -86 61h-45v21l88 123h-146v75h266v-23z" />
    <glyph glyph-name="uni00B5" unicode="&#xb5;" horiz-adv-x="601" 
d="M555 86l28 2v-88q-30 -8 -62 -8q-73 0 -100 55q-45 -58 -123 -58q-72 0 -117 51v-220h-105v671h105v-288q0 -54 31 -85q32 -33 78 -33q48 0 79 33q31 31 31 85v288h105v-337q0 -68 50 -68z" />
    <glyph glyph-name="paragraph" unicode="&#xb6;" horiz-adv-x="588" 
d="M338 660v-433h-60q-106 0 -173 60q-69 60 -69 158q0 97 69 156q68 59 173 59h60zM505 660v-674q0 -177 -182 -177q-36 0 -86 11v90q3 -1 11 -1.5t12 -0.5t12 -0.5t12 -1.5q7 -1 18 -1q48 0 74 20q24 21 24 71v664h105z" />
    <glyph glyph-name="periodcentered" unicode="&#xb7;" horiz-adv-x="270" 
d="M136 394q33 0 55 -22t22 -55t-22 -55q-23 -23 -55 -23q-33 0 -56 23t-23 55t23 55q22 22 56 22z" />
    <glyph glyph-name="uni00B9" unicode="&#xb9;" horiz-adv-x="361" 
d="M232 780v-341h88v-75h-275v75h104v266h-98v75h181z" />
    <glyph glyph-name="guillemotright" unicode="&#xbb;" horiz-adv-x="550" 
d="M103 485l186 -199v-29l-186 -199l-68 59l138 155l-138 153zM330 485l186 -199v-29l-186 -199l-68 59l138 155l-138 153z" />
    <glyph glyph-name="onequarter" unicode="&#xbc;" horiz-adv-x="911" 
d="M320 319v-75h-275v75h104v266h-98v75h181v-341h88zM628 660h89l-379 -660h-88zM897 137v-68h-53v-69h-76v69h-209v22l127 325h85l-110 -279h107v120h76v-120h53z" />
    <glyph glyph-name="onehalf" unicode="&#xbd;" horiz-adv-x="947" 
d="M320 319v-75h-275v75h104v266h-98v75h181v-341h88zM628 660h89l-379 -660h-88zM754 75h153v-75h-303v18l148 160q58 64 58 106q0 28 -16 45q-16 18 -42 18t-43 -18q-17 -19 -17 -47q0 -2 0.5 -6t1 -11.5t0.5 -13.5h-82q-4 15 -4 36q0 55 40 95q41 41 104 41t103 -37
t40 -95q0 -43 -22 -77q-23 -36 -67 -85z" />
    <glyph glyph-name="threequarters" unicode="&#xbe;" horiz-adv-x="872" 
d="M320 380q0 -62 -45 -103q-44 -40 -110 -40q-50 0 -90 26q-39 26 -60 67l58 41q34 -58 89 -58q32 0 53 18q20 18 20 49q0 61 -86 61h-45v21l88 123h-146v75h266v-23l-92 -130q40 -10 71 -43q29 -34 29 -84zM589 660h89l-379 -660h-88zM858 137v-68h-53v-69h-76v69h-209v22
l127 325h85l-110 -279h107v120h76v-120h53z" />
    <glyph glyph-name="multiply" unicode="&#xd7;" 
d="M432 534l63 -63l-152 -152l152 -152l-63 -63l-152 151l-152 -151l-63 63l151 152l-151 152l63 63l152 -151z" />
    <glyph glyph-name="divide" unicode="&#xf7;" 
d="M278 564q30 0 49 -18q19 -19 19 -47q0 -26 -20 -46q-19 -19 -48 -19t-48 19q-20 20 -20 46t20 46q19 19 48 19zM509 363v-91h-459v91h459zM278 199q30 0 49 -18q19 -19 19 -47t-19 -46q-19 -19 -49 -19q-29 0 -48 19q-20 20 -20 46t20 46q19 19 48 19z" />
    <glyph glyph-name="florin" unicode="&#x192;" horiz-adv-x="447" 
d="M380 671q41 0 65 -9v-88q-42 2 -45 2q-46 0 -68 -19q-23 -20 -29 -66l-11 -89h99v-91h-110l-33 -273q-22 -171 -181 -171q-28 0 -65 8l-1 89q25 -3 45 -3q44 0 69 20q23 20 29 66l32 264h-75v91h86l12 98q19 171 181 171z" />
    <glyph glyph-name="uni030C" unicode="&#x30c;" horiz-adv-x="0" 
d="M-30 750l-44 -208h-76l9 208h111z" />
    <glyph glyph-name="dieresistonos" unicode="&#x385;" horiz-adv-x="555" 
d="M347 780v-19l-48 -193h-75v212h123zM108 740q29 0 48 -19t19 -47q0 -26 -19 -45q-20 -20 -48 -20q-26 0 -46 20q-21 19 -21 45q0 28 21 47q19 19 46 19zM448 740q29 0 48 -19q20 -20 20 -47q0 -25 -20 -45t-48 -20q-26 0 -46 20q-21 19 -21 45q0 28 21 47q19 19 46 19z
" />
    <glyph glyph-name="Alphatonos" unicode="&#x386;" horiz-adv-x="662" 
d="M149 720l-44 -208h-76l9 208h111zM526 0l-47 110h-297l-47 -110h-113l291 671h36l291 -671h-114zM440 201l-109 274l-110 -274h219z" />
    <glyph glyph-name="Epsilontonos" unicode="&#x388;" horiz-adv-x="569" 
d="M19 720l-44 -208h-76l9 208h111zM517 660v-95h-328v-169h247v-92h-247v-209h340v-95h-446v660h434z" />
    <glyph glyph-name="Etatonos" unicode="&#x389;" horiz-adv-x="711" 
d="M19 720l-44 -208h-76l9 208h111zM627 660v-660h-106v302h-332v-302h-106v660h106v-263h332v263h106z" />
    <glyph glyph-name="Iotatonos" unicode="&#x38a;" horiz-adv-x="272" 
d="M19 720l-44 -208h-76l9 208h111zM189 660v-660h-106v660h106z" />
    <glyph glyph-name="Omicrontonos" unicode="&#x38c;" horiz-adv-x="780" 
d="M54 720l-44 -208h-76l9 208h111zM389 671q143 0 246 -98q101 -99 101 -243t-101 -242q-102 -99 -246 -99q-145 0 -245 99q-101 98 -101 242t101 243q101 98 245 98zM390 574q-102 0 -170 -69q-67 -68 -67 -174q0 -107 67 -175q67 -70 170 -70t170 70q67 68 67 175
q0 103 -68 174q-67 69 -169 69z" />
    <glyph glyph-name="Upsilontonos" unicode="&#x38e;" horiz-adv-x="620" 
d="M-157 512l9 208h111l-44 -208h-76zM591 660l-228 -393v-267h-106v266l-228 394h118l163 -287l164 287h117z" />
    <glyph glyph-name="Omegatonos" unicode="&#x38f;" horiz-adv-x="790" 
d="M-57 720h111l-44 -208h-76zM741 345q0 -148 -139 -250h129v-95h-276v95q177 84 177 245q0 102 -67 168t-171 66q-101 0 -169 -65q-67 -64 -67 -168q0 -161 177 -246v-95h-277v95h125q-135 101 -135 250q0 138 101 233q100 93 245 93t246 -94q101 -95 101 -232z" />
    <glyph glyph-name="iotadieresistonos" unicode="&#x390;" horiz-adv-x="299" 
d="M208 780v-19l-48 -193h-75v212h123zM-31 740q29 0 48 -19t19 -47q0 -25 -20 -45t-47 -20q-25 0 -47 20q-20 20 -20 45q0 27 20 47q20 19 47 19zM309 740q29 0 48 -19q20 -20 20 -47q0 -25 -20 -45t-48 -20q-26 0 -46 20q-21 19 -21 45q0 28 21 47q19 19 46 19zM179 491
v-327q0 -44 16 -61q15 -19 48 -19q2 0 6.5 0.5t13 1t16.5 0.5v-89q-27 -8 -63 -8q-143 0 -143 161v341h106z" />
    <glyph glyph-name="Alpha" unicode="&#x391;" horiz-adv-x="662" 
d="M526 0l-47 110h-297l-47 -110h-113l291 671h36l291 -671h-114zM440 201l-109 274l-110 -274h219z" />
    <glyph glyph-name="Beta" unicode="&#x392;" horiz-adv-x="618" 
d="M456 360q59 -20 92 -63q32 -44 32 -105q0 -84 -59 -138t-155 -54h-283v660h231q89 0 144 -49q54 -49 54 -127q0 -77 -56 -124zM304 567h-117v-178h117q50 0 76 25q26 24 26 65t-26 65q-28 23 -76 23zM357 93q55 0 86 28q30 27 30 74t-30 75q-31 28 -86 28h-170v-205h170z
" />
    <glyph glyph-name="Gamma" unicode="&#x393;" horiz-adv-x="515" 
d="M189 0h-106v660h408v-95h-302v-565z" />
    <glyph glyph-name="Delta" unicode="&#x394;" horiz-adv-x="662" 
d="M349 671l291 -671h-618l291 671h36zM486 95l-155 365l-155 -365h310z" />
    <glyph glyph-name="Epsilon" unicode="&#x395;" horiz-adv-x="569" 
d="M517 660v-95h-328v-169h247v-92h-247v-209h340v-95h-446v660h434z" />
    <glyph glyph-name="Zeta" unicode="&#x396;" horiz-adv-x="588" 
d="M190 95h368v-95h-532v29l365 536h-322v95h488v-29z" />
    <glyph glyph-name="Eta" unicode="&#x397;" horiz-adv-x="711" 
d="M627 660v-660h-106v302h-332v-302h-106v660h106v-263h332v263h106z" />
    <glyph glyph-name="Theta" unicode="&#x398;" horiz-adv-x="780" 
d="M389 671q143 0 246 -98q101 -99 101 -243t-101 -242q-102 -99 -246 -99q-145 0 -245 99q-101 98 -101 242t101 243q101 98 245 98zM389 579q-106 0 -173 -70q-69 -71 -69 -179t69 -178q69 -71 173 -71t175 71q69 70 69 178t-69 178q-71 71 -175 71zM520 382v-89h-259v89
h259z" />
    <glyph glyph-name="Iota" unicode="&#x399;" horiz-adv-x="272" 
d="M189 660v-660h-106v660h106z" />
    <glyph glyph-name="Kappa" unicode="&#x39a;" horiz-adv-x="651" 
d="M83 0v660h106v-660h-106zM325 351l304 -351h-131l-306 351l277 309h130z" />
    <glyph glyph-name="Lambda" unicode="&#x39b;" horiz-adv-x="662" 
d="M640 0h-114l-195 461l-196 -461h-113l291 671h36z" />
    <glyph glyph-name="Mu" unicode="&#x39c;" horiz-adv-x="793" 
d="M674 671h36v-671h-106v414l-189 -248h-36l-190 248v-414h-106v671h37l277 -369z" />
    <glyph glyph-name="Nu" unicode="&#x39d;" horiz-adv-x="711" 
d="M521 660h106v-671h-36l-402 457v-446h-106v671h37l401 -456v445z" />
    <glyph glyph-name="Xi" unicode="&#x39e;" horiz-adv-x="556" 
d="M516 660v-95h-476v95h476zM505 397v-94h-453v94h453zM516 95v-95h-476v95h476z" />
    <glyph glyph-name="Omicron" unicode="&#x39f;" horiz-adv-x="780" 
d="M389 671q143 0 246 -98q101 -99 101 -243t-101 -242q-102 -99 -246 -99q-145 0 -245 99q-101 98 -101 242t101 243q101 98 245 98zM390 574q-102 0 -170 -69q-67 -68 -67 -174q0 -107 67 -175q67 -70 170 -70t170 70q67 68 67 175q0 103 -68 174q-67 69 -169 69z" />
    <glyph glyph-name="Pi" unicode="&#x3a0;" horiz-adv-x="686" 
d="M603 660v-660h-106v565h-308v-565h-106v660h520z" />
    <glyph glyph-name="Rho" unicode="&#x3a1;" horiz-adv-x="583" 
d="M324 660q100 0 162 -56t62 -146t-62 -146q-62 -57 -162 -57h-135v-255h-106v660h241zM322 566h-133v-217h133q56 0 87 30q30 29 30 78t-30 79q-31 30 -87 30z" />
    <glyph glyph-name="Sigma" unicode="&#x3a3;" horiz-adv-x="572" 
d="M224 95h308v-95h-481v24l214 314l-214 298v24h469v-95h-293l157 -214v-24z" />
    <glyph glyph-name="Tau" unicode="&#x3a4;" horiz-adv-x="583" 
d="M567 660v-95h-223v-565h-106v565h-222v95h551z" />
    <glyph glyph-name="Upsilon" unicode="&#x3a5;" horiz-adv-x="620" 
d="M591 660l-228 -393v-267h-106v266l-228 394h118l163 -287l164 287h117z" />
    <glyph glyph-name="Phi" unicode="&#x3a6;" horiz-adv-x="817" 
d="M774 335q0 -127 -87 -201q-86 -74 -226 -76v-89h-106v89q-137 1 -225 77q-87 73 -87 200q0 125 86 199q87 74 226 75v83h106v-83q140 -2 226 -74q87 -74 87 -200zM150 332q0 -85 56 -133t149 -48v365q-93 0 -149 -48q-56 -50 -56 -136zM461 151q95 0 151 48q55 48 55 133
q0 87 -55 136q-56 48 -151 48v-365z" />
    <glyph glyph-name="Chi" unicode="&#x3a7;" horiz-adv-x="607" 
d="M584 0h-121l-160 246l-159 -246h-122l223 337l-209 323h122l146 -234l144 234h121l-205 -324z" />
    <glyph glyph-name="Psi" unicode="&#x3a8;" horiz-adv-x="831" 
d="M469 682v-438q90 0 142 43q52 42 52 128v245h106v-254q0 -126 -81 -191q-80 -66 -219 -66v-149h-106v149q-139 0 -220 66q-81 65 -81 191v254h106v-245q0 -84 53 -128q52 -43 142 -43v438h106z" />
    <glyph glyph-name="Omega" unicode="&#x3a9;" horiz-adv-x="790" 
d="M741 345q0 -148 -139 -250h129v-95h-276v95q177 84 177 245q0 102 -67 168t-171 66q-101 0 -169 -65q-67 -64 -67 -168q0 -161 177 -246v-95h-277v95h125q-135 101 -135 250q0 138 101 233q100 93 245 93t246 -94q101 -95 101 -232z" />
    <glyph glyph-name="Iotadieresis" unicode="&#x3aa;" horiz-adv-x="272" 
d="M14 877q28 0 48 -18q19 -19 19 -47q0 -26 -19 -45q-20 -20 -48 -20q-26 0 -48 20q-20 20 -20 45q0 26 20 46q20 19 48 19zM258 877q30 0 49 -19t19 -47q0 -25 -20 -45t-48 -20q-26 0 -46 20q-21 20 -21 45q0 27 21 47q19 19 46 19zM189 660v-660h-106v660h106z" />
    <glyph glyph-name="Upsilondieresis" unicode="&#x3ab;" horiz-adv-x="620" 
d="M170 747q-27 0 -47 20q-21 19 -21 45t21 46q19 19 47 19t48 -18q19 -19 19 -47q0 -26 -19 -45q-20 -20 -48 -20zM414 746q-27 0 -46 19q-21 19 -21 46t21 46q20 20 46 20q30 0 49 -19t19 -47q0 -25 -20 -45t-48 -20zM591 660l-228 -393v-267h-106v266l-228 394h118
l163 -287l164 287h117z" />
    <glyph glyph-name="alphatonos" unicode="&#x3ac;" horiz-adv-x="643" 
d="M389 761l-47 -193h-79v212h126v-19zM596 86h6q2 1 6 1q3 1 5 1h12v-88q-32 -8 -63 -8q-87 0 -111 80q-56 -83 -170 -83q-103 0 -169 73q-67 73 -67 183q0 111 67 184q66 73 169 73q54 0 102 -23q45 -24 71 -65q2 14 3 39q0 7 0.5 15t1 14t0.5 9h98q-10 -143 -10 -232
v-107q0 -66 49 -66zM298 85q60 0 102 42q43 40 43 118q0 77 -43 119q-42 42 -102 42q-63 0 -105 -45q-41 -46 -41 -115q0 -70 41 -116q42 -45 105 -45z" />
    <glyph glyph-name="epsilontonos" unicode="&#x3ad;" horiz-adv-x="503" 
d="M335 761l-47 -193h-79v212h126v-19zM400 145l64 -63q-72 -93 -205 -93q-92 0 -148 40q-57 41 -57 108q0 79 75 119q-54 39 -54 107q0 65 52 102q50 37 135 37q129 0 196 -85l-64 -63q-48 55 -130 55q-84 0 -84 -56q0 -25 18 -40t52 -15h89v-84h-90q-45 0 -68 -17
q-23 -18 -23 -47q0 -31 26 -49q25 -19 75 -19q89 0 141 63z" />
    <glyph glyph-name="etatonos" unicode="&#x3ae;" horiz-adv-x="595" 
d="M373 761l-47 -193h-79v212h126v-19zM339 502q85 0 136 -54q50 -55 50 -141v-487h-105v472q0 51 -29 83q-28 31 -78 31q-48 0 -80 -32t-32 -82v-292h-105v339q0 65 -50 65q-17 0 -28 -1v88q30 8 63 8q77 0 103 -60q60 63 155 63z" />
    <glyph glyph-name="iotatonos" unicode="&#x3af;" horiz-adv-x="299" 
d="M203 780v-19l-47 -193h-79v212h126zM179 491v-327q0 -44 16 -61q15 -19 48 -19q2 0 6.5 0.5t13 1t16.5 0.5v-89q-27 -8 -63 -8q-143 0 -143 161v341h106z" />
    <glyph glyph-name="upsilondieresistonos" unicode="&#x3b0;" horiz-adv-x="564" 
d="M354 780v-19l-48 -193h-75v212h123zM115 740q29 0 48 -19t19 -47q0 -26 -19 -45q-20 -20 -48 -20q-26 0 -46 20q-21 19 -21 45q0 28 21 47q19 19 46 19zM455 740q29 0 48 -19q20 -20 20 -47q0 -25 -20 -45t-48 -20q-26 0 -46 20q-21 19 -21 45q0 28 21 47q19 19 46 19z
M463 491q45 -135 45 -251q0 -127 -61 -188q-61 -63 -158 -63q-95 0 -157 59q-61 58 -61 162v281h105v-289q0 -54 32 -86t82 -32q48 0 80 36q30 38 30 118q0 52 -12 126q-11 69 -29 127h104z" />
    <glyph glyph-name="alpha" unicode="&#x3b1;" horiz-adv-x="643" 
d="M596 86h6q2 1 6 1q3 1 5 1h12v-88q-32 -8 -63 -8q-87 0 -111 80q-56 -83 -170 -83q-103 0 -169 73q-67 73 -67 183q0 111 67 184q66 73 169 73q54 0 102 -23q45 -24 71 -65q2 14 3 39q0 7 0.5 15t1 14t0.5 9h98q-10 -143 -10 -232v-107q0 -66 49 -66zM298 85q60 0 102 42
q43 40 43 118q0 77 -43 119q-42 42 -102 42q-63 0 -105 -45q-41 -46 -41 -115q0 -70 41 -116q42 -45 105 -45z" />
    <glyph glyph-name="beta" unicode="&#x3b2;" horiz-adv-x="621" 
d="M425 426q68 -19 111 -73q41 -55 41 -133q0 -105 -69 -168q-70 -63 -170 -63q-90 0 -157 53v-222h-105v723q0 101 62 160q61 58 161 58q95 0 149 -54q53 -55 53 -133q0 -97 -76 -148zM324 86q66 0 106 37t40 100t-41 101t-104 38h-58v90h22q49 0 77 30q28 29 28 81
q0 51 -28 78q-29 26 -73 26q-49 0 -81 -33q-31 -34 -31 -94v-396q61 -58 143 -58z" />
    <glyph glyph-name="gamma" unicode="&#x3b3;" horiz-adv-x="549" 
d="M530 491l-203 -430v-241h-105v241l-203 430h112l143 -325l144 325h112z" />
    <glyph glyph-name="delta" unicode="&#x3b4;" horiz-adv-x="609" 
d="M474 444q91 -94 91 -197q0 -109 -76 -184q-77 -74 -186 -74q-107 0 -183 74q-75 75 -75 184q0 103 69 173q68 70 171 76l-215 225v29h464v-91h-267zM304 86q66 0 109 46q44 46 44 113q0 66 -44 113q-43 45 -109 45t-109 -45q-43 -46 -43 -114q0 -69 43 -113
q44 -45 109 -45z" />
    <glyph glyph-name="epsilon" unicode="&#x3b5;" horiz-adv-x="503" 
d="M400 145l64 -63q-72 -93 -205 -93q-92 0 -148 40q-57 41 -57 108q0 79 75 119q-54 39 -54 107q0 65 52 102q50 37 135 37q129 0 196 -85l-64 -63q-48 55 -130 55q-84 0 -84 -56q0 -25 18 -40t52 -15h89v-84h-90q-45 0 -68 -17q-23 -18 -23 -47q0 -31 26 -49
q25 -19 75 -19q89 0 141 63z" />
    <glyph glyph-name="zeta" unicode="&#x3b6;" horiz-adv-x="514" 
d="M349 85q154 -40 154 -162q0 -49 -24 -103h-104q20 54 20 87q0 64 -84 85l-62 16q-98 23 -151 79t-53 133q0 96 91 205l190 234h-251v91h420v-29l-279 -349q-64 -79 -64 -139q0 -95 129 -129z" />
    <glyph glyph-name="eta" unicode="&#x3b7;" horiz-adv-x="595" 
d="M339 502q85 0 136 -54q50 -55 50 -141v-487h-105v472q0 51 -29 83q-28 31 -78 31q-48 0 -80 -32t-32 -82v-292h-105v339q0 65 -50 65q-17 0 -28 -1v88q30 8 63 8q77 0 103 -60q60 63 155 63z" />
    <glyph glyph-name="theta" unicode="&#x3b8;" horiz-adv-x="629" 
d="M314 761q126 0 189 -99t63 -285q0 -187 -63 -288q-65 -101 -189 -101q-125 0 -188 101t-63 288q0 186 63 285t188 99zM314 664q-66 0 -101 -56t-41 -177h285q-6 121 -41 177t-102 56zM314 84q136 0 143 256h-286q9 -256 143 -256z" />
    <glyph glyph-name="iota" unicode="&#x3b9;" horiz-adv-x="299" 
d="M179 491v-327q0 -44 16 -61q15 -19 48 -19q2 0 6.5 0.5t13 1t16.5 0.5v-89q-27 -8 -63 -8q-143 0 -143 161v341h106z" />
    <glyph glyph-name="kappa" unicode="&#x3ba;" horiz-adv-x="534" 
d="M76 0v491h105v-491h-105zM313 264l212 -264h-125l-215 263l200 228h129z" />
    <glyph glyph-name="lambda" unicode="&#x3bb;" 
d="M527 88h23v-88q-27 -8 -49 -8q-45 0 -71 23q-25 22 -42 73l-99 294l-154 -382h-111l214 506l-27 80q-17 46 -39 63q-23 17 -63 17q-19 0 -50 -3v89q27 9 68 9q65 0 107 -30q42 -31 70 -109l173 -488q15 -46 50 -46z" />
    <glyph glyph-name="mu" unicode="&#x3bc;" horiz-adv-x="601" 
d="M555 86l28 2v-88q-30 -8 -62 -8q-73 0 -100 55q-45 -58 -123 -58q-72 0 -117 51v-220h-105v671h105v-288q0 -54 31 -85q32 -33 78 -33q48 0 79 33q31 31 31 85v288h105v-337q0 -68 50 -68z" />
    <glyph glyph-name="nu" unicode="&#x3bd;" horiz-adv-x="549" 
d="M418 491h112l-237 -502h-36l-238 502h112l143 -325z" />
    <glyph glyph-name="xi" unicode="&#x3be;" horiz-adv-x="525" 
d="M356 88q79 -14 118 -56q40 -43 40 -110q0 -51 -24 -102h-103q20 54 20 87q0 72 -83 86l-55 9q-105 17 -160 75q-56 59 -56 142q0 64 32 114t86 75q-87 56 -87 158q0 84 62 140q61 55 154 55q136 0 205 -115l-74 -58q-52 76 -123 76q-49 0 -82 -30q-34 -30 -34 -77t33 -78
q34 -32 85 -32h106v-91h-116q-59 0 -99 -35q-40 -34 -40 -93q0 -51 34 -84q33 -34 98 -44z" />
    <glyph glyph-name="omicron" unicode="&#x3bf;" horiz-adv-x="609" 
d="M304 502q108 0 185 -74q76 -75 76 -183q0 -109 -76 -182q-77 -74 -185 -74q-107 0 -183 74q-76 73 -76 182q0 108 76 183q76 74 183 74zM305 405q-66 0 -109 -46q-44 -47 -44 -114t44 -113q43 -46 108 -46q66 0 109 46q44 46 44 113q0 68 -43 114t-109 46z" />
    <glyph glyph-name="pi" unicode="&#x3c0;" horiz-adv-x="590" 
d="M512 -8q-60 0 -91 36q-33 37 -33 107v265h-207v-400h-105v491h418v-344q0 -61 49 -61h3q4 1 11 1.5t15 0.5v-88q-32 -8 -60 -8z" />
    <glyph glyph-name="rho" unicode="&#x3c1;" horiz-adv-x="619" 
d="M320 502q114 0 185 -72q70 -73 70 -185q0 -110 -67 -183t-171 -73t-162 70v-239h-104v422q0 115 68 188q67 72 181 72zM319 85q64 0 106 45q42 44 42 115t-42 116t-107 45q-62 0 -102 -40q-42 -40 -42 -119q0 -80 43 -120q42 -42 102 -42z" />
    <glyph glyph-name="uni03C2" unicode="&#x3c2;" horiz-adv-x="529" 
d="M348 -180q25 53 25 91q0 21 -6 34q-6 15 -22 23q-18 11 -29 15q-32 10 -41 13q-44 13 -58 19q-23 9 -59 29q-36 21 -58 46q-21 24 -38 67t-17 94q0 116 71 184q70 67 178 67q141 0 212 -116l-73 -58q-57 77 -138 77q-63 0 -102 -40q-40 -40 -40 -110q0 -41 15 -73
q13 -28 43 -49q27 -17 50 -27q21 -8 57 -18q43 -14 50 -17q23 -9 44 -20q24 -13 37 -28q12 -13 23 -40q9 -24 9 -54q0 -56 -30 -109h-103z" />
    <glyph glyph-name="sigma" unicode="&#x3c3;" horiz-adv-x="640" 
d="M623 491v-91h-139q73 -63 73 -164q0 -105 -73 -175q-72 -72 -184 -72q-111 0 -183 74q-72 73 -72 180q0 109 73 179q73 69 188 69h317zM300 86q65 0 107 46q42 45 42 113q0 67 -42 111q-40 42 -106 42t-108 -42q-41 -44 -41 -112q0 -67 41 -113q42 -45 107 -45z" />
    <glyph glyph-name="tau" unicode="&#x3c4;" horiz-adv-x="463" 
d="M349 84q21 0 84 5v-89q-55 -11 -106 -11q-187 0 -187 171v240h-129v91h412v-91h-178v-231q0 -46 26 -66q25 -19 78 -19z" />
    <glyph glyph-name="upsilon" unicode="&#x3c5;" horiz-adv-x="564" 
d="M463 491q45 -135 45 -251q0 -127 -61 -188q-61 -63 -158 -63q-95 0 -157 59q-61 58 -61 162v281h105v-289q0 -54 32 -86t82 -32q48 0 80 36q30 38 30 118q0 52 -12 126q-11 69 -29 127h104z" />
    <glyph glyph-name="phi" unicode="&#x3c6;" horiz-adv-x="775" 
d="M730 246q0 -118 -80 -187q-80 -70 -210 -70v-169h-106v169q-130 0 -209 69q-80 71 -80 188q0 116 81 185q79 68 208 70v201h106v-201q128 -2 209 -69q81 -69 81 -186zM148 244q0 -76 50 -120t136 -44h3v330h-3q-86 0 -136 -44q-50 -45 -50 -122zM440 80q87 0 137 44
t50 120q0 77 -50 122q-50 44 -137 44h-3v-330h3z" />
    <glyph glyph-name="chi" unicode="&#x3c7;" horiz-adv-x="526" 
d="M490 -93q20 0 26 1v-88q-24 -8 -51 -8q-71 0 -113 79l-91 180l-135 -251h-116l197 350l-101 193q-21 40 -60 40h-26v88q18 7 51 7q75 0 117 -85l75 -151l124 229h117l-186 -326l113 -218q21 -40 59 -40z" />
    <glyph glyph-name="psi" unicode="&#x3c8;" horiz-adv-x="802" 
d="M456 660v-576q85 0 134 46q48 46 48 137t-42 224h105q45 -130 45 -229q0 -129 -79 -201t-211 -72v-169h-106v169q-123 0 -200 67q-79 67 -79 190v245h104v-236q0 -83 51 -126q51 -45 124 -45v576h106z" />
    <glyph glyph-name="omega" unicode="&#x3c9;" horiz-adv-x="839" 
d="M585 499q210 -54 210 -261q0 -116 -62 -183q-63 -66 -159 -66q-104 0 -154 77q-51 -77 -155 -77q-95 0 -158 66q-62 65 -62 182q0 208 210 262l27 -94q-62 -20 -97 -59q-34 -38 -34 -110q0 -74 34 -112q35 -39 84 -39q44 0 71 32q28 31 28 87v170h103v-170q0 -56 27 -87
q29 -32 72 -32q50 0 84 39q34 38 34 112q0 72 -34 110q-35 39 -98 59z" />
    <glyph glyph-name="iotadieresis" unicode="&#x3ca;" horiz-adv-x="299" 
d="M28 740q29 0 48 -19t19 -47q0 -26 -19 -45q-20 -20 -48 -20q-27 0 -47 20q-21 19 -21 45q0 27 20 47q19 19 48 19zM228 740q30 0 49 -19t19 -47q0 -25 -20 -45t-48 -20q-26 0 -46 20q-21 19 -21 45q0 27 20 47q19 19 47 19zM179 491v-327q0 -44 16 -61q15 -19 48 -19
q2 0 6.5 0.5t13 1t16.5 0.5v-89q-27 -8 -63 -8q-143 0 -143 161v341h106z" />
    <glyph glyph-name="upsilondieresis" unicode="&#x3cb;" horiz-adv-x="564" 
d="M161 740q29 0 48 -19t19 -47q0 -26 -19 -45q-20 -20 -48 -20q-27 0 -47 20q-21 19 -21 45q0 28 21 47q19 19 47 19zM385 740q30 0 49 -19t19 -47q0 -25 -20 -45t-48 -20q-26 0 -46 20q-21 19 -21 45q0 28 21 47q19 19 46 19zM463 491q45 -135 45 -251q0 -127 -61 -188
q-61 -63 -158 -63q-95 0 -157 59q-61 58 -61 162v281h105v-289q0 -54 32 -86t82 -32q48 0 80 36q30 38 30 118q0 52 -12 126q-11 69 -29 127h104z" />
    <glyph glyph-name="omicrontonos" unicode="&#x3cc;" horiz-adv-x="609" 
d="M379 780v-19l-47 -193h-79v212h126zM304 502q108 0 185 -74q76 -75 76 -183q0 -109 -76 -182q-77 -74 -185 -74q-107 0 -183 74q-76 73 -76 182q0 108 76 183q76 74 183 74zM305 405q-66 0 -109 -46q-44 -47 -44 -114t44 -113q43 -46 108 -46q66 0 109 46q44 46 44 113
q0 68 -43 114t-109 46z" />
    <glyph glyph-name="upsilontonos" unicode="&#x3cd;" horiz-adv-x="564" 
d="M349 780v-19l-47 -193h-79v212h126zM463 491q45 -135 45 -251q0 -127 -61 -188q-61 -63 -158 -63q-95 0 -157 59q-61 58 -61 162v281h105v-289q0 -54 32 -86t82 -32q48 0 80 36q30 38 30 118q0 52 -12 126q-11 69 -29 127h104z" />
    <glyph glyph-name="omegatonos" unicode="&#x3ce;" horiz-adv-x="839" 
d="M492 761l-47 -193h-79v212h126v-19zM585 499q210 -54 210 -261q0 -116 -62 -183q-63 -66 -159 -66q-104 0 -154 77q-51 -77 -155 -77q-95 0 -158 66q-62 65 -62 182q0 208 210 262l27 -94q-62 -20 -97 -59q-34 -38 -34 -110q0 -74 34 -112q35 -39 84 -39q44 0 71 32
q28 31 28 87v170h103v-170q0 -56 27 -87q29 -32 72 -32q50 0 84 39q34 38 34 112q0 72 -34 110q-35 39 -98 59z" />
    <glyph glyph-name="uni2009" unicode="&#x2009;" horiz-adv-x="147" 
 />
    <glyph glyph-name="endash" unicode="&#x2013;" horiz-adv-x="504" 
d="M465 362v-89h-426v89h426z" />
    <glyph glyph-name="emdash" unicode="&#x2014;" horiz-adv-x="1000" 
d="M950 362v-89h-900v89h900z" />
    <glyph glyph-name="uni2015" unicode="&#x2015;" horiz-adv-x="1000" 
d="M950 362v-89h-900v89h900z" />
    <glyph glyph-name="quoteleft" unicode="&#x2018;" horiz-adv-x="291" 
d="M202 660l-10 -268h-121l49 268h82z" />
    <glyph glyph-name="quoteright" unicode="&#x2019;" horiz-adv-x="291" 
d="M219 660l-49 -268h-81l9 268h121z" />
    <glyph glyph-name="quotesinglbase" unicode="&#x201a;" horiz-adv-x="291" 
d="M219 106l-49 -267h-81l9 267h121z" />
    <glyph glyph-name="quotedblleft" unicode="&#x201c;" horiz-adv-x="500" 
d="M202 660l-10 -268h-121l49 268h82zM411 660l-9 -268h-121l49 268h81z" />
    <glyph glyph-name="quotedblright" unicode="&#x201d;" horiz-adv-x="500" 
d="M219 660l-49 -268h-81l9 268h121zM429 660l-49 -268h-81l9 268h121z" />
    <glyph glyph-name="quotedblbase" unicode="&#x201e;" horiz-adv-x="500" 
d="M219 106l-49 -267h-81l9 267h121zM429 106l-49 -267h-81l9 267h121z" />
    <glyph glyph-name="dagger" unicode="&#x2020;" horiz-adv-x="467" 
d="M286 750v-139h126v-91h-126v-233h-105v233h-126v91h126v139h105z" />
    <glyph glyph-name="daggerdbl" unicode="&#x2021;" horiz-adv-x="467" 
d="M286 750v-109h126v-91h-126v-131h126v-91h-126v-110h-105v110h-126v91h126v131h-126v91h126v109h105z" />
    <glyph glyph-name="bullet" unicode="&#x2022;" horiz-adv-x="402" 
d="M201 413q60 0 104 -41q42 -40 42 -103q0 -61 -42 -102q-44 -41 -104 -41q-59 0 -103 41t-44 102q0 62 44 103t103 41z" />
    <glyph glyph-name="ellipsis" unicode="&#x2026;" horiz-adv-x="778" 
d="M390 144q33 0 55 -22t22 -56q0 -33 -22 -55t-55 -22t-55 22q-23 23 -23 55q0 33 23 56q22 22 55 22zM644 144q33 0 55 -22t22 -56q0 -33 -22 -55t-55 -22t-55 22q-23 23 -23 55q0 33 23 56q22 22 55 22zM136 144q33 0 55 -22t22 -56q0 -33 -22 -55t-55 -22q-34 0 -56 22
q-23 23 -23 55q0 33 23 56q22 22 56 22z" />
    <glyph glyph-name="perthousand" unicode="&#x2030;" horiz-adv-x="1202" 
d="M213 671q69 0 118 -46t49 -116q0 -69 -48 -116q-50 -47 -119 -47t-118 47q-49 46 -49 116t49 116q47 46 118 46zM644 660l-379 -660h-88l378 660h89zM213 597q-37 0 -59 -25q-24 -26 -24 -63t23 -63q22 -25 60 -25q36 0 60 25q23 26 23 63t-23 63q-24 25 -60 25zM990 316
q69 0 119 -47q48 -46 48 -116q0 -69 -49 -115q-50 -47 -118 -47t-118 47q-49 46 -49 115q0 70 49 116q49 47 118 47zM607 315q69 0 119 -47q49 -46 49 -116q0 -69 -49 -115q-50 -47 -119 -47q-68 0 -117 47q-49 46 -49 115q0 70 49 116q49 47 117 47zM991 241q-38 0 -60 -25
q-24 -26 -24 -63t24 -63q23 -24 60 -24q35 0 59 25q23 26 23 62q0 37 -23 63q-24 25 -59 25zM608 240q-38 0 -60 -25q-23 -26 -23 -63t23 -63q22 -24 60 -24q35 0 59 25q23 26 23 62q0 37 -23 63q-24 25 -59 25z" />
    <glyph glyph-name="minute" unicode="&#x2032;" horiz-adv-x="268" 
d="M228 660l-79 -278h-82l39 278h122z" />
    <glyph glyph-name="second" unicode="&#x2033;" horiz-adv-x="477" 
d="M228 660l-79 -278h-82l39 278h122zM438 660l-79 -278h-82l38 278h123z" />
    <glyph glyph-name="guilsinglleft" unicode="&#x2039;" horiz-adv-x="323" 
d="M220 485l68 -60l-138 -153l138 -155l-68 -59l-186 199v29z" />
    <glyph glyph-name="guilsinglright" unicode="&#x203a;" horiz-adv-x="323" 
d="M103 485l186 -199v-29l-186 -199l-68 59l138 155l-138 153z" />
    <glyph glyph-name="fraction" unicode="&#x2044;" horiz-adv-x="244" 
d="M356 660l-379 -660h-89l379 660h89z" />
    <glyph glyph-name="uni2070" unicode="&#x2070;" horiz-adv-x="415" 
d="M208 787q81 0 121 -58q41 -59 41 -153q0 -95 -41 -157t-121 -62t-121 62t-41 157q0 94 41 153q40 58 121 58zM208 711q-78 0 -78 -136q0 -143 78 -143t78 143q0 136 -78 136z" />
    <glyph glyph-name="uni2074" unicode="&#x2074;" horiz-adv-x="365" 
d="M352 501v-68h-53v-69h-76v69h-209v22l127 325h85l-110 -279h107v120h76v-120h53z" />
    <glyph glyph-name="uni2075" unicode="&#x2075;" horiz-adv-x="368" 
d="M189 632q60 0 101 -34q42 -34 42 -96q0 -64 -45 -105q-46 -40 -113 -40q-51 0 -91 26q-40 25 -61 67l58 41q34 -58 91 -58q33 0 55 18q21 18 21 48q0 62 -87 62h-95v219h238v-75h-159v-78q28 5 45 5z" />
    <glyph glyph-name="uni2076" unicode="&#x2076;" horiz-adv-x="373" 
d="M202 646q52 0 95 -41q41 -41 41 -101q0 -63 -45 -105t-107 -42q-63 0 -106 42q-44 42 -44 107q0 35 13 61q14 30 43 69l103 144h98l-96 -134h5zM186 433q29 0 49 20t20 51t-20 51q-19 21 -49 21q-28 0 -48 -21q-20 -20 -20 -51t20 -51t48 -20z" />
    <glyph glyph-name="uni2077" unicode="&#x2077;" horiz-adv-x="336" 
d="M30 780h288v-23l-189 -393h-89l168 341h-178v75z" />
    <glyph glyph-name="uni2078" unicode="&#x2078;" horiz-adv-x="385" 
d="M265 579q81 -35 81 -105q0 -54 -43 -85q-44 -32 -111 -32t-110 32q-43 31 -43 86q0 71 81 104q-63 37 -63 99q0 51 38 80t97 29q60 0 98 -29t38 -81q0 -62 -63 -98zM192 721q-26 0 -42 -12q-17 -14 -17 -35q0 -19 14 -33q14 -12 45 -28q32 15 45 28q15 13 15 33
q0 21 -17 35q-17 12 -43 12zM192 424q34 0 53 15q20 15 20 39q0 42 -73 67q-36 -14 -54 -28q-18 -15 -18 -39t18 -39q20 -15 54 -15z" />
    <glyph glyph-name="uni2079" unicode="&#x2079;" horiz-adv-x="373" 
d="M187 787q63 0 106 -42q44 -42 44 -107q0 -35 -13 -61q-14 -30 -43 -69l-103 -144h-97l95 134h-5q-51 0 -94 41q-42 41 -42 101q0 63 45 105t107 42zM187 568q29 0 49 21q19 19 19 51t-19 51q-20 20 -49 20t-49 -20t-20 -51t20 -51q20 -21 49 -21z" />
    <glyph glyph-name="uni207A" unicode="&#x207a;" horiz-adv-x="427" 
d="M254 748v-139h135v-73h-135v-139h-81v139h-135v73h135v139h81z" />
    <glyph glyph-name="uni207B" unicode="&#x207b;" horiz-adv-x="427" 
d="M389 607v-69h-351v69h351z" />
    <glyph glyph-name="uni207C" unicode="&#x207c;" horiz-adv-x="427" 
d="M46 617v72h335v-72h-335zM46 456v73h335v-73h-335z" />
    <glyph glyph-name="uni207D" unicode="&#x207d;" horiz-adv-x="265" 
d="M212 902l32 -50q-117 -76 -117 -280t117 -279l-32 -51q-157 93 -157 330q0 135 44 217q44 81 113 113z" />
    <glyph glyph-name="uni207E" unicode="&#x207e;" horiz-adv-x="265" 
d="M53 902q68 -32 113 -113q44 -82 44 -217t-44 -217q-45 -81 -113 -113l-33 51q118 75 118 279t-118 280z" />
    <glyph glyph-name="uni2080" unicode="&#x2080;" horiz-adv-x="415" 
d="M208 303q81 0 121 -58q41 -59 41 -153q0 -96 -41 -158q-40 -61 -121 -61t-121 61q-41 62 -41 158q0 94 41 153q40 58 121 58zM208 227q-78 0 -78 -136q0 -143 78 -143t78 143q0 136 -78 136z" />
    <glyph glyph-name="uni2081" unicode="&#x2081;" horiz-adv-x="361" 
d="M232 296v-341h88v-75h-275v75h104v266h-98v75h181z" />
    <glyph glyph-name="uni2082" unicode="&#x2082;" horiz-adv-x="376" 
d="M184 -45h153v-75h-303v18l148 160q58 64 58 106q0 28 -16 45q-16 18 -42 18t-43 -18q-17 -17 -17 -47q0 -2 0.5 -6t1 -11.5t0.5 -13.5h-82q-4 15 -4 36q0 55 40 95q41 41 104 41t103 -37t40 -95q0 -43 -22 -77q-23 -36 -67 -85z" />
    <glyph glyph-name="uni2083" unicode="&#x2083;" horiz-adv-x="357" 
d="M220 143q42 -11 71 -43q29 -34 29 -84q0 -62 -45 -103q-44 -40 -110 -40q-52 0 -90 25q-39 25 -60 68l58 41q34 -58 89 -58q32 0 53 18q20 18 20 49q0 61 -86 61h-45v21l88 123h-146v75h266v-23z" />
    <glyph glyph-name="uni2084" unicode="&#x2084;" horiz-adv-x="365" 
d="M352 17v-68h-53v-69h-76v69h-209v22l127 325h85l-110 -279h107v120h76v-120h53z" />
    <glyph glyph-name="uni2085" unicode="&#x2085;" horiz-adv-x="368" 
d="M189 148q60 0 101 -34q42 -34 42 -96q0 -64 -45 -105q-46 -40 -113 -40q-51 0 -91 26q-40 25 -61 67l58 41q34 -58 91 -58q33 0 55 18q21 18 21 48q0 62 -87 62h-95v219h238v-75h-159v-78q28 5 45 5z" />
    <glyph glyph-name="uni2086" unicode="&#x2086;" horiz-adv-x="373" 
d="M202 162q52 0 95 -41q41 -41 41 -101q0 -63 -45 -105t-107 -42q-63 0 -106 42q-44 42 -44 107q0 35 13 61q14 30 43 69l103 144h98l-96 -134h5zM186 -51q29 0 49 20t20 51q0 30 -20 52q-20 20 -49 20q-28 0 -48 -20q-20 -22 -20 -52q0 -31 20 -51t48 -20z" />
    <glyph glyph-name="uni2087" unicode="&#x2087;" horiz-adv-x="336" 
d="M30 296h288v-23l-189 -393h-89l168 341h-178v75z" />
    <glyph glyph-name="uni2088" unicode="&#x2088;" horiz-adv-x="385" 
d="M265 95q81 -35 81 -105q0 -54 -43 -85q-44 -32 -111 -32t-110 32q-43 31 -43 86q0 71 81 104q-63 37 -63 99q0 51 38 80t97 29q60 0 98 -29t38 -81q0 -62 -63 -98zM192 237q-26 0 -42 -12q-17 -14 -17 -35q0 -19 14 -33q14 -12 45 -28q32 15 45 28q15 13 15 33
q0 21 -17 35q-17 12 -43 12zM192 -60q34 0 53 15q20 15 20 39q0 42 -73 67q-36 -14 -54 -28q-18 -15 -18 -39t18 -39q20 -15 54 -15z" />
    <glyph glyph-name="uni2089" unicode="&#x2089;" horiz-adv-x="373" 
d="M187 303q63 0 106 -42q44 -42 44 -107q0 -35 -13 -62q-15 -31 -43 -68l-103 -144h-97l95 134h-5q-51 0 -94 41q-42 41 -42 101q0 63 45 105t107 42zM187 84q29 0 49 20q19 20 19 52t-19 51q-20 20 -49 20t-49 -20t-20 -51t20 -51q20 -21 49 -21z" />
    <glyph glyph-name="uni208A" unicode="&#x208a;" horiz-adv-x="427" 
d="M254 263v-139h135v-73h-135v-139h-81v139h-135v73h135v139h81z" />
    <glyph glyph-name="uni208B" unicode="&#x208b;" horiz-adv-x="426" 
d="M389 122v-69h-351v69h351z" />
    <glyph glyph-name="uni208C" unicode="&#x208c;" horiz-adv-x="427" 
d="M46 132v72h335v-72h-335zM46 -29v73h335v-73h-335z" />
    <glyph glyph-name="uni208D" unicode="&#x208d;" horiz-adv-x="265" 
d="M212 417l32 -50q-117 -77 -117 -280q0 -204 117 -279l-32 -51q-157 93 -157 330q0 135 44 217q44 81 113 113z" />
    <glyph glyph-name="uni208E" unicode="&#x208e;" horiz-adv-x="265" 
d="M53 417q68 -32 113 -113q44 -82 44 -217t-44 -217q-45 -81 -113 -113l-33 51q118 75 118 279t-118 280z" />
    <glyph glyph-name="Euro" unicode="&#x20ac;" horiz-adv-x="679" 
d="M405 86q99 0 155 78l75 -59q-34 -53 -96 -85q-61 -31 -138 -31q-109 0 -185 60q-78 60 -109 160h-103v83h87q-2 32 -2 38q0 4 2 34h-86v83h101q30 101 108 163q77 61 187 61q77 0 138 -31q62 -32 96 -85l-75 -58q-56 77 -155 77q-66 0 -113 -34q-48 -34 -72 -93h264
l-21 -83h-263q-1 -7 -1 -34q0 -22 2 -38h241l-22 -83h-199q25 -59 72 -90q47 -33 112 -33z" />
    <glyph glyph-name="uni2105" unicode="&#x2105;" horiz-adv-x="821" 
d="M213 671q91 0 135 -77l-59 -45q-30 44 -76 44q-35 0 -57 -24q-23 -25 -23 -60q0 -36 23 -61q22 -24 57 -24q44 0 76 44l59 -45q-45 -78 -135 -78q-70 0 -118 48q-49 46 -49 116t49 116q47 46 118 46zM643 660l-379 -660h-88l378 660h89zM608 315q68 0 118 -47
q49 -48 49 -117t-49 -115q-50 -47 -118 -47q-69 0 -118 47q-49 46 -49 115t49 117q49 47 118 47zM608 236q-36 0 -58 -24q-23 -25 -23 -61t23 -59q22 -24 58 -24t58 24q23 23 23 59t-23 61q-22 24 -58 24z" />
    <glyph glyph-name="uni2113" unicode="&#x2113;" horiz-adv-x="459" 
d="M211 185q0 -101 99 -101q30 0 93 10v-89q-51 -16 -111 -16q-86 0 -133 43q-48 43 -52 128q-28 -22 -53 -38l-50 80l103 78v278q0 104 45 154q45 49 123 49q151 0 151 -161q0 -93 -53 -179q-53 -87 -162 -180v-56zM211 563v-194q62 59 93 113q30 54 30 113q0 77 -54 77
q-69 0 -69 -109z" />
    <glyph glyph-name="uni2116" unicode="&#x2116;" horiz-adv-x="1125" 
d="M521 215v445h106v-671h-36l-402 457v-446h-106v671h37zM913 237q-69 0 -118 47q-49 46 -49 115q0 70 49 116q49 47 118 47t119 -47q48 -47 48 -116t-49 -115q-50 -47 -118 -47zM913 487q-37 0 -60 -24q-24 -25 -24 -64q0 -38 24 -62q22 -25 60 -25t60 25q24 24 24 62
q0 37 -24 63q-22 25 -60 25zM753 94v71h322v-71h-322z" />
    <glyph glyph-name="uni2117" unicode="&#x2117;" horiz-adv-x="780" 
d="M389 671q141 0 245 -99q102 -99 102 -242q0 -144 -102 -242q-102 -99 -245 -99t-244 99q-102 98 -102 242t102 243q103 98 244 98zM389 604q-112 0 -192 -77t-80 -197q0 -121 79 -197q80 -77 193 -77q111 0 193 77q81 77 81 197t-81 197q-80 77 -193 77zM417 504
q59 0 97 -33t38 -87t-38 -87t-97 -33h-65v-112h-78v352h143zM417 436h-64v-104h64q25 0 41 14q15 14 15 38q0 23 -15 38q-16 14 -41 14z" />
    <glyph glyph-name="trademark" unicode="&#x2122;" horiz-adv-x="971" 
d="M900 667v-456h-89v248l-115 -150h-30l-114 150v-248h-90v456h30l190 -245l189 245h29zM392 660v-81h-146v-368h-88v368h-146v81h380z" />
    <glyph glyph-name="uni2126" unicode="&#x2126;" horiz-adv-x="790" 
d="M741 345q0 -148 -139 -250h129v-95h-276v95q177 84 177 245q0 102 -67 168t-171 66q-101 0 -169 -65q-67 -64 -67 -168q0 -161 177 -246v-95h-277v95h125q-135 101 -135 250q0 138 101 233q100 93 245 93t246 -94q101 -95 101 -232z" />
    <glyph glyph-name="estimated" unicode="&#x212e;" horiz-adv-x="795" 
d="M731 327h-544v-200q74 -104 220 -104q78 0 144 33q66 31 111 85l25 -22q-49 -60 -122 -94q-75 -35 -158 -35q-148 0 -248 98q-99 98 -99 238q0 143 101 244q101 100 242 100q80 0 156 -35q77 -35 126 -102q50 -68 50 -152zM407 636q-142 0 -220 -104v-172h421v187
q-75 89 -201 89z" />
    <glyph glyph-name="uni2150" unicode="&#x2150;" horiz-adv-x="942" 
d="M320 319v-75h-275v75h104v266h-98v75h181v-341h88zM628 660h89l-379 -660h-88zM635 416h288v-23l-189 -393h-89l168 341h-178v75z" />
    <glyph glyph-name="uni2151" unicode="&#x2151;" horiz-adv-x="949" 
d="M320 319v-75h-275v75h104v266h-98v75h181v-341h88zM628 660h89l-379 -660h-88zM762 423q62 0 106 -42t44 -107q0 -35 -13 -62q-15 -31 -43 -68l-103 -144h-97l95 134h-5q-51 0 -94 41q-42 41 -42 101q0 63 45 105t107 42zM762 204q28 0 48 20q20 22 20 52q0 31 -20 51
t-48 20q-29 0 -49 -20t-20 -51q0 -30 20 -52q20 -20 49 -20z" />
    <glyph glyph-name="uni2152" unicode="&#x2152;" horiz-adv-x="1382" 
d="M232 660v-341h88v-75h-275v75h104v266h-98v75h181zM717 660l-379 -660h-88l378 660h89zM1175 423q81 0 121 -58q41 -59 41 -153q0 -95 -41 -157t-121 -62t-121 62t-41 157q0 94 41 153q40 58 121 58zM837 416v-341h88v-75h-275v75h104v266h-98v75h181zM1175 347
q-78 0 -78 -136q0 -143 78 -143t78 143q0 136 -78 136z" />
    <glyph glyph-name="uni2153" unicode="&#x2153;" horiz-adv-x="962" 
d="M320 319v-75h-275v75h104v266h-98v75h181v-341h88zM628 660h89l-379 -660h-88zM825 263q42 -11 71 -43q29 -34 29 -84q0 -62 -45 -103q-44 -40 -110 -40q-50 0 -90 26q-39 26 -60 67l58 41q34 -58 89 -58q32 0 53 18q20 18 20 49q0 61 -86 61h-45v21l88 123h-146v75h266
v-23z" />
    <glyph glyph-name="uni2154" unicode="&#x2154;" horiz-adv-x="977" 
d="M337 319v-75h-303v18l148 160q58 64 58 106q0 28 -16 45q-16 18 -42 18t-43 -18q-17 -17 -17 -47q0 -2 0.5 -6t1 -11.5t0.5 -13.5h-82q-4 15 -4 36q0 55 40 95q41 41 104 41t103 -37t40 -95q0 -43 -22 -77q-23 -36 -67 -85l-52 -54h153zM643 660h89l-379 -660h-88z
M841 263q42 -11 71 -43q29 -34 29 -84q0 -62 -45 -103q-44 -40 -110 -40q-52 0 -90 25q-39 25 -60 68l58 41q34 -58 89 -58q32 0 53 18q20 18 20 49q0 61 -86 61h-45v21l88 123h-146v75h266v-23z" />
    <glyph glyph-name="uni2155" unicode="&#x2155;" horiz-adv-x="965" 
d="M320 319v-75h-275v75h104v266h-98v75h181v-341h88zM628 660h89l-379 -660h-88zM786 268q60 0 101 -34q42 -34 42 -96q0 -65 -46 -105q-44 -40 -112 -40q-51 0 -92 26q-39 26 -60 67l58 41q34 -58 91 -58q33 0 55 18q21 18 21 48q0 62 -87 62h-95v219h238v-75h-159v-78
q28 5 45 5z" />
    <glyph glyph-name="uni2156" unicode="&#x2156;" horiz-adv-x="981" 
d="M337 319v-75h-303v18l148 160q58 64 58 106q0 28 -16 45q-16 18 -42 18t-43 -18q-17 -17 -17 -47q0 -2 0.5 -6t1 -11.5t0.5 -13.5h-82q-4 15 -4 36q0 55 40 95q41 41 104 41t103 -37t40 -95q0 -43 -22 -77q-23 -36 -67 -85l-52 -54h153zM643 660h89l-379 -660h-88z
M802 268q58 0 101 -35q42 -35 42 -95q0 -65 -46 -105q-44 -40 -112 -40q-52 0 -92 25q-39 25 -60 68l58 41q34 -58 91 -58q32 0 55 18q21 18 21 48q0 62 -87 62h-95v219h238v-75h-159v-78q28 5 45 5z" />
    <glyph glyph-name="uni2157" unicode="&#x2157;" horiz-adv-x="926" 
d="M320 380q0 -62 -45 -103q-44 -40 -110 -40q-50 0 -90 26q-39 26 -60 67l58 41q34 -58 89 -58q32 0 53 18q20 18 20 49q0 61 -86 61h-45v21l88 123h-146v75h266v-23l-92 -130q40 -10 71 -43q29 -34 29 -84zM589 660h89l-379 -660h-88zM747 268q60 0 101 -34q42 -34 42 -96
q0 -65 -46 -105q-44 -40 -112 -40q-51 0 -92 26q-39 26 -60 67l58 41q34 -58 91 -58q33 0 55 18q21 18 21 48q0 62 -87 62h-95v219h238v-75h-159v-78q28 5 45 5z" />
    <glyph glyph-name="uni2158" unicode="&#x2158;" horiz-adv-x="980" 
d="M299 244h-76v69h-209v22l127 325h85l-110 -279h107v120h76v-120h53v-68h-53v-69zM642 660h89l-379 -660h-88zM801 268q60 0 101 -34q42 -34 42 -96q0 -65 -46 -105q-44 -40 -112 -40q-51 0 -92 26q-39 26 -60 67l58 41q34 -58 91 -58q33 0 55 18q21 18 21 48q0 62 -87 62
h-95v219h238v-75h-159v-78q28 5 45 5z" />
    <glyph glyph-name="uni2159" unicode="&#x2159;" horiz-adv-x="899" 
d="M320 319v-75h-275v75h104v266h-98v75h181v-341h88zM628 660h89l-379 -660h-88zM727 282q52 0 95 -41q41 -41 41 -101q0 -63 -45 -105t-107 -42q-63 0 -106 42q-44 42 -44 107q0 35 13 62q15 31 43 68l103 144h98l-96 -134h5zM711 69q29 0 49 20t20 51q0 30 -20 52
q-20 20 -49 20q-28 0 -48 -20q-20 -22 -20 -52q0 -31 20 -51t48 -20z" />
    <glyph glyph-name="uni215A" unicode="&#x215a;" horiz-adv-x="870" 
d="M332 382q0 -64 -45 -105q-46 -40 -113 -40q-51 0 -91 26q-40 25 -61 67l58 41q34 -58 91 -58q33 0 55 18q21 18 21 48q0 62 -87 62h-95v219h238v-75h-159v-78q28 5 45 5q60 0 101 -34q42 -34 42 -96zM600 660h89l-379 -660h-88zM699 282q52 0 95 -41q41 -41 41 -101
q0 -63 -45 -105t-107 -42q-63 0 -106 42q-44 42 -44 107q0 35 13 62q15 31 43 68l103 144h98l-96 -134h5zM683 69q29 0 49 20t20 51q0 30 -20 52q-20 20 -49 20q-28 0 -48 -20q-20 -22 -20 -52q0 -31 20 -51t48 -20z" />
    <glyph glyph-name="oneeighth" unicode="&#x215b;" horiz-adv-x="945" 
d="M320 319v-75h-275v75h104v266h-98v75h181v-341h88zM628 660h89l-379 -660h-88zM825 215q81 -35 81 -105q0 -54 -43 -85q-44 -32 -111 -32t-111 32q-42 32 -42 86q0 71 81 104q-63 37 -63 99q0 51 38 80t97 29q60 0 98 -29t38 -81q0 -62 -63 -98zM752 357q-26 0 -42 -12
q-17 -14 -17 -35q0 -20 15 -33q12 -12 44 -28q32 15 46 28q14 14 14 33q0 21 -17 35q-16 12 -43 12zM752 60q34 0 54 15q19 15 19 39q0 42 -73 67q-37 -14 -53 -28q-19 -15 -19 -39t19 -39q18 -15 53 -15z" />
    <glyph glyph-name="threeeighths" unicode="&#x215c;" horiz-adv-x="906" 
d="M320 380q0 -62 -45 -103q-44 -40 -110 -40q-50 0 -90 26q-39 26 -60 67l58 41q34 -58 89 -58q32 0 53 18q20 18 20 49q0 61 -86 61h-45v21l88 123h-146v75h266v-23l-92 -130q40 -10 71 -43q29 -34 29 -84zM589 660h89l-379 -660h-88zM786 215q81 -35 81 -105
q0 -54 -43 -85q-44 -32 -111 -32t-111 32q-42 32 -42 86q0 71 81 104q-63 37 -63 99q0 51 38 80t97 29q60 0 98 -29t38 -81q0 -62 -63 -98zM713 357q-25 0 -42 -12q-17 -14 -17 -35q0 -20 15 -33q12 -12 44 -28q32 15 46 28q14 14 14 33q0 21 -17 35q-16 12 -43 12zM713 60
q35 0 54 15t19 39q0 42 -73 67q-37 -14 -53 -28q-19 -15 -19 -39t19 -39q18 -15 53 -15z" />
    <glyph glyph-name="fiveeighths" unicode="&#x215d;" horiz-adv-x="917" 
d="M332 382q0 -64 -45 -105q-46 -40 -113 -40q-51 0 -91 26q-40 25 -61 67l58 41q34 -58 91 -58q33 0 55 18q21 18 21 48q0 62 -87 62h-95v219h238v-75h-159v-78q28 5 45 5q60 0 101 -34q42 -34 42 -96zM600 660h89l-379 -660h-88zM797 215q81 -35 81 -105q0 -54 -43 -85
q-44 -32 -111 -32t-111 32q-42 32 -42 86q0 71 81 104q-63 37 -63 99q0 51 38 80t97 29q60 0 98 -29t38 -81q0 -62 -63 -98zM724 357q-26 0 -42 -12q-17 -14 -17 -35q0 -20 15 -33q12 -12 44 -28q32 15 46 28q14 14 14 33q0 21 -17 35q-17 12 -43 12zM724 60q34 0 54 15
q19 15 19 39q0 42 -73 67q-37 -14 -53 -28q-19 -15 -19 -39t19 -39q18 -15 53 -15z" />
    <glyph glyph-name="seveneighths" unicode="&#x215e;" horiz-adv-x="823" 
d="M129 244h-89l168 341h-178v75h288v-23zM505 660h89l-379 -660h-88zM703 215q81 -35 81 -105q0 -54 -43 -85q-44 -32 -111 -32t-111 32q-42 32 -42 86q0 71 81 104q-63 37 -63 99q0 51 38 80t97 29q60 0 98 -29t38 -81q0 -62 -63 -98zM630 357q-26 0 -42 -12
q-17 -14 -17 -35q0 -20 15 -33q12 -12 44 -28q32 15 46 28q14 14 14 33q0 21 -17 35q-17 12 -43 12zM630 60q34 0 54 15q19 15 19 39q0 42 -73 67q-37 -14 -53 -28q-19 -15 -19 -39t19 -39q18 -15 53 -15z" />
    <glyph glyph-name="arrowleft" unicode="&#x2190;" horiz-adv-x="650" 
d="M601 272l-337 1l-69 2l178 -178l-63 -62l-272 272v21l272 272l63 -62l-177 -176l68 1h337v-91z" />
    <glyph glyph-name="arrowup" unicode="&#x2191;" horiz-adv-x="650" 
d="M607 320l-63 -62l-172 172l1 -67v-321h-96v321l1 68l-172 -173l-63 62l271 272h22z" />
    <glyph glyph-name="arrowright" unicode="&#x2192;" horiz-adv-x="650" 
d="M340 600l272 -272v-21l-272 -272l-63 62l178 178l-69 -2l-337 -1v91h337l68 -1l-177 176z" />
    <glyph glyph-name="arrowdown" unicode="&#x2193;" horiz-adv-x="650" 
d="M544 378l63 -63l-271 -271h-22l-271 271l63 63l172 -173l-1 68v320h96v-320l-1 -68z" />
    <glyph glyph-name="arrowboth" unicode="&#x2194;" horiz-adv-x="934" 
d="M624 600l272 -272v-21l-272 -272l-62 62l177 178l-69 -2h-111v-1l-88 1l-85 -1v1h-122l-69 2l178 -178l-63 -62l-272 272v21l272 272l63 -62l-177 -176l68 1h406l68 -1l-176 176z" />
    <glyph glyph-name="arrowupdn" unicode="&#x2195;" horiz-adv-x="636" 
d="M365 94l165 164l63 -62l-264 -264h-22l-264 264l63 62l166 -165l-2 68v338l2 68l-166 -165l-63 62l264 264h22l264 -264l-63 -62l-165 164l1 -67v-338z" />
    <glyph glyph-name="uni2196" unicode="&#x2196;" horiz-adv-x="650" 
d="M311 386l258 -258l-66 -65l-257 257l-42 44v-256h-93v398l15 15h393v-89h-256z" />
    <glyph glyph-name="uni2197" unicode="&#x2197;" horiz-adv-x="650" 
d="M524 521l15 -15v-398h-93v256l-42 -44l-257 -257l-66 65l258 258l48 46h-256v89h393z" />
    <glyph glyph-name="uni2198" unicode="&#x2198;" horiz-adv-x="650" 
d="M446 508h93v-398l-15 -15h-393v89h256l-48 46l-258 258l66 65l257 -257l42 -44v256z" />
    <glyph glyph-name="uni2199" unicode="&#x2199;" horiz-adv-x="650" 
d="M311 230l-48 -46h256v-89h-393l-15 15v398h93v-256l42 44l257 257l66 -65z" />
    <glyph glyph-name="partialdiff" unicode="&#x2202;" horiz-adv-x="596" 
d="M304 672q112 0 180 -80q66 -80 66 -227q0 -163 -80 -270q-81 -107 -210 -107q-91 0 -152 54q-62 53 -62 147q0 96 67 156q67 59 181 59q70 0 147 -21q-6 194 -141 194q-75 0 -134 -74l-69 57q70 112 207 112zM267 81q65 0 112 57q45 54 59 157q-82 18 -139 18
q-75 0 -109 -34q-36 -35 -36 -86q0 -49 32 -81q31 -31 81 -31z" />
    <glyph glyph-name="uni2206" unicode="&#x2206;" horiz-adv-x="662" 
d="M349 671l291 -671h-618l291 671h36zM486 95l-155 365l-155 -365h310z" />
    <glyph glyph-name="product" unicode="&#x220f;" horiz-adv-x="696" 
d="M613 660v-781h-106v686h-318v-686h-106v781h530z" />
    <glyph glyph-name="summation" unicode="&#x2211;" horiz-adv-x="572" 
d="M214 -26h318v-95h-481v25l223 376l-223 355v25h469v-95h-303l172 -272v-25z" />
    <glyph glyph-name="minus" unicode="&#x2212;" 
d="M509 363v-91h-459v91h459z" />
    <glyph glyph-name="uni2219" unicode="&#x2219;" horiz-adv-x="270" 
d="M136 394q33 0 55 -22t22 -55t-22 -55q-23 -23 -55 -23q-33 0 -56 23t-23 55t23 55q22 22 56 22z" />
    <glyph glyph-name="radical" unicode="&#x221a;" horiz-adv-x="734" 
d="M625 750h104l-513 -883h-37v323h-160v88h252v-136z" />
    <glyph glyph-name="infinity" unicode="&#x221e;" horiz-adv-x="849" 
d="M631 500q86 0 140 -54q53 -55 53 -130q0 -76 -53 -129q-53 -54 -139 -54q-65 0 -112 31q-50 30 -96 84q-48 -54 -96 -84q-49 -31 -113 -31q-84 0 -137 53t-53 130q0 75 53 130q52 54 139 54q109 0 207 -113q47 53 95 83t112 30zM227 228q38 0 70 23q29 21 69 67
q-35 41 -69 65q-31 22 -70 22q-42 0 -70 -23q-27 -24 -27 -65t27 -65t70 -24zM622 228q43 0 70 24t27 65t-27 65q-28 23 -71 23q-65 0 -138 -87q40 -46 69 -67q32 -23 70 -23z" />
    <glyph glyph-name="integral" unicode="&#x222b;" horiz-adv-x="343" 
d="M267 788q39 0 73 -8v-88q-12 0 -24 0.5t-18 1t-8 0.5q-100 0 -98 -111q0 -51 34 -256q33 -207 33 -271q0 -92 -48 -139q-49 -46 -134 -46q-41 0 -73 8v88q11 0 22.5 -0.5t17.5 -1t9 -0.5q99 0 99 110q0 54 -34 258q-35 212 -35 270q0 92 50 139q49 46 134 46z" />
    <glyph glyph-name="approxequal" unicode="&#x2248;" 
d="M152 527q40 0 84 -26l92 -56q44 -24 59 -24t26 12q9 12 9 30v17h83q2 -16 2 -30q0 -54 -31 -89q-32 -35 -78 -35q-40 0 -84 26l-91 55q-37 25 -58 25q-36 0 -36 -42v-17h-83v13q-1 7 -1 17q0 53 30 88q30 36 77 36zM152 307q40 0 84 -27l92 -55q40 -24 59 -24q15 0 26 11
q9 12 9 30v18h83q2 -18 2 -30q0 -55 -31 -90q-32 -35 -78 -35q-37 0 -84 26l-91 56q-39 24 -58 24q-36 0 -36 -42v-17h-83v14q-1 7 -1 16q0 53 30 89t77 36z" />
    <glyph glyph-name="notequal" unicode="&#x2260;" 
d="M500 378h-134l-75 -121h209v-91h-264l-65 -105h-95l65 105h-80v91h136l74 121h-210v91h266l64 102h94l-63 -102h78v-91z" />
    <glyph glyph-name="lessequal" unicode="&#x2264;" 
d="M495 543v-94l-261 -97l261 -96v-94l-451 176v29zM56 0v88h439v-88h-439z" />
    <glyph glyph-name="greaterequal" unicode="&#x2265;" 
d="M64 543l451 -176v-29l-451 -176v94l262 96l-262 97v94zM64 0v88h439v-88h-439z" />
    <glyph glyph-name="uni24EA" unicode="&#x24ea;" horiz-adv-x="973" 
d="M486 761q179 0 305 -126q126 -128 126 -305q0 -178 -126 -304q-126 -127 -305 -127q-178 0 -304 126t-126 305t126 305t304 126zM486 680q-145 0 -246 -101t-101 -249t101 -249t246 -101q146 0 247 101t101 249t-101 249t-247 101zM486 561q87 0 132 -63t45 -165
q0 -103 -45 -169t-132 -66t-130 66q-45 66 -45 169q0 102 45 165q44 63 130 63zM486 482q-86 0 -86 -149q0 -156 86 -156q88 0 88 156q0 149 -88 149z" />
    <glyph glyph-name="uni24FF" unicode="&#x24ff;" horiz-adv-x="973" 
d="M486 761q179 0 305 -126q126 -128 126 -305q0 -178 -126 -304q-126 -127 -305 -127q-178 0 -304 126t-126 305t126 305t304 126zM486 561q-86 0 -131 -63t-45 -165q0 -103 45 -169q44 -66 131 -66q86 0 133 66q45 66 45 169q0 102 -45 165q-47 63 -133 63zM486 479
q85 0 85 -146q0 -153 -85 -153q-83 0 -83 153q0 146 83 146z" />
    <glyph glyph-name="filledbox" unicode="&#x25a0;" horiz-adv-x="730" 
d="M640 605v-550h-550v550h550z" />
    <glyph glyph-name="uni25A1" unicode="&#x25a1;" horiz-adv-x="730" 
d="M640 605v-550h-550v550h550zM542 513h-354v-366h354v366z" />
    <glyph glyph-name="uni25AA" unicode="&#x25aa;" horiz-adv-x="541" 
d="M461 436v-380h-381v380h381z" />
    <glyph glyph-name="uni25AB" unicode="&#x25ab;" horiz-adv-x="541" 
d="M461 436v-380h-381v380h381zM369 349h-197v-207h197v207z" />
    <glyph glyph-name="triagup" unicode="&#x25b2;" horiz-adv-x="730" 
d="M374 660l335 -591l-8 -14h-672l-8 14l336 591h17z" />
    <glyph glyph-name="uni25B3" unicode="&#x25b3;" horiz-adv-x="730" 
d="M374 660l335 -591l-8 -14h-672l-8 14l336 591h17zM553 152l-188 330l-188 -330h376z" />
    <glyph glyph-name="uni25B4" unicode="&#x25b4;" horiz-adv-x="528" 
d="M273 475l230 -405l-8 -14h-462l-8 14l231 405h17z" />
    <glyph glyph-name="uni25B5" unicode="&#x25b5;" horiz-adv-x="528" 
d="M273 475l230 -405l-8 -14h-462l-8 14l231 405h17zM372 132l-108 189l-107 -189h215z" />
    <glyph glyph-name="uni25B6" unicode="&#x25b6;" horiz-adv-x="645" 
d="M104 671l518 -333v-17l-518 -332l-14 8v666z" />
    <glyph glyph-name="uni25B7" unicode="&#x25b7;" horiz-adv-x="645" 
d="M104 671l518 -333v-17l-518 -332l-14 8v666zM459 330l-271 175v-350z" />
    <glyph glyph-name="uni25B8" unicode="&#x25b8;" horiz-adv-x="480" 
d="M94 482l355 -227v-17l-355 -227l-14 8v455z" />
    <glyph glyph-name="uni25B9" unicode="&#x25b9;" horiz-adv-x="480" 
d="M94 482l355 -227v-17l-355 -227l-14 8v455zM312 246l-151 97v-193z" />
    <glyph glyph-name="triagrt" unicode="&#x25ba;" horiz-adv-x="961" 
d="M104 671l827 -333v-17l-827 -332l-14 8v666z" />
    <glyph glyph-name="uni25BB" unicode="&#x25bb;" horiz-adv-x="961" 
d="M104 671l827 -333v-17l-827 -332l-14 8v666zM697 330l-509 205v-410z" />
    <glyph glyph-name="triagdn" unicode="&#x25bc;" horiz-adv-x="730" 
d="M374 0h-17l-336 591l8 14h672l8 -14z" />
    <glyph glyph-name="uni25BD" unicode="&#x25bd;" horiz-adv-x="730" 
d="M701 605l8 -14l-335 -591h-17l-336 591l8 14h672zM553 508h-376l188 -330z" />
    <glyph glyph-name="uni25BE" unicode="&#x25be;" horiz-adv-x="528" 
d="M495 436l8 -15l-230 -404h-17l-231 404l8 15h462z" />
    <glyph glyph-name="uni25BF" unicode="&#x25bf;" horiz-adv-x="528" 
d="M495 436l8 -15l-230 -404h-17l-231 404l8 15h462zM372 359h-215l107 -189z" />
    <glyph glyph-name="uni25C0" unicode="&#x25c0;" horiz-adv-x="645" 
d="M541 671l14 -8v-666l-14 -8l-518 332v17z" />
    <glyph glyph-name="uni25C1" unicode="&#x25c1;" horiz-adv-x="682" 
d="M578 671l14 -8v-666l-14 -8l-518 332v17zM494 504l-271 -174l271 -174v348z" />
    <glyph glyph-name="uni25C2" unicode="&#x25c2;" horiz-adv-x="480" 
d="M386 482l14 -8v-455l-14 -8l-355 227v17z" />
    <glyph glyph-name="uni25C3" unicode="&#x25c3;" horiz-adv-x="480" 
d="M386 482l14 -8v-455l-14 -8l-355 227v17zM319 150v193l-151 -97z" />
    <glyph glyph-name="triaglf" unicode="&#x25c4;" horiz-adv-x="961" 
d="M857 671l14 -8v-666l-14 -8l-827 332v17z" />
    <glyph glyph-name="uni25C5" unicode="&#x25c5;" horiz-adv-x="961" 
d="M857 671l14 -8v-666l-14 -8l-827 332v17zM773 125v410l-509 -205z" />
    <glyph glyph-name="lozenge" unicode="&#x25ca;" horiz-adv-x="665" 
d="M351 671l213 -341l-213 -341h-37l-213 342l213 340h37zM211 331l124 -196l120 195l-122 196z" />
    <glyph glyph-name="circle" unicode="&#x25cb;" horiz-adv-x="776" 
d="M388 659q136 0 233 -96q96 -97 96 -233t-96 -233q-97 -97 -233 -97q-135 0 -232 97q-98 98 -98 233q0 136 97 233q97 96 233 96zM388 567q-98 0 -165 -69q-68 -70 -68 -168t68 -168q67 -69 165 -69t165 69q67 68 67 168t-67 168q-67 69 -165 69z" />
    <glyph glyph-name="uni25CF" unicode="&#x25cf;" horiz-adv-x="776" 
d="M388 659q136 0 233 -96q96 -97 96 -233t-96 -233q-97 -97 -233 -97q-135 0 -232 97q-98 98 -98 233q0 136 97 233q97 96 233 96z" />
    <glyph glyph-name="uni261C" unicode="&#x261c;" horiz-adv-x="1214" 
d="M1184 280v-33l-87 -73l50 -177l-31 -20l-227 145q-90 -49 -187 -78q-94 -28 -167 -28q-113 0 -113 71q0 21 14 38q-46 15 -46 58q0 31 25 47q-36 16 -36 53q0 21 13 35l-188 4q-83 1 -124 25q-39 23 -39 73q0 54 45 73q44 19 147 19q81 0 174 -9q2 45 28 69q27 24 64 24
q40 0 79 -24l243 -148q50 -16 65 -21l230 147l31 -20l-50 -177zM518 526q-26 0 -29 -33q74 -9 130 -20l-72 43q-19 10 -29 10zM525 82q54 0 158 29q102 29 181 75v153q-119 47 -301 77q-188 29 -359 29q-46 0 -66 -5q-18 -6 -18 -22q0 -14 15 -20q15 -7 56 -9l120 -4
q159 -5 260 -10v-60l-104 1q-19 0 -19 -17q0 -9 6 -13q4 -6 12 -6h116v-59h-105q-17 0 -17 -19q0 -18 17 -18h115v-60q-37 -5 -73 -5h-8q-19 0 -19 -17q0 -20 33 -20zM937 353v-181l112 -70l-29 101l76 61l-76 59l30 101z" />
    <glyph glyph-name="uni261E" unicode="&#x261e;" horiz-adv-x="1214" 
d="M993 512q103 0 147 -19q44 -20 44 -73q0 -50 -38 -73q-41 -24 -124 -25l-189 -4q13 -13 13 -35q0 -37 -36 -53q25 -16 25 -47q0 -43 -46 -58q14 -14 14 -38q0 -71 -112 -71q-73 0 -166 28q-96 28 -189 78l-227 -145l-30 20l49 177l-87 73v33l87 73l-49 177l30 20
l231 -147q15 5 65 21l242 148q39 24 80 24q37 0 64 -24q26 -24 28 -69q91 9 174 9zM679 516l-72 -43q56 11 130 20q-3 33 -29 33q-12 0 -29 -10zM1035 389q39 1 56 9q15 6 15 20q0 16 -18 22q-20 5 -67 5q-170 0 -358 -29q-184 -30 -301 -77v-153q79 -46 182 -75
q102 -29 157 -29q33 0 33 20q0 17 -19 17h-8q-37 0 -74 5v60h115q17 0 17 18q0 19 -17 19h-105v59h117q8 0 12 6q5 5 5 13q0 17 -19 17l-103 -1v60q101 5 259 10zM289 172v181l-113 71l30 -101l-76 -59l76 -61l-30 -101z" />
    <glyph glyph-name="uni2661" unicode="&#x2661;" horiz-adv-x="860" 
d="M614 671q82 0 137 -55q56 -56 56 -141q0 -51 -24 -94q-25 -45 -84 -110l-261 -282h-17l-261 282q-61 67 -83 111q-24 44 -24 93q0 85 56 141q55 55 137 55q63 0 113 -35q47 -35 70 -93q23 57 72 93q50 35 113 35zM618 328q43 49 60 77q18 32 18 67q0 44 -27 73
q-29 27 -71 27q-54 0 -88 -45q-36 -45 -54 -115h-53q-17 70 -53 115q-38 45 -90 45q-42 0 -70 -27q-27 -29 -27 -73q0 -36 19 -67q22 -37 59 -77l189 -209z" />
    <glyph glyph-name="heart" unicode="&#x2665;" horiz-adv-x="860" 
d="M614 671q82 0 137 -55q56 -56 56 -141q0 -51 -24 -94q-25 -45 -84 -110l-261 -282h-17l-261 282q-61 67 -83 111q-24 44 -24 93q0 85 56 141q55 55 137 55q63 0 113 -35q47 -35 70 -93q23 57 72 93q50 35 113 35z" />
    <glyph glyph-name="uni275B" unicode="&#x275b;" horiz-adv-x="645" 
d="M383 425q90 0 154 -64q64 -63 64 -154q0 -89 -63 -154q-63 -64 -170 -64q-135 0 -230 98t-95 241q0 144 97 244q98 99 244 99q114 0 205 -71l-43 -67q-70 53 -157 53q-108 0 -180 -74q-73 -73 -73 -184q0 -68 30 -126v3l-1 2q0 90 64 154t154 64z" />
    <glyph glyph-name="uni275C" unicode="&#x275c;" horiz-adv-x="645" 
d="M277 671q134 0 229 -98t95 -241q0 -144 -96 -243q-97 -100 -244 -100q-114 0 -205 71l43 67q70 -53 157 -53q107 0 181 74q72 74 72 184q0 68 -30 126v-5q0 -90 -64 -154t-154 -64t-154 64q-64 63 -64 154q0 90 64 154q63 64 170 64z" />
    <glyph glyph-name="uni275D" unicode="&#x275d;" horiz-adv-x="1262" 
d="M1001 425q90 0 154 -64q64 -63 64 -154q0 -89 -63 -154q-64 -64 -171 -64q-134 0 -229 98t-95 241q0 144 97 244q96 99 243 99q116 0 205 -71l-42 -67q-71 53 -158 53q-108 0 -180 -74q-73 -73 -73 -184q0 -68 30 -127v6q0 90 64 154t154 64zM383 425q90 0 154 -64
q64 -63 64 -154q0 -89 -63 -154q-63 -64 -170 -64q-135 0 -230 98t-95 241q0 145 97 243q97 100 244 100q114 0 205 -71l-43 -67q-70 53 -157 53q-108 0 -180 -74q-73 -73 -73 -184q0 -68 30 -126v3l-1 2q0 90 64 154t154 64z" />
    <glyph glyph-name="uni275E" unicode="&#x275e;" horiz-adv-x="1265" 
d="M897 671q134 0 229 -98t95 -241q0 -144 -96 -243q-97 -100 -244 -100q-114 0 -205 71l43 67q70 -53 157 -53q107 0 181 74q72 74 72 184q0 68 -30 127v-6q0 -90 -64 -154t-154 -64t-154 64q-64 63 -64 154q0 89 63 154q64 64 171 64zM277 671q134 0 229 -98t95 -241
q0 -144 -96 -243q-97 -100 -244 -100q-114 0 -205 71l43 67q70 -53 157 -53q107 0 181 74q72 74 72 184q0 68 -30 126v-5q0 -90 -64 -154t-154 -64t-154 64q-64 63 -64 154q0 90 64 154q63 64 170 64z" />
    <glyph glyph-name="uni2776" unicode="&#x2776;" horiz-adv-x="973" 
d="M486 761q179 0 305 -126q126 -128 126 -305q0 -178 -126 -304q-126 -127 -305 -127q-178 0 -304 126t-126 305t126 305t304 126zM536 554h-181v-77h90v-295h-96v-77h277v77h-90v372z" />
    <glyph glyph-name="uni2777" unicode="&#x2777;" horiz-adv-x="973" 
d="M486 761q179 0 305 -126q126 -128 126 -305q0 -178 -126 -304q-126 -127 -305 -127q-178 0 -304 126t-126 305t126 305t304 126zM483 561q-70 0 -116 -44q-45 -43 -45 -104q0 -15 5 -40h83q-4 20 -4 33q0 30 20 52q20 21 53 21q31 0 49 -18q18 -19 18 -49q0 -28 -15 -52
q-17 -26 -50 -62l-158 -174v-19h331v77h-174l75 80q41 42 63 78q21 34 21 79q0 61 -44 102q-43 40 -112 40z" />
    <glyph glyph-name="uni2778" unicode="&#x2778;" horiz-adv-x="973" 
d="M486 761q179 0 305 -126q126 -128 126 -305q0 -178 -126 -304q-126 -127 -305 -127q-178 0 -304 126t-126 305t126 305t304 126zM634 554h-290v-82h153l-96 -132v-24h55q93 0 93 -65q0 -32 -22 -51q-23 -20 -56 -20q-53 0 -97 63l-64 -45q24 -45 66 -72q41 -28 97 -28
q72 0 121 43t49 110q0 55 -32 90q-34 36 -81 46l104 143v24z" />
    <glyph glyph-name="uni2779" unicode="&#x2779;" horiz-adv-x="973" 
d="M486 761q179 0 305 -126q126 -128 126 -305q0 -178 -126 -304q-126 -127 -305 -127q-178 0 -304 126t-126 305t126 305t304 126zM519 554h-97l-132 -351v-26h226v-72h90v72h57v80h-57v119h-90v-119h-116z" />
    <glyph glyph-name="uni277A" unicode="&#x277a;" horiz-adv-x="973" 
d="M486 761q179 0 305 -126q126 -128 126 -305q0 -178 -126 -304q-126 -127 -305 -127q-178 0 -304 126t-126 305t126 305t304 126zM621 554h-260v-238h105q92 0 92 -65q0 -32 -22 -51q-23 -20 -58 -20q-56 0 -100 63l-64 -45q22 -46 66 -73q43 -28 101 -28q72 0 122 44
q49 43 49 112q0 67 -45 104q-46 37 -107 37q-32 0 -52 -4v82h173v82z" />
    <glyph glyph-name="uni277B" unicode="&#x277b;" horiz-adv-x="973" 
d="M486 761q179 0 305 -126q126 -128 126 -305q0 -178 -126 -304q-126 -127 -305 -127q-178 0 -304 126t-126 305t126 305t304 126zM593 554h-108l-112 -155q-33 -48 -34 -50q-9 -14 -19 -41q-8 -27 -8 -51q0 -68 48 -113q49 -46 116 -46q68 0 117 45t49 113q0 52 -32 92
t-77 50q-29 8 -51 2zM476 333q32 0 53 -21q22 -22 22 -55q0 -32 -22 -54q-23 -23 -53 -23t-53 23q-21 23 -21 55t21 54q23 21 53 21z" />
    <glyph glyph-name="uni277C" unicode="&#x277c;" horiz-adv-x="973" 
d="M486 761q179 0 305 -126q126 -128 126 -305q0 -178 -126 -304q-126 -127 -305 -127q-178 0 -304 126t-126 305t126 305t304 126zM655 555h-316v-83h195l-185 -366h100l206 424v25z" />
    <glyph glyph-name="uni277D" unicode="&#x277d;" horiz-adv-x="973" 
d="M486 761q179 0 305 -126q126 -128 126 -305q0 -178 -126 -304q-126 -127 -305 -127q-178 0 -304 126t-126 305t126 305t304 126zM487 561q-66 0 -106 -31q-42 -32 -42 -87q0 -66 71 -105q-92 -36 -92 -113q0 -57 48 -92q47 -35 121 -35q75 0 122 35q46 34 46 92
q0 77 -90 114q70 37 70 104q0 55 -41 87q-41 31 -107 31zM487 490q26 0 45 -14q17 -15 17 -39q0 -39 -63 -63q-61 24 -61 63q0 24 18 39q17 14 44 14zM486 306q40 -14 59 -30q20 -17 20 -46q0 -27 -20 -44q-22 -17 -58 -17q-39 0 -58 18q-20 17 -20 44q0 28 20 45
q19 16 57 30z" />
    <glyph glyph-name="uni277E" unicode="&#x277e;" horiz-adv-x="973" 
d="M487 761q178 0 304 -126t126 -305t-126 -305t-304 -126q-179 0 -305 126q-126 127 -126 305q0 177 126 305q126 126 305 126zM497 562q-67 0 -116 -45t-49 -113q0 -54 31 -92q32 -40 77 -50q23 -7 51 -2l-111 -154h108l112 155q26 37 34 50q10 16 19 41q9 26 9 51
q0 68 -48 113q-49 46 -117 46zM497 480q30 0 53 -23q21 -23 21 -55t-21 -54q-22 -21 -53 -21q-32 0 -53 21q-22 22 -22 55q0 32 22 54q23 23 53 23z" />
    <glyph glyph-name="uni2780" unicode="&#x2780;" horiz-adv-x="973" 
d="M486 761q179 0 305 -126q126 -128 126 -305q0 -178 -126 -304q-126 -127 -305 -127q-178 0 -304 126t-126 305t126 305t304 126zM486 676q-144 0 -243 -99q-100 -100 -100 -247t100 -246q99 -100 243 -100t244 100t100 246t-100 246t-244 100zM536 554v-372h90v-77h-277
v77h96v295h-90v77h181z" />
    <glyph glyph-name="uni2781" unicode="&#x2781;" horiz-adv-x="973" 
d="M486 761q179 0 305 -126q126 -128 126 -305q0 -178 -126 -304q-126 -127 -305 -127q-178 0 -304 126t-126 305t126 305t304 126zM486 676q-144 0 -243 -99q-100 -100 -100 -247t100 -246q99 -100 243 -100t244 100t100 246t-100 246t-244 100zM483 561q69 0 112 -40
q44 -41 44 -102q0 -45 -21 -79q-22 -36 -63 -78l-75 -80h174v-77h-331v19l158 174q33 36 50 62q15 24 15 52q0 30 -18 49q-18 18 -49 18q-33 0 -53 -21q-20 -22 -20 -52q0 -13 4 -33h-83q-5 25 -5 40q0 61 45 104q46 44 116 44z" />
    <glyph glyph-name="uni2782" unicode="&#x2782;" horiz-adv-x="973" 
d="M486 761q179 0 305 -126q126 -128 126 -305q0 -178 -126 -304q-126 -127 -305 -127q-178 0 -304 126t-126 305t126 305t304 126zM486 676q-144 0 -243 -99q-100 -100 -100 -247t100 -246q99 -100 243 -100t244 100t100 246t-100 246t-244 100zM634 554v-24l-104 -143
q47 -10 81 -46q32 -35 32 -90q0 -67 -49 -110t-121 -43q-56 0 -97 28q-42 27 -66 72l64 45q44 -63 97 -63q33 0 56 20q22 19 22 51q0 65 -93 65h-55v24l96 132h-153v82h290z" />
    <glyph glyph-name="uni2783" unicode="&#x2783;" horiz-adv-x="973" 
d="M486 761q179 0 305 -126q126 -128 126 -305q0 -178 -126 -304q-126 -127 -305 -127q-178 0 -304 126t-126 305t126 305t304 126zM486 676q-144 0 -243 -99q-100 -100 -100 -247t100 -246q99 -100 243 -100t244 100t100 246t-100 246t-244 100zM519 554l-119 -297h116v119
h90v-119h57v-80h-57v-72h-90v72h-226v26l132 351h97z" />
    <glyph glyph-name="uni2784" unicode="&#x2784;" horiz-adv-x="973" 
d="M486 761q179 0 305 -126q126 -128 126 -305q0 -178 -126 -304q-126 -127 -305 -127q-178 0 -304 126t-126 305t126 305t304 126zM486 676q-144 0 -243 -99q-100 -100 -100 -247t100 -246q99 -100 243 -100t244 100t100 246t-100 246t-244 100zM622 554v-82h-173v-82
q20 4 52 4q61 0 107 -37q45 -37 45 -104q0 -69 -49 -112q-50 -44 -122 -44q-58 0 -101 28q-44 27 -66 73l64 45q43 -63 99 -63q35 0 58 20t23 51q0 65 -92 65h-106v238h261z" />
    <glyph glyph-name="uni2785" unicode="&#x2785;" horiz-adv-x="973" 
d="M486 761q179 0 305 -126q126 -128 126 -305q0 -178 -126 -304q-126 -127 -305 -127q-178 0 -304 126t-126 305t126 305t304 126zM486 676q-144 0 -243 -99q-100 -100 -100 -247t100 -246q99 -100 243 -100t244 100t100 246t-100 246t-244 100zM593 554l-111 -154
q22 6 51 -2q46 -10 78 -50q31 -38 31 -92q0 -68 -49 -113t-117 -45t-115 46q-49 45 -49 113q0 36 14 66q15 31 47 76l112 155h108zM476 333q-31 0 -52 -21q-22 -22 -22 -54q0 -33 22 -55q21 -23 52 -23q30 0 53 23q22 22 22 54q0 33 -21 55q-22 21 -54 21z" />
    <glyph glyph-name="uni2786" unicode="&#x2786;" horiz-adv-x="973" 
d="M486 761q179 0 305 -126q126 -128 126 -305q0 -178 -126 -304q-126 -127 -305 -127q-178 0 -304 126t-126 305t126 305t304 126zM486 676q-144 0 -243 -99q-100 -100 -100 -247t100 -246q99 -100 243 -100t244 100t100 246t-100 246t-244 100zM654 555v-25l-206 -424h-99
l184 366h-194v83h315z" />
    <glyph glyph-name="uni2787" unicode="&#x2787;" horiz-adv-x="973" 
d="M486 761q179 0 305 -126q126 -128 126 -305q0 -178 -126 -304q-126 -127 -305 -127q-178 0 -304 126t-126 305t126 305t304 126zM486 676q-144 0 -243 -99q-100 -100 -100 -247t100 -246q99 -100 243 -100t244 100t100 246t-100 246t-244 100zM487 561q66 0 107 -31
q41 -32 41 -87q0 -67 -70 -104q90 -37 90 -114q0 -58 -46 -92q-47 -35 -122 -35q-74 0 -121 35q-48 34 -48 92q0 77 92 113q-71 39 -71 105q0 55 42 87q40 31 106 31zM487 490q-27 0 -44 -14q-18 -15 -18 -39q0 -39 61 -63q63 24 63 63q0 24 -17 39q-19 14 -45 14zM486 306
q-38 -14 -57 -30q-20 -17 -20 -45q0 -27 20 -44q19 -18 58 -18q36 0 58 17q20 17 20 44q0 29 -20 46q-19 16 -59 30z" />
    <glyph glyph-name="uni2788" unicode="&#x2788;" horiz-adv-x="973" 
d="M487 761q178 0 304 -126t126 -305t-126 -305t-304 -126q-179 0 -305 126q-126 127 -126 305q0 177 126 305q126 126 305 126zM487 676q-145 0 -244 -100q-100 -100 -100 -246t100 -246q99 -100 244 -100q143 0 244 99q99 100 99 247t-99 246q-100 100 -244 100zM497 562
q68 0 117 -46q48 -45 48 -113q0 -25 -9 -51q-9 -25 -19 -41q-8 -13 -34 -50l-112 -155h-108l111 154q-28 -5 -51 2q-45 10 -77 50q-31 38 -31 92q0 68 49 113t116 45zM497 480q-30 0 -53 -23q-22 -22 -22 -54q0 -33 21 -55q23 -21 54 -21t53 21q21 22 21 54t-21 55
q-23 23 -53 23z" />
    <glyph glyph-name="uni27F5" unicode="&#x27f5;" horiz-adv-x="1216" 
d="M1167 272l-888 1l-69 2l178 -178l-63 -62l-272 272v21l272 272l63 -62l-176 -176l67 1h888v-91z" />
    <glyph glyph-name="uni27F6" unicode="&#x27f6;" horiz-adv-x="1216" 
d="M891 600l272 -272v-21l-272 -272l-63 62l178 178l-69 -2l-888 -1v91h888l67 -1l-176 176z" />
    <glyph glyph-name="uniF8FF" unicode="&#xf8ff;" horiz-adv-x="722" 
d="M99 0v660h524v-660h-524zM458 123q36 0 58 22t22 54q0 26 -17 55q-17 30 -45 46l-24 -25q45 -44 45 -76q0 -18 -10 -28q-11 -11 -27 -11q-24 0 -43 27q-20 28 -54 103q83 46 111 78q28 29 28 62q0 38 -27 61q-29 21 -75 21q-3 0 -33 -2l26 55l-41 7l-33 -71
q-46 -9 -103 -36q-23 -66 -23 -161q0 -78 20 -158l42 -8q21 107 43 187q17 63 52 147q17 4 41 4q70 0 70 -50q0 -24 -26 -48q-29 -25 -114 -74l-1 -6q40 -101 67 -137q29 -38 71 -38zM231 202q-2 46 -2 81q0 86 23 157q20 12 51 20q-52 -132 -65 -258h-7z" />
    <glyph glyph-name="Alpha.ordn" horiz-adv-x="431" 
d="M323 244l-22 58h-170l-22 -58h-92l185 423h28l185 -423h-92zM276 368l-60 146l-61 -146h121z" />
    <glyph glyph-name="Eta.ordn" horiz-adv-x="477" 
d="M415 660v-416h-86v180h-182v-180h-85v416h85v-159h182v159h86z" />
    <glyph glyph-name="Nu.ordn" horiz-adv-x="477" 
d="M329 660h86v-423h-30l-238 250v-243h-85v423h29l238 -248v241z" />
    <glyph glyph-name="Omicron.ordn" horiz-adv-x="506" 
d="M252 667q92 0 157 -62q64 -61 64 -153t-64 -153q-65 -62 -157 -62q-91 0 -155 62q-64 61 -64 153t64 153q64 62 155 62zM253 588q-58 0 -96 -38q-37 -37 -37 -98t37 -98q38 -38 96 -38q57 0 95 39q38 38 38 97q0 58 -38 98q-38 38 -95 38z" />
    <glyph glyph-name="Rho.ordn" horiz-adv-x="391" 
d="M218 660q66 0 107 -36q41 -38 41 -97q0 -58 -41 -96q-43 -38 -107 -38h-74v-149h-82v416h156zM217 588h-73v-123h73q30 0 49 17q17 17 17 45q0 27 -17 44q-19 17 -49 17z" />
    <glyph glyph-name="Sigma.ordn" horiz-adv-x="374" 
d="M169 321h177v-77h-310v18l124 195l-124 184v19h303v-78h-167l81 -116v-17z" />
    <glyph glyph-name="Upsilon.ordn" horiz-adv-x="405" 
d="M385 660l-139 -252v-164h-85v162l-141 254h94l89 -164l89 164h93z" />
    <glyph glyph-name="alpha.ordn" horiz-adv-x="427" 
d="M392 315h17v-71q-18 -6 -45 -6q-56 0 -75 46q-35 -47 -102 -47t-110 46q-42 47 -42 117t42 117q43 46 110 46q65 0 99 -45v38h78v-207q0 -20 7 -27q6 -7 21 -7zM202 314q33 0 55 22q23 23 23 63q0 42 -23 65q-22 22 -56 22q-33 0 -57 -24t-24 -62q0 -40 24 -62
q24 -24 58 -24z" />
    <glyph glyph-name="eta.ordn" horiz-adv-x="399" 
d="M228 563q56 0 87 -34q32 -35 32 -92v-306h-85v294q0 27 -15 44q-17 17 -41 17t-41 -17t-17 -44v-181h-85v203q0 39 -26 39q-11 0 -19 -1v71q18 6 47 6q48 0 68 -35q39 36 95 36z" />
    <glyph glyph-name="nu.ordn" horiz-adv-x="359" 
d="M256 556h89l-152 -319h-27l-152 319h89l77 -173z" />
    <glyph glyph-name="omicron.ordn" horiz-adv-x="404" 
d="M202 562q68 0 118 -47q49 -46 49 -116q0 -69 -49 -115q-50 -47 -118 -47q-69 0 -118 47q-49 46 -49 115q0 70 49 116q49 47 118 47zM202 486q-38 0 -60 -24q-23 -25 -23 -63q0 -37 23 -62q22 -24 60 -24t60 24q22 23 22 62q0 38 -22 63q-22 24 -60 24z" />
    <glyph glyph-name="rho.ordn" horiz-adv-x="417" 
d="M217 563q73 0 119 -46t46 -118q0 -70 -43 -116t-109 -46q-57 0 -93 36v-142h-84v266q0 75 45 121q45 45 119 45zM214 314q35 0 59 24q24 22 24 61t-24 63t-59 24q-33 0 -55 -22q-23 -23 -23 -64q0 -40 23 -63q25 -23 55 -23z" />
    <glyph glyph-name="uni03C2.ordn" horiz-adv-x="354" 
d="M201 563q92 0 136 -77l-59 -47q-31 46 -79 46q-34 0 -56 -22q-23 -21 -23 -57q0 -37 26 -58q27 -21 70 -35q8 -3 36 -13q13 -5 32 -18q19 -12 28 -31t9 -45q0 -43 -19 -75h-83q17 42 17 59q0 36 -53 51q-37 13 -50 20q-20 8 -46 27q-23 15 -38 46q-14 30 -14 65
q0 71 48 118q46 46 118 46z" />
    <glyph glyph-name="sigma.ordn" horiz-adv-x="415" 
d="M408 556v-72h-74q34 -37 34 -91q0 -64 -49 -110t-118 -46q-68 0 -117 47q-49 46 -49 116t48 113q47 43 125 43h200zM201 314q35 0 59 25q23 25 23 60q0 36 -23 61q-25 23 -59 23q-35 0 -58 -23q-23 -25 -23 -61q0 -35 23 -60q22 -25 58 -25z" />
    <glyph glyph-name="upsilon.ordn" horiz-adv-x="383" 
d="M315 556q26 -92 26 -157q0 -81 -40 -121q-41 -41 -104 -41t-104 39q-40 39 -40 107v173h84v-180q0 -30 16 -46q15 -17 41 -17q27 0 45 21q17 20 17 64q0 60 -23 158h82z" />
    <glyph glyph-name="zero.lf" horiz-adv-x="625" 
d="M313 671q124 0 187 -92q64 -91 64 -243t-64 -249q-63 -98 -187 -98q-85 0 -143 48t-84 125q-25 75 -25 174q0 151 64 243q65 92 188 92zM313 574q-142 0 -142 -239q0 -249 142 -249q141 0 141 249q0 239 -141 239z" />
    <glyph glyph-name="one.lf" horiz-adv-x="390" 
d="M253 660h37v-660h-106v535l-134 -43l-26 93z" />
    <glyph glyph-name="two.lf" horiz-adv-x="572" 
d="M240 92h279v-92h-473v24l235 253q53 55 80 99q25 40 25 82q0 50 -30 83t-80 33t-81 -34t-31 -86q0 -18 5 -51h-107q-7 25 -7 57q0 84 61 148q61 63 161 63q96 0 157 -58q62 -59 62 -147q0 -65 -35 -121q-36 -58 -105 -130z" />
    <glyph glyph-name="three.lf" horiz-adv-x="543" 
d="M319 416q73 -13 124 -66q51 -54 51 -138q0 -99 -71 -161t-170 -62q-80 0 -140 39q-60 42 -92 104l74 52q65 -98 155 -98q59 0 97 35t38 90q0 56 -39 86q-40 30 -113 30h-73v29l155 207h-247v97h411v-29z" />
    <glyph glyph-name="four.lf" horiz-adv-x="562" 
d="M544 206v-91h-90v-115h-106v115h-330v29l211 516h109l-186 -454h196v203h106v-203h90z" />
    <glyph glyph-name="five.lf" horiz-adv-x="559" 
d="M285 419q91 0 159 -54q66 -54 66 -152q0 -100 -71 -162t-172 -62q-82 0 -142 39q-60 38 -95 103l74 53q63 -98 160 -98q60 0 98 34q39 34 39 91q0 55 -39 87q-40 30 -113 30h-152v332h361v-95h-257v-154q45 8 84 8z" />
    <glyph glyph-name="six.lf" horiz-adv-x="556" 
d="M295 438q89 0 153 -63q64 -64 64 -158q0 -97 -68 -162q-69 -66 -166 -66q-98 0 -165 66q-68 65 -68 163q0 37 14 76q15 41 28 62q18 28 48 71l165 233h125l-159 -225q13 3 29 3zM278 86q54 0 92 38q37 37 37 93q0 57 -37 94t-92 37t-92 -37t-37 -94q0 -56 37 -93
q38 -38 92 -38z" />
    <glyph glyph-name="seven.lf" horiz-adv-x="513" 
d="M36 660h453v-29l-319 -631h-115l291 565h-310v95z" />
    <glyph glyph-name="eight.lf" horiz-adv-x="583" 
d="M388 343q143 -56 143 -171q0 -84 -67 -133q-67 -50 -172 -50q-106 0 -174 50q-67 49 -67 133q0 115 143 171q-112 58 -112 159q0 80 59 125q61 44 151 44t149 -44q59 -45 59 -125q0 -102 -112 -159zM292 584q-47 0 -79 -23q-30 -23 -30 -63q0 -36 26 -59q24 -22 82 -48
q54 24 81 47q27 24 27 60q0 40 -30 63q-31 23 -77 23zM292 77q63 0 98 27q34 27 34 72q0 46 -34 71q-34 26 -99 50q-64 -22 -100 -50q-33 -27 -33 -71q0 -45 35 -72t99 -27z" />
    <glyph glyph-name="nine.lf" horiz-adv-x="556" 
d="M279 671q96 0 164 -65q69 -66 69 -164q0 -37 -14 -76q-14 -38 -29 -61q-13 -24 -48 -72l-164 -233h-126l159 225q-13 -3 -29 -3q-88 0 -152 64q-64 63 -64 157q0 97 68 163q70 65 166 65zM279 312q53 0 91 38q37 37 37 93q0 57 -37 94t-91 37q-56 0 -93 -37t-37 -94
q0 -56 37 -93q38 -38 93 -38z" />
    <glyph glyph-name="zero.slash.lf" horiz-adv-x="625" 
d="M313 671q124 0 187 -92q64 -91 64 -243t-64 -249q-63 -98 -187 -98q-85 0 -143 48t-84 125q-25 75 -25 174q0 151 64 243q65 92 188 92zM313 577q-146 0 -146 -242q0 -48 6 -87l256 255q-36 74 -116 74zM313 83q75 0 109 67q36 68 36 185q0 49 -4 77l-255 -255
q36 -74 114 -74z" />
    <glyph glyph-name="zero.slash" horiz-adv-x="661" 
d="M330 546q118 0 202 -81q83 -81 83 -198t-83 -198q-84 -81 -203 -81q-117 0 -200 81t-83 198t83 198t201 81zM330 452q-78 0 -127 -52q-51 -52 -51 -133q0 -55 24 -97l253 254q-43 28 -99 28zM330 82q76 0 129 53q51 53 51 132q0 52 -26 99l-255 -255q44 -29 101 -29z" />
    <glyph glyph-name="zero.tf" 
d="M280 671q117 0 177 -91q60 -92 60 -244q0 -154 -59 -251q-60 -96 -178 -96t-177 96q-60 96 -60 251q0 152 60 244q60 91 177 91zM280 574q-127 0 -127 -239q0 -249 127 -249t127 249q0 239 -127 239z" />
    <glyph glyph-name="one.tf" 
d="M359 92h165v-92h-457v92h186v446l-169 -46l-25 93l264 75h36v-568z" />
    <glyph glyph-name="two.tf" 
d="M242 92h278v-92h-472v24l235 253q53 55 80 99q25 40 25 82q0 50 -30 83t-80 33q-51 0 -81 -34q-31 -34 -31 -86q0 -26 5 -51h-108q-7 25 -7 57q0 83 62 148q62 63 161 63q96 0 157 -58t61 -147q0 -65 -35 -121q-33 -54 -104 -130z" />
    <glyph glyph-name="three.tf" 
d="M320 416q71 -13 124 -66q51 -54 51 -139q0 -99 -70 -160q-71 -62 -171 -62q-80 0 -139 40q-59 39 -93 103l74 52q65 -98 155 -98q59 0 97 35t38 90t-39 87q-39 30 -113 30h-73v28l156 209h-248v95h412v-29z" />
    <glyph glyph-name="four.tf" 
d="M529 206v-91h-79v-115h-106v115h-325v29l189 516h110l-166 -454h192v203h106v-203h79z" />
    <glyph glyph-name="five.tf" 
d="M288 419q92 0 158 -54t66 -152q0 -101 -70 -162q-71 -62 -172 -62q-82 0 -142 39q-60 38 -95 103l74 53q63 -98 160 -98q61 0 99 34q38 35 38 91t-39 86q-41 30 -114 30h-151v333h361v-95h-258v-154q45 8 85 8z" />
    <glyph glyph-name="six.tf" 
d="M297 438q89 0 153 -63q64 -64 64 -158q0 -97 -69 -162q-69 -66 -165 -66q-98 0 -165 66q-69 64 -69 163q0 37 14 76q13 37 29 62q20 31 49 71l164 233h125l-159 -225q13 3 29 3zM280 86q54 0 92 38q36 38 36 93q0 57 -36 94q-37 37 -92 37t-91 -37q-37 -37 -37 -94
q0 -56 37 -93q36 -38 91 -38z" />
    <glyph glyph-name="seven.tf" 
d="M64 660h453v-29l-319 -631h-115l291 565h-310v95z" />
    <glyph glyph-name="eight.tf" 
d="M377 343q142 -55 142 -171q0 -84 -66 -133q-67 -50 -173 -50t-173 50q-66 49 -66 133q0 118 141 172q-111 57 -111 158q0 80 59 125q59 44 150 44t150 -44q59 -45 59 -125q0 -102 -112 -159zM280 584q-46 0 -78 -23q-30 -23 -30 -63q0 -36 26 -60q29 -24 82 -47
q53 23 82 47q26 24 26 60q0 40 -30 63q-31 23 -78 23zM280 77q65 0 99 28q34 27 34 71t-34 71q-35 27 -100 50q-63 -22 -99 -50q-33 -27 -33 -71t34 -71q34 -28 99 -28z" />
    <glyph glyph-name="nine.tf" 
d="M280 671q96 0 166 -65q68 -66 68 -164q0 -37 -14 -76q-13 -37 -29 -62q-20 -31 -49 -71l-164 -233h-125l159 225q-14 -3 -29 -3q-88 0 -152 64q-65 63 -65 157q0 97 69 163q70 65 165 65zM280 312q54 0 92 38q36 38 36 93q0 57 -36 94q-37 37 -92 37t-91 -37
q-37 -37 -37 -94q0 -56 37 -93q36 -38 91 -38z" />
    <glyph glyph-name="zero.slash.tf" 
d="M280 671q117 0 177 -91q60 -92 60 -244q0 -154 -59 -251q-60 -96 -178 -96t-177 96q-60 96 -60 251q0 152 60 244q60 91 177 91zM280 580q-135 0 -135 -245q0 -51 4 -79l242 242q-31 82 -111 82zM280 80q135 0 135 255q0 35 -3 67l-241 -240q34 -82 109 -82z" />
    <glyph glyph-name="zero.tosf" 
d="M280 546q109 0 182 -79q72 -79 72 -200t-73 -200t-182 -79t-181 79t-72 200t73 200q72 79 181 79zM280 449q-65 0 -106 -50q-40 -49 -40 -132t40 -132q39 -50 105 -50q65 0 106 50q40 49 40 132q0 81 -39 132q-41 50 -106 50z" />
    <glyph glyph-name="one.tosf" 
d="M352 535v-444h171v-91h-463v91h186v348h-171v96h277z" />
    <glyph glyph-name="two.tosf" 
d="M273 91h234v-91h-472v24l202 151q42 32 73 57q24 21 45 54q21 32 21 65q0 43 -28 71q-28 27 -77 27t-78 -30q-29 -31 -29 -74q0 -15 4 -46h-103q-8 32 -8 56q0 77 60 134t156 57q92 0 151 -53q59 -54 59 -136q0 -66 -39 -117q-40 -51 -121 -112z" />
    <glyph glyph-name="three.tosf" 
d="M322 294q71 -13 123 -67q50 -55 50 -137q0 -100 -70 -161q-71 -62 -171 -62q-79 0 -139 39q-59 41 -93 103l74 53q65 -98 155 -98q58 0 98 35q38 35 38 90t-39 87q-40 31 -114 31h-70v29l152 203h-247v96h412v-29z" />
    <glyph glyph-name="four.tosf" 
d="M525 91v-91h-79v-121h-105v121h-325v29l184 506h111l-163 -444h193v204h105v-204h79z" />
    <glyph glyph-name="five.tosf" 
d="M288 299q93 0 158 -55q66 -56 66 -153q0 -101 -70 -162q-71 -62 -171 -62q-82 0 -143 40q-61 39 -94 102l73 53q66 -98 161 -98q58 0 98 35q39 35 39 91t-39 87q-40 30 -114 30h-151v328h361v-96h-259v-149q49 9 85 9z" />
    <glyph glyph-name="six.tosf" 
d="M297 438q89 0 153 -63q64 -64 64 -158q0 -97 -69 -162q-69 -66 -165 -66q-98 0 -165 66q-69 64 -69 163q0 37 14 76q13 37 29 62q20 31 49 71l164 233h125l-159 -225q13 3 29 3zM280 86q54 0 92 38q36 38 36 93q0 57 -36 94q-37 37 -92 37t-91 -37q-37 -37 -37 -94
q0 -56 37 -93q36 -38 91 -38z" />
    <glyph glyph-name="seven.tosf" 
d="M64 535h453v-29l-318 -627h-114l289 560h-310v96z" />
    <glyph glyph-name="eight.tosf" 
d="M377 343q142 -55 142 -171q0 -84 -66 -133q-67 -50 -173 -50t-173 50q-66 49 -66 133q0 118 141 172q-111 57 -111 158q0 80 59 125q59 44 150 44t150 -44q59 -45 59 -125q0 -102 -112 -159zM280 584q-46 0 -78 -23q-30 -23 -30 -63q0 -36 26 -60q29 -24 82 -47
q53 23 82 47q26 24 26 60q0 40 -30 63q-31 23 -78 23zM280 77q65 0 99 28q34 27 34 71t-34 71q-35 27 -100 50q-63 -22 -99 -50q-33 -27 -33 -71t34 -71q34 -28 99 -28z" />
    <glyph glyph-name="nine.tosf" 
d="M280 546q97 0 166 -66q68 -65 68 -163q0 -39 -13 -74q-14 -37 -28 -61q-13 -20 -51 -73l-161 -230h-125l156 222q-14 -3 -29 -3q-87 0 -152 63q-65 65 -65 157q0 98 69 162q69 66 165 66zM280 187q54 0 92 38q36 37 36 93t-36 94q-38 38 -92 38q-55 0 -91 -37
q-37 -37 -37 -95q0 -56 37 -93q36 -38 91 -38z" />
    <glyph glyph-name="zero.slash.tosf" 
d="M280 546q109 0 182 -79q72 -79 72 -200t-73 -200t-182 -79t-181 79t-72 200t73 200q72 79 181 79zM280 456q-71 0 -111 -52q-42 -52 -42 -137q0 -49 13 -84l237 236q-38 37 -97 37zM280 77q70 0 112 53q41 53 41 137q0 45 -14 87l-237 -238q39 -39 98 -39z" />
    <glyph glyph-name="zero.dnom" horiz-adv-x="415" 
d="M208 423q81 0 121 -58q41 -59 41 -153q0 -95 -41 -157t-121 -62t-121 62t-41 157q0 94 41 153q40 58 121 58zM208 347q-78 0 -78 -136q0 -143 78 -143t78 143q0 136 -78 136z" />
    <glyph glyph-name="one.dnom" horiz-adv-x="361" 
d="M232 416v-341h88v-75h-275v75h104v266h-98v75h181z" />
    <glyph glyph-name="two.dnom" horiz-adv-x="376" 
d="M184 75h153v-75h-303v18l148 160q58 64 58 106q0 28 -16 45q-16 18 -42 18t-43 -18q-17 -17 -17 -47q0 -2 0.5 -6t1 -11.5t0.5 -13.5h-82q-4 15 -4 36q0 55 40 95q41 41 104 41t103 -37t40 -95q0 -43 -22 -77q-23 -36 -67 -85z" />
    <glyph glyph-name="three.dnom" horiz-adv-x="357" 
d="M220 263q42 -11 71 -43q29 -34 29 -84q0 -62 -45 -103q-44 -40 -110 -40q-50 0 -90 26q-39 26 -60 67l58 41q34 -58 89 -58q32 0 53 18q20 18 20 49q0 61 -86 61h-45v21l88 123h-146v75h266v-23z" />
    <glyph glyph-name="four.dnom" horiz-adv-x="365" 
d="M352 137v-68h-53v-69h-76v69h-209v22l127 325h85l-110 -279h107v120h76v-120h53z" />
    <glyph glyph-name="five.dnom" horiz-adv-x="368" 
d="M189 268q60 0 101 -34q42 -34 42 -96q0 -64 -45 -105q-46 -40 -113 -40q-51 0 -91 26q-40 25 -61 67l58 41q34 -58 91 -58q33 0 55 18q21 18 21 48q0 62 -87 62h-95v219h238v-75h-159v-78q28 5 45 5z" />
    <glyph glyph-name="six.dnom" horiz-adv-x="373" 
d="M202 282q52 0 95 -41q41 -41 41 -101q0 -63 -45 -105t-107 -42q-63 0 -106 42q-44 42 -44 107q0 35 13 62q15 31 43 68l103 144h98l-96 -134h5zM186 69q29 0 49 20t20 51q0 30 -20 52q-20 20 -49 20q-28 0 -48 -20q-20 -22 -20 -52q0 -31 20 -51t48 -20z" />
    <glyph glyph-name="seven.dnom" horiz-adv-x="336" 
d="M30 416h288v-23l-189 -393h-89l168 341h-178v75z" />
    <glyph glyph-name="eight.dnom" horiz-adv-x="385" 
d="M265 215q81 -35 81 -105q0 -54 -43 -85q-44 -32 -111 -32t-110 32q-43 31 -43 86q0 71 81 104q-63 37 -63 99q0 51 38 80t97 29q60 0 98 -29t38 -81q0 -62 -63 -98zM192 357q-26 0 -42 -12q-17 -14 -17 -35q0 -19 14 -33q14 -12 45 -28q32 15 45 28q15 13 15 33
q0 21 -17 35q-17 12 -43 12zM192 60q34 0 53 15q20 15 20 39q0 42 -73 67q-36 -14 -54 -28q-18 -15 -18 -39t18 -39q20 -15 54 -15z" />
    <glyph glyph-name="nine.dnom" horiz-adv-x="373" 
d="M187 423q63 0 106 -42q44 -42 44 -107q0 -35 -13 -62q-15 -31 -43 -68l-103 -144h-97l95 134h-5q-51 0 -94 41q-42 41 -42 101q0 63 45 105t107 42zM187 204q29 0 49 20q19 20 19 52t-19 51q-20 20 -49 20t-49 -20t-20 -51q0 -30 20 -52q20 -20 49 -20z" />
    <glyph glyph-name="zero.numr" horiz-adv-x="415" 
d="M208 667q81 0 121 -58q41 -59 41 -153q0 -95 -41 -157t-121 -62t-121 62t-41 157q0 94 41 153q40 58 121 58zM208 591q-78 0 -78 -136q0 -143 78 -143t78 143q0 136 -78 136z" />
    <glyph glyph-name="one.numr" horiz-adv-x="361" 
d="M232 660v-341h88v-75h-275v75h104v266h-98v75h181z" />
    <glyph glyph-name="two.numr" horiz-adv-x="376" 
d="M184 319h153v-75h-303v18l148 160q58 64 58 106q0 28 -16 45q-16 18 -42 18t-43 -18q-17 -17 -17 -47q0 -2 0.5 -6t1 -11.5t0.5 -13.5h-82q-4 15 -4 36q0 55 40 95q41 41 104 41t103 -37t40 -95q0 -43 -22 -77q-23 -36 -67 -85z" />
    <glyph glyph-name="three.numr" horiz-adv-x="357" 
d="M220 507q40 -10 71 -43q29 -34 29 -84q0 -62 -45 -103q-44 -40 -110 -40q-50 0 -90 26q-39 26 -60 67l58 41q34 -58 89 -58q32 0 53 18q20 18 20 49q0 61 -86 61h-45v21l88 123h-146v75h266v-23z" />
    <glyph glyph-name="four.numr" horiz-adv-x="365" 
d="M352 381v-68h-53v-69h-76v69h-209v22l127 325h85l-110 -279h107v120h76v-120h53z" />
    <glyph glyph-name="five.numr" horiz-adv-x="368" 
d="M189 512q60 0 101 -34q42 -34 42 -96q0 -64 -45 -105q-46 -40 -113 -40q-51 0 -91 26q-40 25 -61 67l58 41q34 -58 91 -58q33 0 55 18q21 18 21 48q0 62 -87 62h-95v219h238v-75h-159v-78q28 5 45 5z" />
    <glyph glyph-name="six.numr" horiz-adv-x="373" 
d="M202 526q52 0 95 -41q41 -41 41 -101q0 -63 -45 -105t-107 -42q-63 0 -106 42q-44 42 -44 107q0 35 13 62q15 31 43 68l103 144h98l-96 -134h5zM186 313q29 0 49 20t20 51q0 30 -20 52q-20 20 -49 20q-28 0 -48 -20q-20 -22 -20 -52q0 -31 20 -51t48 -20z" />
    <glyph glyph-name="seven.numr" horiz-adv-x="336" 
d="M30 660h288v-23l-189 -393h-89l168 341h-178v75z" />
    <glyph glyph-name="eight.numr" horiz-adv-x="385" 
d="M264 459q82 -31 82 -105q0 -54 -43 -85q-44 -32 -111 -32t-110 32q-43 31 -43 86q0 72 81 105q-63 36 -63 98q0 51 38 80t97 29q60 0 98 -29t38 -81q0 -61 -64 -98zM192 601q-26 0 -42 -12q-17 -14 -17 -35q0 -19 14 -33q15 -13 45 -27q30 14 45 27t15 33q0 21 -17 35
q-17 12 -43 12zM192 304q34 0 54 15q19 15 19 39t-18 39q-19 14 -55 28q-37 -14 -54 -28q-18 -15 -18 -39t19 -39q18 -15 53 -15z" />
    <glyph glyph-name="nine.numr" horiz-adv-x="373" 
d="M187 667q63 0 106 -42q44 -42 44 -107q0 -35 -13 -61q-14 -30 -43 -69l-103 -144h-97l95 134h-5q-51 0 -94 41q-42 41 -42 101q0 63 45 105t107 42zM187 448q29 0 49 21q19 19 19 51t-19 51q-20 20 -49 20t-49 -20t-20 -51t20 -51q20 -21 49 -21z" />
    <glyph glyph-name="backslash.case" horiz-adv-x="626" 
d="M5 760h117l499 -860h-117z" />
    <glyph glyph-name="periodcentered.case" horiz-adv-x="270" 
d="M136 428q33 0 55 -22t22 -55t-22 -55q-23 -23 -55 -23q-33 0 -56 23t-23 55t23 55q22 22 56 22z" />
    <glyph glyph-name="bullet.case" horiz-adv-x="402" 
d="M201 447q60 0 104 -41q42 -41 42 -103q0 -61 -42 -102q-44 -41 -104 -41q-59 0 -103 41t-44 102q0 62 44 103t103 41z" />
    <glyph glyph-name="slash.case" horiz-adv-x="625" 
d="M621 760l-499 -860h-117l499 860h117z" />
    <glyph glyph-name="comma.subs" horiz-adv-x="207" 
d="M157 -18l-35 -220h-68l5 220h98z" />
    <glyph glyph-name="period.subs" horiz-adv-x="207" 
d="M104 -7q25 0 43 -18q17 -17 17 -43t-17 -43t-43 -17t-43 17q-18 17 -18 43t18 43q17 18 43 18z" />
    <glyph glyph-name="comma.sups" horiz-adv-x="207" 
d="M157 466l-35 -219h-68l5 219h98z" />
    <glyph glyph-name="period.sups" horiz-adv-x="207" 
d="M104 477q24 0 43 -17q17 -19 17 -44q0 -26 -17 -43t-43 -17t-43 17q-18 17 -18 43t18 44q17 17 43 17z" />
    <glyph glyph-name="braceleft.case" horiz-adv-x="404" 
d="M307 672q-71 0 -71 -75q0 -25 12 -89q12 -66 12 -92q0 -65 -63 -86q32 -10 48 -31q15 -19 15 -55q0 -26 -12 -91q-12 -66 -12 -90q0 -75 71 -75h53v-88h-72q-146 0 -146 137q0 33 12 104t12 89q0 55 -57 55h-60v90h60q57 0 57 55q0 18 -12 89t-12 104q0 137 146 137h72
v-88h-53z" />
    <glyph glyph-name="braceright.case" horiz-adv-x="404" 
d="M296 375h59v-90h-59q-58 0 -58 -55q0 -18 12 -89t12 -104q0 -137 -146 -137h-72v88h54q70 0 70 75q0 25 -12 89q-12 66 -12 92q0 36 15 55q16 21 48 31q-33 10 -48 30t-15 56q0 26 12 91q12 66 12 90q0 75 -70 75h-54v88h72q146 0 146 -137q0 -33 -12 -104t-12 -89
q0 -55 58 -55z" />
    <glyph glyph-name="bracketleft.case" horiz-adv-x="350" 
d="M305 760v-88h-115v-682h115v-90h-209v860h209z" />
    <glyph glyph-name="bracketright.case" horiz-adv-x="350" 
d="M254 760v-860h-210v90h116v682h-116v88h210z" />
    <glyph glyph-name="parenleft.case" horiz-adv-x="349" 
d="M279 766l43 -67q-152 -99 -152 -368q0 -268 152 -367l-43 -66q-89 40 -148 148q-58 106 -58 285q0 181 58 287t148 148z" />
    <glyph glyph-name="parenright.case" horiz-adv-x="349" 
d="M71 766q89 -44 147 -149q57 -106 57 -286q0 -122 -30 -215q-33 -95 -74 -142q-42 -48 -100 -76l-44 66q152 99 152 367q0 269 -152 368z" />
    <glyph glyph-name="emdash.case" horiz-adv-x="1000" 
d="M950 396v-89h-900v89h900z" />
    <glyph glyph-name="endash.case" horiz-adv-x="504" 
d="M465 396v-89h-426v89h426z" />
    <glyph glyph-name="uni2015.case" horiz-adv-x="1000" 
d="M950 396v-89h-900v89h900z" />
    <glyph glyph-name="hyphen.case" horiz-adv-x="344" 
d="M295 396v-89h-246v89h246z" />
    <glyph glyph-name="uni00AD.case" horiz-adv-x="344" 
d="M295 396v-89h-246v89h246z" />
    <glyph glyph-name="guillemotleft.case" horiz-adv-x="550" 
d="M220 522l68 -59l-138 -154l138 -155l-68 -58l-186 198v29zM447 522l68 -60l-138 -153l138 -155l-68 -59l-186 199v29z" />
    <glyph glyph-name="guillemotright.case" horiz-adv-x="550" 
d="M103 522l186 -199v-29l-186 -198l-68 58l138 155l-138 154zM330 522l186 -199v-29l-186 -199l-68 59l138 155l-138 153z" />
    <glyph glyph-name="guilsinglleft.case" horiz-adv-x="323" 
d="M220 522l68 -59l-138 -154l138 -155l-68 -58l-186 198v29z" />
    <glyph glyph-name="guilsinglright.case" horiz-adv-x="323" 
d="M103 522l186 -199v-29l-186 -198l-68 58l138 155l-138 154z" />
    <glyph glyph-name="cent.tf" 
d="M339 170q56 12 101 72l73 -58q-61 -99 -174 -112v-167h-97v173q-85 21 -141 89q-55 68 -55 160q0 91 55 158q55 69 141 90v174h97v-168q114 -14 175 -111l-73 -58q-44 59 -102 71v-313zM154 327q0 -49 24 -88q22 -38 64 -58v291q-42 -19 -64 -57q-24 -39 -24 -88z" />
    <glyph glyph-name="currency.tf" 
d="M480 331q0 -59 -33 -105l79 -81l-61 -63l-84 85q-47 -26 -103 -26q-52 0 -99 24l-82 -83l-62 63l76 80q-33 47 -33 105t35 107l-78 79l63 63l82 -83q46 24 98 24q53 0 102 -25l84 84l62 -63l-79 -80q33 -46 33 -105zM186 330q0 -40 26 -66t67 -26t67 26t26 66
q0 41 -26 67q-25 25 -67 25t-67 -25q-26 -26 -26 -67z" />
    <glyph glyph-name="dollar.tf" 
d="M490 193q0 -70 -46 -113q-47 -45 -121 -56v-119h-97v121q-120 22 -183 135l74 54q43 -70 109 -93v184q-143 56 -143 167q0 61 39 103q41 41 104 54v119h97v-117q101 -18 152 -111l-71 -54q-34 52 -81 67v-163l18 -7q149 -59 149 -171zM187 474q0 -37 39 -61v118
q-39 -17 -39 -57zM323 119q62 18 62 72q0 44 -62 76v-148z" />
    <glyph glyph-name="Euro.tf" 
d="M519 109l26 -90q-63 -30 -140 -30q-109 0 -188 59q-77 59 -109 161h-94v83h78q-2 32 -2 38q0 27 1 34h-75v83h90q30 102 109 163q77 61 189 61q74 0 140 -29l-26 -91q-58 23 -109 23q-69 0 -116 -34q-49 -34 -73 -93h270l-22 -83h-268q-1 -7 -1 -34q0 -22 2 -38h246
l-22 -83h-204q26 -59 73 -90q48 -33 115 -33q52 0 110 23z" />
    <glyph glyph-name="florin.tf" 
d="M447 576q-50 0 -75 -19q-27 -19 -33 -66l-11 -89h125v-91h-136l-34 -273q-12 -87 -59 -130q-49 -41 -132 -41q-32 0 -75 8v89q30 -3 54 -3q51 0 76 19q24 18 32 67l33 264h-103v91h114l12 98q21 171 191 171q45 0 75 -9v-88q-10 0 -23 0.5t-20 1t-11 0.5z" />
    <glyph glyph-name="sterling.tf" 
d="M291 216q0 -72 -45 -125h271v-91h-464v24q133 90 133 191q0 17 -1 22h-122v91h87l-1 2q-1 2 -3 5.5t-4 7.5q-8 13 -9 16l-3 5q-3 5 -5 10q-7 12 -8 17q0 1 -1.5 3.5t-3 6t-2.5 6.5q-4 11 -6 18q-3 13 -4 18q0 4 -1 10t-2 10q-1 7 -1 20q0 83 60 136q59 52 152 52
q79 0 137 -44q57 -44 79 -128l-91 -33q-33 108 -120 108q-49 0 -79 -31t-30 -78q0 -19 6 -38q5 -15 11 -30q5 -11 20 -37q13 -23 18 -32h171v-91h-140q1 -5 1 -21z" />
    <glyph glyph-name="yen.tf" 
d="M540 660l-188 -293h159v-88h-178v-78h178v-88h-178v-113h-106v113h-177v88h177v78h-177v88h159l-189 293h117l143 -236l144 236h116z" />
    <glyph glyph-name="section.case" horiz-adv-x="590" 
d="M558 234q0 -52 -32 -87t-88 -49q1 -3 1 -17q0 -65 -47 -109q-47 -43 -127 -43q-117 0 -184 97l71 58q52 -63 115 -63q69 0 69 58q0 19 -12 39q-14 21 -27 32q-5 4 -47 36l-99 76q-61 44 -90 81q-29 38 -29 84q0 52 32 87t88 49q-1 3 -1 17q0 66 48 109q47 43 127 43
q115 0 183 -98l-71 -58q-51 63 -115 63q-69 0 -69 -57q0 -21 13 -40q16 -23 26 -31q3 -2 10.5 -8.5t17 -13.5t19.5 -15l99 -75q64 -45 91 -81q28 -37 28 -84zM408 173q48 18 48 60q0 21 -15 39q-17 19 -62 52l-102 78q-64 46 -95 86q-47 -18 -47 -60q0 -21 15 -39
q17 -20 61 -53l99 -75q71 -51 98 -88z" />
    <glyph glyph-name="dieresis.case" horiz-adv-x="440" 
d="M98 877q28 0 48 -18q19 -19 19 -47q0 -26 -19 -45q-20 -20 -48 -20q-27 0 -47 20q-21 19 -21 45t21 46q19 19 47 19zM342 877q30 0 49 -19t19 -47q0 -25 -20 -45t-48 -20q-26 0 -46 20q-21 20 -21 45q0 27 21 47q19 19 46 19z" />
    <glyph glyph-name="dieresis.i" horiz-adv-x="395" 
d="M98 740q29 0 48 -19t19 -47q0 -26 -19 -45q-20 -20 -48 -20q-27 0 -47 20q-21 19 -21 45q0 27 20 47q19 19 48 19zM298 740q30 0 49 -19t19 -47q0 -25 -20 -45t-48 -20q-26 0 -46 20q-21 19 -21 45q0 27 20 47q19 19 47 19z" />
    <glyph glyph-name="otatonos" horiz-adv-x="186" 
d="M156 780v-19l-47 -193h-79v212h126z" />
    </font>
</defs>
</svg>
