<?xml version="1.0" standalone="no"?>
<!DOCTYPE svg PUBLIC "-//W3C//DTD SVG 1.1//EN" "http://www.w3.org/Graphics/SVG/1.1/DTD/svg11.dtd" >
<svg xmlns="http://www.w3.org/2000/svg" xmlns:xlink="http://www.w3.org/1999/xlink" version="1.1">
<metadata>
Created by FontForge 20170731 at Mon Feb 13 22:26:27 2017
 By Aleksey,,,
Copyright (c) 2015 by Jakob Runge, under exclusive license to type me! fonts. All rights reserved.
</metadata>
<defs>
<font id="CeraGR-RegularItalic" horiz-adv-x="560" >
  <font-face 
    font-family="Cera"
    font-weight="400"
    font-style="italic"
    font-stretch="normal"
    units-per-em="1000"
    panose-1="0 0 5 0 0 0 0 0 0 0"
    ascent="799"
    descent="-201"
    x-height="478"
    cap-height="660"
    bbox="-137 -242 1319 902"
    underline-thickness="50"
    underline-position="-175"
    slope="-10"
    unicode-range="U+0020-F8FF"
  />
<missing-glyph horiz-adv-x="707" 
d="M165 660h525l-116 -660h-525zM525 50l98 557h-411z" />
    <glyph glyph-name=".notdef" horiz-adv-x="707" 
d="M165 660h525l-116 -660h-525zM525 50l98 557h-411z" />
    <glyph glyph-name=".null" horiz-adv-x="0" 
 />
    <glyph glyph-name="nonmarkingreturn" horiz-adv-x="333" 
 />
    <glyph glyph-name="space" unicode=" " horiz-adv-x="280" 
 />
    <glyph glyph-name="exclam" unicode="!" horiz-adv-x="304" 
d="M273 660l-95 -451h-64l64 451h95zM119 115q26 0 44 -18q19 -18 19 -45t-19 -45q-18 -18 -44 -18q-25 0 -45 18q-18 18 -18 45t18 45q20 18 45 18z" />
    <glyph glyph-name="quotedbl" unicode="&#x22;" horiz-adv-x="464" 
d="M272 660l-86 -257h-62l58 257h90zM456 660l-87 -257h-62l58 257h91z" />
    <glyph glyph-name="numbersign" unicode="#" horiz-adv-x="566" 
d="M571 401h-98l-25 -142h98l-11 -66h-99l-34 -193h-65l34 193h-192l-33 -193h-66l34 193h-97l12 66h97l24 142h-96l12 66h96l34 193h65l-33 -193h191l34 193h65l-33 -193h97zM191 259h192l24 142h-191z" />
    <glyph glyph-name="dollar" unicode="$" horiz-adv-x="536" 
d="M342 347q115 -63 115 -154q0 -65 -48 -117t-136 -55l-20 -115h-77l22 123q-103 28 -161 136l61 37q47 -79 112 -101l38 215l-13 7q-112 63 -112 151q0 65 49 111q49 49 132 50l20 115h77l-22 -125q75 -23 121 -101l-60 -39q-32 51 -74 68l-35 -199zM202 477q0 -47 60 -83
l29 169q-44 -5 -66 -28q-23 -26 -23 -58zM286 93q44 6 68 32q24 25 24 62q0 51 -60 88z" />
    <glyph glyph-name="percent" unicode="%" horiz-adv-x="810" 
d="M267 670q67 0 111 -45q44 -46 44 -110q0 -69 -49 -117q-49 -49 -119 -49q-67 0 -110 46q-44 46 -44 110q0 69 49 117t118 48zM718 660l-520 -660h-69l519 660h70zM266 613q-44 0 -73 -30q-29 -32 -29 -77q0 -42 26 -71t68 -29q45 0 73 31q27 30 27 77q0 43 -25 71t-67 28
zM588 311q68 0 111 -45q44 -46 44 -110q0 -69 -49 -117q-49 -49 -119 -49q-67 0 -110 46q-44 46 -44 110q0 69 49 117q50 48 118 48zM587 254q-45 0 -73 -30q-29 -30 -29 -77q0 -42 26 -71t68 -29q45 0 72 31q28 29 28 77q0 43 -25 71t-67 28z" />
    <glyph glyph-name="ampersand" unicode="&#x26;" horiz-adv-x="626" 
d="M607 268q-98 -117 -130 -149l78 -119h-87l-45 68q-91 -79 -188 -79q-81 0 -140 48q-58 48 -58 124q0 62 44 111q44 47 140 104q-47 80 -47 135q0 63 43 112q42 48 117 48q65 0 102 -37q38 -38 38 -95q0 -56 -38 -99q-38 -42 -112 -86l111 -171l115 134zM331 600
q-39 0 -59 -24q-21 -24 -21 -63q0 -50 37 -103q52 30 83 62q27 30 27 66q0 26 -17 45q-17 17 -50 17zM235 61q67 0 147 69l-124 190q-76 -48 -106 -78q-33 -33 -33 -78q0 -46 34 -74q35 -29 82 -29z" />
    <glyph glyph-name="quotesingle" unicode="'" horiz-adv-x="281" 
d="M272 660l-86 -257h-62l58 257h90z" />
    <glyph glyph-name="parenleft" unicode="(" horiz-adv-x="338" 
d="M369 733l23 -54q-62 -29 -109 -85q-49 -56 -74 -126q-26 -66 -40 -140q-13 -68 -13 -142q0 -188 101 -271l-39 -47q-138 94 -138 321q0 76 17 161q17 82 51 159q34 78 91 137q57 62 130 87z" />
    <glyph glyph-name="parenright" unicode=")" horiz-adv-x="338" 
d="M141 733q138 -95 138 -321q0 -76 -17 -161q-16 -83 -51 -159q-34 -78 -91 -137q-57 -62 -130 -87l-23 54q62 29 109 85q49 56 74 125q26 68 40 141q13 68 13 142q0 188 -101 271z" />
    <glyph glyph-name="asterisk" unicode="*" horiz-adv-x="410" 
d="M432 615l-105 -46l81 -79l-30 -37l-91 66l-28 -110l-46 8l11 114l-111 -31l-17 45l104 46l-82 80l31 36l94 -68l28 112l46 -8l-10 -113l107 30z" />
    <glyph glyph-name="plus" unicode="+" 
d="M374 539l-34 -190h182l-11 -68h-183l-34 -193h-76l34 193h-187l11 68h188l34 190h76z" />
    <glyph glyph-name="comma" unicode="," horiz-adv-x="270" 
d="M161 90l-88 -269h-63l60 269h91z" />
    <glyph glyph-name="hyphen" unicode="-" horiz-adv-x="340" 
d="M307 347l-12 -65h-234l12 65h234z" />
    <glyph glyph-name="period" unicode="." horiz-adv-x="270" 
d="M102 115q26 0 44 -18q19 -18 19 -45t-19 -45q-18 -18 -44 -18t-45 18q-18 18 -18 45t18 45q19 18 45 18z" />
    <glyph glyph-name="slash" unicode="/" horiz-adv-x="616" 
d="M704 780l-677 -901h-84l676 901h85z" />
    <glyph glyph-name="zero" unicode="0" horiz-adv-x="663" 
d="M350 544q113 0 190 -76q78 -76 78 -187q0 -120 -89 -206t-210 -86q-113 0 -189 76q-76 75 -76 187q0 122 88 207t208 85zM349 474q-88 0 -153 -65q-63 -65 -63 -157q0 -82 53 -138q52 -55 135 -55q89 0 154 65q64 64 64 156q0 84 -54 139t-136 55z" />
    <glyph glyph-name="one" unicode="1" horiz-adv-x="492" 
d="M359 533l-82 -465h142l-12 -68h-371l12 68h151l71 394h-142l12 71h219z" />
    <glyph glyph-name="two" unicode="2" horiz-adv-x="553" 
d="M288 123l-86 -55h268l-13 -68h-454l3 21l229 146q34 22 73 48q22 17 52 43q31 27 43 52q12 26 12 56q0 46 -30 76q-31 31 -85 31q-67 0 -98 -43q-32 -44 -32 -92q0 -1 2 -35h-76q-4 17 -4 41q0 82 60 140q59 60 152 60q85 0 137 -49q53 -50 53 -124q0 -72 -52 -127
q-56 -59 -154 -121z" />
    <glyph glyph-name="three" unicode="3" horiz-adv-x="518" 
d="M496 533l-4 -23l-210 -223q67 -13 111 -65t44 -124q0 -91 -66 -161t-180 -70q-164 0 -223 155l63 35q25 -56 63 -88q37 -31 98 -31q78 0 122 47t44 109q0 63 -43 97q-44 35 -118 35h-47l4 22l202 215h-269l13 70h396z" />
    <glyph glyph-name="four" unicode="4" horiz-adv-x="543" 
d="M495 68l-11 -68h-96l-21 -121h-77l21 121h-332l4 23l301 510h83l-276 -465h232l39 222h77l-39 -222h95z" />
    <glyph glyph-name="five" unicode="5" horiz-adv-x="542" 
d="M473 465h-265l-31 -179q48 5 69 5q98 0 156 -51q58 -52 58 -140q0 -94 -65 -164q-66 -69 -179 -69q-89 0 -145 44q-57 43 -84 111l63 35q27 -59 66 -89t99 -30q80 0 123 46t43 110q0 60 -40 94q-41 35 -117 35h-134l53 310h342z" />
    <glyph glyph-name="six" unicode="6" horiz-adv-x="552" 
d="M294 425q86 0 144 -58t58 -147q0 -97 -69 -163q-70 -67 -167 -67q-92 0 -154 60t-62 152q0 32 8 62q8 28 30 63q24 36 32 47q5 7 45 55l192 231h100l-206 -242q18 7 49 7zM262 61q65 0 110 45t45 113q0 60 -38 101q-37 39 -100 39q-66 0 -111 -45t-45 -112q0 -60 39 -101
q37 -40 100 -40z" />
    <glyph glyph-name="seven" unicode="7" horiz-adv-x="501" 
d="M86 533h441l-4 -23l-438 -631h-91l412 586h-332z" />
    <glyph glyph-name="eight" unicode="8" horiz-adv-x="577" 
d="M387 339q122 -65 122 -160q0 -72 -58 -130q-59 -59 -173 -59q-100 0 -168 46q-68 45 -68 127q0 69 51 118q52 49 139 70q-97 60 -97 143q0 70 54 124q56 53 152 53q82 0 141 -41q58 -42 58 -119q0 -119 -153 -172zM341 601q-59 0 -94 -30q-33 -30 -33 -75q0 -35 23 -61
q22 -24 77 -55q68 19 108 49q39 29 39 76q0 46 -34 71q-32 25 -86 25zM275 60q79 0 117 36t38 83q0 42 -32 71q-29 26 -99 59q-91 -21 -134 -54q-44 -33 -44 -83t40 -81t114 -31z" />
    <glyph glyph-name="nine" unicode="9" horiz-adv-x="552" 
d="M302 544q92 0 153 -60q62 -60 62 -152q0 -36 -8 -61q-8 -31 -29 -63q-18 -28 -33 -47q-3 -4 -17.5 -22t-27.5 -34l-188 -226h-99l202 237q-20 -7 -50 -7q-85 0 -144 59q-58 58 -58 146q0 97 70 164q71 66 167 66zM283 175q66 0 111 45q44 44 44 111q0 61 -38 102
q-37 40 -100 40q-66 0 -111 -45t-45 -113q0 -61 39 -100q37 -40 100 -40z" />
    <glyph glyph-name="colon" unicode=":" horiz-adv-x="270" 
d="M168 492q26 0 44 -18q19 -18 19 -45q0 -29 -19 -45q-18 -18 -44 -18t-44 18q-19 16 -19 45q0 27 19 45q18 18 44 18zM102 115q26 0 44 -18q19 -18 19 -45t-19 -45q-18 -18 -44 -18t-45 18q-18 18 -18 45t18 45q19 18 45 18z" />
    <glyph glyph-name="semicolon" unicode=";" horiz-adv-x="270" 
d="M168 492q26 0 44 -18q19 -18 19 -45q0 -29 -19 -45q-18 -18 -44 -18t-44 18q-19 16 -19 45q0 27 19 45q18 18 44 18zM161 90l-88 -269h-63l60 269h91z" />
    <glyph glyph-name="less" unicode="&#x3c;" 
d="M537 515l-12 -76l-325 -128l279 -129l-11 -65l-405 187l3 24z" />
    <glyph glyph-name="equal" unicode="=" 
d="M530 453l-12 -69h-427l12 69h427zM493 245l-11 -68h-427l11 68h427z" />
    <glyph glyph-name="greater" unicode="&#x3e;" 
d="M119 514l405 -187l-3 -24l-471 -187l12 76l325 127l-279 130z" />
    <glyph glyph-name="question" unicode="?" horiz-adv-x="445" 
d="M286 671q69 0 115 -40t46 -110q0 -39 -18 -73q-18 -35 -40 -54q-26 -24 -55 -48l-12 -9q-39 -32 -61 -61q-19 -23 -27 -67h-69q1 46 22 86q18 35 74 80q45 37 59 51q17 16 33 41q15 24 15 50q0 39 -25 61t-64 22q-74 0 -120 -85l-58 36q65 120 185 120zM185 115
q26 0 44 -18q19 -18 19 -45t-19 -45q-18 -18 -44 -18t-44 18q-19 18 -19 45t18 45t45 18z" />
    <glyph glyph-name="at" unicode="@" horiz-adv-x="927" 
d="M500 657q174 0 280 -101q105 -102 105 -249q0 -118 -71 -195t-209 -77h-48l8 44q-55 -53 -137 -53t-133 58t-51 139q0 87 60 158q60 69 160 69q54 0 93 -21q41 -23 60 -57l13 70h69l-61 -341q85 1 132 58q45 55 45 147q0 125 -83 205t-231 80q-96 0 -168 -34
q-77 -35 -119 -89q-46 -57 -68 -120q-23 -66 -23 -129q0 -135 96 -227q95 -90 244 -90q63 0 112 15l10 -59q-53 -21 -130 -21q-175 0 -290 110q-114 110 -114 269q0 78 30 155q31 79 85 142q53 63 142 104q86 40 192 40zM447 95q70 0 110 52q41 52 41 114q0 57 -36 89
q-35 31 -90 31q-65 0 -107 -43q-42 -44 -42 -109q0 -57 32 -95q33 -39 92 -39z" />
    <glyph glyph-name="A" unicode="A" horiz-adv-x="663" 
d="M514 0l-34 134h-320l-80 -134h-88l404 671h28l169 -671h-79zM463 204l-75 321l-187 -321h262z" />
    <glyph glyph-name="B" unicode="B" horiz-adv-x="615" 
d="M463 354q47 -22 72 -63q26 -43 26 -95q0 -86 -64 -141t-169 -55h-279l116 660h207q84 0 130 -43q47 -44 47 -114q0 -101 -86 -149zM358 590h-128l-36 -205h148q58 0 93 32q33 31 33 81q0 43 -28 68q-28 24 -82 24zM324 70q72 0 115 35q41 35 41 93q0 51 -33 84
q-35 32 -94 32h-171l-43 -244h185z" />
    <glyph glyph-name="C" unicode="C" horiz-adv-x="714" 
d="M436 671q90 0 160 -42q68 -41 109 -116l-64 -39q-69 125 -210 125q-119 0 -201 -85q-83 -86 -83 -206q0 -107 67 -177t174 -70q131 0 221 105l54 -45q-54 -64 -124 -97q-75 -35 -157 -35q-139 0 -227 91q-89 91 -89 225q0 152 110 259t260 107z" />
    <glyph glyph-name="D" unicode="D" horiz-adv-x="698" 
d="M331 660q153 0 243 -87q90 -85 90 -217q0 -48 -12 -95q-14 -48 -42 -96q-29 -47 -74 -84q-42 -35 -113 -58t-154 -23h-220l116 660h166zM274 70q80 0 140 25q63 26 97 66q36 40 54 89q18 48 18 100q0 104 -68 172q-70 68 -190 68h-95l-91 -520h135z" />
    <glyph glyph-name="E" unicode="E" horiz-adv-x="567" 
d="M588 660l-13 -70h-345l-37 -202h265l-12 -70h-264l-43 -248h357l-12 -70h-435l116 660h423z" />
    <glyph glyph-name="F" unicode="F" horiz-adv-x="524" 
d="M578 660l-13 -70h-335l-40 -227h278l-12 -71h-278l-51 -292h-78l116 660h413z" />
    <glyph glyph-name="G" unicode="G" horiz-adv-x="748" 
d="M410 336h302l-35 -197q-49 -69 -126 -109q-79 -41 -169 -41q-139 0 -227 91q-89 91 -89 225q0 152 110 259t260 107q86 0 155 -39q71 -41 110 -110l-60 -44q-72 121 -210 121q-120 0 -202 -85t-82 -206q0 -109 67 -177q67 -70 175 -70q127 0 213 98l19 107h-224z" />
    <glyph glyph-name="H" unicode="H" horiz-adv-x="708" 
d="M691 660l-116 -660h-78l56 318h-371l-55 -318h-78l116 660h78l-48 -272h371l47 272h78z" />
    <glyph glyph-name="I" unicode="I" horiz-adv-x="259" 
d="M243 660l-116 -660h-78l116 660h78z" />
    <glyph glyph-name="J" unicode="J" horiz-adv-x="373" 
d="M358 660l-91 -516q-29 -155 -175 -155q-54 0 -109 18l12 65q61 -11 86 -11q95 0 111 96l88 503h78z" />
    <glyph glyph-name="K" unicode="K" horiz-adv-x="631" 
d="M165 660h78l-116 -660h-78zM651 660l-354 -314l265 -346h-93l-271 354l344 306h109z" />
    <glyph glyph-name="L" unicode="L" horiz-adv-x="507" 
d="M243 660l-104 -590h314l-13 -70h-391l116 660h78z" />
    <glyph glyph-name="M" unicode="M" horiz-adv-x="789" 
d="M746 671h28l-118 -671h-78l83 470l-256 -283h-28l-165 298l-85 -485h-78l118 671h28l208 -382l341 379z" />
    <glyph glyph-name="N" unicode="N" horiz-adv-x="708" 
d="M613 660h78l-118 -671h-28l-330 515l-88 -504h-78l118 671h28l330 -516z" />
    <glyph glyph-name="O" unicode="O" horiz-adv-x="782" 
d="M434 671q136 0 225 -90q89 -92 89 -226q0 -152 -109 -258q-109 -108 -259 -108q-137 0 -225 91q-89 91 -89 225q0 153 109 259q109 107 259 107zM428 599q-118 0 -200 -85t-82 -205q0 -107 67 -177q68 -71 171 -71q117 0 200 86t83 206q0 106 -67 176t-172 70z" />
    <glyph glyph-name="P" unicode="P" horiz-adv-x="577" 
d="M374 660q99 0 151 -49q53 -50 53 -129q0 -91 -66 -148q-65 -58 -176 -58h-161l-48 -276h-78l116 660h209zM345 346q75 0 113 37q39 37 39 96q0 52 -32 82q-32 29 -95 29h-140l-43 -244h158z" />
    <glyph glyph-name="Q" unicode="Q" horiz-adv-x="782" 
d="M893 -135q17 0 65 2l-10 -62q-45 -8 -89 -8q-259 0 -382 205q-48 -13 -97 -13q-137 0 -225 91q-89 91 -89 225q0 152 108 259q110 107 260 107q136 0 225 -90q89 -92 89 -226q0 -106 -55 -192q-56 -88 -147 -134q66 -98 152 -131t195 -33zM146 309q0 -107 67 -177
q68 -71 171 -71q117 0 200 86q82 85 82 206q0 105 -66 176q-67 70 -172 70q-118 0 -200 -85t-82 -205z" />
    <glyph glyph-name="R" unicode="R" horiz-adv-x="622" 
d="M578 484q0 -76 -48 -130q-50 -55 -131 -71l165 -283h-87l-163 277h-139l-48 -277h-78l116 660h209q98 0 151 -48q53 -50 53 -128zM230 590l-43 -243h158q75 0 113 37q39 36 39 95q0 52 -32 82q-32 29 -95 29h-140z" />
    <glyph glyph-name="S" unicode="S" horiz-adv-x="557" 
d="M326 671q137 0 208 -122l-62 -37q-56 87 -149 87q-61 0 -92 -29q-30 -28 -30 -72q0 -38 22 -60q22 -24 65 -49l70 -40q127 -70 127 -172q0 -76 -55 -131q-56 -57 -157 -57q-166 0 -250 159l62 38q71 -125 190 -125q61 0 96 32q33 31 33 78q0 37 -22 63q-23 26 -70 52
l-71 40q-121 67 -121 168q0 73 55 125t151 52z" />
    <glyph glyph-name="T" unicode="T" horiz-adv-x="586" 
d="M639 660l-13 -70h-232l-104 -590h-78l104 590h-232l12 70h543z" />
    <glyph glyph-name="U" unicode="U" horiz-adv-x="687" 
d="M679 660l-75 -431q-20 -113 -96 -177q-76 -63 -180 -63q-107 0 -176 63q-69 65 -69 166q0 30 6 61l66 381h78l-67 -384q-5 -33 -5 -52q0 -73 49 -118q50 -45 122 -45q74 0 127 46q55 47 68 127l74 426h78z" />
    <glyph glyph-name="V" unicode="V" horiz-adv-x="663" 
d="M612 660h91l-404 -671h-28l-168 671h81l125 -514z" />
    <glyph glyph-name="W" unicode="W" horiz-adv-x="1057" 
d="M995 660h88l-368 -671h-28l-115 521l-303 -521h-28l-133 671h81l94 -501l300 512h28l113 -512z" />
    <glyph glyph-name="X" unicode="X" horiz-adv-x="592" 
d="M624 660l-264 -329l164 -331h-84l-134 274l-224 -274h-97l285 345l-153 315h83l123 -260l204 260h97z" />
    <glyph glyph-name="Y" unicode="Y" horiz-adv-x="616" 
d="M645 660l-298 -389l-47 -271h-78l48 275l-161 385h81l128 -312l235 312h92z" />
    <glyph glyph-name="Z" unicode="Z" horiz-adv-x="589" 
d="M628 660l-5 -23l-493 -567h395l-12 -70h-524l4 23l492 567h-347l11 70h479z" />
    <glyph glyph-name="bracketleft" unicode="[" horiz-adv-x="347" 
d="M379 729l-11 -68h-117l-128 -722h117l-12 -70h-191l151 860h191z" />
    <glyph glyph-name="backslash" unicode="\" horiz-adv-x="619" 
d="M175 780l373 -901h-74l-372 901h73z" />
    <glyph glyph-name="bracketright" unicode="]" horiz-adv-x="347" 
d="M330 729l-151 -860h-191l12 68h117l127 722h-116l11 70h191z" />
    <glyph glyph-name="asciicircum" unicode="^" horiz-adv-x="511" 
d="M344 670l115 -386h-71l-76 259l-166 -259h-79l250 386h27z" />
    <glyph glyph-name="underscore" unicode="_" horiz-adv-x="500" 
d="M402 -75l-12 -65h-413l11 65h414z" />
    <glyph glyph-name="a" unicode="a" horiz-adv-x="630" 
d="M510 478h77l-84 -478h-72l12 65q-67 -76 -177 -76q-96 0 -157 67q-61 65 -61 161q0 64 29 127q28 60 91 103q62 42 142 42q129 0 186 -94zM288 60q86 0 135 64q49 62 49 139q0 72 -45 114q-46 41 -112 41q-79 0 -133 -58q-55 -58 -55 -136q0 -69 44 -116q43 -48 117 -48z
" />
    <glyph glyph-name="b" unicode="b" horiz-adv-x="632" 
d="M365 489q96 0 157 -67t61 -163q0 -103 -71 -186q-70 -84 -189 -84q-66 0 -114 27t-73 70l-15 -86h-77l131 750h77l-59 -333q69 72 172 72zM317 60q79 0 133 57t54 135q0 72 -45 119t-117 47q-86 0 -135 -64t-49 -139q0 -70 46 -112q46 -43 113 -43z" />
    <glyph glyph-name="c" unicode="c" horiz-adv-x="559" 
d="M320 489q68 0 121 -31q53 -32 83 -84l-59 -39q-53 84 -147 84q-79 0 -134 -55q-56 -56 -56 -136q0 -71 47 -121q47 -48 119 -48q90 0 148 70l50 -43q-78 -97 -201 -97q-104 0 -172 67q-70 67 -70 168q0 110 80 188q80 77 191 77z" />
    <glyph glyph-name="d" unicode="d" horiz-adv-x="630" 
d="M558 750h77l-132 -750h-72l12 65q-67 -76 -177 -76q-97 0 -157 66q-61 65 -61 162q0 64 29 127q28 60 91 103q62 42 142 42q129 0 186 -94zM288 60q86 0 135 63q49 62 49 139q0 72 -45 114t-112 42q-79 0 -133 -58q-55 -58 -55 -136q0 -69 44 -116q43 -48 117 -48z" />
    <glyph glyph-name="e" unicode="e" horiz-adv-x="566" 
d="M523 286q0 -38 -12 -72h-382q5 -72 50 -113q46 -41 119 -41q79 0 150 59l39 -52q-83 -78 -196 -78q-106 0 -174 67q-68 68 -68 167q0 108 77 187q78 78 187 78q90 0 151 -56q59 -57 59 -146zM309 418q-64 0 -110 -37q-47 -37 -64 -99h309q1 2 1 9q0 60 -38 93
q-37 34 -98 34z" />
    <glyph glyph-name="f" unicode="f" horiz-adv-x="303" 
d="M329 761q38 0 80 -14l-11 -62q-36 6 -58 6q-86 0 -103 -92l-21 -121h121l-13 -69h-120l-81 -456q-25 -144 -165 -144q-39 0 -79 14l11 62q29 -7 58 -7q84 0 101 93l78 438h-70l12 69h70l24 138q13 73 57 109t109 36z" />
    <glyph glyph-name="g" unicode="g" horiz-adv-x="632" 
d="M511 478h77l-79 -451q-20 -107 -89 -162q-71 -56 -170 -56q-70 0 -133 29q-59 29 -101 83l51 48q68 -89 183 -89q71 0 121 38q48 36 62 112l7 37q-68 -66 -172 -66q-96 0 -157 64q-62 65 -62 156q0 65 31 126q30 60 92 101t142 41q65 0 112 -26q46 -25 71 -67zM288 72
q87 0 136 60q50 61 50 135q0 69 -45 110q-46 41 -111 41q-79 0 -135 -56q-55 -56 -55 -133q0 -66 44 -112q43 -45 116 -45z" />
    <glyph glyph-name="h" unicode="h" horiz-adv-x="566" 
d="M335 489q74 0 121 -44q45 -45 45 -116q0 -21 -6 -54l-48 -275h-77l49 277q5 30 5 41q0 48 -29 75q-29 26 -78 26q-54 0 -94 -32q-39 -30 -50 -88l-52 -299h-77l131 750h77l-55 -314q59 53 138 53z" />
    <glyph glyph-name="i" unicode="i" horiz-adv-x="246" 
d="M200 729q25 0 41 -16q17 -17 17 -40t-17 -40q-16 -16 -41 -16q-24 0 -40 16q-17 17 -17 40t17 40q16 16 40 16zM204 478l-84 -478h-77l84 478h77z" />
    <glyph glyph-name="j" unicode="j" horiz-adv-x="247" 
d="M200 729q25 0 41 -16q17 -17 17 -40t-17 -40q-16 -16 -41 -16q-24 0 -40 16q-17 17 -17 40t17 40q16 16 40 16zM205 478l-93 -524q-12 -73 -55 -109t-108 -36q-38 0 -77 14l11 62q29 -6 56 -6q83 0 98 86l91 513h77z" />
    <glyph glyph-name="k" unicode="k" horiz-adv-x="506" 
d="M175 750h77l-132 -750h-77zM516 478l-249 -216l184 -262h-91l-182 270l232 208h106z" />
    <glyph glyph-name="l" unicode="l" horiz-adv-x="246" 
d="M252 750l-132 -750h-77l132 750h77z" />
    <glyph glyph-name="m" unicode="m" horiz-adv-x="874" 
d="M643 489q75 0 121 -44q45 -45 45 -116q0 -21 -6 -54l-48 -275h-77l49 277q5 30 5 41q0 48 -28 75q-28 26 -75 26q-51 0 -91 -32q-37 -31 -48 -88l-52 -299h-77l49 277q5 30 5 41q0 47 -28 74q-29 27 -75 27q-51 0 -91 -32q-37 -31 -48 -88l-52 -299h-77l83 478h72l-8 -47
q58 58 140 58q103 0 143 -82q61 82 169 82z" />
    <glyph glyph-name="n" unicode="n" horiz-adv-x="566" 
d="M335 489q74 0 121 -44q45 -45 45 -116q0 -21 -6 -54l-48 -275h-77l49 277q5 30 5 41q0 48 -29 75q-29 26 -78 26q-54 0 -94 -32q-39 -30 -50 -88l-52 -299h-77l83 478h72l-8 -48q59 59 144 59z" />
    <glyph glyph-name="o" unicode="o" horiz-adv-x="611" 
d="M319 489q102 0 173 -68q70 -69 70 -170q0 -109 -81 -185q-82 -77 -191 -77q-102 0 -172 68q-69 67 -69 169q0 109 80 186t190 77zM316 418q-77 0 -133 -56q-55 -55 -55 -136q0 -73 46 -119q47 -47 119 -47q79 0 134 55q56 56 56 134q1 71 -47 121q-48 48 -120 48z" />
    <glyph glyph-name="p" unicode="p" horiz-adv-x="632" 
d="M364 489q97 0 158 -67t61 -163q0 -104 -71 -187q-72 -83 -190 -83q-67 0 -115 27q-47 28 -73 72l-46 -268h-77l116 658h72l-12 -69q31 39 78 60q48 20 99 20zM317 60q79 0 133 58q54 57 54 134q0 68 -44 118q-45 48 -118 48q-86 0 -135 -64t-49 -140q0 -70 46 -112
t113 -42z" />
    <glyph glyph-name="q" unicode="q" horiz-adv-x="630" 
d="M510 478h77l-116 -658h-77l44 238q-68 -69 -171 -69q-95 0 -158 68q-61 67 -61 162q0 105 72 187q71 83 190 83q64 0 113 -26q48 -28 73 -69zM288 60q86 0 135 64q49 62 49 139q0 72 -45 114q-46 41 -112 41q-79 0 -133 -58q-55 -58 -55 -136q0 -69 44 -116
q43 -48 117 -48z" />
    <glyph glyph-name="r" unicode="r" horiz-adv-x="362" 
d="M334 484q27 0 51 -8l-12 -66q-21 4 -44 4q-57 0 -103 -35q-46 -36 -58 -102l-48 -277h-77l84 478h72l-9 -53q59 59 144 59z" />
    <glyph glyph-name="s" unicode="s" horiz-adv-x="456" 
d="M255 489q107 0 164 -85l-54 -44q-45 58 -116 58q-36 0 -59 -14q-23 -15 -23 -44q0 -21 15 -36q14 -14 52 -34l42 -22q61 -31 88 -60q26 -31 26 -76q0 -69 -51 -106q-53 -38 -125 -38q-124 0 -192 107l56 46q32 -41 62 -61q30 -21 74 -21q41 0 69 19q28 18 28 50
q0 17 -11 31q-12 15 -23 22q-31 17 -42 23l-44 22q-51 26 -77 57q-26 29 -26 72q0 63 48 99q49 35 119 35z" />
    <glyph glyph-name="t" unicode="t" horiz-adv-x="379" 
d="M213 409l-45 -250q-3 -15 -3 -27q0 -41 29 -58q28 -16 80 -16q3 0 9 0.5t17 1t20 0.5l-12 -66q-32 -5 -56 -5q-71 0 -117 31q-47 30 -47 101q0 22 4 39l44 249h-81l10 69h83l25 142h77l-25 -142h152l-12 -69h-152z" />
    <glyph glyph-name="u" unicode="u" horiz-adv-x="559" 
d="M523 478l-53 -306q-16 -87 -75 -135t-138 -48q-83 0 -135 49q-53 50 -53 128q0 25 4 42l47 270h77l-50 -280q-2 -26 -2 -29q0 -49 34 -79q33 -30 83 -30q47 0 85 29q37 31 47 85l52 304h77z" />
    <glyph glyph-name="v" unicode="v" horiz-adv-x="536" 
d="M457 478h88l-315 -489h-28l-143 489h77l99 -357z" />
    <glyph glyph-name="w" unicode="w" horiz-adv-x="849" 
d="M771 478h86l-291 -489h-28l-100 358l-230 -358h-28l-121 489h78l79 -353l228 363h29l99 -360z" />
    <glyph glyph-name="x" unicode="x" horiz-adv-x="495" 
d="M503 478l-208 -230l138 -248h-88l-105 197l-168 -197h-95l226 255l-126 223h88l93 -171l151 171h94z" />
    <glyph glyph-name="y" unicode="y" horiz-adv-x="576" 
d="M457 478h77l-83 -474q-16 -92 -77 -144q-62 -51 -145 -51q-62 0 -118 29q-53 29 -89 83l50 49q64 -90 157 -90q54 0 95 32q39 32 50 95l8 46q-56 -51 -137 -51q-74 0 -120 44q-46 43 -46 115q0 11 6 54l47 263h77l-48 -265q-5 -30 -5 -41q0 -47 29 -73q29 -27 79 -27
q53 0 94 32q38 31 49 87z" />
    <glyph glyph-name="z" unicode="z" horiz-adv-x="454" 
d="M465 478l-4 -23l-339 -387h275l-12 -68h-400l4 23l338 386h-247l11 69h374z" />
    <glyph glyph-name="braceleft" unicode="{" horiz-adv-x="396" 
d="M371 729h60l-11 -68h-50q-58 0 -77 -33q-20 -35 -20 -101v-102q0 -58 -19 -89q-18 -32 -62 -41q47 -11 47 -61q0 -31 -32 -119t-32 -121q0 -57 68 -57h49l-12 -68h-59q-54 0 -88 28t-34 82q0 43 32 131q32 87 32 113q0 41 -52 41h-59l11 68h59q44 0 60 22q17 22 17 71
v109q0 94 40 144q39 51 132 51z" />
    <glyph glyph-name="bar" unicode="|" horiz-adv-x="332" 
d="M215 780v-901h-66v901h66z" />
    <glyph glyph-name="braceright" unicode="}" horiz-adv-x="397" 
d="M306 333h59l-12 -68h-58q-43 0 -60 -21q-17 -22 -17 -71v-109q0 -93 -39 -144q-41 -51 -133 -51h-61l12 68h50q59 0 78 33q19 34 19 101v102q0 58 19 89q18 32 62 41q-47 11 -47 61q0 31 32 119t32 121q0 57 -69 57h-48l11 68h60q54 0 88 -28t34 -82q0 -43 -32 -130
q-32 -88 -32 -114q0 -42 52 -42z" />
    <glyph glyph-name="asciitilde" unicode="~" 
d="M172 408q39 0 91 -34l82 -55q41 -27 61 -27q35 0 46 59h63q-3 -60 -30 -97q-26 -38 -74 -38q-39 0 -91 34l-82 55q-41 27 -61 27q-35 0 -46 -59h-63q3 61 30 98q25 37 74 37z" />
    <glyph glyph-name="cent" unicode="&#xa2;" horiz-adv-x="556" 
d="M304 145q87 5 144 73l51 -45q-78 -99 -205 -99h-2l-29 -168h-77l31 179q-74 22 -121 84q-46 61 -46 144q0 106 74 183q74 76 180 84l30 170h77l-31 -175q104 -23 150 -110l-58 -39q-40 62 -105 78zM129 316q0 -56 28 -97q27 -42 73 -61l61 349q-68 -10 -115 -65
q-47 -53 -47 -126z" />
    <glyph glyph-name="sterling" unicode="&#xa3;" horiz-adv-x="528" 
d="M343 600q-61 0 -93 -42q-32 -43 -32 -94q0 -25 7 -47q4 -16 17 -55q11 -33 15 -49h158l-12 -68h-137l1 -1q0 -110 -85 -176h268l-11 -68h-424l2 21q171 87 171 220v4h-123l11 68h101q-1 2 -3.5 10.5t-5.5 18t-7 19.5q-13 36 -17 61q-6 26 -6 51q0 79 54 139q54 59 149 59
q75 0 129 -42q54 -44 66 -139l-72 -18q-8 62 -39 95q-32 33 -82 33z" />
    <glyph glyph-name="currency" unicode="&#xa4;" horiz-adv-x="667" 
d="M602 342q0 -100 -69 -177l96 -107l-49 -45l-97 108q-65 -44 -146 -44q-93 0 -160 55l-121 -119l-45 49l121 118q-43 61 -43 138q0 98 69 178l-89 102l48 45l91 -104q65 44 145 44q93 0 163 -57l126 117l45 -49l-126 -117q41 -62 41 -135zM336 148q77 0 133 56
q54 56 54 135q0 75 -48 124q-49 49 -121 49q-78 0 -132 -55t-54 -135q0 -74 48 -124t120 -50z" />
    <glyph glyph-name="yen" unicode="&#xa5;" horiz-adv-x="553" 
d="M619 660l-264 -300h178l-12 -68h-196l-16 -92h196l-12 -69h-196l-23 -131h-78l23 131h-193l12 69h193l16 92h-193l12 68h175l-158 300h81l138 -260l226 260h91z" />
    <glyph glyph-name="brokenbar" unicode="&#xa6;" horiz-adv-x="332" 
d="M215 780v-300h-66v300h66zM215 179v-300h-66v300h66z" />
    <glyph glyph-name="section" unicode="&#xa7;" horiz-adv-x="565" 
d="M420 354q98 -84 98 -158q0 -52 -37 -92q-37 -42 -105 -54q3 -12 3 -25q0 -59 -45 -102q-46 -44 -120 -44q-60 0 -101 29q-42 28 -64 73l55 41q41 -72 112 -72q36 0 60 21t24 54q0 42 -61 97l-82 75q-98 86 -98 158q0 53 37 94q39 42 105 52q-2 12 -2 26q0 59 45 103
q44 43 120 43q58 0 101 -29q40 -27 64 -73l-56 -41q-41 72 -111 72q-38 0 -60 -21q-24 -21 -24 -54q0 -43 60 -97zM356 104q36 7 60 31q23 23 23 56q0 25 -15 47q-16 24 -52 57l-90 82q-39 36 -60 71q-38 -9 -60 -31q-24 -23 -24 -56q0 -24 16 -46q18 -26 52 -58l89 -83
q39 -34 61 -70z" />
    <glyph glyph-name="dieresis" unicode="&#xa8;" horiz-adv-x="393" 
d="M162 726q22 0 39 -15q16 -16 16 -38t-16 -37q-16 -16 -39 -16q-22 0 -38 16q-17 15 -17 37q0 21 17 38q17 15 38 15zM384 726q22 0 39 -15q16 -16 16 -38t-16 -37q-16 -16 -39 -16q-22 0 -38 16q-17 15 -17 37q0 21 17 38q17 15 38 15z" />
    <glyph glyph-name="copyright" unicode="&#xa9;" horiz-adv-x="791" 
d="M428 671q135 0 232 -95q95 -95 95 -231q0 -146 -107 -251q-108 -105 -253 -105q-137 0 -232 96q-95 95 -95 231q0 146 108 251q107 104 252 104zM426 616q-120 0 -209 -87q-89 -89 -89 -213q0 -114 77 -193q76 -79 192 -79q125 0 212 91q86 91 86 211q0 113 -77 192
q-78 78 -192 78zM425 521q99 0 152 -84l-55 -40q-38 60 -102 60q-53 0 -89 -39t-36 -94q0 -51 31 -85q32 -35 82 -35q58 0 100 49l47 -43q-61 -70 -151 -70q-78 0 -130 52t-52 129q0 83 60 142q59 58 143 58z" />
    <glyph glyph-name="guillemotleft" unicode="&#xab;" horiz-adv-x="503" 
d="M495 423l-168 -156l113 -155l-55 -41l-146 188l4 23l207 189zM298 423l-169 -156l113 -155l-55 -41l-146 188l4 23l208 189z" />
    <glyph glyph-name="logicalnot" unicode="&#xac;" 
d="M492 349l-44 -253h-78l33 185h-339l11 68h417z" />
    <glyph glyph-name="uni00AD" unicode="&#xad;" horiz-adv-x="340" 
d="M307 347l-12 -65h-234l12 65h234z" />
    <glyph glyph-name="registered" unicode="&#xae;" horiz-adv-x="584" 
d="M337 675q100 0 169 -69t69 -169q0 -105 -78 -181q-79 -77 -183 -77q-100 0 -169 69q-70 69 -70 168q0 106 78 183q77 76 184 76zM316 229q88 0 148 63q59 62 59 146q0 79 -54 133q-52 54 -133 54q-86 0 -148 -60q-61 -61 -61 -148q0 -81 53 -134q54 -54 136 -54zM434 481
q0 -55 -56 -78l55 -94h-65l-48 84h-36l-15 -84h-58l44 251h96q37 0 60 -23t23 -56zM304 509l-12 -66h37q46 0 46 36q0 13 -9 22q-11 8 -25 8h-37z" />
    <glyph glyph-name="degree" unicode="&#xb0;" horiz-adv-x="359" 
d="M234 670q61 0 103 -42q42 -40 42 -100q0 -62 -45 -107q-47 -44 -110 -44q-61 0 -102 41q-42 42 -42 102q0 62 45 106q46 44 109 44zM234 609q-38 0 -64 -26q-25 -25 -25 -62q0 -34 23 -59q23 -24 59 -24t62 26q25 25 25 63q0 36 -22 58q-22 24 -58 24z" />
    <glyph glyph-name="plusminus" unicode="&#xb1;" 
d="M371 536l-27 -158h174l-12 -68h-175l-28 -160h-77l28 160h-176l13 68h176l27 158h77zM463 68l-11 -68h-428l12 68h427z" />
    <glyph glyph-name="uni00B2" unicode="&#xb2;" horiz-adv-x="369" 
d="M269 488l-78 -64h169l-11 -60h-292l3 15l175 153q85 73 85 128q0 30 -18 48t-50 18q-37 0 -55 -25q-19 -25 -19 -63v-12h-66v16q0 59 37 102t106 43q61 0 96 -35t35 -88q0 -44 -27 -84q-27 -38 -90 -92z" />
    <glyph glyph-name="uni00B3" unicode="&#xb3;" horiz-adv-x="354" 
d="M398 780l-3 -19l-124 -138q37 -11 63 -42q25 -31 25 -76q0 -57 -41 -103q-42 -45 -115 -45q-58 0 -93 29q-36 29 -51 73l52 28q30 -69 92 -69q44 0 66 25q23 26 23 59q0 32 -23 52q-23 18 -66 18h-38l3 19l115 129h-151l11 60h255z" />
    <glyph glyph-name="uni00B5" unicode="&#xb5;" horiz-adv-x="592" 
d="M514 57q21 0 26 1l-12 -64q-17 -4 -38 -4q-73 0 -94 58q-56 -59 -140 -59q-89 0 -128 63l-40 -232h-77l116 658h77l-48 -275q-5 -28 -5 -39q0 -48 30 -76q31 -29 80 -29q51 0 91 32q38 31 48 87l53 300h77l-59 -334q-5 -37 -5 -41q0 -46 48 -46z" />
    <glyph glyph-name="paragraph" unicode="&#xb6;" horiz-adv-x="629" 
d="M351 660v-424h-60q-102 0 -170 59q-67 58 -67 154t67 154q66 57 170 57h60zM488 660v-685q0 -85 -44 -126q-43 -40 -122 -40q-33 0 -79 11v66q49 -6 65 -6q51 0 77 22q26 23 26 79v679h77z" />
    <glyph glyph-name="periodcentered" unicode="&#xb7;" horiz-adv-x="270" 
d="M148 377q26 0 44 -18q19 -18 19 -45q0 -29 -19 -45q-18 -18 -44 -18t-44 18q-19 16 -19 45q0 27 19 45q18 18 44 18z" />
    <glyph glyph-name="uni00B9" unicode="&#xb9;" horiz-adv-x="352" 
d="M312 780l-63 -356h90l-10 -60h-261l11 60h103l53 296h-99l11 60h165z" />
    <glyph glyph-name="guillemotright" unicode="&#xbb;" horiz-adv-x="503" 
d="M326 471l145 -188l-4 -24l-207 -188l-45 47l169 157l-114 155zM274 283l-3 -24l-208 -188l-45 47l169 157l-114 155l56 41z" />
    <glyph glyph-name="onequarter" unicode="&#xbc;" horiz-adv-x="903" 
d="M318 304l-10 -60h-261l11 60h103l53 296h-99l11 60h165l-63 -356h90zM709 660h68l-495 -660h-67zM866 130l-11 -57h-54l-12 -73h-63l13 73h-207l3 19l179 324h73l-159 -286h121l22 127h62l-22 -127h55z" />
    <glyph glyph-name="onehalf" unicode="&#xbd;" horiz-adv-x="941" 
d="M318 304l-10 -60h-261l11 60h103l53 296h-99l11 60h165l-63 -356h90zM709 660h68l-495 -660h-67zM777 124l-78 -64h169l-11 -60h-292l3 15l175 153q85 73 85 128q0 30 -18 48t-50 18q-37 0 -55 -25q-19 -25 -19 -63v-12h-66v16q0 59 37 102t106 43q61 0 96 -35t35 -88
q0 -44 -27 -84q-27 -38 -90 -92z" />
    <glyph glyph-name="threequarters" unicode="&#xbe;" horiz-adv-x="870" 
d="M337 385q0 -57 -41 -103q-42 -45 -115 -45q-58 0 -93 29q-36 29 -51 73l52 28q30 -69 92 -69q44 0 66 25q23 26 23 59q0 32 -23 52q-23 18 -66 18h-37h-1l3 19l116 129h-152l11 60h255l-3 -19l-124 -138q37 -11 63 -42q25 -31 25 -76zM676 660h68l-495 -660h-67zM834 130
l-11 -57h-54l-12 -73h-63l13 73h-207l3 19l179 324h73l-159 -286h121l22 127h62l-22 -127h55z" />
    <glyph glyph-name="multiply" unicode="&#xd7;" 
d="M166 525l133 -163l179 146l41 -51l-180 -146l132 -165l-51 -41l-133 163l-180 -147l-41 51l180 148l-132 163z" />
    <glyph glyph-name="divide" unicode="&#xf7;" 
d="M326 545q22 0 39 -15q16 -16 16 -39q0 -22 -16 -38q-17 -15 -39 -15t-39 15q-16 16 -16 38q0 23 16 39q17 15 39 15zM522 349l-11 -68h-446l11 68h446zM263 188q23 0 39 -15t16 -38q0 -22 -16 -37q-16 -16 -39 -16t-39 16q-16 15 -16 37q0 23 16 38t39 15z" />
    <glyph glyph-name="florin" unicode="&#x192;" horiz-adv-x="443" 
d="M438 671q36 0 73 -12l-11 -62q-24 4 -52 4q-42 0 -67 -18q-27 -18 -42 -66l-36 -118h106l-13 -69h-113l-97 -321q-43 -142 -172 -142q-37 0 -73 11l11 63q37 -5 55 -5q81 0 106 85l93 309h-78l13 69h86l39 130q43 142 172 142z" />
    <glyph glyph-name="uni030C" unicode="&#x30c;" horiz-adv-x="0" 
d="M60 750l-76 -207h-57l50 207h83z" />
    <glyph glyph-name="dieresistonos" unicode="&#x385;" horiz-adv-x="495" 
d="M393 780l-2 -14l-68 -200h-57l37 214h90zM172 726q22 0 39 -15q16 -16 16 -38t-16 -37q-16 -16 -39 -16q-22 0 -38 16q-17 15 -17 37q0 21 17 38q16 15 38 15zM476 726q22 0 39 -15q16 -16 16 -38t-16 -37q-16 -16 -39 -16q-22 0 -38 16q-17 15 -17 37q0 21 17 38
q16 15 38 15z" />
    <glyph glyph-name="Alphatonos" unicode="&#x386;" horiz-adv-x="663" 
d="M210 720l-76 -207h-57l50 207h83zM514 0l-34 134h-320l-80 -134h-88l404 671h28l169 -671h-79zM463 204l-75 321l-187 -321h262z" />
    <glyph glyph-name="Epsilontonos" unicode="&#x388;" horiz-adv-x="567" 
d="M94 720l-76 -207h-57l50 207h83zM588 660l-13 -70h-345l-37 -202h265l-12 -70h-264l-43 -248h357l-12 -70h-435l116 660h423z" />
    <glyph glyph-name="Etatonos" unicode="&#x389;" horiz-adv-x="708" 
d="M94 720l-76 -207h-57l50 207h83zM691 660l-116 -660h-78l56 318h-371l-55 -318h-78l116 660h78l-48 -272h371l47 272h78z" />
    <glyph glyph-name="Iotatonos" unicode="&#x38a;" horiz-adv-x="259" 
d="M94 720l-76 -207h-57l50 207h83zM243 660l-116 -660h-78l116 660h78z" />
    <glyph glyph-name="Omicrontonos" unicode="&#x38c;" horiz-adv-x="782" 
d="M131 720l-76 -207h-57l50 207h83zM434 671q136 0 225 -90q89 -92 89 -226q0 -152 -109 -258q-109 -108 -259 -108q-137 0 -225 91q-89 91 -89 225q0 153 109 259q109 107 259 107zM428 599q-118 0 -200 -85t-82 -205q0 -107 67 -177q68 -71 171 -71q117 0 200 86t83 206
q0 106 -67 176t-172 70z" />
    <glyph glyph-name="Upsilontonos" unicode="&#x38e;" horiz-adv-x="616" 
d="M-89 513l50 207h83l-76 -207h-57zM645 660l-298 -389l-47 -271h-78l48 275l-161 385h81l128 -312l235 312h92z" />
    <glyph glyph-name="Omegatonos" unicode="&#x38f;" horiz-adv-x="791" 
d="M132 720l-76 -207h-57l50 207h83zM757 363q0 -188 -180 -293h121l-12 -70h-261l12 71q126 50 182 125q57 76 57 165q0 105 -69 172q-71 66 -181 66q-66 0 -123 -26q-55 -27 -87 -69q-34 -47 -49 -91q-17 -49 -17 -96q0 -80 43 -141q43 -63 117 -105l-13 -71h-275l13 70
h164q-60 48 -94 111q-36 65 -36 138q0 46 13 91q12 47 41 94q30 49 68 84q41 38 101 60q61 23 131 23q144 0 239 -86q95 -87 95 -222z" />
    <glyph glyph-name="iotadieresistonos" unicode="&#x390;" horiz-adv-x="284" 
d="M272 780l-2 -14l-68 -200h-57l37 214h90zM51 726q23 0 39 -15q16 -16 16 -38t-16 -37q-16 -16 -39 -16q-22 0 -38 16q-17 15 -17 37q0 21 17 38q17 15 38 15zM355 726q23 0 39 -15q16 -16 16 -38t-16 -37q-16 -16 -39 -16q-22 0 -38 16q-17 15 -17 37q0 21 17 38
q17 15 38 15zM201 478l-59 -330q-4 -23 -4 -37q0 -54 66 -54h12q4 1 11 1h5l-12 -64q-21 -4 -43 -4q-48 0 -83 26t-35 80q0 14 5 49l60 333h77z" />
    <glyph glyph-name="Alpha" unicode="&#x391;" horiz-adv-x="663" 
d="M514 0l-34 134h-320l-80 -134h-88l404 671h28l169 -671h-79zM463 204l-75 321l-187 -321h262z" />
    <glyph glyph-name="Beta" unicode="&#x392;" horiz-adv-x="615" 
d="M463 354q47 -22 72 -63q26 -43 26 -95q0 -86 -64 -141t-169 -55h-279l116 660h207q84 0 130 -43q47 -44 47 -114q0 -101 -86 -149zM358 590h-128l-36 -205h148q58 0 93 32q33 31 33 81q0 43 -28 68q-28 24 -82 24zM324 70q72 0 115 35q41 35 41 93q0 51 -33 84
q-35 32 -94 32h-171l-43 -244h185z" />
    <glyph glyph-name="Gamma" unicode="&#x393;" horiz-adv-x="507" 
d="M556 660l-11 -70h-315l-103 -590h-78l116 660h391z" />
    <glyph glyph-name="Delta" unicode="&#x394;" horiz-adv-x="663" 
d="M424 671l169 -671h-601l403 671h29zM496 70l-109 450l-266 -450h375z" />
    <glyph glyph-name="Epsilon" unicode="&#x395;" horiz-adv-x="567" 
d="M588 660l-13 -70h-345l-37 -202h265l-12 -70h-264l-43 -248h357l-12 -70h-435l116 660h423z" />
    <glyph glyph-name="Zeta" unicode="&#x396;" horiz-adv-x="589" 
d="M628 660l-5 -23l-493 -567h395l-12 -70h-524l4 23l492 567h-347l11 70h479z" />
    <glyph glyph-name="Eta" unicode="&#x397;" horiz-adv-x="708" 
d="M691 660l-116 -660h-78l56 318h-371l-55 -318h-78l116 660h78l-48 -272h371l47 272h78z" />
    <glyph glyph-name="Theta" unicode="&#x398;" horiz-adv-x="782" 
d="M434 671q136 0 225 -90q89 -92 89 -226q0 -152 -109 -258q-109 -108 -259 -108q-137 0 -225 91q-89 91 -89 225q0 153 109 259q109 107 259 107zM428 599q-118 0 -200 -85t-82 -206q0 -107 67 -177t171 -70q117 0 200 86q82 85 82 207q0 106 -66 176q-68 69 -172 69z
M550 372l-11 -68h-275l11 68h275z" />
    <glyph glyph-name="Iota" unicode="&#x399;" horiz-adv-x="259" 
d="M243 660l-116 -660h-78l116 660h78z" />
    <glyph glyph-name="Kappa" unicode="&#x39a;" horiz-adv-x="631" 
d="M165 660h78l-116 -660h-78zM651 660l-354 -314l265 -346h-93l-271 354l344 306h109z" />
    <glyph glyph-name="Lambda" unicode="&#x39b;" horiz-adv-x="663" 
d="M593 0h-80l-128 521l-306 -521h-87l403 671h29z" />
    <glyph glyph-name="Mu" unicode="&#x39c;" horiz-adv-x="789" 
d="M746 671h28l-118 -671h-78l83 470l-256 -283h-28l-165 298l-85 -485h-78l118 671h28l208 -382l341 379z" />
    <glyph glyph-name="Nu" unicode="&#x39d;" horiz-adv-x="708" 
d="M613 660h78l-118 -671h-28l-330 515l-88 -504h-78l118 671h28l330 -516z" />
    <glyph glyph-name="Xi" unicode="&#x39e;" horiz-adv-x="547" 
d="M579 660l-11 -70h-466l13 70h464zM520 387l-12 -68h-442l12 68h442zM476 70l-12 -70h-465l12 70h465z" />
    <glyph glyph-name="Omicron" unicode="&#x39f;" horiz-adv-x="782" 
d="M434 671q136 0 225 -90q89 -92 89 -226q0 -152 -109 -258q-109 -108 -259 -108q-137 0 -225 91q-89 91 -89 225q0 153 109 259q109 107 259 107zM428 599q-118 0 -200 -85t-82 -205q0 -107 67 -177q68 -71 171 -71q117 0 200 86t83 206q0 106 -67 176t-172 70z" />
    <glyph glyph-name="Pi" unicode="&#x3a0;" horiz-adv-x="681" 
d="M664 660l-116 -660h-78l104 590h-344l-103 -590h-78l116 660h499z" />
    <glyph glyph-name="Rho" unicode="&#x3a1;" horiz-adv-x="577" 
d="M374 660q99 0 151 -49q53 -50 53 -129q0 -91 -66 -148q-65 -58 -176 -58h-161l-48 -276h-78l116 660h209zM345 346q75 0 113 37q39 37 39 96q0 52 -32 82q-32 29 -95 29h-140l-43 -244h158z" />
    <glyph glyph-name="Sigma" unicode="&#x3a3;" horiz-adv-x="552" 
d="M573 660l-13 -70h-328l146 -241l-4 -20l-226 -259h332l-11 -70h-468l3 20l286 328l-177 292l4 20h456z" />
    <glyph glyph-name="Tau" unicode="&#x3a4;" horiz-adv-x="587" 
d="M639 660l-13 -70h-232l-104 -590h-78l104 590h-232l12 70h543z" />
    <glyph glyph-name="Upsilon" unicode="&#x3a5;" horiz-adv-x="616" 
d="M645 660l-298 -389l-47 -271h-78l48 275l-161 385h81l128 -312l235 312h92z" />
    <glyph glyph-name="Phi" unicode="&#x3a6;" horiz-adv-x="802" 
d="M505 604q115 -6 188 -73q75 -67 75 -178q0 -125 -96 -208q-95 -83 -253 -83h-9l-17 -93h-78l17 94q-113 4 -191 73q-75 67 -75 178q0 126 96 208q95 83 253 83h12l15 86h78zM344 133l71 401h-10q-113 0 -186 -58q-72 -58 -72 -157q0 -85 55 -133q54 -48 142 -53zM429 133
q114 0 185 58q73 58 73 157q0 84 -54 132q-54 49 -140 54l-71 -401h7z" />
    <glyph glyph-name="Chi" unicode="&#x3a7;" horiz-adv-x="592" 
d="M624 660l-264 -329l164 -331h-84l-134 274l-224 -274h-97l285 345l-153 315h83l123 -260l204 260h97z" />
    <glyph glyph-name="Psi" unicode="&#x3a8;" horiz-adv-x="810" 
d="M811 660l-45 -258q-45 -250 -337 -250l-27 -152h-78l27 152q-115 0 -182 57q-68 57 -68 159q0 24 5 56l41 236h78l-41 -235q-4 -21 -4 -48q0 -76 49 -115q47 -40 133 -40l82 459h78l-81 -459q215 0 248 189l44 249h78z" />
    <glyph glyph-name="Omega" unicode="&#x3a9;" horiz-adv-x="791" 
d="M757 363q0 -188 -180 -293h121l-12 -70h-261l12 71q126 50 182 125q57 76 57 165q0 105 -69 172q-71 66 -181 66q-66 0 -123 -26q-55 -27 -87 -69q-34 -47 -49 -91q-17 -49 -17 -96q0 -80 43 -141q43 -63 117 -105l-13 -71h-275l13 70h164q-60 48 -94 111q-36 65 -36 138
q0 46 13 91q12 47 41 94q30 49 68 84q41 38 101 60q61 23 131 23q144 0 239 -86q95 -87 95 -222z" />
    <glyph glyph-name="Iotadieresis" unicode="&#x3aa;" horiz-adv-x="259" 
d="M113 863q23 0 39 -15q16 -16 16 -38t-16 -37q-16 -16 -39 -16q-22 0 -38 16q-17 15 -17 37q0 21 17 38q16 15 38 15zM346 863q23 0 39 -16t16 -38t-16 -37q-16 -16 -39 -16t-39 16q-17 15 -17 37q0 21 17 38q16 16 39 16zM243 660l-116 -660h-78l116 660h78z" />
    <glyph glyph-name="Upsilondieresis" unicode="&#x3ab;" horiz-adv-x="616" 
d="M267 757q-22 0 -38 16q-17 15 -17 37q0 21 17 38q17 15 38 15q23 0 39 -15q16 -16 16 -38t-16 -37q-16 -16 -39 -16zM500 756q-23 0 -39 16q-17 15 -17 37q0 21 17 38q16 16 39 16t39 -16t16 -38t-16 -37q-16 -16 -39 -16zM645 660l-298 -389l-47 -271h-78l48 275
l-161 385h81l128 -312l235 312h92z" />
    <glyph glyph-name="alphatonos" unicode="&#x3ac;" horiz-adv-x="650" 
d="M459 766l-68 -200h-60l37 214h93zM571 57q22 0 27 1l-12 -64q-17 -4 -40 -4q-80 0 -97 72q-67 -73 -178 -73q-100 0 -161 67q-62 67 -62 161q0 104 71 189q71 83 190 83q69 0 119 -29q49 -28 73 -75q14 61 23 95h72q-30 -118 -49 -225l-18 -108q-6 -34 -6 -44
q0 -46 48 -46zM288 60q86 0 135 64q49 62 49 139q0 69 -44 113q-45 42 -112 42q-80 0 -134 -57q-55 -58 -55 -136q0 -68 44 -117q43 -48 117 -48z" />
    <glyph glyph-name="epsilontonos" unicode="&#x3ad;" horiz-adv-x="498" 
d="M394 766l-68 -200h-60l37 214h93zM242 60q51 0 84 15t64 46l41 -54q-77 -78 -196 -78q-84 0 -137 38t-53 103q0 46 28 80t77 49q-46 37 -46 97q0 59 49 96t133 37q130 0 186 -84l-52 -44q-42 57 -138 57q-99 0 -99 -66q0 -28 21 -47q19 -19 59 -19h91l-10 -68h-94
q-59 0 -94 -20q-33 -20 -33 -58t33 -59q32 -21 86 -21z" />
    <glyph glyph-name="etatonos" unicode="&#x3ae;" horiz-adv-x="585" 
d="M445 766l-68 -200h-60l37 214h93zM351 489q77 0 124 -44q45 -43 45 -116q0 -21 -6 -54l-80 -455h-77l80 452q6 32 6 48q0 46 -29 73q-29 26 -78 26q-54 0 -94 -32q-38 -31 -49 -88l-53 -299h-77l58 331q5 30 5 41q0 48 -48 48q-5 0 -27 -2l12 65q18 5 39 5q72 0 95 -60
q61 61 154 61z" />
    <glyph glyph-name="iotatonos" unicode="&#x3af;" horiz-adv-x="284" 
d="M270 780l-2 -14l-68 -200h-60l37 214h93zM201 478l-59 -330q-4 -23 -4 -37q0 -54 66 -54h12q4 1 11 1h5l-12 -64q-21 -4 -43 -4q-48 0 -83 26t-35 80q0 14 5 49l60 333h77z" />
    <glyph glyph-name="upsilondieresistonos" unicode="&#x3b0;" horiz-adv-x="553" 
d="M415 780l-2 -14l-68 -200h-57l37 214h90zM194 726q22 0 39 -15q16 -16 16 -38t-16 -37q-16 -16 -39 -16q-22 0 -38 16q-17 15 -17 37q0 21 17 38q16 15 38 15zM498 726q22 0 39 -15q16 -16 16 -38t-16 -37q-16 -16 -39 -16q-22 0 -38 16q-17 15 -17 37q0 21 17 38
q16 15 38 15zM482 478q15 -68 15 -147q0 -65 -12 -123q-14 -60 -40 -108q-27 -51 -75 -81q-50 -30 -114 -30q-85 0 -136 48t-51 125q0 27 4 46l47 270h77l-50 -280q-3 -16 -3 -30q0 -50 33 -78q33 -30 83 -30q45 0 76 25q33 27 49 68q18 46 25 89q8 50 8 98q0 66 -12 138h76
z" />
    <glyph glyph-name="alpha" unicode="&#x3b1;" horiz-adv-x="650" 
d="M571 57q22 0 27 1l-12 -64q-17 -4 -40 -4q-80 0 -97 72q-67 -73 -178 -73q-100 0 -161 67q-62 67 -62 161q0 104 71 189q71 83 190 83q69 0 119 -29q49 -28 73 -75q14 61 23 95h72q-30 -118 -49 -225l-18 -108q-6 -34 -6 -44q0 -46 48 -46zM288 60q86 0 135 64
q49 62 49 139q0 69 -44 113q-45 42 -112 42q-80 0 -134 -57q-55 -58 -55 -136q0 -68 44 -117q43 -48 117 -48z" />
    <glyph glyph-name="beta" unicode="&#x3b2;" horiz-adv-x="604" 
d="M437 419q115 -67 115 -182q0 -42 -15 -84t-44 -80q-29 -36 -80 -61q-52 -23 -115 -23q-42 0 -78 10q-38 11 -70 32q-32 22 -52 60q-19 37 -19 88q0 21 5 56l57 325q18 98 76 150q57 51 140 51q78 0 128 -43q51 -44 51 -121q0 -101 -99 -178zM218 558l-33 -187
q139 49 206 101q66 51 66 118q0 47 -29 74q-29 26 -76 26q-49 0 -86 -32q-36 -31 -48 -100zM298 60q88 0 131 54q44 55 44 119q0 89 -98 146q-79 -45 -204 -86l-10 -61q-5 -30 -5 -42q0 -65 39 -97q39 -33 103 -33z" />
    <glyph glyph-name="gamma" unicode="&#x3b3;" horiz-adv-x="535" 
d="M544 478l-281 -437l-38 -221h-77l39 221l-128 437h78l101 -359l220 359h86z" />
    <glyph glyph-name="delta" unicode="&#x3b4;" horiz-adv-x="611" 
d="M625 750l-12 -68h-323l197 -247q75 -93 75 -181q0 -105 -77 -185t-192 -80q-107 0 -174 69q-69 68 -69 169q0 109 80 186q79 76 187 76q5 0 31 -2l-192 240l4 23h465zM294 60q78 0 134 56q55 55 55 132q0 71 -47 121q-48 49 -121 49q-78 0 -132 -56t-54 -135
q0 -72 47 -119q47 -48 118 -48z" />
    <glyph glyph-name="epsilon" unicode="&#x3b5;" horiz-adv-x="498" 
d="M242 60q51 0 84 15t64 46l41 -54q-77 -78 -196 -78q-84 0 -137 38t-53 103q0 46 28 80t77 49q-46 37 -46 97q0 59 49 96t133 37q130 0 186 -84l-52 -44q-42 57 -138 57q-99 0 -99 -66q0 -28 21 -47q19 -19 59 -19h91l-10 -68h-94q-59 0 -94 -20q-33 -20 -33 -58t33 -59
q32 -21 86 -21z" />
    <glyph glyph-name="zeta" unicode="&#x3b6;" horiz-adv-x="506" 
d="M566 727l-340 -342q-58 -58 -80 -96q-23 -41 -23 -79q0 -44 29 -76q28 -31 90 -52l67 -24q124 -40 124 -129q0 -47 -36 -109h-76q33 60 33 93q0 54 -82 81l-71 24q-157 55 -157 182q0 54 30 108t99 123l249 251h-259l12 68h395z" />
    <glyph glyph-name="eta" unicode="&#x3b7;" horiz-adv-x="585" 
d="M351 489q77 0 124 -44q45 -43 45 -116q0 -21 -6 -54l-80 -455h-77l80 452q6 32 6 48q0 46 -29 73q-29 26 -78 26q-54 0 -94 -32q-38 -31 -49 -88l-53 -299h-77l58 331q5 30 5 41q0 48 -48 48q-5 0 -27 -2l12 65q18 5 39 5q72 0 95 -60q61 61 154 61z" />
    <glyph glyph-name="theta" unicode="&#x3b8;" horiz-adv-x="617" 
d="M376 761q95 0 150 -64q56 -65 56 -203q0 -76 -16 -156q-17 -84 -49 -163q-34 -82 -94 -134q-61 -52 -141 -52q-34 0 -69 11q-33 12 -65 38t-51 78q-19 51 -19 124q0 43 11 117h77q-10 -67 -10 -109q0 -91 34 -140q33 -48 93 -48q72 0 120 64t73 164q-152 62 -225 128
q-76 67 -76 153q0 76 52 134q51 58 149 58zM254 575q0 -65 60 -115q56 -46 178 -97q11 79 11 131q0 196 -129 196q-57 0 -88 -34q-32 -34 -32 -81z" />
    <glyph glyph-name="iota" unicode="&#x3b9;" horiz-adv-x="284" 
d="M201 478l-59 -330q-4 -23 -4 -37q0 -54 66 -54h12q4 1 11 1h5l-12 -64q-21 -4 -43 -4q-48 0 -83 26t-35 80q0 14 5 49l60 333h77z" />
    <glyph glyph-name="kappa" unicode="&#x3ba;" horiz-adv-x="506" 
d="M127 478h77l-84 -478h-77zM516 478l-250 -223l185 -255h-91l-183 262l233 216h106z" />
    <glyph glyph-name="lambda" unicode="&#x3bb;" horiz-adv-x="548" 
d="M488 58h14l-11 -63q-15 -4 -32 -4q-34 0 -59 22q-26 23 -33 71l-52 309l-244 -393h-88l312 494l-18 102q-17 95 -106 95h-32l12 66q21 4 43 4q130 0 156 -144l90 -509q4 -28 17 -39q11 -11 31 -11z" />
    <glyph glyph-name="mu" unicode="&#x3bc;" horiz-adv-x="592" 
d="M514 57q21 0 26 1l-12 -64q-17 -4 -38 -4q-73 0 -94 58q-56 -59 -140 -59q-89 0 -128 63l-40 -232h-77l116 658h77l-48 -275q-5 -28 -5 -39q0 -48 30 -76q31 -29 80 -29q51 0 91 32q38 31 48 87l53 300h77l-59 -334q-5 -37 -5 -41q0 -46 48 -46z" />
    <glyph glyph-name="nu" unicode="&#x3bd;" horiz-adv-x="536" 
d="M457 478h88l-315 -489h-28l-143 489h77l99 -357z" />
    <glyph glyph-name="xi" unicode="&#x3be;" horiz-adv-x="518" 
d="M373 761q138 0 192 -112l-60 -37q-42 79 -131 79q-60 0 -100 -37q-41 -38 -41 -95q0 -52 34 -85q33 -33 94 -33h87l-12 -69h-110q-94 0 -141 -47q-48 -47 -48 -111q0 -22 4 -37q5 -19 17 -31q3 -4 9.5 -11.5t9.5 -10.5q9 -9 30 -19q23 -12 30 -15q20 -8 38 -14
q9 -3 16.5 -6t12 -5t5.5 -2q71 -26 104 -53q34 -28 34 -81q0 -47 -36 -109h-76q33 58 33 93t-23 52q-19 14 -77 35q-26 9 -61 23q-18 7 -54 26q-34 19 -51 37q-19 23 -31 50q-13 30 -13 69q0 71 41 133q42 62 126 84q-71 53 -71 139q0 77 58 138q59 62 161 62z" />
    <glyph glyph-name="omicron" unicode="&#x3bf;" horiz-adv-x="611" 
d="M319 489q102 0 173 -68q70 -69 70 -170q0 -109 -81 -185q-82 -77 -191 -77q-102 0 -172 68q-69 67 -69 169q0 109 80 186t190 77zM316 418q-77 0 -133 -56q-55 -55 -55 -136q0 -73 46 -119q47 -47 119 -47q79 0 134 55q56 56 56 134q1 71 -47 121q-48 48 -120 48z" />
    <glyph glyph-name="pi" unicode="&#x3c0;" horiz-adv-x="582" 
d="M480 -10q-45 0 -73 25q-29 26 -29 69q0 24 6 59l47 266h-239l-72 -409h-77l84 478h393l-59 -334q-5 -37 -5 -41q0 -46 48 -46q21 0 26 1l-12 -64q-17 -4 -38 -4z" />
    <glyph glyph-name="rho" unicode="&#x3c1;" horiz-adv-x="619" 
d="M335 489q105 0 169 -67q66 -68 66 -165q0 -104 -70 -186t-187 -82q-67 0 -113 27q-48 27 -73 70l-46 -266h-77l76 432q19 111 89 175q68 62 166 62zM310 60q78 0 129 57q52 58 52 136q0 71 -43 117q-44 48 -116 48q-84 0 -132 -62q-47 -62 -47 -137q0 -71 45 -115
q46 -44 112 -44z" />
    <glyph glyph-name="uni03C2" unicode="&#x3c2;" horiz-adv-x="526" 
d="M305 -180q33 60 33 92q0 34 -22 52q-25 18 -74 35q-28 9 -54 20q-24 10 -50 28q-29 17 -46 39t-29 56q-13 33 -13 78q0 119 77 194t188 75q71 0 124 -31q54 -32 84 -84l-59 -39q-54 84 -151 84q-79 0 -131 -52q-53 -53 -53 -139q0 -40 12 -68q13 -30 37 -47
q25 -19 46 -28q16 -9 56 -22q32 -11 55 -21q19 -9 42 -24q21 -16 31 -37q9 -23 9 -51q0 -52 -36 -110h-76z" />
    <glyph glyph-name="sigma" unicode="&#x3c3;" horiz-adv-x="625" 
d="M653 478l-12 -68h-173q86 -54 86 -164q0 -106 -80 -181q-79 -76 -190 -76q-103 0 -169 66q-66 67 -66 166q0 109 81 183q80 74 204 74h319zM288 60q79 0 133 55t54 135q0 72 -45 115q-44 44 -115 44q-78 0 -133 -52q-54 -53 -54 -133q0 -70 45 -117q44 -47 115 -47z" />
    <glyph glyph-name="tau" unicode="&#x3c4;" horiz-adv-x="447" 
d="M254 409l-42 -237q-3 -20 -3 -32q0 -82 118 -82q5 0 61 2l-12 -65q-34 -6 -72 -6q-77 0 -125 33q-48 34 -48 107q0 24 4 44l42 236h-131l11 69h393l-12 -69h-184z" />
    <glyph glyph-name="upsilon" unicode="&#x3c5;" horiz-adv-x="553" 
d="M482 478q15 -68 15 -147q0 -65 -12 -123q-14 -60 -40 -108q-27 -51 -75 -81q-50 -30 -114 -30q-85 0 -136 48t-51 125q0 27 4 46l47 270h77l-50 -280q-3 -16 -3 -30q0 -50 33 -78q33 -30 83 -30q45 0 76 25q33 27 49 68q18 46 25 89q8 50 8 98q0 66 -12 138h76z" />
    <glyph glyph-name="phi" unicode="&#x3c6;" horiz-adv-x="734" 
d="M691 299q0 -55 -18 -108q-20 -55 -56 -99q-37 -45 -103 -74q-65 -27 -153 -29l-30 -169h-77l30 169q-99 1 -168 61q-68 60 -68 163q0 95 60 173q61 77 181 101l12 -69q-88 -22 -131 -76q-43 -53 -43 -122q0 -76 49 -118q50 -44 120 -45l45 257q17 90 65 133q50 42 118 42
q78 0 123 -50q44 -52 44 -140zM373 57q66 2 112 23q49 23 75 58q26 38 39 77t13 82q0 56 -23 88q-24 32 -69 32q-85 0 -103 -108z" />
    <glyph glyph-name="chi" unicode="&#x3c7;" horiz-adv-x="506" 
d="M353 -67q11 -31 24 -42q13 -10 38 -10h15l-11 -64q-12 -3 -31 -3q-39 0 -61 19q-24 19 -37 62l-63 196l-196 -271h-91l257 346l-66 204q-13 43 -55 43q-19 0 -25 -1l12 68q16 3 34 3q75 0 98 -74l55 -181l180 250h91l-240 -324z" />
    <glyph glyph-name="psi" unicode="&#x3c8;" horiz-adv-x="773" 
d="M501 660l-105 -600q128 0 187 81q58 80 58 206q0 51 -11 131h75q14 -78 14 -143q0 -52 -11 -104q-11 -51 -36 -94q-25 -44 -64 -77q-36 -32 -95 -52q-57 -19 -130 -19l-30 -169h-76l30 169q-100 0 -165 55q-67 55 -67 147q0 32 4 53l41 234h77l-42 -228q-4 -20 -4 -48
q0 -67 49 -104q49 -38 119 -38l106 600h76z" />
    <glyph glyph-name="omega" unicode="&#x3c9;" horiz-adv-x="837" 
d="M628 484q72 -26 116 -80q44 -55 44 -136q0 -66 -25 -126q-26 -62 -81 -107q-55 -46 -129 -46q-53 0 -93 21q-39 22 -62 60q-55 -81 -160 -81q-84 0 -139 54q-54 54 -54 152q0 101 62 184q63 81 190 105l10 -68q-92 -23 -137 -81q-46 -58 -46 -134q0 -69 34 -104
q34 -37 85 -37t85 34q33 32 44 92l31 179h77l-27 -156q-6 -35 -6 -49q0 -45 28 -73q27 -27 73 -27q75 0 118 64t43 139q0 110 -112 156z" />
    <glyph glyph-name="iotadieresis" unicode="&#x3ca;" horiz-adv-x="284" 
d="M98 727q22 0 39 -15q16 -16 16 -38t-16 -37q-16 -16 -39 -16q-22 0 -38 16q-17 15 -17 37q0 21 17 38q16 15 38 15zM284 727q22 0 39 -15q16 -16 16 -38t-16 -37q-16 -16 -39 -16t-39 16q-16 15 -16 37t16 38q17 15 39 15zM201 478l-59 -330q-4 -23 -4 -37q0 -54 66 -54
h12q4 1 11 1h5l-12 -64q-21 -4 -43 -4q-48 0 -83 26t-35 80q0 14 5 49l60 333h77z" />
    <glyph glyph-name="upsilondieresis" unicode="&#x3cb;" horiz-adv-x="553" 
d="M235 726q23 0 39 -15q16 -16 16 -38t-16 -37q-16 -16 -39 -16q-22 0 -38 16q-17 15 -17 37q0 21 17 38q17 15 38 15zM457 726q23 0 39 -15q16 -16 16 -38t-16 -37q-16 -16 -39 -16q-22 0 -38 16q-17 15 -17 37q0 21 17 38q17 15 38 15zM482 478q15 -68 15 -147
q0 -65 -12 -123q-14 -60 -40 -108q-27 -51 -75 -81q-50 -30 -114 -30q-85 0 -136 48t-51 125q0 27 4 46l47 270h77l-50 -280q-3 -16 -3 -30q0 -50 33 -78q33 -30 83 -30q45 0 76 25q33 27 49 68q18 46 25 89q8 50 8 98q0 66 -12 138h76z" />
    <glyph glyph-name="omicrontonos" unicode="&#x3cc;" horiz-adv-x="611" 
d="M450 780l-2 -14l-68 -200h-60l37 214h93zM319 489q102 0 173 -68q70 -69 70 -170q0 -109 -81 -185q-82 -77 -191 -77q-102 0 -172 68q-69 67 -69 169q0 109 80 186t190 77zM316 418q-77 0 -133 -56q-55 -55 -55 -136q0 -73 46 -119q47 -47 119 -47q79 0 134 55
q56 56 56 134q1 71 -47 121q-48 48 -120 48z" />
    <glyph glyph-name="upsilontonos" unicode="&#x3cd;" horiz-adv-x="553" 
d="M413 780l-2 -14l-68 -200h-60l37 214h93zM482 478q15 -68 15 -147q0 -65 -12 -123q-14 -60 -40 -108q-27 -51 -75 -81q-50 -30 -114 -30q-85 0 -136 48t-51 125q0 27 4 46l47 270h77l-50 -280q-3 -16 -3 -30q0 -50 33 -78q33 -30 83 -30q45 0 76 25q33 27 49 68
q18 46 25 89q8 50 8 98q0 66 -12 138h76z" />
    <glyph glyph-name="omegatonos" unicode="&#x3ce;" horiz-adv-x="837" 
d="M566 766l-68 -200h-60l37 214h93zM628 484q72 -26 116 -80q44 -55 44 -136q0 -66 -25 -126q-26 -62 -81 -107q-55 -46 -129 -46q-53 0 -93 21q-39 22 -62 60q-55 -81 -160 -81q-84 0 -139 54q-54 54 -54 152q0 101 62 184q63 81 190 105l10 -68q-92 -23 -137 -81
q-46 -58 -46 -134q0 -69 34 -104q34 -37 85 -37t85 34q33 32 44 92l31 179h77l-27 -156q-6 -35 -6 -49q0 -45 28 -73q27 -27 73 -27q75 0 118 64t43 139q0 110 -112 156z" />
    <glyph glyph-name="uni2009" unicode="&#x2009;" horiz-adv-x="147" 
 />
    <glyph glyph-name="endash" unicode="&#x2013;" horiz-adv-x="500" 
d="M476 347l-12 -65h-414l12 65h414z" />
    <glyph glyph-name="emdash" unicode="&#x2014;" horiz-adv-x="1000" 
d="M970 347l-13 -65h-900l13 65h900z" />
    <glyph glyph-name="uni2015" unicode="&#x2015;" horiz-adv-x="1000" 
d="M970 347l-13 -65h-900l13 65h900z" />
    <glyph glyph-name="quoteleft" unicode="&#x2018;" horiz-adv-x="281" 
d="M261 660l-58 -257h-91l86 257h63z" />
    <glyph glyph-name="quoteright" unicode="&#x2019;" horiz-adv-x="281" 
d="M272 660l-86 -257h-62l58 257h90z" />
    <glyph glyph-name="quotesinglbase" unicode="&#x201a;" horiz-adv-x="281" 
d="M172 90l-87 -257h-63l59 257h91z" />
    <glyph glyph-name="quotedblleft" unicode="&#x201c;" horiz-adv-x="465" 
d="M261 660l-58 -257h-91l86 257h63zM445 660l-58 -257h-91l87 257h62z" />
    <glyph glyph-name="quotedblright" unicode="&#x201d;" horiz-adv-x="465" 
d="M272 660l-86 -257h-62l58 257h90zM457 660l-87 -257h-62l58 257h91z" />
    <glyph glyph-name="quotedblbase" unicode="&#x201e;" horiz-adv-x="464" 
d="M172 90l-87 -257h-63l59 257h91zM355 90l-87 -257h-63l59 257h91z" />
    <glyph glyph-name="dagger" unicode="&#x2020;" horiz-adv-x="453" 
d="M354 750l-23 -133h124l-10 -68h-125l-40 -224h-77l40 224h-125l12 68h125l22 133h77z" />
    <glyph glyph-name="daggerdbl" unicode="&#x2021;" horiz-adv-x="451" 
d="M353 750l-17 -103h124l-11 -68h-125l-24 -137h125l-12 -69h-126l-18 -102h-77l19 102h-125l12 69h125l24 137h-125l12 68h125l18 103h76z" />
    <glyph glyph-name="bullet" unicode="&#x2022;" horiz-adv-x="378" 
d="M194 397q54 0 92 -37q39 -38 39 -93q0 -56 -39 -92q-38 -37 -92 -37t-92 37q-40 36 -40 92t40 93q38 37 92 37z" />
    <glyph glyph-name="ellipsis" unicode="&#x2026;" horiz-adv-x="766" 
d="M350 115q27 0 45 -18t18 -45t-18 -45t-45 -18q-26 0 -44 18t-18 45t18 45t44 18zM598 115q26 0 45 -18q18 -18 18 -45t-18 -45q-19 -18 -45 -18t-45 18q-18 18 -18 45t18 45q19 18 45 18zM102 115q26 0 44 -18q19 -18 19 -45t-19 -45q-18 -18 -44 -18t-45 18
q-18 18 -18 45t18 45q19 18 45 18z" />
    <glyph glyph-name="perthousand" unicode="&#x2030;" horiz-adv-x="1199" 
d="M267 670q67 0 111 -45q44 -46 44 -110q0 -69 -49 -117q-49 -49 -119 -49q-67 0 -110 46q-44 46 -44 110q0 69 49 117t118 48zM718 660l-520 -660h-69l519 660h70zM266 613q-44 0 -73 -30q-29 -32 -29 -77q0 -42 26 -71t68 -29q45 0 73 31q27 30 27 77q0 43 -25 71t-67 28
zM976 312q68 0 111 -45q44 -46 44 -110q0 -69 -49 -117q-49 -49 -119 -49q-66 0 -109 46q-44 46 -44 110q0 69 49 117q48 48 117 48zM588 311q68 0 111 -45q44 -46 44 -110q0 -69 -49 -117q-49 -49 -119 -49q-67 0 -110 46q-44 46 -44 110q0 69 49 117q50 48 118 48z
M975 255q-45 0 -73 -30q-29 -32 -29 -77q0 -42 26 -71t68 -29q45 0 73 31q28 29 28 77q0 43 -25 71t-68 28zM587 254q-45 0 -73 -30q-29 -32 -29 -77q0 -42 26 -71t68 -29q45 0 73 31q27 30 27 77q0 43 -25 71t-67 28z" />
    <glyph glyph-name="minute" unicode="&#x2032;" horiz-adv-x="247" 
d="M275 660l-118 -272h-62l87 272h93z" />
    <glyph glyph-name="second" unicode="&#x2033;" horiz-adv-x="430" 
d="M275 660l-118 -272h-62l87 272h93zM458 660l-118 -272h-62l87 272h93z" />
    <glyph glyph-name="guilsinglleft" unicode="&#x2039;" horiz-adv-x="305" 
d="M298 423l-169 -156l113 -155l-55 -41l-146 188l4 23l208 189z" />
    <glyph glyph-name="guilsinglright" unicode="&#x203a;" horiz-adv-x="306" 
d="M129 471l145 -188l-3 -24l-208 -188l-45 47l169 157l-114 155z" />
    <glyph glyph-name="fraction" unicode="&#x2044;" horiz-adv-x="256" 
d="M425 660l-495 -660h-67l494 660h68z" />
    <glyph glyph-name="uni2070" unicode="&#x2070;" horiz-adv-x="410" 
d="M295 787q64 0 97 -41q32 -43 32 -116q0 -40 -9 -84q-11 -46 -30 -88q-21 -44 -60 -73q-38 -28 -91 -28q-65 0 -98 43q-34 41 -34 116q0 43 10 84q9 44 30 87q21 44 61 72q38 28 92 28zM286 726q-33 0 -56 -22t-36 -58t-17 -67q-6 -33 -6 -62q0 -99 71 -99q31 0 56 23
q23 21 37 58q12 34 18 68q5 37 5 61q0 52 -20 75q-21 23 -52 23z" />
    <glyph glyph-name="uni2074" unicode="&#x2074;" horiz-adv-x="355" 
d="M383 494l-11 -57h-54l-12 -73h-63l13 73h-207l3 19l179 324h73l-159 -286h121l22 127h62l-22 -127h55z" />
    <glyph glyph-name="uni2075" unicode="&#x2075;" horiz-adv-x="365" 
d="M379 720h-160l-16 -94q32 2 35 2q57 0 95 -32q37 -31 37 -88q0 -61 -42 -106t-115 -45q-56 0 -94 29q-36 28 -53 73l53 28q29 -69 95 -69q42 0 66 25q23 25 23 59q0 32 -22 51t-65 19h-87l36 208h225z" />
    <glyph glyph-name="uni2076" unicode="&#x2076;" horiz-adv-x="373" 
d="M253 639q51 0 88 -37t37 -94q0 -64 -46 -107q-44 -43 -107 -43q-59 0 -99 39t-40 99q0 11 1 16q0 3 0.5 8t1.5 7q1 3 5 16q2 4 5 13q1 4 8 14q6 9 8 14l10 14q7 10 9 12l2 2q1 2 4 5.5t6 6.5t5.5 6.5t4.5 5.5l1 2l120 142h84l-119 -142q2 1 11 1zM228 419q35 0 59 24
q24 25 24 62q0 33 -20 55q-19 22 -53 22q-36 0 -61 -25q-24 -24 -24 -61q0 -32 21 -55q21 -22 54 -22z" />
    <glyph glyph-name="uni2077" unicode="&#x2077;" horiz-adv-x="326" 
d="M123 780h280l-3 -19l-262 -397h-77l239 356h-188z" />
    <glyph glyph-name="uni2078" unicode="&#x2078;" horiz-adv-x="382" 
d="M312 574q69 -36 69 -94q0 -46 -37 -83q-38 -38 -110 -38q-62 0 -105 28q-45 27 -45 83q0 41 29 73q27 30 79 44q-51 35 -51 86q0 45 35 80q34 34 97 34q53 0 91 -26q37 -25 37 -77q0 -74 -89 -110zM272 734q-30 0 -50 -17q-19 -18 -19 -44q0 -19 13 -32q13 -15 41 -31
q83 24 83 68q0 25 -19 41q-20 15 -49 15zM230 412q43 0 64 21q21 19 21 47q0 23 -16 39q-15 14 -52 33q-52 -13 -74 -31q-23 -18 -23 -45q0 -30 21 -46q21 -18 59 -18z" />
    <glyph glyph-name="uni2079" unicode="&#x2079;" horiz-adv-x="373" 
d="M266 786q58 0 99 -39q40 -39 40 -99q0 -11 -1 -16q0 -3 -0.5 -8t-1.5 -7q0 -2 -5 -16q-2 -4 -5 -13q-1 -4 -8 -14q-5 -7 -8 -13l-10 -14l-4 -6t-4 -5l-1 -2l-1 -2q-2 -2 -5 -5.5t-6 -6.5t-5.5 -6.5t-3.5 -5.5l-2 -2l-120 -142h-84l120 142q-3 -1 -13 -1q-51 0 -87 37
q-37 37 -37 94q0 64 46 107q44 43 107 43zM253 562q36 0 61 25q24 24 24 60q0 33 -21 56q-21 22 -54 22q-35 0 -59 -24q-24 -25 -24 -62q0 -33 20 -55q19 -22 53 -22z" />
    <glyph glyph-name="uni207A" unicode="&#x207a;" horiz-adv-x="427" 
d="M319 745l-25 -144h139l-10 -57h-140l-25 -144h-64l26 144h-140l11 57h139l25 144h64z" />
    <glyph glyph-name="uni207B" unicode="&#x207b;" horiz-adv-x="427" 
d="M448 598l-10 -52h-342l10 52h342z" />
    <glyph glyph-name="uni207C" unicode="&#x207c;" horiz-adv-x="427" 
d="M456 680l-11 -57h-329l11 57h329zM428 522l-11 -57h-328l10 57h329z" />
    <glyph glyph-name="uni207D" unicode="&#x207d;" horiz-adv-x="259" 
d="M332 901l17 -40q-62 -29 -104 -95q-41 -63 -58 -136t-17 -145q0 -143 76 -206l-29 -36q-105 72 -105 245q0 63 13 122q14 64 39 121q26 59 69 104q43 47 99 66z" />
    <glyph glyph-name="uni207E" unicode="&#x207e;" horiz-adv-x="258" 
d="M160 902q104 -72 104 -245q0 -62 -13 -123q-15 -68 -38 -121q-25 -57 -69 -104q-44 -46 -99 -65l-18 40q61 28 104 94q43 67 59 137q16 68 16 145q0 143 -76 206z" />
    <glyph glyph-name="uni2080" unicode="&#x2080;" horiz-adv-x="410" 
d="M210 303q64 0 97 -41q32 -43 32 -116q0 -40 -9 -84q-11 -45 -30 -89q-21 -43 -60 -72q-38 -28 -91 -28q-65 0 -98 42q-34 43 -34 117q0 43 10 84q9 44 30 87q21 44 61 72q38 28 92 28zM201 242q-33 0 -56 -22t-36 -58t-17 -67q-6 -33 -6 -62q0 -99 71 -99q31 0 56 23
q23 21 37 58q12 34 18 68q5 37 5 61q0 52 -20 75q-21 23 -52 23z" />
    <glyph glyph-name="uni2081" unicode="&#x2081;" horiz-adv-x="352" 
d="M227 296l-63 -356h90l-10 -60h-261l11 60h103l53 296h-99l11 60h165z" />
    <glyph glyph-name="uni2082" unicode="&#x2082;" horiz-adv-x="369" 
d="M184 4l-78 -64h169l-11 -60h-292l3 15l175 153q85 73 85 128q0 30 -18 48t-50 18q-37 0 -55 -25q-19 -25 -19 -63v-12h-66v16q0 59 37 102t106 43q61 0 96 -35t35 -88q0 -44 -27 -84q-27 -38 -90 -92z" />
    <glyph glyph-name="uni2083" unicode="&#x2083;" horiz-adv-x="354" 
d="M312 296l-3 -19l-124 -138q37 -11 63 -42q25 -31 25 -76q0 -57 -41 -103q-42 -45 -115 -45q-59 0 -93 28q-36 28 -51 74l52 28q30 -69 92 -69q44 0 66 25q23 26 23 59q0 32 -23 52q-23 18 -66 18h-38l3 19l115 129h-151l11 60h255z" />
    <glyph glyph-name="uni2084" unicode="&#x2084;" horiz-adv-x="355" 
d="M298 10l-11 -57h-54l-12 -73h-63l13 73h-207l3 19l179 324h73l-159 -286h121l22 127h62l-22 -127h55z" />
    <glyph glyph-name="uni2085" unicode="&#x2085;" horiz-adv-x="365" 
d="M293 236h-160l-16 -94q32 2 35 2q57 0 95 -32q37 -31 37 -88q0 -61 -42 -106t-115 -45q-57 0 -94 28q-36 27 -53 74l53 28q29 -69 95 -69q42 0 66 24q23 26 23 60q0 32 -22 51t-65 19h-87l36 208h225z" />
    <glyph glyph-name="uni2086" unicode="&#x2086;" horiz-adv-x="373" 
d="M168 155q51 0 88 -37t37 -94q0 -64 -45 -107q-46 -43 -108 -43q-58 0 -98 39q-41 39 -41 99q0 11 1 16q2 9 3 15q2 10 5 16q1 3 3 7.5t2 5.5q2 7 8 14q1 3 3 6t3.5 5t1.5 3q2 5 9 14q5 7 10 12l2 2q1 2 3.5 5.5t5.5 6.5t5.5 6.5t3.5 5.5l2 2l120 142h84l-119 -142
q2 1 11 1zM143 -65q35 0 59 24q24 25 24 62q0 33 -20 55q-19 22 -53 22q-36 0 -60 -25q-25 -24 -25 -61q0 -32 21 -55q21 -22 54 -22z" />
    <glyph glyph-name="uni2087" unicode="&#x2087;" horiz-adv-x="326" 
d="M38 296h280l-3 -19l-262 -397h-77l239 356h-188z" />
    <glyph glyph-name="uni2088" unicode="&#x2088;" horiz-adv-x="382" 
d="M227 90q69 -36 69 -94q0 -47 -37 -84t-110 -37q-61 0 -105 27q-45 28 -45 84q0 41 29 73q27 30 79 44q-51 35 -51 86q0 45 35 80q34 34 97 34q53 0 91 -26q37 -25 37 -77q0 -74 -89 -110zM187 250q-30 0 -50 -17q-19 -18 -19 -44q0 -19 13 -32q13 -15 41 -31q83 24 83 68
q0 25 -19 41q-20 15 -49 15zM145 -72q42 0 64 20q21 21 21 48q0 23 -16 39q-15 14 -52 33q-52 -13 -74 -31q-23 -18 -23 -45q0 -29 21 -47q22 -17 59 -17z" />
    <glyph glyph-name="uni2089" unicode="&#x2089;" horiz-adv-x="373" 
d="M180 302q58 0 99 -39q40 -39 40 -99q0 -11 -1 -17q0 -3 -1 -8t-1 -7t-1 -4t-2 -5.5t-2 -5.5t-5 -14q0 -1 -1.5 -3t-3.5 -5t-3 -6q-6 -7 -8 -13l-10 -14q-8 -10 -9 -12l-1 -2q-2 -2 -5 -5.5t-6 -6.5t-5.5 -6.5t-3.5 -5.5l-2 -2l-120 -142h-84l120 142q-3 -1 -13 -1
q-51 0 -87 37q-37 37 -37 94q0 64 46 107q44 43 107 43zM167 78q35 0 61 24q24 26 24 61q0 33 -21 56q-21 22 -54 22q-35 0 -59 -25q-24 -24 -24 -61q0 -33 20 -56q20 -21 53 -21z" />
    <glyph glyph-name="uni208A" unicode="&#x208a;" horiz-adv-x="428" 
d="M234 260l-25 -144h139l-10 -57h-140l-25 -144h-64l26 144h-140l11 57h139l25 144h64z" />
    <glyph glyph-name="uni208B" unicode="&#x208b;" horiz-adv-x="425" 
d="M362 113l-10 -52h-342l10 52h342z" />
    <glyph glyph-name="uni208C" unicode="&#x208c;" horiz-adv-x="428" 
d="M371 195l-11 -57h-329l11 57h329zM343 37l-11 -57h-328l10 57h329z" />
    <glyph glyph-name="uni208D" unicode="&#x208d;" horiz-adv-x="258" 
d="M246 416l17 -40q-61 -28 -104 -94q-43 -67 -59 -137q-16 -68 -16 -145q0 -143 76 -206l-29 -36q-105 72 -105 245q0 63 13 122q14 64 39 121q26 58 69 105q44 46 99 65z" />
    <glyph glyph-name="uni208E" unicode="&#x208e;" horiz-adv-x="258" 
d="M74 417q104 -72 104 -245q0 -63 -13 -122q-15 -68 -38 -122q-25 -57 -69 -104q-44 -46 -99 -65l-18 40q62 29 104 95q42 65 59 136q16 68 16 145q0 143 -76 206z" />
    <glyph glyph-name="Euro" unicode="&#x20ac;" horiz-adv-x="680" 
d="M449 598q-157 0 -225 -159h300l-28 -68h-293q-8 -40 -8 -80v-6h260l-29 -68h-222q18 -72 70 -113q50 -43 129 -43q99 0 160 70l50 -45q-79 -97 -216 -97q-109 0 -182 63q-74 64 -95 165h-117l12 68h99v3q0 41 8 83h-90l12 68h96q34 99 112 166q77 65 196 65
q157 0 231 -116l-57 -41q-57 85 -173 85z" />
    <glyph glyph-name="uni2105" unicode="&#x2105;" horiz-adv-x="810" 
d="M274 671q46 0 80 -21q33 -20 52 -56l-49 -35q-32 50 -85 50q-45 0 -74 -29q-29 -31 -29 -77q0 -41 24 -67q24 -25 65 -25q49 0 87 44l41 -41q-47 -65 -130 -65q-67 0 -111 44q-45 43 -45 108q0 72 52 121q50 49 122 49zM700 660l-489 -660h-74l489 660h74zM590 311
q68 0 111 -45t42 -108q0 -70 -51 -120q-52 -49 -122 -49q-65 0 -109 44q-46 44 -44 109q0 71 52 120q50 49 121 49zM588 249q-44 0 -72 -30q-30 -30 -30 -77q0 -42 24 -66q22 -25 62 -25q43 0 73 30t30 77q0 42 -24 67q-24 24 -63 24z" />
    <glyph glyph-name="uni2113" unicode="&#x2113;" horiz-adv-x="422" 
d="M168 141q0 -83 103 -83q31 0 75 6l-11 -65q-40 -10 -80 -10q-76 0 -119 34q-45 35 -45 105q0 21 5 56l-62 -41l-30 62q46 28 109 74l52 297q16 96 61 141q44 44 111 44q121 0 121 -126q0 -182 -275 -389l-10 -62q-5 -28 -5 -43zM241 574l-40 -226q185 156 185 281
q0 66 -54 66q-34 0 -57 -27q-24 -29 -34 -94z" />
    <glyph glyph-name="uni2116" unicode="&#x2116;" horiz-adv-x="1125" 
d="M526 157l87 503h78l-118 -671h-28l-1 2l-330 513l-87 -504h-78l118 671h28zM950 559q65 0 111 -44q45 -45 43 -109q0 -70 -51 -120q-52 -49 -123 -49q-66 0 -110 44t-43 110q0 70 52 119q50 49 121 49zM932 294q45 0 77 32q31 31 31 78q0 42 -26 71q-25 27 -67 27
q-45 0 -75 -32q-29 -31 -31 -79q0 -42 26 -70q25 -27 65 -27zM732 105l9 56h318l-9 -56h-318z" />
    <glyph glyph-name="uni2117" unicode="&#x2117;" horiz-adv-x="791" 
d="M428 671q135 0 232 -95q95 -95 95 -231q0 -146 -107 -251q-108 -105 -253 -105q-137 0 -232 96q-95 95 -95 231q0 146 108 251q107 104 252 104zM426 616q-120 0 -209 -87q-89 -89 -89 -213q0 -114 77 -193q76 -79 192 -79q125 0 212 91q86 91 86 211q0 113 -77 192
q-78 78 -192 78zM453 503q59 0 91 -29q32 -30 32 -78q0 -56 -41 -91q-43 -35 -108 -35h-78l-21 -120h-65l62 353h128zM446 447h-65l-21 -120h74q75 0 75 64q0 56 -63 56z" />
    <glyph glyph-name="trademark" unicode="&#x2122;" horiz-adv-x="959" 
d="M938 667h23l-80 -456h-67l50 288l-159 -173h-24l-104 184l-51 -299h-68l80 456h23l142 -254l234 254v-2zM87 660h373l-11 -61h-153l-68 -388h-67l68 388h-153z" />
    <glyph glyph-name="uni2126" unicode="&#x2126;" horiz-adv-x="791" 
d="M757 363q0 -188 -180 -293h121l-12 -70h-261l12 71q126 50 182 125q57 76 57 165q0 105 -69 172q-71 66 -181 66q-66 0 -123 -26q-55 -27 -87 -69q-34 -47 -49 -91q-17 -49 -17 -96q0 -80 43 -141q43 -63 117 -105l-13 -71h-275l13 70h164q-60 48 -94 111q-36 65 -36 138
q0 46 13 91q12 47 41 94q30 49 68 84q41 38 101 60q61 23 131 23q144 0 239 -86q95 -87 95 -222z" />
    <glyph glyph-name="estimated" unicode="&#x212e;" horiz-adv-x="795" 
d="M751 327h-544v-202q77 -104 220 -104q77 0 145 33q67 31 111 86l24 -21q-49 -60 -122 -94q-75 -35 -158 -35q-148 0 -248 98q-99 97 -99 238q0 143 101 244q101 100 242 100q80 0 156 -35q77 -35 126 -102q50 -68 50 -152zM427 638q-142 0 -220 -104v-176h421v192
q-75 88 -201 88z" />
    <glyph glyph-name="uni2150" unicode="&#x2150;" horiz-adv-x="934" 
d="M318 304l-10 -60h-261l11 60h103l53 296h-99l11 60h165l-63 -356h90zM709 660h68l-495 -660h-67zM666 416h280l-3 -19l-262 -397h-77l239 356h-188z" />
    <glyph glyph-name="uni2151" unicode="&#x2151;" horiz-adv-x="950" 
d="M318 304l-10 -60h-261l11 60h103l53 296h-99l11 60h165l-63 -356h90zM709 660h68l-495 -660h-67zM778 422q58 0 98 -39q41 -39 41 -99q0 -11 -1 -16q-1 -6 -3 -16q-3 -10 -5 -15q-1 -3 -3 -8t-2 -6q-2 -5 -8 -14q-1 -2 -3 -5t-3.5 -4.5t-1.5 -2.5q-1 -3 -9 -14t-10 -13
l-2 -2q-1 -2 -3.5 -5.5t-5.5 -6.5t-5.5 -6.5t-3.5 -5.5l-2 -2l-120 -142h-84l120 142q-3 -1 -13 -1q-51 0 -88 37q-36 38 -36 94q0 64 45 107q46 43 108 43zM765 198q36 0 60 25q25 24 25 60q0 33 -21 56q-21 22 -54 22q-35 0 -59 -24q-24 -25 -24 -62q0 -33 20 -55
q19 -22 53 -22z" />
    <glyph glyph-name="uni2152" unicode="&#x2152;" horiz-adv-x="1369" 
d="M291 660l-63 -356h90l-10 -60h-261l11 60h103l53 296h-99l11 60h165zM777 660l-495 -660h-67l494 660h68zM1190 423q64 0 97 -41q32 -43 32 -116q0 -40 -9 -84q-11 -46 -30 -88q-21 -44 -60 -73q-38 -28 -91 -28q-65 0 -98 43q-34 41 -34 116q0 43 10 84q9 44 30 87
q21 44 61 72q38 28 92 28zM855 416l-63 -356h90l-10 -60h-261l11 60h103l53 296h-99l11 60h165zM1181 362q-33 0 -56 -22t-36 -58t-17 -67q-6 -33 -6 -62q0 -99 71 -99q31 0 56 23q23 21 37 58q12 34 18 68q5 37 5 61q0 52 -20 75q-21 23 -52 23z" />
    <glyph glyph-name="uni2153" unicode="&#x2153;" horiz-adv-x="961" 
d="M318 304l-10 -60h-261l11 60h103l53 296h-99l11 60h165l-63 -356h90zM709 660h68l-495 -660h-67zM940 416l-3 -19l-124 -138q37 -11 63 -42q25 -31 25 -76q0 -58 -42 -103q-41 -45 -114 -45q-58 0 -93 29q-36 29 -51 73l52 28q30 -69 92 -69q44 0 66 25q23 26 23 59
q0 32 -23 52q-23 18 -66 18h-38l3 19l115 129h-151l11 60h255z" />
    <glyph glyph-name="uni2154" unicode="&#x2154;" horiz-adv-x="978" 
d="M339 304l-11 -60h-292l3 15l175 153q85 73 85 128q0 30 -18 48t-50 18q-37 0 -55 -25q-19 -25 -19 -63v-12h-66v16q0 59 37 102t106 43q61 0 96 -35t35 -88q0 -44 -27 -84q-27 -38 -90 -92l-79 -64h170zM726 660h68l-495 -660h-67zM957 416l-3 -19l-124 -138
q38 -11 63 -42t25 -76q0 -58 -42 -103q-40 -45 -114 -45q-58 0 -93 29q-36 29 -51 73l52 28q30 -69 92 -69q44 0 66 25q23 26 23 59q0 32 -23 52q-22 18 -66 18h-38l3 19l115 129h-151l11 60h255z" />
    <glyph glyph-name="uni2155" unicode="&#x2155;" horiz-adv-x="964" 
d="M318 304l-10 -60h-261l11 60h103l53 296h-99l11 60h165l-63 -356h90zM709 660h68l-495 -660h-67zM913 356h-160l-16 -94q32 2 35 2q57 0 95 -32q37 -31 37 -88q0 -61 -42 -106t-115 -45q-57 0 -94 28q-36 27 -53 74l53 28q29 -69 95 -69q42 0 65 24q24 26 24 60
q0 32 -22 51t-65 19h-87l36 208h225z" />
    <glyph glyph-name="uni2156" unicode="&#x2156;" horiz-adv-x="981" 
d="M339 304l-11 -60h-292l3 15l175 153q85 73 85 128q0 30 -18 48t-50 18q-37 0 -55 -25q-19 -25 -19 -63v-12h-66v16q0 59 37 102t106 43q61 0 96 -35t35 -88q0 -44 -27 -84q-27 -38 -90 -92l-79 -64h170zM726 660h68l-495 -660h-67zM930 356h-160l-16 -94q32 2 35 2
q57 0 95 -32q37 -31 37 -88q0 -61 -42 -106t-115 -45q-56 0 -94 29q-36 28 -53 73l53 28q28 -69 95 -69q43 0 65 25q24 24 24 59q0 32 -22 51t-65 19h-87l36 208h225z" />
    <glyph glyph-name="uni2157" unicode="&#x2157;" horiz-adv-x="932" 
d="M337 385q0 -57 -41 -103q-42 -45 -115 -45q-58 0 -93 29q-36 29 -51 73l52 28q30 -69 92 -69q44 0 66 25q23 26 23 59q0 32 -23 52q-23 18 -66 18h-37h-1l3 19l116 129h-152l11 60h255l-3 -19l-124 -138q37 -11 63 -42q25 -31 25 -76zM676 660h68l-495 -660h-67zM881 356
h-160l-16 -94q32 2 35 2q57 0 95 -32q37 -31 37 -88q0 -61 -42 -106t-115 -45q-57 0 -94 28q-36 27 -53 74l53 28q29 -69 95 -69q42 0 65 24q24 26 24 60q0 32 -22 51t-65 19h-87l36 208h225z" />
    <glyph glyph-name="uni2158" unicode="&#x2158;" horiz-adv-x="978" 
d="M285 244h-63l13 73h-207l3 19l179 324h73l-159 -286h121l22 127h62l-22 -127h55l-11 -57h-54zM722 660h68l-495 -660h-67zM927 356h-160l-16 -94q32 2 35 2q57 0 95 -32q37 -31 37 -88q0 -61 -42 -106t-115 -45q-57 0 -94 28q-36 27 -53 74l53 28q29 -69 95 -69
q42 0 65 24q24 26 24 60q0 32 -22 51t-65 19h-87l36 208h225z" />
    <glyph glyph-name="uni2159" unicode="&#x2159;" horiz-adv-x="900" 
d="M318 304l-10 -60h-261l11 60h103l53 296h-99l11 60h165l-63 -356h90zM709 660h68l-495 -660h-67zM716 275q51 0 88 -37t37 -94q0 -64 -45 -107q-46 -43 -108 -43q-58 0 -98 39q-41 39 -41 99q0 11 1 17l3 15q3 10 5 15q1 3 3 8t2 6q2 5 8 14q7 11 8 13q2 5 9 14
q5 7 10 12l2 2q1 2 3.5 5.5t5.5 6.5t5.5 6.5t3.5 5.5l2 2l120 142h84l-119 -142q2 1 11 1zM691 55q35 0 59 25q24 24 24 61q0 33 -20 56q-20 21 -53 21q-36 0 -60 -24q-25 -25 -25 -62q0 -32 21 -55q21 -22 54 -22z" />
    <glyph glyph-name="uni215A" unicode="&#x215a;" horiz-adv-x="879" 
d="M348 388q0 -61 -42 -106t-115 -45q-56 0 -94 29q-36 28 -53 73l53 28q29 -69 95 -69q42 0 66 25q23 25 23 59q0 32 -22 51t-65 19h-87l36 208h225l-11 -60h-160l-17 -95q20 3 36 3q57 0 95 -32q37 -31 37 -88zM687 660h68l-495 -660h-67zM695 275q51 0 88 -37t37 -94
q0 -64 -45 -107q-46 -43 -108 -43q-57 0 -98 39t-41 99q0 11 1 17l3 15q2 10 5 15q1 3 3 8t2 6q2 5 8 14q7 11 8 13q2 5 9 14q5 7 10 12l1 2q2 2 4.5 5.5t5.5 6.5t5.5 6.5t4.5 5.5l1 2l120 142h84l-119 -142q2 1 11 1zM670 55q35 0 59 25q24 24 24 61q0 33 -20 56
q-19 21 -53 21q-36 0 -60 -24q-25 -25 -25 -62q0 -32 21 -55q21 -22 54 -22z" />
    <glyph glyph-name="oneeighth" unicode="&#x215b;" horiz-adv-x="944" 
d="M318 304l-10 -60h-261l11 60h103l53 296h-99l11 60h165l-63 -356h90zM709 660h68l-495 -660h-67zM810 210q69 -36 69 -94q0 -46 -38 -84q-37 -37 -109 -37q-62 0 -105 27q-45 28 -45 84q0 41 29 73q27 30 79 44q-51 35 -51 86q0 45 35 80q34 34 97 34q53 0 91 -26
q37 -25 37 -77q0 -74 -89 -110zM770 370q-30 0 -50 -17q-19 -18 -19 -44q0 -19 12 -32q16 -16 42 -31q83 24 83 68q0 24 -20 41q-20 15 -48 15zM728 48q43 0 64 21q21 19 21 47q0 22 -17 39q-16 15 -51 33q-53 -14 -75 -31q-22 -18 -22 -45q0 -30 21 -46q21 -18 59 -18z" />
    <glyph glyph-name="threeeighths" unicode="&#x215c;" horiz-adv-x="911" 
d="M337 385q0 -57 -41 -103q-42 -45 -115 -45q-58 0 -93 29q-36 29 -51 73l52 28q30 -69 92 -69q44 0 66 25q23 26 23 59q0 32 -23 52q-23 18 -66 18h-37h-1l3 19l116 129h-152l11 60h255l-3 -19l-124 -138q37 -11 63 -42q25 -31 25 -76zM676 660h68l-495 -660h-67zM778 210
q69 -36 69 -94q0 -46 -38 -84q-37 -37 -109 -37q-62 0 -105 27q-45 28 -45 84q0 41 29 73q27 30 79 44q-51 35 -51 86q0 45 35 80q34 34 97 34q53 0 91 -26q37 -25 37 -77q0 -74 -89 -110zM738 370q-30 0 -50 -17q-19 -18 -19 -44q0 -19 12 -32q16 -16 42 -31q83 24 83 68
q0 24 -20 41q-20 15 -48 15zM696 48q43 0 64 21q21 19 21 47q0 22 -17 39q-16 15 -51 33q-53 -14 -75 -31q-22 -18 -22 -45q0 -30 21 -46q21 -18 59 -18z" />
    <glyph glyph-name="fiveeighths" unicode="&#x215d;" horiz-adv-x="923" 
d="M348 388q0 -61 -42 -106t-115 -45q-56 0 -94 29q-36 28 -53 73l53 28q29 -69 95 -69q42 0 66 25q23 25 23 59q0 32 -22 51t-65 19h-87l36 208h225l-11 -60h-160l-17 -95q20 3 36 3q57 0 95 -32q37 -31 37 -88zM687 660h68l-495 -660h-67zM789 210q69 -36 69 -94
q0 -46 -38 -84q-37 -37 -109 -37q-61 0 -105 27q-45 28 -45 84q0 41 29 73q27 30 79 44q-51 35 -51 86q0 45 35 80q34 34 97 34q53 0 91 -26q37 -25 37 -77q0 -74 -89 -110zM749 370q-30 0 -50 -17q-19 -18 -19 -44q0 -19 12 -32q16 -16 42 -31q83 24 83 68q0 24 -20 41
q-19 15 -48 15zM707 48q43 0 64 21q21 19 21 47q0 22 -17 39q-17 15 -51 33q-53 -14 -75 -31q-22 -18 -22 -45q0 -30 21 -46q21 -18 59 -18z" />
    <glyph glyph-name="seveneighths" unicode="&#x215e;" horiz-adv-x="821" 
d="M117 244h-77l239 356h-188l11 60h280l-3 -19zM585 660h68l-495 -660h-67zM687 210q69 -36 69 -94q0 -46 -38 -84q-37 -37 -109 -37q-61 0 -105 27q-45 28 -45 84q0 41 29 73q27 30 79 44q-51 35 -51 86q0 45 35 80q34 34 97 34q53 0 91 -26q37 -25 37 -77q0 -74 -89 -110
zM647 370q-30 0 -50 -17q-19 -18 -19 -44q0 -19 12 -32q16 -16 42 -31q83 24 83 68q0 24 -20 41q-19 15 -48 15zM605 48q43 0 64 21q21 19 21 47q0 22 -17 39q-17 15 -51 33q-53 -14 -75 -31q-22 -18 -22 -45q0 -30 21 -46q21 -18 59 -18z" />
    <glyph glyph-name="arrowleft" unicode="&#x2190;" horiz-adv-x="650" 
d="M610 281l-435 1l195 -195l-46 -46l-265 265v18l265 264l46 -45l-194 -194h434v-68z" />
    <glyph glyph-name="arrowup" unicode="&#x2191;" horiz-adv-x="650" 
d="M609 317l-46 -46l-190 189v-415h-72v417l-191 -191l-46 46l264 263h17z" />
    <glyph glyph-name="arrowright" unicode="&#x2192;" horiz-adv-x="650" 
d="M352 588l265 -264v-18l-265 -265l-46 46l195 195l-435 -1v68h434l-194 194z" />
    <glyph glyph-name="arrowdown" unicode="&#x2193;" horiz-adv-x="650" 
d="M567 359l46 -46l-264 -264h-17l-264 264l46 46l191 -191v417h72v-416z" />
    <glyph glyph-name="arrowboth" unicode="&#x2194;" horiz-adv-x="926" 
d="M628 588l265 -264v-18l-265 -265l-45 46l194 195l-196 -1h-210l-196 1l195 -195l-46 -46l-265 265v18l265 264l46 -45l-194 -194h600l-193 194z" />
    <glyph glyph-name="arrowupdn" unicode="&#x2195;" horiz-adv-x="650" 
d="M377 56l181 181l46 -46l-254 -254h-18l-254 254l46 46l182 -182v550l-182 -182l-46 46l254 254h18l254 -254l-46 -46l-181 181v-548z" />
    <glyph glyph-name="uni2196" unicode="&#x2196;" horiz-adv-x="650" 
d="M294 397l277 -277l-49 -48l-321 321v-280h-70v386l13 13h382v-67h-281z" />
    <glyph glyph-name="uni2197" unicode="&#x2197;" horiz-adv-x="650" 
d="M512 512l12 -13v-386h-69v280l-322 -321l-48 48l325 325h-280v67h382z" />
    <glyph glyph-name="uni2198" unicode="&#x2198;" horiz-adv-x="650" 
d="M471 497h69v-385l-13 -13h-382v66h281l-326 326l49 48l276 -276l46 -45v279z" />
    <glyph glyph-name="uni2199" unicode="&#x2199;" horiz-adv-x="650" 
d="M294 214l-48 -49h280v-66h-381l-13 13v385h69v-279l322 321l49 -48z" />
    <glyph glyph-name="partialdiff" unicode="&#x2202;" horiz-adv-x="579" 
d="M338 671q98 0 156 -63q58 -64 58 -179q0 -52 -10 -105q-10 -55 -35 -117q-25 -60 -60 -108q-35 -47 -90 -79q-53 -31 -119 -31q-84 0 -143 50q-57 49 -57 133q0 40 13 76q13 37 41 74q30 37 80 59q51 22 120 22q74 0 178 -33q4 37 4 59q0 87 -38 130q-39 41 -105 41
q-80 0 -144 -67l-44 46q80 92 195 92zM241 60q58 0 105 38q46 38 72 90q24 49 40 116q-91 28 -163 28q-89 0 -133 -44q-45 -45 -45 -107q0 -57 34 -88q35 -33 90 -33z" />
    <glyph glyph-name="uni2206" unicode="&#x2206;" horiz-adv-x="663" 
d="M424 671l169 -671h-601l403 671h29zM496 70l-109 450l-266 -450h375z" />
    <glyph glyph-name="product" unicode="&#x220f;" horiz-adv-x="690" 
d="M674 660l-138 -781h-78l126 711h-354l-125 -711h-78l138 781h509z" />
    <glyph glyph-name="summation" unicode="&#x2211;" horiz-adv-x="552" 
d="M573 660l-12 -70h-338l148 -299l-4 -20l-252 -322h344l-12 -70h-468l2 20l305 392l-172 349l3 20h456z" />
    <glyph glyph-name="minus" unicode="&#x2212;" 
d="M522 349l-11 -68h-447l11 68h447z" />
    <glyph glyph-name="uni2219" unicode="&#x2219;" horiz-adv-x="270" 
d="M148 377q26 0 44 -18q19 -18 19 -45q0 -29 -19 -45q-18 -18 -44 -18t-44 18q-19 16 -19 45q0 27 19 45q18 18 44 18z" />
    <glyph glyph-name="radical" unicode="&#x221a;" horiz-adv-x="648" 
d="M650 750h82l-513 -883h-29v338h-157v68h233v-182z" />
    <glyph glyph-name="infinity" unicode="&#x221e;" horiz-adv-x="821" 
d="M638 482q71 0 118 -44q45 -45 45 -111q0 -72 -52 -127t-139 -55q-66 0 -107 31q-42 29 -83 85q-51 -55 -100 -85q-49 -31 -110 -31q-72 0 -118 45q-46 43 -46 110q0 71 53 127q52 55 139 55q64 0 108 -30q43 -31 83 -86q52 55 101 86q50 30 108 30zM218 215q41 0 79 26
q37 25 84 75q-32 46 -65 72q-31 24 -77 24q-49 0 -82 -30t-33 -77q0 -45 28 -67q28 -23 66 -23zM610 215q48 0 81 30t33 77q0 45 -28 67q-29 23 -67 23q-41 0 -79 -26t-83 -74q35 -47 67 -72q31 -25 76 -25z" />
    <glyph glyph-name="integral" unicode="&#x222b;" horiz-adv-x="328" 
d="M332 787q36 0 84 -14l-11 -63q-33 6 -59 6q-70 0 -99 -45q-29 -44 -29 -141v-406q0 -124 -43 -188q-42 -64 -149 -64q-40 0 -84 14l12 62q33 -6 60 -6q70 0 98 43t28 139v406q0 123 43 190t149 67z" />
    <glyph glyph-name="approxequal" unicode="&#x2248;" 
d="M192 514q36 0 91 -35l82 -55q40 -27 61 -27q36 0 45 60h64q-3 -60 -30 -97q-26 -39 -74 -39q-36 0 -91 35l-82 55q-40 27 -61 27q-35 0 -46 -60h-63q3 61 30 98q26 38 74 38zM154 300q39 0 91 -34l82 -55q41 -27 61 -27q35 0 46 59h63q-3 -59 -29 -97q-27 -38 -75 -38
q-39 0 -91 34l-82 55q-41 27 -61 27q-35 0 -46 -59h-63q3 60 30 97q26 38 74 38z" />
    <glyph glyph-name="notequal" unicode="&#x2260;" 
d="M519 384h-135l-104 -139h214l-11 -68h-254l-82 -111h-76l82 111h-97l11 68h137l104 139h-216l12 69h255l81 107h75l-80 -107h96z" />
    <glyph glyph-name="lessequal" unicode="&#x2264;" 
d="M539 527l-10 -71l-323 -114l281 -115l-11 -66l-409 172l4 22zM20 0l12 63h426l-10 -63h-428z" />
    <glyph glyph-name="greaterequal" unicode="&#x2265;" 
d="M122 527l407 -172l-4 -22l-468 -172l12 74l312 112l-270 115zM29 0l11 63h427l-10 -63h-428z" />
    <glyph glyph-name="uni24EA" unicode="&#x24ea;" horiz-adv-x="983" 
d="M507 761q179 0 305 -126q126 -128 126 -305q0 -178 -126 -304q-126 -127 -305 -127q-178 0 -304 126t-126 305t126 305t304 126zM507 699q-154 0 -260 -106q-107 -107 -107 -263q0 -155 107 -262t260 -107q154 0 261 107t107 262t-107 262t-261 107zM507 561
q83 0 127 -63q42 -62 42 -165t-42 -169q-44 -66 -127 -66q-85 0 -125 66q-42 66 -42 169t42 165q42 63 125 63zM507 501q-100 0 -100 -168q0 -175 100 -175q102 0 102 175q0 168 -102 168z" />
    <glyph glyph-name="uni24FF" unicode="&#x24ff;" horiz-adv-x="983" 
d="M507 761q179 0 305 -126q126 -128 126 -305q0 -178 -126 -304q-126 -127 -305 -127q-178 0 -304 126t-126 305t126 305t304 126zM507 561q-84 0 -126 -62q-43 -62 -43 -166q0 -103 42 -169t127 -66t128 66q43 65 43 169t-43 166q-44 62 -128 62zM507 497q98 0 98 -164
q0 -171 -98 -171q-96 0 -96 171q0 164 96 164z" />
    <glyph glyph-name="filledbox" unicode="&#x25a0;" horiz-adv-x="730" 
d="M656 605v-550h-550v550h550z" />
    <glyph glyph-name="uni25A1" unicode="&#x25a1;" horiz-adv-x="730" 
d="M656 605v-550h-550v550h550zM578 534h-394v-408h394v408z" />
    <glyph glyph-name="uni25AA" unicode="&#x25aa;" horiz-adv-x="541" 
d="M462 434v-380h-381v380h381z" />
    <glyph glyph-name="uni25AB" unicode="&#x25ab;" horiz-adv-x="541" 
d="M462 434v-380h-381v380h381zM388 366h-233v-244h233v244z" />
    <glyph glyph-name="triagup" unicode="&#x25b2;" horiz-adv-x="730" 
d="M349 660l336 -592l-7 -13h-674l-7 13l337 592h15z" />
    <glyph glyph-name="uni25B3" unicode="&#x25b3;" horiz-adv-x="730" 
d="M349 660l336 -592l-7 -13h-674l-7 13l337 592h15zM562 133l-221 388l-221 -388h442z" />
    <glyph glyph-name="uni25B4" unicode="&#x25b4;" horiz-adv-x="528" 
d="M249 473l231 -406l-7 -13h-464l-7 13l232 406h15z" />
    <glyph glyph-name="uni25B5" unicode="&#x25b5;" horiz-adv-x="528" 
d="M249 473l231 -406l-7 -13h-464l-7 13l232 406h15zM370 119l-129 226l-128 -226h257z" />
    <glyph glyph-name="uni25B6" unicode="&#x25b6;" horiz-adv-x="645" 
d="M119 671l519 -334v-15l-519 -333l-13 7v668z" />
    <glyph glyph-name="uni25B7" unicode="&#x25b7;" horiz-adv-x="645" 
d="M119 671l519 -334v-15l-519 -333l-13 7v668zM510 330l-326 209v-418z" />
    <glyph glyph-name="uni25B8" unicode="&#x25b8;" horiz-adv-x="480" 
d="M93 480l356 -228v-15l-356 -228l-13 7v457z" />
    <glyph glyph-name="uni25B9" unicode="&#x25b9;" horiz-adv-x="488" 
d="M101 480l356 -228v-15l-356 -228l-13 7v457zM340 244l-181 116v-231z" />
    <glyph glyph-name="triagrt" unicode="&#x25ba;" horiz-adv-x="966" 
d="M130 671l828 -334v-15l-828 -333l-13 7v668z" />
    <glyph glyph-name="uni25BB" unicode="&#x25bb;" horiz-adv-x="966" 
d="M130 671l828 -334v-15l-828 -333l-13 7v668zM776 330l-581 233v-467z" />
    <glyph glyph-name="triagdn" unicode="&#x25bc;" horiz-adv-x="730" 
d="M429 0h-15l-337 592l7 13h674l7 -13z" />
    <glyph glyph-name="uni25BD" unicode="&#x25bd;" horiz-adv-x="730" 
d="M758 605l7 -13l-336 -592h-15l-337 592l7 13h674zM642 527h-442l221 -388z" />
    <glyph glyph-name="uni25BE" unicode="&#x25be;" horiz-adv-x="528" 
d="M520 434l7 -13l-231 -406h-15l-232 406l7 13h464z" />
    <glyph glyph-name="uni25BF" unicode="&#x25bf;" horiz-adv-x="528" 
d="M520 434l7 -13l-231 -406h-15l-232 406l7 13h464zM417 368h-257l128 -225z" />
    <glyph glyph-name="uni25C0" unicode="&#x25c0;" horiz-adv-x="644" 
d="M557 671l13 -7v-668l-13 -7l-519 333v15z" />
    <glyph glyph-name="uni25C1" unicode="&#x25c1;" horiz-adv-x="644" 
d="M557 671l13 -7v-668l-13 -7l-519 333v15zM492 539l-326 -210l326 -208v418z" />
    <glyph glyph-name="uni25C2" unicode="&#x25c2;" horiz-adv-x="479" 
d="M388 480l13 -7v-457l-13 -7l-356 228v15z" />
    <glyph glyph-name="uni25C3" unicode="&#x25c3;" horiz-adv-x="479" 
d="M388 480l13 -7v-457l-13 -7l-356 228v15zM330 360l-181 -116l181 -115v231z" />
    <glyph glyph-name="triaglf" unicode="&#x25c4;" horiz-adv-x="965" 
d="M867 671l13 -7v-668l-13 -7l-828 333v15z" />
    <glyph glyph-name="uni25C5" unicode="&#x25c5;" horiz-adv-x="965" 
d="M867 671l13 -7v-668l-13 -7l-828 333v15zM802 96v467l-581 -233z" />
    <glyph glyph-name="lozenge" unicode="&#x25ca;" horiz-adv-x="665" 
d="M355 671l213 -341l-213 -341h-29l-213 342l213 340h29zM342 103l142 227l-144 229l-142 -228z" />
    <glyph glyph-name="circle" unicode="&#x25cb;" horiz-adv-x="775" 
d="M404 659q136 0 232 -96q96 -97 96 -234q0 -136 -96 -232t-232 -96q-137 0 -233 96t-96 232q0 137 97 234q96 96 232 96zM404 587q-106 0 -180 -75q-73 -74 -73 -183t73 -182q74 -74 180 -74t179 75q73 73 73 181q0 109 -73 183q-73 75 -179 75z" />
    <glyph glyph-name="uni25CF" unicode="&#x25cf;" horiz-adv-x="775" 
d="M404 659q136 0 232 -96q96 -97 96 -234q0 -136 -96 -232t-232 -96q-137 0 -233 96t-96 232q0 137 97 234q96 96 232 96z" />
    <glyph glyph-name="uni261C" unicode="&#x261c;" horiz-adv-x="1210" 
d="M1173 279v-24l-86 -72l48 -173l-22 -14l-226 141q-89 -47 -189 -75q-102 -29 -169 -29q-103 0 -103 65q0 24 15 39q-47 14 -47 57q0 29 25 45q-37 16 -37 53q0 22 16 38l-188 8q-88 4 -126 24q-37 18 -37 62q0 46 42 63q41 16 142 16q91 0 184 -9q2 43 24 65t57 22
q29 0 59 -18l240 -141q57 -16 87 -28l231 144l22 -14l-48 -173zM507 530q-33 0 -35 -42q98 -13 176 -29l-110 62q-16 9 -31 9zM527 80q54 0 159 29q104 30 184 76v162q-126 48 -307 78t-345 30q-72 0 -93 -7q-24 -8 -24 -25q0 -18 22 -25q21 -7 80 -12l140 -8
q107 -4 213 -10v-45l-94 3q-14 2 -21 -6q-8 -8 -8 -18q0 -11 7 -18q8 -8 19 -8h108v-45h-96q-11 0 -18 -7q-8 -8 -8 -19t7 -18t19 -7h108v-46q-42 -2 -57 -2h-20q-10 0 -17 -7q-8 -8 -8 -18q0 -27 50 -27zM923 361v-189l138 -84l-32 115l79 64l-79 63l33 117z" />
    <glyph glyph-name="uni261E" unicode="&#x261e;" horiz-adv-x="1212" 
d="M1011 503q102 0 144 -16q42 -17 42 -63q0 -44 -37 -62q-37 -19 -127 -24l-188 -8q16 -16 16 -38q0 -37 -36 -53q25 -16 25 -45q0 -43 -48 -58q15 -15 15 -38q0 -65 -102 -65q-67 0 -169 29q-100 28 -189 75l-225 -141l-21 14l47 173l-86 72v24l86 71l-47 174l21 14
l230 -144q30 12 87 28l239 141q32 18 61 18q32 0 57 -23q23 -23 23 -64q93 9 182 9zM706 521l-109 -62q77 15 175 29q0 42 -35 42q-15 0 -31 -9zM1041 386q59 4 81 12q21 8 21 25t-23 25q-21 7 -85 7q-170 0 -352 -29q-181 -30 -309 -79v-162q81 -47 184 -75
q102 -30 163 -30q46 0 46 28q0 10 -7 17t-18 7h-20q-15 0 -57 2v46h108q12 0 19 7t7 18t-8 19q-7 7 -18 7h-96v45h108q11 0 19 8q7 7 7 18q0 10 -8 18q-7 8 -21 6l-94 -3v45q108 6 212 10zM321 172v189l-139 86l33 -117l-78 -63l78 -64l-32 -115z" />
    <glyph glyph-name="uni2661" unicode="&#x2661;" horiz-adv-x="860" 
d="M642 671q82 0 137 -55q56 -56 56 -141q0 -50 -24 -95q-23 -44 -84 -109l-261 -282h-15l-261 282q-59 64 -84 110q-24 45 -24 94q0 85 56 141q55 55 137 55q63 0 113 -35q47 -35 70 -93q23 58 71 93q50 35 113 35zM666 317q49 55 68 88q20 37 20 75q0 52 -33 86
q-33 33 -83 33q-59 0 -100 -47q-40 -46 -60 -121h-38q-22 76 -61 121q-41 47 -100 47q-50 0 -83 -33q-33 -34 -33 -86q0 -38 21 -76q22 -39 67 -87l208 -227z" />
    <glyph glyph-name="heart" unicode="&#x2665;" horiz-adv-x="860" 
d="M642 671q82 0 137 -55q56 -56 56 -141q0 -50 -24 -95q-23 -44 -84 -109l-261 -282h-15l-261 282q-59 64 -84 110q-24 45 -24 94q0 85 56 141q55 55 137 55q63 0 113 -35q47 -35 70 -93q23 58 71 93q50 35 113 35z" />
    <glyph glyph-name="uni275B" unicode="&#x275b;" horiz-adv-x="656" 
d="M403 422q88 0 147 -59q60 -59 60 -146q0 -93 -66 -160q-66 -68 -176 -68q-130 0 -218 93q-89 92 -89 220q0 46 12 95q15 52 41 98q29 51 68 88q40 39 101 64q61 24 135 24q123 0 217 -77l-38 -51q-77 65 -177 65q-70 0 -128 -29q-56 -28 -91 -75t-51 -97
q-18 -53 -18 -102q0 -81 44 -149q-4 23 -4 40q0 94 69 160t162 66z" />
    <glyph glyph-name="uni275C" unicode="&#x275c;" horiz-adv-x="656" 
d="M319 671q129 0 218 -93q89 -92 89 -220q0 -46 -12 -94q-14 -53 -41 -99q-29 -51 -68 -88q-40 -39 -101 -64q-62 -24 -135 -24q-125 0 -217 77l39 51q73 -64 177 -64q70 0 128 29q56 28 91 74q34 46 52 97q17 54 17 102q0 81 -45 149q4 -15 4 -40q0 -92 -69 -160
q-70 -66 -163 -66q-87 0 -146 59q-60 59 -60 146q0 93 66 160q66 68 176 68z" />
    <glyph glyph-name="uni275D" unicode="&#x275d;" horiz-adv-x="1273" 
d="M1020 422q88 0 147 -59q60 -58 60 -146q0 -93 -66 -160q-66 -68 -175 -68q-129 0 -219 93q-89 92 -89 220q0 46 12 95q15 52 41 98q29 51 68 88q40 39 101 64q62 24 135 24q125 0 217 -77l-38 -51q-77 65 -177 65q-70 0 -128 -29q-56 -28 -91 -75t-51 -97
q-18 -53 -18 -102q0 -80 44 -148q-4 15 -4 39q0 94 69 160t162 66zM420 608q-70 0 -128 -29q-56 -28 -91 -75q-34 -46 -52 -97q-17 -54 -17 -102q0 -81 44 -149q-4 23 -4 40q0 94 69 160t162 66q88 0 147 -59q60 -59 60 -146q0 -93 -66 -160q-66 -68 -176 -68
q-130 0 -218 93q-89 92 -89 220q0 46 12 95q15 52 41 98q29 51 68 88q40 39 101 64q61 24 135 24q123 0 217 -77l-38 -51q-77 65 -177 65z" />
    <glyph glyph-name="uni275E" unicode="&#x275e;" horiz-adv-x="1283" 
d="M946 671q130 0 218 -93q90 -92 90 -220q0 -48 -13 -94q-12 -51 -40 -99t-69 -88q-40 -38 -102 -64q-62 -24 -134 -24q-124 0 -216 77l38 51q73 -64 177 -64q70 0 128 29q56 28 91 74q34 46 52 97q17 54 17 102q0 80 -44 148q4 -15 4 -39q0 -92 -69 -160q-70 -66 -163 -66
q-87 0 -146 59q-60 58 -60 146q0 93 66 160q66 68 175 68zM319 671q129 0 218 -93q89 -92 89 -220q0 -47 -13 -95q-13 -50 -40 -98q-29 -51 -68 -88q-40 -38 -102 -64q-61 -24 -134 -24q-125 0 -217 77l39 51q73 -64 177 -64q70 0 128 29q56 28 91 74q35 47 51 97
q18 53 18 102q0 81 -45 149q4 -15 4 -40q0 -93 -70 -160q-69 -66 -162 -66q-86 0 -147 59q-59 59 -59 146q0 93 66 160q66 68 176 68z" />
    <glyph glyph-name="uni2776" unicode="&#x2776;" horiz-adv-x="983" 
d="M507 761q179 0 305 -126q126 -128 126 -305q0 -178 -126 -304q-126 -127 -305 -127q-178 0 -304 126t-126 305t126 305t304 126zM547 554h-164v-61h93v-327h-100v-61h264v61h-93v388z" />
    <glyph glyph-name="uni2777" unicode="&#x2777;" horiz-adv-x="983" 
d="M507 761q179 0 305 -126q126 -128 126 -305q0 -178 -126 -304q-126 -127 -305 -127q-178 0 -304 126t-126 305t126 305t304 126zM503 561q-67 0 -111 -42q-43 -43 -43 -101q0 -18 5 -43h65q-4 21 -4 38q0 34 23 60q22 24 62 24q37 0 58 -22q21 -23 21 -56q0 -31 -17 -59
q-17 -27 -54 -67l-160 -172v-16h323v61h-199l93 97q45 47 65 80q22 35 22 80q0 60 -41 99q-42 39 -108 39z" />
    <glyph glyph-name="uni2778" unicode="&#x2778;" horiz-adv-x="983" 
d="M507 761q179 0 305 -126q126 -128 126 -305q0 -178 -126 -304q-126 -127 -305 -127q-178 0 -304 126t-126 305t126 305t304 126zM648 554h-280v-63h172l-109 -143v-20h49q50 0 78 -20q26 -21 26 -59q0 -39 -26 -63t-65 -24q-60 0 -107 68l-50 -36q52 -96 158 -96
q68 0 117 42q48 42 48 109q0 58 -36 94q-36 35 -88 42l113 149v20z" />
    <glyph glyph-name="uni2779" unicode="&#x2779;" horiz-adv-x="983" 
d="M507 761q179 0 305 -126q126 -128 126 -305q0 -178 -126 -304q-126 -127 -305 -127q-178 0 -304 126t-126 305t126 305t304 126zM532 554h-75l-138 -351v-20h226v-78h70v78h61v63h-61v133h-70v-133h-139z" />
    <glyph glyph-name="uni277A" unicode="&#x277a;" horiz-adv-x="983" 
d="M507 761q179 0 305 -126q126 -128 126 -305q0 -178 -126 -304q-126 -127 -305 -127q-178 0 -304 126t-126 305t126 305t304 126zM633 554h-245v-226h102q104 0 104 -79q0 -39 -26 -63q-25 -25 -67 -25q-63 0 -109 69l-49 -36q22 -42 64 -70q41 -27 97 -27q69 0 116 43
q48 42 48 110q0 66 -45 104q-45 36 -108 36q-36 0 -59 -4v105h177v63z" />
    <glyph glyph-name="uni277B" unicode="&#x277b;" horiz-adv-x="983" 
d="M507 761q179 0 305 -126q126 -128 126 -305q0 -178 -126 -304q-126 -127 -305 -127q-178 0 -304 126t-126 305t126 305t304 126zM597 554h-84l-112 -158q-18 -26 -34 -51q-10 -16 -19 -41q-9 -26 -9 -51q0 -68 46 -111q47 -44 112 -44q66 0 113 44q46 43 46 110
q0 55 -34 95q-34 41 -87 48q-30 5 -54 -5zM497 342q38 0 63 -25t25 -64t-25 -64q-26 -27 -63 -27t-62 27q-25 25 -25 64q0 38 25 63q26 26 62 26z" />
    <glyph glyph-name="uni277C" unicode="&#x277c;" horiz-adv-x="983" 
d="M507 761q179 0 305 -126q126 -128 126 -305q0 -178 -126 -304q-126 -127 -305 -127q-178 0 -304 126t-126 305t126 305t304 126zM672 555h-308v-65h213l-200 -384h78l217 429v20z" />
    <glyph glyph-name="uni277D" unicode="&#x277d;" horiz-adv-x="983" 
d="M507 761q179 0 305 -126q126 -128 126 -305q0 -178 -126 -304q-126 -127 -305 -127q-178 0 -304 126t-126 305t126 305t304 126zM508 561q-62 0 -102 -30q-40 -31 -40 -85q0 -70 79 -107q-100 -37 -100 -116q0 -57 45 -91q44 -34 118 -34q72 0 118 34q45 34 45 90
q0 79 -99 118q77 38 77 106q0 54 -39 85q-40 30 -102 30zM508 504q33 0 53 -16q20 -17 20 -46q0 -26 -18 -43q-20 -17 -56 -30q-36 13 -54 30t-18 43q0 29 20 46q19 16 53 16zM507 313q45 -16 69 -35q23 -20 23 -52t-24 -51q-25 -20 -67 -20q-43 0 -68 20q-24 19 -24 52
q0 31 23 51q23 19 68 35z" />
    <glyph glyph-name="uni277E" unicode="&#x277e;" horiz-adv-x="983" 
d="M508 761q178 0 304 -126t126 -305t-126 -305t-304 -126q-179 0 -305 126q-126 127 -126 305q0 177 126 305q126 126 305 126zM518 562q-65 0 -112 -44t-47 -110q0 -54 35 -95t86 -48q30 -5 54 5l-116 -164h84l112 158q18 26 34 51q10 16 19 41q9 26 9 51q0 68 -46 111
q-47 44 -112 44zM518 498q36 0 62 -27q25 -25 25 -64q0 -38 -25 -63q-26 -26 -62 -26q-37 0 -62 25q-26 26 -26 64t26 64q26 27 62 27z" />
    <glyph glyph-name="uni2780" unicode="&#x2780;" horiz-adv-x="983" 
d="M507 761q179 0 305 -126q126 -128 126 -305q0 -178 -126 -304q-126 -127 -305 -127q-178 0 -304 126t-126 305t126 305t304 126zM507 694q-151 0 -256 -105q-106 -105 -106 -259t106 -259q105 -105 256 -105q152 0 258 106q105 105 105 258q0 152 -105 259
q-107 105 -258 105zM547 554v-388h93v-61h-264v61h100v327h-93v61h164z" />
    <glyph glyph-name="uni2781" unicode="&#x2781;" horiz-adv-x="983" 
d="M507 761q179 0 305 -126q126 -128 126 -305q0 -178 -126 -304q-126 -127 -305 -127q-178 0 -304 126t-126 305t126 305t304 126zM507 694q-151 0 -256 -105q-106 -105 -106 -259t106 -259q105 -105 256 -105q152 0 258 106q105 105 105 258q0 152 -105 259
q-107 105 -258 105zM503 561q66 0 108 -39q41 -39 41 -99q0 -45 -22 -80q-20 -33 -65 -80l-93 -97h199v-61h-323v16l160 172q37 40 54 67q17 28 17 59q0 33 -21 56q-21 22 -58 22q-40 0 -62 -24q-23 -26 -23 -60q0 -17 4 -38h-65q-5 25 -5 43q0 58 43 101q44 42 111 42z" />
    <glyph glyph-name="uni2782" unicode="&#x2782;" horiz-adv-x="983" 
d="M507 761q179 0 305 -126q126 -128 126 -305q0 -178 -126 -304q-126 -127 -305 -127q-178 0 -304 126t-126 305t126 305t304 126zM507 694q-151 0 -256 -105q-106 -105 -106 -259t106 -259q105 -105 256 -105q152 0 258 106q105 105 105 258q0 152 -105 259
q-107 105 -258 105zM648 554v-20l-113 -149q52 -7 88 -42q36 -36 36 -94q0 -67 -48 -109q-49 -42 -117 -42q-106 0 -158 96l50 36q47 -68 107 -68q39 0 65 24t26 63q0 38 -26 59q-28 20 -78 20h-49v20l109 143h-172v63h280z" />
    <glyph glyph-name="uni2783" unicode="&#x2783;" horiz-adv-x="983" 
d="M507 761q179 0 305 -126q126 -128 126 -305q0 -178 -126 -304q-126 -127 -305 -127q-178 0 -304 126t-126 305t126 305t304 126zM507 694q-151 0 -256 -105q-106 -105 -106 -259t106 -259q105 -105 256 -105q152 0 258 106q105 105 105 258q0 152 -105 259
q-107 105 -258 105zM532 554l-126 -308h139v133h70v-133h61v-63h-61v-78h-70v78h-226v20l138 351h75z" />
    <glyph glyph-name="uni2784" unicode="&#x2784;" horiz-adv-x="983" 
d="M507 761q179 0 305 -126q126 -128 126 -305q0 -178 -126 -304q-126 -127 -305 -127q-178 0 -304 126t-126 305t126 305t304 126zM507 694q-151 0 -256 -105q-106 -105 -106 -259t106 -259q105 -105 256 -105q152 0 258 106q105 105 105 258q0 152 -105 259
q-107 105 -258 105zM634 554v-63h-177v-105q23 4 58 4q63 0 109 -36q46 -37 46 -104q0 -68 -48 -110q-49 -43 -118 -43q-109 0 -161 97l50 36q47 -69 108 -69q42 0 68 25q26 24 26 63q0 38 -27 59q-28 20 -77 20h-103v226h246z" />
    <glyph glyph-name="uni2785" unicode="&#x2785;" horiz-adv-x="983" 
d="M507 761q179 0 305 -126q126 -128 126 -305q0 -178 -126 -304q-126 -127 -305 -127q-178 0 -304 126t-126 305t126 305t304 126zM507 694q-151 0 -256 -105q-106 -105 -106 -259t106 -259q105 -105 256 -105q152 0 258 106q105 105 105 258q0 152 -105 259
q-107 105 -258 105zM597 554l-116 -164q24 10 54 5q53 -7 87 -48q34 -40 34 -95q0 -67 -46 -110q-47 -44 -113 -44q-65 0 -112 44q-46 43 -46 111q0 25 9 51q9 25 19 41q16 25 34 51l112 158h84zM497 342q-36 0 -62 -26q-25 -25 -25 -63q0 -39 25 -64q25 -27 62 -27t63 27
q25 25 25 64t-25 64t-63 25z" />
    <glyph glyph-name="uni2786" unicode="&#x2786;" horiz-adv-x="983" 
d="M507 761q179 0 305 -126q126 -128 126 -305q0 -178 -126 -304q-126 -127 -305 -127q-178 0 -304 126t-126 305t126 305t304 126zM507 694q-151 0 -256 -105q-106 -105 -106 -259t106 -259q105 -105 256 -105q152 0 258 106q105 105 105 258q0 152 -105 259
q-107 105 -258 105zM671 555v-20l-217 -429h-78l200 384h-213v65h308z" />
    <glyph glyph-name="uni2787" unicode="&#x2787;" horiz-adv-x="983" 
d="M507 761q179 0 305 -126q126 -128 126 -305q0 -178 -126 -304q-126 -127 -305 -127q-178 0 -304 126t-126 305t126 305t304 126zM507 694q-151 0 -256 -105q-106 -105 -106 -259t106 -259q105 -105 256 -105q152 0 258 106q105 105 105 258q0 152 -105 259
q-107 105 -258 105zM508 561q62 0 102 -30q39 -31 39 -85q0 -68 -77 -106q99 -39 99 -118q0 -56 -45 -90q-46 -34 -118 -34q-74 0 -118 34q-45 34 -45 91q0 79 100 116q-79 37 -79 107q0 54 40 85q40 30 102 30zM508 504q-34 0 -53 -16q-20 -17 -20 -46q0 -26 18 -43t54 -30
q37 13 55 30q19 16 19 43q0 30 -21 46q-19 16 -52 16zM507 313q-45 -16 -68 -35q-23 -20 -23 -51q0 -33 24 -52q25 -20 68 -20q42 0 67 20q24 19 24 51t-23 52q-24 19 -69 35z" />
    <glyph glyph-name="uni2788" unicode="&#x2788;" horiz-adv-x="983" 
d="M508 761q178 0 304 -126t126 -305t-126 -305t-304 -126q-179 0 -305 126q-126 127 -126 305q0 177 126 305q126 126 305 126zM508 694q-152 0 -258 -106q-105 -105 -105 -258q0 -152 105 -259q106 -105 258 -105q150 0 257 105q105 105 105 259t-105 259
q-107 105 -257 105zM518 562q65 0 112 -44q46 -43 46 -111q0 -25 -9 -51q-9 -25 -19 -41q-16 -25 -34 -51l-112 -158h-84l116 164q-24 -10 -54 -5q-51 7 -86 48t-35 95q0 66 47 110t112 44zM518 498q-38 0 -63 -27q-25 -25 -25 -64t25 -64t63 -25q36 0 62 26q25 25 25 63
q0 39 -25 64q-26 27 -62 27z" />
    <glyph glyph-name="uni27F5" unicode="&#x27f5;" horiz-adv-x="1197" 
d="M1157 281l-982 1l195 -195l-46 -46l-265 265v18l265 264l46 -45l-194 -194h981v-68z" />
    <glyph glyph-name="uni27F6" unicode="&#x27f6;" horiz-adv-x="1197" 
d="M899 588l264 -264v-18l-264 -265l-46 46l194 195l-981 -1v68h981l-194 194z" />
    <glyph glyph-name="uniF8FF" unicode="&#xf8ff;" horiz-adv-x="722" 
d="M99 0v660h524v-660h-524zM458 123q36 0 58 22t22 54q0 26 -17 55q-17 30 -45 46l-24 -25q45 -44 45 -76q0 -18 -10 -28q-11 -11 -27 -11q-24 0 -43 27q-20 28 -54 103q83 46 111 78q28 29 28 62q0 38 -27 61q-29 21 -75 21q-3 0 -33 -2l26 55l-41 7l-33 -71
q-46 -9 -103 -36q-23 -66 -23 -161q0 -78 20 -158l42 -8q21 107 43 187q17 63 52 147q17 4 41 4q70 0 70 -50q0 -24 -26 -48q-29 -25 -114 -74l-1 -6q40 -101 67 -137q29 -38 71 -38zM231 202q-2 46 -2 81q0 86 23 157q20 12 51 20q-52 -132 -65 -258h-7z" />
    <glyph glyph-name="Alpha.ordn" horiz-adv-x="435" 
d="M343 244l-16 72h-185l-40 -72h-77l256 423h23l109 -423h-70zM315 370l-41 174l-101 -174h142z" />
    <glyph glyph-name="Eta.ordn" horiz-adv-x="475" 
d="M482 660l-73 -416h-68l32 190h-205l-32 -190h-68l73 416h68l-29 -165h204l30 165h68z" />
    <glyph glyph-name="Nu.ordn" horiz-adv-x="476" 
d="M414 660h68l-74 -423h-25l-198 284l-49 -277h-68l74 423h25l198 -285z" />
    <glyph glyph-name="Omicron.ordn" horiz-adv-x="507" 
d="M308 667q87 0 144 -57q56 -58 56 -142q0 -96 -69 -163q-70 -68 -165 -68q-87 0 -143 57q-57 57 -57 143q0 95 69 163q68 67 165 67zM304 604q-68 0 -114 -48q-47 -49 -47 -116q0 -60 39 -101q37 -39 98 -39q66 0 113 47q46 47 46 117q0 60 -38 101q-38 39 -97 39z" />
    <glyph glyph-name="Rho.ordn" horiz-adv-x="383" 
d="M273 660q62 0 99 -32q35 -33 35 -87q0 -61 -44 -99t-117 -38h-83l-27 -160h-68l73 416h132zM268 600h-69l-24 -136h77q86 0 86 75q0 61 -70 61z" />
    <glyph glyph-name="Sigma.ordn" horiz-adv-x="375" 
d="M413 660l-11 -62h-189l79 -140l-2 -15l-121 -138h190l-12 -61h-299l2 15l167 199l-100 186l4 16h292z" />
    <glyph glyph-name="Upsilon.ordn" horiz-adv-x="404" 
d="M450 660l-183 -249l-29 -167h-67l29 166l-98 250h70l69 -177l131 177h78z" />
    <glyph glyph-name="alpha.ordn" horiz-adv-x="434" 
d="M408 298h9q3 1 7 1l-11 -57q-11 -3 -28 -3q-59 0 -69 51q-40 -52 -112 -52q-60 0 -98 42q-38 43 -38 103q0 66 44 122q43 55 120 55q76 0 110 -54l8 48h67l-35 -202q-3 -15 -3 -25q0 -29 29 -29zM221 296q47 0 75 34q27 33 29 79q1 42 -24 67q-26 26 -65 26
q-44 0 -73 -33q-30 -33 -30 -79q0 -42 24 -68t64 -26z" />
    <glyph glyph-name="eta.ordn" horiz-adv-x="395" 
d="M268 560q47 0 74 -29t27 -73q0 -15 -4 -40l-49 -287h-67l50 281q3 18 3 28q0 28 -15 44q-17 15 -42 15q-29 0 -49 -18q-22 -20 -26 -50l-32 -187h-67l36 199q4 20 4 29q0 26 -30 26h-15l10 56q9 4 29 4q53 0 66 -42q41 44 97 44z" />
    <glyph glyph-name="nu.ordn" horiz-adv-x="353" 
d="M314 554h75l-201 -317h-23l-91 317h71l51 -193z" />
    <glyph glyph-name="omicron.ordn" horiz-adv-x="410" 
d="M242 560q67 0 110 -43q44 -44 44 -109q0 -70 -51 -120q-52 -50 -122 -50q-67 0 -110 43q-44 44 -44 109q0 72 51 121q50 49 122 49zM240 499q-45 0 -75 -31q-30 -32 -30 -77q0 -41 25 -66q26 -26 65 -26q45 0 75 31q30 32 30 77q0 42 -25 67t-65 25z" />
    <glyph glyph-name="rho.ordn" horiz-adv-x="419" 
d="M253 560q69 0 111 -42t42 -106q0 -67 -43 -120q-43 -55 -116 -55q-72 0 -112 52l-28 -158h-67l49 275q14 75 56 114q41 40 108 40zM241 298q41 0 70 32q27 30 29 77q0 40 -23 66t-63 26q-47 0 -74 -34q-27 -35 -27 -77q0 -40 25 -65t63 -25z" />
    <glyph glyph-name="uni03C2.ordn" horiz-adv-x="349" 
d="M242 560q46 0 81 -21q35 -23 51 -58l-51 -32q-30 50 -83 50q-43 0 -74 -29q-31 -30 -31 -75q0 -37 21 -56q22 -20 65 -41q8 -5 21.5 -11.5t17.5 -8.5q15 -9 26 -18q15 -13 20 -25q5 -15 5 -31q0 -28 -25 -74h-67q22 40 22 61q0 13 -8 24q-8 10 -17 15l-6 3t-10.5 5
t-12.5 6q-28 13 -41 21q-15 9 -36 27q-20 16 -31 42q-10 24 -10 57q0 71 51 121q51 48 122 48z" />
    <glyph glyph-name="sigma.ordn" horiz-adv-x="413" 
d="M458 554l-10 -58h-92q37 -33 37 -92q0 -70 -50 -118q-51 -48 -122 -48q-66 0 -109 43q-43 42 -43 107q0 73 52 119q52 47 132 47h205zM224 299q44 0 74 30q29 29 29 76q0 43 -24 65q-26 23 -64 23q-44 0 -73 -28q-31 -28 -31 -74q0 -42 25 -67q24 -25 64 -25z" />
    <glyph glyph-name="upsilon.ordn" horiz-adv-x="379" 
d="M358 554q6 -44 6 -89q0 -97 -38 -162t-118 -65q-55 0 -90 32t-35 84q0 17 3 35l28 165h67l-29 -165q-3 -18 -3 -30q0 -27 17 -44q16 -16 44 -16q88 0 88 181q0 36 -6 74h66z" />
    <glyph glyph-name="zero.lf" horiz-adv-x="615" 
d="M370 671q99 0 152 -68q52 -67 52 -183q0 -49 -9 -103q-7 -54 -30 -114q-23 -61 -54 -106t-85 -78q-52 -30 -118 -30q-99 0 -153 67q-52 67 -52 184q0 45 8 103q10 57 31 113q23 63 55 107q31 45 85 78q52 30 118 30zM361 600q-59 0 -102 -40q-42 -38 -65 -99
q-20 -54 -32 -116q-10 -53 -10 -104q0 -96 38 -139q39 -42 97 -42q57 0 101 39q42 39 65 100q20 54 32 116q10 53 10 104q0 97 -39 139q-38 42 -95 42z" />
    <glyph glyph-name="one.lf" horiz-adv-x="381" 
d="M318 660h29l-116 -660h-78l100 575l-151 -34l-7 69z" />
    <glyph glyph-name="two.lf" 
d="M338 207l-167 -137h305l-12 -70h-459l3 22l284 236q77 65 111 115q34 52 34 105q0 56 -31 88q-32 33 -89 33q-71 0 -105 -48q-36 -48 -36 -112q0 -21 1 -27h-80q-1 5 -1 31q0 88 59 159q59 69 165 69q92 0 145 -52q53 -53 53 -136q0 -71 -42 -135q-44 -64 -138 -141z" />
    <glyph glyph-name="three.lf" horiz-adv-x="538" 
d="M538 660l-5 -23l-211 -228q66 -14 110 -65q44 -52 44 -124q0 -90 -65 -161q-64 -70 -178 -70q-87 0 -143 44t-81 112l64 33q52 -118 162 -118q76 0 120 47q42 46 42 109t-43 97q-44 35 -117 35h-46l4 23l201 219h-266l13 70h395z" />
    <glyph glyph-name="four.lf" horiz-adv-x="548" 
d="M517 191l-12 -68h-96l-22 -123h-78l22 123h-331l4 23l302 514h84l-276 -469h229l38 220h78l-38 -220h96z" />
    <glyph glyph-name="five.lf" horiz-adv-x="555" 
d="M507 590h-264l-32 -182q39 6 71 6q96 0 154 -52q58 -51 58 -139q0 -94 -65 -164q-66 -70 -179 -70q-89 0 -145 44q-57 45 -82 112l61 33q54 -118 166 -118q78 0 122 47q43 46 43 110q0 60 -40 94q-41 35 -117 35h-134l54 314h342z" />
    <glyph glyph-name="six.lf" horiz-adv-x="552" 
d="M294 425q86 0 144 -58t58 -147q0 -97 -69 -163q-70 -67 -167 -67q-92 0 -154 60t-62 152q0 32 8 62q8 28 30 63q24 36 32 47q5 7 45 55l192 231h100l-206 -242q18 7 49 7zM262 61q65 0 110 45t45 113q0 60 -38 101q-37 39 -100 39q-66 0 -111 -45t-45 -112q0 -60 39 -101
q37 -40 100 -40z" />
    <glyph glyph-name="seven.lf" horiz-adv-x="501" 
d="M109 660h440l-4 -23l-444 -637h-87l416 591h-334z" />
    <glyph glyph-name="eight.lf" horiz-adv-x="577" 
d="M387 339q122 -65 122 -160q0 -72 -58 -130q-59 -59 -173 -59q-100 0 -168 46q-68 45 -68 127q0 69 51 118q52 49 139 70q-97 60 -97 143q0 70 54 124q56 53 152 53q82 0 141 -41q58 -42 58 -119q0 -119 -153 -172zM341 601q-59 0 -94 -30q-33 -30 -33 -75q0 -35 23 -61
q22 -24 77 -55q68 19 108 49q39 29 39 76q0 46 -34 71q-32 25 -86 25zM275 60q79 0 117 36t38 83q0 42 -32 71q-29 26 -99 59q-91 -21 -134 -54q-44 -33 -44 -83t40 -81t114 -31z" />
    <glyph glyph-name="nine.lf" horiz-adv-x="552" 
d="M324 670q92 0 153 -60q62 -60 62 -151q0 -29 -7 -54q-8 -27 -15 -45q-9 -19 -27 -46q-20 -28 -30 -39l-36 -44l-192 -231h-99l206 242q-20 -7 -50 -7q-86 0 -144 58t-58 147q0 97 70 164q71 66 167 66zM305 301q67 0 110 45q45 45 45 112q0 60 -38 101q-37 40 -100 40
q-66 0 -111 -45t-45 -113q0 -60 38 -100q39 -40 101 -40z" />
    <glyph glyph-name="zero.slash.lf" horiz-adv-x="615" 
d="M370 671q99 0 152 -68q52 -67 52 -183q0 -49 -9 -103q-7 -54 -30 -114q-23 -61 -54 -106t-85 -78q-52 -30 -118 -30q-99 0 -153 67q-52 67 -52 184q0 45 8 103q10 57 31 113q23 63 55 107q31 45 85 78q52 30 118 30zM361 600q-59 0 -102 -40q-42 -38 -65 -99
q-20 -54 -32 -116q-10 -53 -10 -104q0 -14 1 -17l330 282q-28 94 -122 94zM287 60q57 0 101 39q42 39 65 100q20 54 32 116q10 53 10 104v15l-331 -282q32 -92 123 -92z" />
    <glyph glyph-name="zero.slash" horiz-adv-x="663" 
d="M350 544q113 0 190 -76q78 -76 78 -187q0 -120 -89 -206t-210 -86q-113 0 -189 76q-76 75 -76 187q0 122 88 207t208 85zM349 477q-89 0 -154 -66q-64 -67 -64 -159q0 -47 19 -89l335 258q-54 56 -136 56zM321 56q91 0 156 66q64 64 64 158q0 47 -20 89l-335 -258
q52 -55 135 -55z" />
    <glyph glyph-name="zero.tf" 
d="M340 670q94 0 144 -65q48 -66 48 -185q0 -65 -13 -130q-13 -63 -43 -138q-31 -72 -88 -116q-58 -46 -136 -46q-95 0 -143 67q-49 65 -49 184q0 46 8 102q8 53 27 113q19 57 50 106q29 45 81 77q49 31 114 31zM331 598q-43 0 -78 -27q-36 -30 -55 -69q-22 -42 -35 -92
q-15 -60 -19 -95q-5 -48 -5 -82q0 -171 121 -171q53 0 93 40t61 102q20 62 30 118q9 57 9 106q0 170 -122 170z" />
    <glyph glyph-name="one.tf" 
d="M313 68h174l-11 -68h-448l12 68h195l88 503l-186 -49l-8 72l261 70h28z" />
    <glyph glyph-name="two.tf" 
d="M345 207l-170 -139h309l-11 -68h-459l3 20l284 236q79 66 112 117q34 52 34 105q0 54 -32 88q-33 34 -90 34q-71 0 -106 -48q-35 -49 -35 -113q0 -21 1 -27h-79q-1 5 -1 31q0 89 58 159q57 69 164 69q93 0 146 -52q53 -53 53 -136q0 -70 -43 -134q-45 -67 -138 -142z" />
    <glyph glyph-name="three.tf" 
d="M540 660l-5 -23l-212 -228q66 -13 111 -64q44 -52 44 -125q0 -90 -65 -161q-64 -70 -178 -70q-87 0 -143 44t-81 112l62 33q52 -118 163 -118q76 0 120 47q43 46 43 109t-43 97q-44 35 -117 35h-46l4 23l204 220h-268l12 69h395z" />
    <glyph glyph-name="four.tf" 
d="M511 191l-12 -68h-88l-21 -123h-78l21 123h-328l3 22l298 515h84l-273 -469h228l38 212h78l-38 -212h88z" />
    <glyph glyph-name="five.tf" 
d="M510 591h-264l-32 -182q48 5 69 5q98 0 156 -52q58 -51 58 -139q0 -94 -65 -164q-66 -70 -179 -70q-89 0 -145 44q-57 45 -82 112l61 33q54 -118 166 -118q78 0 122 47q43 46 43 110q0 60 -40 94q-41 35 -117 35h-134l54 314h342z" />
    <glyph glyph-name="six.tf" 
d="M298 425q86 0 144 -58q59 -59 59 -146q0 -98 -70 -164q-70 -67 -167 -67q-92 0 -153 60q-62 60 -62 152q0 32 8 62q7 28 29 62q21 32 33 48q9 13 45 55l192 231h96l-201 -242q18 7 47 7zM267 60q66 0 112 46q46 45 46 113q0 61 -39 102q-40 40 -102 40q-66 0 -112 -46
t-46 -113q0 -61 40 -101q39 -41 101 -41z" />
    <glyph glyph-name="seven.tf" 
d="M142 660h439l-3 -23l-443 -637h-88l414 591h-331z" />
    <glyph glyph-name="eight.tf" 
d="M373 337q126 -61 126 -159q0 -71 -58 -129q-57 -59 -171 -59q-98 0 -165 45q-67 46 -67 128q0 70 52 119t138 70q-97 58 -97 142q0 69 53 122q53 52 151 52q83 0 139 -40q56 -41 56 -116q0 -124 -157 -175zM333 605q-57 0 -94 -32q-35 -32 -35 -78q0 -37 25 -63
q29 -29 77 -55q67 18 110 49q41 29 41 78q0 45 -35 74q-34 27 -89 27zM266 53q80 0 117 39q38 40 38 87q0 42 -32 72q-35 31 -94 61q-93 -23 -135 -56q-44 -35 -44 -86q0 -53 40 -84q40 -33 110 -33z" />
    <glyph glyph-name="nine.tf" 
d="M323 670q93 0 154 -60q62 -60 62 -152q0 -35 -7 -62t-30 -62q-24 -36 -32 -47q-2 -3 -17.5 -21t-28.5 -35l-192 -231h-100l206 242q-18 -7 -49 -7q-85 0 -143 58q-59 58 -59 147q0 97 70 164q71 66 166 66zM304 301q66 0 111 45t45 112q0 60 -38 101q-39 40 -101 40
q-65 0 -110 -45t-45 -113q0 -61 39 -101q37 -39 99 -39z" />
    <glyph glyph-name="zero.slash.tf" 
d="M340 670q94 0 144 -65q48 -66 48 -185q0 -65 -13 -130q-13 -63 -43 -138q-31 -72 -88 -116q-58 -46 -136 -46q-95 0 -143 67q-49 65 -49 184q0 46 8 102q8 53 27 113q19 57 50 106q29 45 81 77q49 31 114 31zM333 599q-53 0 -94 -39t-60 -100q-21 -65 -29 -117
q-9 -49 -11 -107l308 262q-20 101 -114 101zM260 61q52 0 93 39q39 38 59 98q19 57 30 115q8 52 10 108l-306 -261q21 -99 114 -99z" />
    <glyph glyph-name="zero.tosf" 
d="M297 543q105 0 173 -72q66 -70 66 -178q0 -50 -17 -104q-16 -51 -48 -98q-32 -46 -84 -74t-117 -28q-106 0 -172 71q-66 70 -66 179q0 71 27 138q29 67 90 117q62 49 148 49zM295 472q-48 0 -86 -23q-38 -24 -57 -61q-20 -39 -30 -74q-10 -36 -10 -74q0 -77 44 -129
q44 -51 118 -51q50 0 87 24t57 62t30 75q9 38 9 73q0 76 -44 128q-44 50 -118 50z" />
    <glyph glyph-name="one.tosf" 
d="M388 533l-82 -467h178l-12 -66h-451l12 66h195l70 399h-178l12 68h256z" />
    <glyph glyph-name="two.tosf" 
d="M283 125l-93 -60h274l-12 -65h-454l4 20l228 145q46 30 72 48q23 16 54 44q27 25 42 52q12 27 12 57q0 46 -30 77q-31 31 -86 31q-65 0 -97 -44t-32 -92q0 -17 2 -35h-75q-5 28 -5 43q0 80 60 138q58 60 152 60q85 0 137 -49q53 -50 53 -124q0 -71 -51 -127
q-55 -57 -155 -119z" />
    <glyph glyph-name="three.tosf" 
d="M517 533l-4 -23l-210 -223q67 -13 111 -65t44 -124q0 -91 -66 -161t-178 -70q-87 0 -143 44q-57 45 -82 111l63 34q53 -119 163 -119q75 0 119 47q43 46 43 110q0 62 -42 97q-44 35 -116 35h-47l4 22l204 217h-270l12 68h395z" />
    <glyph glyph-name="four.tosf" 
d="M485 65l-12 -65h-89l-21 -121h-78l21 121h-328l4 23l301 510h83l-277 -468h229l38 220h78l-39 -220h90z" />
    <glyph glyph-name="five.tosf" 
d="M488 465h-264l-32 -181q43 7 71 7q97 0 155 -51q58 -52 58 -140q0 -94 -65 -164q-66 -69 -179 -69q-89 0 -144 43q-57 44 -83 112l61 34q27 -59 66 -89t99 -30q79 0 122 46q43 47 43 111q0 61 -40 95q-41 35 -117 35h-133l53 309h342z" />
    <glyph glyph-name="six.tosf" 
d="M300 425q87 0 145 -58t58 -146q0 -98 -69 -164q-70 -67 -167 -67q-91 0 -153 60t-62 152q0 32 8 62q7 28 29 62q21 32 33 48q9 13 45 55l192 231h96l-201 -241q21 6 46 6zM270 60q66 0 112 46q46 45 46 113q0 61 -39 102q-40 40 -102 40q-66 0 -112 -46t-46 -113
q0 -61 40 -101q39 -41 101 -41z" />
    <glyph glyph-name="seven.tosf" 
d="M119 533h440l-3 -23l-440 -631h-87l411 586h-333z" />
    <glyph glyph-name="eight.tosf" 
d="M373 337q126 -61 126 -159q0 -71 -58 -129q-57 -59 -171 -59q-98 0 -165 45q-67 46 -67 128q0 70 52 119t138 70q-97 58 -97 142q0 69 53 122q53 52 151 52q83 0 139 -40q56 -41 56 -116q0 -124 -157 -175zM333 605q-57 0 -94 -32q-35 -32 -35 -78q0 -37 25 -63
q29 -29 77 -55q67 18 110 49q41 29 41 78q0 45 -35 74q-34 27 -89 27zM266 53q80 0 117 39q38 40 38 87q0 42 -32 72q-35 31 -94 61q-93 -23 -135 -56q-44 -35 -44 -86q0 -53 40 -84q40 -33 110 -33z" />
    <glyph glyph-name="nine.tosf" 
d="M309 544q91 0 153 -60q61 -60 61 -152q0 -32 -8 -62q-7 -26 -28 -61q-22 -36 -33 -49q-2 -3 -10 -12.5t-17 -20.5l-18 -22l-189 -226h-95l197 236q-21 -6 -46 -6q-86 0 -145 59t-59 146q0 97 70 164q71 66 167 66zM289 173q67 0 113 46t46 113q0 63 -40 103t-102 40
q-66 0 -111 -45q-46 -46 -46 -114q0 -62 40 -102q39 -41 100 -41z" />
    <glyph glyph-name="zero.slash.tosf" 
d="M299 543q105 0 173 -72q66 -70 66 -178q0 -50 -17 -104q-16 -51 -48 -98q-32 -46 -84 -74t-117 -28q-106 0 -172 71q-66 70 -66 179q0 71 27 138q29 67 90 117q62 49 148 49zM298 477q-52 0 -89 -24q-39 -24 -59 -62q-19 -35 -31 -76q-10 -37 -10 -76q0 -34 9 -64
l309 240q-47 62 -129 62zM275 55q42 0 75 16q32 16 54 43q22 26 35 59q15 36 20 64q5 33 5 58q0 33 -9 62l-309 -240q47 -62 129 -62z" />
    <glyph glyph-name="zero.dnom" horiz-adv-x="410" 
d="M231 423q64 0 97 -41q32 -43 32 -116q0 -40 -9 -84q-11 -46 -30 -88q-21 -44 -60 -73q-38 -28 -91 -28q-65 0 -98 43q-34 41 -34 116q0 43 10 84q9 44 30 87q21 44 61 72q38 28 92 28zM222 362q-33 0 -56 -22t-36 -58t-17 -67q-6 -33 -6 -62q0 -99 71 -99q31 0 56 23
q23 21 37 58q12 34 18 68q5 37 5 61q0 52 -20 75q-21 23 -52 23z" />
    <glyph glyph-name="one.dnom" horiz-adv-x="352" 
d="M248 416l-63 -356h90l-10 -60h-261l11 60h103l53 296h-99l11 60h165z" />
    <glyph glyph-name="two.dnom" horiz-adv-x="369" 
d="M205 124l-78 -64h169l-11 -60h-292l3 15l175 153q85 73 85 128q0 30 -18 48t-50 18q-37 0 -55 -25q-19 -25 -19 -63v-12h-66v16q0 59 37 102t106 43q61 0 96 -35t35 -88q0 -44 -27 -84q-27 -38 -90 -92z" />
    <glyph glyph-name="three.dnom" horiz-adv-x="354" 
d="M333 416l-3 -19l-124 -138q38 -11 63 -42t25 -76q0 -57 -41 -103q-42 -45 -115 -45q-58 0 -93 29q-36 29 -51 73l52 28q30 -69 92 -69q44 0 66 25q23 26 23 59q0 32 -23 52q-22 18 -66 18h-38l3 19l115 129h-151l11 60h255z" />
    <glyph glyph-name="four.dnom" horiz-adv-x="355" 
d="M319 130l-11 -57h-54l-12 -73h-63l13 73h-207l3 19l179 324h73l-159 -286h121l22 127h62l-22 -127h55z" />
    <glyph glyph-name="five.dnom" horiz-adv-x="365" 
d="M314 356h-160l-16 -94q32 2 35 2q57 0 95 -32q37 -31 37 -88q0 -61 -42 -106t-115 -45q-57 0 -94 28q-36 27 -53 74l53 28q28 -69 95 -69q42 0 66 24q23 26 23 60q0 32 -22 51t-65 19h-87l36 208h225z" />
    <glyph glyph-name="six.dnom" horiz-adv-x="373" 
d="M189 275q51 0 88 -37t37 -94q0 -64 -45 -107q-46 -43 -108 -43q-57 0 -98 39t-41 99q0 11 1 17l3 15q2 10 5 15q1 3 3 8t2 6q2 5 8 14q7 11 8 13q2 5 9 14q5 7 10 12l1 2q2 2 4.5 5.5t5.5 6.5t5.5 6.5t4.5 5.5l1 2l120 142h84l-119 -142q2 1 11 1zM164 55q35 0 59 25
q24 24 24 61q0 33 -20 56q-19 21 -53 21q-36 0 -60 -24q-25 -25 -25 -62q0 -32 21 -55q21 -22 54 -22z" />
    <glyph glyph-name="seven.dnom" horiz-adv-x="326" 
d="M59 416h280l-3 -19l-262 -397h-77l239 356h-188z" />
    <glyph glyph-name="eight.dnom" horiz-adv-x="382" 
d="M248 210q69 -36 69 -94q0 -47 -37 -84t-110 -37q-62 0 -105 27q-45 28 -45 84q0 41 29 73q27 30 79 44q-51 35 -51 86q0 45 35 80q34 34 97 34q53 0 91 -26q37 -25 37 -77q0 -74 -89 -110zM208 370q-30 0 -50 -17q-19 -18 -19 -44q0 -19 13 -32q13 -15 41 -31
q83 24 83 68q0 25 -19 41q-19 15 -49 15zM166 48q43 0 64 21q21 20 21 47q0 23 -16 39q-15 14 -52 33q-52 -13 -74 -31q-23 -18 -23 -45q0 -30 21 -46q21 -18 59 -18z" />
    <glyph glyph-name="nine.dnom" horiz-adv-x="373" 
d="M201 422q59 0 99 -39t40 -99q0 -11 -1 -16q0 -3 -0.5 -8t-1.5 -8q0 -2 -1 -4t-2 -5.5t-2 -5.5t-5 -14q0 -1 -1.5 -3t-3.5 -5t-3 -6q-5 -6 -8 -12q0 -1 -1.5 -3t-4 -5t-4.5 -6l-4 -6t-3 -5l-2 -2l-2 -2q-1 -2 -4 -5.5t-6 -6.5t-5.5 -6.5t-4.5 -5.5l-1 -2l-120 -142h-84
l120 142q-3 -1 -13 -1q-51 0 -87 37q-37 37 -37 94q0 64 46 107q44 43 107 43zM188 198q36 0 61 25q24 24 24 60q0 33 -21 56q-21 22 -54 22q-35 0 -59 -24q-24 -25 -24 -62q0 -33 20 -55q19 -22 53 -22z" />
    <glyph glyph-name="zero.numr" horiz-adv-x="410" 
d="M274 667q64 0 97 -42q32 -41 32 -115q0 -42 -9 -85q-10 -42 -30 -88q-21 -43 -60 -72q-38 -28 -91 -28q-65 0 -98 42q-34 43 -34 117q0 42 10 83q9 45 30 88q21 44 61 72q38 28 92 28zM265 606q-31 0 -56 -23q-24 -23 -36 -57q-13 -37 -17 -68q-6 -32 -6 -61
q0 -99 71 -99q31 0 56 23q23 21 37 58q12 34 18 68q5 37 5 61q0 52 -20 75q-21 23 -52 23z" />
    <glyph glyph-name="one.numr" horiz-adv-x="352" 
d="M291 660l-63 -356h90l-10 -60h-261l11 60h103l53 296h-99l11 60h165z" />
    <glyph glyph-name="two.numr" horiz-adv-x="369" 
d="M248 368l-79 -64h170l-11 -60h-292l3 15l175 153q85 73 85 128q0 30 -18 48t-50 18q-37 0 -55 -25q-19 -25 -19 -63v-12h-66v16q0 59 37 102t106 43q61 0 96 -35t35 -88q0 -44 -27 -84q-27 -38 -90 -92z" />
    <glyph glyph-name="three.numr" horiz-adv-x="354" 
d="M376 660l-3 -19l-124 -138q37 -11 63 -42q25 -31 25 -76q0 -57 -41 -103q-42 -45 -115 -45q-58 0 -93 29q-36 29 -51 73l52 28q30 -69 92 -69q44 0 66 25q23 26 23 59q0 32 -23 52q-23 18 -66 18h-37h-1l3 19l116 129h-152l11 60h255z" />
    <glyph glyph-name="four.numr" horiz-adv-x="355" 
d="M362 374l-11 -57h-54l-12 -73h-63l13 73h-207l3 19l179 324h73l-159 -286h121l22 127h62l-22 -127h55z" />
    <glyph glyph-name="five.numr" horiz-adv-x="365" 
d="M357 600h-160l-17 -95q20 3 36 3q57 0 95 -32q37 -31 37 -88q0 -61 -42 -106t-115 -45q-56 0 -94 29q-36 28 -53 73l53 28q29 -69 95 -69q42 0 66 25q23 25 23 59q0 32 -22 51t-65 19h-87l36 208h225z" />
    <glyph glyph-name="six.numr" horiz-adv-x="373" 
d="M232 519q51 0 88 -37t37 -94q0 -64 -45 -107q-46 -43 -108 -43q-57 0 -99 39q-40 39 -40 99q0 11 1 16q0 3 0.5 8t1.5 7q0 3 5 16q2 4 5 13q1 4 8 14q5 7 8 13l10 14l4 6t4 5l1 2l1 2q2 2 5 5.5t6 6.5t5.5 6.5t3.5 5.5l2 2l120 142h84l-119 -141h11zM207 299q35 0 59 25
q24 24 24 61q0 33 -20 56q-20 21 -53 21q-36 0 -60 -24q-25 -25 -25 -62q0 -32 21 -55q21 -22 54 -22z" />
    <glyph glyph-name="seven.numr" horiz-adv-x="326" 
d="M102 660h280l-3 -19l-262 -397h-77l239 356h-188z" />
    <glyph glyph-name="eight.numr" horiz-adv-x="382" 
d="M291 454q69 -36 69 -94q0 -46 -37 -83q-38 -38 -110 -38q-62 0 -106 28q-44 27 -44 83q0 42 28 73q27 30 81 44q-52 34 -52 86q0 45 35 80q34 34 97 34q53 0 91 -26q37 -25 37 -77q0 -74 -89 -110zM251 614q-30 0 -50 -17q-19 -18 -19 -44q0 -19 13 -32q11 -14 41 -31
q83 24 83 68q0 25 -19 41q-20 15 -49 15zM209 292q43 0 64 21q21 19 21 47q0 23 -16 39q-16 15 -51 33q-53 -14 -75 -31q-23 -18 -23 -45q0 -30 21 -46q21 -18 59 -18z" />
    <glyph glyph-name="nine.numr" horiz-adv-x="373" 
d="M244 666q58 0 99 -39q40 -39 40 -99q0 -11 -1 -16q0 -3 -0.5 -8t-1.5 -7q0 -2 -5 -16q-2 -4 -5 -13q-1 -4 -8 -14q-5 -7 -8 -13l-10 -14l-4 -6t-4 -5l-1 -2l-1 -2q-2 -2 -5 -5.5t-6 -6.5t-5.5 -6.5t-3.5 -5.5l-2 -2l-120 -142h-84l119 141h-12q-51 0 -87 37
q-37 37 -37 94q0 64 46 107q44 43 107 43zM231 442q36 0 61 25q24 24 24 60q0 33 -21 56q-21 22 -54 22q-35 0 -59 -24q-24 -25 -24 -62q0 -33 20 -55q19 -22 53 -22z" />
    <glyph glyph-name="backslash.case" horiz-adv-x="594" 
d="M172 760l355 -860h-73l-355 860h73z" />
    <glyph glyph-name="periodcentered.case" horiz-adv-x="270" 
d="M155 417q26 0 44 -18q19 -18 19 -45q0 -29 -19 -45q-18 -18 -44 -18t-44 18q-19 16 -19 45q0 27 19 45q18 18 44 18z" />
    <glyph glyph-name="bullet.case" horiz-adv-x="377" 
d="M201 437q53 0 92 -36q39 -38 39 -94t-39 -92q-38 -37 -92 -37t-92 37q-40 36 -40 92q0 57 39 94q39 36 93 36z" />
    <glyph glyph-name="slash.case" horiz-adv-x="591" 
d="M676 761l-646 -861h-84l645 861h85z" />
    <glyph glyph-name="comma.subs" horiz-adv-x="211" 
d="M104 -23l-68 -209h-54l44 209h78z" />
    <glyph glyph-name="period.subs" horiz-adv-x="211" 
d="M50 -27q21 0 36 -15q14 -14 14 -36q0 -20 -14 -36q-16 -14 -36 -14q-22 0 -36 14q-15 14 -15 36t15 36q14 15 36 15z" />
    <glyph glyph-name="comma.sups" horiz-adv-x="211" 
d="M189 461l-68 -209h-53l44 209h77z" />
    <glyph glyph-name="period.sups" horiz-adv-x="210" 
d="M135 458q21 0 36 -15q14 -16 14 -37t-14 -35q-15 -15 -36 -15q-22 0 -36 14q-15 14 -15 36t15 37q13 15 36 15z" />
    <glyph glyph-name="braceleft.case" horiz-adv-x="397" 
d="M377 760h60l-11 -68h-50q-58 0 -77 -33q-20 -35 -20 -101v-102q0 -58 -18 -89q-20 -32 -63 -41q47 -11 47 -61q0 -31 -32 -119t-32 -121q0 -57 68 -57h49l-12 -68h-59q-54 0 -88 28t-34 82q0 43 32 131q32 87 32 113q0 41 -52 41h-59l11 68h59q44 0 60 22q17 22 17 71
v109q0 94 40 144q39 51 132 51z" />
    <glyph glyph-name="braceright.case" horiz-adv-x="397" 
d="M312 364h59l-12 -68h-58q-43 0 -60 -21q-17 -22 -17 -71v-109q0 -93 -39 -144q-41 -51 -133 -51h-61l12 68h50q59 0 78 33q19 34 19 101v102q0 58 19 89q18 32 62 41q-47 11 -47 61q0 31 32 119t32 121q0 57 -69 57h-48l11 68h60q54 0 88 -28t34 -82q0 -43 -32 -130
q-32 -88 -32 -114q0 -42 52 -42z" />
    <glyph glyph-name="bracketleft.case" horiz-adv-x="348" 
d="M385 760l-11 -68h-117l-128 -722h117l-12 -70h-191l151 860h191z" />
    <glyph glyph-name="bracketright.case" horiz-adv-x="348" 
d="M336 760l-151 -860h-191l12 68h117l127 722h-116l11 70h191z" />
    <glyph glyph-name="parenleft.case" horiz-adv-x="338" 
d="M374 762l23 -54q-62 -29 -109 -85q-49 -56 -74 -126q-26 -66 -40 -140q-13 -68 -13 -142q0 -188 101 -271l-39 -47q-138 95 -138 321q0 76 17 161q16 83 51 159q34 78 91 137q57 62 130 87z" />
    <glyph glyph-name="parenright.case" horiz-adv-x="338" 
d="M146 762q138 -94 138 -321q0 -76 -17 -161q-17 -82 -51 -159q-33 -77 -91 -138t-130 -86l-23 54q62 29 109 85q49 56 74 125q26 68 40 141q13 68 13 142q0 188 -101 271z" />
    <glyph glyph-name="emdash.case" horiz-adv-x="1000" 
d="M977 387l-13 -65h-900l13 65h900z" />
    <glyph glyph-name="endash.case" horiz-adv-x="500" 
d="M483 387l-12 -65h-413l11 65h414z" />
    <glyph glyph-name="uni2015.case" horiz-adv-x="1000" 
d="M977 387l-13 -65h-900l13 65h900z" />
    <glyph glyph-name="hyphen.case" horiz-adv-x="340" 
d="M314 387l-12 -65h-234l12 65h234z" />
    <glyph glyph-name="uni00AD.case" horiz-adv-x="340" 
d="M314 387l-12 -65h-234l12 65h234z" />
    <glyph glyph-name="guillemotleft.case" horiz-adv-x="502" 
d="M305 464l-169 -157l114 -156l-56 -41l-146 190l4 22l208 188zM502 464l-169 -157l113 -156l-55 -41l-146 190l4 22l208 188z" />
    <glyph glyph-name="guillemotright.case" horiz-adv-x="503" 
d="M281 322l-3 -22l-208 -190l-45 48l169 157l-114 154l56 41zM333 510l145 -188l-4 -22l-207 -190l-45 48l168 157l-113 154z" />
    <glyph glyph-name="guilsinglleft.case" horiz-adv-x="305" 
d="M305 464l-169 -157l114 -156l-56 -41l-146 190l4 22l208 188z" />
    <glyph glyph-name="guilsinglright.case" horiz-adv-x="306" 
d="M136 510l145 -188l-3 -22l-208 -190l-45 48l169 157l-114 154z" />
    <glyph glyph-name="cent.tf" 
d="M316 145q86 3 144 73l50 -45q-78 -99 -205 -99h-1l-30 -168h-77l32 179q-75 22 -122 84q-46 61 -46 144q0 106 74 183q73 76 180 84l30 170h77l-31 -174q101 -21 151 -111l-59 -39q-39 61 -104 78zM140 316q0 -56 28 -97q26 -41 74 -61l61 350q-69 -10 -116 -65t-47 -127
z" />
    <glyph glyph-name="currency.tf" 
d="M512 340q0 -84 -59 -152l82 -92l-49 -45l-84 94q-52 -33 -116 -33q-78 0 -137 48l-104 -102l-46 49l106 102q-31 49 -31 110q0 84 59 152l-76 87l48 45l79 -90q53 32 115 32q82 0 140 -49l106 100l46 -50l-109 -100q30 -50 30 -106zM149 323q0 -61 39 -101q39 -41 98 -41
q64 0 107 45q44 46 44 110q0 60 -39 99q-40 39 -99 39q-63 0 -106 -43q-44 -44 -44 -108z" />
    <glyph glyph-name="dollar.tf" 
d="M356 347q115 -63 115 -154q0 -65 -48 -117q-49 -51 -137 -55l-20 -115h-77l22 123q-102 27 -160 136l60 37q47 -79 112 -101l38 215l-12 7q-113 62 -113 151q0 65 49 111q49 49 132 50l20 115h77l-22 -125q75 -23 121 -101l-60 -39q-32 50 -73 68l-35 -199zM215 477
q0 -45 60 -83l29 169q-44 -5 -66 -28q-23 -26 -23 -58zM299 93q43 6 69 32q24 25 24 62q0 49 -61 89z" />
    <glyph glyph-name="Euro.tf" 
d="M438 600q-80 0 -136 -44q-56 -46 -86 -117h302l-30 -68h-294q-10 -46 -10 -86h264l-30 -68h-227q17 -75 67 -115q49 -42 130 -42q53 0 103 19l9 -67q-58 -23 -121 -23q-111 0 -182 63q-71 62 -89 165h-102l12 68h85q1 39 10 86h-78l12 68h85q38 101 114 167q77 65 189 65
q94 0 168 -47l-28 -61q-64 37 -137 37z" />
    <glyph glyph-name="florin.tf" 
d="M488 671q38 0 82 -12l-11 -62q-28 4 -62 4q-94 0 -119 -84l-36 -118h135l-14 -69h-141l-97 -321q-23 -73 -70 -107q-49 -35 -114 -35q-38 0 -82 11l12 63q42 -5 64 -5q92 0 117 85l93 309h-105l13 69h113l39 130q23 72 70 107q49 35 113 35z" />
    <glyph glyph-name="sterling.tf" 
d="M359 600q-65 0 -98 -42q-34 -41 -34 -94q0 -22 6 -46q4 -16 17 -55q11 -33 15 -49h164l-12 -68h-142v-2q0 -110 -86 -176h278l-12 -68h-441l4 20q178 90 178 223v3h-128l11 68h106q-2 7 -14 48q-13 36 -17 61q-6 25 -6 50q0 78 56 139q56 59 153 59q77 0 133 -42t68 -138
l-72 -18q-19 127 -127 127z" />
    <glyph glyph-name="yen.tf" 
d="M609 660l-254 -301h174l-12 -68h-189l-16 -92h189l-13 -69h-188l-23 -130h-78l23 130h-188l12 69h188l16 92h-188l12 68h174l-149 301h82l125 -260l214 260h89z" />
    <glyph glyph-name="section.case" horiz-adv-x="564" 
d="M429 406q98 -84 98 -158q0 -52 -37 -93q-38 -41 -104 -53q2 -22 2 -25q0 -60 -45 -103q-46 -44 -120 -44q-116 0 -165 103l55 41q41 -72 112 -72q36 0 60 21t24 54q0 42 -61 97l-82 75q-98 86 -98 158q0 52 37 92q37 42 105 54q-2 22 -2 25q0 60 45 103q46 44 120 44
q59 0 102 -29q40 -28 63 -74l-56 -41q-40 73 -111 73q-37 0 -60 -21q-24 -21 -24 -55q0 -42 60 -96zM365 156q36 7 60 31q23 23 23 55q0 24 -15 47q-16 24 -52 57l-90 83q-39 36 -60 70q-36 -7 -60 -31q-24 -22 -24 -55q0 -25 16 -47q16 -24 52 -57l89 -83q39 -34 61 -70z
" />
    <glyph glyph-name="dieresis.case" horiz-adv-x="413" 
d="M186 863q22 0 39 -15q16 -16 16 -38t-16 -37q-16 -16 -39 -16q-22 0 -38 16q-17 15 -17 37q0 21 17 38q16 15 38 15zM419 863q23 0 39 -16t16 -38t-16 -37q-16 -16 -39 -16t-39 16q-17 15 -17 37q0 21 17 38q16 16 39 16z" />
    <glyph glyph-name="dieresis.i" horiz-adv-x="363" 
d="M162 727q22 0 39 -15q16 -16 16 -38t-16 -37q-16 -16 -39 -16q-22 0 -38 16q-17 15 -17 37q0 21 17 38q17 15 38 15zM348 727q22 0 39 -15q16 -16 16 -38t-16 -37q-16 -16 -39 -16t-39 16q-16 15 -16 37t16 38q17 15 39 15z" />
    <glyph glyph-name="otatonos" horiz-adv-x="153" 
d="M218 780l-2 -14l-68 -200h-60l37 214h93z" />
    </font>
</defs>
</svg>
