<?xml version="1.0" standalone="no"?>
<!DOCTYPE svg PUBLIC "-//W3C//DTD SVG 1.1//EN" "http://www.w3.org/Graphics/SVG/1.1/DTD/svg11.dtd" >
<svg xmlns="http://www.w3.org/2000/svg" xmlns:xlink="http://www.w3.org/1999/xlink" version="1.1">
<metadata>
Created by FontForge 20170731 at Mon Feb 13 22:25:03 2017
 By Aleksey,,,
Copyright (c) 2015 by Jakob Runge, under exclusive license to type me! fonts. All rights reserved.
</metadata>
<defs>
<font id="CeraGR-Thin" horiz-adv-x="560" >
  <font-face 
    font-family="Cera"
    font-weight="400"
    font-stretch="normal"
    units-per-em="1000"
    panose-1="0 0 3 0 0 0 0 0 0 0"
    ascent="800"
    descent="-200"
    x-height="480"
    cap-height="660"
    bbox="-105 -257 1255 900"
    underline-thickness="50"
    underline-position="-175"
    unicode-range="U+0020-F8FF"
  />
<missing-glyph horiz-adv-x="702" 
d="M103 660h496v-660h-496v660zM569 28v604h-438z" />
    <glyph glyph-name=".notdef" horiz-adv-x="702" 
d="M103 660h496v-660h-496v660zM569 28v604h-438z" />
    <glyph glyph-name=".null" horiz-adv-x="0" 
 />
    <glyph glyph-name="nonmarkingreturn" horiz-adv-x="333" 
 />
    <glyph glyph-name="space" unicode=" " horiz-adv-x="280" 
 />
    <glyph glyph-name="exclam" unicode="!" horiz-adv-x="270" 
d="M154 660l-5 -478h-28l-5 478h38zM134 68q15 0 28 -11q12 -11 12 -29q0 -16 -12 -27q-11 -11 -28 -11q-16 0 -26 11q-12 11 -12 27q0 18 12 29q11 11 26 11z" />
    <glyph glyph-name="quotedbl" unicode="&#x22;" horiz-adv-x="405" 
d="M163 660l-33 -240h-26l20 240h39zM303 660l-33 -240h-26l20 240h39z" />
    <glyph glyph-name="numbersign" unicode="#" horiz-adv-x="569" 
d="M538 417h-99l-24 -174h101v-28h-105l-29 -215h-29l29 215h-227l-29 -215h-29l29 215h-95v28h99l23 174h-100v28h104l29 215h30l-29 -215h226l29 215h30l-29 -215h95v-28zM159 243h227l23 174h-226z" />
    <glyph glyph-name="dollar" unicode="$" horiz-adv-x="534" 
d="M457 175q0 -66 -50 -107q-49 -41 -125 -46v-113h-31v114q-127 7 -204 137l26 17q67 -113 178 -124v279l-21 10q-32 14 -47 24q-22 13 -41 28q-24 19 -34 43q-11 25 -11 55q0 60 44 98q43 37 110 43v118h31v-117q101 -4 166 -100l-24 -18q-55 82 -142 87v-251l35 -17
q65 -30 104 -68q36 -36 36 -92zM245 369l6 -3v236q-49 -4 -85 -31q-35 -27 -35 -77q0 -24 9 -44q8 -20 27 -35q22 -17 34 -23q17 -10 44 -23zM282 52q62 3 102 36q39 32 39 86q0 47 -30 77q-32 29 -91 57l-20 9v-265z" />
    <glyph glyph-name="percent" unicode="%" horiz-adv-x="794" 
d="M215 670q66 0 112 -46t46 -112t-46 -112t-112 -46q-65 0 -111 46t-46 112t46 112t111 46zM604 660l-381 -660h-31l381 660h31zM215 641q-55 0 -89 -37q-36 -38 -36 -92t36 -92q34 -37 89 -37q54 0 90 37q36 38 36 92t-36 92q-36 37 -90 37zM578 307q66 0 112 -46t46 -112
t-46 -112t-112 -46t-111 45q-46 46 -46 113t46 113q45 45 111 45zM578 278q-54 0 -90 -37q-35 -38 -35 -92t35 -92q36 -37 90 -37t90 37q36 38 36 92q0 55 -36 92t-90 37z" />
    <glyph glyph-name="ampersand" unicode="&#x26;" horiz-adv-x="588" 
d="M569 290q-72 -114 -108 -164l107 -126h-40l-86 102q-91 -112 -199 -112q-77 0 -133 45q-57 45 -57 118q0 44 26 85q25 40 57 66q20 17 83 62q-41 50 -63 89q-22 37 -22 82q0 54 35 94q35 39 95 39t96 -37q35 -38 35 -90q0 -50 -34 -93q-35 -44 -99 -90l179 -210
q25 34 102 156zM265 639q-47 0 -73 -29t-26 -73q0 -39 19 -73q22 -40 59 -83q119 87 119 164q0 40 -26 68q-26 26 -72 26zM242 21q96 0 180 104l-186 220q-52 -40 -63 -49q-20 -17 -44 -41q-26 -26 -35 -49q-9 -22 -9 -51q0 -61 46 -97q46 -37 111 -37z" />
    <glyph glyph-name="quotesingle" unicode="'" horiz-adv-x="265" 
d="M163 660l-33 -240h-26l20 240h39z" />
    <glyph glyph-name="parenleft" unicode="(" horiz-adv-x="315" 
d="M273 729l12 -24q-31 -16 -58 -45q-30 -30 -54 -74q-26 -47 -41 -121q-15 -73 -15 -166t15 -166q15 -72 41 -120q25 -47 54 -75q27 -29 58 -45l-12 -24q-186 93 -186 430t186 430z" />
    <glyph glyph-name="parenright" unicode=")" horiz-adv-x="315" 
d="M42 729q186 -93 186 -430t-186 -430l-12 24q31 16 58 45q28 28 54 75q26 48 41 120q15 73 15 166t-15 166q-15 74 -41 121q-24 43 -53 74q-30 30 -59 45z" />
    <glyph glyph-name="asterisk" unicode="*" horiz-adv-x="364" 
d="M312 668l-99 -61l99 -61l-12 -21l-103 55l-3 -116h-24l-3 116l-103 -55l-12 21l99 61l-99 61l12 21l103 -55l3 116h24l3 -116l103 55z" />
    <glyph glyph-name="plus" unicode="+" 
d="M493 295h-198v-204h-30v204h-199v28h199v204h30v-204h198v-28z" />
    <glyph glyph-name="comma" unicode="," horiz-adv-x="270" 
d="M162 63l-32 -243h-28l20 243h40z" />
    <glyph glyph-name="hyphen" unicode="-" horiz-adv-x="340" 
d="M280 323v-28h-220v28h220z" />
    <glyph glyph-name="period" unicode="." horiz-adv-x="270" 
d="M134 68q15 0 28 -11q12 -11 12 -29q0 -16 -12 -27q-11 -11 -28 -11q-16 0 -26 11q-12 11 -12 27q0 18 12 29q11 11 26 11z" />
    <glyph glyph-name="slash" unicode="/" horiz-adv-x="575" 
d="M565 780l-523 -901h-32l523 901h32z" />
    <glyph glyph-name="zero" unicode="0" horiz-adv-x="667" 
d="M333 540q115 0 196 -81q80 -80 80 -195q0 -113 -80 -195q-82 -80 -197 -80q-114 0 -194 80q-80 82 -80 195q0 115 80 195q80 81 195 81zM333 511q-105 0 -174 -71q-69 -70 -69 -176q0 -104 69 -175t173 -71q105 0 176 71q69 71 69 175q0 106 -69 176q-71 71 -175 71z" />
    <glyph glyph-name="one" unicode="1" horiz-adv-x="473" 
d="M276 530v-502h151v-28h-342v28h160v474h-149v28h180z" />
    <glyph glyph-name="two" unicode="2" horiz-adv-x="531" 
d="M117 28h359v-28h-427v12l186 132q18 12 55 40q18 12 46 39q27 23 41 43q12 17 23 46q10 26 10 56q0 62 -38 103q-37 40 -106 40q-70 0 -111 -42q-40 -43 -40 -102q0 -29 7 -57h-31q-8 29 -8 57q0 69 50 122q51 51 133 51q77 0 127 -47q49 -48 49 -122q0 -73 -47 -128
q-46 -53 -143 -121z" />
    <glyph glyph-name="three" unicode="3" horiz-adv-x="503" 
d="M231 278q83 0 148 -51q64 -51 64 -148q0 -98 -64 -155q-65 -57 -158 -57q-130 0 -211 125l24 18q74 -114 189 -114q83 0 135 51q53 53 53 133q0 78 -52 124t-144 46h-44v12l200 240h-321v28h373v-12l-201 -240h9z" />
    <glyph glyph-name="four" unicode="4" horiz-adv-x="516" 
d="M496 28v-28h-105v-121h-32v121h-333v12l225 518h33l-218 -502h293v253h32v-253h105z" />
    <glyph glyph-name="five" unicode="5" horiz-adv-x="532" 
d="M245 279q98 0 163 -50q64 -49 64 -149q0 -97 -65 -156q-65 -57 -153 -57q-134 0 -215 125l23 18q74 -114 194 -114q80 0 132 52t52 132t-52 126q-52 45 -144 45h-145v279h308v-28h-276v-228q55 5 114 5z" />
    <glyph glyph-name="six" unicode="6" horiz-adv-x="542" 
d="M270 410q90 0 151 -61t61 -149t-60 -149q-61 -61 -151 -61t-151 61q-60 61 -60 150q0 12 2 34q1 14 8 34q5 12 10 28q6 13 16 30q6 9 17 27l20 31q11 16 19 28l164 247h38l-191 -282q47 32 107 32zM271 19q77 0 128 52q51 51 51 128t-51 130q-52 52 -128 52t-127 -52
q-52 -52 -52 -130t51 -129t128 -51z" />
    <glyph glyph-name="seven" unicode="7" horiz-adv-x="482" 
d="M32 530h423v-12l-356 -639h-34l346 623h-379v28z" />
    <glyph glyph-name="eight" unicode="8" horiz-adv-x="568" 
d="M322 350q41 -15 65 -28q27 -14 57 -38q28 -22 44 -53q15 -31 15 -69q0 -76 -59 -124q-58 -48 -160 -48t-160 48q-59 50 -59 125q0 126 181 186q-149 57 -149 166q0 73 54 113q53 42 133 42t134 -42q53 -41 53 -114q0 -113 -149 -164zM129 514q0 -55 40 -89
q38 -32 115 -61q76 28 116 61q39 35 39 89q0 57 -44 92t-111 35t-111 -35t-44 -92zM284 19q89 0 138 40t49 104q0 34 -14 62q-15 28 -44 48q-32 21 -57 32q-25 12 -72 28q-48 -17 -71 -28q-27 -11 -57 -32q-31 -20 -44 -48q-15 -27 -15 -62q0 -63 50 -104q49 -40 137 -40z
" />
    <glyph glyph-name="nine" unicode="9" horiz-adv-x="542" 
d="M271 540q89 0 150 -61t61 -148q0 -16 -1 -25q-1 -12 -3 -21q-1 -8 -6 -22q-5 -15 -6 -20q-1 -4 -10 -20t-10 -19q-2 -7 -12 -22q-2 -4 -4.5 -7.5t-4 -5.5l-3 -4t-1.5 -3q-3 -2 -16 -22q-14 -20 -15 -23l-158 -238h-38l185 273q-47 -32 -107 -32q-90 0 -151 61t-61 149
t61 149q60 61 150 61zM271 149q76 0 128 52q51 53 51 130q0 78 -51 129t-128 51t-128 -52q-51 -51 -51 -128q0 -78 52 -130q51 -52 127 -52z" />
    <glyph glyph-name="colon" unicode=":" horiz-adv-x="270" 
d="M134 482q17 0 28 -10q12 -10 12 -30q0 -16 -12 -27q-13 -11 -28 -11t-26 11q-12 11 -12 27q0 18 12 29q11 11 26 11zM134 68q15 0 28 -11q12 -11 12 -29q0 -16 -12 -27q-11 -11 -28 -11q-16 0 -26 11q-12 11 -12 27q0 18 12 29q11 11 26 11z" />
    <glyph glyph-name="semicolon" unicode=";" horiz-adv-x="270" 
d="M134 482q17 0 28 -10q12 -10 12 -30q0 -16 -12 -27q-13 -11 -28 -11t-26 11q-12 11 -12 27q0 18 12 29q11 11 26 11zM162 63l-32 -243h-28l20 243h40z" />
    <glyph glyph-name="less" unicode="&#x3c;" 
d="M480 490v-31l-360 -149l360 -149v-31l-417 174v12z" />
    <glyph glyph-name="equal" unicode="=" 
d="M483 423v-28h-407v28h407zM483 222v-28h-407v28h407z" />
    <glyph glyph-name="greater" unicode="&#x3e;" 
d="M80 490l417 -174v-12l-417 -174v31l360 149l-360 149v31z" />
    <glyph glyph-name="question" unicode="?" horiz-adv-x="440" 
d="M224 670q68 0 115 -45q47 -47 47 -114q0 -29 -7 -50q-7 -23 -26 -48q-22 -27 -32 -37q-3 -3 -17 -16.5t-25 -24.5q-6 -6 -15 -14.5t-14 -14t-9 -9.5q-12 -14 -22 -32q-10 -19 -10 -41q0 -20 7 -42h-30q-9 20 -9 42q0 34 19 62q20 27 63 69q28 27 52 53q17 16 30 45
q13 26 13 57q0 57 -37 94t-92 37q-48 0 -83 -28t-52 -83l-28 10q16 58 60 94t102 36zM208 68q14 0 27 -11q12 -11 12 -28t-12 -28q-13 -11 -27 -11q-16 0 -27 11q-12 10 -12 28t12 29q11 10 27 10z" />
    <glyph glyph-name="at" unicode="@" horiz-adv-x="904" 
d="M616 42h-6v91q-19 -45 -67 -73q-46 -28 -102 -28q-84 0 -142 61q-57 60 -57 147t57 147t142 60q55 0 102 -27q48 -30 67 -74v93h29v-368q78 6 128 65q48 58 48 153q0 138 -100 234q-101 96 -252 96q-158 0 -266 -105t-108 -260q0 -154 108 -261q109 -106 268 -106
q79 0 144 27l9 -25q-72 -31 -156 -31q-170 0 -288 115q-117 115 -117 282q0 166 117 280q119 113 287 113q162 0 275 -104q111 -104 111 -253q0 -112 -64 -180q-65 -69 -167 -69zM443 61q67 0 117 45q49 46 49 134t-48 133q-49 45 -118 45q-75 0 -121 -51q-48 -51 -48 -127
t48 -127q46 -52 121 -52z" />
    <glyph glyph-name="A" unicode="A" horiz-adv-x="665" 
d="M587 0l-73 175h-364l-72 -175h-33l280 670h15l280 -670h-33zM332 614l-170 -410h340z" />
    <glyph glyph-name="B" unicode="B" horiz-adv-x="610" 
d="M406 366q74 -12 114 -60q40 -49 40 -119q0 -81 -53 -134q-55 -53 -150 -53h-254v660h222q82 0 126 -43q44 -44 44 -113q0 -46 -23 -83q-22 -35 -66 -55zM322 632l-187 -1v-257h187q68 0 104 36t36 93t-35 94q-37 35 -105 35zM355 29q82 0 127 45q45 44 45 112
q0 69 -45 114t-127 45h-220v-316h220z" />
    <glyph glyph-name="C" unicode="C" horiz-adv-x="709" 
d="M391 670q81 0 148 -34q68 -35 113 -95l-24 -19q-86 117 -236 117q-130 0 -215 -88q-86 -89 -86 -220t86 -220q85 -90 215 -90q150 0 236 117l24 -19q-44 -59 -113 -94q-68 -35 -148 -35q-139 0 -237 99q-97 97 -97 241q0 145 97 242q98 98 237 98z" />
    <glyph glyph-name="D" unicode="D" horiz-adv-x="698" 
d="M282 660q170 0 265 -92q94 -91 94 -237q0 -145 -94 -238q-95 -93 -265 -93h-179v660h179zM282 631h-147v-602h147q154 0 240 86q85 85 85 216q0 130 -85 215t-240 85z" />
    <glyph glyph-name="E" unicode="E" horiz-adv-x="561" 
d="M509 660v-29h-374v-257h294v-29h-294v-316h386v-29h-418v660h406z" />
    <glyph glyph-name="F" unicode="F" horiz-adv-x="514" 
d="M499 660v-29h-364v-276h304v-29h-304v-326h-32v660h396z" />
    <glyph glyph-name="G" unicode="G" horiz-adv-x="744" 
d="M391 670q81 0 148 -34q68 -35 113 -95l-24 -19q-86 117 -236 117q-130 0 -215 -88q-86 -89 -86 -220t86 -220q85 -90 216 -90q83 0 150 37t106 102v126h-258v30h290v-161q-43 -76 -121 -121q-79 -44 -169 -44q-141 0 -237 99q-97 97 -97 241q0 145 97 242q98 98 237 98z
" />
    <glyph glyph-name="H" unicode="H" horiz-adv-x="704" 
d="M601 660v-660h-32v345h-434v-345h-32v660h32v-286h434v286h32z" />
    <glyph glyph-name="I" unicode="I" horiz-adv-x="238" 
d="M135 660v-660h-32v660h32z" />
    <glyph glyph-name="J" unicode="J" horiz-adv-x="361" 
d="M258 660v-525q0 -75 -41 -110t-109 -35q-38 0 -78 10v29q46 -8 77 -8q56 0 87 25q32 26 32 89v525h32z" />
    <glyph glyph-name="K" unicode="K" horiz-adv-x="598" 
d="M103 0v660h32v-660h-32zM198 359l360 -359h-43l-361 359l337 301h45z" />
    <glyph glyph-name="L" unicode="L" horiz-adv-x="493" 
d="M135 660v-631h334v-29h-366v660h32z" />
    <glyph glyph-name="M" unicode="M" horiz-adv-x="782" 
d="M664 670h15v-670h-32v585l-248 -364h-15l-249 364v-585h-32v670h15l273 -402z" />
    <glyph glyph-name="N" unicode="N" horiz-adv-x="704" 
d="M569 660h32v-670h-15l-451 601v-591h-32v670h15l451 -606v596z" />
    <glyph glyph-name="O" unicode="O" horiz-adv-x="784" 
d="M391 670q140 0 238 -98t98 -242q0 -143 -98 -241q-97 -99 -238 -99q-139 0 -237 99q-97 97 -97 241q0 145 97 242q98 98 237 98zM392 639q-128 0 -215 -88q-86 -89 -86 -220t86 -220q87 -90 215 -90t214 90q87 88 87 220q0 131 -87 219q-86 89 -214 89z" />
    <glyph glyph-name="P" unicode="P" horiz-adv-x="557" 
d="M322 660q90 0 140 -49q50 -50 50 -125q0 -76 -50 -126q-50 -49 -140 -49h-187v-311h-32v660h219zM320 631h-185v-291h185q78 0 118 40q41 41 41 105t-41 105t-118 41z" />
    <glyph glyph-name="Q" unicode="Q" horiz-adv-x="784" 
d="M928 -161q47 0 99 7v-27q-51 -9 -98 -9q-239 0 -394 212q-69 -32 -144 -32q-139 0 -237 99q-97 97 -97 241q0 145 97 242q98 98 237 98q140 0 238 -98t98 -242q0 -94 -45 -172q-46 -79 -121 -122q147 -197 367 -197zM91 331q0 -131 86 -220q85 -90 215 -90q128 0 214 90
q87 88 87 220q0 131 -87 219q-86 89 -214 89q-130 0 -215 -88q-86 -89 -86 -220z" />
    <glyph glyph-name="R" unicode="R" horiz-adv-x="608" 
d="M585 0h-39l-234 311h-177v-311h-32v660h219q90 0 140 -49q50 -50 50 -125q0 -70 -42 -118q-44 -49 -119 -56zM135 631v-291h185q78 0 118 40q41 41 41 105t-41 105t-118 41h-185z" />
    <glyph glyph-name="S" unicode="S" horiz-adv-x="555" 
d="M283 670q122 0 191 -100l-23 -18q-63 87 -166 87q-61 0 -108 -30q-46 -30 -46 -93q0 -53 29 -82q29 -28 95 -60l76 -36q78 -37 114 -76t36 -103q0 -75 -57 -122q-56 -47 -141 -47q-148 0 -233 139l24 18q80 -126 210 -126q71 0 117 37t46 101q0 54 -29 86q-29 31 -102 65
l-76 36q-38 18 -54 28q-17 9 -43 32q-24 20 -35 47t-11 61q0 73 53 115q55 41 133 41z" />
    <glyph glyph-name="T" unicode="T" horiz-adv-x="584" 
d="M557 660v-29h-249v-631h-32v631h-249v29h530z" />
    <glyph glyph-name="U" unicode="U" horiz-adv-x="678" 
d="M586 660v-408q0 -120 -66 -191q-68 -71 -180 -71q-115 0 -181 71q-67 70 -67 191v408h32v-408q0 -108 59 -170q58 -61 157 -61q98 0 156 61t58 170v408h32z" />
    <glyph glyph-name="V" unicode="V" horiz-adv-x="665" 
d="M587 660h33l-280 -670h-15l-280 670h33l255 -611z" />
    <glyph glyph-name="W" unicode="W" horiz-adv-x="1077" 
d="M989 660h33l-240 -670h-15l-228 619l-229 -619h-15l-240 670h33l215 -610l228 620h15l228 -620z" />
    <glyph glyph-name="X" unicode="X" horiz-adv-x="579" 
d="M539 0h-37l-212 313l-213 -313h-37l232 340l-215 320h37l197 -295l194 295h37l-213 -321z" />
    <glyph glyph-name="Y" unicode="Y" horiz-adv-x="610" 
d="M551 660l-230 -374v-286h-32v286l-230 374h34l212 -347l212 347h34z" />
    <glyph glyph-name="Z" unicode="Z" horiz-adv-x="590" 
d="M91 29h459v-29h-508v12l458 619h-414v29h463v-12z" />
    <glyph glyph-name="bracketleft" unicode="[" horiz-adv-x="337" 
d="M277 729v-28h-135v-804h135v-28h-165v860h165z" />
    <glyph glyph-name="backslash" unicode="\" horiz-adv-x="575" 
d="M10 780h32l523 -901h-32z" />
    <glyph glyph-name="bracketright" unicode="]" horiz-adv-x="337" 
d="M225 729v-860h-165v28h135v804h-135v28h165z" />
    <glyph glyph-name="asciicircum" unicode="^" horiz-adv-x="493" 
d="M424 292h-33l-144 322l-145 -322h-33l170 378h15z" />
    <glyph glyph-name="underscore" unicode="_" horiz-adv-x="500" 
d="M450 -84v-28h-400v28h400z" />
    <glyph glyph-name="a" unicode="a" horiz-adv-x="516" 
d="M252 490q78 0 126 -48q47 -49 47 -137v-305h-30v85q-25 -43 -73 -70q-47 -25 -106 -25q-68 0 -116 33t-48 94q0 56 45 91q45 33 119 33h179v65q0 76 -39 116q-40 39 -106 39q-88 0 -151 -84l-22 18q72 95 175 95zM217 19q73 0 126 45q52 45 52 111v38h-178q-64 0 -99 -25
q-34 -25 -34 -69q0 -49 39 -74q41 -26 94 -26z" />
    <glyph glyph-name="b" unicode="b" horiz-adv-x="635" 
d="M335 490q102 0 171 -72q69 -74 69 -178t-69 -177q-70 -73 -171 -73q-68 0 -124 34q-57 34 -82 91v-115h-30v750h30v-385q25 57 82 91q56 34 124 34zM335 19q91 0 149 64q59 65 59 157q0 94 -58 158q-59 63 -150 63q-84 0 -145 -56q-61 -55 -61 -165t61 -165
q61 -56 145 -56z" />
    <glyph glyph-name="c" unicode="c" horiz-adv-x="553" 
d="M306 490q118 0 192 -95l-22 -18q-64 84 -170 84q-91 0 -152 -64q-62 -65 -62 -157t62 -157q61 -64 151 -64q107 0 171 84l22 -18q-74 -95 -193 -95q-102 0 -174 73q-71 74 -71 177t71 177q72 73 175 73z" />
    <glyph glyph-name="d" unicode="d" horiz-adv-x="635" 
d="M506 750h30v-750h-30v115q-25 -57 -82 -91q-56 -34 -124 -34q-101 0 -170 73q-70 73 -70 177t69 178q69 72 171 72q68 0 124 -34q57 -34 82 -91v385zM300 19q84 0 146 56q60 55 60 165t-60 165q-62 56 -146 56q-90 0 -149 -63q-59 -65 -59 -158q0 -92 59 -157
q58 -64 149 -64z" />
    <glyph glyph-name="e" unicode="e" horiz-adv-x="573" 
d="M513 278l-3 -41h-418q2 -95 62 -155q62 -63 151 -63q107 0 171 84l22 -18q-74 -95 -193 -95q-103 0 -173 72q-72 74 -72 178t70 177q69 73 170 73q90 0 151 -58q62 -59 62 -154zM298 461q-80 0 -139 -56q-58 -55 -66 -140h388q6 88 -48 142q-55 54 -135 54z" />
    <glyph glyph-name="f" unicode="f" horiz-adv-x="270" 
d="M241 732q-108 0 -108 -107v-145h131v-28h-131v-452h-30v452h-70v28h70v145q0 70 37 103q38 32 99 32q26 0 50 -6v-27q-32 5 -48 5z" />
    <glyph glyph-name="g" unicode="g" horiz-adv-x="642" 
d="M513 480h30v-440q0 -107 -64 -168q-65 -62 -163 -62q-63 0 -123 26q-55 25 -94 68l21 20q36 -40 86 -62q54 -23 110 -23q86 0 142 53q55 52 55 148v82q-25 -54 -82 -88q-58 -34 -125 -34q-101 0 -170 72t-69 173t70 174q69 72 169 72q67 0 125 -34q57 -34 82 -89v112z
M308 29q83 0 145 56q60 55 60 160q0 107 -60 162q-61 55 -145 55q-92 0 -150 -63q-59 -64 -59 -154q0 -91 59 -153q58 -63 150 -63z" />
    <glyph glyph-name="h" unicode="h" horiz-adv-x="551" 
d="M286 490q82 0 128 -51q46 -52 46 -134v-305h-30v305q0 69 -39 113q-39 43 -106 43q-68 0 -112 -44t-44 -112v-305h-30v750h30v-347q48 87 157 87z" />
    <glyph glyph-name="i" unicode="i" horiz-adv-x="228" 
d="M114 700q14 0 24 -10t10 -24t-10 -24t-24 -10t-24 10t-10 24t10 24t24 10zM129 480v-480h-30v480h30z" />
    <glyph glyph-name="j" unicode="j" horiz-adv-x="228" 
d="M114 700q14 0 24 -10t10 -24t-10 -24t-24 -10t-24 10t-10 24t10 24t24 10zM129 480v-535q0 -70 -37 -103q-38 -32 -99 -32q-26 0 -50 6v27q32 -5 48 -5q108 0 108 107v535h30z" />
    <glyph glyph-name="k" unicode="k" horiz-adv-x="463" 
d="M99 0v750h30v-750h-30zM189 269l254 -269h-40l-255 270l229 210h43z" />
    <glyph glyph-name="l" unicode="l" horiz-adv-x="228" 
d="M129 750v-750h-30v750h30z" />
    <glyph glyph-name="m" unicode="m" horiz-adv-x="860" 
d="M601 490q81 0 124 -51q44 -52 44 -134v-305h-30v305q0 69 -36 113q-37 43 -102 43q-66 0 -109 -43t-43 -104v-314h-30v305q0 70 -37 113t-102 43q-66 0 -108 -44q-43 -43 -43 -112v-305h-30v480h30v-75q46 85 152 85q58 0 97 -27q39 -29 57 -76q21 47 64 75q41 28 102 28
z" />
    <glyph glyph-name="n" unicode="n" horiz-adv-x="551" 
d="M286 490q82 0 128 -51q46 -52 46 -134v-305h-30v305q0 69 -39 113q-39 43 -106 43q-68 0 -112 -44t-44 -112v-305h-30v480h30v-77q48 87 157 87z" />
    <glyph glyph-name="o" unicode="o" horiz-adv-x="613" 
d="M306 490q103 0 175 -72q72 -74 72 -178t-72 -178q-72 -72 -176 -72q-103 0 -174 72q-71 74 -71 178q0 105 71 178q71 72 175 72zM306 461q-92 0 -153 -64t-61 -157q0 -95 61 -157q61 -64 152 -64q93 0 154 64q62 65 62 157t-62 157q-61 64 -153 64z" />
    <glyph glyph-name="p" unicode="p" horiz-adv-x="635" 
d="M335 490q101 0 171 -73q69 -73 69 -177t-69 -178q-69 -72 -171 -72q-68 0 -124 34q-57 34 -82 91v-295h-30v660h30v-115q25 57 82 91q56 34 124 34zM335 19q92 0 150 64q58 62 58 157q0 92 -59 157q-58 64 -149 64q-84 0 -145 -56q-61 -55 -61 -165t61 -165
q61 -56 145 -56z" />
    <glyph glyph-name="q" unicode="q" horiz-adv-x="635" 
d="M506 480h30v-660h-30v295q-25 -57 -82 -91q-56 -34 -124 -34q-102 0 -171 72q-69 74 -69 178t70 177q69 73 170 73q68 0 124 -34q57 -34 82 -91v115zM300 19q84 0 146 56q60 55 60 165t-60 165q-62 56 -146 56q-91 0 -149 -64q-59 -65 -59 -157q0 -93 59 -157
q58 -64 149 -64z" />
    <glyph glyph-name="r" unicode="r" horiz-adv-x="341" 
d="M295 482q6 0 28 -2v-25h-23q-66 0 -118 -45q-53 -45 -53 -120v-290h-30v480h30v-92q25 46 69 70t97 24z" />
    <glyph glyph-name="s" unicode="s" horiz-adv-x="455" 
d="M232 490q89 0 151 -77l-22 -20q-59 68 -131 68q-47 0 -79 -22q-33 -22 -33 -67q0 -26 15 -45q14 -18 32 -28q21 -12 54 -26l45 -20q59 -27 91 -56q31 -28 31 -79q0 -60 -45 -94q-44 -34 -109 -34q-112 0 -180 105l24 18q64 -94 158 -94q52 0 86 25t34 72q0 22 -8 40
q-8 17 -26 31q-24 16 -32 21q-4 2 -10.5 5t-16 7t-16.5 8l-42 19q-24 11 -43 21q-16 9 -36 24t-29 35q-9 19 -9 44q0 54 44 87q44 32 102 32z" />
    <glyph glyph-name="t" unicode="t" horiz-adv-x="350" 
d="M254 18q26 0 69 9v-27q-36 -10 -71 -10q-59 0 -97 32q-38 33 -38 103v327h-86v28h86v140h30v-140h160v-28h-160v-327q0 -107 107 -107z" />
    <glyph glyph-name="u" unicode="u" horiz-adv-x="543" 
d="M452 480v-305q0 -83 -52 -134t-128 -51t-129 51q-52 51 -52 134v305h30v-305q0 -74 43 -114q44 -42 108 -42t107 42t43 114v305h30z" />
    <glyph glyph-name="v" unicode="v" horiz-adv-x="518" 
d="M449 480h33l-215 -490h-15l-216 490h33l190 -437z" />
    <glyph glyph-name="w" unicode="w" horiz-adv-x="841" 
d="M772 480h33l-186 -490h-15l-184 439l-183 -439h-15l-186 490h33l160 -432l184 442h15l184 -442z" />
    <glyph glyph-name="x" unicode="x" horiz-adv-x="467" 
d="M437 0h-37l-167 228l-166 -228h-37l184 252l-168 228h37l150 -204l151 204h37l-169 -228z" />
    <glyph glyph-name="y" unicode="y" horiz-adv-x="518" 
d="M449 480h33l-243 -568q-43 -102 -139 -102q-32 0 -64 9v27q40 -8 62 -8q78 0 115 87l34 81l-211 474h33l194 -435z" />
    <glyph glyph-name="z" unicode="z" horiz-adv-x="447" 
d="M83 28h327v-28h-372v12l322 440h-299v28h344v-12z" />
    <glyph glyph-name="braceleft" unicode="{" horiz-adv-x="393" 
d="M287 701q-49 0 -75 -24t-26 -77q0 -34 15 -112t15 -106q0 -39 -16 -56q-16 -19 -47 -27q63 -15 63 -83q0 -28 -15 -105t-15 -112q0 -102 101 -102h46v-28h-46q-131 0 -131 128q0 38 15 116t15 102q0 70 -70 70h-56v28h56q70 0 70 69q0 23 -15 104q-15 80 -15 117
q0 126 131 126h46v-28h-46z" />
    <glyph glyph-name="bar" unicode="|" horiz-adv-x="332" 
d="M181 780v-901h-30v901h30z" />
    <glyph glyph-name="braceright" unicode="}" horiz-adv-x="393" 
d="M277 313h56v-28h-56q-70 0 -70 -70q0 -24 15 -102t15 -116q0 -128 -131 -128h-46v28h46q101 0 101 102q0 36 -15 112q-15 77 -15 105q0 68 63 83q-29 7 -46 26q-17 20 -17 57q0 28 15 106t15 112q0 53 -25 77q-26 24 -76 24h-46v28h46q131 0 131 -126q0 -37 -15 -117
q-15 -81 -15 -104q0 -69 70 -69z" />
    <glyph glyph-name="asciitilde" unicode="~" 
d="M154 379q33 0 85 -31l99 -60q39 -24 65 -24q20 0 34 14q12 14 12 36v21h29q1 -9 1 -21q0 -32 -19 -54q-20 -24 -55 -24q-33 0 -85 31l-99 60q-39 24 -65 24q-21 0 -33 -14q-13 -13 -13 -36v-21h-29q-1 9 -1 21q0 30 20 55q20 23 54 23z" />
    <glyph glyph-name="cent" unicode="&#xa2;" horiz-adv-x="554" 
d="M293 109q101 5 161 84l22 -18q-69 -91 -183 -95v-171h-31v172q-94 7 -159 79q-65 73 -65 170q0 98 65 169q65 73 159 80v172h31v-171q114 -4 183 -95l-22 -18q-60 79 -161 84v-442zM70 330q0 -88 55 -149q54 -63 137 -71v440q-83 -8 -137 -71q-55 -61 -55 -149z" />
    <glyph glyph-name="sterling" unicode="&#xa3;" horiz-adv-x="494" 
d="M234 207q0 -56 -25 -102q-26 -47 -68 -77h308v-28h-381v12q134 72 134 194q0 25 -7 53h-117v28h108q-7 19 -32 67q-24 46 -36 80q-14 37 -14 74q0 72 47 117t123 45q136 0 183 -149l-31 -10q-40 129 -153 129q-64 0 -99 -38q-36 -39 -36 -96q0 -44 38 -122t44 -97h163
v-28h-155q6 -24 6 -52z" />
    <glyph glyph-name="currency" unicode="&#xa4;" horiz-adv-x="667" 
d="M548 330q0 -83 -53 -147l137 -137l-19 -20l-137 137q-62 -58 -148 -58q-82 0 -144 55l-129 -134l-20 19l130 135q-55 62 -55 150t54 150l-129 134l19 20l130 -134q61 55 145 55q85 0 147 -57l136 136l20 -20l-137 -137q53 -64 53 -147zM328 134q80 0 134 57t54 139
q0 83 -54 140t-133 57q-80 0 -134 -57q-53 -58 -53 -140q0 -83 53 -139q54 -57 133 -57z" />
    <glyph glyph-name="yen" unicode="&#xa5;" horiz-adv-x="516" 
d="M274 339h207v-28h-207v-121h207v-28h-207v-162h-32v162h-206v28h206v121h-206v28h206l-230 321h34l212 -295l212 295h34z" />
    <glyph glyph-name="brokenbar" unicode="&#xa6;" horiz-adv-x="332" 
d="M181 780v-300h-30v300h30zM181 179v-300h-30v300h30z" />
    <glyph glyph-name="section" unicode="&#xa7;" horiz-adv-x="548" 
d="M508 179q0 -51 -35 -88q-36 -35 -97 -39q5 -20 5 -35q0 -54 -36 -90q-37 -35 -93 -35q-84 0 -140 78l23 17q47 -66 117 -66q43 0 70 27t27 69q0 35 -21 64q-20 27 -66 61l-90 68q-72 55 -103 93q-29 38 -29 82q0 51 35 88q36 35 97 39q-5 20 -5 35q0 54 36 90
q37 35 93 35q84 0 140 -78l-23 -17q-47 66 -117 66q-43 0 -70 -27t-27 -69q0 -35 21 -63q22 -30 66 -62l90 -68q72 -55 103 -93q29 -38 29 -82zM363 80q49 0 81 27t32 69q0 64 -96 137l-97 74q-77 59 -99 97q-48 0 -80 -26q-32 -27 -32 -70q0 -65 96 -137l90 -69
q80 -62 105 -102z" />
    <glyph glyph-name="dieresis" unicode="&#xa8;" horiz-adv-x="319" 
d="M64 700q14 0 24 -10t10 -24t-10 -24t-24 -10t-24 10t-10 24t10 24t24 10zM255 700q14 0 24 -10t10 -24t-10 -24t-24 -10t-24 10t-10 24t10 24t24 10z" />
    <glyph glyph-name="copyright" unicode="&#xa9;" horiz-adv-x="784" 
d="M391 670q140 0 238 -98t98 -242q0 -143 -98 -241q-97 -99 -238 -99q-139 0 -237 99q-97 97 -97 241q0 145 97 242q98 98 237 98zM392 641q-128 0 -217 -89q-87 -90 -87 -221t87 -221q88 -91 217 -91t217 91q87 90 87 221q0 130 -87 220q-89 90 -217 90zM399 531
q95 0 154 -77l-21 -18q-52 66 -133 66q-72 0 -118 -49q-48 -49 -48 -123q0 -72 48 -121q47 -50 117 -50q81 0 134 65l21 -17q-59 -77 -155 -77q-81 0 -140 59q-57 59 -57 141q0 84 57 143q58 58 141 58z" />
    <glyph glyph-name="guillemotleft" unicode="&#xab;" horiz-adv-x="427" 
d="M209 447l22 -20l-147 -158l147 -160l-22 -18l-163 172v12zM358 447l22 -20l-147 -158l147 -160l-22 -18l-163 172v12z" />
    <glyph glyph-name="logicalnot" unicode="&#xac;" 
d="M463 323v-234h-30v206h-367v28h397z" />
    <glyph glyph-name="uni00AD" unicode="&#xad;" horiz-adv-x="340" 
d="M280 323v-28h-220v28h220z" />
    <glyph glyph-name="registered" unicode="&#xae;" horiz-adv-x="569" 
d="M284 668q97 0 165 -68t68 -165q0 -94 -68 -164q-70 -68 -165 -68t-163 68q-69 69 -69 164q0 97 68 165t164 68zM284 232q85 0 145 60q59 59 59 143t-59 145q-59 59 -145 59q-85 0 -144 -59q-59 -61 -59 -145t59 -143q58 -60 144 -60zM375 488q0 -52 -51 -69l85 -109h-38
l-81 104h-61v-104h-30l-1 251h94q37 0 60 -20q23 -21 23 -53zM228 441h63q26 0 39 13q14 14 14 33q0 20 -14 34q-13 13 -39 13h-63v-93z" />
    <glyph glyph-name="degree" unicode="&#xb0;" horiz-adv-x="360" 
d="M180 670q58 0 101 -41q41 -41 41 -100t-41 -100q-43 -41 -101 -41q-60 0 -101 41t-41 100t41 100t101 41zM180 641q-46 0 -78 -32q-32 -34 -32 -80q0 -47 32 -79q32 -33 78 -33t78 33q32 32 32 79q0 46 -32 80q-32 32 -78 32z" />
    <glyph glyph-name="plusminus" unicode="&#xb1;" 
d="M295 527v-189h188v-28h-188v-189h-30v189h-189v28h189v189h30zM483 28v-28h-407v28h407z" />
    <glyph glyph-name="uni00B2" unicode="&#xb2;" horiz-adv-x="358" 
d="M92 392h225v-28h-281v9l152 156q36 38 58 71q19 28 19 63q0 39 -25 67q-26 27 -68 27q-44 0 -70 -29t-26 -69q0 -16 3 -34h-30q-4 13 -4 36q0 50 35 88q34 37 92 37q56 0 90 -34q35 -35 35 -87q0 -41 -21 -74q-24 -37 -68 -81z" />
    <glyph glyph-name="uni00B3" unicode="&#xb3;" horiz-adv-x="350" 
d="M169 619q52 0 95 -32q41 -32 41 -94t-42 -98q-41 -37 -101 -37q-86 0 -136 81l23 16q44 -68 114 -68q47 0 79 30q31 28 31 76q0 46 -31 73q-32 26 -86 26h-35v10l122 150h-191v28h241v-10z" />
    <glyph glyph-name="uni00B5" unicode="&#xb5;" horiz-adv-x="578" 
d="M521 24q11 0 31 3v-27q-17 -4 -35 -4q-77 0 -86 82q-23 -43 -61 -65q-41 -23 -91 -23q-102 0 -150 86v-256h-30v660h30v-296q0 -73 43 -119q42 -46 107 -46t108 46t43 119v296h30v-374q0 -82 61 -82z" />
    <glyph glyph-name="paragraph" unicode="&#xb6;" horiz-adv-x="525" 
d="M336 660v-410h-61q-101 0 -165 57q-65 57 -65 150q0 92 65 148q64 55 165 55h61zM422 660v-703q0 -147 -138 -147q-34 0 -70 10v28q44 -9 67 -9q50 0 81 26q30 25 30 92v703h30z" />
    <glyph glyph-name="periodcentered" unicode="&#xb7;" horiz-adv-x="270" 
d="M134 348q15 0 28 -11q12 -11 12 -29q0 -16 -12 -27q-13 -11 -28 -11t-26 11q-12 11 -12 27q0 18 12 29q11 11 26 11z" />
    <glyph glyph-name="uni00B9" unicode="&#xb9;" horiz-adv-x="341" 
d="M194 780v-388h100v-28h-243v28h112v360h-112v28h143z" />
    <glyph glyph-name="guillemotright" unicode="&#xbb;" horiz-adv-x="427" 
d="M69 447l163 -172v-12l-163 -172l-22 18l147 160l-147 158zM218 447l163 -172v-12l-163 -172l-22 18l147 160l-147 158z" />
    <glyph glyph-name="onequarter" unicode="&#xbc;" horiz-adv-x="851" 
d="M294 272v-28h-243v28h112v360h-112v28h143v-388h100zM629 660h31l-381 -660h-31zM830 110v-28h-64v-82h-31v82h-209v10l140 324h32l-132 -306h169v151h31v-151h64z" />
    <glyph glyph-name="onehalf" unicode="&#xbd;" horiz-adv-x="890" 
d="M294 272v-28h-243v28h112v360h-112v28h143v-388h100zM629 660h31l-381 -660h-31zM624 28h225v-28h-281v9l152 156q35 36 58 70q19 29 19 64q0 40 -25 66q-25 28 -68 28q-44 0 -70 -29t-26 -69q0 -16 3 -34h-30q-4 13 -4 36q0 49 35 87t92 38q55 0 90 -35t35 -86
q0 -41 -21 -75q-26 -38 -68 -80z" />
    <glyph glyph-name="threequarters" unicode="&#xbe;" horiz-adv-x="825" 
d="M305 373q0 -62 -42 -98q-41 -37 -101 -37q-86 0 -136 81l23 16q44 -68 114 -68q47 0 79 30q31 28 31 76q0 46 -31 73q-32 26 -86 26h-35v10l122 150h-191v28h241v-10l-124 -151q52 0 95 -32q41 -32 41 -94zM603 660h31l-381 -660h-31zM804 110v-28h-64v-82h-31v82h-209
v10l140 324h32l-132 -306h169v151h31v-151h64z" />
    <glyph glyph-name="multiply" unicode="&#xd7;" 
d="M444 493l20 -20l-164 -164l164 -164l-19 -20l-164 164l-164 -164l-20 19l164 165l-164 164l19 20l164 -164z" />
    <glyph glyph-name="divide" unicode="&#xf7;" 
d="M277 513q14 0 24 -10t10 -24t-10 -24t-24 -10t-24 10t-10 24t10 24t24 10zM493 323v-28h-427v28h427zM277 172q14 0 24 -10t10 -24t-10 -24t-24 -10t-24 10t-10 24t10 24t24 10z" />
    <glyph glyph-name="florin" unicode="&#x192;" horiz-adv-x="436" 
d="M378 670q18 0 46 -5v-26q-27 3 -43 3q-50 0 -79 -23q-28 -24 -36 -84l-18 -145h116v-28h-119l-45 -360q-16 -135 -142 -135q-18 0 -46 5v26q27 -3 43 -3q51 0 80 23q27 23 35 84l45 360h-82v28h85l18 145q17 135 142 135z" />
    <glyph glyph-name="uni030C" unicode="&#x30c;" horiz-adv-x="0" 
d="M-30 750l-32 -210h-26l20 210h38z" />
    <glyph glyph-name="dieresistonos" unicode="&#x385;" horiz-adv-x="389" 
d="M218 780v-5l-11 -213h-27v218h38zM75 700q14 0 24 -10t10 -24t-10 -24t-24 -10t-24 10t-10 24t10 24t24 10zM316 700q14 0 24 -10t10 -24t-10 -24t-24 -10t-24 10t-10 24t10 24t24 10z" />
    <glyph glyph-name="Alphatonos" unicode="&#x386;" horiz-adv-x="665" 
d="M102 720l-32 -210h-26l20 210h38zM587 0l-73 175h-364l-72 -175h-33l280 670h15l280 -670h-33zM332 614l-170 -410h340z" />
    <glyph glyph-name="Epsilontonos" unicode="&#x388;" horiz-adv-x="561" 
d="M-7 720l-32 -210h-26l20 210h38zM509 660v-29h-374v-257h294v-29h-294v-316h386v-29h-418v660h406z" />
    <glyph glyph-name="Etatonos" unicode="&#x389;" horiz-adv-x="704" 
d="M-7 720l-32 -210h-26l20 210h38zM601 660v-660h-32v345h-434v-345h-32v660h32v-286h434v286h32z" />
    <glyph glyph-name="Iotatonos" unicode="&#x38a;" horiz-adv-x="238" 
d="M-7 720l-32 -210h-26l20 210h38zM135 660v-660h-32v660h32z" />
    <glyph glyph-name="Omicrontonos" unicode="&#x38c;" horiz-adv-x="784" 
d="M33 720l-32 -210h-26l20 210h38zM391 670q140 0 238 -98t98 -242q0 -143 -98 -241q-97 -99 -238 -99q-139 0 -237 99q-97 97 -97 241q0 145 97 242q98 98 237 98zM392 639q-128 0 -215 -88q-86 -89 -86 -220t86 -220q87 -90 215 -90t214 90q87 88 87 220q0 131 -87 219
q-86 89 -214 89z" />
    <glyph glyph-name="Upsilontonos" unicode="&#x38e;" horiz-adv-x="610" 
d="M-105 510l20 210h38l-32 -210h-26zM551 660l-230 -374v-286h-32v286l-230 374h34l212 -347l212 347h34z" />
    <glyph glyph-name="Omegatonos" unicode="&#x38f;" horiz-adv-x="794" 
d="M-23 510l20 210h38l-32 -210h-26zM732 340q0 -188 -200 -311h190v-29h-255v28q231 110 231 312q0 130 -85 215q-85 84 -216 84q-129 0 -215 -84t-86 -214q0 -203 231 -313v-28h-255v29h189q-199 118 -199 311q0 143 97 237q96 93 237 93q142 0 239 -93q97 -94 97 -237z
" />
    <glyph glyph-name="iotadieresistonos" unicode="&#x390;" horiz-adv-x="260" 
d="M133 780v-5l-11 -213h-27v218h38zM-10 700q14 0 24 -10t10 -24t-10 -24t-24 -10t-24 10t-10 24t10 24t24 10zM231 700q14 0 24 -10t10 -24t-10 -24t-24 -10t-24 10t-10 24t10 24t24 10zM125 480v-365q0 -97 73 -97q18 0 38 3v-27q-15 -4 -40 -4q-101 0 -101 125v365h30z
" />
    <glyph glyph-name="Alpha" unicode="&#x391;" horiz-adv-x="665" 
d="M587 0l-73 175h-364l-72 -175h-33l280 670h15l280 -670h-33zM332 614l-170 -410h340z" />
    <glyph glyph-name="Beta" unicode="&#x392;" horiz-adv-x="610" 
d="M406 366q74 -12 114 -60q40 -49 40 -119q0 -81 -53 -134q-55 -53 -150 -53h-254v660h222q82 0 126 -43q44 -44 44 -113q0 -46 -23 -83q-22 -35 -66 -55zM322 632l-187 -1v-257h187q68 0 104 36t36 93t-35 94q-37 35 -105 35zM355 29q82 0 127 45q45 44 45 112
q0 69 -45 114t-127 45h-220v-316h220z" />
    <glyph glyph-name="Gamma" unicode="&#x393;" horiz-adv-x="493" 
d="M135 0h-32v660h366v-29h-334v-631z" />
    <glyph glyph-name="Delta" unicode="&#x394;" horiz-adv-x="665" 
d="M340 670l280 -670h-575l280 670h15zM332 614l-243 -585h487z" />
    <glyph glyph-name="Epsilon" unicode="&#x395;" horiz-adv-x="561" 
d="M509 660v-29h-374v-257h294v-29h-294v-316h386v-29h-418v660h406z" />
    <glyph glyph-name="Zeta" unicode="&#x396;" horiz-adv-x="590" 
d="M91 29h459v-29h-508v12l458 619h-414v29h463v-12z" />
    <glyph glyph-name="Eta" unicode="&#x397;" horiz-adv-x="704" 
d="M601 660v-660h-32v345h-434v-345h-32v660h32v-286h434v286h32z" />
    <glyph glyph-name="Theta" unicode="&#x398;" horiz-adv-x="784" 
d="M391 670q140 0 238 -98t98 -242q0 -143 -98 -241q-97 -99 -238 -99q-139 0 -237 99q-97 97 -97 241q0 145 97 242q98 98 237 98zM392 639q-130 0 -215 -88q-86 -89 -86 -220t86 -220q85 -90 215 -90q128 0 214 90q87 88 87 220q0 131 -87 219q-86 89 -214 89zM543 355
v-29h-302v29h302z" />
    <glyph glyph-name="Iota" unicode="&#x399;" horiz-adv-x="238" 
d="M135 660v-660h-32v660h32z" />
    <glyph glyph-name="Kappa" unicode="&#x39a;" horiz-adv-x="598" 
d="M103 0v660h32v-660h-32zM198 359l360 -359h-43l-361 359l337 301h45z" />
    <glyph glyph-name="Lambda" unicode="&#x39b;" horiz-adv-x="665" 
d="M620 0h-33l-255 614l-254 -614h-33l280 670h15z" />
    <glyph glyph-name="Mu" unicode="&#x39c;" horiz-adv-x="782" 
d="M664 670h15v-670h-32v585l-248 -364h-15l-249 364v-585h-32v670h15l273 -402z" />
    <glyph glyph-name="Nu" unicode="&#x39d;" horiz-adv-x="704" 
d="M569 660h32v-670h-15l-451 601v-591h-32v670h15l451 -606v596z" />
    <glyph glyph-name="Xi" unicode="&#x39e;" horiz-adv-x="528" 
d="M488 660v-29h-448v29h448zM477 373v-29h-426v29h426zM488 29v-29h-448v29h448z" />
    <glyph glyph-name="Omicron" unicode="&#x39f;" horiz-adv-x="784" 
d="M391 670q140 0 238 -98t98 -242q0 -143 -98 -241q-97 -99 -238 -99q-139 0 -237 99q-97 97 -97 241q0 145 97 242q98 98 237 98zM392 639q-128 0 -215 -88q-86 -89 -86 -220t86 -220q87 -90 215 -90t214 90q87 88 87 220q0 131 -87 219q-86 89 -214 89z" />
    <glyph glyph-name="Pi" unicode="&#x3a0;" horiz-adv-x="674" 
d="M571 660v-660h-32v631h-404v-631h-32v660h468z" />
    <glyph glyph-name="Rho" unicode="&#x3a1;" horiz-adv-x="557" 
d="M322 660q90 0 140 -49q50 -50 50 -125q0 -76 -50 -126q-50 -49 -140 -49h-187v-311h-32v660h219zM320 631h-185v-291h185q78 0 118 40q41 41 41 105t-41 105t-118 41z" />
    <glyph glyph-name="Sigma" unicode="&#x3a3;" horiz-adv-x="543" 
d="M105 29h398v-29h-448v12l257 326l-257 310v12h436v-29h-384l238 -286v-12z" />
    <glyph glyph-name="Tau" unicode="&#x3a4;" horiz-adv-x="584" 
d="M557 660v-29h-249v-631h-32v631h-249v29h530z" />
    <glyph glyph-name="Upsilon" unicode="&#x3a5;" horiz-adv-x="610" 
d="M551 660l-230 -374v-286h-32v286l-230 374h34l212 -347l212 347h34z" />
    <glyph glyph-name="Phi" unicode="&#x3a6;" horiz-adv-x="765" 
d="M398 598q137 0 223 -71q87 -72 87 -193q0 -122 -87 -193q-85 -72 -223 -72v-99h-32v99q-137 0 -223 72q-86 71 -86 193q0 121 86 193q86 71 223 71v92h32v-92zM91 334q0 -110 75 -171q76 -63 200 -63v467q-123 0 -200 -62q-75 -61 -75 -171zM398 100q124 0 200 63
q76 61 76 171t-75 171q-77 62 -201 62v-467z" />
    <glyph glyph-name="Chi" unicode="&#x3a7;" horiz-adv-x="579" 
d="M539 0h-37l-212 313l-213 -313h-37l232 340l-215 320h37l197 -295l194 295h37l-213 -321z" />
    <glyph glyph-name="Psi" unicode="&#x3a8;" horiz-adv-x="786" 
d="M409 680v-493q120 0 190 56q68 56 68 169v248h32v-248q0 -125 -77 -190t-213 -65v-157h-32v157q-136 0 -213 65t-77 190v248h32v-248q0 -113 68 -169q70 -56 190 -56v493h32z" />
    <glyph glyph-name="Omega" unicode="&#x3a9;" horiz-adv-x="794" 
d="M732 340q0 -188 -200 -311h190v-29h-255v28q231 110 231 312q0 130 -85 215q-85 84 -216 84q-129 0 -215 -84t-86 -214q0 -203 231 -313v-28h-255v29h189q-199 118 -199 311q0 143 97 237q96 93 237 93q142 0 239 -93q97 -94 97 -237z" />
    <glyph glyph-name="Iotadieresis" unicode="&#x3aa;" horiz-adv-x="238" 
d="M8 840q14 0 24 -10t10 -24t-10 -24t-24 -10t-24 10t-10 24t10 24t24 10zM229 840q14 0 24 -10t10 -24t-10 -24t-24 -10t-24 10t-10 24t10 24t24 10zM135 660v-660h-32v660h32z" />
    <glyph glyph-name="Upsilondieresis" unicode="&#x3ab;" horiz-adv-x="610" 
d="M157 772q-14 0 -24 10t-10 24t10 24t24 10t24 -10t10 -24t-10 -24t-24 -10zM378 772q-14 0 -24 10t-10 24t10 24t24 10t24 -10t10 -24t-10 -24t-24 -10zM551 660l-230 -374v-286h-32v286l-230 374h34l212 -347l212 347h34z" />
    <glyph glyph-name="alphatonos" unicode="&#x3ac;" horiz-adv-x="646" 
d="M335 775l-11 -213h-27v218h38v-5zM589 24q11 0 31 3v-27q-17 -4 -35 -4q-87 0 -87 105v12q-24 -57 -79 -89q-55 -34 -123 -34q-101 0 -168 73q-68 74 -68 178q0 103 68 177q68 72 168 72q70 0 127 -36q57 -37 79 -97q2 47 6 123h30q-10 -193 -10 -233v-146q0 -77 61 -77z
M297 19q84 0 142 58q59 57 59 163q0 105 -59 164q-59 57 -142 57q-89 0 -148 -63q-57 -64 -57 -157t57 -158q58 -64 148 -64z" />
    <glyph glyph-name="epsilontonos" unicode="&#x3ad;" horiz-adv-x="487" 
d="M273 775l-11 -213h-27v218h38v-5zM409 102l23 -16q-60 -96 -177 -96q-83 0 -132 40t-49 102q0 46 28 80q28 33 82 48q-43 13 -65 43q-21 30 -21 68q0 54 41 87q43 32 117 32q112 0 163 -78l-21 -18q-45 67 -142 67q-58 0 -93 -24q-33 -24 -33 -67q0 -41 29 -68
q30 -27 85 -27h94v-29h-87q-68 0 -106 -32q-39 -32 -39 -80q0 -51 40 -82q40 -33 109 -33q101 0 154 83z" />
    <glyph glyph-name="etatonos" unicode="&#x3ae;" horiz-adv-x="570" 
d="M310 775l-11 -213h-27v218h38v-5zM305 490q81 0 128 -51q46 -52 46 -134v-485h-30v485q0 69 -39 113q-39 43 -106 43q-68 0 -112 -44t-44 -112v-305h-30v379q0 77 -62 77q-20 0 -30 -1v25q17 4 37 4q73 0 84 -83q48 89 158 89z" />
    <glyph glyph-name="iotatonos" unicode="&#x3af;" horiz-adv-x="260" 
d="M131 780v-5l-11 -213h-27v218h38zM125 480v-365q0 -97 73 -97q18 0 38 3v-27q-15 -4 -40 -4q-101 0 -101 125v365h30z" />
    <glyph glyph-name="upsilondieresistonos" unicode="&#x3b0;" horiz-adv-x="534" 
d="M275 780v-5l-11 -213h-27v218h38zM132 700q14 0 24 -10t10 -24t-10 -24t-24 -10t-24 10t-10 24t10 24t24 10zM373 700q14 0 24 -10t10 -24t-10 -24t-24 -10t-24 10t-10 24t10 24t24 10zM406 480q54 -125 54 -259q0 -119 -51 -175t-134 -56q-80 0 -132 50q-52 51 -52 145
v295h30v-295q0 -78 44 -122t112 -44t110 48q41 47 41 151q0 139 -55 262h33z" />
    <glyph glyph-name="alpha" unicode="&#x3b1;" horiz-adv-x="646" 
d="M589 24q11 0 31 3v-27q-17 -4 -35 -4q-87 0 -87 105v12q-24 -57 -79 -89q-55 -34 -123 -34q-101 0 -168 73q-68 74 -68 178q0 103 68 177q68 72 168 72q70 0 127 -36q57 -37 79 -97q2 47 6 123h30q-10 -193 -10 -233v-146q0 -77 61 -77zM297 19q84 0 142 58q59 57 59 163
q0 105 -59 164q-59 57 -142 57q-89 0 -148 -63q-57 -64 -57 -157t57 -158q58 -64 148 -64z" />
    <glyph glyph-name="beta" unicode="&#x3b2;" horiz-adv-x="592" 
d="M346 421q80 -13 134 -70q52 -55 52 -143q0 -100 -64 -158q-64 -60 -160 -60q-106 0 -179 66v-236h-30v754q0 88 52 137t129 49q78 0 124 -49t46 -125q0 -58 -27 -101q-30 -45 -77 -64zM308 19q84 0 138 51q54 50 54 137q0 89 -57 141q-57 51 -146 51h-67v28h30
q73 0 115 44q43 43 43 116q0 69 -39 107q-38 37 -101 37q-64 0 -107 -41q-42 -40 -42 -120v-475q29 -33 77 -55q48 -21 102 -21z" />
    <glyph glyph-name="gamma" unicode="&#x3b3;" horiz-adv-x="518" 
d="M482 480l-208 -474v-186h-30v188l-208 472h33l190 -437l190 437h33z" />
    <glyph glyph-name="delta" unicode="&#x3b4;" horiz-adv-x="613" 
d="M449 450q104 -92 104 -205q0 -109 -72 -182t-175 -73q-104 0 -174 73q-72 73 -72 177t72 177t173 73q34 0 65 -10l-290 258v12h452v-28h-388zM306 19q92 0 153 64q62 65 62 157t-62 157q-61 64 -153 64q-91 0 -152 -64q-62 -65 -62 -157t62 -157q61 -64 152 -64z" />
    <glyph glyph-name="epsilon" unicode="&#x3b5;" horiz-adv-x="487" 
d="M409 102l23 -16q-60 -96 -177 -96q-83 0 -132 40t-49 102q0 46 28 80q28 33 82 48q-43 13 -65 43q-21 30 -21 68q0 54 41 87q43 32 117 32q112 0 163 -78l-21 -18q-45 67 -142 67q-58 0 -93 -24q-33 -24 -33 -67q0 -41 29 -68q30 -27 85 -27h94v-29h-87q-68 0 -106 -32
q-39 -32 -39 -80q0 -51 40 -82q40 -33 109 -33q101 0 154 83z" />
    <glyph glyph-name="zeta" unicode="&#x3b6;" horiz-adv-x="486" 
d="M338 24q128 -35 128 -132q0 -37 -20 -72h-32q20 38 20 72q0 73 -104 102l-85 23q-185 51 -185 195q0 88 92 201l255 309h-303v28h354v-12l-281 -343q-45 -56 -64 -95q-21 -42 -21 -88q0 -64 41 -103q39 -39 120 -62z" />
    <glyph glyph-name="eta" unicode="&#x3b7;" horiz-adv-x="570" 
d="M305 490q81 0 128 -51q46 -52 46 -134v-485h-30v485q0 69 -39 113q-39 43 -106 43q-68 0 -112 -44t-44 -112v-305h-30v379q0 77 -62 77q-20 0 -30 -1v25q17 4 37 4q73 0 84 -83q48 89 158 89z" />
    <glyph glyph-name="theta" unicode="&#x3b8;" horiz-adv-x="598" 
d="M299 760q216 0 216 -385t-216 -385t-216 385t216 385zM299 731q-175 0 -184 -326h368q-9 326 -184 326zM299 19q184 0 184 356v2h-368v-2q0 -356 184 -356z" />
    <glyph glyph-name="iota" unicode="&#x3b9;" horiz-adv-x="260" 
d="M125 480v-365q0 -97 73 -97q18 0 38 3v-27q-15 -4 -40 -4q-101 0 -101 125v365h30z" />
    <glyph glyph-name="kappa" unicode="&#x3ba;" horiz-adv-x="458" 
d="M99 0v480h30v-480h-30zM190 258l248 -258h-40l-250 259l237 221h43z" />
    <glyph glyph-name="lambda" unicode="&#x3bb;" horiz-adv-x="528" 
d="M488 25q13 0 20 1v-26q-15 -3 -24 -3q-51 0 -75 70l-131 382l-214 -449h-33l235 486l-56 151q-21 57 -43 76q-20 19 -59 19q-15 0 -48 -5v27q24 6 50 6q48 0 76 -22q29 -23 51 -88l199 -569q11 -31 23 -43q12 -13 29 -13z" />
    <glyph glyph-name="mu" unicode="&#x3bc;" horiz-adv-x="578" 
d="M521 24q11 0 31 3v-27q-17 -4 -35 -4q-77 0 -86 82q-23 -43 -61 -65q-41 -23 -91 -23q-102 0 -150 86v-256h-30v660h30v-296q0 -73 43 -119q42 -46 107 -46t108 46t43 119v296h30v-374q0 -82 61 -82z" />
    <glyph glyph-name="nu" unicode="&#x3bd;" horiz-adv-x="518" 
d="M449 480h33l-215 -490h-15l-216 490h33l190 -437z" />
    <glyph glyph-name="xi" unicode="&#x3be;" horiz-adv-x="505" 
d="M357 21q60 -10 95 -45q33 -34 33 -84q0 -37 -20 -72h-32q20 38 20 72q0 82 -104 100l-75 13q-96 16 -149 74q-52 55 -52 137q0 76 45 131q43 54 119 72q-56 20 -86 62q-33 43 -33 100q0 75 54 125q55 50 133 50q105 0 173 -95l-22 -18q-59 84 -151 84q-67 0 -110 -40
q-45 -41 -45 -105q0 -66 48 -109q47 -44 118 -44h86v-28h-99q-86 0 -142 -52q-56 -53 -56 -134q0 -71 47 -118q47 -45 130 -62z" />
    <glyph glyph-name="omicron" unicode="&#x3bf;" horiz-adv-x="613" 
d="M306 490q103 0 175 -72q72 -74 72 -178t-72 -178q-73 -72 -176 -72q-102 0 -174 72q-71 74 -71 178t71 178q72 72 175 72zM306 461q-92 0 -153 -64t-61 -157q0 -95 61 -157q61 -64 152 -64q93 0 154 64q62 65 62 157t-62 157q-61 64 -153 64z" />
    <glyph glyph-name="pi" unicode="&#x3c0;" horiz-adv-x="564" 
d="M503 -4q-87 0 -87 105v351h-287v-452h-30v480h347v-374q0 -82 61 -82q11 0 31 3v-27q-17 -4 -35 -4z" />
    <glyph glyph-name="rho" unicode="&#x3c1;" horiz-adv-x="624" 
d="M321 490q107 0 174 -72q69 -72 69 -177q0 -104 -68 -178q-69 -73 -169 -73q-65 0 -124 35q-58 34 -82 90v-295h-30v420q0 110 65 181q64 69 165 69zM324 19q92 0 150 64q58 62 58 157t-59 158t-151 63q-85 0 -143 -55t-58 -164q0 -110 60 -166q61 -57 143 -57z" />
    <glyph glyph-name="uni03C2" unicode="&#x3c2;" horiz-adv-x="522" 
d="M408 -180q20 38 20 74q0 48 -31 70t-99 39q-57 15 -62 17q-30 9 -62 26q-37 19 -59 43q-21 23 -38 64q-17 42 -17 93q0 112 67 178q66 66 168 66q121 0 195 -95l-22 -18q-64 84 -172 84q-93 0 -148 -58q-56 -59 -56 -157q0 -38 9 -70q7 -28 26 -52q18 -21 36 -36t46 -25
q31 -13 47 -17q38 -10 49 -13q80 -20 116 -48q39 -29 39 -91q0 -39 -20 -74h-32z" />
    <glyph glyph-name="sigma" unicode="&#x3c3;" horiz-adv-x="625" 
d="M615 480v-28h-202q58 -25 97 -82q36 -56 36 -129q0 -103 -69 -177t-174 -74t-174 73t-69 175t71 173q70 69 173 69h311zM514 240q0 92 -60 152q-59 59 -150 59q-90 0 -152 -60q-60 -60 -60 -153q0 -92 60 -155q58 -64 151 -64q91 0 151 64q60 65 60 157z" />
    <glyph glyph-name="tau" unicode="&#x3c4;" horiz-adv-x="421" 
d="M306 18q37 0 88 9v-27q-41 -10 -91 -10q-145 0 -145 135v327h-136v28h362v-28h-196v-327q0 -61 31 -83q31 -24 87 -24z" />
    <glyph glyph-name="upsilon" unicode="&#x3c5;" horiz-adv-x="534" 
d="M406 480q54 -125 54 -259q0 -119 -51 -175t-134 -56q-80 0 -132 50q-52 51 -52 145v295h30v-295q0 -78 44 -122t112 -44t110 48q41 47 41 151q0 139 -55 262h33z" />
    <glyph glyph-name="phi" unicode="&#x3c6;" horiz-adv-x="705" 
d="M367 488q125 0 202 -69q76 -70 76 -180q0 -111 -76 -180q-77 -69 -202 -69v-170h-30v170q-126 0 -201 69q-76 69 -76 180t76 180q75 69 201 69v262h30v-262zM92 239q0 -99 66 -160q65 -61 179 -61v442q-114 0 -179 -61q-66 -61 -66 -160zM367 18q113 0 180 61
q66 61 66 160t-66 160q-67 61 -180 61v-442z" />
    <glyph glyph-name="chi" unicode="&#x3c7;" horiz-adv-x="471" 
d="M439 -156q15 0 20 1v-25q-11 -3 -25 -3q-51 0 -78 57l-123 261l-179 -315h-33l197 343l-119 250q-14 27 -26 35q-14 8 -31 8q-14 0 -20 -1v25q10 3 24 3q50 0 79 -59l110 -234l165 290h33l-184 -319l132 -274q19 -43 58 -43z" />
    <glyph glyph-name="psi" unicode="&#x3c8;" horiz-adv-x="727" 
d="M382 660v-643q105 0 173 62q66 63 66 175q0 109 -55 226h33q54 -120 54 -223q0 -125 -75 -197t-196 -72v-168h-30v168q-114 0 -187 66q-74 68 -74 188v238h30v-238q0 -109 67 -167q65 -58 164 -58v643h30z" />
    <glyph glyph-name="omega" unicode="&#x3c9;" horiz-adv-x="828" 
d="M580 486q188 -66 188 -260q0 -112 -57 -174q-56 -62 -140 -62q-55 0 -98 29q-43 30 -59 87q-17 -57 -59 -86q-42 -30 -98 -30q-83 0 -140 62t-57 174q0 194 188 260l10 -26q-166 -58 -166 -232q0 -100 48 -154q49 -55 116 -55q62 0 102 45q41 44 41 121v195h30v-195
q0 -78 40 -121q40 -45 103 -45q67 0 116 55q48 54 48 154q0 174 -166 232z" />
    <glyph glyph-name="iotadieresis" unicode="&#x3ca;" horiz-adv-x="260" 
d="M29 700q14 0 24 -10t10 -24t-10 -24t-24 -10t-24 10t-10 24t10 24t24 10zM190 700q14 0 24 -10t10 -24t-10 -24t-24 -10t-24 10t-10 24t10 24t24 10zM125 480v-365q0 -97 73 -97q18 0 38 3v-27q-15 -4 -40 -4q-101 0 -101 125v365h30z" />
    <glyph glyph-name="upsilondieresis" unicode="&#x3cb;" horiz-adv-x="534" 
d="M156 700q14 0 24 -10t10 -24t-10 -24t-24 -10t-24 10t-10 24t10 24t24 10zM347 700q14 0 24 -10t10 -24t-10 -24t-24 -10t-24 10t-10 24t10 24t24 10zM406 480q54 -125 54 -259q0 -119 -51 -175t-134 -56q-80 0 -132 50q-52 51 -52 145v295h30v-295q0 -78 44 -122
t112 -44t110 48q41 47 41 151q0 139 -55 262h33z" />
    <glyph glyph-name="omicrontonos" unicode="&#x3cc;" horiz-adv-x="613" 
d="M328 780v-5l-11 -213h-27v218h38zM306 490q103 0 175 -72q72 -74 72 -178t-72 -178q-73 -72 -176 -72q-102 0 -174 72q-71 74 -71 178t71 178q72 72 175 72zM306 461q-92 0 -153 -64t-61 -157q0 -95 61 -157q61 -64 152 -64q93 0 154 64q62 65 62 157t-62 157
q-61 64 -153 64z" />
    <glyph glyph-name="upsilontonos" unicode="&#x3cd;" horiz-adv-x="534" 
d="M273 780v-5l-11 -213h-27v218h38zM406 480q54 -125 54 -259q0 -119 -51 -175t-134 -56q-80 0 -132 50q-52 51 -52 145v295h30v-295q0 -78 44 -122t112 -44t110 48q41 47 41 151q0 139 -55 262h33z" />
    <glyph glyph-name="omegatonos" unicode="&#x3ce;" horiz-adv-x="828" 
d="M435 775l-11 -213h-27v218h38v-5zM580 486q188 -66 188 -260q0 -112 -57 -174q-56 -62 -140 -62q-55 0 -98 29q-43 30 -59 87q-17 -57 -59 -86q-42 -30 -98 -30q-83 0 -140 62t-57 174q0 194 188 260l10 -26q-166 -58 -166 -232q0 -100 48 -154q49 -55 116 -55
q62 0 102 45q41 44 41 121v195h30v-195q0 -78 40 -121q40 -45 103 -45q67 0 116 55q48 54 48 154q0 174 -166 232z" />
    <glyph glyph-name="uni2009" unicode="&#x2009;" horiz-adv-x="146" 
 />
    <glyph glyph-name="endash" unicode="&#x2013;" horiz-adv-x="500" 
d="M450 323v-28h-400v28h400z" />
    <glyph glyph-name="emdash" unicode="&#x2014;" horiz-adv-x="1000" 
d="M950 323v-28h-900v28h900z" />
    <glyph glyph-name="uni2015" unicode="&#x2015;" horiz-adv-x="1000" 
d="M950 323v-28h-900v28h900z" />
    <glyph glyph-name="quoteleft" unicode="&#x2018;" horiz-adv-x="265" 
d="M161 660l-20 -240h-39l33 240h26z" />
    <glyph glyph-name="quoteright" unicode="&#x2019;" horiz-adv-x="265" 
d="M163 660l-33 -240h-26l20 240h39z" />
    <glyph glyph-name="quotesinglbase" unicode="&#x201a;" horiz-adv-x="265" 
d="M163 63l-33 -240h-26l20 240h39z" />
    <glyph glyph-name="quotedblleft" unicode="&#x201c;" horiz-adv-x="405" 
d="M161 660l-20 -240h-39l33 240h26zM301 660l-20 -240h-39l33 240h26z" />
    <glyph glyph-name="quotedblright" unicode="&#x201d;" horiz-adv-x="405" 
d="M163 660l-33 -240h-26l20 240h39zM303 660l-33 -240h-26l20 240h39z" />
    <glyph glyph-name="quotedblbase" unicode="&#x201e;" horiz-adv-x="405" 
d="M163 63l-33 -240h-26l20 240h39zM303 63l-33 -240h-26l20 240h39z" />
    <glyph glyph-name="dagger" unicode="&#x2020;" horiz-adv-x="426" 
d="M228 750v-126h123v-28h-123v-210h-30v210h-123v28h123v126h30z" />
    <glyph glyph-name="daggerdbl" unicode="&#x2021;" horiz-adv-x="426" 
d="M228 750v-96h123v-28h-123v-146h123v-28h-123v-96h-30v96h-123v28h123v146h-123v28h123v96h30z" />
    <glyph glyph-name="bullet" unicode="&#x2022;" horiz-adv-x="337" 
d="M169 370q42 0 74 -29q32 -30 32 -77t-32 -76q-31 -30 -74 -30t-74 30q-33 29 -33 76t33 77q32 29 74 29z" />
    <glyph glyph-name="ellipsis" unicode="&#x2026;" horiz-adv-x="750" 
d="M134 68q15 0 28 -11q12 -11 12 -29q0 -16 -12 -27q-11 -11 -28 -11q-16 0 -26 11q-12 11 -12 27q0 18 12 29q11 11 26 11zM374 68q15 0 28 -11q12 -11 12 -29q0 -16 -12 -27q-11 -11 -28 -11q-16 0 -26 11q-12 11 -12 27q0 18 12 29q11 11 26 11zM614 68q15 0 28 -11
q12 -11 12 -29q0 -16 -12 -27q-11 -11 -28 -11q-16 0 -26 11q-12 11 -12 27q0 18 12 29q11 11 26 11z" />
    <glyph glyph-name="perthousand" unicode="&#x2030;" horiz-adv-x="1177" 
d="M215 670q66 0 112 -46t46 -112t-46 -112t-112 -46q-65 0 -111 46t-46 112t46 112t111 46zM604 660l-381 -660h-31l381 660h31zM215 641q-55 0 -89 -37q-36 -38 -36 -92t36 -92q34 -37 89 -37q54 0 90 37q36 38 36 92t-36 92q-36 37 -90 37zM963 308q66 0 112 -46t46 -112
t-46 -112t-112 -46q-65 0 -111 46t-46 112t46 112t111 46zM578 307q66 0 112 -46t46 -112t-46 -112t-112 -46t-112 45q-45 47 -45 113q0 67 45 113q46 45 112 45zM963 279q-55 0 -89 -37q-36 -38 -36 -92t36 -92q34 -37 89 -37q54 0 90 37t36 92q0 54 -36 92q-36 37 -90 37z
M578 278q-54 0 -90 -37q-35 -38 -35 -92t35 -92q36 -37 90 -37t90 37q36 38 36 92q0 55 -36 92t-90 37z" />
    <glyph glyph-name="minute" unicode="&#x2032;" horiz-adv-x="213" 
d="M156 660l-58 -262h-28l46 262h40z" />
    <glyph glyph-name="second" unicode="&#x2033;" horiz-adv-x="353" 
d="M156 660l-58 -262h-28l46 262h40zM296 660l-58 -262h-28l46 262h40z" />
    <glyph glyph-name="guilsinglleft" unicode="&#x2039;" horiz-adv-x="278" 
d="M209 447l22 -20l-147 -158l147 -160l-22 -18l-163 172v12z" />
    <glyph glyph-name="guilsinglright" unicode="&#x203a;" horiz-adv-x="278" 
d="M69 447l163 -172v-12l-163 -172l-22 18l147 160l-147 158z" />
    <glyph glyph-name="fraction" unicode="&#x2044;" horiz-adv-x="226" 
d="M319 660l-381 -660h-31l381 660h31z" />
    <glyph glyph-name="uni2070" unicode="&#x2070;" horiz-adv-x="403" 
d="M202 786q73 0 109 -57t36 -153q0 -95 -35 -157q-36 -61 -110 -61t-110 61t-36 157t36 153t110 57zM202 757q-114 0 -114 -181q0 -85 28 -137q27 -53 86 -53q58 0 87 53q27 53 27 137q0 82 -27 132q-28 49 -87 49z" />
    <glyph glyph-name="uni2074" unicode="&#x2074;" horiz-adv-x="344" 
d="M323 474v-28h-64v-82h-31v82h-209v10l140 324h32l-132 -306h169v151h31v-151h64z" />
    <glyph glyph-name="uni2075" unicode="&#x2075;" horiz-adv-x="363" 
d="M167 620q67 0 110 -32q41 -32 41 -93q0 -63 -42 -100q-41 -37 -101 -37q-87 0 -136 81l23 16q44 -68 114 -68q47 0 79 29q31 30 31 78q0 47 -31 72q-31 26 -86 26h-92v188h202v-28h-172v-136q28 4 60 4z" />
    <glyph glyph-name="uni2076" unicode="&#x2076;" horiz-adv-x="373" 
d="M188 627q56 0 96 -39q39 -40 39 -96t-39 -95q-40 -39 -98 -39q-57 0 -96 39q-40 39 -40 97q0 11 1 16q0 2 0.5 6.5t1.5 6.5q3 12 4 15l4 12q2 5 7 13l6 12q3 6 8 13q3 4 6 9l2 3l9 13q7 11 9 13l103 154h37l-114 -167q26 14 54 14zM186 387q45 0 75 30q30 29 30 75
t-30 76t-75 30q-46 0 -74 -30q-30 -30 -30 -76t30 -75q28 -30 74 -30z" />
    <glyph glyph-name="uni2077" unicode="&#x2077;" horiz-adv-x="315" 
d="M24 780h271v-10l-221 -406h-34l213 388h-229v28z" />
    <glyph glyph-name="uni2078" unicode="&#x2078;" horiz-adv-x="378" 
d="M222 583q108 -37 108 -116q0 -49 -38 -79q-37 -30 -103 -30t-103 31q-38 30 -38 79q0 78 108 115q-88 34 -88 104q0 46 34 73q35 26 87 26t87 -26q34 -27 34 -74q0 -69 -88 -103zM98 685q0 -33 24 -52q22 -19 67 -36q44 17 68 36q23 20 23 52q0 34 -26 54t-65 20t-65 -20
t-26 -54zM189 385q52 0 82 24q29 23 29 60q0 39 -28 60q-27 20 -83 40q-56 -20 -83 -40q-28 -21 -28 -60q0 -37 29 -60q30 -24 82 -24z" />
    <glyph glyph-name="uni2079" unicode="&#x2079;" horiz-adv-x="373" 
d="M187 786q57 0 97 -39q39 -39 39 -97q0 -11 -1 -16q0 -2 -0.5 -6.5t-1.5 -6.5q-3 -12 -4 -15l-4 -12q-1 -3 -6 -13q-4 -6 -7 -12t-8 -13q-3 -4 -6 -9l-2 -3l-9 -13q-7 -11 -9 -13l-103 -154h-37l114 167q-26 -14 -54 -14q-55 0 -96 39q-39 40 -39 96t39 95q41 39 98 39z
M187 546q45 0 75 30q29 31 29 76q0 46 -29 75q-30 30 -75 30t-75 -30q-30 -29 -30 -75t30 -76t75 -30z" />
    <glyph glyph-name="uni207A" unicode="&#x207a;" horiz-adv-x="427" 
d="M228 739v-153h149v-27h-149v-153h-30v153h-149v27h149v153h30z" />
    <glyph glyph-name="uni207B" unicode="&#x207b;" horiz-adv-x="427" 
d="M377 586v-27h-328v27h328z" />
    <glyph glyph-name="uni207C" unicode="&#x207c;" horiz-adv-x="427" 
d="M57 636v27h313v-27h-313zM57 482v27h313v-27h-313z" />
    <glyph glyph-name="uni207D" unicode="&#x207d;" horiz-adv-x="243" 
d="M209 900l12 -22q-127 -70 -127 -305q0 -236 127 -306l-12 -22q-144 72 -144 328q0 255 144 327z" />
    <glyph glyph-name="uni207E" unicode="&#x207e;" horiz-adv-x="243" 
d="M34 900q144 -72 144 -327q0 -256 -144 -328l-12 22q127 70 127 306q0 235 -127 305z" />
    <glyph glyph-name="uni2080" unicode="&#x2080;" horiz-adv-x="403" 
d="M202 302q73 0 109 -57t36 -153q0 -95 -35 -157q-36 -61 -110 -61t-110 61q-36 62 -36 157q0 96 36 153t110 57zM202 273q-114 0 -114 -181q0 -86 28 -138q27 -52 86 -52t87 52q27 52 27 138q0 82 -27 132q-28 49 -87 49z" />
    <glyph glyph-name="uni2081" unicode="&#x2081;" horiz-adv-x="341" 
d="M194 296v-388h100v-28h-243v28h112v360h-112v28h143z" />
    <glyph glyph-name="uni2082" unicode="&#x2082;" horiz-adv-x="358" 
d="M92 -92h225v-28h-281v9l152 156q35 36 58 70q19 29 19 64q0 39 -25 67q-26 27 -68 27q-44 0 -70 -29t-26 -69q0 -16 3 -34h-30q-4 13 -4 36q0 50 35 88q34 37 92 37q56 0 90 -34q35 -35 35 -87q0 -41 -21 -74q-24 -37 -68 -81z" />
    <glyph glyph-name="uni2083" unicode="&#x2083;" horiz-adv-x="350" 
d="M169 135q52 0 95 -32q41 -32 41 -94q0 -61 -42 -99q-42 -36 -101 -36q-86 0 -136 81l23 16q44 -68 114 -68q47 0 79 29q31 30 31 77q0 46 -31 73q-32 26 -86 26h-35v10l122 150h-191v28h241v-10z" />
    <glyph glyph-name="uni2084" unicode="&#x2084;" horiz-adv-x="344" 
d="M323 -10v-28h-64v-82h-31v82h-209v10l140 324h32l-132 -306h169v151h31v-151h64z" />
    <glyph glyph-name="uni2085" unicode="&#x2085;" horiz-adv-x="363" 
d="M167 136q67 0 110 -32q41 -32 41 -93q0 -63 -42 -100q-41 -37 -101 -37q-87 0 -136 81l23 16q44 -68 114 -68q47 0 79 29q31 30 31 78q0 47 -31 72q-31 26 -86 26h-92v188h202v-28h-172v-136q28 4 60 4z" />
    <glyph glyph-name="uni2086" unicode="&#x2086;" horiz-adv-x="373" 
d="M188 143q56 0 96 -40q39 -39 39 -95t-39 -95q-40 -39 -98 -39q-57 0 -96 39q-40 39 -40 97q0 11 1 16q0 2 0.5 6.5t1.5 6.5q3 12 4 15q1 2 1.5 4.5t1.5 4.5t1 3q2 5 7 13l6 12q3 6 8 13q3 4 6 9l2 3l9 13q7 11 9 13l103 154h37l-114 -167q26 14 54 14zM186 -97
q44 0 75 29q30 30 30 76t-30 76t-75 30q-46 0 -74 -30q-30 -30 -30 -76t30 -76q29 -29 74 -29z" />
    <glyph glyph-name="uni2087" unicode="&#x2087;" horiz-adv-x="315" 
d="M24 296h271v-10l-221 -406h-34l213 388h-229v28z" />
    <glyph glyph-name="uni2088" unicode="&#x2088;" horiz-adv-x="378" 
d="M222 99q108 -37 108 -116q0 -49 -38 -79q-37 -30 -103 -30t-103 30q-38 32 -38 80q0 78 108 115q-88 34 -88 104q0 46 34 73q35 26 87 26t87 -26q34 -27 34 -74q0 -69 -88 -103zM98 201q0 -33 24 -52q22 -19 67 -36q44 17 68 36q23 20 23 52q0 34 -26 54t-65 20t-65 -20
t-26 -54zM189 -99q51 0 82 23q29 24 29 61q0 39 -28 60q-27 20 -83 40q-56 -20 -83 -40q-28 -21 -28 -60q0 -37 29 -61q31 -23 82 -23z" />
    <glyph glyph-name="uni2089" unicode="&#x2089;" horiz-adv-x="373" 
d="M187 302q57 0 97 -39q39 -39 39 -97q0 -10 -1 -15q0 -2 -0.5 -7t-1.5 -7q-3 -11 -4 -14l-2.5 -7.5t-1.5 -5.5q-1 -3 -6 -13q-4 -6 -7 -12t-8 -13q-7 -11 -8 -11l-9 -14q-7 -11 -9 -13l-103 -154h-37l114 167q-26 -14 -54 -14q-56 0 -96 40q-39 39 -39 95t39 95
q41 39 98 39zM187 62q45 0 75 30q29 31 29 76t-29 76q-31 29 -75 29t-75 -29q-30 -30 -30 -76t30 -76t75 -30z" />
    <glyph glyph-name="uni208A" unicode="&#x208a;" horiz-adv-x="427" 
d="M228 254v-153h149v-27h-149v-153h-30v153h-149v27h149v153h30z" />
    <glyph glyph-name="uni208B" unicode="&#x208b;" horiz-adv-x="427" 
d="M377 101v-27h-328v27h328z" />
    <glyph glyph-name="uni208C" unicode="&#x208c;" horiz-adv-x="427" 
d="M57 151v27h313v-27h-313zM57 -3v27h313v-27h-313z" />
    <glyph glyph-name="uni208D" unicode="&#x208d;" horiz-adv-x="243" 
d="M209 415l12 -22q-127 -70 -127 -305q0 -236 127 -306l-12 -22q-144 72 -144 328q0 255 144 327z" />
    <glyph glyph-name="uni208E" unicode="&#x208e;" horiz-adv-x="243" 
d="M34 415q144 -72 144 -327q0 -256 -144 -328l-12 22q127 70 127 306q0 235 -127 305z" />
    <glyph glyph-name="Euro" unicode="&#x20ac;" horiz-adv-x="684" 
d="M419 21q120 0 185 83l23 -19q-77 -95 -210 -95q-112 0 -192 68q-78 68 -104 181h-113v28h108q-5 37 -5 63q0 35 4 58h-104v28h109q22 112 103 184q79 70 194 70q133 0 210 -95l-23 -19q-65 83 -185 83q-105 0 -173 -61q-69 -60 -92 -162h338l-8 -28h-335q-4 -23 -4 -58
q0 -26 5 -63h300l-8 -28h-287q23 -99 92 -158q69 -60 172 -60z" />
    <glyph glyph-name="uni2105" unicode="&#x2105;" horiz-adv-x="794" 
d="M215 670q77 0 124 -62l-22 -18q-39 52 -102 52q-54 0 -90 -37t-36 -93q0 -54 36 -92t90 -38q63 0 102 51l22 -17q-47 -62 -124 -62q-65 0 -111 46t-46 112t46 112t111 46zM604 660l-381 -660h-31l381 660h31zM578 306q66 0 112 -46t46 -112t-46 -112t-112 -46t-111 46
q-46 46 -46 112t46 112q45 46 111 46zM578 277q-54 0 -90 -37q-35 -38 -35 -92t35 -92q36 -37 90 -37t90 37q36 38 36 92t-36 92q-36 37 -90 37z" />
    <glyph glyph-name="uni2113" unicode="&#x2113;" horiz-adv-x="363" 
d="M129 153q0 -135 115 -135q27 0 79 11v-27q-43 -12 -81 -12q-68 0 -105 42q-38 44 -38 121v48l-60 -63l-20 21l80 85v346q0 170 120 170q109 0 109 -131q0 -170 -199 -394v-82zM129 592v-314q167 196 167 349q0 104 -75 104q-92 0 -92 -139z" />
    <glyph glyph-name="uni2116" unicode="&#x2116;" horiz-adv-x="1129" 
d="M569 64v596h32v-670h-15l-451 601v-591h-32v670h15zM911 238q-65 0 -111 46t-46 112t46 112t111 46q66 0 112 -46t46 -112t-46 -112t-112 -46zM911 525q-55 0 -89 -37q-36 -38 -36 -92t36 -92q34 -37 89 -37q54 0 90 37t36 92q0 54 -36 92q-36 37 -90 37zM764 120v28h295
v-28h-295z" />
    <glyph glyph-name="uni2117" unicode="&#x2117;" horiz-adv-x="784" 
d="M391 670q140 0 238 -98t98 -242q0 -143 -98 -241q-97 -99 -238 -99q-139 0 -237 99q-97 97 -97 241q0 145 97 242q98 98 237 98zM392 641q-128 0 -217 -89q-87 -90 -87 -221t87 -221q88 -91 217 -91t217 91q87 90 87 221q0 130 -87 220q-89 90 -217 90zM421 502
q55 0 87 -30q32 -32 32 -79q0 -48 -32 -78q-31 -31 -87 -31h-104v-137h-31v355h135zM421 475h-104v-164h104q42 0 65 23t23 59t-23 59t-65 23z" />
    <glyph glyph-name="trademark" unicode="&#x2122;" horiz-adv-x="939" 
d="M863 667v-456h-32v375l-161 -232h-13l-161 232v-375h-31v456h12l187 -269l186 269h13zM378 660v-28h-166v-421h-31v421h-166v28h363z" />
    <glyph glyph-name="uni2126" unicode="&#x2126;" horiz-adv-x="794" 
d="M732 340q0 -188 -200 -311h190v-29h-255v28q231 110 231 312q0 130 -85 215q-85 84 -216 84q-129 0 -215 -84t-86 -214q0 -203 231 -313v-28h-255v29h189q-199 118 -199 311q0 143 97 237q96 93 237 93q142 0 239 -93q97 -94 97 -237z" />
    <glyph glyph-name="estimated" unicode="&#x212e;" horiz-adv-x="795" 
d="M731 327h-544v-205q75 -104 220 -104q79 0 146 32q67 33 112 88l22 -19q-49 -60 -122 -94q-75 -35 -158 -35q-148 0 -248 98q-99 98 -99 238q0 144 102 244q100 100 241 100q82 0 156 -34t126 -103q50 -68 50 -152zM407 641q-142 0 -220 -104v-182h421v197
q-75 89 -201 89z" />
    <glyph glyph-name="uni2150" unicode="&#x2150;" horiz-adv-x="882" 
d="M294 272v-28h-243v28h112v360h-112v28h143v-388h100zM629 660h31l-381 -660h-31zM591 416h271v-10l-221 -406h-34l213 388h-229v28z" />
    <glyph glyph-name="uni2151" unicode="&#x2151;" horiz-adv-x="910" 
d="M294 272v-28h-243v28h112v360h-112v28h143v-388h100zM629 660h31l-381 -660h-31zM724 422q57 0 96 -39q40 -39 40 -97q0 -10 -1 -15q0 -2 -0.5 -7t-1.5 -7q-3 -11 -4 -14l-2.5 -7.5t-1.5 -5.5q-2 -5 -7 -13l-6 -12q-3 -6 -8 -13q-8 -10 -8 -11l-9 -14q-7 -11 -9 -13
l-103 -154h-37l114 167q-26 -14 -54 -14q-56 0 -95 40q-40 39 -40 95t40 95q39 39 97 39zM724 182q46 0 74 30q30 30 30 76t-30 76q-29 29 -74 29q-44 0 -75 -29q-30 -30 -30 -76t30 -76t75 -30z" />
    <glyph glyph-name="uni2152" unicode="&#x2152;" horiz-adv-x="1311" 
d="M194 660v-388h100v-28h-243v28h112v360h-112v28h143zM660 660l-381 -660h-31l381 660h31zM1110 422q73 0 109 -57t36 -153q0 -95 -35 -157q-36 -61 -110 -61t-110 61q-36 62 -36 157q0 96 36 153t110 57zM761 416v-388h100v-28h-243v28h112v360h-112v28h143zM1110 393
q-114 0 -114 -181q0 -85 28 -137q27 -53 86 -53t86 53q28 52 28 137q0 83 -28 132q-27 49 -86 49z" />
    <glyph glyph-name="uni2153" unicode="&#x2153;" horiz-adv-x="917" 
d="M294 272v-28h-243v28h112v360h-112v28h143v-388h100zM629 660h31l-381 -660h-31zM736 255q53 0 94 -32q42 -32 42 -94q0 -61 -42 -99q-42 -36 -101 -36q-87 0 -136 81l23 16q44 -68 114 -68q47 0 79 29q31 30 31 77q0 46 -31 73q-32 26 -86 26h-35v10l122 150h-191v28
h241v-10z" />
    <glyph glyph-name="uni2154" unicode="&#x2154;" horiz-adv-x="934" 
d="M317 272v-28h-281v9l152 156q36 38 58 71q19 28 19 63q0 39 -25 67q-26 27 -68 27q-44 0 -70 -29t-26 -69q0 -16 3 -34h-30q-4 13 -4 36q0 50 35 88q34 37 92 37q56 0 90 -34q35 -35 35 -87q0 -41 -21 -74q-24 -37 -68 -81l-116 -118h225zM646 660h31l-381 -660h-31z
M753 255q53 0 94 -32q42 -32 42 -94q0 -61 -42 -99q-42 -36 -101 -36q-86 0 -136 81l23 16q44 -68 114 -68q47 0 79 29q31 30 31 77q0 46 -31 73q-32 26 -86 26h-35v10l122 150h-191v28h241v-10z" />
    <glyph glyph-name="uni2155" unicode="&#x2155;" horiz-adv-x="922" 
d="M294 272v-28h-243v28h112v360h-112v28h143v-388h100zM629 660h31l-381 -660h-31zM726 256q69 0 110 -31q41 -32 41 -94q0 -63 -42 -100q-41 -37 -101 -37q-87 0 -136 81l23 16q44 -68 114 -68q47 0 79 30q31 28 31 77q0 46 -30 72q-32 26 -87 26h-92v188h202v-28h-172
v-136q28 4 60 4z" />
    <glyph glyph-name="uni2156" unicode="&#x2156;" horiz-adv-x="939" 
d="M317 272v-28h-281v9l152 156q36 38 58 71q19 28 19 63q0 39 -25 67q-26 27 -68 27q-44 0 -70 -29t-26 -69q0 -16 3 -34h-30q-4 13 -4 36q0 50 35 88q34 37 92 37q56 0 90 -34q35 -35 35 -87q0 -41 -21 -74q-24 -37 -68 -81l-116 -118h225zM646 660h31l-381 -660h-31z
M743 256q69 0 110 -31q41 -32 41 -94q0 -63 -42 -100q-41 -37 -101 -37q-87 0 -136 81l23 16q44 -68 114 -68q47 0 79 30q31 28 31 77q0 46 -30 72q-32 26 -87 26h-92v188h202v-28h-172v-136q28 4 60 4z" />
    <glyph glyph-name="uni2157" unicode="&#x2157;" horiz-adv-x="896" 
d="M305 373q0 -62 -42 -98q-41 -37 -101 -37q-86 0 -136 81l23 16q44 -68 114 -68q47 0 79 30q31 28 31 76q0 46 -31 73q-32 26 -86 26h-35v10l122 150h-191v28h241v-10l-124 -151q52 0 95 -32q41 -32 41 -94zM603 660h31l-381 -660h-31zM700 256q69 0 110 -31
q41 -32 41 -94q0 -63 -42 -100q-41 -37 -101 -37q-86 0 -136 81l23 16q44 -68 114 -68q47 0 79 30q31 28 31 77q0 46 -30 72q-32 26 -87 26h-92v188h202v-28h-172v-136q28 4 60 4z" />
    <glyph glyph-name="uni2158" unicode="&#x2158;" horiz-adv-x="935" 
d="M323 326h-64v-82h-31v82h-209v10l140 324h32l-132 -306h169v151h31v-151h64v-28zM642 660h31l-381 -660h-31zM739 256q69 0 110 -31q41 -32 41 -94q0 -63 -42 -100q-41 -37 -101 -37q-86 0 -136 81l23 16q44 -68 114 -68q48 0 79 30q31 28 31 77q0 46 -30 72
q-32 26 -87 26h-92v188h202v-28h-172v-136q28 4 60 4z" />
    <glyph glyph-name="uni2159" unicode="&#x2159;" horiz-adv-x="860" 
d="M294 272v-28h-243v28h112v360h-112v28h143v-388h100zM629 660h31l-381 -660h-31zM675 263q56 0 96 -40q39 -39 39 -95t-39 -95q-41 -39 -98 -39t-96 39q-40 39 -40 97q0 10 1 15q0 2 0.5 7t1.5 7q3 11 4 14l2.5 7.5t1.5 5.5q2 5 7 13l6 12q3 6 8 13q3 4 6 9l2 3l9 13
q7 11 9 13l103 154h37l-114 -167q26 14 54 14zM673 23q44 0 75 29q30 30 30 76t-30 76t-75 30t-74 -30q-30 -30 -30 -76t30 -76q29 -29 74 -29z" />
    <glyph glyph-name="uni215A" unicode="&#x215a;" horiz-adv-x="847" 
d="M318 375q0 -63 -42 -100q-41 -37 -101 -37q-87 0 -136 81l23 16q44 -68 114 -68q48 0 79 30q31 28 31 77q0 47 -31 72q-31 26 -86 26h-92v188h202v-28h-172v-136q28 4 60 4q69 0 110 -31q41 -32 41 -94zM616 660h31l-381 -660h-31zM662 263q56 0 96 -40q39 -39 39 -95
t-39 -95q-40 -39 -98 -39q-57 0 -96 39q-40 39 -40 97q0 10 1 15q0 2 0.5 7t1.5 7q3 11 4 14l2.5 7.5t1.5 5.5q2 5 7 13l6 12q3 6 8 13q3 4 6 9l2 3l9 13q7 11 9 13l103 154h37l-114 -167q26 14 54 14zM660 23q44 0 75 29q30 30 30 76t-30 76t-75 30q-46 0 -74 -30
q-30 -30 -30 -76t30 -76q29 -29 74 -29z" />
    <glyph glyph-name="oneeighth" unicode="&#x215b;" horiz-adv-x="900" 
d="M294 272v-28h-243v28h112v360h-112v28h143v-388h100zM629 660h31l-381 -660h-31zM744 219q108 -37 108 -116q0 -49 -38 -79t-103 -30t-103 30q-38 32 -38 80q0 78 108 115q-88 34 -88 104q0 46 35 73q35 26 86 26q52 0 87 -26q34 -27 34 -74q0 -69 -88 -103zM620 321
q0 -33 24 -52q22 -19 67 -36q44 17 68 36q23 20 23 52q0 34 -26 54t-65 20t-65 -20t-26 -54zM711 21q52 0 82 24q29 23 29 60q0 39 -28 60q-27 20 -83 40q-54 -20 -82 -40q-29 -21 -29 -60q0 -37 30 -60q28 -24 81 -24z" />
    <glyph glyph-name="threeeighths" unicode="&#x215c;" horiz-adv-x="874" 
d="M305 373q0 -62 -42 -98q-41 -37 -101 -37q-86 0 -136 81l23 16q44 -68 114 -68q47 0 79 30q31 28 31 76q0 46 -31 73q-32 26 -86 26h-35v10l122 150h-191v28h241v-10l-124 -151q52 0 95 -32q41 -32 41 -94zM603 660h31l-381 -660h-31zM718 219q108 -37 108 -116
q0 -49 -38 -79q-37 -30 -103 -30q-65 0 -103 30q-38 32 -38 80q0 78 108 115q-88 34 -88 104q0 46 35 73q35 26 86 26q52 0 87 -26q34 -27 34 -74q0 -69 -88 -103zM594 321q0 -33 24 -52q22 -19 67 -36q44 17 68 36q23 20 23 52q0 34 -26 54t-65 20t-65 -20t-26 -54zM685 21
q52 0 82 24q29 23 29 60q0 39 -28 60q-27 20 -83 40q-54 -20 -82 -40q-29 -21 -29 -60q0 -37 30 -60q28 -24 81 -24z" />
    <glyph glyph-name="fiveeighths" unicode="&#x215d;" horiz-adv-x="887" 
d="M318 375q0 -63 -42 -100q-41 -37 -101 -37q-87 0 -136 81l23 16q44 -68 114 -68q48 0 79 30q31 28 31 77q0 47 -31 72q-31 26 -86 26h-92v188h202v-28h-172v-136q28 4 60 4q69 0 110 -31q41 -32 41 -94zM616 660h31l-381 -660h-31zM731 219q108 -37 108 -116
q0 -49 -38 -79q-37 -30 -103 -30t-103 30q-38 32 -38 80q0 78 108 115q-88 34 -88 104q0 46 35 73q35 26 86 26q52 0 87 -26q34 -27 34 -74q0 -69 -88 -103zM607 321q0 -33 24 -52q22 -19 67 -36q44 17 68 36q23 20 23 52q0 34 -26 54t-65 20t-65 -20t-26 -54zM698 21
q52 0 82 24q29 23 29 60q0 39 -28 60q-27 20 -83 40q-54 -20 -82 -40q-29 -21 -29 -60q0 -37 30 -60q29 -24 81 -24z" />
    <glyph glyph-name="seveneighths" unicode="&#x215e;" horiz-adv-x="776" 
d="M295 660v-10l-221 -406h-34l213 388h-229v28h271zM505 660h31l-381 -660h-31zM620 219q108 -37 108 -116q0 -49 -38 -79t-103 -30t-103 30q-38 32 -38 80q0 78 108 115q-88 34 -88 104q0 46 35 73q35 26 86 26q52 0 87 -26q34 -27 34 -74q0 -69 -88 -103zM496 321
q0 -33 24 -52q22 -19 67 -36q44 17 68 36q23 20 23 52q0 34 -26 54t-65 20t-65 -20t-26 -54zM587 21q52 0 82 24q29 23 29 60q0 39 -28 60q-27 20 -83 40q-54 -20 -82 -40q-29 -21 -29 -60q0 -37 30 -60q28 -24 81 -24z" />
    <glyph glyph-name="arrowleft" unicode="&#x2190;" horiz-adv-x="650" 
d="M590 295h-457l209 -209l-19 -19l-237 237v12l237 237l19 -19l-211 -211h459v-28z" />
    <glyph glyph-name="arrowup" unicode="&#x2191;" horiz-adv-x="650" 
d="M565 305l-19 -19l-205 205v-425h-30v427l-207 -207l-19 19l234 234h12z" />
    <glyph glyph-name="arrowright" unicode="&#x2192;" horiz-adv-x="650" 
d="M327 553l237 -237v-12l-237 -237l-19 19l209 209h-457v28h459l-211 211z" />
    <glyph glyph-name="arrowdown" unicode="&#x2193;" horiz-adv-x="650" 
d="M546 335l19 -19l-234 -234h-12l-234 234l19 19l207 -207v427h30v-425z" />
    <glyph glyph-name="arrowboth" unicode="&#x2194;" horiz-adv-x="960" 
d="M637 553l237 -237v-12l-237 -237l-19 19l209 209h-694l209 -209l-19 -19l-237 237v12l237 237l19 -19l-211 -211h698l-211 211z" />
    <glyph glyph-name="arrowupdn" unicode="&#x2195;" horiz-adv-x="650" 
d="M341 0l205 205l19 -19l-234 -234h-12l-234 234l19 19l207 -207v664l-207 -207l-19 19l234 234h12l234 -234l-19 -19l-205 205v-660z" />
    <glyph glyph-name="uni2196" unicode="&#x2196;" horiz-adv-x="650" 
d="M538 109l-21 -21l-340 340v-306h-29v350l8 8h350v-28h-310z" />
    <glyph glyph-name="uni2197" unicode="&#x2197;" horiz-adv-x="650" 
d="M494 480l8 -8v-350h-29v306l-340 -340l-21 21l342 343h-310v28h350z" />
    <glyph glyph-name="uni2198" unicode="&#x2198;" horiz-adv-x="650" 
d="M473 478h29v-350l-8 -8h-350v28h310l-342 343l21 21l340 -340v306z" />
    <glyph glyph-name="uni2199" unicode="&#x2199;" horiz-adv-x="650" 
d="M196 148h310v-28h-350l-8 8v350h29v-306l340 340l21 -21z" />
    <glyph glyph-name="partialdiff" unicode="&#x2202;" horiz-adv-x="549" 
d="M276 672q96 0 156 -74q59 -76 59 -229q0 -168 -69 -274q-69 -107 -185 -107q-80 0 -137 51q-55 52 -55 143q0 95 64 155q65 59 180 59q70 0 170 -20q-2 139 -51 203q-51 64 -133 64q-99 0 -160 -84l-22 18q71 95 183 95zM238 17q100 0 158 94q59 93 63 238
q-98 19 -170 19q-106 0 -159 -53t-53 -132q0 -75 45 -120q46 -46 116 -46z" />
    <glyph glyph-name="uni2206" unicode="&#x2206;" horiz-adv-x="665" 
d="M340 670l280 -670h-575l280 670h15zM332 614l-243 -585h487z" />
    <glyph glyph-name="product" unicode="&#x220f;" horiz-adv-x="684" 
d="M581 660v-781h-32v752h-414v-752h-32v781h478z" />
    <glyph glyph-name="summation" unicode="&#x2211;" horiz-adv-x="543" 
d="M102 -92h401v-29h-448v13l259 387l-259 368v13h436v-29h-388l242 -344v-13z" />
    <glyph glyph-name="minus" unicode="&#x2212;" 
d="M493 323v-28h-427v28h427z" />
    <glyph glyph-name="uni2219" unicode="&#x2219;" horiz-adv-x="270" 
d="M134 348q15 0 28 -11q12 -11 12 -29q0 -16 -12 -27q-13 -11 -28 -11t-26 11q-12 11 -12 27q0 18 12 29q11 11 26 11z" />
    <glyph glyph-name="radical" unicode="&#x221a;" horiz-adv-x="731" 
d="M689 750h32l-513 -883h-15v368h-153v28h183v-315z" />
    <glyph glyph-name="infinity" unicode="&#x221e;" horiz-adv-x="777" 
d="M578 452q65 0 111 -41q44 -41 44 -103q0 -61 -44 -102t-109 -41q-57 0 -101 32q-45 33 -90 89q-48 -58 -90 -90q-43 -31 -102 -31q-66 0 -110 41q-43 40 -43 102t44 103t110 41q57 0 100 -31q44 -32 90 -88q47 57 91 89q42 30 99 30zM198 194q36 0 68 19q34 19 53 39
q22 22 50 57q-24 30 -50 58q-19 19 -52 38q-33 18 -68 18q-53 0 -88 -32t-35 -83q0 -50 35 -82t87 -32zM579 194q53 0 88 32q34 31 34 82t-35 83t-88 32q-49 0 -87 -29q-32 -25 -83 -85q37 -44 51 -58q21 -21 52 -38q32 -19 68 -19z" />
    <glyph glyph-name="integral" unicode="&#x222b;" horiz-adv-x="302" 
d="M244 785q26 0 51 -5v-26q-29 3 -48 3q-117 0 -115 -143q2 -56 36 -281q34 -222 34 -290q0 -86 -39 -128q-41 -41 -105 -41q-26 0 -51 5v26q29 -3 48 -3q115 0 115 141q0 60 -35 287q-35 228 -35 287q0 85 40 126q39 42 104 42z" />
    <glyph glyph-name="approxequal" unicode="&#x2248;" 
d="M154 477q33 0 85 -31l99 -60q39 -24 65 -24q20 0 34 14q12 14 12 36v21h29q1 -9 1 -21q0 -32 -19 -54q-20 -24 -55 -24q-33 0 -85 31l-99 60q-39 24 -65 24q-21 0 -33 -14q-13 -13 -13 -36v-21h-29q-1 9 -1 21q0 30 20 55q20 23 54 23zM154 277q33 0 85 -31l99 -60
q39 -24 65 -24q20 0 34 14q12 14 12 36v21h29q1 -9 1 -21q0 -32 -19 -55q-20 -23 -55 -23q-33 0 -85 31l-99 60q-39 24 -65 24q-21 0 -33 -14q-13 -13 -13 -36v-21h-29q-1 9 -1 21q0 30 20 55q20 23 54 23z" />
    <glyph glyph-name="notequal" unicode="&#x2260;" 
d="M483 395h-129l-113 -173h242v-28h-260l-78 -120h-35l78 120h-112v28h130l113 173h-243v28h261l77 119h35l-77 -119h111v-28z" />
    <glyph glyph-name="lessequal" unicode="&#x2264;" 
d="M480 500v-31l-357 -139l357 -139v-31l-417 164v12zM73 0v28h407v-28h-407z" />
    <glyph glyph-name="greaterequal" unicode="&#x2265;" 
d="M80 500l417 -164v-12l-417 -164v31l357 139l-357 139v31zM80 0v28h407v-28h-407z" />
    <glyph glyph-name="uni24EA" unicode="&#x24ea;" horiz-adv-x="978" 
d="M489 760q178 0 304 -126t126 -304t-126 -304t-304 -126q-179 0 -304 126q-126 126 -126 304t126 304q125 126 304 126zM489 731q-167 0 -285 -117q-117 -118 -117 -284t117 -284q118 -117 285 -117q165 0 284 117q118 118 118 284t-118 284q-119 117 -284 117zM489 561
q79 0 118 -62q39 -61 39 -166q0 -103 -39 -169q-37 -66 -118 -66t-118 66q-38 67 -38 169q0 105 39 166q39 62 117 62zM489 532q-124 0 -124 -199q0 -93 30 -149q30 -57 94 -57q65 0 95 57q30 56 30 149q0 199 -125 199z" />
    <glyph glyph-name="uni24FF" unicode="&#x24ff;" horiz-adv-x="978" 
d="M489 760q178 0 304 -126t126 -304t-126 -304t-304 -126q-179 0 -304 126q-126 126 -126 304t126 304q125 126 304 126zM489 561q-78 0 -117 -62q-39 -61 -39 -166q0 -102 38 -169q37 -66 118 -66q80 0 119 66q38 67 38 169q0 105 -39 166q-39 62 -118 62zM489 532
q125 0 125 -199q0 -93 -30 -149q-30 -57 -95 -57q-64 0 -94 57q-30 56 -30 149q0 199 124 199z" />
    <glyph glyph-name="filledbox" unicode="&#x25a0;" horiz-adv-x="730" 
d="M640 605v-550h-550v550h550z" />
    <glyph glyph-name="uni25A1" unicode="&#x25a1;" horiz-adv-x="730" 
d="M640 605v-550h-550v550h550zM609 576h-488v-492h488v492z" />
    <glyph glyph-name="uni25AA" unicode="&#x25aa;" horiz-adv-x="541" 
d="M461 430v-380h-381v380h381z" />
    <glyph glyph-name="uni25AB" unicode="&#x25ab;" horiz-adv-x="541" 
d="M461 430v-380h-381v380h381zM431 402h-321v-324h321v324z" />
    <glyph glyph-name="triagup" unicode="&#x25b2;" horiz-adv-x="730" 
d="M370 660l340 -595l-4 -10h-682l-4 10l340 595h10z" />
    <glyph glyph-name="uni25B3" unicode="&#x25b3;" horiz-adv-x="730" 
d="M370 660l340 -595l-4 -10h-682l-4 10l340 595h10zM665 84l-300 525l-300 -525h600z" />
    <glyph glyph-name="uni25B4" unicode="&#x25b4;" horiz-adv-x="528" 
d="M269 469l234 -409l-4 -10h-470l-4 10l234 409h10z" />
    <glyph glyph-name="uni25B5" unicode="&#x25b5;" horiz-adv-x="528" 
d="M269 469l234 -409l-4 -10h-470l-4 10l234 409h10zM459 78l-195 340l-196 -340h391z" />
    <glyph glyph-name="uni25B6" unicode="&#x25b6;" horiz-adv-x="645" 
d="M100 670l522 -335v-10l-522 -335l-10 4v672z" />
    <glyph glyph-name="uni25B7" unicode="&#x25b7;" horiz-adv-x="645" 
d="M100 670l522 -335v-10l-522 -335l-10 4v672zM575 330l-454 291v-582z" />
    <glyph glyph-name="uni25B8" unicode="&#x25b8;" horiz-adv-x="480" 
d="M90 476l359 -230v-10l-359 -231l-10 4v463z" />
    <glyph glyph-name="uni25B9" unicode="&#x25b9;" horiz-adv-x="480" 
d="M90 476l359 -230v-10l-359 -231l-10 4v463zM404 241l-294 188v-377z" />
    <glyph glyph-name="triagrt" unicode="&#x25ba;" horiz-adv-x="961" 
d="M100 670l831 -335v-10l-831 -335l-10 4v672z" />
    <glyph glyph-name="uni25BB" unicode="&#x25bb;" horiz-adv-x="961" 
d="M100 670l831 -335v-10l-831 -335l-10 4v672zM864 330l-743 300v-600z" />
    <glyph glyph-name="triagdn" unicode="&#x25bc;" horiz-adv-x="730" 
d="M370 0h-10l-340 595l4 10h682l4 -10z" />
    <glyph glyph-name="uni25BD" unicode="&#x25bd;" horiz-adv-x="730" 
d="M706 605l4 -10l-340 -595h-10l-340 595l4 10h682zM665 576h-600l300 -525z" />
    <glyph glyph-name="uni25BE" unicode="&#x25be;" horiz-adv-x="528" 
d="M499 430l4 -10l-234 -409h-10l-234 409l4 10h470z" />
    <glyph glyph-name="uni25BF" unicode="&#x25bf;" horiz-adv-x="528" 
d="M499 430l4 -10l-234 -409h-10l-234 409l4 10h470zM459 402h-391l196 -340z" />
    <glyph glyph-name="uni25C0" unicode="&#x25c0;" horiz-adv-x="645" 
d="M545 670l10 -4v-672l-10 -4l-522 335v10z" />
    <glyph glyph-name="uni25C1" unicode="&#x25c1;" horiz-adv-x="682" 
d="M582 670l10 -4v-672l-10 -4l-522 335v10zM561 39v582l-454 -291z" />
    <glyph glyph-name="uni25C2" unicode="&#x25c2;" horiz-adv-x="480" 
d="M390 476l10 -4v-463l-10 -4l-359 231v10z" />
    <glyph glyph-name="uni25C3" unicode="&#x25c3;" horiz-adv-x="480" 
d="M390 476l10 -4v-463l-10 -4l-359 231v10zM370 429l-294 -188l294 -189v377z" />
    <glyph glyph-name="triaglf" unicode="&#x25c4;" horiz-adv-x="961" 
d="M861 670l10 -4v-672l-10 -4l-831 335v10z" />
    <glyph glyph-name="uni25C5" unicode="&#x25c5;" horiz-adv-x="961" 
d="M861 670l10 -4v-672l-10 -4l-831 335v10zM840 30v600l-743 -300z" />
    <glyph glyph-name="lozenge" unicode="&#x25ca;" horiz-adv-x="665" 
d="M340 670l213 -340l-213 -340h-15l-213 341l213 339h15zM332 36l185 294l-185 294l-184 -293z" />
    <glyph glyph-name="circle" unicode="&#x25cb;" horiz-adv-x="775" 
d="M387 658q136 0 232 -96q96 -97 96 -233q0 -137 -96 -231q-97 -95 -232 -95q-136 0 -231 95q-96 94 -96 231q0 136 96 233q94 96 231 96zM387 627q-122 0 -209 -87q-87 -89 -87 -211q0 -123 87 -208q87 -87 209 -87q123 0 210 87q87 86 87 208t-87 211q-87 87 -210 87z
" />
    <glyph glyph-name="uni25CF" unicode="&#x25cf;" horiz-adv-x="775" 
d="M387 658q136 0 232 -96q96 -97 96 -233q0 -137 -96 -231q-97 -95 -232 -95q-136 0 -231 95q-96 94 -96 231q0 136 96 233q94 96 231 96z" />
    <glyph glyph-name="uni261C" unicode="&#x261c;" horiz-adv-x="1210" 
d="M1165 272v-12l-84 -71l44 -169l-12 -8l-220 137q-82 -46 -187 -75t-168 -29q-90 0 -90 61q0 24 15 38q-21 5 -34 21t-13 37q0 26 24 43q-36 17 -36 53q0 26 19 39l-195 13q-93 6 -129 21t-36 52q0 39 39 53q42 14 142 14q90 0 198 -11v4q0 37 18 57q20 20 48 20
q24 0 49 -15l232 -133q48 -13 100 -32l224 140l12 -8l-44 -169zM472 482v-6q120 -15 217 -38l-143 82q-19 10 -35 10q-39 0 -39 -48zM916 364v-196l164 -100l-34 130l79 68l-79 68l35 131zM478 110q0 -37 63 -37q60 0 162 30q100 28 183 76v173q-142 50 -315 80
q-175 30 -333 30q-83 0 -115 -8q-30 -9 -30 -31t28 -31q28 -10 109 -15l167 -11l159 -10v-28l-83 5q-17 2 -28 -8q-11 -9 -11 -25q0 -15 9 -24q10 -10 25 -10h98v-28h-86q-14 0 -24 -9q-10 -10 -10 -25t9 -24q10 -10 25 -10h98v-28h-42h-26q-12 0 -23 -9q-9 -9 -9 -23z" />
    <glyph glyph-name="uni261E" unicode="&#x261e;" horiz-adv-x="1210" 
d="M984 490q100 0 142 -14q39 -13 39 -53q0 -37 -36 -52t-129 -21l-195 -13q19 -13 19 -39q0 -36 -36 -53q24 -16 24 -43q0 -19 -14 -36q-15 -18 -33 -22q15 -14 15 -38q0 -61 -90 -61q-64 0 -169 29q-103 28 -186 75l-220 -137l-12 8l44 169l-84 71v12l84 71l-44 169l12 8
l224 -140q52 19 100 32l232 133q25 15 49 15q28 0 48 -20q18 -20 18 -57v-4q108 11 198 11zM682 520l-143 -82q97 23 217 38v6q0 48 -39 48q-16 0 -35 -10zM312 168v196l-165 101l35 -131l-79 -68l79 -68l-34 -130zM998 377q80 5 108 15q29 9 29 31t-30 31q-32 8 -115 8
q-158 0 -333 -30q-173 -30 -315 -80v-173q82 -48 182 -76q104 -30 163 -30q63 0 63 37q0 14 -10 23q-9 9 -22 9h-26h-42v28h98q15 0 24 10q10 9 10 24q0 14 -11 25q-11 9 -23 9h-86v28h98q15 0 24 10q10 9 10 24q0 16 -11 25q-11 10 -28 8l-83 -5v28l159 10z" />
    <glyph glyph-name="uni2661" unicode="&#x2661;" horiz-adv-x="860" 
d="M613 670q81 0 137 -54q56 -56 56 -142q0 -52 -24 -97q-26 -46 -84 -107l-263 -280h-10l-263 280q-59 62 -83 107q-25 44 -25 97q0 86 56 142q56 54 137 54q63 0 113 -35q47 -35 70 -93q23 58 71 93q49 35 112 35zM672 288q56 59 78 100t22 87q0 72 -46 118
q-46 45 -114 45q-113 0 -177 -151h-10q-64 151 -177 151q-66 0 -113 -45q-47 -47 -47 -118q0 -44 23 -87t77 -100l242 -258z" />
    <glyph glyph-name="heart" unicode="&#x2665;" horiz-adv-x="860" 
d="M613 670q81 0 137 -54q56 -56 56 -142q0 -52 -24 -96q-26 -45 -84 -108l-263 -280h-10l-263 280q-59 62 -83 107q-25 44 -25 97q0 86 56 142q56 54 137 54q63 0 113 -35q47 -35 70 -93q23 58 71 93q49 35 112 35z" />
    <glyph glyph-name="uni275B" unicode="&#x275b;" horiz-adv-x="672" 
d="M397 426q90 0 154 -64t64 -154q0 -88 -62 -153t-169 -65q-134 0 -231 100q-96 100 -96 240q0 141 97 241q98 99 243 99q117 0 205 -69l-16 -24q-82 64 -188 64q-134 0 -221 -90q-88 -91 -88 -222q0 -87 42 -161q40 -73 112 -114q-64 64 -64 154t64 154t154 64z" />
    <glyph glyph-name="uni275C" unicode="&#x275c;" horiz-adv-x="672" 
d="M288 670q134 0 231 -100q96 -100 96 -240q0 -141 -97 -241q-98 -99 -243 -99q-117 0 -205 69l16 24q82 -64 188 -64q134 0 222 90q87 91 87 222q0 87 -41 161q-42 73 -113 114q64 -64 64 -154t-64 -154t-154 -64t-154 64t-64 154q0 88 62 153t169 65z" />
    <glyph glyph-name="uni275D" unicode="&#x275d;" horiz-adv-x="1292" 
d="M397 426q90 0 154 -64t64 -154q0 -88 -62 -153t-169 -65q-134 0 -231 100q-96 100 -96 240q0 141 97 241q98 99 243 99q117 0 205 -69l-16 -24q-82 64 -188 64q-134 0 -221 -90q-88 -91 -88 -222q0 -87 42 -161q40 -73 112 -114q-64 64 -64 154t64 154t154 64zM1017 426
q90 0 154 -64t64 -154q0 -88 -62 -153t-169 -65q-134 0 -230 100q-97 100 -97 240q0 141 97 241q98 99 243 99q117 0 205 -69l-16 -24q-82 64 -188 64q-134 0 -221 -90q-88 -91 -88 -222q0 -87 42 -161q40 -73 112 -114q-64 64 -64 154t64 154t154 64z" />
    <glyph glyph-name="uni275E" unicode="&#x275e;" horiz-adv-x="1302" 
d="M288 670q134 0 231 -100q96 -100 96 -240q0 -141 -97 -241q-98 -99 -243 -99q-117 0 -205 69l16 24q82 -64 188 -64q134 0 222 90q87 91 87 222q0 87 -41 161q-42 73 -113 114q64 -64 64 -154t-64 -154t-154 -64t-154 64t-64 154q0 88 62 153t169 65zM918 670
q134 0 231 -100q96 -100 96 -240q0 -141 -97 -241q-98 -99 -243 -99q-117 0 -205 69l16 24q82 -64 188 -64q134 0 222 90q87 91 87 222q0 87 -41 161q-42 73 -113 114q64 -64 64 -154t-64 -154t-154 -64t-154 64t-64 154q0 88 62 153t169 65z" />
    <glyph glyph-name="uni2776" unicode="&#x2776;" horiz-adv-x="978" 
d="M489 760q178 0 304 -126t126 -304t-126 -304t-304 -126q-179 0 -304 126q-126 126 -126 304t126 304q125 126 304 126zM508 554h-131v-27h101v-395h-108v-27h239v27h-101v422z" />
    <glyph glyph-name="uni2777" unicode="&#x2777;" horiz-adv-x="978" 
d="M489 760q178 0 304 -126t126 -304t-126 -304t-304 -126q-179 0 -304 126q-126 126 -126 304t126 304q125 126 304 126zM484 561q-63 0 -102 -39q-40 -40 -40 -94q0 -27 6 -48h28q-6 28 -6 46q0 45 31 76q31 30 82 30q50 0 77 -28q27 -29 27 -71q0 -40 -22 -74
q-24 -37 -63 -76l-163 -168v-10h302v27h-246l130 133q43 43 70 85q24 38 24 82q0 55 -37 92t-98 37z" />
    <glyph glyph-name="uni2778" unicode="&#x2778;" horiz-adv-x="978" 
d="M489 760q178 0 304 -126t126 -304t-126 -304t-304 -126q-179 0 -304 126q-126 126 -126 304t126 304q125 126 304 126zM616 554h-259v-27h210l-135 -164v-10h37q59 0 94 -29q34 -30 34 -80q0 -53 -34 -84q-35 -33 -87 -33q-76 0 -124 75l-23 -17q55 -87 146 -87
q63 0 109 40q45 39 45 106t-43 101q-42 33 -104 35l134 163v11z" />
    <glyph glyph-name="uni2779" unicode="&#x2779;" horiz-adv-x="978" 
d="M489 760q178 0 304 -126t126 -304t-126 -304t-304 -126q-179 0 -304 126q-126 126 -126 304t126 304q125 126 304 126zM499 554h-32l-151 -350v-10h226v-89h31v89h70v27h-70v165h-31v-165h-187z" />
    <glyph glyph-name="uni277A" unicode="&#x277a;" horiz-adv-x="978" 
d="M489 760q178 0 304 -126t126 -304t-126 -304t-304 -126q-179 0 -304 126q-126 126 -126 304t126 304q125 126 304 126zM597 554h-216v-201h99q60 0 95 -29q33 -29 33 -80q0 -52 -34 -85t-85 -33q-76 0 -127 76l-23 -17q55 -88 149 -88q61 0 107 40q45 41 45 107
q0 67 -44 102q-46 35 -111 35q-31 0 -74 -4v150h186v27z" />
    <glyph glyph-name="uni277B" unicode="&#x277b;" horiz-adv-x="978" 
d="M489 760q178 0 304 -126t126 -304t-126 -304t-304 -126q-179 0 -304 126q-126 126 -126 304t126 304q125 126 304 126zM544 554h-37l-112 -166q0 -1 -11 -17q-10 -15 -12 -17q-2 -4 -9 -15q-8 -13 -9 -16l-7 -14q-1 -3 -2.5 -6.5t-3 -5.5t-1.5 -4q-3 -12 -4 -15
q-2 -12 -3 -17v-18q0 -61 42 -103q43 -42 104 -42t105 42q42 42 42 103t-42 103q-43 41 -103 41q-37 0 -62 -17zM479 359q49 0 82 -33q33 -34 33 -83t-33 -82q-33 -34 -82 -34t-82 33q-32 34 -32 83q0 48 32 83q33 33 82 33z" />
    <glyph glyph-name="uni277C" unicode="&#x277c;" horiz-adv-x="978" 
d="M489 760q178 0 304 -126t126 -304t-126 -304t-304 -126q-179 0 -304 126q-126 126 -126 304t126 304q125 126 304 126zM647 555h-291v-27h250l-232 -422h33l240 439v10z" />
    <glyph glyph-name="uni277D" unicode="&#x277d;" horiz-adv-x="978" 
d="M489 760q178 0 304 -126t126 -304t-126 -304t-304 -126q-179 0 -304 126q-126 126 -126 304t126 304q125 126 304 126zM490 561q-56 0 -93 -28t-37 -79q0 -75 95 -113q-117 -37 -117 -124q0 -53 41 -86q42 -33 111 -33q70 0 110 33q41 33 41 85q0 82 -116 126
q94 34 94 111q0 52 -37 80t-92 28zM490 532q43 0 70 -21q27 -23 27 -59q0 -35 -25 -56q-26 -21 -73 -39q-47 18 -73 39q-24 21 -24 56q0 36 27 59q29 21 71 21zM489 325q34 -12 46 -18q17 -7 37 -21q18 -11 28 -29q9 -17 9 -40q0 -41 -32 -65q-31 -25 -87 -25q-58 0 -89 25
q-31 24 -31 65q0 43 30 65q28 21 89 43z" />
    <glyph glyph-name="uni277E" unicode="&#x277e;" horiz-adv-x="978" 
d="M489 760q179 0 305 -126q125 -127 125 -304t-125 -304q-126 -126 -305 -126q-178 0 -304 126t-126 304t126 304t304 126zM499 562q-62 0 -104 -42q-43 -42 -43 -103t42 -102q42 -42 103 -42q37 0 62 17l-125 -184h37l112 166q1 3 11 18q4 5 8 10.5t4 6.5q2 3 9 15
q7 10 9 15l7 14q1 3 2.5 6.5t3 5.5t1.5 4q3 12 4 15l3 18v17q0 61 -42 103q-43 42 -104 42zM499 533q49 0 82 -33q32 -34 32 -83q0 -48 -32 -82q-33 -34 -82 -34t-82 34q-33 33 -33 82t33 83q33 33 82 33z" />
    <glyph glyph-name="uni2780" unicode="&#x2780;" horiz-adv-x="978" 
d="M489 760q178 0 304 -126t126 -304t-126 -304t-304 -126q-179 0 -304 126q-126 126 -126 304t126 304q125 126 304 126zM489 731q-167 0 -285 -117q-117 -118 -117 -284t117 -284q118 -117 285 -117q165 0 284 117q118 118 118 284t-118 284q-119 117 -284 117zM508 554
v-422h101v-27h-239v27h108v395h-101v27h131z" />
    <glyph glyph-name="uni2781" unicode="&#x2781;" horiz-adv-x="978" 
d="M489 760q178 0 304 -126t126 -304t-126 -304t-304 -126q-179 0 -304 126q-126 126 -126 304t126 304q125 126 304 126zM489 731q-167 0 -285 -117q-117 -118 -117 -284t117 -284q118 -117 285 -117q165 0 284 117q118 118 118 284t-118 284q-119 117 -284 117zM484 561
q61 0 98 -37t37 -92q0 -44 -24 -82q-22 -35 -71 -85l-130 -133h247v-27h-302v10l163 168q40 41 63 75q22 34 22 75q0 43 -27 71t-77 28q-51 0 -82 -30q-31 -31 -31 -76q0 -18 6 -46h-28q-6 21 -6 48q0 54 39 94q41 39 103 39z" />
    <glyph glyph-name="uni2782" unicode="&#x2782;" horiz-adv-x="978" 
d="M489 760q178 0 304 -126t126 -304t-126 -304t-304 -126q-179 0 -304 126q-126 126 -126 304t126 304q125 126 304 126zM489 731q-167 0 -285 -117q-117 -118 -117 -284t117 -284q118 -117 285 -117q165 0 284 117q118 118 118 284t-118 284q-119 117 -284 117zM616 554
v-11l-134 -163q61 -2 104 -36t43 -100t-45 -107q-46 -39 -109 -39q-91 0 -146 87l23 17q48 -75 124 -75q52 0 87 32q34 33 34 85q0 50 -34 80q-35 29 -94 29h-37v10l135 164h-210v27h259z" />
    <glyph glyph-name="uni2783" unicode="&#x2783;" horiz-adv-x="978" 
d="M489 760q178 0 304 -126t126 -304t-126 -304t-304 -126q-179 0 -304 126q-126 126 -126 304t126 304q125 126 304 126zM489 731q-167 0 -285 -117q-117 -118 -117 -284t117 -284q118 -117 285 -117q165 0 284 117q118 118 118 284t-118 284q-119 117 -284 117zM499 554
l-144 -333h187v165h31v-165h70v-27h-70v-89h-31v89h-226v10l151 350h32z" />
    <glyph glyph-name="uni2784" unicode="&#x2784;" horiz-adv-x="978" 
d="M489 760q178 0 304 -126t126 -304t-126 -304t-304 -126q-179 0 -304 126q-126 126 -126 304t126 304q125 126 304 126zM489 731q-167 0 -285 -117q-117 -118 -117 -284t117 -284q118 -117 285 -117q165 0 284 117q118 118 118 284t-118 284q-119 117 -284 117zM597 554
v-27h-186v-150q43 4 74 4q65 0 111 -35q44 -35 44 -102q0 -66 -45 -107q-46 -40 -107 -40q-94 0 -149 88l23 17q51 -76 127 -76q51 0 85 33t34 85t-33 80q-35 29 -95 29h-99v201h216z" />
    <glyph glyph-name="uni2785" unicode="&#x2785;" horiz-adv-x="978" 
d="M489 760q178 0 304 -126t126 -304t-126 -304t-304 -126q-179 0 -304 126q-126 126 -126 304t126 304q125 126 304 126zM489 731q-167 0 -285 -117q-117 -118 -117 -284t117 -284q118 -117 285 -117q165 0 284 117q118 118 118 284t-118 284q-119 117 -284 117zM544 554
l-125 -184q25 17 62 17q60 0 103 -41q42 -42 42 -103t-42 -103q-44 -42 -105 -42t-103 42q-43 42 -43 103q0 12 1 18q0 8 3 17q0 3 1 5.5t2 5.5t1 4q1 5 6 16l7 14q1 3 9 16l4 6t3.5 5.5t2.5 3.5q1 2 11 17q11 16 11 17l112 166h37zM479 359q-49 0 -81 -33q-33 -34 -33 -83
q0 -50 33 -83q32 -33 81 -33t82 34q33 33 33 82t-33 83q-33 33 -82 33z" />
    <glyph glyph-name="uni2786" unicode="&#x2786;" horiz-adv-x="978" 
d="M489 760q178 0 304 -126t126 -304t-126 -304t-304 -126q-179 0 -304 126q-126 126 -126 304t126 304q125 126 304 126zM489 731q-167 0 -285 -117q-117 -118 -117 -284t117 -284q118 -117 285 -117q165 0 284 117q118 118 118 284t-118 284q-119 117 -284 117zM647 555
v-10l-240 -439h-33l232 422h-250v27h291z" />
    <glyph glyph-name="uni2787" unicode="&#x2787;" horiz-adv-x="978" 
d="M489 760q178 0 304 -126t126 -304t-126 -304t-304 -126q-179 0 -304 126q-126 126 -126 304t126 304q125 126 304 126zM489 731q-167 0 -285 -117q-117 -118 -117 -284t117 -284q118 -117 285 -117q165 0 284 117q118 118 118 284t-118 284q-119 117 -284 117zM490 561
q55 0 92 -28t37 -80q0 -77 -94 -111q116 -44 116 -126q0 -52 -41 -85q-40 -33 -110 -33q-69 0 -111 33q-41 33 -41 86q0 87 117 124q-95 38 -95 113q0 51 37 79t93 28zM490 532q-43 0 -70 -21q-28 -22 -28 -59q0 -35 25 -56q24 -21 72 -39q47 18 73 39q25 21 25 56
q0 36 -27 59q-27 21 -70 21zM489 326q-37 -14 -60 -24q-22 -10 -40 -33q-19 -22 -19 -52q0 -41 32 -65q31 -25 88 -25t88 25q31 24 31 65q0 43 -30 66q-34 24 -90 43z" />
    <glyph glyph-name="uni2788" unicode="&#x2788;" horiz-adv-x="978" 
d="M489 760q179 0 305 -126q125 -127 125 -304t-125 -304q-126 -126 -305 -126q-178 0 -304 126t-126 304t126 304t304 126zM489 731q-165 0 -284 -117q-118 -118 -118 -284t118 -284q119 -117 284 -117q167 0 285 117q117 119 117 284q0 166 -117 284q-118 117 -285 117z
M499 562q61 0 103 -42q43 -42 43 -103q0 -12 -1 -17q0 -9 -3 -18q-1 -4 -2.5 -9t-1.5 -6q-1 -5 -6 -16l-7 -14q-2 -5 -9 -15q-7 -12 -9 -15q0 -1 -4 -6.5t-8 -10.5q-10 -15 -11 -18l-112 -166h-37l125 184q-25 -17 -62 -17q-61 0 -103 42q-42 41 -42 102t43 103
q42 42 104 42zM499 533q-49 0 -82 -33q-33 -34 -33 -83t33 -82q33 -34 82 -34q50 0 81 34q33 33 33 82q0 50 -33 83q-32 33 -81 33z" />
    <glyph glyph-name="uni27F5" unicode="&#x27f5;" horiz-adv-x="1216" 
d="M1176 295h-1043l209 -209l-19 -19l-237 237v12l237 237l19 -19l-211 -211h1045v-28z" />
    <glyph glyph-name="uni27F6" unicode="&#x27f6;" horiz-adv-x="1216" 
d="M893 553l237 -237v-12l-237 -237l-19 19l209 209h-1043v28h1045l-211 211z" />
    <glyph glyph-name="uniF8FF" unicode="&#xf8ff;" horiz-adv-x="722" 
d="M99 0v660h524v-660h-524zM458 123q36 0 58 22t22 54q0 26 -17 55q-17 30 -45 46l-24 -25q45 -44 45 -76q0 -18 -10 -28q-11 -11 -27 -11q-24 0 -43 27q-20 28 -54 103q83 46 111 78q28 29 28 62q0 38 -27 61q-29 21 -75 21q-3 0 -33 -2l26 55l-41 7l-33 -71
q-46 -9 -103 -36q-23 -66 -23 -161q0 -78 20 -158l42 -8q21 107 43 187q17 63 52 147q17 4 41 4q70 0 70 -50q0 -24 -26 -48q-29 -25 -114 -74l-1 -6q40 -101 67 -137q29 -38 71 -38zM231 202q-2 46 -2 81q0 86 23 157q20 12 51 20q-52 -132 -65 -258h-7z" />
    <glyph glyph-name="Alpha.ordn" horiz-adv-x="439" 
d="M371 244l-42 100h-220l-41 -100h-33l178 422h13l178 -422h-33zM219 610l-99 -238h198z" />
    <glyph glyph-name="Eta.ordn" horiz-adv-x="475" 
d="M398 660v-416h-32v211h-258v-211h-31v416h31v-176h258v176h32z" />
    <glyph glyph-name="Nu.ordn" horiz-adv-x="475" 
d="M366 660h32v-422h-13l-277 356v-350h-31v422h13l276 -357v351z" />
    <glyph glyph-name="Omicron.ordn" horiz-adv-x="510" 
d="M254 666q90 0 151 -61q62 -62 62 -153q0 -90 -62 -152t-151 -62t-150 61t-61 153t61 153t150 61zM255 636q-78 0 -129 -52t-51 -132q0 -78 51 -131t129 -53q76 0 129 53q51 53 51 131q0 80 -51 132q-52 52 -129 52z" />
    <glyph glyph-name="Rho.ordn" horiz-adv-x="374" 
d="M218 660q57 0 92 -32q33 -32 33 -82q0 -51 -33 -82q-35 -32 -92 -32h-110v-188h-31v416h141zM217 632h-109v-172h109q44 0 70 23q24 24 24 62q0 37 -24 63q-25 24 -70 24z" />
    <glyph glyph-name="Sigma.ordn" horiz-adv-x="354" 
d="M89 272h237v-28h-287v9l156 204l-156 193v10h280v-28h-230l140 -170v-9z" />
    <glyph glyph-name="Upsilon.ordn" horiz-adv-x="402" 
d="M361 660l-144 -238v-178h-31v176l-145 240h34l126 -209l127 209h33z" />
    <glyph glyph-name="alpha.ordn" horiz-adv-x="432" 
d="M392 268h2q3 1 7.5 1.5t9.5 0.5v-26q-15 -3 -26 -3q-57 0 -60 67q-17 -32 -50 -51q-34 -19 -74 -19q-64 0 -107 46q-44 47 -44 112q0 66 44 113q44 45 107 45q40 0 75 -20q33 -19 50 -53v67h29v-233q0 -47 37 -47zM204 266q50 0 86 33q35 33 35 97t-35 97q-36 33 -86 33
q-54 0 -88 -37q-35 -38 -35 -92q0 -55 35 -93t88 -38z" />
    <glyph glyph-name="eta.ordn" horiz-adv-x="382" 
d="M203 554q52 0 82 -32q29 -34 29 -86v-305h-30v303q0 41 -23 67q-22 25 -62 25t-66 -26q-26 -25 -26 -66v-190h-30v233q0 47 -37 47q-12 0 -19 -1v25q13 3 27 3q46 0 57 -47q32 50 98 50z" />
    <glyph glyph-name="nu.ordn" horiz-adv-x="346" 
d="M286 548h32l-138 -310h-13l-139 310h32l113 -259z" />
    <glyph glyph-name="omicron.ordn" horiz-adv-x="415" 
d="M207 554q66 0 112 -46t46 -112t-46 -112t-112 -46q-65 0 -111 46t-46 112t46 112t111 46zM207 525q-55 0 -89 -37q-36 -38 -36 -92t36 -92q34 -37 89 -37q54 0 90 37q36 38 36 92t-36 92q-36 37 -90 37z" />
    <glyph glyph-name="rho.ordn" horiz-adv-x="423" 
d="M219 554q67 0 111 -45q43 -46 43 -113q0 -68 -43 -112q-43 -46 -108 -46q-40 0 -74 19q-33 19 -50 52v-178h-30v265q0 70 42 114q44 44 109 44zM220 266q53 0 87 37t34 93q0 55 -35 93q-34 37 -88 37q-50 0 -84 -33q-36 -33 -36 -97t36 -97t86 -33z" />
    <glyph glyph-name="uni03C2.ordn" horiz-adv-x="355" 
d="M207 554q77 0 124 -62l-22 -18q-39 52 -102 52q-53 0 -90 -36q-36 -36 -36 -88t34 -80q34 -30 103 -51q47 -14 70 -35q24 -21 24 -55q0 -27 -14 -50h-30q13 25 13 47q0 43 -73 65q-78 23 -118 60q-40 36 -40 98q0 63 45 108q47 45 112 45z" />
    <glyph glyph-name="sigma.ordn" horiz-adv-x="407" 
d="M403 548v-27h-108q70 -45 70 -126q0 -65 -46 -111t-112 -46t-111 46q-46 46 -46 112q0 65 46 108q46 44 113 44h194zM333 395q0 53 -36 89t-90 36t-90 -36t-36 -89t36 -91t90 -38t90 38t36 91z" />
    <glyph glyph-name="upsilon.ordn" horiz-adv-x="366" 
d="M278 548q33 -82 33 -162q0 -77 -34 -112q-35 -36 -88 -36t-87 33q-34 31 -34 93v184h30v-185q0 -45 26 -71t66 -26q89 0 89 118q0 82 -32 164h31z" />
    <glyph glyph-name="zero.lf" horiz-adv-x="600" 
d="M300 670q114 0 170 -90q55 -91 55 -244q0 -98 -21 -173t-73 -124t-131 -49t-131 49t-73 124t-21 173q0 152 56 244q55 90 169 90zM300 639q-100 0 -145 -82q-46 -82 -46 -221q0 -142 46 -228q47 -87 145 -87t145 87q46 86 46 228q0 138 -45 221q-46 82 -146 82z" />
    <glyph glyph-name="one.lf" horiz-adv-x="362" 
d="M224 660h15v-660h-32v625l-159 -52l-8 27z" />
    <glyph glyph-name="two.lf" horiz-adv-x="541" 
d="M106 29h380v-29h-437v12l241 246q66 69 96 116q32 49 32 105q0 67 -43 113q-42 47 -114 47q-76 0 -119 -49q-44 -50 -44 -113q0 -30 8 -60h-34q-8 30 -8 61q0 75 53 134q54 58 142 58q85 0 139 -54q54 -56 54 -135q0 -46 -22 -90q-23 -48 -46 -75q-31 -35 -73 -78z" />
    <glyph glyph-name="three.lf" horiz-adv-x="528" 
d="M258 401q82 0 147 -51q63 -51 63 -148q0 -98 -66 -155t-156 -57q-130 0 -211 125l24 18q72 -112 189 -112q82 0 134 51q52 49 52 131q0 77 -51 124q-52 46 -143 46h-50v12l205 246h-320v29h373v-12l-207 -248q3 1 17 1z" />
    <glyph glyph-name="four.lf" horiz-adv-x="524" 
d="M496 163v-29h-105v-134h-32v134h-333v12l225 514h33l-218 -497h293v252h32v-252h105z" />
    <glyph glyph-name="five.lf" horiz-adv-x="547" 
d="M259 403q98 0 163 -51t65 -150q0 -98 -65 -155q-65 -58 -154 -58q-134 0 -215 125l23 18q72 -113 194 -113q79 0 131 52q52 51 52 131t-51 126q-52 45 -144 45h-145v287h308v-29h-276v-231q59 3 114 3z" />
    <glyph glyph-name="six.lf" horiz-adv-x="542" 
d="M270 410q90 0 151 -61t61 -149t-60 -149q-61 -61 -151 -61t-151 61q-60 61 -60 150q0 12 2 34q1 14 8 34q5 12 10 28q6 13 16 30q6 9 17 27l20 31q11 16 19 28l164 247h38l-191 -282q47 32 107 32zM271 19q77 0 128 52q51 51 51 128t-51 130q-52 52 -128 52t-127 -52
q-52 -52 -52 -130t51 -129t128 -51z" />
    <glyph glyph-name="seven.lf" horiz-adv-x="482" 
d="M32 660h423v-12l-361 -648h-34l351 631h-379v29z" />
    <glyph glyph-name="eight.lf" horiz-adv-x="568" 
d="M322 350q41 -15 65 -28q27 -14 57 -38q28 -22 44 -53q15 -31 15 -69q0 -76 -59 -124q-58 -48 -160 -48t-160 48q-59 50 -59 125q0 126 181 186q-149 57 -149 166q0 73 54 113q53 42 133 42t134 -42q53 -41 53 -114q0 -113 -149 -164zM129 514q0 -55 40 -89
q38 -32 115 -61q76 28 116 61q39 35 39 89q0 57 -44 92t-111 35t-111 -35t-44 -92zM284 19q89 0 138 40t49 104q0 34 -14 62q-15 28 -44 48q-32 21 -57 32q-25 12 -72 28q-48 -17 -71 -28q-27 -11 -57 -32q-31 -20 -44 -48q-15 -27 -15 -62q0 -63 50 -104q49 -40 137 -40z
" />
    <glyph glyph-name="nine.lf" horiz-adv-x="542" 
d="M271 670q90 0 151 -61q60 -61 60 -150q0 -12 -2 -34q-1 -15 -8 -33q-6 -15 -10 -28q-7 -16 -16 -31q-11 -16 -16 -26q-9 -15 -20 -31q-5 -8 -9.5 -14l-7.5 -10t-3 -5l-164 -247h-38l191 282q-47 -32 -107 -32q-90 0 -151 61t-61 149t61 149q60 61 150 61zM271 279
q75 0 128 53q51 52 51 129q0 78 -51 129t-128 51t-128 -51q-51 -52 -51 -129t52 -129q51 -53 127 -53z" />
    <glyph glyph-name="zero.slash.lf" horiz-adv-x="600" 
d="M300 670q114 0 170 -90q55 -91 55 -244q0 -98 -21 -173t-73 -124t-131 -49t-131 49t-73 124t-21 173q0 152 56 244q55 90 169 90zM300 639q-100 0 -145 -82q-46 -82 -46 -221q0 -93 19 -160l337 338q-44 125 -165 125zM300 21q98 0 145 87q46 86 46 228q0 85 -16 146
l-337 -338q48 -123 162 -123z" />
    <glyph glyph-name="zero.slash" horiz-adv-x="667" 
d="M333 540q115 0 196 -81q80 -80 80 -195q0 -113 -80 -195q-82 -80 -197 -80q-114 0 -194 80q-80 82 -80 195q0 115 80 195q80 81 195 81zM333 512q-103 0 -174 -71q-72 -72 -72 -176q0 -95 63 -166l349 350q-70 63 -166 63zM332 18q102 0 176 72q72 72 72 175
q0 93 -60 163l-349 -350q71 -60 161 -60z" />
    <glyph glyph-name="zero.tf" 
d="M280 670q110 0 166 -90q54 -92 54 -244t-54 -249t-166 -97t-166 97t-54 249q0 153 55 244q54 90 165 90zM280 639q-98 0 -141 -82q-45 -83 -45 -221q0 -140 45 -227q45 -88 141 -88t141 88q45 87 45 227q0 138 -44 221q-45 82 -142 82z" />
    <glyph glyph-name="one.tf" 
d="M319 29h190v-29h-432v29h210v597l-199 -53l-8 27l224 60h15v-631z" />
    <glyph glyph-name="two.tf" 
d="M126 29h380v-29h-437v12l241 246q66 69 96 116q32 49 32 105q0 67 -43 113q-42 47 -114 47q-76 0 -119 -49q-44 -50 -44 -113q0 -30 8 -60h-34q-8 30 -8 61q0 75 53 134q54 58 142 58q85 0 139 -54q54 -56 54 -135q0 -46 -22 -90q-23 -48 -46 -75q-31 -35 -73 -78z" />
    <glyph glyph-name="three.tf" 
d="M261 401q83 0 148 -50q64 -51 64 -148q0 -99 -66 -156t-156 -57q-130 0 -211 125l24 18q72 -112 189 -112q81 0 134 51q52 49 52 131q0 77 -51 124q-52 45 -143 45h-50v13l205 246h-320v29h373v-12l-207 -248q3 1 15 1z" />
    <glyph glyph-name="four.tf" 
d="M506 163v-29h-105v-134h-32v134h-333v12l225 514h33l-218 -497h293v252h32v-252h105z" />
    <glyph glyph-name="five.tf" 
d="M264 402q98 0 163 -50q65 -51 65 -150q0 -97 -65 -156q-66 -57 -154 -57q-134 0 -215 125l23 18q72 -112 194 -112q79 0 131 51t52 131t-51 125q-53 45 -144 45h-145v288h308v-29h-276v-232q58 3 114 3z" />
    <glyph glyph-name="six.tf" 
d="M279 410q90 0 151 -61t61 -149t-61 -149q-60 -61 -150 -61t-151 61q-60 61 -60 150q0 12 2 34q1 14 8 34q5 12 10 28q6 13 16 30q6 9 17 27l20 31q11 16 19 28l164 247h38l-191 -282q47 32 107 32zM280 19q77 0 128 52q51 51 51 128q0 78 -52 130q-51 52 -127 52
t-128 -52q-51 -53 -51 -130q0 -78 51 -129t128 -51z" />
    <glyph glyph-name="seven.tf" 
d="M72 660h423v-12l-361 -648h-34l351 631h-379v29z" />
    <glyph glyph-name="eight.tf" 
d="M318 350q41 -15 65 -28q27 -14 57 -38q28 -22 44 -53q15 -31 15 -69q0 -76 -59 -124q-58 -48 -160 -48t-160 48q-59 50 -59 125q0 126 181 186q-149 57 -149 166q0 73 54 113q53 42 133 42t134 -42q53 -41 53 -114q0 -113 -149 -164zM125 514q0 -55 40 -89
q38 -32 115 -61q76 28 116 61q39 35 39 89q0 57 -44 92t-111 35t-111 -35t-44 -92zM280 19q89 0 138 40t49 104q0 34 -14 62q-15 28 -44 48q-32 21 -57 32q-25 12 -72 28q-48 -17 -71 -28q-27 -11 -57 -32q-31 -20 -44 -48q-15 -27 -15 -62q0 -63 50 -104q49 -40 137 -40z
" />
    <glyph glyph-name="nine.tf" 
d="M280 670q90 0 151 -61q60 -61 60 -150q0 -12 -2 -34q-1 -15 -8 -33q-6 -15 -10 -28q-7 -16 -16 -31q-11 -16 -16 -26q-9 -15 -20 -31q-5 -8 -9.5 -14l-7.5 -10t-3 -5l-164 -247h-38l191 282q-47 -32 -107 -32q-90 0 -151 61t-61 149t61 149q60 61 150 61zM280 279
q75 0 128 53q51 52 51 129q0 78 -51 129t-128 51t-128 -51q-51 -52 -51 -129t52 -129q51 -53 127 -53z" />
    <glyph glyph-name="zero.slash.tf" 
d="M280 670q110 0 166 -90q54 -92 54 -244t-54 -249t-166 -97t-166 97t-54 249q0 153 55 244q54 90 165 90zM280 639q-98 0 -141 -82q-45 -83 -45 -221q0 -86 16 -149l329 330q-44 122 -159 122zM280 21q96 0 141 88q45 87 45 227q0 86 -17 149l-330 -331q45 -133 161 -133z
" />
    <glyph glyph-name="zero.tosf" 
d="M280 540q107 0 176 -80t69 -196t-69 -195q-71 -80 -177 -80t-175 80q-69 79 -69 195q0 118 69 197t176 79zM280 511q-96 0 -154 -70q-59 -71 -59 -177q0 -104 59 -175t153 -71q97 0 156 71q58 70 58 175q0 107 -58 177t-155 70z" />
    <glyph glyph-name="one.tosf" 
d="M309 530v-502h191v-28h-432v28h210v474h-189v28h220z" />
    <glyph glyph-name="two.tosf" 
d="M117 28h359v-28h-427v12l186 132q18 12 55 40q18 12 46 39q27 23 41 43q12 17 23 46q10 26 10 56q0 62 -38 103q-37 40 -106 40q-70 0 -111 -42q-40 -43 -40 -102q0 -29 7 -57h-31q-8 29 -8 57q0 69 50 122q51 51 133 51q77 0 127 -47q49 -48 49 -122q0 -73 -47 -128
q-46 -53 -143 -121z" />
    <glyph glyph-name="three.tosf" 
d="M255 278q89 0 154 -50q64 -51 64 -148q0 -99 -66 -156t-156 -57q-130 0 -211 125l24 18q74 -114 189 -114q83 0 135 51q53 53 53 133q0 78 -52 124t-144 46h-44v12l200 240h-321v28h373v-12l-201 -240h3z" />
    <glyph glyph-name="four.tosf" 
d="M496 28v-28h-105v-121h-32v121h-333v12l225 518h33l-218 -502h293v253h32v-253h105z" />
    <glyph glyph-name="five.tosf" 
d="M265 279q98 0 163 -50q64 -49 64 -149q0 -97 -65 -156q-65 -57 -153 -57q-134 0 -215 125l23 18q74 -114 194 -114q80 0 132 52t52 132t-52 126q-52 45 -144 45h-145v279h308v-28h-276v-228q55 5 114 5z" />
    <glyph glyph-name="six.tosf" 
d="M279 410q90 0 151 -61t61 -149t-61 -149q-60 -61 -150 -61t-151 61q-60 61 -60 150q0 12 2 34q1 14 8 34q5 12 10 28q6 13 16 30q6 9 17 27l20 31q11 16 19 28l164 247h38l-191 -282q47 32 107 32zM280 19q77 0 128 52q51 51 51 128q0 78 -52 130q-51 52 -127 52
t-128 -52q-51 -53 -51 -130q0 -78 51 -129t128 -51z" />
    <glyph glyph-name="seven.tosf" 
d="M72 530h423v-12l-356 -639h-34l346 623h-379v28z" />
    <glyph glyph-name="eight.tosf" 
d="M318 350q41 -15 65 -28q27 -14 57 -38q28 -22 44 -53q15 -31 15 -69q0 -76 -59 -124q-58 -48 -160 -48t-160 48q-59 50 -59 125q0 126 181 186q-149 57 -149 166q0 73 54 113q53 42 133 42t134 -42q53 -41 53 -114q0 -113 -149 -164zM125 514q0 -55 40 -89
q38 -32 115 -61q76 28 116 61q39 35 39 89q0 57 -44 92t-111 35t-111 -35t-44 -92zM280 19q89 0 138 40t49 104q0 34 -14 62q-15 28 -44 48q-32 21 -57 32q-25 12 -72 28q-48 -17 -71 -28q-27 -11 -57 -32q-31 -20 -44 -48q-15 -27 -15 -62q0 -63 50 -104q49 -40 137 -40z
" />
    <glyph glyph-name="nine.tosf" 
d="M280 540q90 0 151 -61q60 -62 60 -148q0 -16 -1 -25q-2 -12 -3 -21q-1 -8 -6 -22q-5 -15 -6 -20q-1 -4 -10 -20t-10 -19q-2 -7 -12 -22q-2 -4 -4.5 -7.5t-4 -5.5l-3 -4t-1.5 -3q-2 -2 -16 -22t-15 -23l-158 -238h-38l185 273q-47 -32 -107 -32q-90 0 -151 61t-61 149
t61 149q60 61 150 61zM280 149q76 0 128 52q51 53 51 130q0 78 -51 129t-128 51t-128 -52q-51 -51 -51 -128q0 -78 52 -130q51 -52 127 -52z" />
    <glyph glyph-name="zero.slash.tosf" 
d="M280 540q107 0 176 -80t69 -196t-69 -195q-71 -80 -177 -80t-175 80q-69 79 -69 195q0 118 69 197t176 79zM280 511q-96 0 -154 -70q-59 -71 -59 -176q0 -89 42 -154l327 328q-58 72 -156 72zM280 18q96 0 155 71q58 70 58 176q0 84 -39 150l-327 -328q59 -69 153 -69z
" />
    <glyph glyph-name="zero.dnom" horiz-adv-x="403" 
d="M202 422q73 0 109 -57t36 -153q0 -95 -35 -157q-36 -61 -110 -61t-110 61t-36 157t36 153t110 57zM202 393q-114 0 -114 -181q0 -85 28 -137q27 -53 86 -53q58 0 87 53q27 52 27 137q0 82 -27 132q-28 49 -87 49z" />
    <glyph glyph-name="one.dnom" horiz-adv-x="341" 
d="M194 416v-388h100v-28h-243v28h112v360h-112v28h143z" />
    <glyph glyph-name="two.dnom" horiz-adv-x="358" 
d="M92 28h225v-28h-281v9l152 156q35 36 58 70q19 29 19 64q0 40 -25 66q-25 28 -68 28q-44 0 -70 -29t-26 -69q0 -16 3 -34h-30q-4 13 -4 36q0 49 35 87t92 38q55 0 90 -35t35 -86q0 -41 -21 -75q-26 -38 -68 -80z" />
    <glyph glyph-name="three.dnom" horiz-adv-x="350" 
d="M169 255q52 0 95 -32q41 -32 41 -94q0 -61 -42 -99q-42 -36 -101 -36q-86 0 -136 81l23 16q44 -68 114 -68q47 0 79 29q31 30 31 77q0 46 -31 73q-32 26 -86 26h-35v10l122 150h-191v28h241v-10z" />
    <glyph glyph-name="four.dnom" horiz-adv-x="344" 
d="M323 110v-28h-64v-82h-31v82h-209v10l140 324h32l-132 -306h169v151h31v-151h64z" />
    <glyph glyph-name="five.dnom" horiz-adv-x="363" 
d="M167 256q69 0 110 -31q41 -32 41 -94q0 -63 -42 -100q-41 -37 -101 -37q-87 0 -136 81l23 16q44 -68 114 -68q48 0 79 30q31 28 31 77q0 47 -31 72q-31 26 -86 26h-92v188h202v-28h-172v-136q28 4 60 4z" />
    <glyph glyph-name="six.dnom" horiz-adv-x="373" 
d="M188 263q56 0 96 -40q39 -39 39 -95t-39 -95q-40 -39 -98 -39q-57 0 -96 39q-40 39 -40 97q0 10 1 15q0 2 0.5 7t1.5 7q3 11 4 14l2.5 7.5t1.5 5.5q2 5 7 13l6 12q3 6 8 13q3 4 6 9l2 3l9 13q7 11 9 13l103 154h37l-114 -167q26 14 54 14zM186 23q44 0 75 29q30 30 30 76
t-30 76t-75 30q-46 0 -74 -30q-30 -30 -30 -76t30 -76q29 -29 74 -29z" />
    <glyph glyph-name="seven.dnom" horiz-adv-x="315" 
d="M24 416h271v-10l-221 -406h-34l213 388h-229v28z" />
    <glyph glyph-name="eight.dnom" horiz-adv-x="378" 
d="M222 219q108 -37 108 -116q0 -49 -38 -79q-37 -30 -103 -30t-103 30q-38 32 -38 80q0 78 108 115q-88 34 -88 104q0 46 34 73q35 26 87 26t87 -26q34 -27 34 -74q0 -69 -88 -103zM98 321q0 -33 24 -52q22 -19 67 -36q44 17 68 36q23 20 23 52q0 34 -26 54t-65 20t-65 -20
t-26 -54zM189 21q52 0 82 24q29 23 29 60q0 39 -28 60q-27 20 -83 40q-56 -20 -83 -40q-28 -21 -28 -60q0 -37 29 -60q30 -24 82 -24z" />
    <glyph glyph-name="nine.dnom" horiz-adv-x="373" 
d="M187 422q57 0 97 -39q39 -39 39 -97q0 -10 -1 -15q0 -2 -0.5 -7t-1.5 -7q-3 -11 -4 -14l-2.5 -7.5t-1.5 -5.5q-1 -3 -6 -13q-4 -6 -7 -12t-8 -13q-7 -10 -8 -11l-9 -14q-7 -11 -9 -13l-103 -154h-37l114 167q-26 -14 -54 -14q-56 0 -96 40q-39 39 -39 95t39 95
q41 39 98 39zM187 182q45 0 75 30q29 31 29 76t-29 76q-31 29 -75 29t-75 -29q-30 -30 -30 -76t30 -76t75 -30z" />
    <glyph glyph-name="zero.numr" horiz-adv-x="403" 
d="M202 666q73 0 109 -57t36 -153q0 -95 -35 -157q-36 -61 -110 -61t-110 61t-36 157t36 153t110 57zM202 637q-114 0 -114 -181q0 -85 28 -137q27 -53 86 -53q58 0 87 53q27 53 27 137q0 82 -27 132q-28 49 -87 49z" />
    <glyph glyph-name="one.numr" horiz-adv-x="341" 
d="M194 660v-388h100v-28h-243v28h112v360h-112v28h143z" />
    <glyph glyph-name="two.numr" horiz-adv-x="358" 
d="M92 272h225v-28h-281v9l152 156q36 38 58 71q19 28 19 63q0 39 -25 67q-26 27 -68 27q-44 0 -70 -29t-26 -69q0 -16 3 -34h-30q-4 13 -4 36q0 50 35 88q34 37 92 37q56 0 90 -34q35 -35 35 -87q0 -41 -21 -74q-24 -37 -68 -81z" />
    <glyph glyph-name="three.numr" horiz-adv-x="350" 
d="M169 499q52 0 95 -32q41 -32 41 -94t-42 -98q-41 -37 -101 -37q-86 0 -136 81l23 16q44 -68 114 -68q47 0 79 30q31 28 31 76q0 46 -31 73q-32 26 -86 26h-35v10l122 150h-191v28h241v-10z" />
    <glyph glyph-name="four.numr" horiz-adv-x="344" 
d="M323 354v-28h-64v-82h-31v82h-209v10l140 324h32l-132 -306h169v151h31v-151h64z" />
    <glyph glyph-name="five.numr" horiz-adv-x="363" 
d="M167 500q69 0 110 -31q41 -32 41 -94q0 -63 -42 -100q-41 -37 -101 -37q-87 0 -136 81l23 16q44 -68 114 -68q48 0 79 30q31 28 31 77q0 47 -31 72q-31 26 -86 26h-92v188h202v-28h-172v-136q28 4 60 4z" />
    <glyph glyph-name="six.numr" horiz-adv-x="373" 
d="M188 507q56 0 96 -39q39 -40 39 -96t-39 -95q-40 -39 -98 -39q-57 0 -96 39q-40 39 -40 97q0 11 1 16q0 2 0.5 6.5t1.5 6.5q3 12 4 15l4 12q2 5 7 13l6 12q3 6 8 13q3 4 6 9l2 3l9 13q7 11 9 13l103 154h37l-114 -167q26 14 54 14zM186 267q45 0 75 30q30 29 30 75
t-30 76t-75 30q-46 0 -74 -30q-30 -30 -30 -76t30 -75q28 -30 74 -30z" />
    <glyph glyph-name="seven.numr" horiz-adv-x="315" 
d="M24 660h271v-10l-221 -406h-34l213 388h-229v28z" />
    <glyph glyph-name="eight.numr" horiz-adv-x="378" 
d="M222 463q108 -37 108 -116q0 -49 -38 -79q-37 -30 -103 -30t-103 31q-38 30 -38 79q0 78 108 115q-88 34 -88 104q0 46 34 73q35 26 87 26t87 -26q34 -27 34 -74q0 -69 -88 -103zM98 565q0 -33 24 -52q22 -19 67 -36q44 17 68 36q23 20 23 52q0 34 -26 54t-65 20t-65 -20
t-26 -54zM189 265q52 0 82 24q29 23 29 60q0 39 -28 60q-27 20 -83 40q-56 -20 -83 -40q-28 -21 -28 -60q0 -37 29 -60q30 -24 82 -24z" />
    <glyph glyph-name="nine.numr" horiz-adv-x="373" 
d="M187 666q57 0 97 -39q39 -39 39 -97q0 -10 -1 -15q0 -2 -0.5 -7t-1.5 -7q-3 -11 -4 -14l-2.5 -7.5t-1.5 -5.5q-1 -3 -6 -13q-4 -6 -7 -12t-8 -13q-7 -11 -8 -11l-9 -14q-7 -11 -9 -13l-103 -154h-37l114 167q-26 -14 -54 -14q-56 0 -96 40q-39 39 -39 95t39 95
q41 39 98 39zM187 426q45 0 75 30q29 31 29 76q0 46 -29 75q-30 30 -75 30t-75 -30q-30 -29 -30 -75t30 -76t75 -30z" />
    <glyph glyph-name="backslash.case" horiz-adv-x="551" 
d="M10 760h32l499 -860h-32z" />
    <glyph glyph-name="periodcentered.case" horiz-adv-x="270" 
d="M134 398q15 0 28 -11q12 -11 12 -29q0 -16 -12 -27q-13 -11 -28 -11t-26 11q-12 11 -12 27q0 18 12 29q11 11 26 11z" />
    <glyph glyph-name="bullet.case" horiz-adv-x="337" 
d="M169 420q42 0 74 -29q32 -30 32 -77t-32 -76q-31 -30 -74 -30t-74 30q-33 28 -33 76q0 47 33 77q32 29 74 29z" />
    <glyph glyph-name="slash.case" horiz-adv-x="551" 
d="M541 760l-499 -860h-32l499 860h32z" />
    <glyph glyph-name="comma.subs" horiz-adv-x="211" 
d="M129 -68l-25 -189h-27l14 189h38z" />
    <glyph glyph-name="period.subs" horiz-adv-x="211" 
d="M105 -61q13 0 24 -9q10 -9 10 -25q0 -14 -10 -24q-11 -9 -24 -9t-23 9q-10 10 -10 24q0 16 10 25t23 9z" />
    <glyph glyph-name="comma.sups" horiz-adv-x="211" 
d="M129 416l-25 -189h-27l14 189h38z" />
    <glyph glyph-name="period.sups" horiz-adv-x="211" 
d="M105 423q13 0 24 -9q10 -9 10 -25q0 -14 -10 -23q-10 -10 -24 -10q-13 0 -23 10q-10 9 -10 23q0 16 10 25t23 9z" />
    <glyph glyph-name="braceleft.case" horiz-adv-x="393" 
d="M287 732q-49 0 -75 -24t-26 -77q0 -34 15 -112t15 -106q0 -39 -16 -56q-16 -19 -47 -27q63 -15 63 -83q0 -29 -15 -105t-15 -112q0 -102 101 -102h46v-28h-46q-131 0 -131 128q0 38 15 116t15 102q0 70 -70 70h-56v28h56q70 0 70 69q0 23 -15 104q-15 79 -15 117
q0 126 131 126h46v-28h-46z" />
    <glyph glyph-name="braceright.case" horiz-adv-x="393" 
d="M277 344h56v-28h-56q-70 0 -70 -70q0 -24 15 -102t15 -116q0 -128 -131 -128h-46v28h46q101 0 101 102q0 36 -15 112t-15 105q0 68 63 83q-29 7 -46 26q-17 20 -17 57q0 28 15 106t15 112q0 53 -25 77q-26 24 -76 24h-46v28h46q131 0 131 -126q0 -38 -15 -117
q-15 -81 -15 -104q0 -69 70 -69z" />
    <glyph glyph-name="bracketleft.case" horiz-adv-x="337" 
d="M277 760v-28h-135v-804h135v-28h-165v860h165z" />
    <glyph glyph-name="bracketright.case" horiz-adv-x="337" 
d="M225 760v-860h-165v28h135v804h-135v28h165z" />
    <glyph glyph-name="parenleft.case" horiz-adv-x="315" 
d="M273 760l12 -24q-31 -16 -58 -45q-30 -30 -54 -74q-26 -47 -41 -121t-15 -166t15 -166q15 -72 41 -120q25 -46 54 -75q27 -29 58 -45l-12 -24q-186 93 -186 430t186 430z" />
    <glyph glyph-name="parenright.case" horiz-adv-x="315" 
d="M42 760q186 -93 186 -430t-186 -430l-12 24q31 16 58 45q28 29 54 75q26 48 41 120q15 74 15 166t-15 166t-41 121q-24 43 -53 74q-30 30 -59 45z" />
    <glyph glyph-name="emdash.case" horiz-adv-x="1000" 
d="M950 373v-28h-900v28h900z" />
    <glyph glyph-name="endash.case" horiz-adv-x="500" 
d="M450 373v-28h-400v28h400z" />
    <glyph glyph-name="uni2015.case" horiz-adv-x="1000" 
d="M950 373v-28h-900v28h900z" />
    <glyph glyph-name="hyphen.case" horiz-adv-x="340" 
d="M280 373v-28h-220v28h220z" />
    <glyph glyph-name="uni00AD.case" horiz-adv-x="340" 
d="M280 373v-28h-220v28h220z" />
    <glyph glyph-name="guillemotleft.case" horiz-adv-x="427" 
d="M209 497l22 -20l-147 -158l147 -160l-22 -18l-163 172v12zM358 497l22 -20l-147 -158l147 -160l-22 -18l-163 172v12z" />
    <glyph glyph-name="guillemotright.case" horiz-adv-x="427" 
d="M69 497l163 -172v-12l-163 -172l-22 18l147 160l-147 158zM218 497l163 -172v-12l-163 -172l-22 18l147 160l-147 158z" />
    <glyph glyph-name="guilsinglleft.case" horiz-adv-x="278" 
d="M209 497l22 -20l-147 -158l147 -160l-22 -18l-163 172v12z" />
    <glyph glyph-name="guilsinglright.case" horiz-adv-x="278" 
d="M69 497l163 -172v-12l-163 -172l-22 18l147 160l-147 158z" />
    <glyph glyph-name="cent.tf" 
d="M317 109q101 5 161 84l22 -18q-69 -91 -183 -95v-171h-31v172q-94 7 -159 79q-65 73 -65 170q0 98 65 169q65 73 159 80v172h31v-171q114 -4 183 -95l-22 -18q-60 79 -161 84v-442zM94 330q0 -88 55 -149q54 -63 137 -71v440q-83 -8 -137 -71q-55 -61 -55 -149z" />
    <glyph glyph-name="currency.tf" 
d="M454 331q0 -68 -43 -117l107 -107l-18 -19l-108 108q-48 -42 -116 -42q-65 0 -113 39l-102 -105l-19 19l102 105q-44 50 -44 118t44 118l-102 105l19 19l102 -106q49 40 114 40t115 -41l107 107l19 -19l-106 -107q42 -48 42 -115zM277 183q61 0 104 41q41 43 41 106
t-41 106q-41 41 -104 41q-62 0 -103 -41q-42 -42 -42 -106t41 -105q41 -42 104 -42z" />
    <glyph glyph-name="dollar.tf" 
d="M467 175q0 -66 -50 -107q-49 -41 -125 -46v-113h-31v114q-127 7 -204 137l26 17q67 -113 178 -124v279l-21 10q-32 14 -47 24q-22 13 -41 28q-24 19 -34 43q-11 25 -11 55q0 60 44 98q43 37 110 43v118h31v-117q101 -4 166 -100l-24 -18q-55 82 -142 87v-251l35 -17
q65 -30 104 -68q36 -36 36 -92zM255 369l6 -3v236q-49 -4 -85 -31q-35 -27 -35 -77q0 -24 9 -44q8 -20 27 -35q22 -17 34 -23q17 -10 44 -23zM292 52q62 3 102 36q39 32 39 86q0 47 -30 77q-32 29 -91 57l-20 9v-265z" />
    <glyph glyph-name="Euro.tf" 
d="M409 21q69 0 118 27l8 -29q-56 -29 -127 -29q-113 0 -193 68q-78 68 -104 181h-103v28h98q-5 37 -5 63q0 35 4 58h-94v28h99q22 112 103 184q79 70 195 70q71 0 127 -29l-8 -29q-49 27 -118 27q-105 0 -173 -61q-69 -60 -92 -162h328l-8 -28h-325q-4 -23 -4 -58
q0 -26 5 -63h290l-8 -28h-277q23 -99 92 -158q69 -60 172 -60z" />
    <glyph glyph-name="florin.tf" 
d="M429 670q22 0 55 -5v-26q-33 3 -52 3q-56 0 -87 -23q-31 -24 -39 -84l-18 -145h136v-28h-139l-45 -360q-18 -135 -153 -135q-22 0 -55 5v26q33 -3 52 -3q56 0 88 23q31 24 38 84l45 360h-112v28h115l18 145q18 135 153 135z" />
    <glyph glyph-name="sterling.tf" 
d="M254 207q0 -56 -25 -102q-26 -47 -68 -77h328v-28h-401v12q134 72 134 194q0 25 -7 53h-117v28h107q-9 23 -32 64t-36 75q-13 33 -13 71q0 75 52 124t133 49q69 0 119 -39q48 -39 69 -110l-31 -10q-38 128 -158 128q-68 0 -109 -42q-41 -44 -41 -103q0 -44 38 -118
q41 -79 44 -89h183v-28h-175q6 -24 6 -52z" />
    <glyph glyph-name="yen.tf" 
d="M296 339h207v-28h-207v-121h207v-28h-207v-162h-32v162h-206v28h206v121h-206v28h206l-230 321h34l212 -295l212 295h34z" />
    <glyph glyph-name="section.case" horiz-adv-x="548" 
d="M508 227q0 -52 -35 -87q-35 -36 -97 -40q5 -20 5 -35q0 -54 -36 -89q-36 -36 -93 -36q-84 0 -140 78l23 17q47 -66 117 -66q43 0 70 27t27 69q0 36 -21 64q-20 27 -66 61l-90 68q-72 55 -103 93q-29 38 -29 82q0 51 35 88q36 35 97 39q-5 20 -5 35q0 54 36 90
q37 35 93 35q84 0 140 -78l-23 -17q-47 66 -117 66q-43 0 -70 -27t-27 -69q0 -35 21 -63q22 -30 66 -62l90 -68q72 -55 103 -93q29 -38 29 -82zM363 128q49 0 81 27t32 69q0 64 -96 137l-97 74q-77 59 -99 97q-48 0 -80 -26q-32 -27 -32 -70q0 -65 96 -137l90 -69
q80 -62 105 -102z" />
    <glyph glyph-name="dieresis.case" horiz-adv-x="349" 
d="M64 840q14 0 24 -10t10 -24t-10 -24t-24 -10t-24 10t-10 24t10 24t24 10zM285 840q14 0 24 -10t10 -24t-10 -24t-24 -10t-24 10t-10 24t10 24t24 10z" />
    <glyph glyph-name="dieresis.i" horiz-adv-x="289" 
d="M64 700q14 0 24 -10t10 -24t-10 -24t-24 -10t-24 10t-10 24t10 24t24 10zM225 700q14 0 24 -10t10 -24t-10 -24t-24 -10t-24 10t-10 24t10 24t24 10z" />
    <glyph glyph-name="otatonos" horiz-adv-x="98" 
d="M68 780v-5l-11 -213h-27v218h38z" />
    </font>
</defs>
</svg>
