<?xml version="1.0" standalone="no"?>
<!DOCTYPE svg PUBLIC "-//W3C//DTD SVG 1.1//EN" "http://www.w3.org/Graphics/SVG/1.1/DTD/svg11.dtd" >
<svg xmlns="http://www.w3.org/2000/svg" xmlns:xlink="http://www.w3.org/1999/xlink" version="1.1">
<metadata>
Created by FontForge 20170731 at Mon Feb 13 22:30:51 2017
 By Aleksey,,,
Copyright (c) 2015 by Jakob Runge, under exclusive license to type me! fonts. All rights reserved.
</metadata>
<defs>
<font id="CeraGR-Bold" horiz-adv-x="560" >
  <font-face 
    font-family="Cera"
    font-weight="400"
    font-stretch="normal"
    units-per-em="1000"
    panose-1="0 0 8 0 0 0 0 0 0 0"
    ascent="799"
    descent="-201"
    x-height="495"
    cap-height="660"
    bbox="-176 -245 1372 903"
    underline-thickness="50"
    underline-position="-175"
    unicode-range="U+0020-F8FF"
  />
<missing-glyph horiz-adv-x="713" 
d="M76 660h561v-660h-561v660zM545 77v499h-379z" />
    <glyph glyph-name=".notdef" horiz-adv-x="713" 
d="M76 660h561v-660h-561v660zM545 77v499h-379z" />
    <glyph glyph-name=".null" horiz-adv-x="0" 
 />
    <glyph glyph-name="nonmarkingreturn" horiz-adv-x="333" 
 />
    <glyph glyph-name="space" unicode=" " horiz-adv-x="280" 
 />
    <glyph glyph-name="exclam" unicode="!" horiz-adv-x="347" 
d="M253 660l-25 -418h-110l-26 418h161zM175 174q39 0 66 -27q26 -28 26 -66q0 -40 -26 -66q-27 -27 -66 -27q-41 0 -67 27q-27 25 -27 66q0 39 27 66q26 27 67 27z" />
    <glyph glyph-name="quotedbl" unicode="&#x22;" horiz-adv-x="538" 
d="M242 660l-56 -278h-103l5 278h154zM479 660l-56 -278h-103l5 278h154z" />
    <glyph glyph-name="numbersign" unicode="#" horiz-adv-x="631" 
d="M604 381h-97l-14 -102h91v-113h-106l-23 -166h-109l22 166h-148l-23 -166h-109l22 166h-83v113h98l13 102h-90v113h106l22 166h110l-22 -166h148l22 166h110l-22 -166h82v-113zM234 273h148l15 114h-148z" />
    <glyph glyph-name="dollar" unicode="$" horiz-adv-x="538" 
d="M493 200q0 -70 -46 -116q-47 -47 -120 -59v-122h-118v124q-119 25 -177 135l91 68q58 -91 151 -91q39 0 63 15t24 44q0 24 -18 39q-21 14 -59 30l-68 25q-149 56 -149 174q0 60 39 104q39 43 103 58v121h118v-119q98 -20 149 -114l-90 -68q-47 68 -115 68q-31 0 -51 -12
q-21 -14 -21 -39q0 -21 17 -35q20 -16 50 -28l75 -26q152 -56 152 -176z" />
    <glyph glyph-name="percent" unicode="%" horiz-adv-x="831" 
d="M212 672q71 0 121 -47q49 -48 49 -117q0 -71 -49 -117q-49 -48 -121 -48q-70 0 -120 48q-50 47 -50 117q0 69 50 117q50 47 120 47zM660 660l-380 -660h-108l379 660h109zM213 579q-29 0 -49 -20q-18 -19 -18 -51t18 -52q20 -20 49 -20q27 0 47 20q19 19 19 52
q0 32 -19 51q-20 20 -47 20zM619 318q71 0 121 -47q50 -48 50 -117q0 -70 -50 -118q-50 -47 -121 -47q-70 0 -120 47q-50 48 -50 118q0 69 50 117q50 47 120 47zM620 225q-31 0 -49 -20q-18 -19 -18 -51t18 -52q18 -19 49 -19q27 0 47 20q18 19 18 51t-18 51q-20 20 -47 20z
" />
    <glyph glyph-name="ampersand" unicode="&#x26;" horiz-adv-x="674" 
d="M643 294q-91 -130 -114 -159l111 -135h-158l-40 49q-82 -61 -179 -61q-96 0 -156 51q-61 51 -61 133q0 58 33 103q34 45 99 95q-57 74 -57 144q0 72 46 115t121 43q74 0 118 -40q45 -40 45 -105q0 -49 -27 -89q-26 -40 -77 -81l99 -121l93 132zM287 557q-21 0 -33 -12
t-12 -32q0 -31 37 -74q51 41 51 75q0 43 -43 43zM271 107q49 0 93 37l-114 138q-32 -25 -52 -49q-17 -22 -17 -48q0 -34 25 -56q23 -22 65 -22z" />
    <glyph glyph-name="quotesingle" unicode="'" horiz-adv-x="301" 
d="M242 660l-56 -278h-103l5 278h154z" />
    <glyph glyph-name="parenleft" unicode="(" horiz-adv-x="365" 
d="M286 739l53 -81q-153 -100 -153 -355q0 -253 153 -354l-53 -81q-96 43 -157 151q-61 109 -61 284q0 176 61 285q61 108 157 151z" />
    <glyph glyph-name="parenright" unicode=")" horiz-adv-x="365" 
d="M80 739q95 -44 156 -151q61 -109 61 -285t-61 -283q-61 -108 -156 -152l-54 81q154 102 154 354q0 253 -154 355z" />
    <glyph glyph-name="asterisk" unicode="*" horiz-adv-x="467" 
d="M428 615l-92 -68l92 -67l-39 -67l-104 45l-13 -112h-77l-13 112l-104 -45l-39 67l91 67l-91 68l39 67l104 -45l13 112h77l13 -112l104 45z" />
    <glyph glyph-name="plus" unicode="+" 
d="M516 263h-170v-178h-129v178h-172v114h172v176h129v-176h170v-114z" />
    <glyph glyph-name="comma" unicode="," horiz-adv-x="270" 
d="M222 123l-52 -301h-107l5 301h154z" />
    <glyph glyph-name="hyphen" unicode="-" horiz-adv-x="342" 
d="M297 377v-113h-252v113h252z" />
    <glyph glyph-name="period" unicode="." horiz-adv-x="270" 
d="M136 174q39 0 66 -27q26 -28 26 -66q0 -40 -26 -66q-26 -27 -66 -27t-67 27q-27 25 -27 66q0 39 27 66t67 27z" />
    <glyph glyph-name="slash" unicode="/" horiz-adv-x="672" 
d="M669 780l-523 -901h-143l523 901h143z" />
    <glyph glyph-name="zero" unicode="0" horiz-adv-x="659" 
d="M329 549q120 0 204 -81q84 -82 84 -200t-84 -199t-205 -81q-120 0 -203 81t-83 199t84 200q82 81 203 81zM329 425q-66 0 -107 -44q-42 -45 -42 -113q0 -67 42 -112q42 -44 107 -44q63 0 107 44q42 45 42 112t-42 112q-44 45 -107 45z" />
    <glyph glyph-name="one" unicode="1" horiz-adv-x="516" 
d="M347 537v-423h130v-114h-407v114h142v302h-132v121h267z" />
    <glyph glyph-name="two" unicode="2" horiz-adv-x="581" 
d="M341 114h188v-114h-489v29l208 155q45 33 67 52q17 14 38 45q19 28 19 57q0 36 -24 62q-25 25 -66 25t-65 -25q-24 -26 -24 -63q0 -11 4 -42h-132q-8 32 -8 55q0 79 64 139q65 60 165 60q97 0 161 -56q63 -57 63 -142q0 -65 -37 -114q-38 -52 -111 -107z" />
    <glyph glyph-name="three" unicode="3" horiz-adv-x="537" 
d="M334 298q65 -18 112 -72q46 -53 46 -132q0 -98 -72 -163q-73 -64 -177 -64q-82 0 -144 41q-63 40 -96 108l93 67q62 -92 142 -92q51 0 84 27q32 29 32 75t-35 72q-34 25 -101 25h-81v35l136 191h-220v121h426v-36z" />
    <glyph glyph-name="four" unicode="4" horiz-adv-x="576" 
d="M564 114v-114h-85v-121h-134v121h-328v36l198 501h139l-169 -423h160v186h134v-186h85z" />
    <glyph glyph-name="five" unicode="5" horiz-adv-x="553" 
d="M286 306q88 0 156 -56q66 -57 66 -155q0 -100 -73 -164t-179 -64q-85 0 -147 40q-62 39 -98 109l94 67q60 -92 147 -92q51 0 85 28q33 29 33 75q0 47 -34 72q-34 24 -101 24h-155v347h383v-121h-253v-118q40 8 76 8z" />
    <glyph glyph-name="six" unicode="6" horiz-adv-x="562" 
d="M305 448q88 0 153 -64q66 -64 66 -160q0 -100 -72 -168q-73 -68 -171 -68q-99 0 -170 68q-72 68 -72 169q0 53 21 97q19 40 69 110l165 228h159l-152 -212h4zM281 112q46 0 78 32q31 31 31 80t-31 80t-78 31q-45 0 -77 -32t-32 -79t32 -79q32 -33 77 -33z" />
    <glyph glyph-name="seven" unicode="7" horiz-adv-x="525" 
d="M38 537h464v-36l-302 -622h-147l268 537h-283v121z" />
    <glyph glyph-name="eight" unicode="8" horiz-adv-x="588" 
d="M412 342q129 -52 129 -166q0 -86 -68 -137q-69 -51 -179 -51t-179 51t-69 137q0 114 130 166q-100 58 -100 155q0 82 62 129q61 46 156 46q96 0 157 -46t61 -129q0 -98 -100 -155zM294 563q-41 0 -66 -19q-26 -20 -26 -53q0 -29 23 -49t69 -42q48 22 70 42q22 19 22 50
q0 32 -26 52q-25 19 -66 19zM294 98q55 0 84 23t29 60q0 38 -28 60q-29 24 -85 44q-54 -19 -84 -44q-29 -23 -29 -60t29 -60t84 -23z" />
    <glyph glyph-name="nine" unicode="9" horiz-adv-x="562" 
d="M282 549q98 0 171 -68q71 -68 71 -169q0 -52 -20 -97q-21 -41 -71 -110l-163 -226h-159l151 210h-5q-87 0 -152 64q-66 64 -66 161q0 100 71 168q71 67 172 67zM281 202q46 0 78 32q31 31 31 79q0 49 -31 80q-32 32 -78 32q-45 0 -77 -32t-32 -80q0 -47 32 -79t77 -32z
" />
    <glyph glyph-name="colon" unicode=":" horiz-adv-x="270" 
d="M136 504q40 0 66 -26q26 -28 26 -67q0 -40 -26 -66t-66 -26q-41 0 -67 26q-27 25 -27 66q0 40 27 67q28 26 67 26zM136 174q39 0 66 -27q26 -28 26 -66q0 -40 -26 -66q-26 -27 -66 -27t-67 27q-27 25 -27 66q0 39 27 66t67 27z" />
    <glyph glyph-name="semicolon" unicode=";" horiz-adv-x="270" 
d="M136 504q40 0 66 -26q26 -28 26 -67q0 -40 -26 -66t-66 -26q-41 0 -67 26q-27 25 -27 66q0 40 27 67q28 26 67 26zM222 123l-52 -301h-107l5 301h154z" />
    <glyph glyph-name="less" unicode="&#x3c;" 
d="M501 544v-117l-249 -106l249 -106v-118l-464 205v37z" />
    <glyph glyph-name="equal" unicode="=" 
d="M506 485v-114h-451v114h451zM506 270v-114h-451v114h451z" />
    <glyph glyph-name="greater" unicode="&#x3e;" 
d="M59 544l464 -205v-37l-464 -205v118l249 106l-249 106v117z" />
    <glyph glyph-name="question" unicode="?" horiz-adv-x="452" 
d="M221 672q84 0 141 -48q56 -50 56 -127q0 -45 -20 -77q-21 -32 -63 -69q-6 -4 -12 -10q-3 -3 -6.5 -6t-4.5 -4l-9 -9q-5 -4 -10 -9l-8 -8q-6 -6 -7 -8q0 -1 -5 -8q-2 -3 -4 -9q-1 -1 -2 -3.5t-1 -4.5q-1 -3 -1 -9q0 -5 2 -21h-114q-11 25 -11 48q0 22 14 45q14 24 27 35
q2 1 15 12.5t23 20.5q36 31 47 45q12 15 12 37q0 28 -18 46q-20 17 -45 17q-55 0 -83 -76l-110 48q21 75 73 114q53 38 124 38zM214 174q40 0 67 -27q26 -28 26 -66q0 -40 -26 -66q-27 -27 -67 -27t-67 27q-27 25 -27 66q0 39 27 66t67 27z" />
    <glyph glyph-name="at" unicode="@" horiz-adv-x="953" 
d="M490 666q182 0 303 -112t121 -272q0 -125 -78 -188q-77 -64 -208 -64h-49v49q-45 -60 -132 -60q-88 0 -144 62q-57 61 -57 156t57 156q55 61 144 61q85 0 129 -56v47h113v-310q117 7 117 147q0 124 -85 203q-85 78 -228 78q-151 0 -249 -90q-97 -90 -97 -233
q0 -144 96 -232q95 -89 237 -89q62 0 119 15l21 -93q-66 -25 -154 -25q-178 0 -303 120t-125 302q0 185 131 307q130 121 321 121zM471 131q41 0 69 27q29 27 29 79q0 51 -28 79q-29 27 -69 27q-42 0 -71 -29q-30 -28 -30 -77q0 -48 29 -77t71 -29z" />
    <glyph glyph-name="A" unicode="A" horiz-adv-x="661" 
d="M502 0l-37 86h-270l-37 -86h-145l295 672h45l294 -672h-145zM417 197l-87 222l-87 -222h174z" />
    <glyph glyph-name="B" unicode="B" horiz-adv-x="621" 
d="M470 357q55 -19 87 -62q30 -42 30 -101q0 -86 -60 -140q-61 -54 -157 -54h-294v660h234q92 0 151 -51q58 -52 58 -133q0 -73 -49 -119zM299 544h-93v-151h93q41 0 63 21q23 20 23 55t-23 55t-63 20zM360 116q44 0 69 22t25 61t-25 61t-69 22h-154v-166h154z" />
    <glyph glyph-name="C" unicode="C" horiz-adv-x="720" 
d="M390 672q95 0 171 -43t120 -121l-102 -72q-71 111 -189 111q-93 0 -153 -61q-60 -62 -60 -157t60 -155q60 -61 153 -61q118 0 189 111l102 -72q-43 -76 -120 -120t-172 -44q-149 0 -249 99q-102 97 -102 243q0 145 102 244q103 98 250 98z" />
    <glyph glyph-name="D" unicode="D" horiz-adv-x="690" 
d="M292 660q160 0 260 -90t100 -238q0 -146 -100 -239t-260 -93h-216v660h216zM291 538h-80v-416h80q99 0 161 57q61 58 61 153q0 96 -60 151q-61 55 -162 55z" />
    <glyph glyph-name="E" unicode="E" horiz-adv-x="573" 
d="M520 660v-122h-309v-134h227v-115h-227v-167h321v-122h-456v660h444z" />
    <glyph glyph-name="F" unicode="F" horiz-adv-x="535" 
d="M510 660v-122h-299v-165h245v-122h-245v-251h-135v660h434z" />
    <glyph glyph-name="G" unicode="G" horiz-adv-x="747" 
d="M391 672q177 0 278 -143l-96 -79q-70 97 -184 97q-96 0 -154 -61t-58 -156q0 -98 60 -159q62 -62 160 -62q116 0 174 82v54h-182v117h317v-195q-45 -79 -128 -129q-85 -50 -187 -50q-149 0 -251 99q-102 97 -102 243q0 145 102 244q103 98 251 98z" />
    <glyph glyph-name="H" unicode="H" horiz-adv-x="713" 
d="M638 660v-660h-135v285h-292v-285h-135v660h135v-253h292v253h135z" />
    <glyph glyph-name="I" unicode="I" horiz-adv-x="286" 
d="M211 660v-660h-135v660h135z" />
    <glyph glyph-name="J" unicode="J" horiz-adv-x="389" 
d="M313 660v-484q0 -95 -52 -141q-53 -47 -149 -47q-47 0 -95 12v115q48 -4 66 -4q49 0 72 18t23 61v470h135z" />
    <glyph glyph-name="K" unicode="K" horiz-adv-x="670" 
d="M657 0h-163l-283 344v-344h-135v660h135v-307l252 307h161l-253 -311z" />
    <glyph glyph-name="L" unicode="L" horiz-adv-x="524" 
d="M211 660v-538h289v-122h-424v660h135z" />
    <glyph glyph-name="M" unicode="M" horiz-adv-x="798" 
d="M678 672h44v-672h-135v353l-166 -209h-44l-166 209v-353h-135v672h44l279 -358z" />
    <glyph glyph-name="N" unicode="N" horiz-adv-x="713" 
d="M503 660h135v-672h-45l-382 408v-396h-135v672h44l383 -405v393z" />
    <glyph glyph-name="O" unicode="O" horiz-adv-x="778" 
d="M388 672q145 0 249 -98q103 -99 103 -244q0 -146 -103 -243q-103 -99 -249 -99t-248 99q-102 97 -102 243q0 145 102 244q103 98 248 98zM389 547q-92 0 -152 -61q-60 -62 -60 -156q0 -96 60 -157q59 -60 152 -60q91 0 152 61q60 62 60 156t-60 156q-61 61 -152 61z" />
    <glyph glyph-name="P" unicode="P" horiz-adv-x="594" 
d="M324 660q105 0 172 -58q66 -58 66 -155q0 -95 -66 -154q-68 -60 -172 -60h-113v-233h-135v660h248zM324 541h-113v-190h113q47 0 74 27q26 26 26 69q0 42 -27 68q-28 26 -73 26z" />
    <glyph glyph-name="Q" unicode="Q" horiz-adv-x="778" 
d="M965 -106q28 0 92 4v-106q-51 -13 -118 -13q-135 0 -247 57q-114 57 -193 169q-56 -17 -111 -17q-146 0 -248 99q-102 97 -102 243q0 145 102 244q103 98 248 98t249 -98q103 -99 103 -244q0 -81 -34 -149t-95 -117q68 -88 152 -129q87 -41 202 -41zM177 330
q0 -96 60 -157q59 -60 152 -60q91 0 152 61q60 62 60 156t-60 156q-61 61 -152 61q-92 0 -152 -61q-60 -62 -60 -156z" />
    <glyph glyph-name="R" unicode="R" horiz-adv-x="640" 
d="M633 0h-152l-171 233h-99v-233h-135v660h248q105 0 172 -58q66 -58 66 -155q0 -64 -31 -111q-31 -49 -85 -76zM211 541v-189h113q46 0 74 26q26 26 26 69q0 42 -27 68q-28 26 -73 26h-113z" />
    <glyph glyph-name="S" unicode="S" horiz-adv-x="559" 
d="M283 672q77 0 132 -34q54 -34 86 -91l-92 -71q-51 76 -126 76q-36 0 -58 -16q-24 -16 -24 -48q0 -26 18 -41q14 -14 59 -35l75 -33q83 -37 123 -81t40 -112q0 -90 -65 -144t-166 -54q-85 0 -150 40q-68 39 -105 106l93 70q69 -96 162 -96q43 0 69 20q25 19 25 53
q0 19 -11 36q-12 15 -26 23q-26 13 -47 23l-71 32q-77 35 -118 80q-42 45 -42 110q0 83 62 136q62 51 157 51z" />
    <glyph glyph-name="T" unicode="T" horiz-adv-x="585" 
d="M572 660v-122h-212v-538h-135v538h-211v122h558z" />
    <glyph glyph-name="U" unicode="U" horiz-adv-x="700" 
d="M630 660v-387q0 -131 -78 -207q-80 -78 -202 -78q-123 0 -201 78q-79 76 -79 207v387h135v-397q0 -72 41 -111t104 -39q64 0 105 39q40 39 40 111v397h135z" />
    <glyph glyph-name="V" unicode="V" horiz-adv-x="661" 
d="M495 660h152l-294 -672h-45l-295 672h153l165 -400z" />
    <glyph glyph-name="W" unicode="W" horiz-adv-x="1035" 
d="M860 660h150l-264 -672h-44l-184 413l-185 -413h-44l-264 672h150l147 -389l173 401h45l173 -401z" />
    <glyph glyph-name="X" unicode="X" horiz-adv-x="614" 
d="M600 0h-153l-140 219l-140 -219h-154l219 336l-206 324h154l127 -209l126 209h153l-202 -324z" />
    <glyph glyph-name="Y" unicode="Y" horiz-adv-x="624" 
d="M607 660l-227 -400v-260h-135v259l-228 401h150l145 -262l146 262h149z" />
    <glyph glyph-name="Z" unicode="Z" horiz-adv-x="588" 
d="M227 122h333v-122h-540v36l331 502h-288v122h496v-36z" />
    <glyph glyph-name="bracketleft" unicode="[" horiz-adv-x="357" 
d="M319 730v-109h-114v-642h114v-109h-229v860h229z" />
    <glyph glyph-name="backslash" unicode="\" horiz-adv-x="672" 
d="M3 780h143l523 -901h-143z" />
    <glyph glyph-name="bracketright" unicode="]" horiz-adv-x="357" 
d="M268 730v-860h-230v109h114v642h-114v109h230z" />
    <glyph glyph-name="asciicircum" unicode="^" horiz-adv-x="536" 
d="M486 276h-129l-89 184l-90 -184h-129l197 394h44z" />
    <glyph glyph-name="underscore" unicode="_" horiz-adv-x="502" 
d="M467 -65v-106h-432v106h432z" />
    <glyph glyph-name="a" unicode="a" horiz-adv-x="545" 
d="M270 506q96 0 155 -54q57 -55 57 -158v-294h-124v48q-57 -60 -151 -60q-78 0 -125 41q-46 42 -46 107q0 67 51 106q50 38 136 38h124v22q0 41 -23 64q-25 23 -69 23q-66 0 -131 -68l-70 83q86 102 216 102zM243 87q44 0 74 27q30 28 30 71v6h-106q-69 0 -69 -50
q0 -25 20 -39q20 -15 51 -15z" />
    <glyph glyph-name="b" unicode="b" horiz-adv-x="629" 
d="M350 506q106 0 173 -73t67 -186q0 -112 -67 -185q-68 -74 -173 -74t-159 74v-62h-124v750h135v-303q53 59 148 59zM325 111q54 0 92 38q36 37 36 99t-37 99t-91 37q-51 0 -88 -35q-37 -36 -37 -102q0 -67 37 -101q38 -35 88 -35z" />
    <glyph glyph-name="c" unicode="c" horiz-adv-x="552" 
d="M304 506q72 0 128 -32q56 -33 87 -90l-94 -73q-48 72 -119 72q-57 0 -93 -38q-37 -38 -37 -97q0 -60 37 -97q36 -39 93 -39q69 0 119 71l94 -72q-31 -57 -87 -90q-55 -33 -128 -33q-112 0 -188 75q-77 75 -77 185q0 109 77 184q77 74 188 74z" />
    <glyph glyph-name="d" unicode="d" horiz-adv-x="629" 
d="M427 750h135v-750h-124v62q-54 -74 -159 -74q-104 0 -172 74t-68 185q0 112 68 186q67 73 172 73q95 0 148 -59v303zM304 111q50 0 88 35q37 34 37 101q0 66 -37 102q-38 35 -88 35q-54 0 -91 -37t-37 -99t37 -99q36 -38 91 -38z" />
    <glyph glyph-name="e" unicode="e" horiz-adv-x="569" 
d="M531 276q0 -36 -9 -74h-348q14 -47 50 -72q37 -26 90 -26q73 0 138 50l56 -92q-89 -74 -198 -74q-118 0 -194 75q-77 74 -77 184q0 109 75 184q73 75 184 75q104 0 168 -66q65 -67 65 -164zM293 397q-43 0 -75 -27q-32 -28 -44 -73h226q-2 47 -32 73q-32 27 -75 27z" />
    <glyph glyph-name="f" unicode="f" horiz-adv-x="342" 
d="M315 641q-45 0 -68 -17q-22 -18 -22 -60v-69h109v-114h-109v-381h-135v381h-70v114h70v81q0 94 51 140q50 46 140 46q38 0 74 -11v-113q-22 3 -40 3z" />
    <glyph glyph-name="g" unicode="g" horiz-adv-x="631" 
d="M440 495h124v-440q0 -121 -70 -184t-186 -63q-139 0 -243 92l71 94q82 -64 161 -64q59 0 96 29q36 30 36 88v27q-54 -59 -151 -59q-102 0 -170 68q-67 68 -67 178q0 111 67 178t170 67q110 0 162 -73v62zM306 129q50 0 88 35q37 34 37 99t-36 96q-38 32 -89 32
q-54 0 -91 -35q-37 -34 -37 -94t37 -97q37 -36 91 -36z" />
    <glyph glyph-name="h" unicode="h" horiz-adv-x="585" 
d="M338 506q84 0 134 -54q50 -56 50 -145v-307h-134v288q0 44 -25 70q-26 26 -67 26t-67 -26q-27 -27 -27 -70v-288h-135v750h135v-297q53 53 136 53z" />
    <glyph glyph-name="i" unicode="i" horiz-adv-x="269" 
d="M134 759q36 0 62 -24q25 -24 25 -60q0 -35 -25 -59t-62 -24q-36 0 -61 24t-25 59q0 36 25 60q26 24 61 24zM202 495v-495h-135v495h135z" />
    <glyph glyph-name="j" unicode="j" horiz-adv-x="269" 
d="M134 759q36 0 62 -24q25 -24 25 -60q0 -35 -25 -59t-62 -24q-36 0 -61 24t-25 59q0 36 25 60q26 24 61 24zM202 495v-501q0 -92 -51 -139q-52 -47 -139 -47q-39 0 -75 11v113q24 -3 41 -3q44 0 67 18q22 18 22 59v489h135z" />
    <glyph glyph-name="k" unicode="k" 
d="M555 0h-154l-199 273v-273h-135v750h135v-467l178 212h160l-186 -219z" />
    <glyph glyph-name="l" unicode="l" horiz-adv-x="269" 
d="M202 750v-750h-135v750h135z" />
    <glyph glyph-name="m" unicode="m" horiz-adv-x="892" 
d="M643 506q87 0 137 -54q50 -56 50 -145v-307h-135v288q0 44 -24 70t-64 26q-39 0 -65 -26t-26 -67v-291h-135v288q0 44 -24 70t-64 26t-66 -26q-25 -25 -25 -70v-288h-135v495h124v-44q52 55 140 55q100 0 147 -71q62 71 165 71z" />
    <glyph glyph-name="n" unicode="n" horiz-adv-x="585" 
d="M336 506q86 0 136 -54q50 -56 50 -145v-307h-134v289q0 44 -25 70q-26 26 -67 26t-67 -26q-27 -27 -27 -70v-289h-135v495h124v-45q56 56 145 56z" />
    <glyph glyph-name="o" unicode="o" horiz-adv-x="608" 
d="M304 506q109 0 188 -74q78 -75 78 -184t-78 -184t-189 -75t-187 75q-77 74 -77 184q0 109 77 184q77 74 188 74zM304 383q-56 0 -92 -38q-36 -39 -36 -98t36 -96q36 -38 92 -38q54 0 92 38q36 37 36 96q0 58 -36 97q-38 39 -92 39z" />
    <glyph glyph-name="p" unicode="p" horiz-adv-x="629" 
d="M350 506q106 0 173 -73t67 -185q0 -113 -67 -186q-68 -74 -173 -74q-92 0 -148 60v-228h-135v675h124v-62q52 73 159 73zM325 111q53 0 91 38q37 37 37 98q0 63 -36 100q-37 37 -92 37q-51 0 -88 -34t-37 -102q0 -67 37 -101q36 -36 88 -36z" />
    <glyph glyph-name="q" unicode="q" horiz-adv-x="629" 
d="M438 495h124v-675h-135v228q-55 -60 -148 -60q-104 0 -172 74t-68 186q0 111 68 185q67 73 172 73q107 0 159 -73v62zM304 111q50 0 88 36q37 34 37 101q0 68 -37 102t-88 34q-55 0 -91 -37q-37 -37 -37 -100q0 -61 37 -98q38 -38 91 -38z" />
    <glyph glyph-name="r" unicode="r" horiz-adv-x="388" 
d="M327 501q25 0 44 -6v-119h-36q-60 0 -97 -32q-36 -33 -36 -97v-247h-135v495h124v-60q51 66 136 66z" />
    <glyph glyph-name="s" unicode="s" horiz-adv-x="455" 
d="M235 507q111 0 178 -75l-68 -83q-50 47 -111 47q-53 0 -53 -35q0 -13 12 -24q11 -9 40 -20l48 -20q71 -28 106 -63q33 -33 33 -88q0 -74 -54 -116q-56 -42 -139 -42q-131 0 -205 96l68 82q64 -67 139 -67q28 0 45 10q18 10 18 31q0 16 -12 24q-10 9 -39 21l-53 22
q-69 29 -102 62q-33 35 -33 89q0 70 51 110q50 39 131 39z" />
    <glyph glyph-name="t" unicode="t" horiz-adv-x="416" 
d="M321 109q17 0 64 4v-113q-48 -12 -93 -12q-93 0 -146 47q-52 46 -52 139v207h-78v114h78v125h135v-125h140v-114h-140v-195q0 -43 22 -59q23 -18 70 -18z" />
    <glyph glyph-name="u" unicode="u" horiz-adv-x="580" 
d="M518 495v-277q0 -103 -64 -166q-64 -64 -163 -64t-164 63t-65 167v277h135v-288q0 -43 27 -69q26 -26 67 -26q38 0 66 26q26 26 26 69v288h135z" />
    <glyph glyph-name="v" unicode="v" horiz-adv-x="559" 
d="M404 495h143l-245 -507h-45l-245 507h142l125 -281z" />
    <glyph glyph-name="w" unicode="w" horiz-adv-x="857" 
d="M703 495h142l-230 -507h-44l-143 288l-142 -288h-44l-230 507h142l118 -282l134 293h45l137 -287z" />
    <glyph glyph-name="x" unicode="x" horiz-adv-x="531" 
d="M523 0h-151l-107 158l-106 -158h-151l182 256l-170 239h151l94 -142l95 142h151l-171 -239z" />
    <glyph glyph-name="y" unicode="y" horiz-adv-x="559" 
d="M405 495h142l-237 -538q-35 -77 -81 -113q-47 -36 -116 -36q-42 0 -87 12v113q41 -4 58 -4q35 0 61 14q25 13 42 53l15 33l-190 466h143l121 -325z" />
    <glyph glyph-name="z" unicode="z" horiz-adv-x="468" 
d="M215 114h237v-114h-435v36l236 345h-213v114h410v-36z" />
    <glyph glyph-name="braceleft" unicode="{" horiz-adv-x="413" 
d="M317 621q-62 0 -62 -65q0 -17 11 -83q11 -64 11 -87q0 -36 -17 -58q-19 -20 -55 -29q38 -9 55 -29t17 -57q0 -23 -11 -87t-11 -83q0 -65 62 -65h58v-108h-81q-154 0 -154 140q0 30 11 98t11 82q0 52 -55 52h-62v115h62q55 0 55 52q0 15 -11 83t-11 97q0 141 154 141h81
v-109h-58z" />
    <glyph glyph-name="bar" unicode="|" horiz-adv-x="332" 
d="M222 780v-901h-112v901h112z" />
    <glyph glyph-name="braceright" unicode="}" horiz-adv-x="413" 
d="M306 357h61v-115h-61q-55 0 -55 -52q0 -14 11 -82t11 -98q0 -140 -154 -140h-81v108h57q63 0 63 65q0 19 -11 83t-11 87q0 37 17 57t54 29q-37 9 -54 29q-17 22 -17 58q0 23 11 87q11 66 11 83q0 65 -63 65h-57v109h81q154 0 154 -141q0 -29 -11 -97t-11 -83
q0 -52 55 -52z" />
    <glyph glyph-name="asciitilde" unicode="~" 
d="M157 432q41 0 85 -26l88 -54q38 -22 55 -22q16 0 25 11t9 27v16h102q3 -14 3 -33q0 -62 -35 -103q-34 -40 -86 -40q-38 0 -85 26l-88 53q-37 23 -55 23q-33 0 -33 -39v-15h-103q-2 24 -2 33q0 62 35 103q34 40 85 40z" />
    <glyph glyph-name="cent" unicode="&#xa2;" horiz-adv-x="557" 
d="M300 191q70 0 120 71l93 -72q-57 -104 -175 -120v-167h-118v175q-82 24 -135 92q-52 67 -52 156t52 156q53 68 135 92v175h118v-167q117 -16 176 -120l-94 -72q-50 71 -120 71q-57 0 -93 -38q-36 -39 -36 -97t36 -96q36 -39 93 -39z" />
    <glyph glyph-name="sterling" unicode="&#xa3;" horiz-adv-x="569" 
d="M308 219q0 -59 -32 -105h249v-114h-483v29q67 49 99 91q33 44 33 97v10h-122v114h79q-43 82 -43 138q0 87 62 140t156 53q84 0 145 -46q60 -46 84 -135l-113 -41q-31 97 -107 97q-42 0 -66 -25q-24 -26 -24 -65q0 -19 8 -43q7 -20 14 -33q3 -8 22 -40h161v-114h-122v-8z
" />
    <glyph glyph-name="currency" unicode="&#xa4;" horiz-adv-x="657" 
d="M571 330q0 -72 -39 -127l108 -110l-80 -80l-112 114q-55 -31 -123 -31q-64 0 -121 30l-106 -113l-81 80l103 109q-39 56 -39 128q0 68 39 126l-103 105l81 81l106 -109q56 31 121 31q66 0 125 -32l109 110l81 -81l-107 -105q38 -58 38 -126zM326 220q47 0 77 31t30 79
t-30 79q-31 31 -77 31q-49 0 -77 -31q-30 -31 -30 -79t30 -79q28 -31 77 -31z" />
    <glyph glyph-name="yen" unicode="&#xa5;" horiz-adv-x="599" 
d="M594 660l-197 -285h151v-109h-180v-62h180v-109h-180v-95h-135v95h-181v109h181v62h-181v109h150l-197 285h150l145 -213l145 213h149z" />
    <glyph glyph-name="brokenbar" unicode="&#xa6;" horiz-adv-x="332" 
d="M222 780v-300h-112v300h112zM222 179v-300h-112v300h112z" />
    <glyph glyph-name="section" unicode="&#xa7;" horiz-adv-x="602" 
d="M573 196q0 -53 -31 -90q-32 -38 -85 -54q2 -22 2 -24q0 -72 -51 -117q-52 -44 -136 -44q-135 0 -198 107l85 69q46 -63 113 -63q60 0 60 48q0 23 -16 40q-15 15 -59 45l-91 62q-74 43 -105 84q-32 41 -32 91q0 53 31 90q32 38 85 54q-2 10 -2 24q0 72 51 117
q52 44 136 44q134 0 197 -107l-85 -69q-47 63 -113 63q-60 0 -60 -48q0 -23 16 -39q19 -19 60 -46l90 -62q73 -43 106 -84q32 -41 32 -91zM323 207q60 -38 89 -69q34 19 34 54q0 20 -15 37q-17 18 -62 49l-98 65q-54 36 -82 64q-34 -19 -34 -53q0 -21 16 -37q17 -18 62 -49z
" />
    <glyph glyph-name="dieresis" unicode="&#xa8;" horiz-adv-x="459" 
d="M111 754q32 0 57 -23q24 -23 24 -56q0 -31 -24 -54q-25 -23 -57 -23q-31 0 -56 24q-25 22 -25 53q0 33 24 56q26 23 57 23zM349 754q32 0 57 -23q24 -23 24 -56q0 -31 -24 -54q-25 -23 -57 -23q-31 0 -56 24q-25 22 -25 53q0 34 25 56q25 23 56 23z" />
    <glyph glyph-name="copyright" unicode="&#xa9;" horiz-adv-x="778" 
d="M389 672q145 0 248 -99t103 -243t-104 -243t-248 -99t-247 99q-103 97 -103 242t104 244t247 99zM388 592q-109 0 -185 -73q-77 -74 -77 -190q0 -117 77 -189t185 -72q107 0 186 73q78 72 78 188q0 117 -78 190q-79 73 -186 73zM396 516q93 0 151 -79l-70 -61
q-34 46 -80 46q-38 0 -62 -26t-24 -66t24 -65q24 -26 62 -26q47 0 80 45l70 -61q-60 -78 -152 -78q-79 0 -134 53q-54 52 -54 132q0 79 54 133q56 53 135 53z" />
    <glyph glyph-name="guillemotleft" unicode="&#xab;" horiz-adv-x="597" 
d="M224 500l86 -75l-135 -152l135 -153l-86 -75l-195 209v36zM481 500l86 -75l-135 -152l135 -153l-86 -75l-195 209v36z" />
    <glyph glyph-name="logicalnot" unicode="&#xac;" 
d="M484 378v-275h-126v160h-315v115h441z" />
    <glyph glyph-name="uni00AD" unicode="&#xad;" horiz-adv-x="342" 
d="M297 377v-113h-252v113h252z" />
    <glyph glyph-name="registered" unicode="&#xae;" horiz-adv-x="574" 
d="M288 692q104 0 178 -75q75 -75 75 -181q0 -105 -74 -181q-75 -76 -179 -76q-105 0 -180 76q-75 75 -75 181t75 181t180 75zM288 242q79 0 133 56t54 138q0 83 -55 138q-54 55 -132 55q-80 0 -134 -55q-54 -56 -54 -138t54 -138t134 -56zM353 402l66 -92h-77l-57 75h-28
v-75h-70v251h104q43 0 72 -24t29 -64q0 -47 -39 -71zM257 500v-55h34q13 0 21 8t8 19q0 13 -8 21q-7 7 -21 7h-34z" />
    <glyph glyph-name="degree" unicode="&#xb0;" horiz-adv-x="361" 
d="M181 672q65 0 111 -45q45 -45 45 -109t-45 -109q-46 -45 -111 -45q-66 0 -112 46q-45 45 -45 108q0 62 45 109q46 45 112 45zM181 585q-29 0 -48 -19t-19 -49q0 -28 19 -47q20 -20 48 -20t48 20q19 19 19 47q0 29 -18 49q-19 19 -49 19z" />
    <glyph glyph-name="plusminus" unicode="&#xb1;" 
d="M345 558v-134h161v-109h-161v-141h-129v141h-161v109h161v134h129zM506 108v-108h-451v108h451z" />
    <glyph glyph-name="uni00B2" unicode="&#xb2;" horiz-adv-x="385" 
d="M214 454h132v-90l-313 -1v21l149 162q52 58 52 97q0 25 -13 38q-14 15 -35 15q-22 0 -36 -15q-13 -13 -13 -40q0 -1 0.5 -5t1 -10.5t0.5 -13.5h-99q-4 15 -4 35q0 55 42 99q42 42 109 42q63 0 107 -38q43 -39 43 -98q0 -44 -22 -79q-22 -36 -69 -85z" />
    <glyph glyph-name="uni00B3" unicode="&#xb3;" horiz-adv-x="360" 
d="M235 628q39 -14 65 -46q26 -34 26 -80q0 -64 -46 -104q-46 -42 -114 -42q-52 0 -93 27q-41 26 -62 71l69 49q37 -55 83 -55q27 0 43 15q17 14 17 39q0 48 -76 48h-48v25l78 115h-133v90h275v-27z" />
    <glyph glyph-name="uni00B5" unicode="&#xb5;" horiz-adv-x="610" 
d="M568 111q18 0 27 1v-112q-31 -10 -72 -10q-75 0 -107 53q-40 -55 -111 -55q-63 0 -103 46v-214h-135v675h135v-285q0 -44 26 -72q25 -28 66 -28t68 28q26 28 26 72v285h134v-323q0 -61 46 -61z" />
    <glyph glyph-name="paragraph" unicode="&#xb6;" horiz-adv-x="613" 
d="M338 660v-443h-58q-106 0 -177 62t-71 161q0 100 70 160q71 60 178 60h58zM538 660v-663q0 -96 -52 -142q-53 -47 -147 -47q-47 0 -93 12v115q48 -4 64 -4q48 0 71 18q22 18 22 62v649h135z" />
    <glyph glyph-name="periodcentered" unicode="&#xb7;" horiz-adv-x="270" 
d="M136 413q39 0 66 -27q26 -28 26 -66q0 -40 -26 -66q-26 -27 -66 -27t-67 27q-27 26 -27 66q0 39 27 66t67 27z" />
    <glyph glyph-name="uni00B9" unicode="&#xb9;" horiz-adv-x="370" 
d="M246 780v-326h86v-90h-290v90h103v236h-94v90h195z" />
    <glyph glyph-name="guillemotright" unicode="&#xbb;" horiz-adv-x="597" 
d="M117 500l194 -210v-36l-194 -209l-86 75l134 153l-134 152zM374 500l194 -210v-36l-194 -209l-87 75l135 153l-135 152z" />
    <glyph glyph-name="onequarter" unicode="&#xbc;" horiz-adv-x="936" 
d="M332 334v-90h-290v90h103v236h-94v90h195v-326h86zM631 660h109l-380 -660h-109zM926 146v-82h-50v-64h-91v64h-212v26l124 326h103l-104 -270h89v109h91v-109h50z" />
    <glyph glyph-name="onehalf" unicode="&#xbd;" horiz-adv-x="971" 
d="M332 334v-90h-290v90h103v236h-94v90h195v-326h86zM631 660h109l-380 -660h-109zM800 90h132v-90l-313 -1v21l149 162q52 58 52 97q0 25 -13 39q-14 14 -35 14t-35 -14q-14 -16 -14 -41q0 -1 0.5 -5t1 -10.5t0.5 -13.5h-99q-4 15 -4 35q0 55 42 99q42 42 109 42
q63 0 107 -38q43 -39 43 -98q0 -44 -22 -79q-22 -36 -69 -85z" />
    <glyph glyph-name="threequarters" unicode="&#xbe;" horiz-adv-x="891" 
d="M326 382q0 -64 -46 -104q-46 -42 -114 -42q-52 0 -93 27q-41 26 -62 71l69 49q37 -55 83 -55q27 0 43 15q17 14 17 39q0 48 -76 48h-48v25l78 115h-133v90h275v-27l-85 -125q38 -12 65 -45t27 -81zM586 660h109l-380 -660h-109zM881 146v-82h-50v-64h-91v64h-212v26
l124 326h103l-104 -270h89v109h91v-109h50z" />
    <glyph glyph-name="multiply" unicode="&#xd7;" 
d="M427 550l80 -80l-147 -147l147 -147l-80 -81l-148 147l-147 -147l-80 81l147 147l-147 147l80 80l148 -147z" />
    <glyph glyph-name="divide" unicode="&#xf7;" 
d="M279 584q34 0 57 -22q24 -22 24 -54t-24 -55q-25 -23 -57 -23q-33 0 -58 23q-24 23 -24 55t24 54q23 22 58 22zM515 378v-115h-471v115h471zM279 209q34 0 57 -22q24 -22 24 -55q0 -32 -24 -54q-25 -23 -57 -23q-33 0 -58 23q-24 22 -24 54t24 55q23 22 58 22z" />
    <glyph glyph-name="florin" unicode="&#x192;" horiz-adv-x="451" 
d="M381 672q38 0 73 -11v-112q-42 2 -46 2q-42 0 -63 -18q-22 -18 -27 -59l-9 -68h92v-115h-106l-29 -239q-23 -185 -196 -185q-43 0 -72 10l-1 113q42 -2 45 -2q42 0 64 18q23 18 27 58l28 227h-73v115h87l10 80q21 186 196 186z" />
    <glyph glyph-name="uni030C" unicode="&#x30c;" horiz-adv-x="0" 
d="M-30 750l-49 -206h-95l5 206h139z" />
    <glyph glyph-name="dieresistonos" unicode="&#x385;" horiz-adv-x="620" 
d="M396 780v-24l-62 -185h-93v209h155zM120 754q32 0 57 -23q23 -23 23 -56q0 -31 -24 -54q-25 -23 -56 -23q-30 0 -55 24q-25 22 -25 53q0 34 25 56q25 23 55 23zM500 754q32 0 57 -23q23 -23 23 -56q0 -31 -23 -54q-25 -23 -57 -23q-30 0 -54 24q-25 22 -25 53q0 33 24 56
q25 23 55 23z" />
    <glyph glyph-name="Alphatonos" unicode="&#x386;" horiz-adv-x="661" 
d="M160 720l-49 -206h-95l5 206h139zM502 0l-37 86h-270l-37 -86h-145l295 672h45l294 -672h-145zM417 197l-87 222l-87 -222h174z" />
    <glyph glyph-name="Epsilontonos" unicode="&#x388;" horiz-adv-x="573" 
d="M30 720l-49 -206h-95l5 206h139zM520 660v-122h-309v-134h227v-115h-227v-167h321v-122h-456v660h444z" />
    <glyph glyph-name="Etatonos" unicode="&#x389;" horiz-adv-x="713" 
d="M30 720l-49 -206h-95l5 206h139zM638 660v-660h-135v285h-292v-285h-135v660h135v-253h292v253h135z" />
    <glyph glyph-name="Iotatonos" unicode="&#x38a;" horiz-adv-x="286" 
d="M30 720l-49 -206h-95l5 206h139zM211 660v-660h-135v660h135z" />
    <glyph glyph-name="Omicrontonos" unicode="&#x38c;" horiz-adv-x="778" 
d="M63 720l-49 -206h-95l5 206h139zM388 672q145 0 249 -98q103 -99 103 -244q0 -146 -103 -243q-103 -99 -249 -99t-248 99q-102 97 -102 243q0 145 102 244q103 98 248 98zM389 547q-92 0 -152 -61q-60 -62 -60 -156q0 -96 60 -157q59 -60 152 -60q91 0 152 61
q60 62 60 156t-60 156q-61 61 -152 61z" />
    <glyph glyph-name="Upsilontonos" unicode="&#x38e;" horiz-adv-x="624" 
d="M-176 514l5 206h139l-49 -206h-95zM607 660l-227 -400v-260h-135v259l-228 401h150l145 -262l146 262h149z" />
    <glyph glyph-name="Omegatonos" unicode="&#x38f;" horiz-adv-x="788" 
d="M-77 720h139l-49 -206h-95zM745 347q0 -133 -117 -225h107v-122h-284v122q155 74 155 218q0 92 -60 150q-60 57 -153 57q-92 0 -151 -57q-60 -55 -60 -148q0 -146 155 -220v-122h-284v122h101q-111 92 -111 225q0 137 102 231q101 94 248 94q146 0 249 -94t103 -231z" />
    <glyph glyph-name="iotadieresistonos" unicode="&#x390;" horiz-adv-x="314" 
d="M234 780v-24l-62 -185h-93v209h155zM-42 754q32 0 57 -23q23 -23 23 -56q0 -31 -24 -54q-25 -23 -56 -23q-30 0 -55 24q-25 22 -25 53q0 33 24 56q26 23 56 23zM338 754q32 0 57 -23q23 -23 23 -56q0 -31 -23 -54q-25 -23 -57 -23q-30 0 -54 24q-25 22 -25 53q0 33 24 56
q25 23 55 23zM199 495v-312q0 -39 15 -56q14 -18 44 -18q2 0 7 0.5t14 1t17 0.5v-113q-34 -10 -72 -10q-159 0 -159 176v331h134z" />
    <glyph glyph-name="Alpha" unicode="&#x391;" horiz-adv-x="661" 
d="M502 0l-37 86h-270l-37 -86h-145l295 672h45l294 -672h-145zM417 197l-87 222l-87 -222h174z" />
    <glyph glyph-name="Beta" unicode="&#x392;" horiz-adv-x="621" 
d="M470 357q55 -19 87 -62q30 -42 30 -101q0 -86 -60 -140q-61 -54 -157 -54h-294v660h234q92 0 151 -51q58 -52 58 -133q0 -73 -49 -119zM299 544h-93v-151h93q41 0 63 21q23 20 23 55t-23 55t-63 20zM360 116q44 0 69 22t25 61t-25 61t-69 22h-154v-166h154z" />
    <glyph glyph-name="Gamma" unicode="&#x393;" horiz-adv-x="524" 
d="M211 0h-135v660h424v-122h-289v-538z" />
    <glyph glyph-name="Delta" unicode="&#x394;" horiz-adv-x="661" 
d="M353 672l294 -672h-634l295 672h45zM450 122l-119 278l-120 -278h239z" />
    <glyph glyph-name="Epsilon" unicode="&#x395;" horiz-adv-x="573" 
d="M520 660v-122h-309v-134h227v-115h-227v-167h321v-122h-456v660h444z" />
    <glyph glyph-name="Zeta" unicode="&#x396;" horiz-adv-x="588" 
d="M227 122h333v-122h-540v36l331 502h-288v122h496v-36z" />
    <glyph glyph-name="Eta" unicode="&#x397;" horiz-adv-x="713" 
d="M638 660v-660h-135v285h-292v-285h-135v660h135v-253h292v253h135z" />
    <glyph glyph-name="Theta" unicode="&#x398;" horiz-adv-x="778" 
d="M388 672q145 0 249 -98q103 -99 103 -244q0 -146 -103 -243q-103 -99 -249 -99t-248 99q-102 97 -102 243q0 145 102 244q103 98 248 98zM388 555q-96 0 -158 -63q-61 -64 -61 -163q0 -97 62 -161q61 -63 157 -63q95 0 158 63t63 161q0 99 -63 163q-61 63 -158 63z
M510 392v-111h-242v111h242z" />
    <glyph glyph-name="Iota" unicode="&#x399;" horiz-adv-x="286" 
d="M211 660v-660h-135v660h135z" />
    <glyph glyph-name="Kappa" unicode="&#x39a;" horiz-adv-x="670" 
d="M657 0h-163l-283 344v-344h-135v660h135v-307l252 307h161l-253 -311z" />
    <glyph glyph-name="Lambda" unicode="&#x39b;" horiz-adv-x="661" 
d="M647 0h-145l-171 401l-173 -401h-145l295 672h45z" />
    <glyph glyph-name="Mu" unicode="&#x39c;" horiz-adv-x="798" 
d="M678 672h44v-672h-135v353l-166 -209h-44l-166 209v-353h-135v672h44l279 -358z" />
    <glyph glyph-name="Nu" unicode="&#x39d;" horiz-adv-x="713" 
d="M503 660h135v-672h-45l-382 408v-396h-135v672h44l383 -405v393z" />
    <glyph glyph-name="Xi" unicode="&#x39e;" horiz-adv-x="568" 
d="M527 660v-122h-486v122h486zM515 406v-119h-462v119h462zM527 122v-122h-486v122h486z" />
    <glyph glyph-name="Omicron" unicode="&#x39f;" horiz-adv-x="778" 
d="M388 672q145 0 249 -98q103 -99 103 -244q0 -146 -103 -243q-103 -99 -249 -99t-248 99q-102 97 -102 243q0 145 102 244q103 98 248 98zM389 547q-92 0 -152 -61q-60 -62 -60 -156q0 -96 60 -157q59 -60 152 -60q91 0 152 61q60 62 60 156t-60 156q-61 61 -152 61z" />
    <glyph glyph-name="Pi" unicode="&#x3a0;" horiz-adv-x="691" 
d="M615 660v-660h-135v538h-269v-538h-135v660h539z" />
    <glyph glyph-name="Rho" unicode="&#x3a1;" horiz-adv-x="594" 
d="M324 660q105 0 172 -58q66 -58 66 -155q0 -95 -66 -154q-68 -60 -172 -60h-113v-233h-135v660h248zM324 541h-113v-190h113q47 0 74 27q26 26 26 69q0 42 -27 68q-28 26 -73 26z" />
    <glyph glyph-name="Sigma" unicode="&#x3a3;" horiz-adv-x="570" 
d="M251 122h278v-122h-494v29l199 309l-199 293v29h482v-122h-262l130 -185v-29z" />
    <glyph glyph-name="Tau" unicode="&#x3a4;" horiz-adv-x="585" 
d="M572 660v-122h-212v-538h-135v538h-211v122h558z" />
    <glyph glyph-name="Upsilon" unicode="&#x3a5;" horiz-adv-x="624" 
d="M607 660l-227 -400v-260h-135v259l-228 401h150l145 -262l146 262h149z" />
    <glyph glyph-name="Phi" unicode="&#x3a6;" horiz-adv-x="838" 
d="M799 336q0 -128 -86 -205q-88 -76 -227 -77v-86h-135v86q-138 1 -226 77q-87 77 -87 205t87 201q88 75 226 76v80h135v-80q140 -2 227 -75q86 -74 86 -202zM171 332q0 -76 48 -120q48 -42 132 -42v328q-84 -2 -132 -45t-48 -121zM486 170q84 0 133 42q48 44 48 120
q0 78 -48 121q-50 44 -133 45v-328z" />
    <glyph glyph-name="Chi" unicode="&#x3a7;" horiz-adv-x="614" 
d="M600 0h-153l-140 219l-140 -219h-154l219 336l-206 324h154l127 -209l126 209h153l-202 -324z" />
    <glyph glyph-name="Psi" unicode="&#x3a8;" horiz-adv-x="843" 
d="M489 683v-417q74 0 121 38q45 38 45 111v245h135v-257q0 -125 -82 -191q-82 -67 -219 -67v-145h-135v145q-137 0 -219 67q-82 66 -82 191v257h135v-245q0 -74 46 -111q46 -38 120 -38v417h135z" />
    <glyph glyph-name="Omega" unicode="&#x3a9;" horiz-adv-x="788" 
d="M745 347q0 -133 -117 -225h107v-122h-284v122q155 74 155 218q0 92 -60 150q-60 57 -153 57q-92 0 -151 -57q-60 -55 -60 -148q0 -146 155 -220v-122h-284v122h101q-111 92 -111 225q0 137 102 231q101 94 248 94q146 0 249 -94t103 -231z" />
    <glyph glyph-name="Iotadieresis" unicode="&#x3aa;" horiz-adv-x="286" 
d="M14 892q34 0 57 -22q24 -22 24 -56q0 -32 -24 -54q-25 -23 -57 -23q-31 0 -56 24q-25 22 -25 53q0 34 24 56q25 22 57 22zM272 892q32 0 57 -23q24 -22 24 -56q0 -31 -24 -54q-25 -23 -57 -23q-30 0 -56 24q-25 22 -25 53q0 34 25 56q25 23 56 23zM211 660v-660h-135v660
h135z" />
    <glyph glyph-name="Upsilondieresis" unicode="&#x3ab;" horiz-adv-x="624" 
d="M173 737q-31 0 -56 24q-25 22 -25 53q0 34 25 56q23 22 56 22q34 0 57 -22q24 -22 24 -56q0 -32 -24 -54q-25 -23 -57 -23zM431 736q-31 0 -56 24q-25 22 -25 53q0 34 25 56q25 23 56 23q32 0 57 -23q24 -22 24 -56q0 -31 -24 -54q-25 -23 -57 -23zM607 660l-227 -400
v-260h-135v259l-228 401h150l145 -262l146 262h149z" />
    <glyph glyph-name="alphatonos" unicode="&#x3ac;" horiz-adv-x="641" 
d="M408 756l-61 -185h-99v209h160v-24zM598 111q19 0 29 1v-112q-31 -10 -74 -10q-91 0 -118 77q-52 -79 -161 -79q-102 0 -168 74q-67 73 -67 185q0 113 67 186q66 73 168 73q110 0 162 -81q0 2 2 34q0 6 0.5 18.5t1.5 17.5h124q-10 -143 -10 -232v-91q0 -61 44 -61z
M298 111q50 0 87 35q36 34 36 101q0 65 -36 101t-87 36q-53 0 -87 -37q-35 -38 -35 -99t35 -99t87 -38z" />
    <glyph glyph-name="epsilontonos" unicode="&#x3ad;" horiz-adv-x="509" 
d="M359 756l-61 -185h-99v209h160v-24zM400 161l76 -80q-72 -93 -215 -93q-94 0 -155 41q-61 40 -61 108q0 76 71 118q-51 41 -51 106q0 68 56 107q56 38 146 38q137 0 206 -85l-76 -81q-45 50 -129 50q-71 0 -71 -43q0 -21 15 -31q15 -12 41 -12h86v-100h-91q-71 0 -71 -48
q0 -52 84 -52q89 0 139 57z" />
    <glyph glyph-name="etatonos" unicode="&#x3ae;" horiz-adv-x="605" 
d="M398 756l-61 -185h-99v209h160v-24zM352 506q86 0 139 -54q51 -56 51 -145v-487h-134v468q0 44 -25 70q-26 26 -67 26q-42 0 -68 -27q-27 -27 -27 -69v-288h-134v323q0 61 -45 61q-15 0 -28 -1v112q31 10 74 10q80 0 110 -57q61 58 154 58z" />
    <glyph glyph-name="iotatonos" unicode="&#x3af;" horiz-adv-x="314" 
d="M227 780v-24l-61 -185h-99v209h160zM199 495v-312q0 -39 15 -56q14 -18 44 -18q2 0 7 0.5t14 1t17 0.5v-113q-34 -10 -72 -10q-159 0 -159 176v331h134z" />
    <glyph glyph-name="upsilondieresistonos" unicode="&#x3b0;" horiz-adv-x="576" 
d="M381 780v-24l-62 -185h-93v209h155zM105 754q32 0 57 -23q23 -23 23 -56q0 -31 -24 -54q-25 -23 -56 -23q-29 0 -55 24q-25 22 -25 53q0 34 25 56q25 23 55 23zM485 754q32 0 57 -23q23 -23 23 -56q0 -31 -23 -54q-25 -23 -57 -23q-30 0 -54 24q-25 22 -25 53q0 33 24 56
q25 23 55 23zM485 495q42 -136 42 -248q0 -128 -65 -193q-64 -66 -168 -66q-102 0 -167 63t-65 169v275h135v-287q0 -44 28 -71q27 -27 70 -27q94 0 94 135q0 112 -36 250h132z" />
    <glyph glyph-name="alpha" unicode="&#x3b1;" horiz-adv-x="641" 
d="M598 111q19 0 29 1v-112q-31 -10 -74 -10q-91 0 -118 77q-52 -79 -161 -79q-102 0 -168 74q-67 73 -67 185q0 113 67 186q66 73 168 73q110 0 162 -81q0 2 2 34q0 6 0.5 18.5t1.5 17.5h124q-10 -143 -10 -232v-91q0 -61 44 -61zM298 111q50 0 87 35q36 34 36 101
q0 65 -36 101t-87 36q-53 0 -87 -37q-35 -38 -35 -99t35 -99t87 -38z" />
    <glyph glyph-name="beta" unicode="&#x3b2;" horiz-adv-x="633" 
d="M453 428q64 -22 103 -75q38 -53 38 -128q0 -107 -71 -172q-73 -65 -175 -65q-85 0 -146 46v-214h-135v711q0 109 67 170q65 61 174 61q100 0 156 -56t56 -136q0 -91 -67 -142zM330 112q58 0 93 32t35 86q0 52 -34 85t-88 33h-54v114h17q41 0 63 25t22 68t-24 65
q-25 23 -61 23q-43 0 -70 -30t-27 -83v-371q58 -47 128 -47z" />
    <glyph glyph-name="gamma" unicode="&#x3b3;" horiz-adv-x="559" 
d="M547 495l-200 -414v-261h-135v261l-200 414h142l125 -281l125 281h143z" />
    <glyph glyph-name="delta" unicode="&#x3b4;" horiz-adv-x="608" 
d="M484 442q86 -95 86 -194q0 -110 -78 -185t-189 -75t-187 75q-77 75 -77 186q0 101 64 168q64 68 160 80l-197 217v36h469v-114h-228zM304 112q54 0 92 38q36 39 36 97q0 59 -36 96q-38 38 -92 38q-56 0 -92 -38q-36 -37 -36 -96q0 -60 37 -97q36 -38 91 -38z" />
    <glyph glyph-name="epsilon" unicode="&#x3b5;" horiz-adv-x="509" 
d="M400 161l76 -80q-72 -93 -215 -93q-94 0 -155 41q-61 40 -61 108q0 76 71 118q-51 41 -51 106q0 68 56 107q56 38 146 38q137 0 206 -85l-76 -81q-45 50 -129 50q-71 0 -71 -43q0 -21 15 -31q15 -12 41 -12h86v-100h-91q-71 0 -71 -48q0 -52 84 -52q89 0 139 57z" />
    <glyph glyph-name="zeta" unicode="&#x3b6;" horiz-adv-x="525" 
d="M354 109q164 -44 164 -174q0 -54 -26 -115h-132q20 57 20 92q0 58 -74 78l-55 14q-103 26 -157 83q-55 56 -55 137q0 94 91 206l167 206h-232v114h445v-36l-279 -351q-55 -71 -55 -121q0 -85 116 -117z" />
    <glyph glyph-name="eta" unicode="&#x3b7;" horiz-adv-x="605" 
d="M352 506q86 0 139 -54q51 -56 51 -145v-487h-134v468q0 44 -25 70q-26 26 -67 26q-42 0 -68 -27q-27 -27 -27 -69v-288h-134v323q0 61 -45 61q-15 0 -28 -1v112q31 10 74 10q80 0 110 -57q61 58 154 58z" />
    <glyph glyph-name="theta" unicode="&#x3b8;" horiz-adv-x="641" 
d="M320 762q132 0 199 -102q67 -100 67 -282q0 -184 -67 -287q-68 -104 -199 -104q-132 0 -198 104q-67 103 -67 287q0 183 67 283q66 101 198 101zM320 638q-58 0 -88 -47q-31 -46 -37 -151h251q-6 105 -36 151q-32 47 -90 47zM320 111q60 0 91 52q32 53 36 163h-253
q4 -111 36 -164q30 -51 90 -51z" />
    <glyph glyph-name="iota" unicode="&#x3b9;" horiz-adv-x="314" 
d="M199 495v-312q0 -39 15 -56q14 -18 44 -18q2 0 7 0.5t14 1t17 0.5v-113q-34 -10 -72 -10q-159 0 -159 176v331h134z" />
    <glyph glyph-name="kappa" unicode="&#x3ba;" horiz-adv-x="561" 
d="M556 0h-153l-201 259v-259h-135v495h135v-228l187 228h160l-192 -233z" />
    <glyph glyph-name="lambda" unicode="&#x3bb;" horiz-adv-x="572" 
d="M542 113h24v-113q-30 -10 -60 -10q-49 0 -80 26q-29 26 -47 81l-85 257l-132 -354h-142l208 512l-18 54q-15 42 -39 58q-23 17 -61 17q-19 0 -52 -3v113q35 11 75 11q73 0 119 -33q47 -35 77 -118l163 -457q15 -41 50 -41z" />
    <glyph glyph-name="mu" unicode="&#x3bc;" horiz-adv-x="610" 
d="M568 111q18 0 27 1v-112q-31 -10 -72 -10q-75 0 -107 53q-40 -55 -111 -55q-63 0 -103 46v-214h-135v675h135v-285q0 -44 26 -72q25 -28 66 -28t68 28q26 28 26 72v285h134v-323q0 -61 46 -61z" />
    <glyph glyph-name="nu" unicode="&#x3bd;" horiz-adv-x="559" 
d="M404 495h143l-245 -507h-45l-245 507h142l125 -281z" />
    <glyph glyph-name="xi" unicode="&#x3be;" horiz-adv-x="533" 
d="M357 115q82 -13 126 -62q43 -47 43 -119q0 -53 -26 -114h-132q20 57 20 93q0 70 -74 81l-47 7q-105 13 -164 74q-58 58 -58 145q0 60 29 109q28 46 79 74q-82 57 -82 157q0 89 65 146q65 56 162 56q74 0 129 -33q57 -34 88 -91l-93 -72q-49 72 -113 72q-43 0 -71 -25
q-29 -26 -29 -66q0 -39 27 -66t72 -27h114v-115h-123q-52 0 -83 -28q-33 -29 -33 -78q0 -89 114 -108z" />
    <glyph glyph-name="omicron" unicode="&#x3bf;" horiz-adv-x="608" 
d="M304 506q110 0 188 -75t78 -184t-78 -184t-189 -75t-187 75q-77 75 -77 184q0 110 77 185q77 74 188 74zM304 383q-55 0 -91 -39q-37 -37 -37 -97t37 -97q36 -38 91 -38q54 0 92 38q36 39 36 97t-36 97q-38 39 -92 39z" />
    <glyph glyph-name="pi" unicode="&#x3c0;" horiz-adv-x="598" 
d="M516 -9q-66 0 -104 41q-36 41 -36 118v231h-174v-381h-135v495h444v-327q0 -57 45 -57q19 0 28 1v-112q-38 -9 -68 -9z" />
    <glyph glyph-name="rho" unicode="&#x3c1;" horiz-adv-x="617" 
d="M319 506q119 0 189 -72q71 -74 71 -187q0 -111 -66 -185q-68 -74 -171 -74q-91 0 -145 59v-227h-135v423q0 118 70 191q71 72 187 72zM317 111q53 0 89 37q35 38 35 99q0 62 -35 100q-36 37 -90 37q-52 0 -86 -34q-36 -34 -36 -101t36 -102q36 -36 87 -36z" />
    <glyph glyph-name="uni03C2" unicode="&#x3c2;" horiz-adv-x="532" 
d="M324 -180q27 57 27 96q0 19 -6 31q-4 13 -20 22q-11 9 -27 14q-22 8 -39 13q-44 14 -56 18q-16 6 -56 29q-34 21 -55 46q-20 24 -37 66q-16 41 -16 94q0 120 73 189q74 68 183 68q148 0 217 -124l-93 -72q-52 73 -123 73q-53 0 -86 -34q-33 -35 -33 -94q0 -21 6 -41
q2 -6 11 -30q6 -12 22 -25q4 -3 9 -7t8.5 -6.5t5.5 -3.5q11 -6 31 -14q10 -4 28 -10l4 -2q5 -1 11.5 -3.5t14.5 -4.5q77 -24 120 -59q41 -36 41 -107q0 -61 -34 -122h-131z" />
    <glyph glyph-name="sigma" unicode="&#x3c3;" horiz-adv-x="646" 
d="M627 495v-114h-128q63 -60 63 -146q0 -105 -74 -176q-76 -71 -189 -71q-112 0 -186 74t-74 183q0 112 74 181q73 69 194 69h320zM300 112q55 0 90 38q34 38 34 97q0 58 -34 95t-90 37q-55 0 -89 -37q-35 -38 -35 -95q0 -59 35 -97t89 -38z" />
    <glyph glyph-name="tau" unicode="&#x3c4;" horiz-adv-x="479" 
d="M365 109q23 0 83 4v-113q-57 -12 -111 -12q-205 0 -205 186v207h-125v114h431v-114h-171v-195q0 -42 23 -59q22 -18 75 -18z" />
    <glyph glyph-name="upsilon" unicode="&#x3c5;" horiz-adv-x="576" 
d="M485 495q42 -136 42 -248q0 -128 -65 -193q-64 -66 -168 -66q-102 0 -167 63t-65 169v275h135v-287q0 -44 28 -71q27 -27 70 -27q94 0 94 135q0 112 -36 250h132z" />
    <glyph glyph-name="phi" unicode="&#x3c6;" horiz-adv-x="803" 
d="M765 248q0 -120 -82 -189q-81 -69 -214 -71v-168h-134v168q-131 2 -213 70q-83 71 -83 190q0 120 83 189q82 67 213 69v178h134v-178q132 -2 214 -69q82 -69 82 -189zM170 247q0 -69 43 -106q44 -38 119 -38h6v288h-6q-74 0 -118 -38t-44 -106zM471 103q76 0 120 38
q43 37 43 106t-43 106q-44 38 -120 38h-6v-288h6z" />
    <glyph glyph-name="chi" unicode="&#x3c7;" horiz-adv-x="549" 
d="M511 -68q22 0 28 1v-113q-26 -10 -62 -10q-46 0 -74 22q-29 22 -54 69l-76 145l-117 -226h-150l197 351l-95 173q-20 39 -60 39q-21 0 -28 -1v113q24 9 62 9q44 0 75 -23q29 -22 55 -71l63 -121l108 206h149l-186 -328l105 -196q21 -39 60 -39z" />
    <glyph glyph-name="psi" unicode="&#x3c8;" horiz-adv-x="831" 
d="M484 660v-550q160 0 160 162q0 85 -36 223h132q42 -126 42 -231q0 -131 -80 -203q-80 -73 -218 -73v-168h-134v168q-127 0 -207 68q-81 68 -81 192v247h135v-236q0 -72 44 -110q43 -39 109 -39v550h134z" />
    <glyph glyph-name="omega" unicode="&#x3c9;" horiz-adv-x="844" 
d="M587 504q218 -50 218 -262q0 -118 -65 -186t-165 -68q-99 0 -153 68q-53 -68 -153 -68q-101 0 -166 68q-64 67 -64 186q0 212 218 262l34 -119q-56 -16 -87 -50q-30 -33 -30 -95t29 -96q28 -34 71 -34q38 0 61 27q23 28 23 74v156h128v-156q0 -46 23 -74q23 -27 61 -27
q43 0 71 34q29 34 29 96t-30 95q-31 34 -87 50z" />
    <glyph glyph-name="iotadieresis" unicode="&#x3ca;" horiz-adv-x="314" 
d="M24 754q32 0 57 -23q24 -23 24 -56q0 -31 -24 -54q-25 -23 -57 -23q-31 0 -57 23q-24 23 -24 54q0 33 24 56q26 23 57 23zM244 754q32 0 57 -23q24 -23 24 -56q0 -31 -24 -54q-25 -23 -57 -23q-30 0 -56 24q-25 22 -25 53q0 34 25 56q25 23 56 23zM199 495v-312
q0 -39 15 -56q14 -18 44 -18q2 0 7 0.5t14 1t17 0.5v-113q-34 -10 -72 -10q-159 0 -159 176v331h134z" />
    <glyph glyph-name="upsilondieresis" unicode="&#x3cb;" horiz-adv-x="576" 
d="M161 754q32 0 57 -23q24 -23 24 -56q0 -31 -24 -54q-25 -23 -57 -23q-31 0 -56 24q-25 22 -25 53q0 34 25 56q25 23 56 23zM399 754q32 0 57 -23q24 -23 24 -56q0 -31 -24 -54q-25 -23 -57 -23q-31 0 -56 24q-25 22 -25 53q0 34 25 56q25 23 56 23zM485 495
q42 -136 42 -248q0 -128 -65 -193q-64 -66 -168 -66q-102 0 -167 63t-65 169v275h135v-287q0 -44 28 -71q27 -27 70 -27q94 0 94 135q0 112 -36 250h132z" />
    <glyph glyph-name="omicrontonos" unicode="&#x3cc;" horiz-adv-x="608" 
d="M398 780v-24l-61 -185h-99v209h160zM304 506q110 0 188 -75t78 -184t-78 -184t-189 -75t-187 75q-77 75 -77 184q0 110 77 185q77 74 188 74zM304 383q-55 0 -91 -39q-37 -37 -37 -97t37 -97q36 -38 91 -38q54 0 92 38q36 39 36 97t-36 97q-38 39 -92 39z" />
    <glyph glyph-name="upsilontonos" unicode="&#x3cd;" horiz-adv-x="576" 
d="M374 780v-24l-61 -185h-99v209h160zM485 495q42 -136 42 -248q0 -128 -65 -193q-64 -66 -168 -66q-102 0 -167 63t-65 169v275h135v-287q0 -44 28 -71q27 -27 70 -27q94 0 94 135q0 112 -36 250h132z" />
    <glyph glyph-name="omegatonos" unicode="&#x3ce;" horiz-adv-x="844" 
d="M510 756l-61 -185h-99v209h160v-24zM587 504q218 -50 218 -262q0 -118 -65 -186t-165 -68q-99 0 -153 68q-53 -68 -153 -68q-101 0 -166 68q-64 67 -64 186q0 212 218 262l34 -119q-56 -16 -87 -50q-30 -33 -30 -95t29 -96q28 -34 71 -34q38 0 61 27q23 28 23 74v156h128
v-156q0 -46 23 -74q23 -27 61 -27q43 0 71 34q29 34 29 96t-30 95q-31 34 -87 50z" />
    <glyph glyph-name="uni2009" unicode="&#x2009;" horiz-adv-x="148" 
 />
    <glyph glyph-name="endash" unicode="&#x2013;" horiz-adv-x="502" 
d="M467 377v-113h-432v113h432z" />
    <glyph glyph-name="emdash" unicode="&#x2014;" horiz-adv-x="1000" 
d="M950 377v-113h-900v113h900z" />
    <glyph glyph-name="uni2015" unicode="&#x2015;" horiz-adv-x="1000" 
d="M950 377v-113h-900v113h900z" />
    <glyph glyph-name="quoteleft" unicode="&#x2018;" horiz-adv-x="301" 
d="M218 660l-5 -278h-154l56 278h103z" />
    <glyph glyph-name="quoteright" unicode="&#x2019;" horiz-adv-x="301" 
d="M242 660l-56 -278h-103l5 278h154z" />
    <glyph glyph-name="quotesinglbase" unicode="&#x201a;" horiz-adv-x="301" 
d="M242 123l-56 -278h-103l5 278h154z" />
    <glyph glyph-name="quotedblleft" unicode="&#x201c;" horiz-adv-x="538" 
d="M218 660l-5 -278h-154l56 278h103zM455 660l-5 -278h-154l56 278h103z" />
    <glyph glyph-name="quotedblright" unicode="&#x201d;" horiz-adv-x="538" 
d="M242 660l-56 -278h-103l5 278h154zM479 660l-56 -278h-103l5 278h154z" />
    <glyph glyph-name="quotedblbase" unicode="&#x201e;" horiz-adv-x="538" 
d="M242 123l-56 -278h-103l5 278h154zM479 123l-56 -278h-103l5 278h154z" />
    <glyph glyph-name="dagger" unicode="&#x2020;" horiz-adv-x="483" 
d="M309 750v-145h127v-114h-127v-243h-135v243h-127v114h127v145h135z" />
    <glyph glyph-name="daggerdbl" unicode="&#x2021;" horiz-adv-x="483" 
d="M309 750v-115h127v-114h-127v-127h127v-114h-127v-116h-135v116h-127v114h127v127h-127v114h127v115h135z" />
    <glyph glyph-name="bullet" unicode="&#x2022;" horiz-adv-x="427" 
d="M214 430q68 0 115 -45q47 -47 47 -114t-47 -112q-46 -46 -115 -46q-68 0 -115 46q-48 45 -48 112t48 114q47 45 115 45z" />
    <glyph glyph-name="ellipsis" unicode="&#x2026;" horiz-adv-x="788" 
d="M395 174q39 0 66 -27q26 -28 26 -66q0 -40 -26 -66q-25 -27 -66 -27q-40 0 -67 27q-27 25 -27 66q0 39 27 66t67 27zM654 174q39 0 66 -27q26 -28 26 -66q0 -40 -26 -66q-27 -27 -66 -27q-40 0 -67 27q-27 25 -27 66q0 39 27 66t67 27zM136 174q39 0 66 -27
q26 -28 26 -66q0 -40 -26 -66q-26 -27 -66 -27t-67 27q-27 25 -27 66q0 39 27 66t67 27z" />
    <glyph glyph-name="perthousand" unicode="&#x2030;" horiz-adv-x="1213" 
d="M212 672q71 0 121 -47q49 -48 49 -117q0 -71 -49 -117q-49 -48 -121 -48q-70 0 -120 48q-50 47 -50 117q0 69 50 117q50 47 120 47zM660 660l-380 -660h-108l379 660h109zM213 579q-29 0 -49 -20q-18 -19 -18 -51t18 -52q20 -20 49 -20q27 0 47 20q19 19 19 52
q0 32 -19 51q-20 20 -47 20zM1000 319q71 0 121 -47q50 -48 50 -117q0 -70 -50 -118q-50 -47 -121 -47q-70 0 -120 47q-50 48 -50 118q0 69 50 117q50 47 120 47zM619 318q71 0 121 -47q50 -48 50 -117q0 -70 -50 -118q-50 -47 -121 -47t-121 47q-49 48 -49 118q0 69 49 117
q50 47 121 47zM1001 226q-29 0 -49 -20q-18 -20 -18 -51q0 -33 18 -52q19 -19 49 -19q29 0 47 20q19 19 19 51t-19 51q-18 20 -47 20zM620 225q-31 0 -49 -20q-18 -19 -18 -51t18 -52q18 -19 49 -19q28 0 46 20q19 19 19 51t-19 51q-18 20 -46 20z" />
    <glyph glyph-name="minute" unicode="&#x2032;" horiz-adv-x="288" 
d="M256 660l-87 -284h-103l36 284h154z" />
    <glyph glyph-name="second" unicode="&#x2033;" horiz-adv-x="525" 
d="M256 660l-87 -284h-103l36 284h154zM493 660l-87 -284h-103l36 284h154z" />
    <glyph glyph-name="guilsinglleft" unicode="&#x2039;" horiz-adv-x="340" 
d="M224 500l86 -75l-135 -152l135 -153l-86 -75l-195 209v36z" />
    <glyph glyph-name="guilsinglright" unicode="&#x203a;" horiz-adv-x="340" 
d="M117 500l194 -210v-36l-194 -209l-86 75l134 153l-134 152z" />
    <glyph glyph-name="fraction" unicode="&#x2044;" horiz-adv-x="251" 
d="M370 660l-380 -660h-109l380 660h109z" />
    <glyph glyph-name="uni2070" unicode="&#x2070;" horiz-adv-x="421" 
d="M210 788q83 0 127 -59q43 -58 43 -154t-43 -157q-44 -62 -127 -62q-81 0 -125 62q-43 61 -43 157q0 95 43 154q44 59 125 59zM210 696q-66 0 -66 -122q0 -126 66 -126q67 0 67 126q0 122 -67 122z" />
    <glyph glyph-name="uni2074" unicode="&#x2074;" horiz-adv-x="375" 
d="M365 510v-82h-50v-64h-91v64h-212v26l124 326h103l-104 -270h89v109h91v-109h50z" />
    <glyph glyph-name="uni2075" unicode="&#x2075;" horiz-adv-x="370" 
d="M196 636q57 0 99 -36q42 -34 42 -96q0 -65 -47 -107q-47 -41 -117 -41q-54 0 -95 26q-40 27 -63 72l70 49q34 -55 84 -55q28 0 47 14q18 14 18 39q0 49 -76 49h-98v230h252v-90h-156v-59q25 5 40 5z" />
    <glyph glyph-name="uni2076" unicode="&#x2076;" horiz-adv-x="374" 
d="M214 652q49 -3 90 -44q40 -40 40 -100q0 -64 -47 -108t-110 -44t-110 44t-47 110q0 32 14 62q14 29 43 67l103 141h118zM187 448q24 0 41 17t17 43q0 24 -17 43q-17 17 -41 17t-41 -17q-17 -19 -17 -43q0 -26 17 -43t41 -17z" />
    <glyph glyph-name="uni2077" unicode="&#x2077;" horiz-adv-x="346" 
d="M33 780h296v-27l-181 -389h-108l156 326h-163v90z" />
    <glyph glyph-name="uni2078" unicode="&#x2078;" horiz-adv-x="388" 
d="M278 579q75 -33 75 -102q0 -56 -44 -89q-46 -32 -115 -32q-70 0 -114 32q-45 33 -45 89q0 70 74 102q-56 38 -56 96q0 53 40 83q39 30 101 30t102 -30q39 -30 39 -83q0 -60 -57 -96zM194 708q-22 0 -35 -10q-14 -11 -14 -28q0 -16 12 -26q9 -9 37 -24q49 22 49 50
q0 17 -14 28q-13 10 -35 10zM194 437q28 0 45 12q15 12 15 32q0 35 -60 57q-61 -22 -61 -57q0 -20 16 -32q15 -12 45 -12z" />
    <glyph glyph-name="uni2079" unicode="&#x2079;" horiz-adv-x="374" 
d="M187 788q63 0 110 -44q46 -43 46 -110q0 -34 -13 -61q-13 -28 -43 -68l-104 -141h-117l94 128q-50 3 -91 44q-39 40 -39 100q0 65 47 109q46 43 110 43zM187 576q24 0 41 17q17 19 17 43q0 26 -17 43t-41 17t-41 -17t-17 -43q0 -24 17 -43q17 -17 41 -17z" />
    <glyph glyph-name="uni207A" unicode="&#x207a;" horiz-adv-x="427" 
d="M262 750v-134h131v-87h-131v-135h-97v135h-131v87h131v134h97z" />
    <glyph glyph-name="uni207B" unicode="&#x207b;" horiz-adv-x="427" 
d="M393 615v-85h-359v85h359z" />
    <glyph glyph-name="uni207C" unicode="&#x207c;" horiz-adv-x="427" 
d="M42 611v87h343v-87h-343zM42 447v88h343v-88h-343z" />
    <glyph glyph-name="uni207D" unicode="&#x207d;" horiz-adv-x="275" 
d="M216 903l40 -60q-118 -79 -118 -271q0 -195 118 -271l-40 -60q-165 85 -165 331q0 134 46 216t119 115z" />
    <glyph glyph-name="uni207E" unicode="&#x207e;" horiz-adv-x="275" 
d="M59 903q74 -33 120 -115t46 -216t-46 -216t-120 -115l-40 60q118 76 118 271q0 193 -118 271z" />
    <glyph glyph-name="uni2080" unicode="&#x2080;" horiz-adv-x="421" 
d="M210 304q83 0 127 -59q43 -58 43 -154q0 -97 -43 -158t-127 -61q-82 0 -125 61t-43 158q0 95 43 154q44 59 125 59zM210 212q-66 0 -66 -122q0 -126 66 -126q67 0 67 126q0 122 -67 122z" />
    <glyph glyph-name="uni2081" unicode="&#x2081;" horiz-adv-x="370" 
d="M246 296v-326h86v-90h-290v90h103v236h-94v90h195z" />
    <glyph glyph-name="uni2082" unicode="&#x2082;" horiz-adv-x="385" 
d="M214 -30h132v-90l-313 -1v21l149 162q52 58 52 97q0 25 -13 39q-14 14 -35 14q-22 0 -36 -14q-13 -14 -13 -41q0 -1 0.5 -5t1 -10.5t0.5 -13.5h-99q-4 15 -4 35q0 55 42 99q42 42 109 42q63 0 107 -38q43 -39 43 -98q0 -44 -22 -79q-22 -36 -69 -85z" />
    <glyph glyph-name="uni2083" unicode="&#x2083;" horiz-adv-x="360" 
d="M235 144q39 -14 65 -46q26 -34 26 -80q0 -63 -46 -105q-47 -41 -114 -41q-52 0 -93 26q-41 27 -62 72l69 49q37 -55 83 -55q26 0 43 14q17 15 17 40q0 48 -76 48h-48v25l78 115h-133v90h275v-27z" />
    <glyph glyph-name="uni2084" unicode="&#x2084;" horiz-adv-x="375" 
d="M365 26v-82h-50v-64h-91v64h-212v26l124 326h103l-104 -270h89v109h91v-109h50z" />
    <glyph glyph-name="uni2085" unicode="&#x2085;" horiz-adv-x="370" 
d="M196 152q57 0 99 -36q42 -34 42 -96q0 -65 -47 -107q-47 -41 -117 -41q-54 0 -95 26q-40 27 -63 72l70 49q34 -55 84 -55q28 0 47 14q18 14 18 39q0 49 -76 49h-98v230h252v-90h-156v-59q25 5 40 5z" />
    <glyph glyph-name="uni2086" unicode="&#x2086;" horiz-adv-x="374" 
d="M214 168q49 -3 90 -44q40 -40 40 -100q0 -65 -47 -109q-46 -43 -110 -43t-110 43q-47 44 -47 111q0 32 14 62q14 29 43 67l103 141h118zM187 -36q24 0 41 17t17 43q0 24 -17 43q-17 17 -41 17t-41 -17q-17 -19 -17 -43q0 -26 17 -43t41 -17z" />
    <glyph glyph-name="uni2087" unicode="&#x2087;" horiz-adv-x="346" 
d="M33 296h296v-27l-181 -389h-108l156 326h-163v90z" />
    <glyph glyph-name="uni2088" unicode="&#x2088;" horiz-adv-x="388" 
d="M278 95q75 -33 75 -102q0 -56 -44 -89q-46 -32 -115 -32q-70 0 -114 32q-45 33 -45 89q0 70 74 102q-56 38 -56 96q0 53 40 83q39 30 101 30t102 -30q39 -30 39 -83q0 -60 -57 -96zM194 224q-22 0 -35 -10q-14 -11 -14 -28q0 -16 12 -26q9 -9 37 -24q49 22 49 50
q0 17 -14 28q-13 10 -35 10zM194 -47q28 0 45 12q15 12 15 32q0 35 -60 57q-61 -22 -61 -57q0 -20 16 -32q15 -12 45 -12z" />
    <glyph glyph-name="uni2089" unicode="&#x2089;" horiz-adv-x="374" 
d="M187 304q64 0 110 -43t46 -111q0 -34 -13 -61q-13 -28 -43 -68l-104 -141h-117l94 128q-50 3 -91 44q-39 41 -39 100q0 65 47 109q46 43 110 43zM187 92q24 0 41 17q17 19 17 43q0 26 -17 43t-41 17t-41 -17t-17 -43q0 -25 17 -42q16 -18 41 -18z" />
    <glyph glyph-name="uni208A" unicode="&#x208a;" horiz-adv-x="427" 
d="M262 265v-134h131v-87h-131v-135h-97v135h-131v87h131v134h97z" />
    <glyph glyph-name="uni208B" unicode="&#x208b;" horiz-adv-x="426" 
d="M393 130v-85h-359v85h359z" />
    <glyph glyph-name="uni208C" unicode="&#x208c;" horiz-adv-x="427" 
d="M42 126v87h343v-87h-343zM42 -38v88h343v-88h-343z" />
    <glyph glyph-name="uni208D" unicode="&#x208d;" horiz-adv-x="275" 
d="M216 418l40 -60q-118 -79 -118 -271q0 -195 118 -271l-40 -60q-165 86 -165 331q0 134 46 216t119 115z" />
    <glyph glyph-name="uni208E" unicode="&#x208e;" horiz-adv-x="275" 
d="M59 418q74 -33 120 -115t46 -216t-46 -216t-120 -115l-40 60q118 76 118 271q0 193 -118 271z" />
    <glyph glyph-name="Euro" unicode="&#x20ac;" horiz-adv-x="676" 
d="M399 113q93 0 144 72l94 -73q-34 -57 -97 -91q-65 -33 -145 -33q-108 0 -184 58q-79 59 -110 156h-99v96h80q-1 7 -1 33q0 21 1 27h-79v96h96q32 101 110 159q79 59 186 59q80 0 145 -33q63 -34 97 -91l-94 -73q-51 72 -144 72q-105 0 -152 -93h235l-26 -96h-235
q-2 -24 -2 -28q0 -6 2 -32h217l-26 -96h-163q48 -89 150 -89z" />
    <glyph glyph-name="uni2105" unicode="&#x2105;" horiz-adv-x="832" 
d="M212 672q98 0 140 -83l-73 -52q-27 40 -66 40q-31 0 -47 -19q-18 -20 -18 -50q0 -32 18 -51q16 -19 47 -19q39 0 66 40l73 -52q-42 -83 -140 -83q-71 0 -121 47q-49 48 -49 118t50 117t120 47zM660 660l-381 -660h-108l379 660h110zM620 317q71 0 121 -47q49 -46 49 -117
q0 -70 -50 -118q-50 -47 -120 -47q-71 0 -121 47q-50 48 -50 118t50 117t121 47zM620 222q-30 0 -48 -19t-18 -51q0 -30 18 -49t48 -19q29 0 47 19q18 20 18 49q0 32 -18 51t-47 19z" />
    <glyph glyph-name="uni2113" unicode="&#x2113;" horiz-adv-x="496" 
d="M244 198q0 -89 93 -89q28 0 98 10v-113q-67 -18 -124 -18q-180 0 -200 161l-53 -35l-60 105l111 76v250q0 109 50 164q51 53 139 53q167 0 167 -175q0 -94 -52 -174q-51 -79 -169 -171v-44zM244 551v-153q58 51 80 92q25 43 25 91q0 67 -46 67q-59 0 -59 -97z" />
    <glyph glyph-name="uni2116" unicode="&#x2116;" horiz-adv-x="1123" 
d="M503 267v393h135v-672h-45l-382 408v-396h-135v672h44zM914 236q-72 0 -121 48q-49 46 -49 117q0 70 50 117t120 47t120 -47q50 -48 50 -117q0 -70 -50 -117q-50 -48 -120 -48zM914 472q-29 0 -49 -20q-19 -19 -19 -51t19 -51q20 -20 49 -20t49 20q19 19 19 51t-19 51
q-20 20 -49 20zM752 84v85h325v-85h-325z" />
    <glyph glyph-name="uni2117" unicode="&#x2117;" horiz-adv-x="778" 
d="M388 672q144 0 248 -99t104 -243t-104 -243t-248 -99t-247 99q-103 97 -103 242t104 244t246 99zM388 592q-109 0 -185 -73q-77 -74 -77 -190q0 -117 77 -189t185 -72q107 0 186 73q78 72 78 188q0 117 -78 190q-79 73 -186 73zM415 504q61 0 101 -33q40 -34 40 -90
t-40 -89q-40 -34 -101 -34h-54v-104h-91v350h145zM415 425h-54v-87h54q21 0 35 12q13 10 13 31q0 20 -13 32q-14 12 -35 12z" />
    <glyph glyph-name="trademark" unicode="&#x2122;" horiz-adv-x="984" 
d="M915 668v-457h-112v202l-97 -122h-36l-96 122v-202h-113v457h37l191 -237l191 237h35zM397 660v-101h-137v-348h-112v348h-137v101h386z" />
    <glyph glyph-name="uni2126" unicode="&#x2126;" horiz-adv-x="788" 
d="M745 347q0 -133 -117 -225h107v-122h-284v122q155 74 155 218q0 92 -60 150q-60 57 -153 57q-92 0 -151 -57q-60 -55 -60 -148q0 -146 155 -220v-122h-284v122h101q-111 92 -111 225q0 137 102 231q101 94 248 94q146 0 249 -94t103 -231z" />
    <glyph glyph-name="estimated" unicode="&#x212e;" horiz-adv-x="795" 
d="M731 327h-544v-198q75 -104 219 -104q77 0 144 32q65 31 111 85l26 -23q-49 -60 -122 -94q-75 -35 -158 -35q-148 0 -248 98q-99 98 -99 238q0 143 101 244q101 100 241 100q81 0 157 -35q75 -34 126 -103q50 -68 50 -151zM407 634q-140 0 -220 -104v-168h421v183
q-75 89 -201 89z" />
    <glyph glyph-name="uni2150" unicode="&#x2150;" horiz-adv-x="967" 
d="M332 334v-90h-290v90h103v236h-94v90h195v-326h86zM631 660h109l-380 -660h-109zM654 416h296v-27l-181 -389h-108l156 326h-163v90z" />
    <glyph glyph-name="uni2151" unicode="&#x2151;" horiz-adv-x="965" 
d="M332 334v-90h-290v90h103v236h-94v90h195v-326h86zM631 660h109l-380 -660h-109zM778 424q64 0 110 -43t46 -111q0 -34 -13 -61q-13 -28 -43 -68l-104 -141h-117l94 128q-50 3 -90 44q-40 40 -40 100q0 65 47 109q46 43 110 43zM778 212q24 0 41 17q17 19 17 43
q0 26 -17 43t-41 17t-41 -17t-17 -43q0 -25 17 -42q17 -18 41 -18z" />
    <glyph glyph-name="uni2152" unicode="&#x2152;" horiz-adv-x="1413" 
d="M246 660v-326h86v-90h-290v90h103v236h-94v90h195zM740 660l-380 -660h-109l380 660h109zM1202 424q82 0 126 -59t44 -154t-44 -157t-126 -62q-81 0 -125 62q-43 61 -43 157q0 95 43 154q44 59 125 59zM867 416v-326h86v-90h-290v90h103v236h-94v90h195zM1202 332
q-66 0 -66 -122q0 -126 66 -126q67 0 67 126q0 122 -67 122z" />
    <glyph glyph-name="uni2153" unicode="&#x2153;" horiz-adv-x="981" 
d="M332 334v-90h-290v90h103v236h-94v90h195v-326h86zM631 660h109l-380 -660h-109zM856 264q39 -14 65 -46q26 -34 26 -80q0 -64 -46 -104q-47 -42 -114 -42q-53 0 -93 27q-41 26 -62 71l69 49q37 -55 83 -55q26 0 43 15q17 14 17 39q0 48 -76 48h-48v25l78 115h-133v90
h275v-27z" />
    <glyph glyph-name="uni2154" unicode="&#x2154;" horiz-adv-x="996" 
d="M346 334v-90l-313 -1v21l149 162q52 58 52 97q0 25 -13 38q-14 15 -35 15q-22 0 -36 -15q-13 -13 -13 -40q0 -1 0.5 -5t1 -10.5t0.5 -13.5h-99q-4 15 -4 35q0 55 42 99q42 42 109 42q63 0 107 -38q43 -39 43 -98q0 -44 -22 -79q-22 -36 -69 -85l-32 -34h132zM646 660h109
l-380 -660h-109zM871 264q39 -14 65 -46q26 -34 26 -80q0 -63 -46 -105q-47 -41 -114 -41q-52 0 -93 26q-41 27 -62 72l69 49q37 -55 83 -55q26 0 43 14q17 15 17 40q0 48 -76 48h-48v25l78 115h-133v90h275v-27z" />
    <glyph glyph-name="uni2155" unicode="&#x2155;" horiz-adv-x="984" 
d="M332 334v-90h-290v90h103v236h-94v90h195v-326h86zM631 660h109l-380 -660h-109zM809 272q56 0 99 -35q42 -36 42 -97q0 -65 -47 -106q-47 -42 -117 -42q-54 0 -95 26q-41 27 -63 72l70 49q34 -55 84 -55q28 0 47 14q18 14 18 39q0 49 -76 49h-98v230h252v-90h-156v-59
q25 5 40 5z" />
    <glyph glyph-name="uni2156" unicode="&#x2156;" horiz-adv-x="998" 
d="M346 334v-90l-313 -1v21l149 162q52 58 52 97q0 25 -13 38q-14 15 -35 15q-22 0 -36 -15q-13 -13 -13 -40q0 -1 0.5 -5t1 -10.5t0.5 -13.5h-99q-4 15 -4 35q0 55 42 99q42 42 109 42q63 0 107 -38q43 -39 43 -98q0 -44 -22 -79q-22 -36 -69 -85l-32 -34h132zM646 660h109
l-380 -660h-109zM824 272q57 0 99 -36q42 -34 42 -96q0 -65 -47 -107q-47 -41 -117 -41q-54 0 -95 26q-40 27 -63 72l70 49q34 -55 84 -55q28 0 47 14q18 14 18 39q0 49 -76 49h-98v230h252v-90h-156v-59q25 5 40 5z" />
    <glyph glyph-name="uni2157" unicode="&#x2157;" horiz-adv-x="938" 
d="M326 382q0 -64 -46 -104q-46 -42 -114 -42q-52 0 -93 27q-41 26 -62 71l69 49q37 -55 83 -55q27 0 43 15q17 14 17 39q0 48 -76 48h-48v25l78 115h-133v90h275v-27l-85 -125q38 -12 65 -45t27 -81zM586 660h109l-380 -660h-109zM764 272q56 0 99 -35q42 -36 42 -97
q0 -65 -47 -106q-46 -42 -117 -42q-54 0 -95 26q-40 27 -63 72l70 49q34 -55 84 -55q28 0 47 14q18 14 18 39q0 49 -76 49h-98v230h252v-90h-156v-59q25 5 40 5z" />
    <glyph glyph-name="uni2158" unicode="&#x2158;" horiz-adv-x="998" 
d="M315 244h-91v64h-212v26l124 326h103l-104 -270h89v109h91v-109h50v-82h-50v-64zM646 660h109l-380 -660h-109zM824 272q56 0 99 -35q42 -36 42 -97q0 -65 -47 -106q-46 -42 -117 -42q-54 0 -95 26q-40 27 -63 72l70 49q34 -55 84 -55q28 0 47 14q18 14 18 39
q0 49 -76 49h-98v230h252v-90h-156v-59q25 5 40 5z" />
    <glyph glyph-name="uni2159" unicode="&#x2159;" horiz-adv-x="915" 
d="M332 334v-90h-290v90h103v236h-94v90h195v-326h86zM631 660h109l-380 -660h-109zM755 288q49 -3 90 -44q40 -40 40 -100q0 -65 -47 -109q-46 -43 -110 -43t-110 43q-47 44 -47 111q0 32 14 62q14 29 43 67l103 141h118zM728 84q24 0 41 17t17 43q0 25 -17 42
q-16 18 -41 18q-24 0 -41 -18q-17 -17 -17 -42q0 -26 17 -43t41 -17z" />
    <glyph glyph-name="uni215A" unicode="&#x215a;" horiz-adv-x="880" 
d="M337 384q0 -65 -47 -106q-46 -42 -117 -42q-55 0 -95 27q-40 25 -63 71l70 49q34 -55 84 -55q28 0 47 14q18 14 18 39q0 49 -76 49h-98v230h252v-90h-156v-59q25 5 40 5q56 0 99 -35q42 -36 42 -97zM596 660h109l-380 -660h-109zM720 288q49 -3 90 -44q40 -40 40 -100
q0 -65 -47 -109q-46 -43 -110 -43t-110 43q-47 44 -47 111q0 32 14 62q14 29 43 67l103 141h118zM693 84q24 0 41 17t17 43q0 25 -17 42q-16 18 -41 18t-41 -18q-17 -17 -17 -42q0 -26 17 -43t41 -17z" />
    <glyph glyph-name="oneeighth" unicode="&#x215b;" horiz-adv-x="964" 
d="M332 334v-90h-290v90h103v236h-94v90h195v-326h86zM631 660h109l-380 -660h-109zM854 215q75 -33 75 -102q0 -56 -45 -88q-44 -33 -114 -33t-115 33q-44 32 -44 88q0 70 74 102q-56 38 -56 96q0 53 39 83q40 30 102 30t102 -30q39 -30 39 -83q0 -60 -57 -96zM770 344
q-22 0 -35 -10q-14 -11 -14 -28q0 -15 11 -26q11 -10 38 -24q49 22 49 50q0 17 -14 28q-13 10 -35 10zM770 73q29 0 44 12q16 12 16 32q0 35 -60 57q-61 -22 -61 -57q0 -20 15 -32q16 -12 46 -12z" />
    <glyph glyph-name="threeeighths" unicode="&#x215c;" horiz-adv-x="919" 
d="M326 382q0 -64 -46 -104q-46 -42 -114 -42q-52 0 -93 27q-41 26 -62 71l69 49q37 -55 83 -55q27 0 43 15q17 14 17 39q0 48 -76 48h-48v25l78 115h-133v90h275v-27l-85 -125q38 -12 65 -45t27 -81zM586 660h109l-380 -660h-109zM809 215q75 -33 75 -102q0 -56 -45 -88
q-43 -33 -114 -33q-70 0 -115 33q-44 32 -44 88q0 70 74 102q-56 38 -56 96q0 53 39 83q41 30 102 30t102 -30q39 -30 39 -83q0 -60 -57 -96zM725 344q-22 0 -35 -10q-14 -11 -14 -28q0 -15 11 -26q11 -10 38 -24q49 22 49 50q0 17 -14 28q-13 10 -35 10zM725 73q29 0 44 12
q16 12 16 32q0 35 -60 57q-61 -22 -61 -57q0 -20 15 -32q16 -12 46 -12z" />
    <glyph glyph-name="fiveeighths" unicode="&#x215d;" horiz-adv-x="929" 
d="M337 384q0 -65 -47 -106q-46 -42 -117 -42q-55 0 -95 27q-40 25 -63 71l70 49q34 -55 84 -55q28 0 47 14q18 14 18 39q0 49 -76 49h-98v230h252v-90h-156v-59q25 5 40 5q56 0 99 -35q42 -36 42 -97zM596 660h109l-380 -660h-109zM819 215q75 -33 75 -102q0 -56 -45 -88
q-43 -33 -114 -33q-70 0 -115 33q-44 32 -44 88q0 70 74 102q-56 38 -56 96q0 53 39 83q41 30 102 30t102 -30q39 -30 39 -83q0 -60 -57 -96zM735 344q-22 0 -35 -10q-14 -11 -14 -28q0 -15 11 -26q11 -10 38 -24q49 22 49 50q0 17 -14 28q-13 10 -35 10zM735 73q29 0 44 12
q16 12 16 32q0 35 -60 57q-61 -22 -61 -57q0 -20 15 -32q17 -12 46 -12z" />
    <glyph glyph-name="seveneighths" unicode="&#x215e;" horiz-adv-x="842" 
d="M148 244h-108l156 326h-163v90h296v-27zM509 660h109l-380 -660h-109zM732 215q75 -33 75 -102q0 -56 -45 -88q-44 -33 -114 -33t-115 33q-44 32 -44 88q0 70 74 102q-56 38 -56 96q0 53 39 83q40 30 102 30t102 -30q39 -30 39 -83q0 -60 -57 -96zM648 344q-22 0 -35 -10
q-14 -11 -14 -28q0 -15 11 -26q11 -10 38 -24q49 22 49 50q0 17 -14 28q-13 10 -35 10zM648 73q29 0 44 12q16 12 16 32q0 35 -60 57q-61 -22 -61 -57q0 -20 15 -32q16 -12 46 -12z" />
    <glyph glyph-name="arrowleft" unicode="&#x2190;" horiz-adv-x="650" 
d="M605 264h-306l-68 3l159 -159l-79 -79l-279 278v26l279 279l79 -80l-157 -157l66 3h306v-114z" />
    <glyph glyph-name="arrowup" unicode="&#x2191;" horiz-adv-x="650" 
d="M616 324l-80 -80l-153 153l3 -64v-293h-122v293l2 64l-152 -153l-80 80l278 278h26z" />
    <glyph glyph-name="arrowright" unicode="&#x2192;" horiz-adv-x="650" 
d="M339 612l279 -279v-26l-279 -278l-79 79l159 159l-68 -3h-306v114h306l66 -3l-157 157z" />
    <glyph glyph-name="arrowdown" unicode="&#x2193;" horiz-adv-x="650" 
d="M536 397l80 -79l-278 -279h-26l-278 279l80 79l152 -153l-2 64v294h122v-294l-3 -64z" />
    <glyph glyph-name="arrowboth" unicode="&#x2194;" horiz-adv-x="946" 
d="M635 612l278 -279v-26l-278 -278l-79 79l158 159l-68 -3h-95h-132h-120l-68 3l159 -159l-79 -79l-279 278v26l279 279l79 -80l-157 -157l66 3h347l66 -3l-156 157z" />
    <glyph glyph-name="arrowupdn" unicode="&#x2195;" horiz-adv-x="642" 
d="M380 133l148 148l80 -79l-274 -275h-26l-274 275l80 79l149 -149l-3 64v268l3 64l-149 -149l-80 79l274 275h26l274 -275l-80 -79l-148 148l2 -63v-268z" />
    <glyph glyph-name="uni2196" unicode="&#x2196;" horiz-adv-x="650" 
d="M344 374l237 -237l-83 -83l-236 236l-39 43v-231h-117v410l18 18h404v-113h-231z" />
    <glyph glyph-name="uni2197" unicode="&#x2197;" horiz-adv-x="650" 
d="M526 530l18 -18v-410h-117v231l-39 -43l-236 -236l-83 83l237 237l47 43h-231v113h404z" />
    <glyph glyph-name="uni2198" unicode="&#x2198;" horiz-adv-x="650" 
d="M427 520h117v-410l-18 -19h-404v114h231l-47 43l-237 237l83 83l236 -236l39 -43v231z" />
    <glyph glyph-name="uni2199" unicode="&#x2199;" horiz-adv-x="650" 
d="M344 248l-47 -43h231v-114h-404l-18 19v410h117v-231l39 43l236 236l83 -83z" />
    <glyph glyph-name="partialdiff" unicode="&#x2202;" horiz-adv-x="614" 
d="M316 672q119 0 188 -82t69 -227q0 -163 -85 -269t-219 -106q-93 0 -158 54q-64 54 -64 150t67 156q68 60 182 60q66 0 138 -21q-7 163 -124 163q-70 0 -126 -69l-85 72q72 119 217 119zM279 106q54 0 94 43q42 45 55 125q-76 17 -125 17q-61 0 -90 -26q-29 -27 -29 -68
q0 -39 26 -65t69 -26z" />
    <glyph glyph-name="uni2206" unicode="&#x2206;" horiz-adv-x="661" 
d="M353 672l294 -672h-634l295 672h45zM450 122l-119 278l-120 -278h239z" />
    <glyph glyph-name="product" unicode="&#x220f;" horiz-adv-x="701" 
d="M625 660v-781h-135v659h-279v-659h-135v781h549z" />
    <glyph glyph-name="summation" unicode="&#x2211;" horiz-adv-x="570" 
d="M242 1h287v-122h-494v30l210 371l-210 350v30h482v-122h-272l147 -242v-30z" />
    <glyph glyph-name="minus" unicode="&#x2212;" 
d="M515 378v-115h-471v115h471z" />
    <glyph glyph-name="uni2219" unicode="&#x2219;" horiz-adv-x="270" 
d="M136 413q39 0 66 -27q26 -28 26 -66q0 -40 -26 -66q-26 -27 -66 -27t-67 27q-27 26 -27 66q0 39 27 66t67 27z" />
    <glyph glyph-name="radical" unicode="&#x221a;" horiz-adv-x="734" 
d="M609 750h122l-513 -883h-44v309h-164v108h273v-95z" />
    <glyph glyph-name="infinity" unicode="&#x221e;" horiz-adv-x="877" 
d="M651 518q94 0 151 -58t57 -141q0 -81 -56 -140q-57 -58 -150 -58q-69 0 -118 30q-53 34 -97 85q-44 -51 -97 -85q-51 -30 -118 -30q-94 0 -149 58q-56 59 -56 140q0 82 56 141q55 58 150 58q68 0 117 -30q51 -31 97 -83q46 52 97 83q49 30 116 30zM239 240q60 0 129 81
q-69 78 -130 78q-39 0 -64 -20q-25 -21 -25 -58t25 -59q23 -22 65 -22zM639 240q40 0 65 22q24 22 24 59t-24 58q-26 20 -66 20q-62 0 -129 -78q69 -81 130 -81z" />
    <glyph glyph-name="integral" unicode="&#x222b;" horiz-adv-x="359" 
d="M276 790q45 0 81 -10v-113q-12 0 -24 0.5t-18 1t-8 0.5q-92 0 -92 -98q0 -47 34 -245q33 -201 33 -265q0 -95 -52 -144q-52 -48 -146 -48q-46 0 -82 10v113q12 0 24 -0.5t18 -1t8 -0.5q92 0 92 98q0 46 -33 247q-34 198 -34 263q0 94 53 144q53 48 146 48z" />
    <glyph glyph-name="approxequal" unicode="&#x2248;" 
d="M151 546q41 0 85 -26l88 -53q38 -23 55 -23q16 0 25 11t9 28v16h102q3 -15 3 -34q0 -62 -35 -103q-34 -40 -86 -40q-38 0 -85 26l-88 54q-37 23 -55 23q-33 0 -33 -39v-16h-103q-2 26 -2 34q0 61 35 102q34 40 85 40zM151 317q41 0 85 -26l88 -53q38 -23 55 -23
q16 0 25 11q9 10 9 28v16h102q3 -15 3 -34q0 -62 -35 -103q-34 -40 -86 -40q-38 0 -85 26l-88 54q-40 23 -55 23q-33 0 -33 -39v-16h-103q-2 24 -2 34q0 61 35 102q34 40 85 40z" />
    <glyph glyph-name="notequal" unicode="&#x2260;" 
d="M506 371h-135l-61 -101h196v-114h-265l-60 -100h-118l60 100h-68v114h137l61 101h-198v114h267l59 98h118l-59 -98h66v-114z" />
    <glyph glyph-name="lessequal" unicode="&#x2264;" 
d="M501 560v-116l-230 -83l230 -83v-116l-464 181v36zM49 0v108h452v-108h-452z" />
    <glyph glyph-name="greaterequal" unicode="&#x2265;" 
d="M58 560l464 -181v-36l-464 -181v116l230 83l-230 83v116zM58 0v108h451v-108h-451z" />
    <glyph glyph-name="uni24EA" unicode="&#x24ea;" horiz-adv-x="971" 
d="M485 762q179 0 306 -126q126 -128 126 -306t-126 -306q-127 -126 -306 -126t-305 126q-126 128 -126 306t126 306q126 126 305 126zM485 660q-137 0 -231 -94q-95 -95 -95 -236t95 -236q94 -94 231 -94q138 0 233 95q94 94 94 235q0 142 -94 236t-233 94zM485 562
q91 0 137 -63q47 -65 47 -166q0 -102 -47 -169q-48 -67 -137 -67q-90 0 -136 67q-47 67 -47 169q0 101 47 166q46 63 136 63zM485 462q-71 0 -71 -130q0 -135 71 -135q73 0 73 135q0 130 -73 130z" />
    <glyph glyph-name="uni24FF" unicode="&#x24ff;" horiz-adv-x="971" 
d="M485 762q179 0 306 -126q126 -128 126 -306t-126 -306q-127 -126 -306 -126t-305 126q-126 128 -126 306t126 306q126 126 305 126zM485 562q-90 0 -136 -63q-48 -65 -48 -166q0 -103 48 -169q46 -67 136 -67t138 67q47 67 47 169q0 101 -47 166q-48 63 -138 63zM485 460
q72 0 72 -128q0 -133 -72 -133q-70 0 -70 133q0 128 70 128z" />
    <glyph glyph-name="filledbox" unicode="&#x25a0;" horiz-adv-x="730" 
d="M640 605v-550h-550v550h550z" />
    <glyph glyph-name="uni25A1" unicode="&#x25a1;" horiz-adv-x="730" 
d="M640 605v-550h-550v550h550zM523 493h-316v-326h316v326z" />
    <glyph glyph-name="uni25AA" unicode="&#x25aa;" horiz-adv-x="541" 
d="M461 438v-380h-381v380h381z" />
    <glyph glyph-name="uni25AB" unicode="&#x25ab;" horiz-adv-x="541" 
d="M461 438v-380h-381v380h381zM352 332h-163v-169h163v169z" />
    <glyph glyph-name="triagup" unicode="&#x25b2;" horiz-adv-x="730" 
d="M374 660l336 -589l-9 -16h-672l-9 16l336 589h18z" />
    <glyph glyph-name="uni25B3" unicode="&#x25b3;" horiz-adv-x="730" 
d="M374 660l336 -589l-9 -16h-672l-9 16l336 589h18zM521 170l-156 273l-155 -273h311z" />
    <glyph glyph-name="uni25B4" unicode="&#x25b4;" horiz-adv-x="528" 
d="M273 477l230 -403l-9 -16h-460l-9 16l230 403h18z" />
    <glyph glyph-name="uni25B5" unicode="&#x25b5;" horiz-adv-x="528" 
d="M273 477l230 -403l-9 -16h-460l-9 16l230 403h18zM352 145l-88 154l-87 -154h175z" />
    <glyph glyph-name="uni25B6" unicode="&#x25b6;" horiz-adv-x="645" 
d="M106 672l516 -333v-18l-516 -333l-16 9v666z" />
    <glyph glyph-name="uni25B7" unicode="&#x25b7;" horiz-adv-x="645" 
d="M106 672l516 -333v-18l-516 -333l-16 9v666zM425 330l-218 140v-280z" />
    <glyph glyph-name="uni25B8" unicode="&#x25b8;" horiz-adv-x="480" 
d="M96 484l353 -227v-18l-353 -226l-16 8v454z" />
    <glyph glyph-name="uni25B9" unicode="&#x25b9;" horiz-adv-x="480" 
d="M96 484l353 -227v-18l-353 -226l-16 8v454zM293 248l-123 79v-157z" />
    <glyph glyph-name="triagrt" unicode="&#x25ba;" horiz-adv-x="961" 
d="M106 672l825 -333v-18l-825 -333l-16 9v666z" />
    <glyph glyph-name="uni25BB" unicode="&#x25bb;" horiz-adv-x="961" 
d="M106 672l825 -333v-18l-825 -333l-16 9v666zM644 330l-437 177v-354z" />
    <glyph glyph-name="triagdn" unicode="&#x25bc;" horiz-adv-x="730" 
d="M374 0h-18l-336 589l9 16h672l9 -16z" />
    <glyph glyph-name="uni25BD" unicode="&#x25bd;" horiz-adv-x="730" 
d="M701 605l9 -16l-336 -589h-18l-336 589l9 16h672zM521 490h-311l155 -273z" />
    <glyph glyph-name="uni25BE" unicode="&#x25be;" horiz-adv-x="528" 
d="M494 438l9 -16l-230 -403h-18l-230 403l9 16h460z" />
    <glyph glyph-name="uni25BF" unicode="&#x25bf;" horiz-adv-x="528" 
d="M494 438l9 -16l-230 -403h-18l-230 403l9 16h460zM352 350h-175l87 -154z" />
    <glyph glyph-name="uni25C0" unicode="&#x25c0;" horiz-adv-x="645" 
d="M539 672l16 -9v-666l-16 -9l-516 333v18z" />
    <glyph glyph-name="uni25C1" unicode="&#x25c1;" horiz-adv-x="682" 
d="M576 672l16 -9v-666l-16 -9l-516 333v18zM475 470l-218 -140l218 -141v281z" />
    <glyph glyph-name="uni25C2" unicode="&#x25c2;" horiz-adv-x="480" 
d="M384 484l16 -9v-454l-16 -8l-353 226v18z" />
    <glyph glyph-name="uni25C3" unicode="&#x25c3;" horiz-adv-x="480" 
d="M384 484l16 -9v-454l-16 -8l-353 226v18zM310 170v157l-123 -79z" />
    <glyph glyph-name="triaglf" unicode="&#x25c4;" horiz-adv-x="961" 
d="M855 672l16 -9v-666l-16 -9l-825 333v18z" />
    <glyph glyph-name="uni25C5" unicode="&#x25c5;" horiz-adv-x="961" 
d="M855 672l16 -9v-666l-16 -9l-825 333v18zM754 507l-437 -177l437 -177v354z" />
    <glyph glyph-name="lozenge" unicode="&#x25ca;" horiz-adv-x="665" 
d="M355 672l213 -342l-213 -342h-45l-213 342l213 342h45zM232 330l104 -163l99 163l-102 162z" />
    <glyph glyph-name="circle" unicode="&#x25cb;" horiz-adv-x="775" 
d="M389 659q134 0 231 -97t97 -231q0 -136 -97 -233q-98 -98 -231 -98q-135 0 -233 98t-98 232t98 232q97 97 233 97zM389 546q-91 0 -152 -63q-63 -63 -63 -153t63 -154q61 -63 151 -63q89 0 151 63q62 65 62 155q0 91 -61 152q-63 63 -151 63z" />
    <glyph glyph-name="uni25CF" unicode="&#x25cf;" horiz-adv-x="775" 
d="M389 659q134 0 231 -97t97 -231q0 -136 -97 -233q-98 -98 -231 -98q-135 0 -233 98t-98 232t98 232q97 97 233 97z" />
    <glyph glyph-name="uni261C" unicode="&#x261c;" horiz-adv-x="1212" 
d="M1190 285v-39l-89 -73l52 -178l-35 -24l-232 146q-207 -105 -358 -105q-120 0 -120 74q0 23 14 37q-46 15 -46 58q0 30 24 48q-35 17 -35 53q0 20 11 34l-182 2q-82 1 -122 26q-39 26 -39 78q0 59 46 78q47 21 148 21q76 0 163 -9q1 46 32 72q28 25 68 25q41 0 81 -25
l247 -152q29 -8 64 -21l236 149l35 -23l-51 -179zM513 528q-22 0 -27 -26q60 -7 115 -18l-61 35q-20 9 -27 9zM511 87q56 0 161 29q100 28 183 74v148q-116 48 -297 76q-188 29 -374 29q-33 0 -48 -5q-14 -5 -14 -18q0 -14 12 -18q15 -6 42 -7l105 -2q184 -3 287 -10v-69
l-109 1q-15 0 -15 -13q0 -15 14 -15h122v-68h-110q-14 0 -14 -14t14 -14h120v-69q-44 -6 -79 -6h-8q-15 0 -15 -14q0 -15 23 -15zM940 355v-179l101 -62l-29 94l75 58l-75 57l29 94z" />
    <glyph glyph-name="uni261E" unicode="&#x261e;" horiz-adv-x="1212" 
d="M996 521q100 0 148 -20q46 -21 46 -79q0 -53 -39 -77q-39 -25 -122 -27l-182 -2q11 -14 11 -34q0 -36 -36 -53q25 -18 25 -48q0 -43 -46 -58q14 -17 14 -37q0 -34 -30 -54q-29 -20 -90 -20q-151 0 -359 105l-231 -146l-35 24l51 178l-88 73v39l88 73l-51 179l35 23
l236 -149q19 7 63 21l248 152q38 25 81 25q40 0 69 -25q30 -26 31 -72q87 9 163 9zM683 519l-61 -35q60 11 115 18q-5 26 -27 26q-8 0 -27 -9zM1047 395q27 1 42 7q11 5 11 18q0 14 -13 18q-15 5 -48 5q-187 0 -375 -29q-181 -28 -297 -76v-148q85 -46 184 -74
q105 -29 161 -29q22 0 22 15q0 14 -14 14h-8q-34 0 -80 6v69h121q13 0 13 14t-13 14h-110v68h122q13 0 13 15q0 13 -14 13l-110 -1v69q105 7 287 10zM283 176v179l-101 62l28 -94l-75 -57l75 -58l-28 -94z" />
    <glyph glyph-name="uni2661" unicode="&#x2661;" horiz-adv-x="860" 
d="M614 672q82 0 137 -55q56 -56 56 -141q0 -50 -24 -94q-24 -45 -83 -110l-260 -284h-20l-260 284q-61 65 -84 109q-24 45 -24 95q0 85 56 141q55 55 137 55q64 0 114 -35q48 -35 71 -93q23 58 71 93q50 35 113 35zM599 340q26 29 34 41q10 13 22 38q11 24 11 45
q0 37 -22 59q-23 21 -56 21q-46 0 -78 -42q-32 -44 -45 -109h-69q-13 65 -45 109q-31 42 -79 42q-34 0 -56 -21q-23 -23 -23 -59q0 -30 17 -58q16 -28 51 -66l169 -190z" />
    <glyph glyph-name="heart" unicode="&#x2665;" horiz-adv-x="860" 
d="M614 672q82 0 137 -55q56 -56 56 -141q0 -50 -24 -94q-24 -45 -83 -110l-260 -284h-20l-260 284q-61 65 -84 109q-24 45 -24 95q0 85 56 141q55 55 137 55q64 0 114 -35q48 -35 71 -93q23 58 71 93q50 35 113 35z" />
    <glyph glyph-name="uni275B" unicode="&#x275b;" horiz-adv-x="635" 
d="M378 425q90 0 154 -64t64 -155t-63 -154q-65 -63 -171 -63q-136 0 -230 97t-94 240q0 145 97 245q98 99 245 99q117 0 205 -70l-54 -86q-65 50 -145 50q-99 0 -165 -67t-66 -170q0 -38 10 -74q16 73 77 123q58 49 136 49z" />
    <glyph glyph-name="uni275C" unicode="&#x275c;" horiz-adv-x="635" 
d="M273 671q135 0 229 -97t94 -240q0 -144 -96 -245q-98 -99 -245 -99q-117 0 -205 70l54 86q65 -50 145 -50q99 0 165 67t66 170q0 38 -10 74q-16 -72 -76 -123q-59 -49 -138 -49q-90 0 -154 64t-64 155t64 154t171 63z" />
    <glyph glyph-name="uni275D" unicode="&#x275d;" horiz-adv-x="1249" 
d="M378 425q90 0 154 -64t64 -155t-63 -154q-65 -63 -171 -63q-136 0 -230 97t-94 240q0 145 97 245q98 99 245 99q117 0 205 -70l-54 -86q-65 50 -145 50q-99 0 -165 -67t-66 -170q0 -38 10 -74q16 73 77 123q58 49 136 49zM992 425q90 0 154 -64t64 -155t-64 -154
q-63 -63 -170 -63q-135 0 -229 97q-95 98 -95 240q0 145 97 245q97 99 245 99q117 0 205 -70l-54 -86q-65 50 -145 50q-99 0 -165 -67t-66 -170q0 -37 10 -73q16 73 77 123q58 48 136 48z" />
    <glyph glyph-name="uni275E" unicode="&#x275e;" horiz-adv-x="1255" 
d="M273 671q135 0 229 -97t94 -240q0 -144 -96 -245q-98 -99 -245 -99q-117 0 -205 70l54 86q65 -50 145 -50q99 0 165 67t66 170q0 38 -10 74q-16 -72 -76 -123q-59 -49 -138 -49q-90 0 -154 64t-64 155t64 154t171 63zM893 671q135 0 229 -97t94 -240q0 -144 -96 -245
q-98 -99 -245 -99q-117 0 -205 70l54 86q65 -50 145 -50q99 0 165 67t66 170q0 36 -11 75q-16 -74 -75 -124q-59 -49 -138 -49q-90 0 -154 64t-64 155t64 154t171 63z" />
    <glyph glyph-name="uni2776" unicode="&#x2776;" horiz-adv-x="971" 
d="M485 762q179 0 306 -126q126 -128 126 -306t-126 -306q-127 -126 -306 -126t-305 126q-126 128 -126 306t126 306q126 126 305 126zM545 554h-197v-93h86v-263h-93v-93h290v93h-86v356z" />
    <glyph glyph-name="uni2777" unicode="&#x2777;" horiz-adv-x="971" 
d="M485 762q179 0 306 -126q126 -128 126 -306t-126 -306q-127 -126 -306 -126t-305 126q-126 128 -126 306t126 306q126 126 305 126zM482 562q-74 0 -120 -46q-47 -47 -47 -108q0 -13 5 -38h101q0 7 -1 14q-2 14 -2 15q0 28 16 44q17 17 43 17q25 0 40 -15t15 -40t-13 -45
q-13 -22 -45 -57l-157 -176v-23h341v94h-149l56 62q38 40 61 77q20 35 20 78q0 64 -46 106q-47 41 -118 41z" />
    <glyph glyph-name="uni2778" unicode="&#x2778;" horiz-adv-x="971" 
d="M485 762q179 0 306 -126q126 -128 126 -306t-126 -306q-127 -126 -306 -126t-305 126q-126 128 -126 306t126 306q126 126 305 126zM640 554h-300v-100h134l-84 -122v-28h62q81 0 81 -51q0 -25 -18 -39q-18 -15 -46 -15q-48 0 -88 58l-77 -54q21 -47 67 -77
q44 -29 102 -29q75 0 124 45q50 44 50 112q0 52 -28 86q-29 35 -73 49l94 136v29z" />
    <glyph glyph-name="uni2779" unicode="&#x2779;" horiz-adv-x="971" 
d="M485 762q179 0 306 -126q126 -128 126 -306t-126 -306q-127 -126 -306 -126t-305 126q-126 128 -126 306t126 306q126 126 305 126zM526 554h-119l-126 -352v-30h225v-67h111v67h53v97h-53v103h-111v-103h-91z" />
    <glyph glyph-name="uni277A" unicode="&#x277a;" horiz-adv-x="971" 
d="M485 762q179 0 306 -126q126 -128 126 -306t-126 -306q-127 -126 -306 -126t-305 126q-126 128 -126 306t126 306q126 126 305 126zM629 554h-275v-250h107q81 0 81 -50q0 -26 -19 -41t-49 -15q-50 0 -91 59l-77 -54q22 -48 68 -77t105 -29q76 0 127 45q50 44 50 113
q0 66 -46 105t-105 39q-28 0 -45 -4v59h169v100z" />
    <glyph glyph-name="uni277B" unicode="&#x277b;" horiz-adv-x="971" 
d="M485 762q179 0 306 -126q126 -128 126 -306t-126 -306q-127 -126 -306 -126t-305 126q-126 128 -126 306t126 306q126 126 305 126zM609 554h-131l-112 -151q-34 -47 -48 -75q-14 -30 -14 -66q0 -71 51 -118q52 -47 120 -47t120 47q52 46 52 117q0 51 -28 88
q-27 38 -69 53q-27 9 -47 8zM475 324q25 0 44 -17q18 -18 18 -45t-18 -45t-44 -18t-44 19q-17 19 -17 45q0 25 18 43t43 18z" />
    <glyph glyph-name="uni277C" unicode="&#x277c;" horiz-adv-x="971" 
d="M485 762q179 0 306 -126q126 -128 126 -306t-126 -306q-127 -126 -306 -126t-305 126q-126 128 -126 306t126 306q126 126 305 126zM657 554h-323v-101h176l-168 -348h121l194 420v29z" />
    <glyph glyph-name="uni277D" unicode="&#x277d;" horiz-adv-x="971" 
d="M485 762q179 0 306 -126q126 -128 126 -306t-126 -306q-127 -126 -306 -126t-305 126q-126 128 -126 306t126 306q126 126 305 126zM486 562q-67 0 -111 -32q-43 -33 -43 -91q0 -63 63 -102q-83 -35 -83 -109q0 -61 49 -95q49 -36 125 -36t125 36q48 35 48 95
q0 76 -81 110q62 38 62 102q0 57 -43 90q-44 32 -111 32zM486 475q23 0 37 -11q14 -12 14 -32q0 -31 -52 -53q-49 21 -49 53q0 20 14 32q14 11 36 11zM485 299q32 -12 49 -26q16 -15 16 -38q0 -24 -16 -37q-17 -14 -48 -14t-48 14q-16 13 -16 38q0 24 16 37q19 15 47 26z
" />
    <glyph glyph-name="uni277E" unicode="&#x277e;" horiz-adv-x="971" 
d="M486 762q179 0 305 -126q126 -128 126 -306t-126 -306q-126 -126 -305 -126t-305 126q-127 127 -127 306t127 306q126 126 305 126zM496 563q-68 0 -120 -47q-52 -46 -52 -117q0 -51 28 -88q27 -38 69 -53q25 -9 47 -8l-106 -144h131l112 151q33 45 48 76q14 30 14 65
q0 72 -51 118q-52 47 -120 47zM496 461q26 0 44 -18q17 -20 17 -46q0 -24 -17 -43q-18 -18 -44 -18t-44 18q-18 16 -18 44q0 27 18 45t44 18z" />
    <glyph glyph-name="uni2780" unicode="&#x2780;" horiz-adv-x="971" 
d="M485 762q179 0 306 -126q126 -128 126 -306t-126 -306q-127 -126 -306 -126t-305 126q-126 128 -126 306t126 306q126 126 305 126zM485 657q-137 0 -230 -93t-93 -234t93 -234t230 -93t231 94q93 93 93 233t-93 234q-94 93 -231 93zM545 554v-356h86v-93h-290v93h93v263
h-86v93h197z" />
    <glyph glyph-name="uni2781" unicode="&#x2781;" horiz-adv-x="971" 
d="M485 762q179 0 306 -126q126 -128 126 -306t-126 -306q-127 -126 -306 -126t-305 126q-126 128 -126 306t126 306q126 126 305 126zM485 657q-137 0 -230 -93t-93 -234t93 -234t230 -93t231 94q93 93 93 233t-93 234q-94 93 -231 93zM482 562q70 0 117 -41
q47 -42 47 -106q0 -43 -21 -78q-20 -36 -60 -77l-56 -62h149v-94h-341v23l157 176q32 35 45 57q13 20 13 45t-15 40t-40 15q-26 0 -43 -17q-16 -16 -16 -44q0 -1 2 -15q1 -7 1 -14h-101q-5 25 -5 38q0 61 47 108q46 46 120 46z" />
    <glyph glyph-name="uni2782" unicode="&#x2782;" horiz-adv-x="971" 
d="M485 762q179 0 306 -126q126 -128 126 -306t-126 -306q-127 -126 -306 -126t-305 126q-126 128 -126 306t126 306q126 126 305 126zM485 657q-137 0 -230 -93t-93 -234t93 -234t230 -93t231 94q93 93 93 233t-93 234q-94 93 -231 93zM640 554v-29l-94 -136q44 -14 73 -49
q28 -34 28 -86q0 -68 -50 -113q-50 -44 -124 -44q-59 0 -102 28q-45 29 -67 78l77 54q40 -58 88 -58q27 0 46 14q18 15 18 40q0 51 -81 51h-62v28l84 122h-134v100h300z" />
    <glyph glyph-name="uni2783" unicode="&#x2783;" horiz-adv-x="971" 
d="M485 762q179 0 306 -126q126 -128 126 -306t-126 -306q-127 -126 -306 -126t-305 126q-126 128 -126 306t126 306q126 126 305 126zM485 657q-137 0 -230 -93t-93 -234t93 -234t230 -93t231 94q93 93 93 233t-93 234q-94 93 -231 93zM526 554l-111 -285h91v103h111v-103
h53v-97h-53v-67h-111v67h-225v30l126 352h119z" />
    <glyph glyph-name="uni2784" unicode="&#x2784;" horiz-adv-x="971" 
d="M485 762q179 0 306 -126q126 -128 126 -306t-126 -306q-127 -126 -306 -126t-305 126q-126 128 -126 306t126 306q126 126 305 126zM485 657q-137 0 -230 -93t-93 -234t93 -234t230 -93t231 94q93 93 93 233t-93 234q-94 93 -231 93zM630 554v-100h-169v-59q17 4 45 4
q58 0 105 -39q46 -39 46 -105q0 -69 -51 -113q-51 -45 -127 -45q-58 0 -104 29t-69 77l78 54q41 -59 90 -59q30 0 50 15q19 15 19 41q0 50 -81 50h-107v250h275z" />
    <glyph glyph-name="uni2785" unicode="&#x2785;" horiz-adv-x="971" 
d="M485 762q179 0 306 -126q126 -128 126 -306t-126 -306q-127 -126 -306 -126t-305 126q-126 128 -126 306t126 306q126 126 305 126zM485 657q-137 0 -230 -93t-93 -234t93 -234t230 -93t231 94q93 93 93 233t-93 234q-94 93 -231 93zM609 554l-106 -144q20 1 47 -8
q41 -15 70 -53q27 -37 27 -88q0 -71 -51 -117q-53 -47 -121 -47t-120 47q-51 47 -51 118q0 36 14 66q14 28 48 75l112 151h131zM475 324q-25 0 -43 -18t-18 -43q0 -27 18 -45q16 -19 43 -19q26 0 44 18t18 45t-18 45q-19 17 -44 17z" />
    <glyph glyph-name="uni2786" unicode="&#x2786;" horiz-adv-x="971" 
d="M485 762q179 0 306 -126q126 -128 126 -306t-126 -306q-127 -126 -306 -126t-305 126q-126 128 -126 306t126 306q126 126 305 126zM485 657q-137 0 -230 -93t-93 -234t93 -234t230 -93t231 94q93 93 93 233t-93 234q-94 93 -231 93zM657 554v-29l-194 -420h-122l169 348
h-176v101h323z" />
    <glyph glyph-name="uni2787" unicode="&#x2787;" horiz-adv-x="971" 
d="M485 762q179 0 306 -126q126 -128 126 -306t-126 -306q-127 -126 -306 -126t-305 126q-126 128 -126 306t126 306q126 126 305 126zM485 657q-137 0 -230 -93t-93 -234t93 -234t230 -93t231 94q93 93 93 233t-93 234q-94 93 -231 93zM486 562q67 0 111 -32q43 -33 43 -90
q0 -64 -62 -102q81 -34 81 -110q0 -60 -48 -95q-49 -36 -125 -36t-125 36q-49 34 -49 95q0 74 83 109q-63 39 -63 102q0 58 43 91q44 32 111 32zM486 475q-22 0 -36 -11q-14 -12 -14 -32q0 -32 49 -53q52 22 52 53q0 20 -14 32q-14 11 -37 11zM485 299q-28 -11 -47 -26
q-16 -13 -16 -37q0 -25 16 -38q17 -14 48 -14t48 14q16 13 16 37q0 23 -16 38q-17 14 -49 26z" />
    <glyph glyph-name="uni2788" unicode="&#x2788;" horiz-adv-x="971" 
d="M486 762q179 0 305 -126q126 -128 126 -306t-126 -306q-126 -126 -305 -126t-305 126q-127 127 -127 306t127 306q126 126 305 126zM486 657q-137 0 -230 -93q-94 -94 -94 -234t94 -233q93 -94 230 -94q136 0 230 93q93 93 93 234t-93 234q-95 93 -230 93zM496 563
q68 0 120 -47q51 -46 51 -118q0 -35 -14 -65q-15 -31 -48 -76l-112 -151h-131l106 144q-22 -1 -47 8q-42 15 -69 53q-28 37 -28 88q0 71 52 117q52 47 120 47zM496 461q-26 0 -44 -18t-18 -45q0 -28 18 -44q18 -18 44 -18t44 18q17 19 17 43q0 26 -17 46q-18 18 -44 18z" />
    <glyph glyph-name="uni27F5" unicode="&#x27f5;" horiz-adv-x="1216" 
d="M1171 264h-863l-68 3l158 -159l-79 -79l-279 278v26l279 279l79 -80l-157 -157l67 3h863v-114z" />
    <glyph glyph-name="uni27F6" unicode="&#x27f6;" horiz-adv-x="1216" 
d="M897 612l279 -279v-26l-279 -278l-79 79l158 159l-68 -3h-863v114h863l67 -3l-157 157z" />
    <glyph glyph-name="uniF8FF" unicode="&#xf8ff;" horiz-adv-x="722" 
d="M99 0v660h524v-660h-524zM458 123q36 0 58 22t22 54q0 26 -17 55q-17 30 -45 46l-24 -25q45 -44 45 -76q0 -18 -10 -28q-11 -11 -27 -11q-24 0 -43 27q-20 28 -54 103q83 46 111 78q28 29 28 62q0 38 -27 61q-29 21 -75 21q-3 0 -33 -2l26 55l-41 7l-33 -71
q-46 -9 -103 -36q-23 -66 -23 -161q0 -78 20 -158l42 -8q21 107 43 187q17 63 52 147q17 4 41 4q70 0 70 -50q0 -24 -26 -48q-29 -25 -114 -74l-1 -6q40 -101 67 -137q29 -38 71 -38zM231 202q-2 46 -2 81q0 86 23 157q20 12 51 20q-52 -132 -65 -258h-7z" />
    <glyph glyph-name="Alpha.ordn" horiz-adv-x="429" 
d="M308 244l-17 45h-152l-17 -45h-112l188 424h33l188 -424h-111zM262 366l-48 116l-47 -116h95z" />
    <glyph glyph-name="Eta.ordn" horiz-adv-x="477" 
d="M421 660v-416h-104v169h-157v-169h-104v416h104v-153h157v153h104z" />
    <glyph glyph-name="Nu.ordn" horiz-adv-x="477" 
d="M317 660h104v-424h-34l-227 224v-216h-104v424h34l227 -221v213z" />
    <glyph glyph-name="Omicron.ordn" horiz-adv-x="504" 
d="M251 668q92 0 159 -62q65 -63 65 -154q0 -92 -65 -154t-159 -62q-92 0 -157 62t-65 154q0 91 65 154q65 62 157 62zM252 572q-52 0 -85 -33q-32 -35 -32 -87q0 -53 32 -87q33 -33 85 -33q50 0 84 33q34 34 34 87t-34 87q-34 33 -84 33z" />
    <glyph glyph-name="Rho.ordn" horiz-adv-x="398" 
d="M217 660q68 0 114 -38q44 -38 44 -102q0 -63 -44 -102q-44 -40 -114 -40h-59v-134h-102v416h161zM218 571h-60v-104h60q25 0 40 15q14 14 14 37q0 22 -14 38q-16 14 -40 14z" />
    <glyph glyph-name="Sigma.ordn" horiz-adv-x="371" 
d="M183 337h160v-93h-318v21l115 192l-115 182v21h311v-94h-150l65 -98v-21z" />
    <glyph glyph-name="Upsilon.ordn" horiz-adv-x="409" 
d="M397 660l-141 -256v-160h-103v158l-142 258h115l79 -148l79 148h113z" />
    <glyph glyph-name="alpha.ordn" horiz-adv-x="425" 
d="M392 330h18v-86q-22 -7 -53 -7q-61 0 -80 45q-30 -46 -96 -46q-67 0 -109 47t-42 118t42 118q43 46 109 46q61 0 92 -39v33h95v-196q0 -17 6 -25q5 -8 18 -8zM201 330q27 0 46 18t19 52q0 35 -19 54q-19 18 -46 18t-46 -19q-20 -20 -20 -52q0 -31 20 -51t46 -20z" />
    <glyph glyph-name="eta.ordn" horiz-adv-x="405" 
d="M237 565q56 0 89 -34q33 -35 33 -93v-307h-104v292q0 23 -13 36t-34 13t-34 -13q-14 -14 -14 -36v-179h-103v193q0 36 -24 36q-10 0 -18 -1v86q21 7 52 7q55 0 74 -33q37 33 96 33z" />
    <glyph glyph-name="nu.ordn" horiz-adv-x="366" 
d="M249 559h109l-159 -323h-32l-159 323h109l66 -147z" />
    <glyph glyph-name="omicron.ordn" horiz-adv-x="400" 
d="M200 565q71 0 121 -47q50 -48 50 -117q0 -70 -50 -117q-49 -48 -121 -48t-121 48q-49 46 -49 117q0 70 50 117t120 47zM200 472q-30 0 -48 -19q-19 -19 -19 -52q0 -32 19 -51q18 -20 48 -20q29 0 49 20q18 20 18 51q0 33 -18 52q-19 19 -49 19z" />
    <glyph glyph-name="rho.ordn" horiz-adv-x="414" 
d="M216 565q76 0 122 -45q46 -46 46 -120q0 -70 -42 -117q-44 -47 -109 -47q-51 0 -83 30v-135h-103v267q0 76 46 122q47 45 123 45zM213 330q28 0 47 19q20 20 20 52t-20 52q-19 19 -47 19q-27 0 -46 -18t-19 -52q0 -33 20 -53q19 -19 45 -19z" />
    <glyph glyph-name="uni03C2.ordn" horiz-adv-x="354" 
d="M200 565q97 0 140 -82l-72 -56q-27 44 -69 44q-29 0 -47 -18q-17 -19 -17 -49q0 -16 6 -30q8 -14 20 -21q16 -10 24 -14q22 -8 31 -11q13 -4 28 -9q10 -3 28 -13q19 -11 28 -20q8 -10 18 -29q8 -21 8 -42q0 -43 -22 -84h-101q18 41 18 63q0 32 -47 46q-27 7 -49 18
q-23 12 -45 28q-23 16 -37 46q-13 27 -13 66q0 75 49 121q47 46 121 46z" />
    <glyph glyph-name="sigma.ordn" horiz-adv-x="419" 
d="M410 559v-87h-69q29 -35 29 -80q0 -63 -50 -110q-50 -46 -121 -46t-120 48q-49 46 -49 118q0 71 49 114t129 43h202zM200 331q27 0 47 20q19 19 19 50t-19 50t-47 19q-29 0 -47 -19t-18 -50t18 -50q18 -20 47 -20z" />
    <glyph glyph-name="upsilon.ordn" horiz-adv-x="390" 
d="M330 559q24 -91 24 -155q0 -82 -43 -125t-112 -43q-66 0 -109 41q-43 40 -43 112v170h103v-177q0 -26 13 -39q12 -14 34 -14q52 0 52 74q0 60 -19 156h100z" />
    <glyph glyph-name="zero.lf" horiz-adv-x="635" 
d="M318 672q128 0 195 -93q66 -93 66 -244q0 -152 -67 -249q-68 -98 -194 -98q-127 0 -195 98q-67 97 -67 249t67 244q67 93 195 93zM318 547q-123 0 -123 -213q0 -221 123 -221q122 0 122 221q0 213 -122 213z" />
    <glyph glyph-name="one.lf" horiz-adv-x="401" 
d="M265 660h45v-660h-135v500l-125 -40l-32 119z" />
    <glyph glyph-name="two.lf" horiz-adv-x="584" 
d="M286 115h246v-115l-487 -1v29l236 256q45 48 71 91q22 37 22 75q0 44 -25 70q-26 27 -67 27q-42 0 -67 -28q-26 -29 -26 -73q0 -15 5 -48h-136q-7 25 -7 56q0 86 65 153q65 65 168 65q100 0 164 -60q65 -60 65 -151q0 -65 -35 -124q-35 -57 -107 -132z" />
    <glyph glyph-name="three.lf" horiz-adv-x="549" 
d="M345 418q67 -18 113 -70t46 -132q0 -100 -72 -164q-71 -64 -177 -64q-82 0 -144 41q-61 40 -96 109l94 66q60 -91 142 -91q51 0 83 28q32 27 32 74q0 46 -34 71q-34 24 -101 24h-83v35l138 193h-220v122h425v-36z" />
    <glyph glyph-name="four.lf" horiz-adv-x="577" 
d="M563 222v-114h-84v-108h-135v108h-328v36l204 516h139l-175 -438h160v185h135v-185h84z" />
    <glyph glyph-name="five.lf" horiz-adv-x="564" 
d="M296 426q89 0 156 -55t67 -154q0 -101 -73 -165t-180 -64q-83 0 -147 41q-62 39 -98 109l94 66q58 -91 147 -91q51 0 85 28q33 27 33 74q0 95 -135 95h-154v350h382v-122h-252v-120q40 8 75 8z" />
    <glyph glyph-name="six.lf" horiz-adv-x="562" 
d="M305 448q88 0 153 -64q66 -64 66 -160q0 -100 -72 -168q-73 -68 -171 -68q-99 0 -170 68q-72 68 -72 169q0 53 21 97q19 40 69 110l165 228h159l-152 -212h4zM281 112q46 0 78 32q31 31 31 80t-31 80t-78 31q-45 0 -77 -32t-32 -79t32 -79q32 -33 77 -33z" />
    <glyph glyph-name="seven.lf" horiz-adv-x="525" 
d="M38 660h464v-36l-302 -624h-147l268 538h-283v122z" />
    <glyph glyph-name="eight.lf" horiz-adv-x="588" 
d="M412 342q129 -52 129 -166q0 -86 -68 -137q-69 -51 -179 -51t-179 51t-69 137q0 114 130 166q-100 58 -100 155q0 82 62 129q61 46 156 46q96 0 157 -46t61 -129q0 -98 -100 -155zM294 563q-41 0 -66 -19q-26 -20 -26 -53q0 -29 23 -49t69 -42q48 22 70 42q22 19 22 50
q0 32 -26 52q-25 19 -66 19zM294 98q55 0 84 23t29 60q0 38 -28 60q-29 24 -85 44q-54 -19 -84 -44q-29 -23 -29 -60t29 -60t84 -23z" />
    <glyph glyph-name="nine.lf" horiz-adv-x="562" 
d="M281 672q101 0 172 -67q71 -68 71 -170q0 -53 -21 -97q-21 -43 -70 -110l-164 -228h-160l153 212h-5q-87 0 -152 64q-66 64 -66 160q0 102 72 169q70 67 170 67zM281 325q46 0 78 32q31 31 31 79t-31 80q-32 32 -78 32q-45 0 -77 -32t-32 -80q0 -47 32 -79t77 -32z" />
    <glyph glyph-name="zero.slash.lf" horiz-adv-x="635" 
d="M318 672q128 0 195 -93q66 -93 66 -244q0 -152 -67 -249q-68 -98 -194 -98q-127 0 -195 98q-67 97 -67 249t67 244q67 93 195 93zM318 555q-131 0 -131 -221q0 -9 2 -59l227 225q-34 55 -98 55zM318 105q66 0 98 60q32 61 32 169q0 30 -2 52l-224 -225q33 -56 96 -56z
" />
    <glyph glyph-name="zero.slash" horiz-adv-x="659" 
d="M329 548q120 0 204 -81t84 -199t-84 -199q-85 -82 -205 -82q-121 0 -203 82q-83 81 -83 199t84 199q82 81 203 81zM329 431q-68 0 -111 -46q-45 -47 -45 -117q0 -38 14 -72l217 217q-33 18 -75 18zM329 105q67 0 112 46q45 45 45 117q0 40 -17 77l-219 -220
q35 -20 79 -20z" />
    <glyph glyph-name="zero.tf" 
d="M280 672q121 0 182 -91t61 -246q0 -157 -61 -251q-61 -96 -182 -96q-120 0 -182 96q-61 94 -61 251q0 155 61 246t182 91zM280 547q-55 0 -79 -52q-25 -51 -25 -161q0 -221 104 -221t104 221q0 108 -24 161q-25 52 -80 52z" />
    <glyph glyph-name="one.tf" 
d="M375 115h155v-115h-467v115h177v388l-157 -43l-33 119l280 81h45v-545z" />
    <glyph glyph-name="two.tf" 
d="M281 115h245v-115l-487 -1v29l237 256q45 48 71 91q22 37 22 75q0 44 -25 70q-26 27 -67 27q-42 0 -67 -28q-26 -29 -26 -73q0 -15 5 -48h-136q-7 25 -7 56q0 86 65 153q65 65 168 65q99 0 164 -60t65 -151q0 -65 -35 -124q-35 -57 -107 -132z" />
    <glyph glyph-name="three.tf" 
d="M345 418q66 -17 113 -71q46 -52 46 -132q0 -99 -72 -163q-71 -64 -177 -64q-82 0 -144 41q-61 40 -96 109l94 66q60 -91 142 -91q51 0 83 28q32 27 32 74q0 45 -35 71q-35 24 -101 24h-82v35l138 193h-221v122h426v-36z" />
    <glyph glyph-name="four.tf" 
d="M538 222v-114h-69v-108h-135v108h-321v36l175 516h140l-148 -438h154v185h135v-185h69z" />
    <glyph glyph-name="five.tf" 
d="M298 426q89 0 156 -55t67 -154q0 -101 -73 -165t-179 -64q-84 0 -148 41q-62 39 -98 109l94 66q58 -91 147 -91q52 0 85 27t33 75q0 95 -135 95h-154v350h382v-122h-253v-120q40 8 76 8z" />
    <glyph glyph-name="six.tf" 
d="M304 448q88 0 153 -64q66 -64 66 -160q0 -100 -72 -168q-73 -68 -171 -68t-171 68q-72 68 -72 169q0 53 21 97q21 43 70 110l165 228h159l-152 -212h4zM280 112q46 0 78 32q31 31 31 80t-31 80t-78 31q-45 0 -77 -32t-32 -79t32 -79q31 -33 77 -33z" />
    <glyph glyph-name="seven.tf" 
d="M62 660h463v-36l-302 -624h-147l269 538h-283v122z" />
    <glyph glyph-name="eight.tf" 
d="M398 342q129 -52 129 -166q0 -86 -68 -137q-69 -51 -179 -51t-179 51t-69 137q0 114 129 166q-99 58 -99 155q0 83 61 129t157 46q95 0 156 -46t61 -129q0 -97 -99 -155zM280 563q-41 0 -66 -19q-26 -20 -26 -53q0 -30 22 -49q23 -20 70 -42q46 21 69 42q23 20 23 50
q0 32 -26 52q-25 19 -66 19zM280 98q55 0 84 23t29 60q0 38 -28 60q-29 23 -86 44q-51 -18 -83 -43q-29 -24 -29 -61t29 -60t84 -23z" />
    <glyph glyph-name="nine.tf" 
d="M280 672q100 0 171 -67q72 -67 72 -170q0 -53 -21 -97q-21 -43 -70 -110l-165 -228h-159l152 212h-4q-88 0 -153 64q-66 64 -66 160q0 102 72 169q71 67 171 67zM280 325q46 0 78 32q31 31 31 79t-31 80q-32 32 -78 32q-45 0 -77 -32t-32 -80q0 -47 32 -79t77 -32z" />
    <glyph glyph-name="zero.slash.tf" 
d="M280 672q121 0 182 -91t61 -246q0 -157 -61 -251q-61 -96 -182 -96q-120 0 -182 96q-61 94 -61 251q0 155 61 246t182 91zM280 557q-115 0 -115 -223q0 -6 2 -46l204 205q-28 64 -91 64zM280 103q115 0 115 231v19q-1 7 -1 17l-203 -203q30 -64 89 -64z" />
    <glyph glyph-name="zero.tosf" 
d="M279 548q111 0 184 -79q75 -79 75 -201q0 -121 -74 -201q-75 -80 -185 -80t-183 79q-74 80 -74 202t74 202q74 78 183 78zM279 424q-54 0 -86 -41q-32 -43 -32 -115t32 -115q31 -42 86 -42q54 0 87 43q33 42 33 114t-33 114t-87 42z" />
    <glyph glyph-name="one.tosf" 
d="M369 537v-423h163v-114h-475v114h177v302h-165v121h300z" />
    <glyph glyph-name="two.tosf" 
d="M328 114h191v-114h-489v29l207 156q67 51 96 82q29 34 29 74q0 36 -24 60q-26 24 -66 24q-43 0 -65 -25q-24 -26 -24 -64q0 -21 4 -41h-133q-7 25 -7 55q0 79 64 139q63 60 165 60q96 0 160 -56q63 -55 63 -141q0 -64 -37 -114t-113 -108z" />
    <glyph glyph-name="three.tosf" 
d="M346 298q67 -19 113 -73q45 -52 45 -131q0 -99 -72 -164q-72 -63 -177 -63q-82 0 -144 41q-61 40 -96 108l94 67q60 -92 142 -92q50 0 83 27q32 29 32 75t-35 72q-34 25 -101 25h-80v35l136 191h-221v121h426v-36z" />
    <glyph glyph-name="four.tosf" 
d="M537 114v-114h-69v-121h-135v121h-321v36l169 501h140l-142 -423h154v186h135v-186h69z" />
    <glyph glyph-name="five.tosf" 
d="M298 306q88 0 156 -56q67 -57 67 -155q0 -100 -73 -164t-179 -64q-84 0 -148 41q-64 40 -97 108l93 67q60 -92 147 -92q52 0 86 28q33 27 33 75q0 96 -136 96h-154v347h383v-121h-254v-118q40 8 76 8z" />
    <glyph glyph-name="six.tosf" 
d="M304 448q88 0 153 -64q66 -64 66 -160q0 -100 -72 -168q-73 -68 -171 -68t-171 68q-72 68 -72 169q0 53 21 97q21 43 70 110l165 228h159l-152 -212h4zM280 112q46 0 78 32q31 31 31 80t-31 80t-78 31q-45 0 -77 -32t-32 -79t32 -79q31 -33 77 -33z" />
    <glyph glyph-name="seven.tosf" 
d="M62 537h463v-36l-302 -622h-146l268 537h-283v121z" />
    <glyph glyph-name="eight.tosf" 
d="M398 342q129 -52 129 -166q0 -86 -68 -137q-69 -51 -179 -51t-179 51t-69 137q0 114 129 166q-99 58 -99 155q0 83 61 129t157 46q95 0 156 -46t61 -129q0 -97 -99 -155zM280 563q-41 0 -66 -19q-26 -20 -26 -53q0 -30 22 -49q23 -20 70 -42q46 21 69 42q23 20 23 50
q0 32 -26 52q-25 19 -66 19zM280 98q55 0 84 23t29 60q0 38 -28 60q-29 23 -86 44q-51 -18 -83 -43q-29 -24 -29 -61t29 -60t84 -23z" />
    <glyph glyph-name="nine.tosf" 
d="M281 549q97 0 170 -68q72 -68 72 -169q0 -51 -20 -96q-20 -40 -71 -111l-163 -226h-160l151 210h-4q-88 0 -153 64q-66 64 -66 161q0 100 72 168q71 67 172 67zM280 202q46 0 78 32q31 31 31 79q0 49 -31 80q-32 32 -78 32q-45 0 -77 -32t-32 -80t32 -80q31 -31 77 -31z
" />
    <glyph glyph-name="zero.slash.tosf" 
d="M279 548q111 0 184 -79q75 -79 75 -201q0 -121 -74 -201q-75 -80 -185 -80t-183 79q-74 80 -74 202t74 202q74 78 183 78zM280 434q-59 0 -95 -45q-35 -47 -35 -121q0 -30 6 -55l197 197q-30 24 -73 24zM280 101q61 0 95 46q35 46 35 121q0 31 -7 60l-200 -200
q33 -27 77 -27z" />
    <glyph glyph-name="zero.dnom" horiz-adv-x="421" 
d="M210 424q83 0 127 -59q43 -58 43 -154t-43 -157q-44 -62 -127 -62q-81 0 -125 62q-43 61 -43 157q0 95 43 154q44 59 125 59zM210 332q-66 0 -66 -122q0 -126 66 -126q67 0 67 126q0 122 -67 122z" />
    <glyph glyph-name="one.dnom" horiz-adv-x="370" 
d="M246 416v-326h86v-90h-290v90h103v236h-94v90h195z" />
    <glyph glyph-name="two.dnom" horiz-adv-x="385" 
d="M214 90h132v-90l-313 -1v21l149 162q52 58 52 97q0 25 -13 39q-14 14 -35 14q-22 0 -36 -14q-13 -14 -13 -41q0 -1 0.5 -5t1 -10.5t0.5 -13.5h-99q-4 15 -4 35q0 55 42 99q42 42 109 42q63 0 107 -38q43 -39 43 -98q0 -44 -22 -79q-22 -36 -69 -85z" />
    <glyph glyph-name="three.dnom" horiz-adv-x="360" 
d="M235 264q39 -14 65 -46q26 -34 26 -80q0 -64 -46 -104q-46 -42 -114 -42q-52 0 -93 27q-41 26 -62 71l69 49q37 -55 83 -55q27 0 43 15q17 14 17 39q0 48 -76 48h-48v25l78 115h-133v90h275v-27z" />
    <glyph glyph-name="four.dnom" horiz-adv-x="375" 
d="M365 146v-82h-50v-64h-91v64h-212v26l124 326h103l-104 -270h89v109h91v-109h50z" />
    <glyph glyph-name="five.dnom" horiz-adv-x="370" 
d="M196 272q56 0 99 -35q42 -36 42 -97q0 -65 -47 -106q-46 -42 -117 -42q-54 0 -95 26q-40 27 -63 72l70 49q34 -55 84 -55q28 0 47 14q18 14 18 39q0 49 -76 49h-98v230h252v-90h-156v-59q25 5 40 5z" />
    <glyph glyph-name="six.dnom" horiz-adv-x="374" 
d="M214 288q49 -3 90 -44q40 -40 40 -100q0 -65 -47 -109q-46 -43 -110 -43t-110 43q-47 44 -47 111q0 32 14 62q14 29 43 67l103 141h118zM187 84q24 0 41 17t17 43q0 25 -17 42q-16 18 -41 18t-41 -18q-17 -17 -17 -42q0 -26 17 -43t41 -17z" />
    <glyph glyph-name="seven.dnom" horiz-adv-x="346" 
d="M33 416h296v-27l-181 -389h-108l156 326h-163v90z" />
    <glyph glyph-name="eight.dnom" horiz-adv-x="388" 
d="M278 215q75 -33 75 -102q0 -56 -44 -88q-45 -33 -115 -33t-114 33q-45 32 -45 88q0 70 74 102q-56 38 -56 96q0 53 40 83q39 30 101 30t102 -30q39 -30 39 -83q0 -60 -57 -96zM194 344q-22 0 -35 -10q-14 -11 -14 -28q0 -16 12 -26q9 -9 37 -24q49 22 49 50q0 17 -14 28
q-13 10 -35 10zM194 73q28 0 45 12q15 12 15 32q0 35 -60 57q-61 -22 -61 -57q0 -20 16 -32q15 -12 45 -12z" />
    <glyph glyph-name="nine.dnom" horiz-adv-x="374" 
d="M187 424q64 0 110 -43t46 -111q0 -34 -13 -61q-13 -28 -43 -68l-104 -141h-117l94 128q-50 3 -91 44q-39 40 -39 100q0 65 47 109q46 43 110 43zM187 212q24 0 41 17q17 19 17 43q0 26 -17 43t-41 17t-41 -17t-17 -43q0 -25 17 -42q16 -18 41 -18z" />
    <glyph glyph-name="zero.numr" horiz-adv-x="421" 
d="M210 668q83 0 127 -59q43 -58 43 -154t-43 -157q-44 -62 -127 -62q-81 0 -125 62q-43 61 -43 157q0 95 43 154q44 59 125 59zM210 576q-66 0 -66 -122q0 -126 66 -126q67 0 67 126q0 122 -67 122z" />
    <glyph glyph-name="one.numr" horiz-adv-x="370" 
d="M246 660v-326h86v-90h-290v90h103v236h-94v90h195z" />
    <glyph glyph-name="two.numr" horiz-adv-x="385" 
d="M214 334h132v-90l-313 -1v21l149 162q52 58 52 97q0 25 -13 38q-14 15 -35 15q-22 0 -36 -15q-13 -13 -13 -40q0 -1 0.5 -5t1 -10.5t0.5 -13.5h-99q-4 15 -4 35q0 55 42 99q42 42 109 42q63 0 107 -38q43 -39 43 -98q0 -44 -22 -79q-22 -36 -69 -85z" />
    <glyph glyph-name="three.numr" horiz-adv-x="360" 
d="M234 508q38 -12 65 -45t27 -81q0 -64 -46 -104q-46 -42 -114 -42q-52 0 -93 27q-41 26 -62 71l69 49q37 -55 83 -55q27 0 43 15q17 14 17 39q0 48 -76 48h-48v25l78 115h-133v90h275v-27z" />
    <glyph glyph-name="four.numr" horiz-adv-x="375" 
d="M365 390v-82h-50v-64h-91v64h-212v26l124 326h103l-104 -270h89v109h91v-109h50z" />
    <glyph glyph-name="five.numr" horiz-adv-x="370" 
d="M196 516q56 0 99 -35q42 -36 42 -97q0 -65 -47 -106q-46 -42 -117 -42q-55 0 -95 27q-40 25 -63 71l70 49q34 -55 84 -55q28 0 47 14q18 14 18 39q0 49 -76 49h-98v230h252v-90h-156v-59q25 5 40 5z" />
    <glyph glyph-name="six.numr" horiz-adv-x="374" 
d="M214 532q51 -3 91 -43q39 -40 39 -101q0 -64 -47 -108t-110 -44t-110 44t-47 110q0 32 14 62q14 29 43 67l103 141h118zM187 328q24 0 41 17t17 43q0 24 -17 43q-17 17 -41 17t-41 -17q-17 -19 -17 -43q0 -26 17 -43t41 -17z" />
    <glyph glyph-name="seven.numr" horiz-adv-x="346" 
d="M33 660h296v-27l-181 -389h-108l156 326h-163v90z" />
    <glyph glyph-name="eight.numr" horiz-adv-x="388" 
d="M278 459q75 -33 75 -102q0 -56 -44 -89q-46 -32 -115 -32q-70 0 -114 32q-45 33 -45 89q0 71 75 102q-57 37 -57 96q0 53 40 83q39 30 101 30t102 -30q39 -30 39 -83q0 -60 -57 -96zM194 588q-22 0 -35 -10q-14 -11 -14 -28q0 -28 49 -50q49 22 49 50q0 17 -14 28
q-13 10 -35 10zM194 317q28 0 45 12q15 12 15 32q0 35 -61 57q-60 -22 -60 -57q0 -20 16 -32q15 -12 45 -12z" />
    <glyph glyph-name="nine.numr" horiz-adv-x="374" 
d="M187 668q64 0 110 -43t46 -111q0 -34 -13 -61q-13 -28 -43 -68l-104 -141h-117l93 128q-49 3 -90 44q-39 40 -39 100q0 65 47 109q46 43 110 43zM187 456q25 0 41 18q17 17 17 42q0 26 -17 43t-41 17t-41 -17t-17 -43q0 -25 17 -42q16 -18 41 -18z" />
    <glyph glyph-name="backslash.case" horiz-adv-x="648" 
d="M3 761h143l500 -861h-144z" />
    <glyph glyph-name="periodcentered.case" horiz-adv-x="270" 
d="M136 441q39 0 66 -27q26 -28 26 -66q0 -40 -26 -66q-26 -27 -66 -27t-67 27q-27 26 -27 66q0 39 27 66t67 27z" />
    <glyph glyph-name="bullet.case" horiz-adv-x="427" 
d="M214 458q68 0 115 -45q47 -47 47 -114t-47 -112q-46 -46 -115 -46q-68 0 -115 46q-48 45 -48 112t48 114q47 45 115 45z" />
    <glyph glyph-name="slash.case" horiz-adv-x="648" 
d="M646 761l-500 -861h-143l499 861h144z" />
    <glyph glyph-name="comma.subs" horiz-adv-x="205" 
d="M167 -16l-40 -229h-82l4 229h118z" />
    <glyph glyph-name="period.subs" horiz-adv-x="205" 
d="M103 12q30 0 50 -20q20 -22 20 -50q0 -31 -20 -51t-50 -20q-31 0 -51 20q-21 19 -21 51q0 29 21 49q20 21 51 21z" />
    <glyph glyph-name="comma.sups" horiz-adv-x="205" 
d="M167 469l-40 -230h-82l4 230h118z" />
    <glyph glyph-name="period.sups" horiz-adv-x="205" 
d="M103 496q30 0 50 -20q20 -22 20 -50q0 -31 -20 -51t-50 -20q-31 0 -51 20q-21 19 -21 51q0 29 21 50q20 20 51 20z" />
    <glyph glyph-name="braceleft.case" horiz-adv-x="413" 
d="M317 652q-62 0 -62 -65q0 -19 11 -83q11 -66 11 -88q0 -37 -17 -57q-19 -20 -55 -29q38 -9 55 -29t17 -57q0 -23 -11 -87q-11 -66 -11 -84q0 -65 62 -65h58v-108h-81q-154 0 -154 141q0 30 11 98t11 82q0 52 -55 52h-62v114h62q55 0 55 52q0 15 -11 83t-11 97
q0 141 154 141h81v-108h-58z" />
    <glyph glyph-name="braceright.case" horiz-adv-x="413" 
d="M306 387h61v-114h-61q-55 0 -55 -52q0 -15 11 -83t11 -97q0 -141 -154 -141h-81v108h57q63 0 63 65q0 19 -11 83q-11 66 -11 88q0 37 17 57t55 29q-72 16 -72 86q0 23 11 87q11 66 11 84q0 65 -63 65h-57v108h81q154 0 154 -141q0 -29 -11 -97t-11 -83q0 -52 55 -52z" />
    <glyph glyph-name="bracketleft.case" horiz-adv-x="357" 
d="M319 760v-108h-114v-643h114v-109h-229v860h229z" />
    <glyph glyph-name="bracketright.case" horiz-adv-x="357" 
d="M268 760v-860h-230v109h114v643h-114v108h230z" />
    <glyph glyph-name="parenleft.case" horiz-adv-x="365" 
d="M286 766l53 -80q-153 -101 -153 -355q0 -255 153 -355l-53 -80q-96 43 -157 151q-61 107 -61 284t61 284q61 108 157 151z" />
    <glyph glyph-name="parenright.case" horiz-adv-x="365" 
d="M80 766q95 -44 156 -151t61 -284t-61 -284t-156 -151l-54 80q154 102 154 355t-154 355z" />
    <glyph glyph-name="emdash.case" horiz-adv-x="1000" 
d="M950 405v-113h-900v113h900z" />
    <glyph glyph-name="endash.case" horiz-adv-x="502" 
d="M467 405v-113h-432v113h432z" />
    <glyph glyph-name="uni2015.case" horiz-adv-x="1000" 
d="M950 405v-113h-900v113h900z" />
    <glyph glyph-name="hyphen.case" horiz-adv-x="342" 
d="M297 405v-113h-252v113h252z" />
    <glyph glyph-name="uni00AD.case" horiz-adv-x="342" 
d="M297 405v-113h-252v113h252z" />
    <glyph glyph-name="guillemotleft.case" horiz-adv-x="597" 
d="M224 534l86 -75l-135 -152l135 -153l-86 -74l-195 208v36zM481 534l86 -75l-135 -152l135 -153l-86 -75l-195 209v36z" />
    <glyph glyph-name="guillemotright.case" horiz-adv-x="597" 
d="M117 534l194 -210v-36l-194 -208l-86 74l134 153l-134 152zM374 534l194 -210v-36l-194 -209l-87 75l135 153l-135 152z" />
    <glyph glyph-name="guilsinglleft.case" horiz-adv-x="340" 
d="M224 534l86 -75l-135 -152l135 -153l-86 -74l-195 208v36z" />
    <glyph glyph-name="guilsinglright.case" horiz-adv-x="340" 
d="M117 534l194 -210v-36l-194 -208l-86 74l134 153l-134 152z" />
    <glyph glyph-name="cent.tf" 
d="M306 191q70 0 120 71l93 -72q-57 -104 -175 -120v-167h-117v175q-82 24 -135 92t-53 156t53 156t135 92v175h117v-167q117 -16 176 -120l-94 -72q-50 71 -120 71q-57 0 -93 -38q-36 -39 -36 -97t36 -96q36 -39 93 -39z" />
    <glyph glyph-name="currency.tf" 
d="M488 329q0 -55 -30 -102l82 -85l-79 -80l-88 90q-45 -22 -99 -22q-50 0 -92 19l-81 -87l-80 81l74 78q-32 47 -32 107q0 61 34 108l-76 78l80 80l84 -86q42 19 89 19q53 0 98 -22l88 89l80 -80l-82 -83q30 -47 30 -102zM200 328q0 -33 20 -53q21 -21 55 -21q33 0 54 21
q21 19 21 53t-21 55q-22 20 -54 20q-35 0 -54 -21q-21 -21 -21 -54z" />
    <glyph glyph-name="dollar.tf" 
d="M499 200q0 -71 -46 -117q-45 -45 -120 -59v-121h-118v124q-119 25 -177 135l92 68q55 -91 151 -91q38 0 62 15t24 44q0 24 -18 38q-19 14 -58 31l-69 25q-149 56 -149 174q0 62 39 105t103 58v120h118v-118q100 -21 149 -115l-90 -68q-47 68 -114 68q-32 0 -51 -12
q-21 -14 -21 -39q0 -23 16 -36t51 -27l74 -26q152 -56 152 -176z" />
    <glyph glyph-name="Euro.tf" 
d="M516 134l33 -115q-63 -31 -146 -31q-110 0 -187 58q-79 59 -110 156h-89v96h70q-1 7 -1 33v27h-68v96h86q32 101 110 159q79 59 188 59q83 0 146 -31l-32 -115q-52 21 -108 21q-109 0 -157 -93h245l-26 -96h-245q-1 -6 -1 -28q0 -25 1 -32h228l-27 -96h-173
q48 -89 155 -89q54 0 108 21z" />
    <glyph glyph-name="florin.tf" 
d="M452 551q-44 0 -70 -17q-26 -16 -30 -60l-9 -68h116v-115h-130l-29 -239q-12 -98 -63 -141q-53 -44 -143 -44q-51 0 -82 10l-1 113q50 -2 56 -2q46 0 71 17q24 17 29 59l28 227h-97v115h111l10 80q23 186 206 186q44 0 83 -11v-112q-54 2 -56 2z" />
    <glyph glyph-name="sterling.tf" 
d="M306 219q0 -59 -32 -105h254v-114h-489v29q64 46 100 92q33 43 33 96v11h-123v114h79q-42 76 -42 135q0 87 63 141t158 54q84 0 145 -46q60 -46 84 -135l-113 -41q-31 97 -107 97q-42 0 -68 -26q-25 -26 -25 -68q0 -41 43 -111h166v-114h-126v-9z" />
    <glyph glyph-name="yen.tf" 
d="M546 660l-177 -286h145v-108h-166v-63h166v-108h-166v-95h-135v95h-165v108h165v63h-165v108h144l-177 286h149l117 -210l117 210h148z" />
    <glyph glyph-name="section.case" horiz-adv-x="602" 
d="M573 253q0 -53 -31 -90q-30 -36 -85 -53q2 -22 2 -25q0 -71 -51 -116t-136 -45q-135 0 -198 107l85 69q46 -63 113 -63q60 0 60 48q0 23 -16 40q-15 15 -59 45l-91 62q-74 45 -105 85q-32 40 -32 90q0 52 32 90q31 37 84 54q-2 22 -2 25q0 71 51 116t136 45
q132 0 197 -108l-85 -69q-47 63 -113 63q-60 0 -60 -47q0 -24 16 -40q19 -19 60 -46l90 -62q73 -43 106 -84q32 -41 32 -91zM323 264q58 -37 89 -68q34 19 34 53q0 21 -16 38q-17 19 -61 48l-98 66q-60 40 -82 64q-34 -19 -34 -54q0 -21 16 -37q18 -20 62 -48z" />
    <glyph glyph-name="dieresis.case" horiz-adv-x="479" 
d="M111 892q34 0 57 -22q24 -22 24 -56q0 -32 -24 -54q-25 -23 -57 -23q-31 0 -56 24q-25 22 -25 53q0 34 24 56q25 22 57 22zM369 892q32 0 57 -23q24 -22 24 -56q0 -31 -24 -54q-25 -23 -57 -23q-31 0 -56 24q-25 22 -25 53q0 34 25 56q25 23 56 23z" />
    <glyph glyph-name="dieresis.i" horiz-adv-x="441" 
d="M111 754q32 0 57 -23q24 -23 24 -56q0 -31 -24 -54q-25 -23 -57 -23q-31 0 -57 23q-24 23 -24 54q0 33 24 56q26 23 57 23zM331 754q32 0 57 -23q24 -23 24 -56q0 -31 -24 -54q-25 -23 -57 -23q-31 0 -56 24q-25 22 -25 53q0 34 25 56q25 23 56 23z" />
    <glyph glyph-name="otatonos" horiz-adv-x="220" 
d="M190 780v-24l-61 -185h-99v209h160z" />
    </font>
</defs>
</svg>
