<svg id="Layer_1" data-name="Layer 1" xmlns="http://www.w3.org/2000/svg" viewBox="0 0 841.89 595.28"><defs><style>.cls-1{fill:#3aaaf2;fill-rule:evenodd;}</style></defs><title>gravll</title><path class="cls-1" d="M310.41,402.79V388.51H295.93v5.2h8.7v6.39A12.83,12.83,0,0,1,301,402a14.25,14.25,0,0,1-4.54.71,11.66,11.66,0,0,1-4.74-.93,10.81,10.81,0,0,1-3.64-2.56,11.31,11.31,0,0,1-2.36-3.87,13.93,13.93,0,0,1-.82-4.86,12.75,12.75,0,0,1,.85-4.68A12.42,12.42,0,0,1,288,382a10.84,10.84,0,0,1,3.5-2.61,10.1,10.1,0,0,1,4.35-1,15,15,0,0,1,2.94.27,13.26,13.26,0,0,1,2.45.73,12.94,12.94,0,0,1,2.14,1.14,21.29,21.29,0,0,1,2,1.51l3.79-4.52a22.06,22.06,0,0,0-2.7-2,17.39,17.39,0,0,0-2.94-1.43,18.43,18.43,0,0,0-3.37-.9,24,24,0,0,0-4.06-.32,17.5,17.5,0,0,0-7.07,1.41,17.07,17.07,0,0,0-9.18,9.43,18,18,0,0,0-1.29,6.8,18.87,18.87,0,0,0,1.26,6.95,16.57,16.57,0,0,0,3.58,5.56,16.29,16.29,0,0,0,5.56,3.69,18.9,18.9,0,0,0,7.24,1.34,21.86,21.86,0,0,0,4.27-.41,20.9,20.9,0,0,0,3.81-1.15,20.2,20.2,0,0,0,3.31-1.7,23.33,23.33,0,0,0,2.79-2Zm229.08,4.71H563.3v-5.39H545.42V373.5h-5.93v34Zm-47.3,0H516v-5.39H498.12V373.5h-5.93v34Zm-39.72-7.86L442.21,373.5h-6.6l14.14,34.25H455l14.14-34.25h-6.46l-10.2,26.14Zm-47.11-26.39h-5.54l-15,34.25H391l3.5-8.21h16.08L414,407.5h6.32l-15-34.25Zm3,20.75H396.66l5.83-13.6,5.88,13.6Zm-44.1,13.5-9.18-12.87a12.84,12.84,0,0,0,3.28-1.38,10,10,0,0,0,2.55-2.19,10.12,10.12,0,0,0,1.68-3,12.22,12.22,0,0,0-.27-8.31,9.15,9.15,0,0,0-2.5-3.4,11.29,11.29,0,0,0-4-2.14,17.29,17.29,0,0,0-5.27-.75H335.42v34h5.92V395.65h7.51l8.38,11.85Zm-7.14-22.9a5.12,5.12,0,0,1-1.9,4.19,7.77,7.77,0,0,1-5.12,1.57h-8.77V378.89h8.72a8.31,8.31,0,0,1,5.22,1.44A5.06,5.06,0,0,1,357.13,384.6Z"/><path class="cls-1" d="M390.57,323.16c-15.32-11.74-25.76-25.69-29.6-40.88,5.25,4.89,13.37,9.43,23.82,13.46a191.22,191.22,0,0,0,5.78,27.42Zm64.68-40.54c-6-13.85-7.58-24.67-3.86-30.85,6.18-3.72,17-2.12,30.85,3.86q-7.37,5.91-14.32,12.67-6.76,6.94-12.67,14.32ZM437,309.92a189.46,189.46,0,0,1,15.29-23.47c-4.53-10.24-7.07-19.2-7.32-26.36-8,13.45-10.51,30.7-8,49.83Zm.92-113.48a232.53,232.53,0,0,0-9.25,39.9c13.34-2.4,28-4.26,43.67-5.48,1.22-15.64,3.08-30.33,5.48-43.67a232.53,232.53,0,0,0-39.9,9.25Zm-40.38,19.14a165,165,0,0,1,34.38-17.05,239.84,239.84,0,0,0-8.59,38.81,248.72,248.72,0,0,0-33,8.59,183.06,183.06,0,0,1,7.21-30.35ZM384.2,290.92q-1-9.37-1.17-19.08.14-9.69,1.17-19.09c-14,5.57-22.81,12.09-24.55,19.09C361.39,278.84,370.17,285.36,384.2,290.92Z"/></svg>